v 0.04983866 0.00210476 -0.01430000
v 0.05011582 0.00198995 -0.01400000
v 0.04972000 -0.00000000 -0.01400000
v 0.04942000 -0.00000000 -0.01430000
v 0.05103091 0.00388909 -0.01430000
v 0.05124304 0.00367696 -0.01400000
v 0.05281524 0.00508134 -0.01430000
v 0.05293004 0.00480417 -0.01400000
v 0.05492000 0.00550000 -0.01430000
v 0.05492000 0.00520000 -0.01400000
v 0.05702475 0.00508134 -0.01430000
v 0.05690995 0.00480417 -0.01400000
v 0.05859695 0.00367696 -0.01400000
v 0.05880908 0.00388909 -0.01430000
v 0.06000133 0.00210476 -0.01430000
v 0.05972417 0.00198995 -0.01400000
v 0.06011999 -0.00000000 -0.01400000
v 0.06042000 -0.00000000 -0.01430000
v 0.04913856 -0.00050878 -0.02099912
v 0.04933560 0.00144490 -0.02100028
v 0.04902997 0.00188256 -0.02130147
v 0.04885091 -0.00047206 -0.02129999
v 0.04974234 -0.00292856 -0.02101806
v 0.04944233 -0.00282957 -0.02130184
v 0.04876646 -0.00374752 -0.02130004
v 0.04895999 -0.00399160 -0.02100153
v 0.05299193 -0.00515098 -0.02000000
v 0.05309710 -0.00487001 -0.02030000
v 0.05071077 -0.00340311 -0.02029979
v 0.05072705 -0.00375598 -0.01999989
v 0.05507192 -0.00549790 -0.02000000
v 0.05506363 -0.00519802 -0.02030000
v 0.05712958 -0.00503664 -0.02000000
v 0.05700906 -0.00476192 -0.02030000
v 0.05886243 -0.00383500 -0.02000000
v 0.05864739 -0.00362582 -0.02030000
v 0.06001575 -0.00206962 -0.02000000
v 0.05973780 -0.00195673 -0.02030000
v 0.06042000 -0.00000000 -0.02000000
v 0.06012000 -0.00000000 -0.02030000
v 0.05142000 -0.00000000 -0.01430000
v 0.05168642 -0.00133939 -0.01430000
v 0.05112478 -0.00074554 -0.01400069
v 0.05244512 -0.00247487 -0.01430000
v 0.05223299 -0.00268701 -0.01400000
v 0.05358060 -0.00323358 -0.01430000
v 0.05415645 -0.00379145 -0.01400087
v 0.05492000 -0.00350000 -0.01430000
v 0.05625939 -0.00323358 -0.01430000
v 0.05706121 -0.00322111 -0.01400058
v 0.05739487 -0.00247487 -0.01430000
v 0.05815357 -0.00133939 -0.01430000
v 0.05871162 -0.00076358 -0.01400069
v 0.05842000 -0.00000000 -0.01430000
v 0.05872000 -0.00000000 -0.02030000
v 0.05842000 -0.00000000 -0.02000000
v 0.05814101 -0.00214115 -0.02029931
v 0.05815358 -0.00133939 -0.02000000
v 0.05739487 -0.00247487 -0.02000000
v 0.05625939 -0.00323358 -0.02000000
v 0.05567861 -0.00381377 -0.02029911
v 0.05492000 -0.00350000 -0.02000000
v 0.05358060 -0.00323358 -0.02000000
v 0.05278686 -0.00319247 -0.02029931
v 0.05244512 -0.00247487 -0.02000000
v 0.05168642 -0.00133939 -0.02000000
v 0.05112812 -0.00076363 -0.02029957
v 0.05142000 -0.00000000 -0.02000000
v 0.04913260 -0.00039702 -0.02030000
v 0.04932313 0.00194263 -0.02029988
v -0.00739302 0.00400000 -0.01706387
v -0.00730235 0.00025000 -0.01704584
v -0.00643311 0.00400000 -0.01721874
v -0.00635625 0.00025000 -0.01727010
v -0.00586166 0.00025000 -0.01805369
v -0.00584485 0.00400000 -0.01805034
v -0.00594516 0.00025000 -0.01877837
v -0.00605018 0.00400000 -0.01900149
v -0.00643311 0.00025000 -0.01938130
v -0.00662165 0.00400000 -0.01945487
v -0.00739301 0.00025000 -0.01953617
v -0.00730235 0.00400000 -0.01955420
v -0.00550001 -0.00400000 -0.01830002
v -0.00550001 -0.00025000 -0.01830002
v -0.00571598 -0.00400000 -0.01744639
v -0.00578171 -0.00025000 -0.01734801
v -0.00678472 -0.00025000 -0.01671493
v -0.00648772 -0.00400000 -0.01682181
v -0.00771230 -0.00025000 -0.01682181
v -0.00710001 -0.00400000 -0.01670002
v -0.00805202 -0.00400000 -0.01698172
v -0.00848404 -0.00025000 -0.01744639
v -0.00868510 -0.00400000 -0.01798474
v -0.00870001 -0.00025000 -0.01830002
v 0.00374903 0.00007925 -0.01530002
v 0.00370131 0.00019401 -0.02130002
v 0.00350000 0.00025000 -0.01530002
v 0.06004022 0.00200831 -0.02000000
v 0.05895334 0.00373927 -0.02000000
v 0.05730945 0.00495384 -0.02000000
v 0.05533557 0.00548428 -0.02000000
v 0.05330431 0.00525733 -0.02000000
v 0.05149617 0.00430435 -0.01560000
v 0.05149617 0.00430435 -0.02000000
v 0.05053449 0.00333392 -0.01531293
v 0.04967332 0.00176621 -0.01529905
v 0.04942602 -0.00061436 -0.01530009
v 0.04983866 -0.00210476 -0.01430000
v 0.05039836 -0.00318701 -0.01529758
v 0.05076879 -0.00377434 -0.01562611
v 0.05103091 -0.00388909 -0.01430000
v 0.05281524 -0.00508134 -0.01430000
v 0.05492000 -0.00550000 -0.01430000
v 0.05702475 -0.00508134 -0.01430000
v 0.05880908 -0.00388909 -0.01430000
v 0.06000133 -0.00210476 -0.01430000
v 0.05815357 0.00133939 -0.01430000
v 0.05815358 0.00133939 -0.02000000
v 0.05739487 0.00247487 -0.02000000
v 0.05739487 0.00247487 -0.01430000
v 0.05625939 0.00323358 -0.02000000
v 0.05492000 0.00350000 -0.02000000
v 0.05625939 0.00323358 -0.01430000
v 0.05492000 0.00350000 -0.01430000
v 0.05358060 0.00323358 -0.02000000
v 0.05358060 0.00323358 -0.01430000
v 0.05244512 0.00247487 -0.02000000
v 0.05244512 0.00247487 -0.01430000
v 0.05168642 0.00133939 -0.02000000
v 0.05168642 0.00133939 -0.01430000
v 0.04412519 -0.00575417 -0.02100178
v 0.04412597 -0.00575639 -0.01560218
v 0.04920017 -0.00390639 -0.02008806
v 0.04994608 -0.00364757 -0.01560425
v 0.05005469 -0.00364007 -0.02000562
v 0.01216946 -0.00599957 -0.01560001
v 0.04275039 -0.00599955 -0.01559977
v 0.01216960 -0.00599955 -0.02100025
v 0.04275053 -0.00599958 -0.02099958
v 0.00498026 -0.00364679 -0.02099981
v 0.00493208 -0.00363503 -0.01560012
v 0.01079411 -0.00575546 -0.01559996
v 0.01079437 -0.00575605 -0.02099947
v -0.00180242 -0.00519628 -0.01560002
v -0.00391046 -0.00400569 -0.02099682
v -0.00390893 -0.00400564 -0.01560249
v -0.00180242 -0.00519628 -0.02100002
v 0.00013968 -0.00549823 -0.01560002
v 0.00013968 -0.00549823 -0.02100002
v 0.00206394 -0.00509805 -0.01560002
v 0.00206394 -0.00509805 -0.02100002
v 0.00418190 -0.00375789 -0.01559980
v 0.00418251 -0.00375777 -0.02100004
v -0.00578171 -0.00400000 -0.01925203
v -0.01030001 -0.00400000 -0.01560002
v -0.00684100 -0.00400000 -0.01990537
v -0.00848404 -0.00400000 -0.01915366
v -0.01030001 -0.00400000 -0.02100002
v -0.00771230 -0.00400000 -0.01977823
v -0.01060001 -0.00025000 -0.01560002
v -0.01060001 -0.00370000 -0.01560002
v -0.01060001 -0.00025000 -0.02100002
v -0.01060001 -0.00370000 -0.02100002
v -0.00359132 -0.00025000 -0.01530002
v -0.00298957 -0.00025000 -0.01380002
v -0.00359132 -0.00025000 -0.01380002
v -0.00298957 -0.00025000 -0.02130002
v -0.00571597 -0.00025000 -0.01915365
v -0.01030001 -0.00025000 -0.01530002
v -0.00672495 -0.00025000 -0.01988229
v -0.01030001 -0.00025000 -0.02130002
v -0.00771230 -0.00025000 -0.01977823
v -0.00841830 -0.00025000 -0.01925204
v -0.00289122 -0.00080054 -0.02130002
v -0.00269240 -0.00132326 -0.02130002
v -0.00279677 -0.00111749 -0.01380002
v -0.00235538 -0.00186144 -0.02130002
v -0.00223360 -0.00199266 -0.01380002
v -0.00207627 -0.00199968 -0.02130002
v 0.00223012 -0.00199612 -0.01380002
v 0.00209165 -0.00199897 -0.02130002
v 0.00237335 -0.00184309 -0.02130002
v 0.00281959 -0.00107246 -0.01380002
v 0.00269239 -0.00132326 -0.02130002
v 0.00289122 -0.00080054 -0.02130002
v 0.00298956 -0.00025000 -0.02130002
v 0.00298956 -0.00025000 -0.01380002
v 0.00354379 -0.00024747 -0.01529913
v 0.00359130 -0.00025000 -0.01380002
v 0.00363720 -0.00022483 -0.02130002
v 0.00298956 0.00025000 -0.01380002
v 0.00359130 0.00025000 -0.01380002
v 0.00298956 0.00025000 -0.02130002
v 0.00281959 0.00107246 -0.01380002
v 0.00289122 0.00080054 -0.02130002
v 0.00269239 0.00132326 -0.02130002
v 0.00236041 0.00185451 -0.02130002
v 0.00223012 0.00199612 -0.01380002
v -0.00223360 0.00199266 -0.01380002
v -0.00207631 0.00199979 -0.02130002
v 0.00209165 0.00199897 -0.02130002
v -0.00237336 0.00184309 -0.02130002
v -0.00281959 0.00107250 -0.01380002
v -0.00269240 0.00132326 -0.02130002
v -0.00289122 0.00080054 -0.02130002
v -0.00298957 0.00025000 -0.02130002
v -0.00298957 0.00025000 -0.01380002
v -0.00359132 0.00025000 -0.01380002
v -0.00359132 0.00025000 -0.01530002
v -0.00816408 0.00025000 -0.01758903
v -0.01030001 0.00025000 -0.01530002
v -0.01060001 0.00025000 -0.01560002
v -0.00833836 0.00025000 -0.01854634
v -0.00798389 0.00025000 -0.01918391
v -0.01030001 0.00025000 -0.02130002
v -0.01060001 0.00025000 -0.02100002
v -0.01060001 0.00370000 -0.01560002
v -0.01060001 0.00370000 -0.02100002
v -0.00390549 0.00400498 -0.01560222
v -0.00390494 0.00400498 -0.02099789
v -0.01030001 0.00400000 -0.01560002
v -0.00814983 0.00400000 -0.01759854
v -0.00835001 0.00400000 -0.01830002
v -0.01030001 0.00400000 -0.02100002
v -0.00812992 0.00400000 -0.01904379
v 0.00178573 0.00520203 -0.01560002
v 0.00342382 0.00430435 -0.02100002
v 0.00342382 0.00430435 -0.01560002
v 0.00178573 0.00520203 -0.02100002
v -0.00005833 0.00549969 -0.01560002
v -0.00005833 0.00549969 -0.02100002
v -0.00189567 0.00516299 -0.01560002
v -0.00189567 0.00516299 -0.02100002
v 0.04776108 0.00300000 -0.01560000
v 0.00715891 0.00300000 -0.01560002
v 0.00715891 0.00300000 -0.02100002
v 0.04776109 0.00300000 -0.02100000
v 0.04339230 -0.00569497 -0.02130000
v 0.04804841 0.00269969 -0.02130001
v 0.00645845 0.00270248 -0.02130001
v 0.01152626 -0.00569037 -0.02130002
v 0.00443862 -0.00319922 -0.02130006
v 0.00106753 -0.00513332 -0.02130033
v 0.00382148 0.00367238 -0.02129997
v -0.00170410 -0.00491285 -0.02130002
v -0.00370965 -0.00373528 -0.02130002
v 0.00083114 0.00520581 -0.02130030
v -0.00179226 0.00488137 -0.02130002
v -0.00371192 0.00372544 -0.02130003
v -0.01030001 -0.00370000 -0.02130002
v -0.01030001 0.00370000 -0.02130002
v 0.04339756 -0.00569155 -0.01530000
v 0.04824352 0.00270070 -0.01530000
v 0.00443865 -0.00319922 -0.01529997
v 0.00195136 -0.00481998 -0.01530002
v 0.00245560 -0.00263249 -0.01530002
v 0.00324966 -0.00154908 -0.01530002
v 0.00013206 -0.00519832 -0.01530002
v 0.00131966 -0.00334940 -0.01530002
v 0.01152933 -0.00569458 -0.01530002
v 0.00645709 0.00270238 -0.01530002
v -0.00000000 -0.00360000 -0.01530002
v -0.00170411 -0.00491285 -0.01530002
v -0.00131967 -0.00334940 -0.01530002
v 0.00324966 0.00154908 -0.01530002
v 0.00382411 0.00367833 -0.01530007
v -0.00371253 -0.00372653 -0.01530001
v -0.00245561 -0.00263249 -0.01530002
v 0.00245560 0.00263249 -0.01530002
v -0.00324968 -0.00154908 -0.01530002
v 0.00131966 0.00334940 -0.01530002
v 0.00084891 0.00520254 -0.01529934
v -0.00000000 0.00360000 -0.01530002
v -0.00179227 0.00488137 -0.01530002
v -0.00131967 0.00334940 -0.01530002
v -0.00371192 0.00372544 -0.01530001
v -0.00245561 0.00263249 -0.01530002
v -0.00324968 0.00154908 -0.01530002
v -0.01030001 -0.00370000 -0.01530002
v -0.01030001 0.00370000 -0.01530002
v 0.00324966 -0.00154908 -0.01380002
v 0.00245560 -0.00263249 -0.01380002
v 0.00131966 -0.00334940 -0.01380002
v -0.00000000 -0.00360000 -0.01380002
v -0.00131967 -0.00334940 -0.01380002
v -0.00245561 -0.00263249 -0.01380002
v -0.00324968 -0.00154908 -0.01380002
v -0.00324968 0.00154908 -0.01380002
v -0.00245561 0.00263249 -0.01380002
v -0.00131967 0.00334940 -0.01380002
v -0.00000000 0.00360000 -0.01380002
v 0.00131966 0.00334940 -0.01380002
v 0.00245560 0.00263249 -0.01380002
v 0.00324966 0.00154908 -0.01380002
v 0.05293004 -0.00480417 -0.01400000
v 0.05124304 -0.00367696 -0.01400000
v 0.05011582 -0.00198995 -0.01400000
v 0.05492000 -0.00520000 -0.01400000
v 0.05172746 0.00213318 -0.01400062
v 0.05690995 -0.00480417 -0.01400000
v 0.05859695 -0.00367696 -0.01400000
v 0.05346580 0.00351074 -0.01400000
v 0.05972417 -0.00198995 -0.01400000
v 0.05568360 0.00379174 -0.01400058
v 0.05814086 0.00214105 -0.01400087
v 0.05976094 0.00189877 -0.02030000
v 0.05811252 0.00213318 -0.02029938
v 0.05873334 0.00353531 -0.02030000
v 0.04972130 -0.00266709 -0.02030006
v 0.05717912 0.00468363 -0.02030000
v 0.05567860 0.00381377 -0.02029911
v 0.05531291 0.00518514 -0.02030000
v 0.05339244 0.00497057 -0.02030000
v 0.05276357 0.00321077 -0.02029928
v 0.05140926 0.00145420 -0.02030000
v 0.05099263 0.00358521 -0.02029998
v 0.04817723 0.00302580 -0.02008937
v 0.00456010 0.00359202 -0.02100002
v 0.00582621 0.00314988 -0.02100002
v 0.00456010 0.00359202 -0.01560002
v 0.00582621 0.00314988 -0.01560002
v 0.04912800 0.00315778 -0.02000000
v 0.04909378 0.00314988 -0.01560000
v 0.05037571 0.00359965 -0.02000000
v 0.05035989 0.00359202 -0.01560000
v 0.04890472 0.00263781 -0.02099773
v 0.00842079 -0.00962446 -0.00950001
v 0.00842079 -0.00962446 -0.00700001
v 0.00875232 -0.01094924 -0.00950001
v 0.00875232 -0.01094924 -0.00700001
v 0.00855164 -0.01230005 -0.00700001
v 0.00855164 -0.01230005 -0.00950001
v 0.00784931 -0.01347123 -0.00700001
v 0.00784931 -0.01347123 -0.00950001
v 0.00675225 -0.01428450 -0.00700001
v 0.00675225 -0.01428450 -0.00950001
v 0.00542747 -0.01461603 -0.00700001
v 0.00542747 -0.01461603 -0.00950001
v 0.00407667 -0.01441536 -0.00700001
v 0.00407667 -0.01441536 -0.00950001
v 0.00290548 -0.01371303 -0.00700001
v 0.00209221 -0.01261597 -0.00700001
v 0.00290547 -0.01371303 -0.00950001
v 0.00209221 -0.01261597 -0.00950001
v -0.00299641 -0.00014655 -0.01080002
v -0.00271225 -0.00128207 -0.01080002
v -0.00229250 0.00191381 -0.01370327
v -0.00222242 0.00201516 -0.01080002
v -0.00282441 0.00101129 -0.01080002
v -0.00158434 0.00254752 -0.01370001
v -0.00128207 0.00271225 -0.01080001
v -0.00055319 0.00294856 -0.01370001
v -0.00014655 0.00299642 -0.01080001
v 0.00055319 0.00294856 -0.01370001
v 0.00101129 0.00282441 -0.01080001
v 0.00158434 0.00254752 -0.01370001
v 0.00201516 0.00222241 -0.01080001
v 0.00229100 0.00191084 -0.01370146
v 0.00271225 0.00128207 -0.01080001
v 0.00257035 0.00154963 -0.02130001
v 0.00209221 -0.01261597 0.00949999
v 0.00209221 -0.01261597 0.00699999
v 0.00290547 -0.01371303 0.00949999
v 0.00290547 -0.01371303 0.00699999
v 0.00407666 -0.01441536 0.00699999
v 0.00407666 -0.01441536 0.00949999
v 0.00542747 -0.01461603 0.00699999
v 0.00542747 -0.01461603 0.00949999
v 0.00675225 -0.01428450 0.00699999
v 0.00675225 -0.01428450 0.00949999
v 0.00784931 -0.01347123 0.00699999
v 0.00784931 -0.01347123 0.00949999
v 0.00855164 -0.01230005 0.00699999
v 0.00855164 -0.01230005 0.00949999
v 0.00875232 -0.01094924 0.00699999
v 0.00875232 -0.01094924 0.00949999
v 0.00842079 -0.00962446 0.00699999
v 0.00842079 -0.00962446 0.00949999
v 0.00239999 0.00180000 0.01369999
v 0.00201516 0.00222241 0.01079999
v 0.00271225 0.00128207 0.01079999
v 0.00158433 0.00254752 0.01369999
v 0.00101128 0.00282441 0.01079999
v 0.00271224 0.00128207 0.02129999
v 0.00257066 0.00154980 0.02129994
v 0.00239999 0.00180000 0.02129999
v 0.00055319 0.00294856 0.01369999
v -0.00014655 0.00299642 0.01079999
v -0.00055320 0.00294856 0.01369999
v -0.00128208 0.00271225 0.01079999
v -0.00158435 0.00254752 0.01369999
v -0.00222242 0.00201516 0.01079999
v -0.00240001 0.00180000 0.01369999
v -0.00282441 0.00101129 0.01079999
v -0.00288166 0.00083429 0.02129999
v -0.00299642 -0.00014655 0.01079999
v -0.00240001 0.00180000 0.02129999
v -0.00299044 -0.00023938 0.02129999
v -0.00271225 -0.00128207 0.01079999
v -0.00271225 -0.00128207 0.02129999
v 0.00083824 -0.01243346 -0.00950150
v 0.00094781 -0.00919117 -0.00950000
v 0.00037726 -0.00991166 -0.00900767
v 0.00025828 -0.01125348 -0.00900001
v 0.00039290 -0.01228011 -0.00900001
v 0.00073609 -0.01325700 -0.00900001
v 0.00189789 -0.01482423 -0.00900001
v 0.00223375 -0.01445383 -0.00950001
v 0.00357102 -0.01582756 -0.00900001
v 0.00373957 -0.01535683 -0.00950001
v 0.00550075 -0.01611424 -0.00900001
v 0.00547632 -0.01561484 -0.00950001
v 0.00739329 -0.01564062 -0.00900001
v 0.00717961 -0.01518858 -0.00950001
v 0.00896052 -0.01447881 -0.00900001
v 0.00859012 -0.01414296 -0.00950001
v 0.00949311 -0.01263714 -0.00950001
v 0.00996385 -0.01280569 -0.00900001
v 0.00975112 -0.01090039 -0.00950001
v 0.01025052 -0.01087596 -0.00900001
v 0.00977691 -0.00898342 -0.00900001
v 0.00899243 -0.00845484 -0.00950127
v 0.00853200 -0.00734250 0.00899999
v 0.00905375 -0.00857490 0.00950078
v 0.00650457 -0.00656710 0.00949996
v 0.00741724 -0.00658573 0.00899912
v 0.00923986 -0.00809816 0.00899999
v 0.00977691 -0.00898342 0.00899999
v 0.00975113 -0.01090039 0.00949999
v 0.01025052 -0.01087596 0.00899999
v 0.00949311 -0.01263714 0.00949999
v 0.00996385 -0.01280569 0.00899999
v 0.00859012 -0.01414296 0.00949999
v 0.00896052 -0.01447881 0.00899999
v 0.00739329 -0.01564062 0.00899999
v 0.00717961 -0.01518858 0.00949999
v 0.00550074 -0.01611424 0.00899999
v 0.00547632 -0.01561484 0.00949999
v 0.00357102 -0.01582756 0.00899999
v 0.00373957 -0.01535683 0.00949999
v 0.00189789 -0.01482423 0.00899999
v 0.00223375 -0.01445383 0.00949999
v 0.00073609 -0.01325700 0.00899999
v 0.00087955 -0.01243883 0.00950092
v 0.00742402 -0.00657768 0.00374999
v 0.00853200 -0.00734250 0.00374999
v 0.00923986 -0.00809816 0.00374999
v 0.00977691 -0.00898342 0.00374999
v 0.01025052 -0.01087596 0.00374999
v 0.00996385 -0.01280569 0.00374999
v 0.00896052 -0.01447881 0.00374999
v 0.00739328 -0.01564062 0.00374999
v 0.00550074 -0.01611424 0.00374999
v 0.00357102 -0.01582756 0.00374999
v 0.00189789 -0.01482423 0.00374999
v 0.00073608 -0.01325700 0.00374999
v 0.00853200 -0.00734250 -0.00900001
v 0.00853200 -0.00734250 -0.00375001
v 0.00741980 -0.00658282 -0.00375001
v 0.00742240 -0.00657968 -0.00900268
v 0.00923987 -0.00809816 -0.00900001
v 0.00923987 -0.00809816 -0.00375001
v 0.00977691 -0.00898342 -0.00375001
v 0.01025053 -0.01087596 -0.00375001
v 0.00996385 -0.01280569 -0.00375001
v 0.00896052 -0.01447881 -0.00375001
v 0.00739329 -0.01564062 -0.00375001
v 0.00550075 -0.01611424 -0.00375001
v 0.00189789 -0.01482423 -0.00375001
v 0.00357103 -0.01582756 -0.00375001
v 0.00073609 -0.01325700 -0.00375001
v 0.00796875 -0.00983814 0.00374999
v 0.00796875 -0.00983814 0.00699999
v 0.00825291 -0.01097366 0.00374999
v 0.00825291 -0.01097366 0.00699999
v 0.00808091 -0.01213150 0.00699999
v 0.00808090 -0.01213150 0.00374999
v 0.00747891 -0.01313537 0.00699999
v 0.00653857 -0.01383246 0.00699999
v 0.00747891 -0.01313537 0.00374999
v 0.00653857 -0.01383246 0.00374999
v 0.00540305 -0.01411663 0.00699999
v 0.00424521 -0.01394462 0.00699999
v 0.00540305 -0.01411663 0.00374999
v 0.00424521 -0.01394462 0.00374999
v 0.00324133 -0.01334263 0.00699999
v 0.00254425 -0.01240229 0.00699999
v 0.00324133 -0.01334263 0.00374999
v 0.00254425 -0.01240229 0.00374999
v 0.00235102 0.00259282 -0.01080001
v 0.00316429 0.00149575 -0.01080001
v 0.00316429 0.00149575 -0.00900001
v 0.00293736 0.00195303 -0.00049061
v 0.00117983 0.00329515 -0.01080001
v 0.00293241 0.00195727 0.00049604
v 0.00235102 0.00259282 0.01079999
v 0.00316429 0.00149575 0.00899999
v 0.00316429 0.00149575 0.01079999
v 0.00117983 0.00329515 0.01079999
v -0.00017097 0.00349582 -0.01080001
v -0.00017098 0.00349582 0.01079999
v -0.00149576 0.00316429 0.01079999
v -0.00149575 0.00316429 -0.01080001
v -0.00259281 0.00235102 -0.01080002
v -0.00259282 0.00235102 0.01079999
v -0.00329515 0.00117983 0.01079999
v -0.00329515 0.00117983 -0.01080002
v -0.00316429 -0.00149575 -0.00900001
v -0.00316429 -0.00149575 -0.01080002
v -0.00349582 -0.00017097 -0.01080002
v -0.00349582 -0.00017097 0.01079999
v -0.00316429 -0.00149575 0.00899999
v -0.00316429 -0.00149575 0.01079999
v -0.00275175 -0.00217084 -0.00908295
v -0.00235102 -0.00259282 -0.01080002
v -0.00194182 -0.00291193 -0.00950001
v -0.00117983 -0.00329515 -0.01080001
v -0.00084860 -0.00339557 -0.00950001
v 0.00017097 -0.00349582 -0.01080001
v 0.00034362 -0.00348309 -0.00950001
v 0.00149575 -0.00316429 -0.01080001
v 0.00149575 -0.00316429 -0.00950001
v 0.00247339 -0.00247635 -0.00950001
v 0.00259282 -0.00235102 -0.01080001
v 0.00316250 -0.00149953 -0.00950001
v 0.00329515 -0.00117983 -0.01080001
v 0.00348268 -0.00034778 -0.00950001
v 0.00349582 0.00017097 -0.01080001
v 0.00344643 0.00059268 -0.00912983
v 0.00796875 -0.00983814 -0.00375001
v 0.00825292 -0.01097366 -0.00375001
v 0.00796875 -0.00983814 -0.00700001
v 0.00808091 -0.01213150 -0.00375001
v 0.00825292 -0.01097366 -0.00700001
v 0.00747891 -0.01313537 -0.00375001
v 0.00808091 -0.01213150 -0.00700001
v 0.00747891 -0.01313537 -0.00700001
v 0.00653857 -0.01383246 -0.00375001
v 0.00653857 -0.01383246 -0.00700001
v 0.00540305 -0.01411663 -0.00375001
v 0.00424521 -0.01394462 -0.00375001
v 0.00540305 -0.01411663 -0.00700001
v 0.00324134 -0.01334263 -0.00375001
v 0.00424521 -0.01394462 -0.00700001
v 0.00324133 -0.01334263 -0.00700001
v 0.00254425 -0.01240229 -0.00375001
v 0.00254425 -0.01240229 -0.00700001
v 0.00226008 -0.01126676 -0.00700001
v 0.00226008 -0.01126676 -0.00375001
v 0.00243209 -0.01010893 -0.00375001
v 0.00243209 -0.01010893 -0.00700001
v 0.00303409 -0.00910505 -0.00375001
v 0.00303409 -0.00910505 -0.00700001
v 0.00397443 -0.00840797 -0.00375001
v 0.00397443 -0.00840797 -0.00700001
v 0.00510995 -0.00812379 -0.00375001
v 0.00626778 -0.00829580 -0.00375001
v 0.00510995 -0.00812379 -0.00700001
v 0.00626778 -0.00829580 -0.00700001
v 0.00727166 -0.00889780 -0.00375001
v 0.00727166 -0.00889780 -0.00700001
v -0.00264554 -0.00228699 0.00912980
v -0.00235103 -0.00259281 0.01079999
v -0.00194182 -0.00291193 0.00949999
v -0.00117984 -0.00329515 0.01079999
v -0.00084860 -0.00339557 0.00949999
v 0.00017097 -0.00349582 0.01079999
v 0.00034362 -0.00348309 0.00949999
v 0.00149575 -0.00316429 0.01079999
v 0.00247339 -0.00247635 0.00949999
v 0.00149575 -0.00316429 0.00949999
v 0.00259281 -0.00235102 0.01079999
v 0.00316249 -0.00149953 0.00949999
v 0.00329514 -0.00117983 0.01079999
v 0.00348267 -0.00034778 0.00949999
v 0.00349582 0.00017098 0.01079999
v 0.00342410 0.00074847 0.00908293
v 0.00542928 -0.00329588 -0.00375001
v 0.00656174 -0.00568795 -0.00899965
v 0.00660078 -0.00574233 -0.00375001
v 0.00542928 -0.00329588 -0.00050001
v -0.00089929 -0.00628739 -0.00375001
v 0.00542928 -0.00329588 0.00049999
v -0.00089930 -0.00628739 0.00374999
v 0.00542928 -0.00329588 0.00374999
v 0.00226008 -0.01126676 0.00374999
v 0.00226008 -0.01126676 0.00699999
v 0.00243209 -0.01010893 0.00699999
v 0.00243209 -0.01010893 0.00374999
v 0.00303408 -0.00910505 0.00699999
v 0.00397442 -0.00840797 0.00699999
v 0.00303408 -0.00910505 0.00374999
v 0.00397442 -0.00840797 0.00374999
v 0.00510995 -0.00812379 0.00699999
v 0.00510995 -0.00812379 0.00374999
v 0.00626778 -0.00829580 0.00699999
v 0.00626778 -0.00829580 0.00374999
v 0.00727166 -0.00889780 0.00699999
v 0.00727166 -0.00889780 0.00374999
v 0.00026419 -0.00878422 -0.00375001
v 0.00022864 -0.00868111 -0.00899792
v 0.00024758 -0.00874553 0.00374999
v 0.00023032 -0.00868079 0.00899962
v 0.00039290 -0.01228011 -0.00375001
v 0.00025828 -0.01125348 -0.00375001
v 0.00037310 -0.00991188 -0.00375001
v 0.00656304 -0.00568684 0.00899952
v 0.00662016 -0.00577976 0.00374999
v 0.00039290 -0.01228011 0.00374999
v 0.00039290 -0.01228011 0.00899999
v 0.00025827 -0.01125348 0.00374999
v 0.00025827 -0.01125348 0.00899999
v 0.00037719 -0.00991185 0.00374999
v 0.00037309 -0.00991188 0.00900019
v 0.00176068 -0.01129119 0.00949999
v 0.00094614 -0.00919538 0.00949995
v 0.00196135 -0.00994038 0.00949999
v 0.00266368 -0.00876919 0.00949999
v 0.00376074 -0.00795592 0.00949999
v 0.00760752 -0.00852740 0.00949999
v 0.00643633 -0.00782507 0.00949999
v 0.00508552 -0.00762439 0.00949999
v 0.00176068 -0.01129119 -0.00950001
v 0.00196135 -0.00994038 -0.00950001
v 0.00266368 -0.00876919 -0.00950001
v 0.00376074 -0.00795592 -0.00950001
v 0.00760752 -0.00852740 -0.00950001
v 0.00650072 -0.00656632 -0.00950000
v 0.00643633 -0.00782507 -0.00950001
v 0.00508552 -0.00762439 -0.00950001
v -0.00240001 -0.00180000 0.01369999
v -0.00201517 -0.00222241 0.01079999
v -0.00158435 -0.00254752 0.01369999
v -0.00101129 -0.00282441 0.01079999
v -0.00257066 -0.00154980 0.02129994
v -0.00240001 -0.00180000 0.02129999
v -0.00055320 -0.00294855 0.01369999
v 0.00014655 -0.00299642 0.01079999
v 0.00055319 -0.00294855 0.01369999
v 0.00128207 -0.00271225 0.01079999
v 0.00158433 -0.00254752 0.01369999
v 0.00222241 -0.00201516 0.01079999
v 0.00237456 -0.00184181 0.01369927
v 0.00282441 -0.00101128 0.01079999
v 0.00288165 -0.00083429 0.02129999
v 0.00299641 0.00014655 0.01079999
v 0.00236794 -0.00185110 0.02129999
v 0.00299043 0.00023938 0.02129999
v 0.00207633 -0.00199959 0.02129999
v 0.00207632 -0.00199959 0.01370070
v -0.00200000 -0.00200000 0.02129999
v -0.00200000 -0.00200000 0.01369999
v 0.00199999 0.00200000 0.01369999
v 0.00215209 0.00197630 0.01369999
v -0.00215211 0.00197630 0.01369999
v -0.00200000 0.00200000 0.01369999
v -0.00200000 0.00200000 0.02129999
v 0.00200000 0.00200000 0.02129999
v -0.00215210 -0.00197630 0.02129999
v -0.00228979 -0.00190746 0.02129999
v -0.00228979 0.00190746 0.02129999
v -0.00215210 0.00197631 0.02129999
v 0.00215209 0.00197631 0.02129999
v 0.00228978 0.00190746 0.02129999
v 0.00760752 -0.00852740 0.00699999
v 0.00643633 -0.00782507 0.00699999
v 0.00508552 -0.00762439 0.00699999
v 0.00376074 -0.00795592 0.00699999
v 0.00266368 -0.00876919 0.00699999
v 0.00196135 -0.00994038 0.00699999
v 0.00176068 -0.01129119 0.00699999
v -0.00228979 -0.00190746 0.01369999
v -0.00215211 -0.00197630 0.01369999
v -0.00228979 0.00190746 0.01369999
v 0.00228978 0.00190746 0.01369999
v 0.00299642 0.00014655 -0.01080001
v 0.00237705 -0.00183977 -0.01370000
v 0.00222242 -0.00201516 -0.01080001
v 0.00282441 -0.00101128 -0.01080001
v 0.00158434 -0.00254752 -0.01370001
v 0.00128207 -0.00271225 -0.01080001
v 0.00055319 -0.00294855 -0.01370001
v 0.00014655 -0.00299642 -0.01080001
v -0.00055319 -0.00294855 -0.01370001
v -0.00101129 -0.00282441 -0.01080001
v -0.00158434 -0.00254752 -0.01370001
v -0.00201516 -0.00222241 -0.01080002
v -0.00233085 -0.00189353 -0.01369985
v -0.00257034 -0.00154963 -0.02130001
v 0.00000000 0.00000000 0.00000000
v -0.00207637 0.00199921 -0.01370001
v 0.00207623 0.00199958 -0.01370001
v -0.00200000 -0.00200000 -0.01370001
v 0.00211318 -0.00199917 -0.01370001
v 0.00176068 -0.01129119 -0.00700001
v 0.00196135 -0.00994038 -0.00700001
v 0.00266368 -0.00876919 -0.00700001
v 0.00376074 -0.00795592 -0.00700001
v 0.00508552 -0.00762439 -0.00700001
v 0.00643633 -0.00782507 -0.00700001
v 0.00760752 -0.00852740 -0.00700001
v -0.00194743 0.00459996 0.01081880
v -0.00193863 0.00460639 0.01377391
v -0.00355081 0.00351558 0.01376271
v -0.00356017 0.00350692 0.01082664
v -0.00003153 0.00499690 0.01082521
v -0.00003180 0.00499666 0.01377694
v 0.00188512 0.00462957 0.01377521
v 0.00188767 0.00462658 0.01082328
v 0.00347782 0.00352239 0.01081339
v 0.00351484 0.00355451 0.01377298
v 0.00456104 0.00192336 0.01081339
v 0.00460533 0.00194204 0.01377720
v 0.00499949 0.00003203 0.01377588
v 0.00494989 0.00003152 0.01081339
v 0.00458517 -0.00186513 0.01081339
v 0.00462733 -0.00188585 0.01378567
v 0.00355954 -0.00350789 0.01083632
v 0.00352238 -0.00347782 0.01378659
v 0.00213701 -0.00211205 0.01082736
v 0.00213614 -0.00210935 0.01375959
v 0.00116201 -0.00276942 0.01083942
v 0.00117273 -0.00276547 0.01377038
v 0.00002516 -0.00300375 0.01377038
v 0.00001249 -0.00300414 0.01082359
v -0.00112616 -0.00278476 0.01377049
v -0.00113743 -0.00278018 0.01082960
v -0.00210611 -0.00214187 0.01377028
v -0.00211488 -0.00213321 0.01082970
v -0.00276548 -0.00117274 0.01377038
v -0.00277020 -0.00116152 0.01082948
v -0.00300407 -0.00002576 0.01377638
v -0.00300383 -0.00001308 0.01082960
v -0.00278302 0.00113194 0.01376099
v -0.00213404 0.00211342 0.01377227
v -0.00278131 0.00113173 0.01082784
v -0.00214184 0.00210585 0.01083361
v -0.00499620 -0.00003761 0.01083129
v -0.00454780 -0.00002904 0.01086908
v -0.00462969 0.00187930 0.01082896
v -0.00460265 -0.00194090 0.01083084
v -0.00419051 -0.00176720 0.01086908
v -0.00420983 0.00171253 0.01087343
v -0.00351118 -0.00355623 0.01083167
v -0.00319902 -0.00324002 0.01086208
v -0.00320541 0.00316243 0.01087489
v -0.00187799 -0.00463046 0.01084009
v -0.00171625 -0.00421916 0.01086760
v -0.00175441 0.00410653 0.01094528
v 0.00003772 -0.00499619 0.01083129
v -0.00002604 0.00451422 0.01087866
v 0.00002904 -0.00454773 0.01086909
v 0.00170764 0.00419860 0.01087825
v 0.00175997 -0.00417187 0.01087945
v 0.00194885 -0.00460052 0.01082590
v 0.00320920 -0.00317249 0.01086890
v 0.00317306 0.00321484 0.01086782
v 0.00413925 -0.00168547 0.01094944
v 0.00410050 0.00184989 0.01091843
v 0.00448150 -0.00007622 0.01094825
v -0.00346168 -0.00082451 0.01100157
v -0.00324205 0.00131878 0.01099999
v -0.00199584 0.00292886 0.01087554
v -0.00185587 -0.00305491 0.01099878
v 0.00071116 -0.00346311 0.01101064
v 0.00066742 0.00347246 0.01087320
v 0.00294083 -0.00201466 0.01087211
v 0.00243848 0.00247024 0.01087024
v 0.00320705 0.00135369 0.01096819
v 0.00347060 0.00002181 0.01087135
v -0.00337520 0.00084014 0.01080140
v -0.00293946 -0.00180964 0.01079504
v -0.00117327 0.00276461 0.01082407
v -0.00130152 -0.00321276 0.01080932
v -0.00001919 0.00301334 0.01084999
v 0.00063461 -0.00339909 0.01079613
v 0.00113542 0.00279130 0.01084999
v 0.00211718 0.00214432 0.01084999
v 0.00279373 -0.00113370 0.01080954
v 0.00277662 0.00117088 0.01084999
v 0.00301437 0.00002087 0.01081505
v -0.00116905 0.00277930 0.01379048
v -0.00001769 0.00301445 0.01378495
v 0.00113542 0.00279130 0.01374999
v 0.00211676 0.00214599 0.01378747
v 0.00277661 0.00117088 0.01374999
v 0.00301464 0.00001592 0.01379068
v 0.00279145 -0.00113975 0.01378541
v 0.00070533 -0.00343359 0.01379295
v -0.00188513 -0.00298433 0.01378647
v 0.00293945 -0.00200335 0.01373657
v -0.00343260 -0.00065139 0.01379399
v 0.00349070 0.00002222 0.01371533
v 0.00319428 0.00138050 0.01367006
v -0.00321884 0.00128418 0.01379029
v 0.00244561 0.00247689 0.01372180
v -0.00204015 0.00291172 0.01373492
v 0.00066563 0.00346055 0.01372673
v 0.00175989 -0.00413313 0.01366177
v -0.00101176 -0.00445961 0.01359814
v 0.00198149 -0.00296820 0.01358417
v -0.00068162 -0.00349724 0.01360004
v -0.00316167 -0.00320217 0.01359999
v 0.00320854 -0.00316829 0.01372582
v -0.00294177 -0.00198231 0.01359887
v 0.00411963 -0.00175251 0.01365829
v -0.00451035 -0.00075680 0.01359990
v 0.00447669 0.00004416 0.01366541
v -0.00347103 0.00066751 0.01359034
v 0.00410063 0.00179749 0.01364329
v -0.00410324 0.00180174 0.01364950
v -0.00321281 0.00317125 0.01373114
v 0.00316996 0.00321059 0.01373926
v -0.00091516 0.00445181 0.01359049
v 0.00169556 0.00416834 0.01359999
v -0.00178161 0.00417201 0.01379208
v -0.00005074 0.00453395 0.01378732
v 0.00169933 0.00420952 0.01379319
v 0.00002600 -0.00499627 0.01376868
v -0.00066910 -0.00454791 0.01378732
v 0.00194104 -0.00460463 0.01377222
v -0.00188801 -0.00462589 0.01376875
v -0.00350960 -0.00355446 0.01376907
v -0.00323192 -0.00327333 0.01379999
v -0.00460513 -0.00194194 0.01375938
v -0.00418698 -0.00174874 0.01379212
v -0.00499628 -0.00002601 0.01376868
v -0.00453386 -0.00000769 0.01378797
v -0.00462544 0.00188833 0.01377438
v 0.05841999 -0.00000000 0.01430000
v 0.05815357 -0.00133939 0.01430000
v 0.05871520 -0.00074554 0.01400070
v 0.05739486 -0.00247487 0.01430000
v 0.05707644 -0.00321079 0.01400070
v 0.05625938 -0.00323358 0.01430000
v 0.05491998 -0.00350000 0.01430000
v 0.05417448 -0.00379504 0.01400087
v 0.05358059 -0.00323358 0.01430000
v 0.05244511 -0.00247487 0.01430000
v 0.05223298 -0.00268701 0.01400000
v 0.05168641 -0.00133939 0.01430000
v 0.05112836 -0.00076358 0.01400069
v 0.05141998 -0.00000000 0.01430000
v 0.05141998 -0.00000000 0.02000000
v 0.05168641 -0.00133939 0.02000000
v 0.05112452 -0.00074559 0.02029956
v 0.05244511 -0.00247487 0.02000000
v 0.05276359 -0.00321072 0.02029922
v 0.05358059 -0.00323358 0.02000000
v 0.05491998 -0.00350000 0.02000000
v 0.05566554 -0.00379532 0.02029942
v 0.05625938 -0.00323358 0.02000000
v 0.05739486 -0.00247487 0.02000000
v 0.05813077 -0.00215645 0.02029930
v 0.05815356 -0.00133939 0.02000000
v 0.05841998 -0.00000000 0.02000000
v 0.05871520 0.00074554 0.02029931
v 0.06000132 0.00210476 0.01430000
v 0.05972416 0.00198995 0.01400001
v 0.06011999 -0.00000000 0.01400001
v 0.06041998 -0.00000000 0.01430000
v 0.05880907 0.00388909 0.01430000
v 0.05859694 0.00367696 0.01400001
v 0.05702474 0.00508134 0.01430000
v 0.05690994 0.00480417 0.01400000
v 0.05491998 0.00550000 0.01430000
v 0.05491998 0.00520000 0.01400000
v 0.05293003 0.00480417 0.01400000
v 0.05281523 0.00508134 0.01430000
v 0.05103090 0.00388909 0.01430000
v 0.05124303 0.00367696 0.01400000
v 0.05011581 0.00198995 0.01400000
v 0.04983865 0.00210476 0.01430000
v 0.04941998 -0.00000000 0.01430000
v 0.04971999 -0.00000000 0.01400000
v 0.04895986 -0.00399166 0.02100149
v 0.04953017 -0.00343592 0.02031100
v 0.04884755 -0.00403888 0.02001709
v 0.04975547 -0.00290935 0.02100695
v 0.04966541 -0.00240017 0.02030000
v -0.00739303 0.00400000 0.01953613
v -0.00730237 0.00025000 0.01955417
v -0.00643312 0.00400000 0.01938126
v -0.00635626 0.00025000 0.01932991
v -0.00586167 0.00025000 0.01854632
v -0.00584486 0.00400000 0.01854966
v -0.00594517 0.00025000 0.01782163
v -0.00605019 0.00400000 0.01759851
v -0.00643312 0.00025000 0.01721871
v -0.00662166 0.00400000 0.01714513
v -0.00710002 0.00025000 0.01704998
v -0.00730236 0.00400000 0.01704580
v -0.00551775 -0.00024966 0.01867503
v -0.00624639 -0.00025002 0.01968401
v -0.00614801 -0.00400000 0.01961828
v -0.00549467 -0.00400000 0.01855898
v -0.00747507 -0.00025043 0.01988225
v -0.00735903 -0.00400000 0.01990533
v -0.00844379 -0.00025000 0.01919787
v -0.00823139 -0.00400000 0.01943135
v -0.00870001 -0.00025000 0.01829998
v -0.00868511 -0.00400000 0.01861526
v 0.00372349 -0.00019463 0.02129990
v 0.00367164 0.00022762 0.01529979
v 0.00363478 0.00022693 0.02129999
v 0.06004021 0.00200831 0.02000000
v 0.06041998 -0.00000000 0.02000000
v 0.05895332 0.00373927 0.02000000
v 0.05730943 0.00495384 0.02000000
v 0.05533556 0.00548428 0.02000000
v 0.05149616 0.00430435 0.01560000
v 0.05053438 0.00333380 0.01531290
v 0.05330430 0.00525733 0.02000000
v 0.04967331 0.00176621 0.01529905
v 0.05149616 0.00430435 0.02000000
v 0.04942601 -0.00061436 0.01530009
v 0.04983865 -0.00210476 0.01430000
v 0.05033769 -0.00317958 0.01529861
v 0.05059382 -0.00340448 0.01530912
v 0.05103090 -0.00388909 0.01430000
v 0.05096920 -0.00389569 0.01560003
v 0.05281523 -0.00508134 0.01430000
v 0.05299191 -0.00515098 0.02000000
v 0.05491998 -0.00550000 0.01430000
v 0.05072664 -0.00375574 0.02000021
v 0.05507191 -0.00549790 0.02000000
v 0.05702474 -0.00508134 0.01430000
v 0.05712957 -0.00503664 0.02000000
v 0.05880907 -0.00388909 0.01430000
v 0.05886242 -0.00383500 0.02000000
v 0.06000132 -0.00210476 0.01430000
v 0.06001574 -0.00206962 0.02000000
v 0.05815356 0.00133939 0.02000000
v 0.05815357 0.00133939 0.01430000
v 0.05739486 0.00247487 0.01430000
v 0.05739486 0.00247487 0.02000000
v 0.05625938 0.00323358 0.01430000
v 0.05491998 0.00350000 0.01430000
v 0.05625938 0.00323358 0.02000000
v 0.05491998 0.00350000 0.02000000
v 0.05358059 0.00323358 0.01430000
v 0.05244511 0.00247487 0.01430000
v 0.05358059 0.00323358 0.02000000
v 0.05244511 0.00247487 0.02000000
v 0.05168641 0.00133939 0.01430000
v 0.05168641 0.00133939 0.02000000
v 0.04339363 -0.00569038 0.01530000
v 0.04824370 0.00270134 0.01530000
v 0.00256172 -0.00273861 0.01529999
v 0.00195134 -0.00481998 0.01529999
v 0.00444055 -0.00319934 0.01529994
v 0.00338842 -0.00160655 0.01529999
v 0.00137706 -0.00348800 0.01529999
v 0.00013205 -0.00519832 0.01529998
v 0.00645843 0.00270249 0.01529999
v 0.01152932 -0.00569458 0.01529999
v 0.00373970 -0.00022846 0.01530001
v -0.00000001 -0.00375000 0.01529998
v -0.00170412 -0.00491285 0.01529998
v -0.00137710 -0.00348800 0.01529998
v 0.00338842 0.00160655 0.01529999
v 0.00382148 0.00367241 0.01530007
v -0.00371254 -0.00372653 0.01529997
v -0.00256176 -0.00273861 0.01529998
v 0.00256172 0.00273861 0.01529999
v -0.00338846 -0.00160655 0.01529998
v 0.00137706 0.00348800 0.01529999
v 0.00083105 0.00520535 0.01529924
v -0.00374168 -0.00025000 0.01529998
v -0.00000001 0.00375000 0.01529998
v -0.00179228 0.00488137 0.01529998
v -0.00137710 0.00348800 0.01529998
v -0.00371193 0.00372544 0.01529997
v -0.00256176 0.00273861 0.01529998
v -0.00338846 0.00160655 0.01529998
v -0.00374168 0.00025000 0.01529998
v -0.01030002 -0.00025000 0.01529998
v -0.01030002 -0.00370000 0.01529998
v -0.01030002 0.00025000 0.01529998
v -0.01030002 0.00370000 0.01529998
v 0.04412570 -0.00575515 0.01559855
v 0.04412557 -0.00575602 0.02099773
v 0.05002217 -0.00364866 0.02000220
v 0.04998409 -0.00363481 0.01559974
v 0.01216945 -0.00599958 0.02100019
v 0.04275038 -0.00599955 0.02100004
v 0.01216959 -0.00599955 0.01559995
v 0.04275052 -0.00599958 0.01560002
v 0.00494355 -0.00363404 0.02100350
v 0.01079471 -0.00575424 0.02100139
v 0.01079389 -0.00575652 0.01560104
v 0.00497126 -0.00364794 0.01559975
v -0.00180243 -0.00519628 0.02099998
v -0.00391066 -0.00400563 0.01560269
v -0.00390894 -0.00400564 0.02099751
v -0.00180243 -0.00519628 0.01559998
v 0.00013966 -0.00549823 0.02099998
v 0.00013966 -0.00549823 0.01559998
v 0.00206393 -0.00509805 0.02099998
v 0.00206393 -0.00509805 0.01559999
v 0.00418189 -0.00375789 0.02100020
v 0.00418250 -0.00375776 0.01559997
v -0.00578172 -0.00400000 0.01734797
v -0.01030003 -0.00400000 0.02099998
v -0.00648773 -0.00400000 0.01682178
v -0.00747507 -0.00400000 0.01671772
v -0.00848404 -0.00400000 0.01744634
v -0.01030002 -0.00400000 0.01559998
v -0.01060002 -0.00025000 0.02099998
v -0.01060002 -0.00370000 0.02099998
v -0.01060002 -0.00025000 0.01559998
v -0.01060002 -0.00370000 0.01559998
v -0.00571599 -0.00025000 0.01744635
v -0.01030003 -0.00025000 0.02129998
v -0.00298958 -0.00025000 0.01379998
v -0.00648773 -0.00025000 0.01682178
v -0.00374168 -0.00025000 0.01379998
v -0.00735902 -0.00025000 0.01669463
v -0.00841831 -0.00025000 0.01734796
v -0.00289123 -0.00080054 0.02129998
v -0.00279560 -0.00112214 0.01380639
v 0.00269238 -0.00132326 0.02129998
v 0.00282961 -0.00103344 0.01380906
v 0.00298955 -0.00025000 0.01379999
v 0.00298955 -0.00025000 0.02129998
v 0.00374164 -0.00025000 0.01379999
v 0.00374164 0.00025000 0.01379999
v 0.00298955 0.00025000 0.01379999
v 0.00281893 0.00107627 0.01380786
v 0.00289120 0.00080054 0.02129998
v -0.00279475 0.00112232 0.01380637
v -0.00269241 0.00132326 0.02129998
v -0.00298958 0.00025000 0.01379998
v -0.00298958 0.00025000 0.02129998
v -0.00816408 0.00025000 0.01901098
v -0.01030003 0.00025000 0.02129998
v -0.01060002 0.00025000 0.02099998
v -0.00374168 0.00025000 0.01379998
v -0.00833837 0.00025000 0.01805366
v -0.00784379 0.00025000 0.01727007
v -0.01060002 0.00025000 0.01559998
v -0.01060002 0.00370000 0.02099998
v -0.01060002 0.00370000 0.01559998
v -0.00390550 0.00400498 0.02099778
v -0.00390496 0.00400498 0.01560211
v -0.01030003 0.00400000 0.02099998
v -0.00814984 0.00400000 0.01900147
v -0.00835001 0.00400000 0.01829998
v -0.01030002 0.00400000 0.01559998
v -0.00812993 0.00400000 0.01755621
v 0.00178572 0.00520203 0.02099998
v 0.00342381 0.00430435 0.01559999
v 0.00342381 0.00430435 0.02099998
v 0.00178572 0.00520203 0.01559999
v -0.00005834 0.00549969 0.02099998
v -0.00005834 0.00549969 0.01559998
v -0.00189568 0.00516299 0.02099998
v -0.00189568 0.00516299 0.01559998
v 0.04776108 0.00300000 0.01560000
v 0.00715889 0.00300000 0.02099999
v 0.00715889 0.00300000 0.01559999
v 0.04776107 0.00300000 0.02100000
v 0.04943832 -0.00283749 0.02130121
v 0.04877449 -0.00374416 0.02130003
v 0.04886342 -0.00051659 0.02129998
v 0.04339236 -0.00569497 0.02130000
v 0.04802709 0.00269936 0.02130000
v 0.04900549 0.00201758 0.02130175
v 0.00645806 0.00270127 0.02129998
v 0.01152625 -0.00569037 0.02129999
v 0.00443860 -0.00319922 0.02130003
v 0.00195134 -0.00481998 0.02129998
v 0.00013205 -0.00519832 0.02129998
v 0.00382409 0.00367832 0.02129995
v -0.00170412 -0.00491285 0.02129998
v -0.00371214 -0.00372660 0.02130000
v 0.00084896 0.00520293 0.02130027
v -0.00179228 0.00488137 0.02129998
v -0.00371193 0.00372544 0.02130000
v -0.01030003 -0.00370000 0.02129998
v -0.01030003 0.00370000 0.02129998
v -0.00338846 -0.00160655 0.01379998
v -0.00256176 -0.00273861 0.01379998
v -0.00137710 -0.00348800 0.01379998
v -0.00000001 -0.00375000 0.01379998
v 0.00137706 -0.00348800 0.01379999
v 0.00256172 -0.00273861 0.01379999
v 0.00338842 -0.00160655 0.01379999
v 0.00338842 0.00160655 0.01379999
v 0.00256172 0.00273861 0.01379999
v 0.00137706 0.00348800 0.01379999
v -0.00137710 0.00348800 0.01379998
v -0.00000001 0.00375000 0.01379998
v -0.00338846 0.00160655 0.01379998
v -0.00256176 0.00273861 0.01379998
v 0.05690994 -0.00480417 0.01400000
v 0.05859694 -0.00367696 0.01400001
v 0.05491998 -0.00520000 0.01400000
v 0.05972416 -0.00198995 0.01400001
v 0.05811252 0.00213318 0.01400062
v 0.05293003 -0.00480417 0.01400000
v 0.05124303 -0.00367696 0.01400000
v 0.05637418 0.00351074 0.01400000
v 0.05011581 -0.00198995 0.01400000
v 0.05169897 0.00214115 0.01400069
v 0.05415640 0.00379162 0.01400070
v 0.05070721 -0.00340037 0.02029982
v 0.05306789 -0.00485899 0.02030000
v 0.04916403 -0.00049451 0.02030000
v 0.05500123 -0.00519937 0.02030000
v 0.04934060 0.00191456 0.02029988
v 0.05099240 0.00358561 0.02030003
v 0.04817865 0.00302661 0.02008939
v 0.05692298 -0.00479875 0.02030000
v 0.05172732 0.00213327 0.02029953
v 0.05855928 -0.00371423 0.02030000
v 0.05416138 0.00381378 0.02029912
v 0.05967692 -0.00210038 0.02030000
v 0.05342228 0.00497965 0.02030000
v 0.06011662 -0.00018718 0.02030000
v 0.05537509 0.00518005 0.02030000
v 0.05707643 0.00321080 0.02029931
v 0.05981570 0.00175269 0.02030000
v 0.05726305 0.00464220 0.02030000
v 0.05881707 0.00344277 0.02030000
v 0.04916124 -0.00043968 0.02099579
v 0.04933034 0.00147686 0.02099796
v 0.00456009 0.00359202 0.01559999
v 0.00582620 0.00314988 0.01559999
v 0.00456009 0.00359202 0.02099999
v 0.00582620 0.00314988 0.02099999
v 0.04909377 0.00314988 0.01560000
v 0.05035988 0.00359202 0.01560000
v 0.04912798 0.00315778 0.02000000
v 0.05037569 0.00359965 0.02000000
v 0.04890705 0.00263733 0.02101207
v 0.05791116 -0.00181739 0.01460000
v 0.05714604 -0.00217591 0.01425413
v 0.05698798 -0.00282372 0.01459999
v 0.05819116 0.00014097 0.01429714
v 0.05837895 -0.00053438 0.01460000
v 0.05832015 0.00082998 0.01460000
v 0.05774371 0.00206799 0.01459999
v 0.05716822 0.00198790 0.01424724
v 0.05673738 0.00299117 0.01459999
v 0.05591330 0.00309279 0.01429690
v 0.05545437 0.00345896 0.01459999
v 0.05409001 0.00340017 0.01459999
v 0.05416115 0.00310872 0.01430000
v 0.05285200 0.00282372 0.01459999
v 0.05244275 0.00210126 0.01429690
v 0.05368687 0.00505168 0.02229999
v 0.05184754 0.00419525 0.02229999
v 0.05167029 0.00443728 0.02200000
v 0.05361573 0.00534312 0.02200000
v 0.05571393 0.00513903 0.02229999
v 0.05575973 0.00543551 0.02200000
v 0.05762012 0.00444402 0.02229999
v 0.05777589 0.00470040 0.02200000
v 0.05911523 0.00307244 0.02229999
v 0.05935727 0.00324970 0.02200000
v 0.06026310 0.00130426 0.02200000
v 0.05997166 0.00123312 0.02229999
v 0.06035550 -0.00083975 0.02200000
v 0.06005902 -0.00079394 0.02229999
v 0.05936401 -0.00270013 0.02229999
v 0.05962039 -0.00285591 0.02200000
v 0.05816969 -0.00443728 0.02200000
v 0.05799243 -0.00419525 0.02229999
v 0.05936401 -0.00270013 0.02029999
v 0.05799243 -0.00419525 0.02029999
v 0.05816969 -0.00443728 0.02059999
v 0.05962039 -0.00285591 0.02059999
v 0.06005902 -0.00079394 0.02029999
v 0.06035550 -0.00083975 0.02059999
v 0.05997166 0.00123312 0.02029999
v 0.06026310 0.00130426 0.02059999
v 0.05911523 0.00307244 0.02029999
v 0.05935727 0.00324970 0.02059999
v 0.05777589 0.00470040 0.02059999
v 0.05762012 0.00444402 0.02029999
v 0.05575973 0.00543551 0.02059999
v 0.05571393 0.00513903 0.02029999
v 0.05361573 0.00534312 0.02059999
v 0.05368687 0.00505168 0.02029999
v 0.05167029 0.00443728 0.02059999
v 0.05184754 0.00419525 0.02029999
v 0.05639713 -0.00201695 0.01459999
v 0.05551283 -0.00242869 0.01459999
v 0.05620591 -0.00253656 0.01430244
v 0.05453829 -0.00247069 0.01459999
v 0.05403541 -0.00270363 0.01430169
v 0.05362185 -0.00213655 0.01459999
v 0.05290304 -0.00147714 0.01459999
v 0.05238302 -0.00128612 0.01430200
v 0.05249130 -0.00059284 0.01459999
v 0.05244930 0.00038170 0.01459999
v 0.05194572 0.00034323 0.01422567
v 0.05278344 0.00129814 0.01459999
v 0.05283552 0.00191222 0.01430144
v 0.05344285 0.00201695 0.01459999
v 0.05344285 0.00201695 0.02200000
v 0.05278344 0.00129814 0.02200000
v 0.05282420 0.00193162 0.02229973
v 0.05244930 0.00038170 0.02200000
v 0.05215282 0.00042751 0.02229999
v 0.05249130 -0.00059284 0.02200000
v 0.05233338 -0.00119706 0.02229973
v 0.05290304 -0.00147714 0.02200000
v 0.05362185 -0.00213655 0.02200000
v 0.05393743 -0.00267545 0.02229973
v 0.05453828 -0.00247069 0.02200000
v 0.05551283 -0.00242869 0.02200000
v 0.05558397 -0.00272013 0.02229999
v 0.05639713 -0.00201695 0.02200000
v 0.05700530 -0.00191300 0.02229969
v 0.05791115 -0.00181739 0.02029999
v 0.05698798 -0.00282372 0.02029999
v 0.05837895 -0.00053438 0.02029999
v 0.05832015 0.00082998 0.02029999
v 0.05774371 0.00206799 0.02029999
v 0.05673738 0.00299117 0.02029999
v 0.05545437 0.00345896 0.02029999
v 0.05409000 0.00340017 0.02029999
v 0.05285200 0.00282372 0.02029999
v 0.05021958 0.00285591 0.02200000
v 0.05021958 0.00285591 0.02059999
v 0.04948447 0.00083975 0.02200000
v 0.04948447 0.00083975 0.02059999
v 0.04957687 -0.00130426 0.02200000
v 0.04957687 -0.00130426 0.02059999
v 0.05048271 -0.00324970 0.02200000
v 0.05048271 -0.00324970 0.02059999
v 0.05206408 -0.00470040 0.02200000
v 0.05206408 -0.00470040 0.02059999
v 0.05408024 -0.00543551 0.02059999
v 0.05408024 -0.00543551 0.02200000
v 0.05622425 -0.00534312 0.02200000
v 0.05622425 -0.00534312 0.02059999
v 0.04978095 0.00079394 0.02029999
v 0.04986831 -0.00123312 0.02029999
v 0.05151982 -0.00082998 0.02029999
v 0.05146102 0.00053438 0.02029999
v 0.05047597 0.00270013 0.02029999
v 0.05192882 0.00181739 0.02029999
v 0.05072474 -0.00307244 0.02029999
v 0.05209626 -0.00206799 0.02029999
v 0.05221986 -0.00444402 0.02029999
v 0.05310259 -0.00299117 0.02029999
v 0.05412605 -0.00513903 0.02029999
v 0.05438560 -0.00345896 0.02029999
v 0.05574997 -0.00340017 0.02029999
v 0.05615310 -0.00505168 0.02029999
v 0.05192882 0.00181739 0.01459999
v 0.05146103 0.00053438 0.01459999
v 0.05151982 -0.00082998 0.01459999
v 0.05209627 -0.00206799 0.01459999
v 0.05310259 -0.00299117 0.01459999
v 0.05438561 -0.00345896 0.01459999
v 0.05574997 -0.00340017 0.01459999
v 0.05203026 -0.00148478 0.01429737
v 0.05479671 0.00286045 0.01430242
v 0.05381428 -0.00303258 0.01429742
v 0.05567883 -0.00310872 0.01430000
v 0.05775557 0.00021734 0.01430244
v 0.05705654 -0.00129814 0.01459999
v 0.05739068 -0.00038170 0.01459999
v 0.05705654 -0.00129814 0.02200000
v 0.05734868 0.00059284 0.01459999
v 0.05739067 -0.00038170 0.02200000
v 0.05734868 0.00059284 0.02200000
v 0.05693693 0.00147714 0.01459999
v 0.05693693 0.00147714 0.02200000
v 0.05621813 0.00213655 0.01459999
v 0.05530169 0.00247069 0.01459999
v 0.05621812 0.00213655 0.02200000
v 0.05530169 0.00247069 0.02200000
v 0.05432715 0.00242869 0.01459999
v 0.05432714 0.00242869 0.02200000
v 0.05615310 -0.00505168 0.02229999
v 0.05412605 -0.00513903 0.02229999
v 0.05221986 -0.00444402 0.02229999
v 0.05072474 -0.00307244 0.02229999
v 0.04986831 -0.00123312 0.02229999
v 0.05778264 0.00012337 0.02229973
v 0.04978095 0.00079394 0.02229999
v 0.05047597 0.00270013 0.02229999
v 0.05683304 0.00208537 0.02229976
v 0.05480390 0.00284772 0.02229965
v 0.05204070 0.00198990 -0.01460000
v 0.05195757 0.00128187 -0.01429742
v 0.05149838 0.00073657 -0.01460000
v 0.05371461 0.00304425 -0.01429714
v 0.05302138 0.00294028 -0.01460000
v 0.05429110 0.00344304 -0.01460000
v 0.05565656 0.00342162 -0.01460000
v 0.05581814 0.00286350 -0.01424724
v 0.05690989 0.00287929 -0.01460000
v 0.05733877 0.00216830 -0.01429690
v 0.05786027 0.00189861 -0.01460000
v 0.05836303 0.00062889 -0.01460000
v 0.05806791 0.00057499 -0.01430000
v 0.05834161 -0.00073657 -0.01460000
v 0.05784886 -0.00140489 -0.01429690
v 0.06003536 0.00093436 -0.02230000
v 0.06000354 -0.00109433 -0.02230000
v 0.06029682 -0.00115747 -0.02200000
v 0.06033048 0.00098826 -0.02200000
v 0.05928841 0.00282080 -0.02230000
v 0.05954044 0.00298354 -0.02200000
v 0.05787642 0.00427780 -0.02230000
v 0.05804698 0.00452460 -0.02200000
v 0.05601433 0.00508355 -0.02230000
v 0.05607746 0.00537683 -0.02200000
v 0.05393173 0.00541048 -0.02200000
v 0.05398564 0.00511537 -0.02230000
v 0.05193646 0.00462044 -0.02200000
v 0.05209919 0.00436842 -0.02230000
v 0.05064219 0.00295642 -0.02230000
v 0.05039540 0.00312698 -0.02200000
v 0.04954317 0.00115747 -0.02200000
v 0.04983645 0.00109433 -0.02230000
v 0.05064219 0.00295642 -0.02030000
v 0.04983645 0.00109433 -0.02030000
v 0.04954317 0.00115747 -0.02060000
v 0.05039540 0.00312698 -0.02060000
v 0.05209919 0.00436842 -0.02030000
v 0.05193646 0.00462044 -0.02060000
v 0.05398564 0.00511537 -0.02030000
v 0.05393173 0.00541048 -0.02060000
v 0.05601433 0.00508355 -0.02030000
v 0.05607746 0.00537683 -0.02060000
v 0.05804698 0.00452460 -0.02059999
v 0.05787642 0.00427780 -0.02030000
v 0.05954044 0.00298354 -0.02059999
v 0.05928841 0.00282080 -0.02030000
v 0.06033048 0.00098826 -0.02059999
v 0.06003536 0.00093436 -0.02030000
v 0.06029682 -0.00115747 -0.02059999
v 0.06000354 -0.00109433 -0.02030000
v 0.05247598 0.00052612 -0.01460000
v 0.05246068 -0.00044921 -0.01460000
v 0.05207952 0.00013961 -0.01430244
v 0.05281979 -0.00135615 -0.01460000
v 0.05281219 -0.00191030 -0.01430169
v 0.05349864 -0.00205663 -0.01460000
v 0.05439387 -0.00244401 -0.01460000
v 0.05478035 -0.00284092 -0.01430200
v 0.05536920 -0.00245931 -0.01460000
v 0.05627907 -0.00210474 -0.01447498
v 0.05697663 -0.00142136 -0.01460000
v 0.05751608 -0.00112336 -0.01430144
v 0.05736401 -0.00052612 -0.01460000
v 0.05736401 -0.00052612 -0.02200000
v 0.05697663 -0.00142136 -0.02200000
v 0.05753841 -0.00112579 -0.02229974
v 0.05627615 -0.00210020 -0.02200000
v 0.05643889 -0.00235223 -0.02230000
v 0.05536920 -0.00245931 -0.02200000
v 0.05488193 -0.00284992 -0.02229974
v 0.05439387 -0.00244401 -0.02200000
v 0.05349864 -0.00205663 -0.02200000
v 0.05287788 -0.00198828 -0.02229974
v 0.05281979 -0.00135615 -0.02200000
v 0.05246068 -0.00044921 -0.02200000
v 0.05216556 -0.00050311 -0.02230000
v 0.05247598 0.00052612 -0.02200000
v 0.05232285 0.00112381 -0.02229969
v 0.05204070 0.00198990 -0.02030000
v 0.05149838 0.00073657 -0.02030000
v 0.05302138 0.00294028 -0.02030000
v 0.05429110 0.00344304 -0.02030000
v 0.05565656 0.00342162 -0.02030000
v 0.05690989 0.00287929 -0.02030000
v 0.05786028 0.00189861 -0.02030000
v 0.05836303 0.00062889 -0.02030000
v 0.05834161 -0.00073657 -0.02030000
v 0.05944459 -0.00312698 -0.02200000
v 0.05944459 -0.00312698 -0.02059999
v 0.05790353 -0.00462044 -0.02200000
v 0.05790353 -0.00462044 -0.02059999
v 0.05590826 -0.00541048 -0.02200000
v 0.05590826 -0.00541048 -0.02060000
v 0.05376253 -0.00537683 -0.02200000
v 0.05376253 -0.00537683 -0.02060000
v 0.05179301 -0.00452460 -0.02200000
v 0.05179301 -0.00452460 -0.02060000
v 0.05029955 -0.00298354 -0.02060000
v 0.05029955 -0.00298354 -0.02200000
v 0.04950951 -0.00098826 -0.02200000
v 0.04950951 -0.00098826 -0.02060000
v 0.05774079 -0.00436842 -0.02030000
v 0.05585435 -0.00511537 -0.02030000
v 0.05554889 -0.00344304 -0.02030000
v 0.05681861 -0.00294028 -0.02030000
v 0.05919779 -0.00295642 -0.02030000
v 0.05779928 -0.00198990 -0.02030000
v 0.05382566 -0.00508355 -0.02030000
v 0.05418342 -0.00342162 -0.02030000
v 0.05196357 -0.00427780 -0.02030000
v 0.05293009 -0.00287929 -0.02030000
v 0.05055157 -0.00282080 -0.02030000
v 0.05197971 -0.00189861 -0.02030000
v 0.05147696 -0.00062889 -0.02030000
v 0.04980463 -0.00093436 -0.02030000
v 0.05779928 -0.00198990 -0.01460000
v 0.05681861 -0.00294028 -0.01460000
v 0.05554889 -0.00344304 -0.01460000
v 0.05418342 -0.00342162 -0.01460000
v 0.05293009 -0.00287929 -0.01460000
v 0.05197971 -0.00189861 -0.01460000
v 0.05147696 -0.00062889 -0.01460000
v 0.05599789 -0.00306521 -0.01429772
v 0.05363813 -0.00296242 -0.01429742
v 0.05758202 0.00105404 -0.01430242
v 0.05187574 -0.00120539 -0.01429714
v 0.05261656 0.00159192 -0.01430000
v 0.05396198 0.00267768 -0.01430244
v 0.05286336 0.00142136 -0.01460000
v 0.05356384 0.00210020 -0.01460000
v 0.05286336 0.00142136 -0.02200000
v 0.05447078 0.00245931 -0.01460000
v 0.05356384 0.00210020 -0.02200000
v 0.05447078 0.00245931 -0.02200000
v 0.05544611 0.00244401 -0.01460000
v 0.05544611 0.00244401 -0.02200000
v 0.05634135 0.00205663 -0.01460000
v 0.05702019 0.00135615 -0.01460000
v 0.05634135 0.00205663 -0.02200000
v 0.05702019 0.00135615 -0.02200000
v 0.05737931 0.00044921 -0.01460000
v 0.05737931 0.00044921 -0.02200000
v 0.04980463 -0.00093436 -0.02230000
v 0.05055157 -0.00282080 -0.02230000
v 0.05196357 -0.00427780 -0.02230000
v 0.05382566 -0.00508355 -0.02230000
v 0.05585435 -0.00511537 -0.02230000
v 0.05340110 0.00235223 -0.02230000
v 0.05774079 -0.00436842 -0.02230000
v 0.05496438 0.00282959 -0.02229977
v 0.05919779 -0.00295642 -0.02230000
v 0.05767442 0.00050311 -0.02230000
v 0.05696205 0.00198822 -0.02229966
f 1 3 2
f 1 4 3
f 5 2 6
f 5 1 2
f 7 6 8
f 7 5 6
f 9 8 10
f 9 7 8
f 11 10 12
f 11 9 10
f 13 11 12
f 14 11 13
f 15 13 16
f 15 14 13
f 17 15 16
f 18 15 17
f 19 21 20
f 22 21 19
f 23 25 24
f 23 26 25
f 27 29 28
f 27 30 29
f 31 28 32
f 31 27 28
f 33 32 34
f 33 31 32
f 35 34 36
f 35 33 34
f 37 36 38
f 37 35 36
f 39 38 40
f 39 37 38
f 41 43 42
f 42 45 44
f 43 45 42
f 44 47 46
f 45 47 44
f 46 47 48
f 48 50 49
f 47 50 48
f 49 50 51
f 51 53 52
f 50 53 51
f 52 53 54
f 55 57 56
f 56 57 58
f 58 57 59
f 59 61 60
f 57 61 59
f 60 61 62
f 61 63 62
f 61 64 63
f 63 64 65
f 65 67 66
f 64 67 65
f 66 67 68
f 69 20 70
f 19 20 69
f 71 73 72
f 72 73 74
f 74 76 75
f 73 76 74
f 75 76 77
f 76 78 77
f 77 78 79
f 78 80 79
f 79 82 81
f 80 82 79
f 83 85 84
f 84 85 86
f 86 88 87
f 85 88 86
f 87 90 89
f 88 90 87
f 90 91 89
f 89 91 92
f 91 93 92
f 92 93 94
f 95 97 96
f 68 41 66
f 66 42 65
f 41 42 66
f 65 44 63
f 42 44 65
f 63 46 62
f 44 46 63
f 46 48 62
f 62 49 60
f 48 49 62
f 59 51 58
f 60 51 59
f 49 51 60
f 51 52 58
f 58 54 56
f 52 54 58
f 18 39 98
f 15 98 99
f 15 18 98
f 14 99 100
f 14 15 99
f 11 100 101
f 11 14 100
f 9 101 102
f 9 11 101
f 7 9 102
f 103 102 104
f 103 7 102
f 5 103 105
f 5 7 103
f 1 105 106
f 1 5 105
f 4 106 107
f 4 1 106
f 108 107 109
f 108 4 107
f 110 30 27
f 111 109 110
f 111 108 109
f 112 110 27
f 112 111 110
f 113 27 31
f 113 112 27
f 114 31 33
f 114 113 31
f 115 33 35
f 115 114 33
f 116 35 37
f 116 115 35
f 18 37 39
f 18 116 37
f 54 117 56
f 118 117 119
f 56 117 118
f 117 120 119
f 121 123 122
f 119 123 121
f 120 123 119
f 123 124 122
f 122 126 125
f 124 126 122
f 125 128 127
f 126 128 125
f 129 130 68
f 127 130 129
f 128 130 127
f 130 41 68
f 131 133 132
f 132 133 134
f 131 26 133
f 133 135 134
f 136 138 137
f 137 138 139
f 140 142 141
f 140 143 142
f 144 146 145
f 144 145 147
f 148 147 149
f 148 144 147
f 150 149 151
f 150 148 149
f 152 151 153
f 152 150 151
f 146 88 85
f 85 83 146
f 146 90 88
f 154 145 83
f 83 145 146
f 90 155 91
f 146 155 90
f 154 156 145
f 155 93 91
f 93 158 157
f 157 158 159
f 159 158 156
f 156 158 145
f 155 158 93
f 160 162 161
f 161 162 163
f 164 166 165
f 87 164 86
f 84 86 164
f 167 164 165
f 167 84 164
f 168 84 167
f 169 87 89
f 169 89 92
f 160 169 92
f 170 168 167
f 94 160 92
f 171 173 172
f 171 172 170
f 171 170 167
f 162 94 173
f 162 173 171
f 162 160 94
f 169 164 87
f 167 165 174
f 174 176 175
f 165 176 174
f 175 176 177
f 176 178 177
f 179 178 180
f 179 180 181
f 180 183 182
f 182 183 184
f 185 183 186
f 184 183 185
f 183 187 186
f 188 187 189
f 186 188 190
f 186 187 188
f 190 95 96
f 188 95 190
f 191 97 192
f 97 193 96
f 191 193 97
f 191 194 193
f 195 194 196
f 193 194 195
f 196 194 197
f 194 198 197
f 199 200 198
f 198 200 201
f 199 203 202
f 202 203 204
f 205 203 206
f 204 203 205
f 203 207 206
f 208 209 207
f 74 75 209
f 209 206 207
f 75 206 209
f 75 77 206
f 77 79 206
f 72 211 210
f 211 212 210
f 212 213 210
f 79 81 206
f 214 215 81
f 81 215 206
f 213 216 214
f 214 216 215
f 212 216 213
f 209 211 72
f 209 72 74
f 217 218 212
f 212 218 216
f 76 73 219
f 71 219 73
f 220 78 76
f 220 76 219
f 221 71 222
f 221 219 71
f 80 78 220
f 223 221 222
f 82 80 220
f 224 225 82
f 224 223 225
f 224 221 223
f 224 82 220
f 226 228 227
f 226 227 229
f 230 229 231
f 230 226 229
f 232 231 233
f 232 230 231
f 219 233 220
f 219 232 233
f 234 236 235
f 237 236 234
f 22 24 25
f 238 22 25
f 239 22 238
f 239 21 22
f 240 238 241
f 240 241 242
f 240 239 238
f 181 182 242
f 184 242 182
f 181 242 243
f 96 242 190
f 190 242 184
f 96 240 242
f 185 190 184
f 186 190 185
f 195 96 193
f 196 96 195
f 244 96 196
f 244 240 96
f 197 244 196
f 179 243 245
f 179 245 246
f 179 181 243
f 177 179 246
f 244 197 201
f 175 177 246
f 174 175 246
f 167 174 246
f 247 244 201
f 247 201 200
f 248 247 200
f 249 248 200
f 249 200 202
f 249 202 204
f 249 205 206
f 249 204 205
f 171 167 246
f 171 246 250
f 215 249 206
f 251 249 215
f 107 252 109
f 105 253 106
f 106 253 107
f 107 253 252
f 254 256 255
f 254 257 256
f 255 259 258
f 256 259 255
f 252 261 260
f 260 261 254
f 253 261 252
f 254 188 257
f 254 95 188
f 261 95 254
f 259 262 258
f 262 263 258
f 262 264 263
f 261 265 95
f 95 265 97
f 261 266 265
f 264 267 263
f 264 268 267
f 266 269 265
f 268 270 267
f 266 271 269
f 266 272 271
f 270 164 267
f 272 273 271
f 272 274 273
f 273 274 275
f 274 276 275
f 275 276 277
f 277 276 278
f 278 276 209
f 267 169 279
f 164 169 267
f 276 211 209
f 276 280 211
f 257 188 189
f 257 189 281
f 256 281 282
f 256 257 281
f 259 282 283
f 259 256 282
f 262 283 284
f 262 259 283
f 264 284 285
f 264 262 284
f 268 285 286
f 268 264 285
f 270 286 287
f 270 287 166
f 270 268 286
f 164 270 166
f 178 287 286
f 176 287 178
f 178 286 285
f 176 166 287
f 284 178 285
f 165 166 176
f 180 283 282
f 180 284 283
f 180 178 284
f 281 183 180
f 281 180 282
f 189 187 183
f 189 183 281
f 278 209 208
f 278 208 288
f 277 288 289
f 277 278 288
f 275 289 290
f 275 277 289
f 273 290 291
f 273 291 292
f 273 275 290
f 271 273 292
f 269 292 293
f 269 271 292
f 265 293 294
f 265 294 192
f 265 269 293
f 97 265 192
f 203 208 207
f 288 208 203
f 199 288 203
f 289 288 199
f 290 289 199
f 291 290 199
f 192 194 191
f 198 291 199
f 292 291 198
f 294 198 194
f 294 194 192
f 293 292 198
f 293 198 294
f 45 296 295
f 43 297 296
f 43 296 45
f 47 295 298
f 47 45 295
f 43 3 297
f 299 2 3
f 299 3 43
f 50 298 300
f 50 47 298
f 6 2 299
f 301 50 300
f 302 6 299
f 8 6 302
f 303 53 50
f 303 50 301
f 304 8 302
f 17 53 303
f 10 8 304
f 16 305 53
f 16 53 17
f 12 10 304
f 13 304 305
f 13 305 16
f 13 12 304
f 93 157 94
f 94 157 173
f 173 159 172
f 157 159 173
f 172 156 170
f 159 156 172
f 170 154 168
f 156 154 170
f 168 83 84
f 154 83 168
f 81 225 214
f 82 225 81
f 214 225 213
f 213 223 210
f 225 223 213
f 223 222 210
f 210 71 72
f 222 71 210
f 57 36 34
f 57 38 36
f 61 34 32
f 61 57 34
f 55 40 38
f 55 38 57
f 28 61 32
f 306 40 55
f 64 61 28
f 307 306 55
f 29 64 28
f 308 306 307
f 67 64 29
f 309 29 133
f 310 307 311
f 310 308 307
f 309 67 29
f 69 67 309
f 312 310 311
f 313 312 311
f 313 311 314
f 70 67 69
f 70 315 67
f 316 313 314
f 316 314 315
f 316 315 70
f 317 316 70
f 23 19 309
f 309 19 69
f 30 110 135
f 110 134 135
f 140 141 153
f 141 152 153
f 177 178 179
f 181 180 182
f 197 198 201
f 200 199 202
f 136 143 138
f 136 142 143
f 132 139 131
f 132 137 139
f 227 228 318
f 318 320 319
f 228 320 318
f 319 321 236
f 320 321 319
f 321 235 236
f 317 323 322
f 234 323 317
f 322 325 324
f 323 325 322
f 324 103 104
f 325 103 324
f 237 234 317
f 23 309 133
f 26 23 133
f 70 20 326
f 317 70 326
f 317 326 237
f 67 315 68
f 68 315 129
f 129 314 127
f 315 314 129
f 127 314 125
f 125 311 122
f 314 311 125
f 122 311 121
f 311 119 121
f 311 307 119
f 119 307 118
f 118 55 56
f 307 55 118
f 53 305 54
f 54 305 117
f 117 305 120
f 120 304 123
f 305 304 120
f 123 304 124
f 124 302 126
f 304 302 124
f 302 128 126
f 302 299 128
f 128 299 130
f 130 43 41
f 299 43 130
f 104 316 324
f 316 322 324
f 316 317 322
f 98 39 40
f 98 40 306
f 99 306 308
f 99 98 306
f 100 308 310
f 100 99 308
f 101 310 312
f 101 100 310
f 102 312 313
f 102 101 312
f 316 102 313
f 104 102 316
f 133 29 135
f 29 30 135
f 110 109 134
f 134 252 132
f 109 252 134
f 137 132 252
f 137 260 136
f 252 260 137
f 142 136 260
f 142 254 141
f 260 254 142
f 141 254 152
f 150 152 254
f 150 254 255
f 148 255 258
f 148 150 255
f 144 258 263
f 144 148 258
f 146 263 267
f 146 144 263
f 279 169 161
f 161 169 160
f 146 279 155
f 267 279 146
f 279 161 155
f 250 162 171
f 163 162 250
f 158 161 163
f 158 155 161
f 163 250 158
f 145 158 250
f 145 250 246
f 147 145 246
f 147 246 245
f 149 245 243
f 149 147 245
f 151 149 243
f 242 151 243
f 153 151 242
f 242 140 153
f 143 140 242
f 143 242 241
f 138 143 241
f 238 138 241
f 139 138 238
f 131 139 238
f 26 131 238
f 26 238 25
f 253 323 234
f 253 105 323
f 105 325 323
f 105 103 325
f 253 235 261
f 234 235 253
f 24 19 23
f 24 22 19
f 228 266 320
f 320 261 321
f 266 261 320
f 321 261 235
f 326 20 21
f 239 326 21
f 237 326 239
f 274 219 276
f 232 219 274
f 230 274 272
f 230 232 274
f 226 230 272
f 228 272 266
f 228 226 272
f 237 240 236
f 239 240 237
f 219 221 280
f 219 280 276
f 212 280 217
f 211 280 212
f 236 240 319
f 319 244 318
f 240 244 319
f 318 244 227
f 217 280 221
f 229 227 244
f 229 244 247
f 231 229 247
f 233 247 248
f 233 231 247
f 220 248 249
f 220 233 248
f 218 217 221
f 218 221 224
f 216 218 251
f 216 251 215
f 224 251 218
f 220 251 224
f 249 251 220
f 303 18 17
f 116 18 303
f 301 116 303
f 115 116 301
f 300 115 301
f 114 115 300
f 298 114 300
f 113 114 298
f 295 113 298
f 112 113 295
f 111 295 296
f 111 112 295
f 108 296 297
f 108 111 296
f 3 108 297
f 4 108 3
f 327 329 328
f 328 329 330
f 330 332 331
f 329 332 330
f 331 334 333
f 332 334 331
f 333 336 335
f 334 336 333
f 335 338 337
f 336 338 335
f 337 340 339
f 338 340 337
f 341 343 342
f 339 343 341
f 340 343 339
f 343 344 342
f 167 346 345
f 167 175 346
f 347 349 348
f 205 345 349
f 205 167 345
f 205 349 347
f 350 348 351
f 350 347 348
f 202 205 347
f 352 351 353
f 352 350 351
f 354 353 355
f 354 352 353
f 356 355 357
f 356 354 355
f 358 357 359
f 358 356 357
f 360 197 358
f 196 358 359
f 196 360 358
f 361 363 362
f 362 363 364
f 364 366 365
f 363 366 364
f 365 368 367
f 366 368 365
f 367 370 369
f 368 370 367
f 369 372 371
f 371 372 373
f 370 372 369
f 372 374 373
f 373 376 375
f 374 376 373
f 375 378 377
f 376 378 375
f 379 381 380
f 382 380 383
f 382 379 380
f 384 381 379
f 385 384 379
f 386 385 379
f 387 382 383
f 388 387 383
f 389 387 388
f 390 389 388
f 391 389 390
f 392 391 390
f 393 391 392
f 394 393 392
f 395 394 396
f 395 397 393
f 395 393 394
f 398 396 399
f 398 395 396
f 400 398 399
f 401 403 402
f 404 403 401
f 405 404 401
f 406 405 401
f 407 406 401
f 407 401 408
f 409 408 410
f 409 407 408
f 411 410 412
f 411 409 410
f 413 412 414
f 413 411 412
f 415 414 416
f 415 413 414
f 417 415 416
f 418 415 417
f 419 418 417
f 420 418 419
f 421 419 422
f 421 420 419
f 423 425 424
f 423 426 425
f 427 423 424
f 428 427 424
f 429 428 424
f 430 428 429
f 431 430 429
f 432 430 431
f 433 432 431
f 434 432 433
f 435 433 436
f 435 434 433
f 437 436 438
f 437 435 436
f 439 438 440
f 439 437 438
f 441 440 442
f 441 439 440
f 443 442 444
f 443 441 442
f 445 426 423
f 446 423 427
f 446 445 423
f 447 427 428
f 447 446 427
f 448 447 428
f 449 448 428
f 449 428 430
f 450 430 432
f 450 449 430
f 451 432 434
f 451 450 432
f 452 434 435
f 452 435 437
f 452 451 434
f 453 452 437
f 454 437 439
f 454 453 437
f 455 439 441
f 455 454 439
f 456 441 443
f 456 455 441
f 457 459 458
f 457 460 459
f 461 458 462
f 461 457 458
f 421 462 463
f 421 461 462
f 420 421 463
f 420 463 464
f 418 464 465
f 418 420 464
f 415 465 466
f 415 418 465
f 413 466 467
f 413 415 466
f 411 467 468
f 411 413 467
f 409 470 469
f 409 468 470
f 409 411 468
f 407 469 471
f 407 409 469
f 406 407 471
f 472 474 473
f 473 474 475
f 475 477 476
f 474 477 475
f 478 480 479
f 476 480 478
f 477 480 476
f 480 481 479
f 482 484 483
f 479 484 482
f 481 484 479
f 484 485 483
f 486 488 487
f 483 488 486
f 485 488 483
f 488 489 487
f 490 492 491
f 493 492 490
f 494 495 493
f 494 493 490
f 496 498 497
f 496 497 495
f 499 494 500
f 499 495 494
f 499 496 495
f 501 499 500
f 502 500 503
f 502 503 504
f 502 501 500
f 505 502 504
f 506 504 507
f 506 505 504
f 508 510 509
f 511 507 510
f 511 506 507
f 512 510 508
f 512 511 510
f 513 511 512
f 514 508 509
f 514 509 515
f 516 515 517
f 516 514 515
f 518 517 519
f 518 516 517
f 520 519 521
f 520 518 519
f 522 520 521
f 523 521 524
f 523 522 521
f 525 524 526
f 525 523 524
f 527 526 528
f 527 525 526
f 529 528 491
f 529 527 528
f 492 529 491
f 530 532 531
f 531 534 533
f 532 534 531
f 533 536 535
f 534 536 533
f 536 537 535
f 535 539 538
f 537 539 535
f 540 542 541
f 538 542 540
f 539 542 538
f 541 544 543
f 542 544 541
f 544 545 543
f 543 547 546
f 545 547 543
f 547 548 546
f 546 548 549
f 549 551 550
f 548 551 549
f 550 553 552
f 551 553 550
f 552 555 554
f 553 555 552
f 556 558 557
f 554 558 556
f 555 558 554
f 558 559 557
f 557 561 560
f 559 561 557
f 560 532 530
f 561 532 560
f 513 512 562
f 563 562 564
f 563 513 562
f 565 564 566
f 565 563 564
f 567 566 568
f 567 565 566
f 569 571 570
f 569 568 571
f 569 567 568
f 572 570 573
f 572 569 570
f 574 573 575
f 574 572 573
f 576 575 577
f 576 574 575
f 498 577 497
f 498 576 577
f 578 580 579
f 492 578 579
f 493 581 578
f 493 578 492
f 581 582 578
f 583 584 581
f 581 584 582
f 585 584 583
f 489 586 487
f 487 586 587
f 587 589 588
f 586 589 587
f 590 592 591
f 588 592 590
f 589 592 588
f 592 593 591
f 591 595 594
f 593 595 591
f 594 597 596
f 595 597 594
f 598 599 473
f 596 599 598
f 597 599 596
f 599 472 473
f 600 582 601
f 582 508 601
f 602 603 584
f 584 512 582
f 582 512 508
f 603 512 584
f 405 406 471
f 405 471 604
f 404 604 605
f 404 405 604
f 403 605 606
f 403 404 605
f 495 585 583
f 607 608 585
f 497 585 495
f 497 607 585
f 609 456 443
f 609 443 610
f 611 610 612
f 611 609 610
f 613 612 614
f 613 611 612
f 368 440 438
f 368 366 440
f 363 442 440
f 363 440 366
f 361 444 442
f 361 442 363
f 370 438 436
f 370 368 438
f 615 444 361
f 372 436 433
f 372 370 436
f 616 444 615
f 617 616 615
f 374 372 433
f 431 374 433
f 618 616 617
f 429 376 374
f 429 374 431
f 619 616 618
f 424 378 376
f 424 376 429
f 424 620 378
f 425 620 424
f 425 621 620
f 425 622 621
f 564 616 566
f 425 619 622
f 568 566 616
f 571 616 619
f 571 568 616
f 571 619 425
f 570 571 425
f 573 570 425
f 575 573 425
f 408 340 410
f 410 338 412
f 340 338 410
f 408 343 340
f 401 344 408
f 408 344 343
f 412 336 414
f 338 336 412
f 401 623 344
f 414 334 416
f 336 334 414
f 401 402 623
f 402 624 623
f 332 417 334
f 334 417 416
f 402 625 624
f 332 329 417
f 329 419 417
f 402 626 625
f 329 327 419
f 327 422 419
f 627 422 327
f 627 628 422
f 629 628 627
f 630 628 629
f 402 516 518
f 626 628 630
f 518 520 402
f 520 522 402
f 626 522 628
f 402 522 626
f 522 523 628
f 523 525 628
f 525 527 628
f 541 469 470
f 540 470 468
f 540 541 470
f 543 469 541
f 538 468 467
f 538 540 468
f 546 604 471
f 546 471 469
f 546 469 543
f 549 605 604
f 549 604 546
f 535 467 466
f 535 538 467
f 606 605 549
f 550 606 549
f 465 533 535
f 465 535 466
f 600 606 550
f 552 600 550
f 464 531 533
f 464 533 465
f 554 600 552
f 582 600 554
f 463 530 531
f 463 531 464
f 462 560 530
f 462 530 463
f 458 560 462
f 459 557 560
f 459 560 458
f 580 557 459
f 580 556 557
f 580 554 556
f 578 554 580
f 578 582 554
f 454 485 453
f 453 484 452
f 485 484 453
f 455 488 454
f 454 488 485
f 609 489 456
f 456 489 455
f 455 489 488
f 484 481 452
f 611 586 609
f 609 586 489
f 452 480 451
f 481 480 452
f 611 613 586
f 613 589 586
f 480 477 451
f 477 450 451
f 613 602 589
f 602 592 589
f 474 449 477
f 477 449 450
f 602 593 592
f 474 472 449
f 602 584 593
f 472 448 449
f 472 447 448
f 599 447 472
f 599 446 447
f 597 445 599
f 599 445 446
f 597 608 445
f 595 608 597
f 593 608 595
f 593 585 608
f 584 585 593
f 459 579 580
f 460 579 459
f 426 608 607
f 445 608 426
f 600 403 606
f 601 403 600
f 603 613 614
f 602 613 603
f 575 607 577
f 577 607 497
f 575 425 607
f 607 425 426
f 610 443 444
f 612 610 444
f 616 612 444
f 614 612 616
f 614 616 603
f 564 603 616
f 512 603 562
f 562 603 564
f 527 579 628
f 492 579 529
f 529 579 527
f 460 628 579
f 461 421 422
f 457 461 422
f 460 422 628
f 460 457 422
f 601 402 403
f 516 601 514
f 514 601 508
f 516 402 601
f 631 399 632
f 633 632 634
f 633 631 632
f 400 399 631
f 635 400 631
f 636 635 631
f 637 633 634
f 638 637 634
f 639 637 638
f 640 639 638
f 641 639 640
f 642 641 640
f 643 641 642
f 644 643 642
f 645 644 646
f 645 647 643
f 645 643 644
f 648 646 381
f 648 645 646
f 384 648 381
f 638 565 567
f 638 634 565
f 632 563 565
f 632 565 634
f 640 567 569
f 640 638 567
f 399 513 563
f 399 563 632
f 396 511 513
f 396 513 399
f 642 569 572
f 642 640 569
f 394 511 396
f 506 511 394
f 644 642 572
f 574 644 572
f 392 506 394
f 505 506 392
f 576 646 644
f 576 644 574
f 381 646 576
f 502 392 390
f 502 505 392
f 498 381 576
f 496 380 381
f 496 383 380
f 496 381 498
f 501 390 388
f 501 502 390
f 499 388 383
f 499 383 496
f 499 501 388
f 649 651 650
f 650 651 652
f 653 654 387
f 655 656 389
f 389 656 387
f 387 656 653
f 657 653 656
f 657 658 653
f 636 660 659
f 636 659 651
f 635 636 651
f 400 635 651
f 398 400 651
f 645 649 647
f 657 397 395
f 657 395 398
f 657 662 661
f 657 661 397
f 657 398 651
f 648 649 645
f 658 651 649
f 658 648 384
f 658 384 385
f 658 385 386
f 658 657 651
f 658 649 648
f 663 386 664
f 663 658 386
f 378 620 377
f 377 620 665
f 665 621 666
f 620 621 665
f 666 622 667
f 621 622 666
f 667 619 668
f 622 619 667
f 668 618 669
f 619 618 668
f 669 617 670
f 618 617 669
f 670 615 671
f 671 615 362
f 617 615 670
f 615 361 362
f 483 365 367
f 482 483 367
f 486 364 365
f 486 365 483
f 362 364 486
f 487 362 486
f 479 367 369
f 479 482 367
f 587 671 362
f 587 362 487
f 478 369 371
f 478 479 369
f 670 671 587
f 588 670 587
f 476 371 373
f 476 478 371
f 475 476 373
f 669 588 590
f 669 670 588
f 375 475 373
f 591 669 590
f 668 669 591
f 377 473 475
f 377 475 375
f 665 598 473
f 665 473 377
f 667 591 594
f 667 668 591
f 666 596 598
f 666 594 596
f 666 598 665
f 666 667 594
f 495 583 581
f 495 581 493
f 660 631 672
f 660 636 631
f 659 672 673
f 659 660 672
f 651 673 652
f 651 659 673
f 657 656 655
f 662 655 674
f 662 657 655
f 661 662 674
f 397 674 393
f 397 661 674
f 649 650 643
f 647 649 643
f 664 379 675
f 664 386 379
f 663 675 654
f 663 664 675
f 658 654 653
f 658 663 654
f 193 196 359
f 193 359 676
f 677 679 678
f 185 676 679
f 185 193 676
f 185 679 677
f 680 678 681
f 680 677 678
f 182 185 677
f 682 681 683
f 682 680 681
f 684 683 685
f 684 682 683
f 686 685 687
f 686 684 685
f 688 687 346
f 688 686 687
f 689 177 688
f 175 688 346
f 175 689 688
f 345 510 507
f 345 507 349
f 348 507 504
f 348 349 507
f 346 509 510
f 346 510 345
f 351 504 503
f 351 348 504
f 687 515 509
f 687 509 346
f 353 503 500
f 353 351 503
f 517 687 685
f 517 515 687
f 355 353 500
f 494 355 500
f 357 355 494
f 519 685 683
f 519 517 685
f 490 357 494
f 521 683 681
f 521 519 683
f 491 359 357
f 491 357 490
f 676 359 491
f 678 521 681
f 528 676 491
f 524 521 678
f 526 678 679
f 526 679 676
f 526 676 528
f 526 524 678
f 347 358 690
f 691 692 200
f 200 692 201
f 682 684 693
f 694 680 682
f 694 682 693
f 694 693 179
f 694 179 181
f 177 689 179
f 689 175 179
f 175 167 179
f 181 185 182
f 202 200 205
f 205 200 167
f 167 200 179
f 181 193 185
f 193 201 196
f 196 201 360
f 360 201 197
f 179 201 181
f 200 201 179
f 181 201 193
f 344 623 342
f 342 623 695
f 695 624 696
f 623 624 695
f 696 625 697
f 624 625 696
f 697 626 698
f 625 626 697
f 698 630 699
f 626 630 698
f 699 629 700
f 630 629 699
f 701 627 328
f 700 627 701
f 629 627 700
f 627 327 328
f 548 695 696
f 548 696 551
f 553 696 697
f 553 551 696
f 547 342 695
f 547 695 548
f 555 697 698
f 555 553 697
f 545 341 342
f 545 342 547
f 558 698 699
f 558 555 698
f 339 545 544
f 339 341 545
f 559 699 700
f 559 558 699
f 542 339 544
f 337 339 542
f 701 561 559
f 701 559 700
f 532 561 701
f 335 542 539
f 335 337 542
f 328 532 701
f 330 534 532
f 330 532 328
f 333 539 537
f 333 335 539
f 331 536 534
f 331 537 536
f 331 534 330
f 331 333 537
f 179 693 688
f 177 179 688
f 200 347 691
f 200 202 347
f 181 677 694
f 181 182 677
f 201 692 358
f 197 201 358
f 702 704 703
f 702 705 704
f 706 703 707
f 706 707 708
f 706 702 703
f 709 706 708
f 710 708 711
f 710 709 708
f 712 711 713
f 712 713 714
f 712 710 711
f 715 712 714
f 716 714 717
f 716 715 714
f 718 717 719
f 718 716 717
f 720 722 721
f 721 722 723
f 723 725 724
f 722 725 723
f 724 727 726
f 725 727 724
f 726 729 728
f 727 729 726
f 728 731 730
f 729 731 728
f 730 733 732
f 731 733 730
f 734 736 735
f 732 736 734
f 733 736 732
f 736 737 735
f 738 740 739
f 738 742 741
f 739 742 738
f 740 743 739
f 740 705 743
f 741 745 744
f 742 745 741
f 705 746 743
f 705 702 746
f 744 748 747
f 745 748 744
f 702 749 746
f 748 750 747
f 749 706 751
f 702 706 749
f 748 752 750
f 751 709 753
f 706 709 751
f 754 755 752
f 752 755 750
f 754 756 755
f 709 757 753
f 709 710 757
f 756 718 755
f 758 716 756
f 756 716 718
f 757 712 759
f 710 712 757
f 760 715 758
f 759 715 760
f 758 715 716
f 712 715 759
f 743 761 739
f 739 761 742
f 743 762 761
f 746 763 743
f 743 763 762
f 742 764 745
f 761 764 742
f 764 748 745
f 749 763 746
f 748 765 752
f 764 765 748
f 763 751 766
f 749 751 763
f 751 753 766
f 765 754 752
f 765 767 754
f 753 768 766
f 753 757 768
f 767 756 754
f 757 769 768
f 770 758 767
f 767 758 756
f 757 759 769
f 769 760 770
f 770 760 758
f 759 760 769
f 771 736 733
f 771 731 772
f 733 731 771
f 771 763 736
f 731 729 772
f 763 737 736
f 763 773 737
f 772 727 774
f 729 727 772
f 766 775 763
f 763 775 773
f 774 725 776
f 727 725 774
f 775 766 777
f 722 776 725
f 722 720 776
f 777 768 778
f 766 768 777
f 720 767 776
f 720 779 767
f 768 780 778
f 768 769 780
f 781 770 779
f 780 770 781
f 779 770 767
f 769 770 780
f 735 737 782
f 782 773 783
f 737 773 782
f 783 775 784
f 773 775 783
f 775 777 784
f 784 778 785
f 777 778 784
f 786 780 787
f 785 780 786
f 778 780 785
f 787 781 788
f 780 781 787
f 788 779 721
f 781 779 788
f 779 720 721
f 789 723 724
f 789 726 790
f 724 726 789
f 789 791 723
f 726 728 790
f 791 721 723
f 791 788 721
f 790 730 792
f 728 730 790
f 793 787 791
f 791 787 788
f 730 732 792
f 787 794 786
f 793 794 787
f 734 795 732
f 732 795 792
f 734 735 795
f 786 796 785
f 794 796 786
f 735 797 795
f 735 782 797
f 796 784 785
f 796 798 784
f 783 798 782
f 784 798 783
f 782 798 797
f 799 801 800
f 800 801 802
f 802 803 800
f 804 801 799
f 802 805 803
f 806 791 804
f 804 791 801
f 803 805 807
f 791 808 793
f 806 808 791
f 809 807 805
f 793 810 794
f 808 810 793
f 809 811 807
f 809 797 811
f 810 796 794
f 797 812 811
f 810 813 796
f 798 814 797
f 797 814 812
f 796 815 798
f 813 815 796
f 815 814 798
f 812 814 816
f 816 814 817
f 817 815 818
f 814 815 817
f 815 813 818
f 819 821 820
f 819 820 822
f 821 799 820
f 821 719 799
f 822 824 823
f 820 824 822
f 719 804 799
f 719 717 804
f 823 826 825
f 824 826 823
f 717 806 804
f 826 827 825
f 806 714 808
f 717 714 806
f 826 828 827
f 808 713 810
f 714 713 808
f 811 829 828
f 828 829 827
f 811 812 829
f 713 813 810
f 713 711 813
f 812 704 829
f 816 703 812
f 812 703 704
f 813 708 818
f 711 708 813
f 817 707 816
f 818 707 817
f 816 707 703
f 708 707 818
f 755 718 719
f 755 719 821
f 750 821 819
f 750 755 821
f 747 819 822
f 747 750 819
f 744 822 823
f 744 823 825
f 744 747 822
f 741 744 825
f 738 825 827
f 738 741 825
f 740 827 829
f 740 738 827
f 705 829 704
f 705 740 829
f 789 801 791
f 789 802 801
f 790 802 789
f 790 805 802
f 792 805 790
f 792 809 805
f 795 797 809
f 795 809 792
f 771 762 763
f 771 761 762
f 772 761 771
f 772 764 761
f 774 764 772
f 776 765 764
f 776 764 774
f 776 767 765
f 820 799 800
f 824 800 803
f 824 820 800
f 826 803 807
f 826 824 803
f 828 826 807
f 811 828 807
f 830 832 831
f 831 834 833
f 832 834 831
f 833 834 835
f 835 837 836
f 834 837 835
f 836 837 838
f 838 840 839
f 837 840 838
f 839 842 841
f 840 842 839
f 841 842 843
f 844 846 845
f 845 848 847
f 846 848 845
f 847 848 849
f 849 851 850
f 848 851 849
f 850 851 852
f 852 854 853
f 851 854 852
f 853 854 855
f 855 857 856
f 854 857 855
f 858 860 859
f 858 861 860
f 862 859 863
f 862 858 859
f 864 863 865
f 864 862 863
f 866 865 867
f 866 864 865
f 868 866 867
f 869 866 868
f 870 868 871
f 870 869 868
f 872 870 871
f 873 870 872
f 874 872 875
f 874 873 872
f 876 878 877
f 879 876 877
f 879 877 880
f 881 883 882
f 882 883 884
f 884 886 885
f 883 886 884
f 885 886 887
f 886 888 887
f 887 888 889
f 888 890 889
f 889 892 891
f 890 892 889
f 893 895 894
f 896 895 893
f 894 898 897
f 895 898 894
f 897 900 899
f 898 900 897
f 899 902 901
f 900 902 899
f 903 905 904
f 843 844 841
f 841 845 839
f 844 845 841
f 839 847 838
f 845 847 839
f 847 849 838
f 838 850 836
f 849 850 838
f 835 852 833
f 836 852 835
f 850 852 836
f 833 853 831
f 852 853 833
f 853 855 831
f 831 856 830
f 855 856 831
f 906 861 858
f 906 907 861
f 908 858 862
f 908 906 858
f 909 862 864
f 909 908 862
f 910 864 866
f 910 909 864
f 911 869 870
f 912 911 870
f 913 866 869
f 913 910 866
f 913 869 911
f 873 912 870
f 914 912 873
f 915 913 911
f 874 914 873
f 916 914 874
f 917 916 874
f 918 916 917
f 919 917 920
f 919 918 917
f 921 919 920
f 922 921 920
f 923 922 924
f 923 925 921
f 923 921 922
f 926 924 927
f 926 923 924
f 928 927 929
f 928 926 927
f 930 929 931
f 930 928 929
f 932 931 861
f 932 930 931
f 907 932 861
f 856 933 830
f 830 933 934
f 934 936 935
f 933 936 934
f 937 939 938
f 935 939 937
f 936 939 935
f 939 940 938
f 941 943 942
f 938 943 941
f 940 943 938
f 943 944 942
f 945 946 843
f 942 946 945
f 944 946 942
f 946 844 843
f 947 916 918
f 948 912 914
f 948 914 916
f 948 916 947
f 949 951 950
f 952 951 949
f 953 950 954
f 953 949 950
f 955 948 947
f 955 947 956
f 955 956 951
f 957 955 951
f 957 951 952
f 904 955 957
f 958 953 954
f 959 958 954
f 960 958 959
f 961 955 904
f 962 955 961
f 963 960 959
f 964 960 963
f 965 962 961
f 966 964 963
f 967 962 965
f 968 962 967
f 969 966 963
f 970 968 967
f 971 968 970
f 971 970 972
f 973 972 974
f 973 971 972
f 973 974 975
f 973 975 976
f 977 963 978
f 977 969 963
f 979 973 976
f 980 973 979
f 981 878 982
f 982 878 876
f 878 984 983
f 981 984 878
f 985 987 986
f 986 987 988
f 989 991 990
f 992 991 989
f 993 995 994
f 993 994 996
f 997 996 998
f 997 993 996
f 999 998 1000
f 999 997 998
f 1001 1000 1002
f 1001 999 1000
f 895 896 995
f 995 898 895
f 1003 994 896
f 896 994 995
f 898 1004 900
f 995 1004 898
f 1003 1005 994
f 1004 902 900
f 1005 1006 994
f 902 1008 1007
f 1007 1008 1006
f 1004 1008 902
f 1006 1008 994
f 1009 1011 1010
f 1010 1011 1012
f 893 894 398
f 897 398 894
f 969 1013 893
f 969 893 398
f 1014 897 899
f 1014 398 897
f 1015 969 398
f 1009 1014 899
f 1016 1013 969
f 1017 969 1015
f 901 1009 899
f 977 1019 1018
f 1011 901 1019
f 1011 1009 901
f 1011 1019 977
f 969 977 1018
f 969 1018 1016
f 398 1020 1015
f 1015 1020 1021
f 1020 400 1021
f 1021 636 631
f 400 636 1021
f 652 651 649
f 652 649 650
f 647 1022 643
f 643 1022 1023
f 1022 645 1023
f 1023 1025 1024
f 645 1025 1023
f 957 1025 903
f 1024 957 1026
f 1024 1025 957
f 957 903 904
f 648 904 905
f 904 1028 1027
f 648 1028 904
f 1028 648 1029
f 648 1030 1029
f 1030 384 1029
f 1029 386 379
f 384 386 1029
f 657 656 658
f 658 656 653
f 393 397 1031
f 397 1032 1031
f 1031 395 1033
f 1032 395 1031
f 395 1034 1033
f 884 885 1034
f 1034 882 884
f 887 976 885
f 885 976 1034
f 887 889 976
f 882 1036 1035
f 1034 1036 882
f 976 1033 1034
f 1036 1037 1035
f 976 1038 1033
f 1037 1039 1035
f 1040 979 891
f 1039 1041 1040
f 1037 1041 1039
f 1040 1041 979
f 979 976 891
f 891 976 889
f 1042 1043 1037
f 1037 1043 1041
f 886 883 1044
f 881 1044 883
f 1045 888 886
f 1045 886 1044
f 1046 881 1047
f 1046 1044 881
f 890 888 1045
f 1048 1046 1047
f 892 890 1045
f 1049 1050 892
f 1049 1048 1050
f 1049 1046 1048
f 1049 892 1045
f 1051 1053 1052
f 1051 1052 1054
f 1055 1054 1056
f 1055 1051 1054
f 1057 1056 1058
f 1057 1055 1056
f 1044 1058 1045
f 1044 1057 1058
f 1059 1061 1060
f 1059 1060 1062
f 1063 1065 1064
f 1065 1066 1064
f 1065 1067 1066
f 1068 1067 1065
f 1067 1069 1066
f 1066 1069 1070
f 1070 1069 1071
f 647 649 1071
f 1071 1022 647
f 1072 649 1073
f 1071 649 1072
f 1071 903 1022
f 1069 903 1071
f 903 645 1022
f 903 1025 645
f 903 1069 905
f 905 1030 648
f 905 384 1030
f 1069 1074 905
f 905 1074 384
f 1074 386 384
f 1075 651 1076
f 1073 651 1075
f 649 651 1073
f 651 659 1076
f 659 660 1076
f 660 636 1076
f 663 1074 658
f 664 1074 663
f 386 1074 664
f 636 400 1076
f 400 1020 1076
f 1020 398 1076
f 1074 1077 658
f 658 1077 657
f 1077 1078 657
f 1078 1079 657
f 662 1079 661
f 657 1079 662
f 661 1079 397
f 397 1079 1032
f 395 1079 1034
f 1032 1079 395
f 1076 1014 1080
f 398 1014 1076
f 1079 1036 1034
f 1079 1081 1036
f 966 969 1017
f 966 1017 1082
f 964 1082 1083
f 964 966 1082
f 960 1083 1084
f 960 964 1083
f 958 1084 1085
f 958 960 1084
f 953 1085 1086
f 953 958 1085
f 949 1086 1087
f 949 953 1086
f 952 1088 1026
f 952 1087 1088
f 952 949 1087
f 957 952 1026
f 643 1088 1087
f 650 643 1087
f 1023 1088 643
f 650 1087 1086
f 1085 650 1086
f 1023 1026 1088
f 1024 1026 1023
f 652 1085 1084
f 652 1084 1083
f 652 650 1085
f 673 652 1083
f 672 673 1083
f 631 672 1083
f 1082 1021 631
f 1082 631 1083
f 1017 1015 1021
f 1017 1021 1082
f 961 904 1027
f 961 1027 1089
f 965 1089 1090
f 965 961 1089
f 967 1090 1091
f 967 965 1090
f 970 1093 1092
f 970 1091 1093
f 970 967 1091
f 972 970 1092
f 974 1095 1094
f 974 1092 1095
f 974 972 1092
f 975 974 1094
f 976 1094 1038
f 976 975 1094
f 1029 1027 1028
f 1089 1027 1029
f 379 1089 1029
f 1090 379 675
f 1090 675 654
f 1090 654 653
f 1090 1089 379
f 1091 1090 653
f 1093 1091 653
f 1038 1031 1033
f 656 1093 653
f 1092 1093 656
f 1094 393 1031
f 1094 1031 1038
f 1095 656 655
f 1095 655 674
f 1095 674 393
f 1095 1092 656
f 1095 393 1094
f 834 1097 1096
f 834 1096 1098
f 832 1099 1097
f 832 1097 834
f 832 860 1099
f 837 834 1098
f 1100 859 860
f 1100 860 832
f 837 1098 1101
f 840 837 1101
f 1100 863 859
f 1102 840 1101
f 1103 863 1100
f 842 840 1102
f 865 863 1103
f 1104 842 1102
f 875 1105 842
f 875 842 1104
f 867 1103 1106
f 867 865 1103
f 872 1105 875
f 868 867 1106
f 871 1106 1105
f 871 1105 872
f 871 868 1106
f 902 1007 901
f 901 1007 1019
f 1019 1006 1018
f 1007 1006 1019
f 1018 1005 1016
f 1006 1005 1018
f 1016 1003 1013
f 1005 1003 1016
f 1013 896 893
f 1003 896 1013
f 891 892 1040
f 892 1050 1040
f 1040 1050 1039
f 1039 1048 1035
f 1050 1048 1039
f 1048 1047 1035
f 1035 881 882
f 1047 881 1035
f 880 877 1107
f 848 1107 1108
f 846 1109 880
f 846 880 1107
f 846 1107 848
f 851 1108 1110
f 851 848 1108
f 846 1111 1109
f 1112 1113 1111
f 851 1110 1114
f 1115 1112 1111
f 1115 1111 846
f 1116 851 1114
f 854 851 1116
f 1117 1112 1115
f 1118 854 1116
f 1119 1112 1117
f 1120 854 1118
f 1120 857 854
f 1121 1119 1117
f 1121 1117 1122
f 1123 857 1120
f 1124 1121 1122
f 1125 857 1123
f 1125 1122 857
f 1125 1124 1122
f 1111 1126 1109
f 1127 1126 1111
f 1109 879 880
f 1126 879 1109
f 921 925 984
f 925 983 984
f 992 989 1002
f 989 1001 1002
f 631 636 672
f 672 660 673
f 636 660 672
f 673 659 652
f 660 659 673
f 659 651 652
f 650 647 643
f 649 647 650
f 379 386 675
f 675 664 654
f 386 664 675
f 654 663 653
f 664 663 654
f 663 658 653
f 657 662 656
f 656 662 655
f 655 661 674
f 674 661 393
f 662 661 655
f 661 397 393
f 985 991 987
f 985 990 991
f 982 988 981
f 982 986 988
f 1052 1053 1128
f 1128 1130 1129
f 1053 1130 1128
f 1129 1131 1061
f 1130 1131 1129
f 1131 1060 1061
f 1059 1113 1132
f 1132 1134 1133
f 1113 1134 1132
f 1133 1135 911
f 1134 1135 1133
f 1135 915 911
f 1059 1062 1113
f 1136 1127 1111
f 1136 1111 1113
f 1062 1136 1113
f 1104 874 875
f 917 874 1104
f 1102 917 1104
f 920 917 1102
f 1101 920 1102
f 922 920 1101
f 924 1101 1098
f 924 922 1101
f 927 1098 1096
f 927 924 1098
f 929 1096 1097
f 929 927 1096
f 931 1097 1099
f 931 929 1097
f 861 1099 860
f 861 931 1099
f 856 857 933
f 933 1122 936
f 857 1122 933
f 936 1122 939
f 939 1117 940
f 1122 1117 939
f 940 1117 943
f 1117 944 943
f 1117 1115 944
f 944 1115 946
f 946 846 844
f 1115 846 946
f 842 1105 843
f 843 1105 945
f 945 1105 942
f 942 1106 941
f 1105 1106 942
f 941 1106 938
f 938 1103 937
f 1106 1103 938
f 1103 935 937
f 1103 1100 935
f 1100 934 935
f 934 832 830
f 1100 832 934
f 1113 1112 1134
f 1112 1135 1134
f 1112 915 1135
f 913 915 1112
f 913 1112 1119
f 910 1119 1121
f 910 913 1119
f 909 1121 1124
f 909 910 1121
f 908 1124 1125
f 908 909 1124
f 906 1125 1123
f 906 908 1125
f 907 1123 1120
f 907 906 1123
f 932 1120 1118
f 932 907 1120
f 930 1118 1116
f 930 932 1118
f 928 1116 1114
f 928 930 1116
f 926 1114 1110
f 926 928 1114
f 923 1110 1108
f 923 926 1110
f 925 1108 1107
f 925 923 1108
f 925 1107 983
f 1107 877 983
f 983 877 878
f 912 1133 911
f 912 1132 1133
f 912 948 1132
f 948 1059 1132
f 1059 955 1061
f 948 955 1059
f 1061 955 1129
f 1129 962 1128
f 955 962 1129
f 962 1052 1128
f 1054 1052 962
f 1054 962 968
f 1056 1054 968
f 1058 968 971
f 1058 1056 968
f 1045 971 973
f 1045 1058 971
f 1041 1043 980
f 1041 980 979
f 1045 980 1049
f 973 980 1045
f 1049 980 1043
f 1037 1081 1042
f 1036 1081 1037
f 1043 1042 1046
f 1043 1046 1049
f 1042 1081 1046
f 1044 1046 1081
f 1044 1081 1079
f 1078 1044 1079
f 1057 1044 1078
f 1055 1078 1077
f 1055 1057 1078
f 1051 1055 1077
f 1053 1077 1074
f 1053 1051 1077
f 1053 1074 1130
f 1130 1069 1131
f 1074 1069 1130
f 1131 1069 1060
f 1062 1060 1069
f 1062 1069 1067
f 1136 1062 1067
f 1068 1136 1067
f 1127 1136 1068
f 1127 1065 1126
f 1068 1065 1127
f 1126 1063 879
f 1065 1063 1126
f 879 1063 1064
f 876 879 1064
f 876 1066 982
f 1064 1066 876
f 986 982 1066
f 1066 985 986
f 1066 1070 985
f 918 919 984
f 984 919 921
f 990 985 1070
f 918 981 947
f 984 981 918
f 990 1071 989
f 1070 1071 990
f 981 988 947
f 989 1071 1001
f 988 987 956
f 988 956 947
f 999 1001 1071
f 999 1071 1072
f 997 1072 1073
f 997 999 1072
f 993 1073 1075
f 993 997 1073
f 995 1075 1076
f 995 993 1075
f 987 991 956
f 991 992 951
f 991 951 956
f 1080 1009 1010
f 1080 1014 1009
f 995 1080 1004
f 1076 1080 995
f 1002 951 992
f 1010 1004 1080
f 959 994 963
f 996 994 959
f 954 996 959
f 998 996 954
f 950 998 954
f 1000 998 950
f 951 1000 950
f 1002 1000 951
f 1012 1011 977
f 1012 977 978
f 1008 1004 1012
f 1012 1004 1010
f 978 1008 1012
f 994 1008 978
f 994 978 963
f 1137 1139 1138
f 1140 1137 1138
f 1141 1137 1140
f 1142 1141 1140
f 1143 1140 1144
f 1143 1142 1140
f 1145 1144 1146
f 1145 1143 1144
f 1147 1145 1146
f 1148 1146 1149
f 1148 1147 1146
f 1150 1149 1151
f 1150 1148 1149
f 1152 1154 1153
f 1155 1154 1152
f 1156 1155 1152
f 1157 1155 1156
f 1158 1157 1156
f 1159 1157 1158
f 1160 1159 1158
f 1161 1159 1160
f 1162 1160 1163
f 1162 1161 1160
f 1164 1163 1165
f 1164 1162 1163
f 1166 1164 1165
f 1167 1164 1166
f 1168 1166 1169
f 1168 1167 1166
f 1170 1172 1171
f 1173 1172 1170
f 1174 1173 1170
f 1175 1173 1174
f 1176 1175 1174
f 1177 1175 1176
f 1178 1177 1176
f 1179 1177 1178
f 1180 1178 1181
f 1180 1179 1178
f 1182 1181 1183
f 1182 1180 1181
f 1184 1183 1185
f 1184 1182 1183
f 1186 1185 1187
f 1186 1184 1185
f 1188 1190 1189
f 1189 1192 1191
f 1190 1192 1189
f 1191 1192 1193
f 1193 1195 1194
f 1192 1195 1193
f 1194 1195 1196
f 1196 1198 1197
f 1195 1198 1196
f 1198 1199 1197
f 1198 1200 1199
f 1199 1200 1201
f 1202 1204 1203
f 1203 1206 1205
f 1204 1206 1203
f 1205 1208 1207
f 1206 1208 1205
f 1207 1208 1209
f 1209 1211 1210
f 1208 1211 1209
f 1210 1211 1212
f 1212 1214 1213
f 1211 1214 1212
f 1214 1215 1213
f 1214 1216 1215
f 1202 1203 1201
f 1199 1203 1197
f 1201 1203 1199
f 1203 1205 1197
f 1197 1207 1196
f 1205 1207 1197
f 1196 1209 1194
f 1207 1209 1196
f 1193 1210 1191
f 1194 1210 1193
f 1209 1210 1194
f 1210 1212 1191
f 1191 1213 1189
f 1212 1213 1191
f 1189 1215 1188
f 1213 1215 1189
f 1217 1139 1137
f 1217 1218 1139
f 1219 1137 1141
f 1219 1217 1137
f 1220 1141 1142
f 1220 1219 1141
f 1221 1142 1143
f 1221 1220 1142
f 1222 1143 1145
f 1222 1145 1147
f 1222 1221 1143
f 1223 1147 1148
f 1223 1222 1147
f 1224 1223 1148
f 1225 1148 1150
f 1225 1224 1148
f 1167 1172 1173
f 1167 1168 1172
f 1164 1173 1175
f 1164 1167 1173
f 1162 1175 1177
f 1162 1164 1175
f 1161 1177 1179
f 1161 1162 1177
f 1159 1179 1180
f 1159 1161 1179
f 1157 1180 1182
f 1157 1182 1184
f 1157 1159 1180
f 1155 1157 1184
f 1154 1184 1186
f 1154 1155 1184
f 1226 1154 1186
f 1226 1186 1227
f 1228 1227 1229
f 1228 1226 1227
f 1230 1229 1231
f 1230 1228 1229
f 1232 1231 1233
f 1232 1230 1231
f 1234 1233 1235
f 1234 1235 1236
f 1234 1232 1233
f 1237 1234 1236
f 1238 1236 1239
f 1238 1237 1236
f 1168 1239 1172
f 1168 1238 1239
f 1240 1242 1241
f 1243 1242 1240
f 1244 1245 1240
f 1187 1245 1244
f 1240 1245 1243
f 1187 1225 1245
f 1241 1247 1246
f 1242 1247 1241
f 1187 1185 1225
f 1185 1224 1225
f 1246 1249 1248
f 1247 1249 1246
f 1183 1223 1185
f 1185 1223 1224
f 1248 1251 1250
f 1249 1251 1248
f 1223 1181 1222
f 1183 1181 1223
f 1252 1253 1251
f 1251 1253 1250
f 1222 1178 1221
f 1181 1178 1222
f 1218 1171 1252
f 1217 1171 1218
f 1252 1171 1253
f 1217 1170 1171
f 1221 1176 1220
f 1178 1176 1221
f 1219 1174 1217
f 1220 1174 1219
f 1217 1174 1170
f 1176 1174 1220
f 1245 1225 1150
f 1245 1150 1254
f 1243 1254 1255
f 1243 1245 1254
f 1242 1255 1256
f 1242 1256 1257
f 1242 1243 1255
f 1247 1242 1257
f 1249 1257 1258
f 1249 1247 1257
f 1251 1258 1259
f 1251 1249 1258
f 1252 1259 1260
f 1252 1251 1259
f 1218 1260 1139
f 1218 1252 1260
f 1151 1200 1198
f 1198 1195 1261
f 1151 1149 1200
f 1149 1262 1200
f 1261 1192 1263
f 1195 1192 1261
f 1146 1262 1149
f 1262 1146 1144
f 1190 1264 1192
f 1192 1264 1263
f 1190 1138 1264
f 1144 1140 1265
f 1265 1140 1138
f 1188 1215 1266
f 1266 1268 1267
f 1215 1268 1266
f 1267 1270 1269
f 1268 1270 1267
f 1270 1271 1269
f 1269 1273 1272
f 1271 1273 1269
f 1274 1276 1275
f 1272 1276 1274
f 1273 1276 1272
f 1276 1277 1275
f 1278 1279 1201
f 1275 1279 1278
f 1277 1279 1275
f 1279 1202 1201
f 1280 1211 1281
f 1281 1211 1282
f 1169 1214 1280
f 1280 1214 1211
f 1282 1208 1283
f 1211 1208 1282
f 1169 1216 1214
f 1166 1216 1169
f 1283 1208 1284
f 1166 1285 1216
f 1166 1165 1285
f 1284 1206 1286
f 1208 1206 1284
f 1165 1163 1285
f 1204 1287 1206
f 1206 1287 1286
f 1285 1160 1288
f 1163 1160 1285
f 1204 1153 1287
f 1289 1152 1204
f 1204 1152 1153
f 1160 1158 1288
f 1288 1156 1289
f 1289 1156 1152
f 1158 1156 1288
f 1215 1216 1268
f 1268 1285 1270
f 1216 1285 1268
f 1285 1271 1270
f 1285 1273 1271
f 1285 1288 1273
f 1273 1288 1276
f 1276 1289 1277
f 1288 1289 1276
f 1277 1289 1279
f 1279 1204 1202
f 1289 1204 1279
f 1200 1262 1201
f 1201 1262 1278
f 1278 1262 1275
f 1262 1274 1275
f 1262 1144 1274
f 1274 1144 1272
f 1272 1265 1269
f 1144 1265 1272
f 1269 1265 1267
f 1267 1138 1266
f 1265 1138 1267
f 1266 1190 1188
f 1138 1190 1266
f 1227 1186 1187
f 1227 1187 1244
f 1229 1244 1240
f 1229 1227 1244
f 1231 1240 1241
f 1231 1229 1240
f 1233 1241 1246
f 1233 1231 1241
f 1248 1233 1246
f 1235 1233 1248
f 1236 1248 1250
f 1236 1235 1248
f 1253 1236 1250
f 1239 1236 1253
f 1172 1253 1171
f 1172 1239 1253
f 1238 1168 1169
f 1238 1169 1280
f 1237 1280 1281
f 1237 1238 1280
f 1234 1281 1282
f 1234 1237 1281
f 1232 1282 1283
f 1232 1234 1282
f 1284 1232 1283
f 1230 1232 1284
f 1228 1284 1286
f 1228 1230 1284
f 1226 1286 1287
f 1226 1228 1286
f 1154 1287 1153
f 1154 1226 1287
f 1254 1150 1151
f 1255 1151 1198
f 1255 1254 1151
f 1256 1198 1261
f 1256 1255 1198
f 1257 1256 1261
f 1258 1261 1263
f 1258 1257 1261
f 1259 1258 1263
f 1264 1259 1263
f 1260 1259 1264
f 1139 1264 1138
f 1139 1260 1264
f 1290 1292 1291
f 1293 1290 1291
f 1294 1290 1293
f 1295 1294 1293
f 1296 1293 1297
f 1296 1295 1293
f 1298 1297 1299
f 1298 1296 1297
f 1300 1298 1299
f 1301 1299 1302
f 1301 1300 1299
f 1303 1302 1304
f 1303 1301 1302
f 1305 1307 1306
f 1308 1307 1305
f 1309 1308 1305
f 1310 1308 1309
f 1311 1310 1309
f 1312 1310 1311
f 1313 1312 1311
f 1314 1312 1313
f 1315 1313 1316
f 1315 1314 1313
f 1317 1316 1318
f 1317 1315 1316
f 1319 1317 1318
f 1320 1317 1319
f 1321 1319 1322
f 1321 1320 1319
f 1323 1325 1324
f 1326 1325 1323
f 1327 1326 1323
f 1328 1326 1327
f 1329 1328 1327
f 1330 1328 1329
f 1331 1330 1329
f 1332 1330 1331
f 1333 1331 1334
f 1333 1332 1331
f 1335 1334 1336
f 1335 1333 1334
f 1337 1336 1338
f 1337 1335 1336
f 1339 1338 1340
f 1339 1337 1338
f 1341 1343 1342
f 1342 1345 1344
f 1343 1345 1342
f 1344 1345 1346
f 1346 1348 1347
f 1345 1348 1346
f 1347 1348 1349
f 1348 1350 1349
f 1350 1352 1351
f 1351 1352 1353
f 1354 1356 1355
f 1355 1358 1357
f 1356 1358 1355
f 1357 1360 1359
f 1358 1360 1357
f 1359 1360 1361
f 1361 1363 1362
f 1360 1363 1361
f 1362 1363 1364
f 1364 1366 1365
f 1363 1366 1364
f 1366 1367 1365
f 1366 1368 1367
f 1354 1355 1353
f 1351 1355 1350
f 1353 1355 1351
f 1355 1357 1350
f 1350 1359 1349
f 1357 1359 1350
f 1349 1361 1347
f 1359 1361 1349
f 1346 1362 1344
f 1347 1362 1346
f 1361 1362 1347
f 1362 1364 1344
f 1344 1365 1342
f 1364 1365 1344
f 1342 1367 1341
f 1365 1367 1342
f 1369 1292 1290
f 1369 1370 1292
f 1371 1290 1294
f 1371 1369 1290
f 1372 1294 1295
f 1372 1371 1294
f 1373 1295 1296
f 1373 1372 1295
f 1374 1296 1298
f 1374 1298 1300
f 1374 1373 1296
f 1375 1300 1301
f 1375 1374 1300
f 1376 1375 1301
f 1377 1301 1303
f 1377 1376 1301
f 1320 1325 1326
f 1320 1321 1325
f 1317 1326 1328
f 1317 1320 1326
f 1315 1328 1330
f 1315 1317 1328
f 1314 1330 1332
f 1314 1315 1330
f 1312 1332 1333
f 1312 1314 1332
f 1310 1333 1335
f 1310 1335 1337
f 1310 1312 1333
f 1308 1310 1337
f 1307 1337 1339
f 1307 1308 1337
f 1378 1307 1339
f 1378 1339 1379
f 1380 1379 1381
f 1380 1378 1379
f 1382 1381 1383
f 1382 1380 1381
f 1384 1383 1385
f 1384 1382 1383
f 1386 1385 1387
f 1386 1387 1388
f 1386 1384 1385
f 1389 1386 1388
f 1390 1388 1391
f 1390 1389 1388
f 1321 1391 1325
f 1321 1390 1391
f 1392 1394 1393
f 1395 1394 1392
f 1396 1397 1392
f 1340 1397 1396
f 1392 1397 1395
f 1340 1377 1397
f 1393 1399 1398
f 1394 1399 1393
f 1340 1338 1377
f 1338 1376 1377
f 1398 1401 1400
f 1399 1401 1398
f 1336 1375 1338
f 1338 1375 1376
f 1400 1403 1402
f 1401 1403 1400
f 1375 1334 1374
f 1336 1334 1375
f 1404 1405 1403
f 1403 1405 1402
f 1374 1331 1373
f 1334 1331 1374
f 1370 1324 1404
f 1369 1324 1370
f 1404 1324 1405
f 1369 1323 1324
f 1373 1329 1372
f 1331 1329 1373
f 1371 1327 1369
f 1372 1327 1371
f 1369 1327 1323
f 1329 1327 1372
f 1397 1377 1303
f 1397 1303 1406
f 1395 1406 1407
f 1395 1397 1406
f 1394 1407 1408
f 1394 1408 1409
f 1394 1395 1407
f 1399 1394 1409
f 1401 1409 1410
f 1401 1399 1409
f 1403 1410 1411
f 1403 1401 1410
f 1404 1411 1412
f 1404 1403 1411
f 1370 1412 1292
f 1370 1404 1412
f 1304 1352 1413
f 1413 1352 1350
f 1350 1348 1413
f 1413 1348 1414
f 1304 1302 1352
f 1302 1415 1352
f 1348 1345 1414
f 1299 1415 1302
f 1345 1416 1414
f 1415 1299 1297
f 1343 1416 1345
f 1343 1291 1416
f 1343 1417 1291
f 1297 1293 1418
f 1418 1293 1417
f 1417 1293 1291
f 1341 1367 1419
f 1419 1421 1420
f 1367 1421 1419
f 1420 1423 1422
f 1421 1423 1420
f 1423 1424 1422
f 1422 1426 1425
f 1424 1426 1422
f 1427 1429 1428
f 1425 1429 1427
f 1426 1429 1425
f 1429 1430 1428
f 1431 1432 1353
f 1428 1432 1431
f 1430 1432 1428
f 1432 1354 1353
f 1433 1363 1434
f 1434 1363 1435
f 1322 1366 1433
f 1433 1366 1363
f 1435 1360 1436
f 1363 1360 1435
f 1322 1368 1366
f 1319 1368 1322
f 1436 1360 1437
f 1319 1438 1368
f 1319 1318 1438
f 1437 1358 1439
f 1360 1358 1437
f 1438 1316 1440
f 1318 1316 1438
f 1356 1441 1358
f 1358 1441 1439
f 1316 1313 1440
f 1356 1306 1441
f 1442 1305 1356
f 1356 1305 1306
f 1440 1311 1443
f 1313 1311 1440
f 1443 1309 1442
f 1442 1309 1305
f 1311 1309 1443
f 1367 1368 1421
f 1421 1438 1423
f 1368 1438 1421
f 1438 1424 1423
f 1438 1440 1424
f 1440 1426 1424
f 1426 1443 1429
f 1440 1443 1426
f 1429 1443 1430
f 1430 1442 1432
f 1443 1442 1430
f 1432 1356 1354
f 1442 1356 1432
f 1352 1415 1353
f 1353 1415 1431
f 1431 1415 1428
f 1415 1427 1428
f 1415 1297 1427
f 1427 1297 1425
f 1425 1418 1422
f 1297 1418 1425
f 1422 1418 1420
f 1420 1417 1419
f 1418 1417 1420
f 1419 1343 1341
f 1417 1343 1419
f 1379 1339 1340
f 1379 1340 1396
f 1381 1396 1392
f 1381 1379 1396
f 1383 1392 1393
f 1383 1381 1392
f 1385 1393 1398
f 1385 1383 1393
f 1400 1385 1398
f 1387 1385 1400
f 1388 1400 1402
f 1388 1387 1400
f 1405 1388 1402
f 1391 1388 1405
f 1325 1405 1324
f 1325 1391 1405
f 1390 1321 1322
f 1390 1322 1433
f 1389 1433 1434
f 1389 1390 1433
f 1386 1434 1435
f 1386 1389 1434
f 1384 1435 1436
f 1384 1386 1435
f 1437 1384 1436
f 1382 1384 1437
f 1380 1437 1439
f 1380 1382 1437
f 1378 1439 1441
f 1378 1380 1439
f 1307 1441 1306
f 1307 1378 1441
f 1406 1303 1304
f 1407 1304 1413
f 1407 1406 1304
f 1408 1407 1413
f 1409 1413 1414
f 1409 1408 1413
f 1410 1409 1414
f 1416 1410 1414
f 1411 1410 1416
f 1412 1411 1416
f 1292 1416 1291
f 1292 1412 1416

