v -0.00691458 0.00390000 0.01681149
v -0.00636430 0.00398882 0.01699569
v -0.00749753 0.00399486 0.01685556
v -0.00591637 0.00390000 0.01737858
v -0.00565567 0.00398272 0.01789947
v -0.00579577 0.00390000 0.01904092
v -0.00617710 0.00399645 0.01948092
v -0.00561372 0.00399700 0.01848813
v -0.00470994 -0.00670757 0.01965840
v -0.00439510 -0.00695718 0.01866484
v -0.00548215 -0.00696700 0.02048357
v -0.00493165 -0.00670847 0.01661061
v -0.00572735 -0.00695725 0.01594082
v -0.00447917 -0.00695502 0.01754561
v -0.00676131 -0.00670844 0.01557216
v -0.00780360 -0.00696600 0.01566472
v -0.00671909 -0.00578399 0.01968295
v -0.00710080 -0.00498681 0.01831360
v -0.00802813 -0.00572046 0.01935550
v -0.00830492 -0.00568605 0.01863186
v -0.00748092 -0.00578399 0.01691702
v -0.00843768 -0.00572046 0.01786854
v -0.00691458 -0.00400000 0.01681149
v -0.00749832 -0.00400000 0.01685384
v -0.00635907 -0.00400000 0.01699576
v -0.00591637 -0.00400000 0.01737858
v -0.00565386 -0.00400000 0.01790167
v -0.00561151 -0.00400000 0.01848541
v -0.00579577 -0.00400000 0.01904092
v -0.00617860 -0.00400000 0.01948363
v -0.00670169 -0.00400000 0.01974614
v -0.00670865 0.00398281 0.01974599
v -0.00676006 -0.00400000 0.01557108
v -0.00783025 -0.00400000 0.01564872
v -0.00574163 -0.00400000 0.01590890
v -0.00493000 -0.00400000 0.01661073
v -0.00444873 -0.00400000 0.01756975
v -0.00437110 -0.00400000 0.01863993
v -0.00541075 -0.00400000 0.02046999
v -0.00470892 -0.00400000 0.01965836
v -0.00636904 -0.00670850 0.02094979
v -0.00636977 -0.00400000 0.02095126
v -0.00980317 -0.00693347 0.01796306
v -0.00926535 -0.00696613 0.01995856
v -0.00849677 -0.00700000 0.01793613
v -0.00882544 -0.00696813 0.01619814
v -0.00748328 -0.00700000 0.01690843
v -0.00811350 -0.00700000 0.01932769
v -0.00840927 -0.00696543 0.02068935
v -0.00608652 -0.00700000 0.01727228
v -0.00671673 -0.00700000 0.01969154
v -0.00570324 -0.00700000 0.01866384
v -0.00858850 -0.00400000 0.01811456
v -0.00982891 -0.00400000 0.01796004
v -0.00949109 -0.00400000 0.01694161
v -0.00840423 -0.00400000 0.01755905
v -0.00802141 -0.00400000 0.01711635
v -0.00878926 -0.00400000 0.01612998
v -0.00854615 -0.00400000 0.01869829
v -0.00975129 -0.00400000 0.01903022
v -0.00828365 -0.00400000 0.01922139
v -0.00927002 -0.00400000 0.01998924
v -0.00845839 -0.00400000 0.02069107
v -0.00784095 -0.00400000 0.01960422
v -0.00743995 -0.00400000 0.02102889
v -0.00728543 -0.00400000 0.01978848
v -0.00743249 -0.00676967 0.02102594
v -0.00975059 -0.00670752 0.01902946
v -0.00949030 -0.00671174 0.01694207
v -0.00728543 0.00390000 0.01978848
v -0.00784270 0.00399292 0.01960115
v -0.00828379 0.00393306 0.01922016
v -0.00854602 0.00399732 0.01869087
v -0.00858850 0.00390000 0.01811456
v -0.00840215 0.00399263 0.01756023
v -0.00802141 0.00390000 0.01711635
v -0.00576233 -0.00572046 0.01873143
v -0.00608488 -0.00570559 0.01728302
v -0.00691457 0.00390000 -0.01978851
v -0.00636429 0.00398882 -0.01960431
v -0.00749753 0.00399486 -0.01974445
v -0.00591636 0.00390000 -0.01922143
v -0.00565566 0.00398272 -0.01870053
v -0.00579577 0.00390000 -0.01755908
v -0.00617709 0.00399645 -0.01711908
v -0.00561371 0.00399700 -0.01811188
v -0.00470993 -0.00670757 -0.01694160
v -0.00439509 -0.00695718 -0.01793516
v -0.00548214 -0.00696700 -0.01611643
v -0.00493164 -0.00670847 -0.01998939
v -0.00572734 -0.00695725 -0.02065919
v -0.00447916 -0.00695502 -0.01905439
v -0.00676129 -0.00670844 -0.02102784
v -0.00780360 -0.00696600 -0.02093529
v -0.00814143 -0.00571958 -0.01735130
v -0.00674132 -0.00575730 -0.01691472
v -0.00709921 -0.00498681 -0.01831364
v -0.00748091 -0.00578399 -0.01968298
v -0.00843767 -0.00572046 -0.01873146
v -0.00691457 -0.00400000 -0.01978851
v -0.00749831 -0.00400000 -0.01974616
v -0.00635906 -0.00400000 -0.01960425
v -0.00591636 -0.00400000 -0.01922143
v -0.00565385 -0.00400000 -0.01869833
v -0.00561150 -0.00400000 -0.01811459
v -0.00579577 -0.00400000 -0.01755908
v -0.00617859 -0.00400000 -0.01711638
v -0.00670169 -0.00400000 -0.01685387
v -0.00670864 0.00398281 -0.01685401
v -0.00676005 -0.00400000 -0.02102892
v -0.00783024 -0.00400000 -0.02095129
v -0.00574162 -0.00400000 -0.02069111
v -0.00492999 -0.00400000 -0.01998927
v -0.00444872 -0.00400000 -0.01903025
v -0.00437109 -0.00400000 -0.01796007
v -0.00541074 -0.00400000 -0.01613001
v -0.00470890 -0.00400000 -0.01694164
v -0.00636903 -0.00670849 -0.01565021
v -0.00636976 -0.00400000 -0.01564874
v -0.00980316 -0.00693348 -0.01863694
v -0.00926534 -0.00696613 -0.01664144
v -0.00849676 -0.00700000 -0.01866387
v -0.00882544 -0.00696813 -0.02040186
v -0.00748327 -0.00700000 -0.01969157
v -0.00811348 -0.00700000 -0.01727231
v -0.00840925 -0.00696543 -0.01591065
v -0.00608651 -0.00700000 -0.01932772
v -0.00671672 -0.00700000 -0.01690846
v -0.00570323 -0.00700000 -0.01793616
v -0.00858849 -0.00400000 -0.01848544
v -0.00982890 -0.00400000 -0.01863996
v -0.00949109 -0.00400000 -0.01965839
v -0.00840423 -0.00400000 -0.01904095
v -0.00802141 -0.00400000 -0.01948366
v -0.00878925 -0.00400000 -0.02047002
v -0.00854614 -0.00400000 -0.01790170
v -0.00975128 -0.00400000 -0.01756977
v -0.00828364 -0.00400000 -0.01737860
v -0.00927000 -0.00400000 -0.01661076
v -0.00845838 -0.00400000 -0.01590892
v -0.00784093 -0.00400000 -0.01699578
v -0.00743994 -0.00400000 -0.01557111
v -0.00728542 -0.00400000 -0.01681152
v -0.00743248 -0.00676967 -0.01557406
v -0.00975058 -0.00670752 -0.01757054
v -0.00949029 -0.00671174 -0.01965793
v -0.00728542 0.00390000 -0.01681152
v -0.00784269 0.00399292 -0.01699885
v -0.00828378 0.00393306 -0.01737984
v -0.00854601 0.00399732 -0.01790912
v -0.00858849 0.00390000 -0.01848544
v -0.00840215 0.00399263 -0.01903977
v -0.00802141 0.00390000 -0.01948366
v -0.00576232 -0.00572046 -0.01786857
v -0.00589508 -0.00568605 -0.01863189
v -0.00617188 -0.00572046 -0.01935553
f 1 3 2
f 4 2 5
f 6 8 7
f 9 11 10
f 12 14 13
f 15 13 16
f 17 19 18
f 19 20 18
f 18 22 21
f 20 22 18
f 23 3 1
f 23 24 3
f 25 1 2
f 25 2 4
f 25 23 1
f 26 4 5
f 26 25 4
f 27 26 5
f 28 5 8
f 28 27 5
f 29 8 6
f 29 6 7
f 29 28 8
f 30 29 7
f 31 7 32
f 31 30 7
f 15 34 33
f 15 16 34
f 13 33 35
f 13 15 33
f 12 35 36
f 12 13 35
f 14 36 37
f 14 12 36
f 10 37 38
f 10 14 37
f 9 40 39
f 9 38 40
f 9 10 38
f 11 9 39
f 41 39 42
f 41 11 39
f 43 45 44
f 46 45 43
f 16 47 46
f 46 47 45
f 45 48 44
f 48 49 44
f 13 50 16
f 16 50 47
f 48 51 49
f 50 14 52
f 13 14 50
f 51 11 49
f 52 11 51
f 14 10 52
f 52 10 11
f 53 55 54
f 53 56 55
f 57 58 55
f 57 55 56
f 59 54 60
f 59 53 54
f 24 34 58
f 24 58 57
f 23 33 34
f 23 34 24
f 61 60 62
f 61 59 60
f 35 23 25
f 35 33 23
f 63 64 61
f 63 61 62
f 26 35 25
f 36 35 26
f 65 66 64
f 65 64 63
f 42 31 66
f 42 66 65
f 37 26 27
f 37 36 26
f 39 30 31
f 39 31 42
f 38 27 28
f 38 37 27
f 40 29 30
f 40 28 29
f 40 30 39
f 40 38 28
f 67 41 42
f 67 42 65
f 49 65 63
f 49 67 65
f 44 63 62
f 44 49 63
f 68 60 54
f 68 62 60
f 68 44 62
f 43 68 54
f 69 55 58
f 69 54 55
f 69 43 54
f 46 69 58
f 16 58 34
f 16 46 58
f 66 31 32
f 66 32 70
f 64 70 71
f 64 66 70
f 61 71 72
f 61 64 71
f 59 72 73
f 59 61 72
f 53 73 74
f 53 59 73
f 56 74 75
f 56 75 76
f 56 53 74
f 57 56 76
f 24 76 3
f 24 57 76
f 71 73 72
f 8 3 75
f 8 75 73
f 8 2 3
f 8 5 2
f 7 73 71
f 7 71 32
f 7 8 73
f 19 51 48
f 19 17 51
f 77 52 51
f 17 77 51
f 78 50 52
f 77 78 52
f 78 47 50
f 78 21 47
f 22 45 47
f 21 22 47
f 20 48 45
f 20 19 48
f 22 20 45
f 78 18 21
f 18 77 17
f 78 77 18
f 43 69 46
f 68 43 44
f 67 11 41
f 67 49 11
f 71 70 32
f 75 74 73
f 76 75 3
f 79 81 80
f 82 80 83
f 84 86 85
f 87 89 88
f 90 92 91
f 93 91 94
f 95 97 96
f 97 99 98
f 95 99 97
f 100 81 79
f 100 101 81
f 102 79 80
f 102 80 82
f 102 100 79
f 103 82 83
f 103 102 82
f 104 103 83
f 105 83 86
f 105 104 83
f 106 86 84
f 106 84 85
f 106 105 86
f 107 106 85
f 108 85 109
f 108 107 85
f 93 111 110
f 93 94 111
f 91 110 112
f 91 93 110
f 90 112 113
f 90 91 112
f 92 113 114
f 92 90 113
f 88 114 115
f 88 92 114
f 87 117 116
f 87 115 117
f 87 88 115
f 89 87 116
f 118 116 119
f 118 89 116
f 120 122 121
f 123 122 120
f 94 124 123
f 123 124 122
f 122 125 121
f 125 126 121
f 91 127 94
f 94 127 124
f 125 128 126
f 127 92 129
f 91 92 127
f 128 89 126
f 129 89 128
f 92 88 129
f 129 88 89
f 130 132 131
f 130 133 132
f 134 135 132
f 134 132 133
f 136 131 137
f 136 130 131
f 101 111 135
f 101 135 134
f 100 110 111
f 100 111 101
f 138 137 139
f 138 136 137
f 112 100 102
f 112 110 100
f 140 141 138
f 140 138 139
f 103 112 102
f 113 112 103
f 142 143 141
f 142 141 140
f 119 108 143
f 119 143 142
f 114 103 104
f 114 113 103
f 116 107 108
f 116 108 119
f 115 104 105
f 115 114 104
f 117 106 107
f 117 105 106
f 117 107 116
f 117 115 105
f 144 118 119
f 144 119 142
f 126 142 140
f 126 144 142
f 121 140 139
f 121 126 140
f 145 137 131
f 145 139 137
f 145 121 139
f 120 145 131
f 146 132 135
f 146 131 132
f 146 120 131
f 123 146 135
f 94 135 111
f 94 123 135
f 143 108 109
f 143 109 147
f 141 147 148
f 141 143 147
f 138 148 149
f 138 141 148
f 136 149 150
f 136 138 149
f 130 150 151
f 130 136 150
f 133 151 152
f 133 152 153
f 133 130 151
f 134 133 153
f 101 153 81
f 101 134 153
f 148 150 149
f 86 81 152
f 86 152 150
f 86 80 81
f 86 83 80
f 85 150 148
f 85 148 109
f 85 86 150
f 96 128 125
f 95 96 125
f 154 129 128
f 96 154 128
f 155 127 129
f 155 156 127
f 154 155 129
f 156 124 127
f 156 98 124
f 99 122 124
f 98 99 124
f 95 125 122
f 99 95 122
f 98 156 97
f 156 155 97
f 97 154 96
f 155 154 97
f 120 146 123
f 145 120 121
f 144 89 118
f 144 126 89
f 148 147 109
f 152 151 150
f 153 152 81

