# https://github.com/mikedh/trimesh
v 0.15670592 0.09512323 -0.00752424
v 0.15608595 0.09608247 -0.00828638
v 0.15590113 0.09490585 -0.00990744
v 0.15666668 0.09372135 -0.00896634
v 0.15540393 0.09713853 -0.00883860
v 0.15505895 0.09620988 -0.01058933
v 0.15468055 0.09825931 -0.00916413
v 0.15416573 0.09759383 -0.01099130
v 0.15393783 0.09941074 -0.00925308
v 0.15324859 0.09901565 -0.01110114
v 0.15319832 0.10055786 -0.00910274
v 0.15233544 0.10043213 -0.01091550
v 0.15248449 0.10166580 -0.00871770
v 0.15145399 0.10180023 -0.01044004
v 0.15181802 0.10270090 -0.00810963
v 0.15063101 0.10307839 -0.00968919
v 0.15121917 0.10363172 -0.00729702
v 0.14989154 0.10422777 -0.00868577
v 0.15070613 0.10442995 -0.00630457
v 0.14925805 0.10521346 -0.00746026
v 0.15029451 0.10507137 -0.00516241
v 0.14874975 0.10600548 -0.00604991
v 0.14999679 0.10553646 -0.00390527
v 0.14838213 0.10657979 -0.00449757
v 0.14982203 0.10581112 -0.00257134
v 0.14816633 0.10691894 -0.00285040
v 0.14977552 0.10588697 -0.00120114
v 0.14810890 0.10701261 -0.00115846
v 0.14985870 0.10576173 0.00016369
v 0.14821161 0.10685796 0.00052685
v 0.15006903 0.10543920 0.00148168
v 0.14847134 0.10645968 0.00215433
v 0.15040013 0.10492917 0.00271278
v 0.14888018 0.10582989 0.00367452
v 0.15084192 0.10424715 0.00381959
v 0.14942572 0.10498773 0.00504122
v 0.15138099 0.10341386 0.00476848
v 0.15009136 0.10395876 0.00621292
v 0.15200096 0.10245461 0.00553061
v 0.15085691 0.10277427 0.00715402
v 0.15268299 0.10139856 0.00608283
v 0.15169910 0.10147023 0.00783591
v 0.15340635 0.10027779 0.00640836
v 0.15259232 0.10008629 0.00823788
v 0.15414907 0.09912635 0.00649731
v 0.15350945 0.09866447 0.00834772
v 0.15488859 0.09797923 0.00634698
v 0.15442261 0.09724799 0.00816209
v 0.15560243 0.09687129 0.00596193
v 0.15530407 0.09587988 0.00768662
v 0.15626889 0.09583618 0.00535386
v 0.15612704 0.09460172 0.00693577
v 0.15686774 0.09490537 0.00454126
v 0.15686651 0.09345233 0.00593235
v 0.15738077 0.09410714 0.00354880
v 0.15750000 0.09246665 0.00470685
v 0.15779240 0.09346572 0.00240665
v 0.15800829 0.09167463 0.00329650
v 0.15809013 0.09300062 0.00114951
v 0.15837592 0.09110032 0.00174416
v 0.15826489 0.09272597 -0.00018443
v 0.15859172 0.09076117 0.00009699
v 0.15831138 0.09265012 -0.00155463
v 0.15864915 0.09066750 -0.00159495
v 0.15822820 0.09277536 -0.00291945
v 0.15854643 0.09082215 -0.00328027
v 0.15801787 0.09309789 -0.00423744
v 0.15828671 0.09122042 -0.00490774
v 0.15768678 0.09360791 -0.00546854
v 0.15787786 0.09185021 -0.00642793
v 0.15724500 0.09428993 -0.00657535
v 0.15733233 0.09269238 -0.00779464
v 0.15555936 0.09367277 -0.01145957
v 0.15646434 0.09227256 -0.01034709
v 0.15456381 0.09521428 -0.01226564
v 0.15350793 0.09685026 -0.01274082
v 0.15242378 0.09853101 -0.01287066
v 0.15134431 0.10020544 -0.01265122
v 0.15030232 0.10182270 -0.01208916
v 0.14932950 0.10333363 -0.01120157
v 0.14845535 0.10469233 -0.01001542
v 0.14770649 0.10585752 -0.00856673
v 0.14710563 0.10679378 -0.00689955
v 0.14667106 0.10747269 -0.00506450
v 0.14641595 0.10787359 -0.00311737
v 0.14634809 0.10798431 -0.00111730
v 0.14646950 0.10780150 0.00087493
v 0.14677653 0.10733070 0.00279879
v 0.14725982 0.10658622 0.00459582
v 0.14790469 0.10559069 0.00621142
v 0.14869158 0.10437433 0.00759650
v 0.14959654 0.10297412 0.00870898
v 0.15059209 0.10143261 0.00951506
v 0.15164798 0.09979663 0.00999023
v 0.15273213 0.09811588 0.01012007
v 0.15381159 0.09644144 0.00990063
v 0.15485357 0.09482418 0.00933858
v 0.15582642 0.09331326 0.00845099
v 0.15670055 0.09195456 0.00726483
v 0.15744941 0.09078937 0.00581615
v 0.15805027 0.08985311 0.00414896
v 0.15848485 0.08917420 0.00231392
v 0.15873995 0.08877330 0.00036679
v 0.15880783 0.08866257 -0.00163328
v 0.15868640 0.08884538 -0.00362551
v 0.15837939 0.08931618 -0.00554937
v 0.15789610 0.09006066 -0.00734640
v 0.15725121 0.09105621 -0.00896200
v 0.15506338 0.09239314 -0.01293028
v 0.15610047 0.09078851 -0.01165537
v 0.15392247 0.09415972 -0.01385405
v 0.15271240 0.09603457 -0.01439860
v 0.15146998 0.09796072 -0.01454740
v 0.15023290 0.09987963 -0.01429592
v 0.14903879 0.10173301 -0.01365180
v 0.14792392 0.10346455 -0.01263462
v 0.14692216 0.10502163 -0.01127527
v 0.14606394 0.10635693 -0.00961508
v 0.14537537 0.10742991 -0.00770447
v 0.14487733 0.10820792 -0.00560150
v 0.14458498 0.10866736 -0.00337007
v 0.14450718 0.10879425 -0.00107798
v 0.14464635 0.10858475 0.00120512
v 0.14499819 0.10804521 0.00340987
v 0.14555205 0.10719203 0.00546928
v 0.14629109 0.10605114 0.00732076
v 0.14719285 0.10465719 0.00890808
v 0.14822994 0.10305256 0.01018299
v 0.14937085 0.10128597 0.01110675
v 0.15058091 0.09941112 0.01165130
v 0.15182334 0.09748498 0.01180010
v 0.15306041 0.09556606 0.01154862
v 0.15425453 0.09371268 0.01090451
v 0.15536942 0.09198114 0.00988732
v 0.15637116 0.09042406 0.00852798
v 0.15722938 0.08908876 0.00686779
v 0.15791796 0.08801579 0.00495718
v 0.15841599 0.08723778 0.00285421
v 0.15870833 0.08677834 0.00062278
v 0.15878613 0.08665144 -0.00166930
v 0.15864699 0.08686094 -0.00395241
v 0.15829512 0.08740048 -0.00615716
v 0.15774128 0.08825365 -0.00821657
v 0.15700224 0.08939455 -0.01006806
v 0.15441714 0.09107728 -0.01430773
v 0.15557800 0.08928112 -0.01288066
v 0.15314007 0.09305471 -0.01534174
v 0.15178557 0.09515332 -0.01595129
v 0.15039484 0.09730936 -0.01611785
v 0.14901014 0.09945729 -0.01583635
v 0.14767350 0.10153189 -0.01511536
v 0.14642558 0.10347009 -0.01397677
v 0.14530425 0.10521299 -0.01245519
v 0.14434360 0.10670768 -0.01059685
v 0.14357284 0.10790871 -0.00845820
v 0.14301535 0.10877959 -0.00610424
v 0.14268813 0.10929386 -0.00360649
v 0.14260104 0.10943590 -0.00104083
v 0.14275680 0.10920139 0.00151477
v 0.14315064 0.10859745 0.00398266
v 0.14377061 0.10764245 0.00628786
v 0.14459786 0.10636538 0.00836033
v 0.14560725 0.10480507 0.01013709
v 0.14676812 0.10300891 0.01156416
v 0.14804520 0.10103148 0.01259818
v 0.14939967 0.09893287 0.01320773
v 0.15079041 0.09677684 0.01337428
v 0.15217511 0.09462889 0.01309279
v 0.15351176 0.09255430 0.01237179
v 0.15475969 0.09061610 0.01123321
v 0.15588102 0.08887319 0.00971163
v 0.15684165 0.08737851 0.00785328
v 0.15761241 0.08617748 0.00571464
v 0.15816990 0.08530660 0.00336068
v 0.15849714 0.08479233 0.00086293
v 0.15858421 0.08465029 -0.00170273
v 0.15842845 0.08488479 -0.00425833
v 0.15803461 0.08548873 -0.00672622
v 0.15741466 0.08644374 -0.00903142
v 0.15658741 0.08772080 -0.01110389
v 0.15362588 0.08973579 -0.01558082
v 0.15490118 0.08776257 -0.01401308
v 0.15222290 0.09190815 -0.01671677
v 0.15073492 0.09421363 -0.01738640
v 0.14920709 0.09658219 -0.01756937
v 0.14768587 0.09894186 -0.01726013
v 0.14621750 0.10122096 -0.01646806
v 0.14484653 0.10335021 -0.01521724
v 0.14361466 0.10526494 -0.01354567
v 0.14255933 0.10690695 -0.01150414
v 0.14171259 0.10822637 -0.00915468
v 0.14110017 0.10918310 -0.00656868
v 0.14074066 0.10974807 -0.00382471
v 0.14064501 0.10990410 -0.00100614
v 0.14081612 0.10964648 0.00180137
v 0.14124879 0.10898301 0.00451254
v 0.14192986 0.10793386 0.00704497
v 0.14283864 0.10653092 0.00932173
v 0.14394756 0.10481679 0.01127364
v 0.14522284 0.10284358 0.01284138
v 0.14662582 0.10067122 0.01397732
v 0.14811382 0.09836574 0.01464696
v 0.14964163 0.09599718 0.01482994
v 0.15116285 0.09363750 0.01452069
v 0.15263124 0.09135841 0.01372863
v 0.15400219 0.08922915 0.01247781
v 0.15523405 0.08731443 0.01080624
v 0.15628938 0.08567242 0.00876471
v 0.15713613 0.08435300 0.00641525
v 0.15774855 0.08339627 0.00382924
v 0.15810806 0.08283129 0.00108528
v 0.15820371 0.08267526 -0.00173329
v 0.15803260 0.08293288 -0.00454080
v 0.15759993 0.08359635 -0.00725197
v 0.15691885 0.08464549 -0.00978440
v 0.15601008 0.08604845 -0.01206116
v 0.15269597 0.08837947 -0.01673931
v 0.15407544 0.08624509 -0.01504351
v 0.15117842 0.09072926 -0.01796803
v 0.14956889 0.09322305 -0.01869236
v 0.14791627 0.09578507 -0.01889028
v 0.14627081 0.09833748 -0.01855578
v 0.14468248 0.10080273 -0.01769902
v 0.14319956 0.10310590 -0.01634603
v 0.14186707 0.10517701 -0.01453793
v 0.14072554 0.10695314 -0.01232965
v 0.13980964 0.10838033 -0.00978829
v 0.13914719 0.10941520 -0.00699107
v 0.13875833 0.11002631 -0.00402298
v 0.13865487 0.11019509 -0.00097420
v 0.13883995 0.10991643 0.00206263
v 0.13930796 0.10919877 0.00499524
v 0.14004466 0.10806393 0.00773452
v 0.14102767 0.10654639 0.01019724
v 0.14222714 0.10469227 0.01230857
v 0.14360662 0.10255788 0.01400437
v 0.14512417 0.10020810 0.01523309
v 0.14673372 0.09771430 0.01595742
v 0.14838630 0.09515228 0.01615534
v 0.15003179 0.09259987 0.01582084
v 0.15162010 0.09013462 0.01496408
v 0.15310304 0.08783145 0.01361110
v 0.15443552 0.08576034 0.01180300
v 0.15557705 0.08398420 0.00959472
v 0.15649295 0.08255702 0.00705336
v 0.15715541 0.08152215 0.00425614
v 0.15754426 0.08091104 0.00128805
v 0.15764773 0.08074225 -0.00176073
v 0.15746264 0.08102092 -0.00479756
v 0.15699464 0.08173858 -0.00773017
v 0.15625793 0.08287341 -0.01046945
v 0.15527491 0.08439095 -0.01293217
v 0.15163492 0.08701923 -0.01777386
v 0.15310743 0.08474087 -0.01596367
v 0.15001498 0.08952754 -0.01908548
v 0.14829688 0.09218956 -0.01985867
v 0.14653279 0.09492442 -0.02006994
v 0.14477631 0.09764901 -0.01971287
v 0.14308083 0.10028056 -0.01879831
v 0.14149787 0.10273910 -0.01735406
v 0.14007550 0.10494992 -0.01542398
v 0.13885696 0.10684588 -0.01306673
v 0.13787928 0.10836934 -0.01035394
v 0.13717215 0.10947402 -0.00736802
v 0.13675705 0.11012636 -0.00419970
v 0.13664661 0.11030653 -0.00094525
v 0.13684417 0.11000906 0.00229644
v 0.13734375 0.10924299 0.00542688
v 0.13813014 0.10803159 0.00835095
v 0.13917947 0.10641169 0.01097980
v 0.14045987 0.10443248 0.01323356
v 0.14193238 0.10215411 0.01504375
v 0.14355232 0.09964582 0.01635537
v 0.14527042 0.09698379 0.01712856
v 0.14703451 0.09424894 0.01733983
v 0.14879100 0.09152434 0.01698277
v 0.15048647 0.08889280 0.01606821
v 0.15206943 0.08643425 0.01462396
v 0.15349180 0.08422342 0.01269388
v 0.15471034 0.08232747 0.01033664
v 0.15568802 0.08080401 0.00762384
v 0.15639515 0.07969933 0.00463792
v 0.15681025 0.07904699 0.00146960
v 0.15692070 0.07886681 -0.00178484
v 0.15672314 0.07916429 -0.00502653
v 0.15622357 0.07993036 -0.00815698
v 0.15543716 0.08114175 -0.01108105
v 0.15438783 0.08276166 -0.01370990
v 0.15045121 0.08566603 -0.01867615
v 0.15200494 0.08326202 -0.01676614
v 0.14874195 0.08831265 -0.02006010
v 0.14692909 0.09112147 -0.02087593
v 0.14506772 0.09400714 -0.02109885
v 0.14321440 0.09688198 -0.02072209
v 0.14142543 0.09965864 -0.01975710
v 0.13975517 0.10225275 -0.01823320
v 0.13825436 0.10458550 -0.01619669
v 0.13696863 0.10658600 -0.01370946
v 0.13593702 0.10819347 -0.01084706
v 0.13519090 0.10935907 -0.00769648
v 0.13475291 0.11004739 -0.00435345
v 0.13463639 0.11023749 -0.00091953
v 0.13484484 0.10992362 0.00250092
v 0.13537195 0.10911530 0.00580398
v 0.13620172 0.10783711 0.00888930
v 0.13730894 0.10612787 0.01166312
v 0.13865992 0.10403952 0.01404117
v 0.14021364 0.10163552 0.01595118
v 0.14192291 0.09898889 0.01733513
v 0.14373575 0.09618007 0.01815095
v 0.14559713 0.09329441 0.01837388
v 0.14745046 0.09041956 0.01799712
v 0.14923944 0.08764291 0.01703213
v 0.15090969 0.08504879 0.01550823
v 0.15241049 0.08271604 0.01347172
v 0.15369622 0.08071554 0.01098449
v 0.15472783 0.07910806 0.00812209
v 0.15547396 0.07794246 0.00497151
v 0.15591194 0.07725415 0.00162848
v 0.15602848 0.07706404 -0.00180543
v 0.15582001 0.07737792 -0.00522588
v 0.15529290 0.07818623 -0.00852895
v 0.15446313 0.07946443 -0.01161427
v 0.15335594 0.08117366 -0.01438809
v 0.14915439 0.08433075 -0.01943892
v 0.15077682 0.08182046 -0.01744447
v 0.14736956 0.08709439 -0.02088405
v 0.14547656 0.09002738 -0.02173595
v 0.14353290 0.09304063 -0.02196873
v 0.14159763 0.09604257 -0.02157531
v 0.13972956 0.09894199 -0.02056766
v 0.13798547 0.10165080 -0.01897639
v 0.13641831 0.10408667 -0.01684984
v 0.13507573 0.10617562 -0.01425264
v 0.13399853 0.10785417 -0.01126369
v 0.13321941 0.10907129 -0.00797383
v 0.13276204 0.10979003 -0.00448299
v 0.13264036 0.10998855 -0.00089726
v 0.13285805 0.10966080 0.00267441
v 0.13340849 0.10881675 0.00612351
v 0.13427493 0.10748205 0.00934524
v 0.13543108 0.10569723 0.01224169
v 0.13684179 0.10351656 0.01472487
v 0.13846421 0.10100627 0.01671933
v 0.14024904 0.09824263 0.01816446
v 0.14214204 0.09530964 0.01901636
v 0.14408572 0.09229638 0.01924914
v 0.14602098 0.08929444 0.01885572
v 0.14788905 0.08639503 0.01784807
v 0.14963315 0.08368622 0.01625680
v 0.15120029 0.08125034 0.01413025
v 0.15254287 0.07916139 0.01153305
v 0.15362009 0.07748285 0.00854411
v 0.15439920 0.07626572 0.00525424
v 0.15485656 0.07554697 0.00176341
v 0.15497825 0.07534846 -0.00182232
v 0.15476055 0.07567621 -0.00539400
v 0.15421014 0.07652026 -0.00884310
v 0.15334368 0.07785496 -0.01206482
v 0.15218754 0.07963978 -0.01496127
v 0.14775495 0.08302418 -0.02005602
v 0.14943300 0.08042781 -0.01799318
v 0.14590894 0.08588257 -0.02155070
v 0.14395101 0.08891614 -0.02243181
v 0.14194070 0.09203269 -0.02267257
v 0.13993908 0.09513757 -0.02226566
v 0.13800697 0.09813641 -0.02122346
v 0.13620307 0.10093808 -0.01957762
v 0.13458218 0.10345749 -0.01737816
v 0.13319357 0.10561806 -0.01469191
v 0.13207942 0.10735416 -0.01160048
v 0.13127360 0.10861302 -0.00819781
v 0.13080055 0.10935641 -0.00458728
v 0.13067470 0.10956173 -0.00087860
v 0.13089983 0.10922274 0.00281554
v 0.13146915 0.10834975 0.00638290
v 0.13236530 0.10696927 0.00971509
v 0.13356109 0.10512327 0.01271086
v 0.13502018 0.10286783 0.01527918
v 0.13669823 0.10027146 0.01734202
v 0.13854425 0.09741307 0.01883671
v 0.14050217 0.09437950 0.01971781
v 0.14251247 0.09126294 0.01995857
v 0.14451410 0.08815806 0.01955167
v 0.14644621 0.08515923 0.01850947
v 0.14825012 0.08235754 0.01686363
v 0.14987101 0.07983814 0.01466417
v 0.15125962 0.07767756 0.01197792
v 0.15237378 0.07594147 0.00888649
v 0.15317960 0.07468261 0.00548382
v 0.15365264 0.07393923 0.00187330
v 0.15377849 0.07373390 -0.00183538
v 0.15355335 0.07407289 -0.00552952
v 0.15298405 0.07494587 -0.00909689
v 0.15208790 0.07632635 -0.01242907
v 0.15089209 0.07817236 -0.01542484
v 0.14626409 0.08175678 -0.02052248
v 0.14798427 0.07909525 -0.01840786
v 0.14437173 0.08468692 -0.02205468
v 0.14236468 0.08779663 -0.02295790
v 0.14030391 0.09099142 -0.02320470
v 0.13825205 0.09417421 -0.02278759
v 0.13627145 0.09724832 -0.02171922
v 0.13442226 0.10012033 -0.02003208
v 0.13276069 0.10270297 -0.01777741
v 0.13133721 0.10491777 -0.01502373
v 0.13019511 0.10669744 -0.01185471
v 0.12936905 0.10798790 -0.00836663
v 0.12888414 0.10874995 -0.00466548
v 0.12875514 0.10896042 -0.00086372
v 0.12898593 0.10861292 0.00292314
v 0.12956952 0.10771802 0.00658005
v 0.13048816 0.10630290 0.00999587
v 0.13171397 0.10441056 0.01306684
v 0.13320968 0.10209850 0.01569962
v 0.13492985 0.09943696 0.01781425
v 0.13682221 0.09650683 0.01934644
v 0.13882928 0.09339713 0.02024966
v 0.14089003 0.09020233 0.02049647
v 0.14294189 0.08701953 0.02007935
v 0.14492251 0.08394542 0.01901099
v 0.14677170 0.08107342 0.01732385
v 0.14843325 0.07849077 0.01506918
v 0.14985673 0.07627597 0.01231550
v 0.15099885 0.07449631 0.00914648
v 0.15182489 0.07320584 0.00565840
v 0.15230981 0.07244380 0.00195725
v 0.15243882 0.07223332 -0.00184451
v 0.15220803 0.07258082 -0.00563137
v 0.15162444 0.07347572 -0.00928828
v 0.15070578 0.07489084 -0.01270410
v 0.14947997 0.07678317 -0.01577507
v 0.14469390 0.08053880 -0.02083455
v 0.14644232 0.07783353 -0.01868518
v 0.14277042 0.08351709 -0.02239193
v 0.14073038 0.08667790 -0.02331000
v 0.13863575 0.08992519 -0.02356085
v 0.13655017 0.09316030 -0.02313688
v 0.13453701 0.09628493 -0.02205096
v 0.13265744 0.09920413 -0.02033609
v 0.13096857 0.10182922 -0.01804437
v 0.12952170 0.10408042 -0.01524544
v 0.12836082 0.10588934 -0.01202434
v 0.12752117 0.10720100 -0.00847894
v 0.12702832 0.10797557 -0.00471696
v 0.12689719 0.10818949 -0.00085272
v 0.12713178 0.10783629 0.00299638
v 0.12772495 0.10692669 0.00671338
v 0.12865870 0.10548831 0.01018534
v 0.12990464 0.10356487 0.01330677
v 0.13142493 0.10121481 0.01598283
v 0.13317338 0.09850954 0.01813220
v 0.13509683 0.09553126 0.01968957
v 0.13713688 0.09237044 0.02060764
v 0.13923150 0.08912314 0.02085850
v 0.14131708 0.08588804 0.02043453
v 0.14333025 0.08276340 0.01934861
v 0.14520982 0.07984421 0.01763374
v 0.14689870 0.07721913 0.01534202
v 0.14834556 0.07496792 0.01254309
v 0.14950643 0.07315900 0.00932199
v 0.15034609 0.07184733 0.00577659
v 0.15083896 0.07107277 0.00201461
v 0.15097009 0.07085884 -0.00184963
v 0.15073550 0.07121204 -0.00569873
v 0.15014231 0.07212164 -0.00941572
v 0.14920858 0.07356002 -0.01288769
v 0.14796263 0.07548346 -0.01600911
v 0.14305693 0.07938004 -0.02098972
v 0.14481956 0.07665281 -0.01882291
v 0.14111786 0.08238251 -0.02255974
v 0.13906126 0.08556897 -0.02348526
v 0.13694963 0.08884263 -0.02373815
v 0.13484712 0.09210400 -0.02331073
v 0.13281761 0.09525398 -0.02221600
v 0.13092278 0.09819687 -0.02048721
v 0.12922020 0.10084327 -0.01817689
v 0.12776159 0.10311274 -0.01535524
v 0.12659130 0.10493633 -0.01210799
v 0.12574485 0.10625866 -0.00853381
v 0.12524797 0.10703951 -0.00474130
v 0.12511578 0.10725518 -0.00084569
v 0.12535225 0.10689911 0.00303464
v 0.12595025 0.10598211 0.00678181
v 0.12689158 0.10453206 0.01028196
v 0.12814765 0.10259301 0.01342872
v 0.12968028 0.10022388 0.01612650
v 0.13144290 0.09749665 0.01829332
v 0.13338198 0.09449419 0.01986334
v 0.13543858 0.09130771 0.02078885
v 0.13755020 0.08803407 0.02104175
v 0.13965271 0.08477269 0.02061433
v 0.14168222 0.08162270 0.01951960
v 0.14357705 0.07867981 0.01779081
v 0.14527963 0.07603341 0.01548049
v 0.14673825 0.07376394 0.01265884
v 0.14790854 0.07194035 0.00941160
v 0.14875500 0.07061803 0.00583742
v 0.14925188 0.06983718 0.00204491
v 0.14938408 0.06962150 -0.00185070
v 0.14914759 0.06997757 -0.00573104
v 0.14854959 0.07089457 -0.00947821
v 0.14760827 0.07234462 -0.01297835
v 0.14635220 0.07428367 -0.01612512
v 0.15668133 0.09538926 -0.00722888
v 0.15609117 0.09630238 -0.00795437
v 0.15544192 0.09730766 -0.00848003
v 0.15475336 0.09837454 -0.00878991
v 0.15404634 0.09947061 -0.00887458
v 0.15334238 0.10056257 -0.00873148
v 0.15266287 0.10161724 -0.00836495
v 0.15202846 0.10260256 -0.00778612
v 0.15145840 0.10348862 -0.00701259
v 0.15097003 0.10424847 -0.00606785
v 0.15057820 0.10485905 -0.00498062
v 0.15029480 0.10530178 -0.00378393
v 0.15012844 0.10556322 -0.00251413
v 0.15008417 0.10563543 -0.00120982
v 0.15016335 0.10551621 0.00008938
v 0.15036358 0.10520919 0.00134400
v 0.15067874 0.10472369 0.00251590
v 0.15109929 0.10407446 0.00356949
v 0.15161245 0.10328124 0.00447275
v 0.15220261 0.10236812 0.00519823
v 0.15285183 0.10136285 0.00572390
v 0.15354042 0.10029596 0.00603378
v 0.15424743 0.09919989 0.00611845
v 0.15495138 0.09810793 0.00597535
v 0.15563089 0.09705326 0.00560881
v 0.15626530 0.09606794 0.00502999
v 0.15683536 0.09518187 0.00425645
v 0.15732373 0.09442203 0.00331172
v 0.15771557 0.09381145 0.00222449
v 0.15799896 0.09336872 0.00102780
v 0.15816534 0.09310728 -0.00024200
v 0.15820961 0.09303506 -0.00154631
v 0.15813041 0.09315428 -0.00284551
v 0.15793020 0.09346130 -0.00410012
v 0.15761502 0.09394681 -0.00527203
v 0.15719448 0.09459604 -0.00632562
v 0.15609117 0.09630238 -0.00795437
v 0.15668133 0.09538926 -0.00722888
v 0.15544192 0.09730766 -0.00848003
v 0.15719448 0.09459604 -0.00632562
v 0.15475336 0.09837454 -0.00878991
v 0.15761502 0.09394681 -0.00527203
v 0.15404634 0.09947061 -0.00887458
v 0.15793020 0.09346130 -0.00410012
v 0.15334238 0.10056257 -0.00873148
v 0.15813041 0.09315428 -0.00284551
v 0.15266287 0.10161724 -0.00836495
v 0.15820961 0.09303506 -0.00154631
v 0.15202846 0.10260256 -0.00778612
v 0.15816534 0.09310728 -0.00024200
v 0.15145840 0.10348862 -0.00701259
v 0.15799896 0.09336872 0.00102780
v 0.15097003 0.10424847 -0.00606785
v 0.15771557 0.09381145 0.00222449
v 0.15057820 0.10485905 -0.00498062
v 0.15732373 0.09442203 0.00331172
v 0.15029480 0.10530178 -0.00378393
v 0.15683536 0.09518187 0.00425645
v 0.15012844 0.10556322 -0.00251413
v 0.15626530 0.09606794 0.00502999
v 0.15008417 0.10563543 -0.00120982
v 0.15563089 0.09705326 0.00560881
v 0.15016335 0.10551621 0.00008938
v 0.15495138 0.09810793 0.00597535
v 0.15036358 0.10520919 0.00134400
v 0.15424743 0.09919989 0.00611845
v 0.15067874 0.10472369 0.00251590
v 0.15354042 0.10029596 0.00603378
v 0.15109929 0.10407446 0.00356949
v 0.15285183 0.10136285 0.00572390
v 0.15161245 0.10328124 0.00447275
v 0.15220261 0.10236812 0.00519823
v 0.14186683 0.07861254 -0.02098762
v 0.14362946 0.07588531 -0.01882080
v 0.13992776 0.08161501 -0.02255764
v 0.13787116 0.08480147 -0.02348315
v 0.13575953 0.08807513 -0.02373604
v 0.13365702 0.09133650 -0.02330863
v 0.13162751 0.09448648 -0.02221389
v 0.12973268 0.09742938 -0.02048510
v 0.12803011 0.10007577 -0.01817479
v 0.12657149 0.10234524 -0.01535314
v 0.12540120 0.10416883 -0.01210589
v 0.12455475 0.10549115 -0.00853171
v 0.12405787 0.10627201 -0.00473920
v 0.12392568 0.10648768 -0.00084359
v 0.12416216 0.10613161 0.00303675
v 0.12476016 0.10521461 0.00678391
v 0.12570149 0.10376456 0.01028406
v 0.12695755 0.10182551 0.01343082
v 0.12849018 0.09945638 0.01612860
v 0.13025281 0.09672915 0.01829541
v 0.13219188 0.09372669 0.01986544
v 0.13424848 0.09054022 0.02079096
v 0.13636011 0.08726657 0.02104385
v 0.13846262 0.08400519 0.02061644
v 0.14049213 0.08085521 0.01952170
v 0.14238696 0.07791232 0.01779291
v 0.14408953 0.07526592 0.01548260
v 0.14554815 0.07299645 0.01266095
v 0.14671844 0.07117285 0.00941370
v 0.14756490 0.06985053 0.00583952
v 0.14806178 0.06906968 0.00204701
v 0.14819399 0.06885400 -0.00184860
v 0.14795749 0.06921007 -0.00572893
v 0.14735949 0.07012707 -0.00947610
v 0.14641817 0.07157712 -0.01297625
v 0.14516211 0.07351617 -0.01612301
v 0.14362946 0.07588531 -0.01882080
v 0.14186683 0.07861254 -0.02098762
v 0.14516211 0.07351617 -0.01612301
v 0.13992776 0.08161501 -0.02255764
v 0.14641817 0.07157712 -0.01297625
v 0.13787116 0.08480147 -0.02348315
v 0.14735949 0.07012707 -0.00947610
v 0.13575953 0.08807513 -0.02373604
v 0.14795749 0.06921007 -0.00572893
v 0.13365702 0.09133650 -0.02330863
v 0.14819399 0.06885400 -0.00184860
v 0.13162751 0.09448648 -0.02221389
v 0.14806178 0.06906968 0.00204701
v 0.12973268 0.09742938 -0.02048510
v 0.14756490 0.06985053 0.00583952
v 0.12803011 0.10007577 -0.01817479
v 0.14671844 0.07117285 0.00941370
v 0.12657149 0.10234524 -0.01535314
v 0.14554815 0.07299645 0.01266095
v 0.12540120 0.10416883 -0.01210589
v 0.14408953 0.07526592 0.01548260
v 0.12455475 0.10549115 -0.00853171
v 0.14238696 0.07791232 0.01779291
v 0.12405787 0.10627201 -0.00473920
v 0.14049213 0.08085521 0.01952170
v 0.12392568 0.10648768 -0.00084359
v 0.13846262 0.08400519 0.02061644
v 0.12416216 0.10613161 0.00303675
v 0.13636011 0.08726657 0.02104385
v 0.12476016 0.10521461 0.00678391
v 0.13424848 0.09054022 0.02079096
v 0.12570149 0.10376456 0.01028406
v 0.13219188 0.09372669 0.01986544
v 0.12695755 0.10182551 0.01343082
v 0.13025281 0.09672915 0.01829541
v 0.12849018 0.09945638 0.01612860
vn 0.90578586 0.30071929 -0.29852948
vn 0.87581247 0.34709582 -0.33537608
vn 0.86911565 0.31029555 -0.38516843
vn 0.90356094 0.25700006 -0.34282455
vn 0.84283859 0.39815265 -0.36207426
vn 0.83122241 0.36896941 -0.41584957
vn 0.80786628 0.45233816 -0.37781256
vn 0.79103267 0.43123904 -0.43393594
vn 0.77195811 0.50800633 -0.38211292
vn 0.74976724 0.49521244 -0.43887794
vn 0.73620498 0.56346565 -0.37484485
vn 0.70868027 0.55894572 -0.43052539
vn 0.70169342 0.61703104 -0.35622904
vn 0.66901976 0.62050259 -0.40913212
vn 0.66947204 0.66707480 -0.32683101
vn 0.63199115 0.67801243 -0.37534839
vn 0.64051980 0.71207643 -0.28754413
vn 0.59871936 0.72972792 -0.33020040
vn 0.61571634 0.75066876 -0.23956206
vn 0.57021546 0.77407777 -0.27505997
vn 0.59581530 0.78167892 -0.18434288
vn 0.54734558 0.80971432 -0.21160242
vn 0.58142149 0.80416483 -0.12356437
vn 0.53080440 0.83555490 -0.14175613
vn 0.57297218 0.81744319 -0.05907292
vn 0.52109456 0.85081428 -0.06764324
vn 0.57072413 0.82111061 0.00717180
vn 0.51851106 0.85502887 0.00848451
vn 0.57474566 0.81505567 0.07315660
vn 0.52313250 0.84807050 0.08431365
vn 0.58491451 0.79946226 0.13687684
vn 0.53481853 0.83015084 0.15754032
vn 0.60092175 0.77480417 0.19639650
vn 0.55321383 0.80181402 0.22593984
vn 0.62228107 0.74183071 0.24990717
vn 0.57775974 0.76392108 0.28743380
vn 0.64834321 0.70154381 0.29578269
vn 0.60771018 0.71762389 0.34015343
vn 0.67831659 0.65516746 0.33262917
vn 0.64215535 0.66432858 0.38249713
vn 0.71129060 0.60411066 0.35932732
vn 0.68004864 0.60565460 0.41317841
vn 0.74626285 0.54992503 0.37506559
vn 0.72023851 0.54338503 0.43126470
vn 0.78217113 0.49425691 0.37936607
vn 0.76150393 0.47941160 0.43620670
vn 0.81792414 0.43879744 0.37209797
vn 0.80259097 0.41567820 0.42785430
vn 0.85243571 0.38523221 0.35348207
vn 0.84225130 0.35412145 0.40646112
vn 0.88465714 0.33518842 0.32408410
vn 0.87927991 0.29661164 0.37267727
vn 0.91360950 0.29018658 0.28479728
vn 0.91255170 0.24489611 0.32752907
vn 0.93841290 0.25159433 0.23681551
vn 0.94105560 0.20054629 0.27238873
vn 0.95831394 0.22058420 0.18159628
vn 0.96392566 0.16490956 0.20893137
vn 0.97270769 0.19809823 0.12081745
vn 0.98046690 0.13906895 0.13908510
vn 0.98115700 0.18481986 0.05632614
vn 0.99017668 0.12380959 0.06497223
vn 0.98340505 0.18115249 -0.00991833
vn 0.99276018 0.11959499 -0.01115532
vn 0.97938353 0.18720742 -0.07590323
vn 0.98813868 0.12655331 -0.08698454
vn 0.96921468 0.20280080 -0.13962366
vn 0.97645271 0.14447315 -0.16021138
vn 0.95320743 0.22745878 -0.19914344
vn 0.95805728 0.17280994 -0.22861083
vn 0.93184823 0.26043224 -0.25265405
vn 0.93351150 0.21070264 -0.29010478
vn 0.85371846 0.25569466 -0.45363554
vn 0.89431357 0.19288382 -0.40373164
vn 0.80905974 0.32484424 -0.48979449
vn 0.76169431 0.39823160 -0.51111001
vn 0.71306133 0.47362685 -0.51693439
vn 0.66463852 0.54873925 -0.50709063
vn 0.61789703 0.62128657 -0.48187786
vn 0.57425737 0.68906438 -0.44206202
vn 0.53504521 0.75001323 -0.38885328
vn 0.50145221 0.80228126 -0.32386813
vn 0.47449911 0.84428048 -0.24908087
vn 0.45500457 0.87473470 -0.16676399
vn 0.44356108 0.89271843 -0.07941885
vn 0.44051650 0.89768541 0.01030082
vn 0.44596308 0.88948482 0.09966860
vn 0.45973539 0.86836565 0.18596940
vn 0.48141497 0.83496964 0.26658106
vn 0.51034343 0.79031134 0.33905405
vn 0.54564142 0.73574799 0.40118626
vn 0.58623648 0.67293727 0.45109022
vn 0.63089508 0.60378766 0.48724934
vn 0.67826045 0.53040034 0.50856489
vn 0.72689342 0.45500505 0.51438940
vn 0.77531636 0.37989259 0.50454557
vn 0.82205772 0.30734542 0.47933275
vn 0.86569744 0.23956767 0.43951708
vn 0.90490961 0.17861871 0.38630831
vn 0.93850261 0.12635055 0.32132292
vn 0.96545589 0.08435130 0.24653563
vn 0.98495036 0.05389709 0.16421902
vn 0.99639380 0.03591323 0.07687397
vn 0.99943858 0.03094620 -0.01284549
vn 0.99399197 0.03914693 -0.10221334
vn 0.98021960 0.06026611 -0.18851428
vn 0.95853984 0.09366224 -0.26912588
vn 0.92961144 0.13832046 -0.34159911
vn 0.83150846 0.19892953 -0.51867211
vn 0.87794650 0.12707807 -0.46158561
vn 0.78042185 0.27803215 -0.56003559
vn 0.72623891 0.36198246 -0.58441913
vn 0.67060608 0.44822958 -0.59108198
vn 0.61521351 0.53415310 -0.57982147
vn 0.56174445 0.61714220 -0.55097973
vn 0.51182359 0.69467551 -0.50543308
vn 0.46696773 0.76439691 -0.44456562
vn 0.42853957 0.82418811 -0.37022695
vn 0.39770681 0.87223238 -0.28467530
vn 0.37540621 0.90707004 -0.19051041
vn 0.36231565 0.92764235 -0.09059343
vn 0.35883287 0.93332416 0.01203972
vn 0.36506343 0.92394316 0.11427070
vn 0.38081828 0.89978421 0.21299307
vn 0.40561846 0.86158133 0.30520722
vn 0.43871036 0.81049538 0.38811135
vn 0.47908893 0.74807853 0.45918664
vn 0.52552694 0.67622709 0.51627350
vn 0.57661349 0.59712470 0.55763704
vn 0.63079637 0.51317459 0.58202052
vn 0.68642914 0.42692739 0.58868331
vn 0.74182171 0.34100381 0.57742280
vn 0.79529065 0.25801465 0.54858100
vn 0.84521163 0.18048130 0.50303459
vn 0.89006764 0.11075975 0.44216737
vn 0.92849588 0.05096848 0.36782849
vn 0.95932865 0.00292417 0.28227675
vn 0.98162901 -0.03191337 0.18811209
vn 0.99471956 -0.05248556 0.08819521
vn 0.99820250 -0.05816758 -0.01443789
vn 0.99197197 -0.04878661 -0.11666889
vn 0.97621721 -0.02462780 -0.21539140
vn 0.95141709 0.01357492 -0.30760571
vn 0.91832495 0.06466110 -0.39051032
vn 0.80264628 0.14050010 -0.57967114
vn 0.85456586 0.06016739 -0.51584601
vn 0.74552947 0.22893994 -0.62591726
vn 0.68495083 0.32279968 -0.65317899
vn 0.62275100 0.41922739 -0.66062820
vn 0.56082010 0.51529300 -0.64803851
vn 0.50103974 0.60807818 -0.61579227
vn 0.44522613 0.69476348 -0.56486946
vn 0.39507532 0.77271467 -0.49681741
vn 0.35211095 0.83956367 -0.41370374
vn 0.31763887 0.89327902 -0.31805378
vn 0.29270631 0.93222880 -0.21277355
vn 0.27807039 0.95522952 -0.10106245
vn 0.27417636 0.96158212 0.01368520
vn 0.28114247 0.95109373 0.12798351
vn 0.29875696 0.92408299 0.23835897
vn 0.32648453 0.88137072 0.34145808
vn 0.36348268 0.82425469 0.43414822
vn 0.40862733 0.75447011 0.51361322
vn 0.46054697 0.67413747 0.57743847
vn 0.51766366 0.58569795 0.62368441
vn 0.57824230 0.49183837 0.65094614
vn 0.64044213 0.39541060 0.65839535
vn 0.70237303 0.29934469 0.64580560
vn 0.76215339 0.20655936 0.61355966
vn 0.81796694 0.11987418 0.56263685
vn 0.86811769 0.04192284 0.49458474
vn 0.91108191 -0.02492610 0.41147110
vn 0.94555414 -0.07864153 0.31582102
vn 0.97048688 -0.11759105 0.21054114
vn 0.98512268 -0.14059165 0.09883019
vn 0.98901665 -0.14694437 -0.01591775
vn 0.98205078 -0.13645612 -0.13021599
vn 0.96443629 -0.10944553 -0.24059163
vn 0.93670887 -0.06673338 -0.34369066
vn 0.89971054 -0.00961708 -0.43638113
vn 0.76735353 0.08089618 -0.63610095
vn 0.82434535 -0.00728456 -0.56604040
vn 0.70465654 0.17797601 -0.68686521
vn 0.63815969 0.28100520 -0.71679032
vn 0.56988347 0.38685367 -0.72496706
vn 0.50190240 0.49230438 -0.71114731
vn 0.43628174 0.59415412 -0.67575085
vn 0.37501535 0.68930817 -0.61985308
vn 0.31996503 0.77487487 -0.54515272
vn 0.27280328 0.84825456 -0.45391929
vn 0.23496354 0.90721750 -0.34892511
vn 0.20759526 0.94997251 -0.23335956
vn 0.19152987 0.97522014 -0.11073452
vn 0.18725522 0.98219341 0.01522318
vn 0.19490173 0.97068036 0.14068763
vn 0.21423702 0.94103092 0.26184627
vn 0.24467333 0.89414585 0.37501770
vn 0.28528592 0.83144987 0.47676331
vn 0.33484083 0.75484776 0.56399161
vn 0.39183271 0.66666722 0.63405210
vn 0.45452958 0.56958735 0.68481612
vn 0.52102631 0.46655828 0.71474129
vn 0.58930266 0.36071005 0.72291815
vn 0.65728414 0.25525886 0.70909834
vn 0.72290474 0.15340899 0.67370200
vn 0.78417093 0.05825538 0.61780447
vn 0.83922124 -0.02731138 0.54310387
vn 0.88638282 -0.10069118 0.45187050
vn 0.92422271 -0.15965419 0.34687608
vn 0.95159125 -0.20240904 0.23131092
vn 0.96765685 -0.22765674 0.10868634
vn 0.97193134 -0.23463009 -0.01727191
vn 0.96428478 -0.22311720 -0.14273645
vn 0.94494963 -0.19346772 -0.26389506
vn 0.91451329 -0.14658256 -0.37706622
vn 0.87390047 -0.08388640 -0.47881222
vn 0.72590423 0.02060436 -0.68748707
vn 0.78751653 -0.07472552 -0.61174655
vn 0.65812439 0.12555455 -0.74236679
vn 0.58623666 0.23693627 -0.77471799
vn 0.51242495 0.35136575 -0.78355777
vn 0.43893248 0.46536553 -0.76861775
vn 0.36799192 0.57547241 -0.73035157
vn 0.30175892 0.67834079 -0.66992199
vn 0.24224582 0.77084446 -0.58916539
vn 0.19126084 0.85017312 -0.49053553
vn 0.15035328 0.91391617 -0.37702951
vn 0.12076594 0.96013731 -0.25209510
vn 0.10339795 0.98743188 -0.11952879
vn 0.09877697 0.99497050 0.01664072
vn 0.10704330 0.98252410 0.15227650
vn 0.12794589 0.95047092 0.28325778
vn 0.16084974 0.89978486 0.40560400
vn 0.20475507 0.83200598 0.51559830
vn 0.25832745 0.74919367 0.60989827
vn 0.31993946 0.65386438 0.68563855
vn 0.38771933 0.54891402 0.74051821
vn 0.45960683 0.43753204 0.77286959
vn 0.53341818 0.32310271 0.78170949
vn 0.60691112 0.20910245 0.76676935
vn 0.67785186 0.09899549 0.72850317
vn 0.74408489 -0.00387216 0.66807383
vn 0.80359828 -0.09637600 0.58731723
vn 0.85458326 -0.17570472 0.48868731
vn 0.89549088 -0.23944795 0.37518111
vn 0.92507827 -0.28566909 0.25024679
vn 0.94244635 -0.31296366 0.11768083
vn 0.94706720 -0.32050249 -0.01848906
vn 0.93880075 -0.30805627 -0.15412515
vn 0.91789818 -0.27600288 -0.28510582
vn 0.88499439 -0.22531661 -0.40745237
vn 0.84108889 -0.15753759 -0.51744699
vn 0.67862570 -0.03988415 -0.73340058
vn 0.74436826 -0.14160392 -0.65258271
vn 0.60630274 0.07210085 -0.79195869
vn 0.52959645 0.19094887 -0.82647824
vn 0.45083714 0.31304863 -0.83591056
vn 0.37241843 0.43468985 -0.81996906
vn 0.29672256 0.55217725 -0.77913797
vn 0.22604975 0.66194075 -0.71465796
vn 0.16254757 0.76064515 -0.62848812
vn 0.10814531 0.84529126 -0.52324688
vn 0.06449550 0.91330719 -0.40213227
vn 0.03292441 0.96262652 -0.26882365
vn 0.01439229 0.99175066 -0.12737156
vn 0.00946161 0.99979460 0.01792574
vn 0.01828213 0.98651397 0.16265345
vn 0.04058584 0.95231211 0.30241433
vn 0.07569509 0.89822853 0.43296164
vn 0.12254333 0.82590646 0.55032879
vn 0.17970733 0.73754323 0.65094960
vn 0.24544930 0.63582379 0.73176688
vn 0.31777239 0.52383858 0.79032516
vn 0.39447886 0.40499064 0.82484496
vn 0.47323772 0.28289112 0.83427745
vn 0.55165666 0.16124938 0.81833595
vn 0.62735265 0.04376188 0.77750474
vn 0.69802535 -0.06600142 0.71302485
vn 0.76152778 -0.16470584 0.62685525
vn 0.81593055 -0.24935178 0.52161402
vn 0.85958022 -0.31736779 0.40049922
vn 0.89115071 -0.36668736 0.26719052
vn 0.90968299 -0.39581165 0.12573861
vn 0.91461372 -0.40385556 -0.01955885
vn 0.90579319 -0.39057478 -0.16428652
vn 0.88348949 -0.35637304 -0.30404699
vn 0.84837997 -0.30228934 -0.43459478
vn 0.80153167 -0.22996700 -0.55196220
vn 0.62589675 -0.10007531 -0.77345866
vn 0.69524407 -0.20737323 -0.68820930
vn 0.54960793 0.01805054 -0.83522773
vn 0.46869510 0.14341575 -0.87164032
vn 0.38561720 0.27221090 -0.88158989
vn 0.30289847 0.40052271 -0.86477411
vn 0.22305164 0.52445269 -0.82170391
vn 0.14850321 0.64023507 -0.75368822
vn 0.08151850 0.74435192 -0.66279340
vn 0.02413278 0.83363974 -0.55178106
vn -0.02191058 0.90538555 -0.42402467
vn -0.05521241 0.95740944 -0.28340587
vn -0.07476109 0.98813057 -0.13419726
vn -0.07996230 0.99661559 0.01906776
vn -0.07065805 0.98260653 0.17173181
vn -0.04713108 0.94652933 0.31915668
vn -0.01009625 0.88947988 0.45686275
vn 0.03932096 0.81319207 0.58066559
vn 0.09961928 0.71998328 0.68680429
vn 0.16896643 0.61268586 0.77205348
vn 0.24525553 0.49455994 0.83382261
vn 0.32616848 0.36919495 0.87023520
vn 0.40924641 0.24039984 0.88018483
vn 0.49196529 0.11208770 0.86336935
vn 0.57181197 -0.01184234 0.82029927
vn 0.64636034 -0.12762472 0.75228345
vn 0.71334493 -0.23174161 0.66138864
vn 0.77073073 -0.32102945 0.55037659
vn 0.81677419 -0.39277527 0.42262006
vn 0.85007590 -0.44479921 0.28200120
vn 0.86962438 -0.47552037 0.13279265
vn 0.87482554 -0.48400530 -0.02047237
vn 0.86552137 -0.46999642 -0.17313635
vn 0.84199452 -0.43391937 -0.32056090
vn 0.80495960 -0.37687001 -0.45826745
vn 0.75554234 -0.30058187 -0.58207071
vn 0.56814367 -0.15947700 -0.80732882
vn 0.64054126 -0.27149427 -0.71832985
vn 0.48849910 -0.03615520 -0.87181509
vn 0.40402716 0.09472427 -0.90982938
vn 0.31729504 0.22918427 -0.92021650
vn 0.23093759 0.36314005 -0.90266114
vn 0.14757875 0.49252126 -0.85769659
vn 0.06975147 0.61339653 -0.78668892
vn -0.00017953 0.72209299 -0.69179606
vn -0.06008953 0.81530821 -0.57590097
vn -0.10815798 0.89020985 -0.44252500
vn -0.14292465 0.94452202 -0.29572082
vn -0.16333327 0.97659445 -0.13994905
vn -0.16876328 0.98545259 0.02005723
vn -0.15904973 0.97082746 0.17943621
vn -0.13448770 0.93316340 0.33334550
vn -0.09582378 0.87360466 0.47710872
vn -0.04423294 0.79396123 0.60635722
vn 0.01871742 0.69665247 0.71716458
vn 0.09111479 0.58463550 0.80616337
vn 0.17075935 0.46131372 0.87064964
vn 0.25523105 0.33043423 0.90866405
vn 0.34196338 0.19597384 0.91905129
vn 0.42832091 0.06201795 0.90149605
vn 0.51167965 -0.06736305 0.85653150
vn 0.58950710 -0.18823820 0.78552395
vn 0.65943813 -0.29693478 0.69063091
vn 0.71934795 -0.39015004 0.57473594
vn 0.76741660 -0.46505183 0.44136012
vn 0.80218321 -0.51936394 0.29455593
vn 0.82259154 -0.55143631 0.13878444
vn 0.82802153 -0.56029463 -0.02122208
vn 0.81830812 -0.54566950 -0.18060116
vn 0.79374641 -0.50800544 -0.33451045
vn 0.75508261 -0.44844666 -0.47827399
vn 0.70349169 -0.36880296 -0.60752279
vn 0.50582540 -0.21761325 -0.83473653
vn 0.58069378 -0.33345309 -0.74270040
vn 0.42346281 -0.09008264 -0.90142351
vn 0.33610845 0.04526368 -0.94073498
vn 0.24641639 0.18431269 -0.95147669
vn 0.15711151 0.32283992 -0.93332231
vn 0.07090757 0.45663628 -0.88682324
vn -0.00957584 0.58163667 -0.81339246
vn -0.08189344 0.69404268 -0.71526098
vn -0.14384787 0.79043907 -0.59541065
vn -0.19355652 0.86789697 -0.45748299
vn -0.22950940 0.92406297 -0.30566853
vn -0.25061417 0.95722991 -0.14458059
vn -0.25622961 0.96639025 0.02088615
vn -0.24618456 0.95126605 0.18570419
vn -0.22078426 0.91231674 0.34486604
vn -0.18080105 0.85072535 0.49353570
vn -0.12745000 0.76836354 0.62719542
vn -0.06235136 0.66773409 0.74178398
vn 0.01251702 0.55189443 0.83382016
vn 0.09487966 0.42436379 0.90050727
vn 0.18223402 0.28901774 0.93981886
vn 0.27192640 0.14996877 0.95056057
vn 0.36123133 0.01144141 0.93240601
vn 0.44743496 -0.12235507 0.88590705
vn 0.52791822 -0.24735549 0.81247628
vn 0.60023582 -0.35976174 0.71434480
vn 0.66219032 -0.45615816 0.59449464
vn 0.71189928 -0.53361601 0.45656696
vn 0.74785244 -0.58978176 0.30475283
vn 0.76895726 -0.62294883 0.14366511
vn 0.77457249 -0.63210940 -0.02180192
vn 0.76452750 -0.61698508 -0.18662018
vn 0.73912758 -0.57803571 -0.34578207
vn 0.69914442 -0.51644427 -0.49445167
vn 0.64579278 -0.43408245 -0.62811154
vn 0.43944499 -0.27401191 -0.85545647
vn 0.51618409 -0.39274636 -0.76112032
vn 0.35502431 -0.14329450 -0.92380977
vn 0.26548707 -0.00456604 -0.96410370
vn 0.17355357 0.13795786 -0.97511375
vn 0.08201694 0.27994701 -0.95650560
vn -0.00634080 0.41708684 -0.90884459
vn -0.08883533 0.54521090 -0.83357871
vn -0.16296029 0.66042584 -0.73299509
vn -0.22646299 0.75923097 -0.61014998
vn -0.27741393 0.83862442 -0.46877560
vn -0.31426549 0.89619386 -0.31316739
vn -0.33589762 0.93018973 -0.14805388
vn -0.34165317 0.93957913 0.02154782
vn -0.33135736 0.92407686 0.19048449
vn -0.30532277 0.88415408 0.35362369
vn -0.26434028 0.82102346 0.50600868
vn -0.20965540 0.73660374 0.64300829
vn -0.14292999 0.63345975 0.76046026
vn -0.06619097 0.51472515 0.85479647
vn 0.01822995 0.38400745 0.92315000
vn 0.10776731 0.24527948 0.96344393
vn 0.19970097 0.10275589 0.97445416
vn 0.29123747 -0.03923351 0.95584601
vn 0.37959522 -0.17637344 0.90818501
vn 0.46208978 -0.30449754 0.83291924
vn 0.53621453 -0.41971272 0.73233545
vn 0.59971720 -0.51851797 0.60949028
vn 0.65066850 -0.59791136 0.46811596
vn 0.68752015 -0.65548062 0.31250808
vn 0.70915228 -0.68947655 0.14739488
vn 0.71490788 -0.69886589 -0.02220693
vn 0.70461202 -0.68336374 -0.19114411
vn 0.67857724 -0.64344102 -0.35428321
vn 0.63759500 -0.58031052 -0.50666785
vn 0.58291006 -0.49589044 -0.64366806
vn 0.36953729 -0.32821715 -0.86931920
vn 0.44753233 -0.44889474 -0.77343935
vn 0.28373474 -0.19536105 -0.93879104
vn 0.19273175 -0.05436268 -0.97974443
vn 0.09929344 0.09049338 -0.99093485
vn 0.00625917 0.23480619 -0.97202212
vn -0.08354405 0.37419027 -0.92358112
vn -0.16738841 0.50441134 -0.84708351
vn -0.24272631 0.62151176 -0.74485373
vn -0.30726832 0.72193366 -0.61999840
vn -0.35905346 0.80262613 -0.47631064
vn -0.39650822 0.86113763 -0.31815603
vn -0.41849440 0.89568985 -0.15034050
vn -0.42434376 0.90523303 0.02203670
vn -0.41387922 0.88947713 0.19373795
vn -0.38741881 0.84890091 0.35954687
vn -0.34576562 0.78473741 0.51442534
vn -0.29018563 0.69893628 0.65366691
vn -0.22236811 0.59410429 0.77304107
vn -0.14437343 0.47342664 0.86892092
vn -0.05857100 0.34056991 0.93839312
vn 0.03243147 0.19957176 0.97934645
vn 0.12586921 0.05471546 0.99053687
vn 0.21890360 -0.08959744 0.97162426
vn 0.30870733 -0.22898164 0.92318320
vn 0.39255196 -0.35920230 0.84668583
vn 0.46788993 -0.47630283 0.74445593
vn 0.53243184 -0.57672489 0.61960047
vn 0.58421683 -0.65741760 0.47591278
vn 0.62167150 -0.71592897 0.31775823
vn 0.64365751 -0.75048131 0.14994311
vn 0.64950722 -0.76002443 -0.02243403
vn 0.63904285 -0.74426854 -0.19413579
vn 0.61258221 -0.70369244 -0.35994461
vn 0.57092923 -0.63952893 -0.51482290
vn 0.51534957 -0.55372721 -0.65406507
vn 0.30311343 -0.37541640 -0.87589079
vn 0.38170886 -0.49702379 -0.77927250
vn 0.21665026 -0.24153724 -0.94589764
vn 0.12494619 -0.09945329 -0.98716640
vn 0.03078836 0.04651809 -0.99844289
vn -0.06296211 0.19194192 -0.97938460
vn -0.15345722 0.33239919 -0.93057060
vn -0.23794763 0.46362290 -0.85348397
vn -0.31386545 0.58162528 -0.75046700
vn -0.37890434 0.68282050 -0.62465006
vn -0.43108839 0.76413429 -0.47985592
vn -0.46883127 0.82309633 -0.32048351
vn -0.49098641 0.85791481 -0.15137592
vn -0.49688092 0.86753154 0.02232876
vn -0.48633581 0.85165417 0.19535244
vn -0.45967159 0.81076562 0.36243802
vn -0.41769779 0.74610800 0.51850891
vn -0.36168995 0.65964609 0.65882277
vn -0.29335034 0.55400664 0.77911627
vn -0.21475509 0.43239987 0.87573445
vn -0.12829168 0.29852033 0.94574142
vn -0.03658815 0.15643638 0.98701012
vn 0.05756913 0.01046461 0.99828672
vn 0.15131971 -0.13495958 0.97922838
vn 0.24181478 -0.27541709 0.93041444
vn 0.32630497 -0.40664050 0.85332799
vn 0.40222320 -0.52464271 0.75031102
vn 0.46726221 -0.62583810 0.62449408
vn 0.51944584 -0.70715219 0.47969991
vn 0.55718881 -0.76611423 0.32032752
vn 0.57934427 -0.80093253 0.15122002
vn 0.58523887 -0.81054914 -0.02248430
vn 0.57469380 -0.79467207 -0.19550826
vn 0.54802936 -0.75378352 -0.36259389
vn 0.50605559 -0.68912596 -0.51866484
vn 0.45004806 -0.60266364 -0.65897894
vn 0.90370911 0.35283196 -0.24252722
vn 0.87938851 0.39046210 -0.27242500
vn 0.85263324 0.43189007 -0.29408777
vn 0.82425648 0.47585669 -0.30685794
vn 0.79512036 0.52102607 -0.31034741
vn 0.76611000 0.56602621 -0.30445015
vn 0.73810709 0.60948950 -0.28934497
vn 0.71196270 0.65009522 -0.26549083
vn 0.68847084 0.68660980 -0.23361290
vn 0.66834527 0.71792364 -0.19468005
vn 0.65219730 0.74308556 -0.14987510
vn 0.64051783 0.76133102 -0.10055919
vn 0.63366187 0.77210534 -0.04823042
vn 0.63183767 0.77508104 0.00552095
vn 0.63510066 0.77016819 0.05906153
vn 0.64335173 0.75751561 0.11076466
vn 0.65634006 0.73750782 0.15905941
vn 0.67367119 0.71075290 0.20247824
vn 0.69481844 0.67806375 0.23970169
vn 0.71913910 0.64043373 0.26959920
vn 0.74589437 0.59900582 0.29126242
vn 0.77427113 0.55503929 0.30403247
vn 0.80340725 0.50986969 0.30752176
vn 0.83241749 0.46486956 0.30162454
vn 0.86042047 0.42140639 0.28651953
vn 0.88656515 0.38080055 0.26266569
vn 0.91005719 0.34428573 0.23078829
vn 0.93018293 0.31297141 0.19185568
vn 0.94633067 0.28780979 0.14705017
vn 0.95800990 0.26956499 0.09773371
vn 0.96486562 0.25879073 0.04540505
vn 0.96668977 0.25581491 -0.00834604
vn 0.96342671 0.26072785 -0.06188662
vn 0.95517570 0.27338013 -0.11358990
vn 0.94218737 0.29338783 -0.16188470
vn 0.92485625 0.32014301 -0.20530337
vn 0.84039444 0.54197317 -0.00148537
vn 0.84039444 0.54197317 -0.00148537
vn 0.84039444 0.54197317 -0.00148537
vn 0.84039444 0.54197317 -0.00148537
vn 0.84039444 0.54197317 -0.00148537
vn 0.84039444 0.54197317 -0.00148537
vn 0.84039444 0.54197317 -0.00148537
vn 0.84039444 0.54197317 -0.00148537
vn 0.84039444 0.54197317 -0.00148537
vn 0.84039444 0.54197317 -0.00148537
vn 0.84039444 0.54197317 -0.00148537
vn 0.84039444 0.54197317 -0.00148537
vn 0.84039444 0.54197317 -0.00148537
vn 0.84039444 0.54197317 -0.00148537
vn 0.84039444 0.54197317 -0.00148537
vn 0.84039444 0.54197317 -0.00148537
vn 0.84039444 0.54197317 -0.00148537
vn 0.84039444 0.54197317 -0.00148537
vn 0.84039444 0.54197317 -0.00148537
vn 0.84039444 0.54197317 -0.00148537
vn 0.84039444 0.54197317 -0.00148537
vn 0.84039444 0.54197317 -0.00148537
vn 0.84039444 0.54197317 -0.00148537
vn 0.84039444 0.54197317 -0.00148537
vn 0.84039444 0.54197317 -0.00148537
vn 0.84039444 0.54197317 -0.00148537
vn 0.84039444 0.54197317 -0.00148537
vn 0.84039444 0.54197317 -0.00148537
vn 0.84039444 0.54197317 -0.00148537
vn 0.84039444 0.54197317 -0.00148537
vn 0.84039444 0.54197317 -0.00148537
vn 0.84039444 0.54197317 -0.00148537
vn 0.84039444 0.54197317 -0.00148537
vn 0.84039444 0.54197317 -0.00148537
vn 0.84039444 0.54197317 -0.00148537
vn 0.84039444 0.54197317 -0.00148537
vn 0.25929219 -0.40446734 -0.87702554
vn 0.33799624 -0.52624345 -0.78027326
vn 0.17270954 -0.27040267 -0.94712925
vn 0.08087867 -0.12812163 -0.98845518
vn -0.01340929 0.01805180 -0.99974716
vn -0.10728942 0.16367695 -0.98066247
vn -0.19791038 0.30432865 -0.93178093
vn -0.28251812 0.43573356 -0.85458755
vn -0.35854056 0.55389965 -0.75142801
vn -0.42366919 0.65523535 -0.62543666
vn -0.47592595 0.73666131 -0.48044208
vn -0.51372159 0.79570472 -0.32084924
vn -0.53590703 0.83057171 -0.15150741
vn -0.54180956 0.84020174 0.02243778
vn -0.53125048 0.82430220 0.19570115
vn -0.50454962 0.78335673 0.36301807
vn -0.46251768 0.71860969 0.51930499
vn -0.40643194 0.63202816 0.65981323
vn -0.33799756 0.52624249 0.78027332
vn -0.25929394 0.40446708 0.87702519
vn -0.17271081 0.27040234 0.94712919
vn -0.08087953 0.12812196 0.98845506
vn 0.01340839 -0.01805174 0.99974716
vn 0.10728850 -0.16367748 0.98066247
vn 0.19790867 -0.30432957 0.93178099
vn 0.28251567 -0.43573469 0.85458779
vn 0.35853904 -0.55390030 0.75142825
vn 0.42366830 -0.65523577 0.62543696
vn 0.47592399 -0.73666257 0.48044226
vn 0.51371896 -0.79570645 0.32084924
vn 0.53590512 -0.83057284 0.15150765
vn 0.54180837 -0.84020257 -0.02243733
vn 0.53124857 -0.82430351 -0.19570079
vn 0.50454706 -0.78335851 -0.36301774
vn 0.46251544 -0.71861124 -0.51930481
vn 0.40643013 -0.63202947 -0.65981305
vn -0.84039444 -0.54197317 0.00148537
vn -0.84039444 -0.54197317 0.00148537
vn -0.84039444 -0.54197317 0.00148537
vn -0.84039444 -0.54197317 0.00148537
vn -0.84039444 -0.54197317 0.00148537
vn -0.84039444 -0.54197317 0.00148537
vn -0.84039444 -0.54197317 0.00148537
vn -0.84039444 -0.54197317 0.00148537
vn -0.84039444 -0.54197317 0.00148537
vn -0.84039444 -0.54197317 0.00148537
vn -0.84039444 -0.54197317 0.00148537
vn -0.84039444 -0.54197317 0.00148537
vn -0.84039444 -0.54197317 0.00148537
vn -0.84039444 -0.54197317 0.00148537
vn -0.84039444 -0.54197317 0.00148537
vn -0.84039444 -0.54197317 0.00148537
vn -0.84039444 -0.54197317 0.00148537
vn -0.84039444 -0.54197317 0.00148537
vn -0.84039444 -0.54197317 0.00148537
vn -0.84039444 -0.54197317 0.00148537
vn -0.84039444 -0.54197317 0.00148537
vn -0.84039444 -0.54197317 0.00148537
vn -0.84039444 -0.54197317 0.00148537
vn -0.84039444 -0.54197317 0.00148537
vn -0.84039444 -0.54197317 0.00148537
vn -0.84039444 -0.54197317 0.00148537
vn -0.84039444 -0.54197317 0.00148537
vn -0.84039444 -0.54197317 0.00148537
vn -0.84039444 -0.54197317 0.00148537
vn -0.84039444 -0.54197317 0.00148537
vn -0.84039444 -0.54197317 0.00148537
vn -0.84039444 -0.54197317 0.00148537
vn -0.84039444 -0.54197317 0.00148537
vn -0.84039444 -0.54197317 0.00148537
vn -0.84039444 -0.54197317 0.00148537
vn -0.84039444 -0.54197317 0.00148537
f 1//1 3//3 2//2
f 3//3 1//1 4//4
f 2//2 6//6 5//5
f 6//6 2//2 3//3
f 5//5 8//8 7//7
f 8//8 5//5 6//6
f 7//7 10//10 9//9
f 10//10 7//7 8//8
f 9//9 12//12 11//11
f 12//12 9//9 10//10
f 11//11 14//14 13//13
f 14//14 11//11 12//12
f 13//13 16//16 15//15
f 16//16 13//13 14//14
f 15//15 18//18 17//17
f 18//18 15//15 16//16
f 17//17 20//20 19//19
f 20//20 17//17 18//18
f 19//19 22//22 21//21
f 22//22 19//19 20//20
f 21//21 24//24 23//23
f 24//24 21//21 22//22
f 23//23 26//26 25//25
f 26//26 23//23 24//24
f 25//25 28//28 27//27
f 28//28 25//25 26//26
f 27//27 30//30 29//29
f 30//30 27//27 28//28
f 29//29 32//32 31//31
f 32//32 29//29 30//30
f 31//31 34//34 33//33
f 34//34 31//31 32//32
f 33//33 36//36 35//35
f 36//36 33//33 34//34
f 35//35 38//38 37//37
f 38//38 35//35 36//36
f 37//37 40//40 39//39
f 40//40 37//37 38//38
f 39//39 42//42 41//41
f 42//42 39//39 40//40
f 41//41 44//44 43//43
f 44//44 41//41 42//42
f 43//43 46//46 45//45
f 46//46 43//43 44//44
f 45//45 48//48 47//47
f 48//48 45//45 46//46
f 47//47 50//50 49//49
f 50//50 47//47 48//48
f 49//49 52//52 51//51
f 52//52 49//49 50//50
f 51//51 54//54 53//53
f 54//54 51//51 52//52
f 53//53 56//56 55//55
f 56//56 53//53 54//54
f 55//55 58//58 57//57
f 58//58 55//55 56//56
f 57//57 60//60 59//59
f 60//60 57//57 58//58
f 59//59 62//62 61//61
f 62//62 59//59 60//60
f 61//61 64//64 63//63
f 64//64 61//61 62//62
f 63//63 66//66 65//65
f 66//66 63//63 64//64
f 65//65 68//68 67//67
f 68//68 65//65 66//66
f 67//67 70//70 69//69
f 70//70 67//67 68//68
f 69//69 72//72 71//71
f 72//72 69//69 70//70
f 71//71 4//4 1//1
f 4//4 71//71 72//72
f 4//4 73//73 3//3
f 73//73 4//4 74//74
f 3//3 75//75 6//6
f 75//75 3//3 73//73
f 6//6 76//76 8//8
f 76//76 6//6 75//75
f 8//8 77//77 10//10
f 77//77 8//8 76//76
f 10//10 78//78 12//12
f 78//78 10//10 77//77
f 12//12 79//79 14//14
f 79//79 12//12 78//78
f 14//14 80//80 16//16
f 80//80 14//14 79//79
f 16//16 81//81 18//18
f 81//81 16//16 80//80
f 18//18 82//82 20//20
f 82//82 18//18 81//81
f 20//20 83//83 22//22
f 83//83 20//20 82//82
f 22//22 84//84 24//24
f 84//84 22//22 83//83
f 24//24 85//85 26//26
f 85//85 24//24 84//84
f 26//26 86//86 28//28
f 86//86 26//26 85//85
f 28//28 87//87 30//30
f 87//87 28//28 86//86
f 30//30 88//88 32//32
f 88//88 30//30 87//87
f 32//32 89//89 34//34
f 89//89 32//32 88//88
f 34//34 90//90 36//36
f 90//90 34//34 89//89
f 36//36 91//91 38//38
f 91//91 36//36 90//90
f 38//38 92//92 40//40
f 92//92 38//38 91//91
f 40//40 93//93 42//42
f 93//93 40//40 92//92
f 42//42 94//94 44//44
f 94//94 42//42 93//93
f 44//44 95//95 46//46
f 95//95 44//44 94//94
f 46//46 96//96 48//48
f 96//96 46//46 95//95
f 48//48 97//97 50//50
f 97//97 48//48 96//96
f 50//50 98//98 52//52
f 98//98 50//50 97//97
f 52//52 99//99 54//54
f 99//99 52//52 98//98
f 54//54 100//100 56//56
f 100//100 54//54 99//99
f 56//56 101//101 58//58
f 101//101 56//56 100//100
f 58//58 102//102 60//60
f 102//102 58//58 101//101
f 60//60 103//103 62//62
f 103//103 60//60 102//102
f 62//62 104//104 64//64
f 104//104 62//62 103//103
f 64//64 105//105 66//66
f 105//105 64//64 104//104
f 66//66 106//106 68//68
f 106//106 66//66 105//105
f 68//68 107//107 70//70
f 107//107 68//68 106//106
f 70//70 108//108 72//72
f 108//108 70//70 107//107
f 72//72 74//74 4//4
f 74//74 72//72 108//108
f 74//74 109//109 73//73
f 109//109 74//74 110//110
f 73//73 111//111 75//75
f 111//111 73//73 109//109
f 75//75 112//112 76//76
f 112//112 75//75 111//111
f 76//76 113//113 77//77
f 113//113 76//76 112//112
f 77//77 114//114 78//78
f 114//114 77//77 113//113
f 78//78 115//115 79//79
f 115//115 78//78 114//114
f 79//79 116//116 80//80
f 116//116 79//79 115//115
f 80//80 117//117 81//81
f 117//117 80//80 116//116
f 81//81 118//118 82//82
f 118//118 81//81 117//117
f 82//82 119//119 83//83
f 119//119 82//82 118//118
f 83//83 120//120 84//84
f 120//120 83//83 119//119
f 84//84 121//121 85//85
f 121//121 84//84 120//120
f 85//85 122//122 86//86
f 122//122 85//85 121//121
f 86//86 123//123 87//87
f 123//123 86//86 122//122
f 87//87 124//124 88//88
f 124//124 87//87 123//123
f 88//88 125//125 89//89
f 125//125 88//88 124//124
f 89//89 126//126 90//90
f 126//126 89//89 125//125
f 90//90 127//127 91//91
f 127//127 90//90 126//126
f 91//91 128//128 92//92
f 128//128 91//91 127//127
f 92//92 129//129 93//93
f 129//129 92//92 128//128
f 93//93 130//130 94//94
f 130//130 93//93 129//129
f 94//94 131//131 95//95
f 131//131 94//94 130//130
f 95//95 132//132 96//96
f 132//132 95//95 131//131
f 96//96 133//133 97//97
f 133//133 96//96 132//132
f 97//97 134//134 98//98
f 134//134 97//97 133//133
f 98//98 135//135 99//99
f 135//135 98//98 134//134
f 99//99 136//136 100//100
f 136//136 99//99 135//135
f 100//100 137//137 101//101
f 137//137 100//100 136//136
f 101//101 138//138 102//102
f 138//138 101//101 137//137
f 102//102 139//139 103//103
f 139//139 102//102 138//138
f 103//103 140//140 104//104
f 140//140 103//103 139//139
f 104//104 141//141 105//105
f 141//141 104//104 140//140
f 105//105 142//142 106//106
f 142//142 105//105 141//141
f 106//106 143//143 107//107
f 143//143 106//106 142//142
f 107//107 144//144 108//108
f 144//144 107//107 143//143
f 108//108 110//110 74//74
f 110//110 108//108 144//144
f 110//110 145//145 109//109
f 145//145 110//110 146//146
f 109//109 147//147 111//111
f 147//147 109//109 145//145
f 111//111 148//148 112//112
f 148//148 111//111 147//147
f 112//112 149//149 113//113
f 149//149 112//112 148//148
f 113//113 150//150 114//114
f 150//150 113//113 149//149
f 114//114 151//151 115//115
f 151//151 114//114 150//150
f 115//115 152//152 116//116
f 152//152 115//115 151//151
f 116//116 153//153 117//117
f 153//153 116//116 152//152
f 117//117 154//154 118//118
f 154//154 117//117 153//153
f 118//118 155//155 119//119
f 155//155 118//118 154//154
f 119//119 156//156 120//120
f 156//156 119//119 155//155
f 120//120 157//157 121//121
f 157//157 120//120 156//156
f 121//121 158//158 122//122
f 158//158 121//121 157//157
f 122//122 159//159 123//123
f 159//159 122//122 158//158
f 123//123 160//160 124//124
f 160//160 123//123 159//159
f 124//124 161//161 125//125
f 161//161 124//124 160//160
f 125//125 162//162 126//126
f 162//162 125//125 161//161
f 126//126 163//163 127//127
f 163//163 126//126 162//162
f 127//127 164//164 128//128
f 164//164 127//127 163//163
f 128//128 165//165 129//129
f 165//165 128//128 164//164
f 129//129 166//166 130//130
f 166//166 129//129 165//165
f 130//130 167//167 131//131
f 167//167 130//130 166//166
f 131//131 168//168 132//132
f 168//168 131//131 167//167
f 132//132 169//169 133//133
f 169//169 132//132 168//168
f 133//133 170//170 134//134
f 170//170 133//133 169//169
f 134//134 171//171 135//135
f 171//171 134//134 170//170
f 135//135 172//172 136//136
f 172//172 135//135 171//171
f 136//136 173//173 137//137
f 173//173 136//136 172//172
f 137//137 174//174 138//138
f 174//174 137//137 173//173
f 138//138 175//175 139//139
f 175//175 138//138 174//174
f 139//139 176//176 140//140
f 176//176 139//139 175//175
f 140//140 177//177 141//141
f 177//177 140//140 176//176
f 141//141 178//178 142//142
f 178//178 141//141 177//177
f 142//142 179//179 143//143
f 179//179 142//142 178//178
f 143//143 180//180 144//144
f 180//180 143//143 179//179
f 144//144 146//146 110//110
f 146//146 144//144 180//180
f 146//146 181//181 145//145
f 181//181 146//146 182//182
f 145//145 183//183 147//147
f 183//183 145//145 181//181
f 147//147 184//184 148//148
f 184//184 147//147 183//183
f 148//148 185//185 149//149
f 185//185 148//148 184//184
f 149//149 186//186 150//150
f 186//186 149//149 185//185
f 150//150 187//187 151//151
f 187//187 150//150 186//186
f 151//151 188//188 152//152
f 188//188 151//151 187//187
f 152//152 189//189 153//153
f 189//189 152//152 188//188
f 153//153 190//190 154//154
f 190//190 153//153 189//189
f 154//154 191//191 155//155
f 191//191 154//154 190//190
f 155//155 192//192 156//156
f 192//192 155//155 191//191
f 156//156 193//193 157//157
f 193//193 156//156 192//192
f 157//157 194//194 158//158
f 194//194 157//157 193//193
f 158//158 195//195 159//159
f 195//195 158//158 194//194
f 159//159 196//196 160//160
f 196//196 159//159 195//195
f 160//160 197//197 161//161
f 197//197 160//160 196//196
f 161//161 198//198 162//162
f 198//198 161//161 197//197
f 162//162 199//199 163//163
f 199//199 162//162 198//198
f 163//163 200//200 164//164
f 200//200 163//163 199//199
f 164//164 201//201 165//165
f 201//201 164//164 200//200
f 165//165 202//202 166//166
f 202//202 165//165 201//201
f 166//166 203//203 167//167
f 203//203 166//166 202//202
f 167//167 204//204 168//168
f 204//204 167//167 203//203
f 168//168 205//205 169//169
f 205//205 168//168 204//204
f 169//169 206//206 170//170
f 206//206 169//169 205//205
f 170//170 207//207 171//171
f 207//207 170//170 206//206
f 171//171 208//208 172//172
f 208//208 171//171 207//207
f 172//172 209//209 173//173
f 209//209 172//172 208//208
f 173//173 210//210 174//174
f 210//210 173//173 209//209
f 174//174 211//211 175//175
f 211//211 174//174 210//210
f 175//175 212//212 176//176
f 212//212 175//175 211//211
f 176//176 213//213 177//177
f 213//213 176//176 212//212
f 177//177 214//214 178//178
f 214//214 177//177 213//213
f 178//178 215//215 179//179
f 215//215 178//178 214//214
f 179//179 216//216 180//180
f 216//216 179//179 215//215
f 180//180 182//182 146//146
f 182//182 180//180 216//216
f 182//182 217//217 181//181
f 217//217 182//182 218//218
f 181//181 219//219 183//183
f 219//219 181//181 217//217
f 183//183 220//220 184//184
f 220//220 183//183 219//219
f 184//184 221//221 185//185
f 221//221 184//184 220//220
f 185//185 222//222 186//186
f 222//222 185//185 221//221
f 186//186 223//223 187//187
f 223//223 186//186 222//222
f 187//187 224//224 188//188
f 224//224 187//187 223//223
f 188//188 225//225 189//189
f 225//225 188//188 224//224
f 189//189 226//226 190//190
f 226//226 189//189 225//225
f 190//190 227//227 191//191
f 227//227 190//190 226//226
f 191//191 228//228 192//192
f 228//228 191//191 227//227
f 192//192 229//229 193//193
f 229//229 192//192 228//228
f 193//193 230//230 194//194
f 230//230 193//193 229//229
f 194//194 231//231 195//195
f 231//231 194//194 230//230
f 195//195 232//232 196//196
f 232//232 195//195 231//231
f 196//196 233//233 197//197
f 233//233 196//196 232//232
f 197//197 234//234 198//198
f 234//234 197//197 233//233
f 198//198 235//235 199//199
f 235//235 198//198 234//234
f 199//199 236//236 200//200
f 236//236 199//199 235//235
f 200//200 237//237 201//201
f 237//237 200//200 236//236
f 201//201 238//238 202//202
f 238//238 201//201 237//237
f 202//202 239//239 203//203
f 239//239 202//202 238//238
f 203//203 240//240 204//204
f 240//240 203//203 239//239
f 204//204 241//241 205//205
f 241//241 204//204 240//240
f 205//205 242//242 206//206
f 242//242 205//205 241//241
f 206//206 243//243 207//207
f 243//243 206//206 242//242
f 207//207 244//244 208//208
f 244//244 207//207 243//243
f 208//208 245//245 209//209
f 245//245 208//208 244//244
f 209//209 246//246 210//210
f 246//246 209//209 245//245
f 210//210 247//247 211//211
f 247//247 210//210 246//246
f 211//211 248//248 212//212
f 248//248 211//211 247//247
f 212//212 249//249 213//213
f 249//249 212//212 248//248
f 213//213 250//250 214//214
f 250//250 213//213 249//249
f 214//214 251//251 215//215
f 251//251 214//214 250//250
f 215//215 252//252 216//216
f 252//252 215//215 251//251
f 216//216 218//218 182//182
f 218//218 216//216 252//252
f 218//218 253//253 217//217
f 253//253 218//218 254//254
f 217//217 255//255 219//219
f 255//255 217//217 253//253
f 219//219 256//256 220//220
f 256//256 219//219 255//255
f 220//220 257//257 221//221
f 257//257 220//220 256//256
f 221//221 258//258 222//222
f 258//258 221//221 257//257
f 222//222 259//259 223//223
f 259//259 222//222 258//258
f 223//223 260//260 224//224
f 260//260 223//223 259//259
f 224//224 261//261 225//225
f 261//261 224//224 260//260
f 225//225 262//262 226//226
f 262//262 225//225 261//261
f 226//226 263//263 227//227
f 263//263 226//226 262//262
f 227//227 264//264 228//228
f 264//264 227//227 263//263
f 228//228 265//265 229//229
f 265//265 228//228 264//264
f 229//229 266//266 230//230
f 266//266 229//229 265//265
f 230//230 267//267 231//231
f 267//267 230//230 266//266
f 231//231 268//268 232//232
f 268//268 231//231 267//267
f 232//232 269//269 233//233
f 269//269 232//232 268//268
f 233//233 270//270 234//234
f 270//270 233//233 269//269
f 234//234 271//271 235//235
f 271//271 234//234 270//270
f 235//235 272//272 236//236
f 272//272 235//235 271//271
f 236//236 273//273 237//237
f 273//273 236//236 272//272
f 237//237 274//274 238//238
f 274//274 237//237 273//273
f 238//238 275//275 239//239
f 275//275 238//238 274//274
f 239//239 276//276 240//240
f 276//276 239//239 275//275
f 240//240 277//277 241//241
f 277//277 240//240 276//276
f 241//241 278//278 242//242
f 278//278 241//241 277//277
f 242//242 279//279 243//243
f 279//279 242//242 278//278
f 243//243 280//280 244//244
f 280//280 243//243 279//279
f 244//244 281//281 245//245
f 281//281 244//244 280//280
f 245//245 282//282 246//246
f 282//282 245//245 281//281
f 246//246 283//283 247//247
f 283//283 246//246 282//282
f 247//247 284//284 248//248
f 284//284 247//247 283//283
f 248//248 285//285 249//249
f 285//285 248//248 284//284
f 249//249 286//286 250//250
f 286//286 249//249 285//285
f 250//250 287//287 251//251
f 287//287 250//250 286//286
f 251//251 288//288 252//252
f 288//288 251//251 287//287
f 252//252 254//254 218//218
f 254//254 252//252 288//288
f 254//254 289//289 253//253
f 289//289 254//254 290//290
f 253//253 291//291 255//255
f 291//291 253//253 289//289
f 255//255 292//292 256//256
f 292//292 255//255 291//291
f 256//256 293//293 257//257
f 293//293 256//256 292//292
f 257//257 294//294 258//258
f 294//294 257//257 293//293
f 258//258 295//295 259//259
f 295//295 258//258 294//294
f 259//259 296//296 260//260
f 296//296 259//259 295//295
f 260//260 297//297 261//261
f 297//297 260//260 296//296
f 261//261 298//298 262//262
f 298//298 261//261 297//297
f 262//262 299//299 263//263
f 299//299 262//262 298//298
f 263//263 300//300 264//264
f 300//300 263//263 299//299
f 264//264 301//301 265//265
f 301//301 264//264 300//300
f 265//265 302//302 266//266
f 302//302 265//265 301//301
f 266//266 303//303 267//267
f 303//303 266//266 302//302
f 267//267 304//304 268//268
f 304//304 267//267 303//303
f 268//268 305//305 269//269
f 305//305 268//268 304//304
f 269//269 306//306 270//270
f 306//306 269//269 305//305
f 270//270 307//307 271//271
f 307//307 270//270 306//306
f 271//271 308//308 272//272
f 308//308 271//271 307//307
f 272//272 309//309 273//273
f 309//309 272//272 308//308
f 273//273 310//310 274//274
f 310//310 273//273 309//309
f 274//274 311//311 275//275
f 311//311 274//274 310//310
f 275//275 312//312 276//276
f 312//312 275//275 311//311
f 276//276 313//313 277//277
f 313//313 276//276 312//312
f 277//277 314//314 278//278
f 314//314 277//277 313//313
f 278//278 315//315 279//279
f 315//315 278//278 314//314
f 279//279 316//316 280//280
f 316//316 279//279 315//315
f 280//280 317//317 281//281
f 317//317 280//280 316//316
f 281//281 318//318 282//282
f 318//318 281//281 317//317
f 282//282 319//319 283//283
f 319//319 282//282 318//318
f 283//283 320//320 284//284
f 320//320 283//283 319//319
f 284//284 321//321 285//285
f 321//321 284//284 320//320
f 285//285 322//322 286//286
f 322//322 285//285 321//321
f 286//286 323//323 287//287
f 323//323 286//286 322//322
f 287//287 324//324 288//288
f 324//324 287//287 323//323
f 288//288 290//290 254//254
f 290//290 288//288 324//324
f 290//290 325//325 289//289
f 325//325 290//290 326//326
f 289//289 327//327 291//291
f 327//327 289//289 325//325
f 291//291 328//328 292//292
f 328//328 291//291 327//327
f 292//292 329//329 293//293
f 329//329 292//292 328//328
f 293//293 330//330 294//294
f 330//330 293//293 329//329
f 294//294 331//331 295//295
f 331//331 294//294 330//330
f 295//295 332//332 296//296
f 332//332 295//295 331//331
f 296//296 333//333 297//297
f 333//333 296//296 332//332
f 297//297 334//334 298//298
f 334//334 297//297 333//333
f 298//298 335//335 299//299
f 335//335 298//298 334//334
f 299//299 336//336 300//300
f 336//336 299//299 335//335
f 300//300 337//337 301//301
f 337//337 300//300 336//336
f 301//301 338//338 302//302
f 338//338 301//301 337//337
f 302//302 339//339 303//303
f 339//339 302//302 338//338
f 303//303 340//340 304//304
f 340//340 303//303 339//339
f 304//304 341//341 305//305
f 341//341 304//304 340//340
f 305//305 342//342 306//306
f 342//342 305//305 341//341
f 306//306 343//343 307//307
f 343//343 306//306 342//342
f 307//307 344//344 308//308
f 344//344 307//307 343//343
f 308//308 345//345 309//309
f 345//345 308//308 344//344
f 309//309 346//346 310//310
f 346//346 309//309 345//345
f 310//310 347//347 311//311
f 347//347 310//310 346//346
f 311//311 348//348 312//312
f 348//348 311//311 347//347
f 312//312 349//349 313//313
f 349//349 312//312 348//348
f 313//313 350//350 314//314
f 350//350 313//313 349//349
f 314//314 351//351 315//315
f 351//351 314//314 350//350
f 315//315 352//352 316//316
f 352//352 315//315 351//351
f 316//316 353//353 317//317
f 353//353 316//316 352//352
f 317//317 354//354 318//318
f 354//354 317//317 353//353
f 318//318 355//355 319//319
f 355//355 318//318 354//354
f 319//319 356//356 320//320
f 356//356 319//319 355//355
f 320//320 357//357 321//321
f 357//357 320//320 356//356
f 321//321 358//358 322//322
f 358//358 321//321 357//357
f 322//322 359//359 323//323
f 359//359 322//322 358//358
f 323//323 360//360 324//324
f 360//360 323//323 359//359
f 324//324 326//326 290//290
f 326//326 324//324 360//360
f 326//326 361//361 325//325
f 361//361 326//326 362//362
f 325//325 363//363 327//327
f 363//363 325//325 361//361
f 327//327 364//364 328//328
f 364//364 327//327 363//363
f 328//328 365//365 329//329
f 365//365 328//328 364//364
f 329//329 366//366 330//330
f 366//366 329//329 365//365
f 330//330 367//367 331//331
f 367//367 330//330 366//366
f 331//331 368//368 332//332
f 368//368 331//331 367//367
f 332//332 369//369 333//333
f 369//369 332//332 368//368
f 333//333 370//370 334//334
f 370//370 333//333 369//369
f 334//334 371//371 335//335
f 371//371 334//334 370//370
f 335//335 372//372 336//336
f 372//372 335//335 371//371
f 336//336 373//373 337//337
f 373//373 336//336 372//372
f 337//337 374//374 338//338
f 374//374 337//337 373//373
f 338//338 375//375 339//339
f 375//375 338//338 374//374
f 339//339 376//376 340//340
f 376//376 339//339 375//375
f 340//340 377//377 341//341
f 377//377 340//340 376//376
f 341//341 378//378 342//342
f 378//378 341//341 377//377
f 342//342 379//379 343//343
f 379//379 342//342 378//378
f 343//343 380//380 344//344
f 380//380 343//343 379//379
f 344//344 381//381 345//345
f 381//381 344//344 380//380
f 345//345 382//382 346//346
f 382//382 345//345 381//381
f 346//346 383//383 347//347
f 383//383 346//346 382//382
f 347//347 384//384 348//348
f 384//384 347//347 383//383
f 348//348 385//385 349//349
f 385//385 348//348 384//384
f 349//349 386//386 350//350
f 386//386 349//349 385//385
f 350//350 387//387 351//351
f 387//387 350//350 386//386
f 351//351 388//388 352//352
f 388//388 351//351 387//387
f 352//352 389//389 353//353
f 389//389 352//352 388//388
f 353//353 390//390 354//354
f 390//390 353//353 389//389
f 354//354 391//391 355//355
f 391//391 354//354 390//390
f 355//355 392//392 356//356
f 392//392 355//355 391//391
f 356//356 393//393 357//357
f 393//393 356//356 392//392
f 357//357 394//394 358//358
f 394//394 357//357 393//393
f 358//358 395//395 359//359
f 395//395 358//358 394//394
f 359//359 396//396 360//360
f 396//396 359//359 395//395
f 360//360 362//362 326//326
f 362//362 360//360 396//396
f 362//362 397//397 361//361
f 397//397 362//362 398//398
f 361//361 399//399 363//363
f 399//399 361//361 397//397
f 363//363 400//400 364//364
f 400//400 363//363 399//399
f 364//364 401//401 365//365
f 401//401 364//364 400//400
f 365//365 402//402 366//366
f 402//402 365//365 401//401
f 366//366 403//403 367//367
f 403//403 366//366 402//402
f 367//367 404//404 368//368
f 404//404 367//367 403//403
f 368//368 405//405 369//369
f 405//405 368//368 404//404
f 369//369 406//406 370//370
f 406//406 369//369 405//405
f 370//370 407//407 371//371
f 407//407 370//370 406//406
f 371//371 408//408 372//372
f 408//408 371//371 407//407
f 372//372 409//409 373//373
f 409//409 372//372 408//408
f 373//373 410//410 374//374
f 410//410 373//373 409//409
f 374//374 411//411 375//375
f 411//411 374//374 410//410
f 375//375 412//412 376//376
f 412//412 375//375 411//411
f 376//376 413//413 377//377
f 413//413 376//376 412//412
f 377//377 414//414 378//378
f 414//414 377//377 413//413
f 378//378 415//415 379//379
f 415//415 378//378 414//414
f 379//379 416//416 380//380
f 416//416 379//379 415//415
f 380//380 417//417 381//381
f 417//417 380//380 416//416
f 381//381 418//418 382//382
f 418//418 381//381 417//417
f 382//382 419//419 383//383
f 419//419 382//382 418//418
f 383//383 420//420 384//384
f 420//420 383//383 419//419
f 384//384 421//421 385//385
f 421//421 384//384 420//420
f 385//385 422//422 386//386
f 422//422 385//385 421//421
f 386//386 423//423 387//387
f 423//423 386//386 422//422
f 387//387 424//424 388//388
f 424//424 387//387 423//423
f 388//388 425//425 389//389
f 425//425 388//388 424//424
f 389//389 426//426 390//390
f 426//426 389//389 425//425
f 390//390 427//427 391//391
f 427//427 390//390 426//426
f 391//391 428//428 392//392
f 428//428 391//391 427//427
f 392//392 429//429 393//393
f 429//429 392//392 428//428
f 393//393 430//430 394//394
f 430//430 393//393 429//429
f 394//394 431//431 395//395
f 431//431 394//394 430//430
f 395//395 432//432 396//396
f 432//432 395//395 431//431
f 396//396 398//398 362//362
f 398//398 396//396 432//432
f 398//398 433//433 397//397
f 433//433 398//398 434//434
f 397//397 435//435 399//399
f 435//435 397//397 433//433
f 399//399 436//436 400//400
f 436//436 399//399 435//435
f 400//400 437//437 401//401
f 437//437 400//400 436//436
f 401//401 438//438 402//402
f 438//438 401//401 437//437
f 402//402 439//439 403//403
f 439//439 402//402 438//438
f 403//403 440//440 404//404
f 440//440 403//403 439//439
f 404//404 441//441 405//405
f 441//441 404//404 440//440
f 405//405 442//442 406//406
f 442//442 405//405 441//441
f 406//406 443//443 407//407
f 443//443 406//406 442//442
f 407//407 444//444 408//408
f 444//444 407//407 443//443
f 408//408 445//445 409//409
f 445//445 408//408 444//444
f 409//409 446//446 410//410
f 446//446 409//409 445//445
f 410//410 447//447 411//411
f 447//447 410//410 446//446
f 411//411 448//448 412//412
f 448//448 411//411 447//447
f 412//412 449//449 413//413
f 449//449 412//412 448//448
f 413//413 450//450 414//414
f 450//450 413//413 449//449
f 414//414 451//451 415//415
f 451//451 414//414 450//450
f 415//415 452//452 416//416
f 452//452 415//415 451//451
f 416//416 453//453 417//417
f 453//453 416//416 452//452
f 417//417 454//454 418//418
f 454//454 417//417 453//453
f 418//418 455//455 419//419
f 455//455 418//418 454//454
f 419//419 456//456 420//420
f 456//456 419//419 455//455
f 420//420 457//457 421//421
f 457//457 420//420 456//456
f 421//421 458//458 422//422
f 458//458 421//421 457//457
f 422//422 459//459 423//423
f 459//459 422//422 458//458
f 423//423 460//460 424//424
f 460//460 423//423 459//459
f 424//424 461//461 425//425
f 461//461 424//424 460//460
f 425//425 462//462 426//426
f 462//462 425//425 461//461
f 426//426 463//463 427//427
f 463//463 426//426 462//462
f 427//427 464//464 428//428
f 464//464 427//427 463//463
f 428//428 465//465 429//429
f 465//465 428//428 464//464
f 429//429 466//466 430//430
f 466//466 429//429 465//465
f 430//430 467//467 431//431
f 467//467 430//430 466//466
f 431//431 468//468 432//432
f 468//468 431//431 467//467
f 432//432 434//434 398//398
f 434//434 432//432 468//468
f 434//434 469//469 433//433
f 469//469 434//434 470//470
f 433//433 471//471 435//435
f 471//471 433//433 469//469
f 435//435 472//472 436//436
f 472//472 435//435 471//471
f 436//436 473//473 437//437
f 473//473 436//436 472//472
f 437//437 474//474 438//438
f 474//474 437//437 473//473
f 438//438 475//475 439//439
f 475//475 438//438 474//474
f 439//439 476//476 440//440
f 476//476 439//439 475//475
f 440//440 477//477 441//441
f 477//477 440//440 476//476
f 441//441 478//478 442//442
f 478//478 441//441 477//477
f 442//442 479//479 443//443
f 479//479 442//442 478//478
f 443//443 480//480 444//444
f 480//480 443//443 479//479
f 444//444 481//481 445//445
f 481//481 444//444 480//480
f 445//445 482//482 446//446
f 482//482 445//445 481//481
f 446//446 483//483 447//447
f 483//483 446//446 482//482
f 447//447 484//484 448//448
f 484//484 447//447 483//483
f 448//448 485//485 449//449
f 485//485 448//448 484//484
f 449//449 486//486 450//450
f 486//486 449//449 485//485
f 450//450 487//487 451//451
f 487//487 450//450 486//486
f 451//451 488//488 452//452
f 488//488 451//451 487//487
f 452//452 489//489 453//453
f 489//489 452//452 488//488
f 453//453 490//490 454//454
f 490//490 453//453 489//489
f 454//454 491//491 455//455
f 491//491 454//454 490//490
f 455//455 492//492 456//456
f 492//492 455//455 491//491
f 456//456 493//493 457//457
f 493//493 456//456 492//492
f 457//457 494//494 458//458
f 494//494 457//457 493//493
f 458//458 495//495 459//459
f 495//495 458//458 494//494
f 459//459 496//496 460//460
f 496//496 459//459 495//495
f 460//460 497//497 461//461
f 497//497 460//460 496//496
f 461//461 498//498 462//462
f 498//498 461//461 497//497
f 462//462 499//499 463//463
f 499//499 462//462 498//498
f 463//463 500//500 464//464
f 500//500 463//463 499//499
f 464//464 501//501 465//465
f 501//501 464//464 500//500
f 465//465 502//502 466//466
f 502//502 465//465 501//501
f 466//466 503//503 467//467
f 503//503 466//466 502//502
f 467//467 504//504 468//468
f 504//504 467//467 503//503
f 468//468 470//470 434//434
f 470//470 468//468 504//504
f 2//2 505//505 1//1
f 505//505 2//2 506//506
f 5//5 506//506 2//2
f 506//506 5//5 507//507
f 7//7 507//507 5//5
f 507//507 7//7 508//508
f 9//9 508//508 7//7
f 508//508 9//9 509//509
f 11//11 509//509 9//9
f 509//509 11//11 510//510
f 13//13 510//510 11//11
f 510//510 13//13 511//511
f 15//15 511//511 13//13
f 511//511 15//15 512//512
f 17//17 512//512 15//15
f 512//512 17//17 513//513
f 19//19 513//513 17//17
f 513//513 19//19 514//514
f 21//21 514//514 19//19
f 514//514 21//21 515//515
f 23//23 515//515 21//21
f 515//515 23//23 516//516
f 25//25 516//516 23//23
f 516//516 25//25 517//517
f 27//27 517//517 25//25
f 517//517 27//27 518//518
f 29//29 518//518 27//27
f 518//518 29//29 519//519
f 31//31 519//519 29//29
f 519//519 31//31 520//520
f 33//33 520//520 31//31
f 520//520 33//33 521//521
f 35//35 521//521 33//33
f 521//521 35//35 522//522
f 37//37 522//522 35//35
f 522//522 37//37 523//523
f 39//39 523//523 37//37
f 523//523 39//39 524//524
f 41//41 524//524 39//39
f 524//524 41//41 525//525
f 43//43 525//525 41//41
f 525//525 43//43 526//526
f 45//45 526//526 43//43
f 526//526 45//45 527//527
f 47//47 527//527 45//45
f 527//527 47//47 528//528
f 49//49 528//528 47//47
f 528//528 49//49 529//529
f 51//51 529//529 49//49
f 529//529 51//51 530//530
f 53//53 530//530 51//51
f 530//530 53//53 531//531
f 55//55 531//531 53//53
f 531//531 55//55 532//532
f 57//57 532//532 55//55
f 532//532 57//57 533//533
f 59//59 533//533 57//57
f 533//533 59//59 534//534
f 61//61 534//534 59//59
f 534//534 61//61 535//535
f 63//63 535//535 61//61
f 535//535 63//63 536//536
f 65//65 536//536 63//63
f 536//536 65//65 537//537
f 67//67 537//537 65//65
f 537//537 67//67 538//538
f 69//69 538//538 67//67
f 538//538 69//69 539//539
f 71//71 539//539 69//69
f 539//539 71//71 540//540
f 1//1 540//540 71//71
f 540//540 1//1 505//505
f 541//541 543//543 542//542
f 542//542 543//543 544//544
f 544//544 543//543 545//545
f 544//544 545//545 546//546
f 546//546 545//545 547//547
f 546//546 547//547 548//548
f 548//548 547//547 549//549
f 548//548 549//549 550//550
f 550//550 549//549 551//551
f 550//550 551//551 552//552
f 552//552 551//551 553//553
f 552//552 553//553 554//554
f 554//554 553//553 555//555
f 554//554 555//555 556//556
f 556//556 555//555 557//557
f 556//556 557//557 558//558
f 558//558 557//557 559//559
f 558//558 559//559 560//560
f 560//560 559//559 561//561
f 560//560 561//561 562//562
f 562//562 561//561 563//563
f 562//562 563//563 564//564
f 564//564 563//563 565//565
f 564//564 565//565 566//566
f 566//566 565//565 567//567
f 566//566 567//567 568//568
f 568//568 567//567 569//569
f 568//568 569//569 570//570
f 570//570 569//569 571//571
f 570//570 571//571 572//572
f 572//572 571//571 573//573
f 572//572 573//573 574//574
f 574//574 573//573 575//575
f 574//574 575//575 576//576
f 470//470 577//577 469//469
f 577//577 470//470 578//578
f 469//469 579//579 471//471
f 579//579 469//469 577//577
f 471//471 580//580 472//472
f 580//580 471//471 579//579
f 472//472 581//581 473//473
f 581//581 472//472 580//580
f 473//473 582//582 474//474
f 582//582 473//473 581//581
f 474//474 583//583 475//475
f 583//583 474//474 582//582
f 475//475 584//584 476//476
f 584//584 475//475 583//583
f 476//476 585//585 477//477
f 585//585 476//476 584//584
f 477//477 586//586 478//478
f 586//586 477//477 585//585
f 478//478 587//587 479//479
f 587//587 478//478 586//586
f 479//479 588//588 480//480
f 588//588 479//479 587//587
f 480//480 589//589 481//481
f 589//589 480//480 588//588
f 481//481 590//590 482//482
f 590//590 481//481 589//589
f 482//482 591//591 483//483
f 591//591 482//482 590//590
f 483//483 592//592 484//484
f 592//592 483//483 591//591
f 484//484 593//593 485//485
f 593//593 484//484 592//592
f 485//485 594//594 486//486
f 594//594 485//485 593//593
f 486//486 595//595 487//487
f 595//595 486//486 594//594
f 487//487 596//596 488//488
f 596//596 487//487 595//595
f 488//488 597//597 489//489
f 597//597 488//488 596//596
f 489//489 598//598 490//490
f 598//598 489//489 597//597
f 490//490 599//599 491//491
f 599//599 490//490 598//598
f 491//491 600//600 492//492
f 600//600 491//491 599//599
f 492//492 601//601 493//493
f 601//601 492//492 600//600
f 493//493 602//602 494//494
f 602//602 493//493 601//601
f 494//494 603//603 495//495
f 603//603 494//494 602//602
f 495//495 604//604 496//496
f 604//604 495//495 603//603
f 496//496 605//605 497//497
f 605//605 496//496 604//604
f 497//497 606//606 498//498
f 606//606 497//497 605//605
f 498//498 607//607 499//499
f 607//607 498//498 606//606
f 499//499 608//608 500//500
f 608//608 499//499 607//607
f 500//500 609//609 501//501
f 609//609 500//500 608//608
f 501//501 610//610 502//502
f 610//610 501//501 609//609
f 502//502 611//611 503//503
f 611//611 502//502 610//610
f 503//503 612//612 504//504
f 612//612 503//503 611//611
f 504//504 578//578 470//470
f 578//578 504//504 612//612
f 613//613 615//615 614//614
f 614//614 615//615 616//616
f 616//616 615//615 617//617
f 616//616 617//617 618//618
f 618//618 617//617 619//619
f 618//618 619//619 620//620
f 620//620 619//619 621//621
f 620//620 621//621 622//622
f 622//622 621//621 623//623
f 622//622 623//623 624//624
f 624//624 623//623 625//625
f 624//624 625//625 626//626
f 626//626 625//625 627//627
f 626//626 627//627 628//628
f 628//628 627//627 629//629
f 628//628 629//629 630//630
f 630//630 629//629 631//631
f 630//630 631//631 632//632
f 632//632 631//631 633//633
f 632//632 633//633 634//634
f 634//634 633//633 635//635
f 634//634 635//635 636//636
f 636//636 635//635 637//637
f 636//636 637//637 638//638
f 638//638 637//637 639//639
f 638//638 639//639 640//640
f 640//640 639//639 641//641
f 640//640 641//641 642//642
f 642//642 641//641 643//643
f 642//642 643//643 644//644
f 644//644 643//643 645//645
f 644//644 645//645 646//646
f 646//646 645//645 647//647
f 646//646 647//647 648//648

