#usda 1.0
(
    customLayerData = {
        dictionary cameraSettings = {
            dictionary Front = {
                double3 position = (5, 0, 0)
                double radius = 5
            }
            dictionary Perspective = {
                double3 position = (3.4495065788308668, -0.026967235541538553, 0.5782819876356012)
                double3 target = (-2.4961107734087027, -0.034359406110381914, 0.28728035223132997)
            }
            dictionary Right = {
                double3 position = (0, -5, 0)
                double radius = 5
            }
            dictionary Top = {
                double3 position = (0, 0, 5)
                double radius = 5
            }
            string boundCamera = "/OmniverseKit_Persp"
        }
        dictionary omni_layer = {
            string authoring_layer = "./galbot_s1-v2_1_0-A21-ge103in.usd"
        }
        dictionary renderSettings = {
            double "rtx:directLighting:sampledLighting:maxRayUnexposedIntensity" = 6399.9990234375
            double "rtx:indirectDiffuse:maxRayUnexposedIntensity" = 6399.9990234375
            double "rtx:pathtracing:fireflyFilter:maxPerEmissiveUnexposedIntensity" = 3199.99951171875
            double "rtx:pathtracing:fireflyFilter:maxUnexposedIntensityPerSample" = 3199.99951171875
            double "rtx:pathtracing:fireflyFilter:maxUnexposedIntensityPerSampleDiffuse" = 3199.99951171875
            double "rtx:raytracing:inscattering:maxRTSampleUnexposedIntensity" = 204799.96875
            double "rtx:translucency:maxRayUnexposedIntensity" = 19199.998046875
        }
    }
    defaultPrim = "galbot_s1_v2_1_0_A21_ge103in"
    metersPerUnit = 1
    upAxis = "Z"
)

def "galbot_s1_v2_1_0_A21_ge103in"
{
}

