v 0.27316707 0.01223243 0.27500057
v 0.27276659 0.01219500 0.27422169
v 0.27294150 0.01248574 0.27414021
v 0.29425752 -0.00601329 0.28791991
v 0.29165807 0.00124769 0.28912720
v 0.29317200 0.00491339 0.28842363
v 0.29566941 0.00699635 0.28725648
v 0.29945400 0.00762071 0.28548777
v 0.30248263 0.00616604 0.28408319
v 0.30439895 0.00395428 0.28318915
v 0.30477095 -0.00305948 0.28301463
v 0.30302900 -0.00574235 0.28382230
v 0.30035290 -0.00734502 0.28507492
v 0.29762802 -0.00747515 0.28634569
v 0.29266071 -0.00399111 0.28866258
v 0.29164052 -0.00136287 0.28913224
v 0.30546656 0.00074627 0.28260821
v 0.29635626 0.00947586 0.28595763
v 0.27535450 -0.01571698 0.27300659
v 0.27787519 -0.01703249 0.27461573
v 0.27804336 -0.01812864 0.27177441
v 0.30683622 0.00059034 0.28107482
v 0.30672136 -0.00213119 0.28106657
v 0.30654126 0.00437825 0.28073844
v 0.30805507 0.00166423 0.27931052
v 0.30799979 0.00619473 0.27786562
v 0.30873868 0.00307611 0.27793595
v 0.29350477 0.01083036 0.28600565
v 0.29327327 0.00809547 0.28737965
v 0.29020613 0.00937902 0.28713661
v 0.30321464 0.00758952 0.28288433
v 0.29892135 0.01102138 0.28392497
v 0.29118851 0.01187568 0.28567991
v 0.28970271 0.01126764 0.28610843
v 0.28914362 0.01103270 0.28624871
v 0.30170634 0.01042014 0.28248489
v 0.29050058 0.01165499 0.28584480
v 0.29476315 0.01328914 0.28410068
v 0.29010114 0.01146506 0.28597152
v 0.28914362 0.01103270 0.28624871
v 0.28964022 0.01286552 0.28508532
v 0.28970271 0.01126764 0.28610843
v 0.29010114 0.01146506 0.28597152
v 0.29200593 0.01234736 0.28526637
v 0.28656605 0.01233423 0.28521776
v 0.28742641 0.01018343 0.28657615
v 0.29050058 0.01165499 0.28584480
v 0.29118851 0.01187568 0.28567991
v 0.29285917 0.01265044 0.28492701
v 0.29386801 0.01305530 0.28442258
v 0.29200593 0.01234736 0.28526637
v 0.29271370 0.01385818 0.28405997
v 0.29904860 0.01278579 0.28254095
v 0.29285917 0.01265044 0.28492701
v 0.29386801 0.01305530 0.28442258
v 0.30962229 -0.00060606 0.27664542
v 0.30853590 -0.00194735 0.27848658
v 0.30651799 0.01378644 0.26352474
v 0.30841225 0.01104173 0.26345822
v 0.30854720 0.01142314 0.26607531
v 0.29555407 0.01353867 0.28356799
v 0.30998364 0.00826988 0.26470092
v 0.31018594 0.00817314 0.26713720
v 0.29476315 0.01328914 0.28410068
v 0.31155193 0.00235092 0.26921538
v 0.31083614 0.00503577 0.27092478
v 0.31058684 0.00684613 0.26923573
v 0.31071982 0.00339682 0.27295205
v 0.31120110 0.00087119 0.27214283
v 0.31040025 -0.00039627 0.27473029
v 0.31027871 0.00110190 0.27499187
v 0.28868976 0.01480361 0.28350955
v 0.30315313 0.01736787 0.26872692
v 0.30498570 0.01570834 0.26944879
v 0.30329344 0.01717224 0.26949137
v 0.30649161 0.01384252 0.27072185
v 0.30866811 0.01111337 0.26921499
v 0.30784887 0.01157580 0.27195922
v 0.31105235 0.00522320 0.26520061
v 0.29555407 0.01353867 0.28356799
v 0.30401397 0.00995160 0.28069955
v 0.30554378 0.00678344 0.28094736
v 0.30907205 0.00883663 0.27300999
v 0.31149781 -0.00293955 0.26896828
v 0.31171677 -0.00119602 0.26626039
v 0.31130013 -0.00188485 0.26317501
v 0.31141007 0.00202639 0.26376677
v 0.30998671 -0.00269624 0.25900760
v 0.31061417 -0.00044328 0.26016140
v 0.30929890 -0.00149752 0.25717920
v 0.31097412 -0.00250513 0.27243912
v 0.31045231 -0.00209472 0.27446827
v 0.31057221 -0.00434722 0.26157904
v 0.31111449 -0.00487671 0.26496026
v 0.31045231 -0.00209472 0.27446827
v 0.31045410 -0.00098118 0.27450264
v 0.30957320 -0.00590971 0.25967032
v 0.30870685 -0.00560265 0.25746334
v 0.31039104 -0.00285903 0.27417898
v 0.31087124 -0.00435830 0.27152976
v 0.31048808 0.00408723 0.26113328
v 0.31018245 0.00289971 0.25953615
v 0.30942065 0.00603798 0.25941208
v 0.30923021 0.00273234 0.25721771
v 0.31155068 0.00294553 0.26732960
v 0.31079727 -0.00615166 0.26907578
v 0.30994210 -0.00697741 0.26196542
v 0.31031644 -0.00377885 0.27394089
v 0.31041721 -0.00727422 0.26518527
v 0.30874556 -0.00448320 0.27735105
v 0.30288610 0.01763491 0.26774487
v 0.30315313 0.01736787 0.26872692
v 0.30095756 0.01886950 0.26915899
v 0.30436230 0.01643889 0.26635230
v 0.30649066 0.01430300 0.26685336
v 0.30826202 0.00716162 0.25766635
v 0.30983180 0.00730208 0.26185483
v 0.30778337 -0.00858050 0.25791019
v 0.31026921 -0.00444302 0.27367920
v 0.31039104 -0.00285903 0.27417898
v 0.31031644 -0.00377885 0.27394089
v 0.30860245 -0.01003958 0.26185456
v 0.31017566 -0.00517984 0.27343512
v 0.30950931 -0.00903090 0.26369259
v 0.30913422 -0.00621770 0.27558231
v 0.31026921 -0.00444302 0.27367920
v 0.28478917 0.01462517 0.28294432
v 0.28415236 0.01188821 0.28490341
v 0.29086229 0.01574467 0.28258735
v 0.29724440 0.01396743 0.28244671
v 0.30515176 0.01437160 0.26081944
v 0.30444765 0.01595274 0.26337299
v 0.30702287 0.01232045 0.26133633
v 0.31045410 -0.00098118 0.27450264
v 0.30817491 0.00957950 0.25989890
v 0.30974290 -0.00920043 0.26739454
v 0.31017566 -0.00517984 0.27343512
v 0.30688122 -0.01065118 0.25832790
v 0.30956671 -0.00794105 0.27263442
v 0.31002906 -0.00594070 0.27321631
v 0.29653463 0.01379977 0.28294417
v 0.29995877 0.01937811 0.26475587
v 0.29853156 0.02017199 0.26812392
v 0.30288610 0.01763491 0.26774487
v 0.30960140 0.00476799 0.27535784
v 0.31007528 0.00271305 0.27510265
v 0.30969578 0.00413449 0.27546176
v 0.31002906 -0.00594070 0.27321631
v 0.30891424 -0.01037878 0.27053916
v 0.30734339 -0.01195047 0.26161575
v 0.30981141 -0.00678024 0.27308834
v 0.30981141 -0.00678024 0.27308834
v 0.30245110 0.01795015 0.26658347
v 0.31007528 0.00271305 0.27510265
v 0.30969578 0.00413449 0.27546176
v 0.30630043 0.01181094 0.25858617
v 0.30842873 -0.01148097 0.26545998
v 0.30690807 -0.01208272 0.26043716
v 0.30645323 -0.01200692 0.25939527
v 0.30764216 -0.01189628 0.26258335
v 0.30963060 -0.00741617 0.27289444
v 0.30817866 -0.01167199 0.26451862
v 0.30694708 -0.00441598 0.28021577
v 0.30879641 -0.00818874 0.27458861
v 0.30792615 -0.01180026 0.26354992
v 0.29426935 0.01557687 0.28210089
v 0.30851489 -0.01140269 0.26624358
v 0.30764216 -0.01189628 0.26258335
v 0.30734339 -0.01195047 0.26161575
v 0.30690807 -0.01208272 0.26043716
v 0.30691290 -0.01342380 0.26406729
v 0.30792615 -0.01180026 0.26354992
v 0.30963060 -0.00741617 0.27289444
v 0.30956671 -0.00794105 0.27263442
v 0.30842873 -0.01148097 0.26545998
v 0.30817866 -0.01167199 0.26451862
v 0.30873531 -0.01108135 0.26755622
v 0.30602792 -0.01223000 0.25871393
v 0.30645323 -0.01200692 0.25939527
v 0.30881467 -0.01087954 0.26871040
v 0.30927706 -0.00858692 0.27248061
v 0.30906454 -0.00918499 0.27227518
v 0.30927706 -0.00858692 0.27248061
v 0.30884451 -0.01062713 0.26970628
v 0.30734289 -0.01321230 0.26712367
v 0.30851489 -0.01140269 0.26624358
v 0.30393577 -0.01509026 0.25969505
v 0.30877170 -0.01015023 0.27144533
v 0.29700544 0.02074627 0.26555392
v 0.30873531 -0.01108135 0.26755622
v 0.30825007 -0.01041106 0.27299756
v 0.30906454 -0.00918499 0.27227518
v 0.30487695 -0.01530331 0.26260039
v 0.30874860 -0.00981533 0.27228680
v 0.30881467 -0.01087954 0.26871040
v 0.30874860 -0.00981533 0.27228680
v 0.30891424 -0.01037878 0.27053916
v 0.30884451 -0.01062713 0.26970628
v 0.30877170 -0.01015023 0.27144533
v 0.28141579 0.01232604 0.28345951
v 0.28257781 0.01473644 0.28196517
v 0.29653463 0.01379977 0.28294417
v 0.29801029 0.01420556 0.28181842
v 0.31040025 -0.00039627 0.27473029
v 0.30575347 -0.01503028 0.26558417
v 0.30712047 -0.01303931 0.27090135
v 0.30825007 -0.01041106 0.27299756
v 0.30874860 -0.00981533 0.27228680
v 0.30734304 -0.00687285 0.27847922
v 0.30995318 0.00663800 0.27288336
v 0.30226696 -0.01687474 0.26049984
v 0.30345383 0.01563694 0.25990936
v 0.30310670 -0.01739205 0.26511791
v 0.30758563 -0.01107289 0.27378541
v 0.29625213 0.01594584 0.28094053
v 0.29724440 0.01396743 0.28244671
v 0.29905909 0.01437540 0.28100055
v 0.30147812 0.01314922 0.28040749
v 0.30147064 0.01831631 0.26393726
v 0.30173761 0.01825636 0.26467451
v 0.30135167 0.01835125 0.26328757
v 0.30212852 0.01811201 0.26560611
v 0.30173761 0.01825636 0.26467451
v 0.30488339 -0.01599005 0.26778063
v 0.30761516 -0.01087026 0.27396804
v 0.30675358 -0.00979979 0.27717584
v 0.30758563 -0.01107289 0.27378541
v 0.29801029 0.01420556 0.28181842
v 0.30212852 0.01811201 0.26560611
v 0.30245110 0.01795015 0.26658347
v 0.30702880 -0.01140536 0.27464482
v 0.30006295 -0.01861828 0.26148653
v 0.30127281 -0.01835291 0.26338488
v 0.30761516 -0.01087026 0.27396804
v 0.30702880 -0.01140536 0.27464482
v 0.30558878 -0.01372851 0.27393243
v 0.31027871 0.00110190 0.27499187
v 0.30147064 0.01831631 0.26393726
v 0.30044678 0.01834773 0.26131007
v 0.30076036 0.01842920 0.26245156
v 0.30492803 -0.01553962 0.27072641
v 0.30599573 -0.01199258 0.27593622
v 0.30135167 0.01835125 0.26328757
v 0.30269358 -0.01775176 0.26869759
v 0.29865429 -0.01996898 0.26448864
v 0.30024180 -0.01932835 0.26611963
v 0.28779721 0.01660394 0.28155011
v 0.30415100 -0.01544108 0.27338195
v 0.30599573 -0.01199258 0.27593622
v 0.30569294 -0.00953713 0.27900529
v 0.30076036 0.01842920 0.26245156
v 0.30287454 -0.01714677 0.27144837
v 0.29905909 0.01437540 0.28100055
v 0.29813507 0.01981946 0.26238063
v 0.29984185 -0.01951886 0.26855114
v 0.30123389 -0.01830431 0.27155140
v 0.30489686 -0.00769332 0.28123179
v 0.30414018 -0.01281242 0.27786621
v 0.29224670 0.01717825 0.28074992
v 0.29930678 0.01554244 0.27951318
v 0.29669693 -0.02090924 0.26695213
v 0.30334195 -0.01480105 0.27616268
v 0.30414018 -0.01281242 0.27786621
v 0.29631239 -0.02068557 0.26323912
v 0.30148619 -0.01693300 0.27500644
v 0.29830113 -0.02001436 0.27063197
v 0.29271227 -0.02175956 0.26494408
v 0.29837531 0.01950439 0.27276629
v 0.30241054 0.01721937 0.27250209
v 0.30070725 0.01756691 0.27472258
v 0.28880993 0.01804311 0.27985308
v 0.30164811 0.01470148 0.27845848
v 0.30427864 0.01581746 0.27203602
v 0.30682459 0.01222382 0.27385828
v 0.30415976 0.01496257 0.27449116
v 0.30889070 0.00681650 0.27557930
v 0.30859119 0.00755849 0.27561411
v 0.29573092 0.02111197 0.26913658
v 0.28487647 0.01750232 0.27971089
v 0.29478863 0.02094461 0.27175316
v 0.29765689 0.02031190 0.27033928
v 0.30859119 0.00755849 0.27561411
v 0.30823100 0.00837095 0.27572313
v 0.29425192 0.02136815 0.26420397
v 0.29397774 0.02160742 0.26755941
v 0.29502496 -0.02135273 0.26831052
v 0.30279067 -0.01322471 0.27902362
v 0.30330399 -0.01114048 0.28050092
v 0.29892880 -0.01858563 0.27463490
v 0.28113070 0.01614309 0.27951396
v 0.27958360 0.01414599 0.28071764
v 0.30164811 0.01470148 0.27845848
v 0.29203725 0.02186727 0.26906237
v 0.29257554 0.02102569 0.27315134
v 0.28969872 0.02136700 0.27268422
v 0.30399415 0.01572637 0.27297339
v 0.30381581 0.01623384 0.27188122
v 0.30915752 0.00603302 0.27556992
v 0.29127327 0.02196712 0.26559907
v 0.29517049 -0.02091128 0.27154312
v 0.30037093 -0.01566487 0.27851018
v 0.29256734 -0.02178456 0.26877642
v 0.29661277 -0.01996523 0.27352357
v 0.29685277 0.01756834 0.27845496
v 0.30889070 0.00681650 0.27557930
v 0.30279067 -0.01322471 0.27902362
v 0.30508682 0.01124489 0.27830654
v 0.28244373 0.01930060 0.27499643
v 0.28614661 0.02017423 0.27532291
v 0.28559929 0.01904061 0.27749220
v 0.28984737 -0.02204223 0.26626521
v 0.29202837 -0.02160076 0.27098882
v 0.30421802 0.01442991 0.27530679
v 0.30363822 0.01327338 0.27794677
v 0.30382124 0.01446250 0.27594027
v 0.30544141 0.01288356 0.27563590
v 0.30823100 0.00837095 0.27572313
v 0.30650628 0.00921209 0.27809238
v 0.28618732 0.02155583 0.26999959
v 0.28661972 0.02115305 0.27253902
v 0.30357489 0.01666553 0.27097979
v 0.30381581 0.01623384 0.27188122
v 0.30427864 0.01581746 0.27203602
v 0.30192298 -0.01346954 0.27961648
v 0.29462522 0.01774037 0.27928343
v 0.30479658 0.01361635 0.27564207
v 0.28932855 0.02194599 0.26928568
v 0.30346477 0.01693039 0.27031672
v 0.30276066 0.01577730 0.27532715
v 0.30032337 0.01639352 0.27742741
v 0.29708523 -0.01865208 0.27630603
v 0.30192298 -0.01346954 0.27961648
v 0.28833973 -0.02185928 0.26975775
v 0.29831034 -0.01692410 0.27839506
v 0.30101204 -0.01362290 0.28030220
v 0.30603388 0.01207746 0.27569321
v 0.30663213 0.01116423 0.27576914
v 0.30715171 0.01037382 0.27572778
v 0.28734443 0.02191496 0.26742098
v 0.30202627 -0.00955210 0.28278378
v 0.29126301 -0.02114299 0.27323472
v 0.29414928 -0.01999854 0.27538720
v 0.30022430 -0.01381675 0.28073621
v 0.29117891 0.01879503 0.27861044
v 0.29045963 0.02019492 0.27598172
v 0.29315799 0.01947013 0.27695736
v 0.30101204 -0.01362290 0.28030220
v 0.27661398 0.01390922 0.27817965
v 0.27711686 0.01194317 0.28080902
v 0.30329344 0.01717224 0.26949137
v 0.28816614 0.01982605 0.27667847
v 0.30421802 0.01442991 0.27530679
v 0.30382124 0.01446250 0.27594027
v 0.30346477 0.01693039 0.27031672
v 0.30357489 0.01666553 0.27097979
v 0.29632470 -0.01737376 0.27905104
v 0.29996017 -0.01185575 0.28272802
v 0.29211840 -0.02004826 0.27601418
v 0.28780371 -0.02124307 0.27284035
v 0.29542381 0.01984556 0.27490640
v 0.30915752 0.00603302 0.27556992
v 0.29923612 -0.01391430 0.28134781
v 0.29683080 -0.01527104 0.28141057
v 0.30022430 -0.01381675 0.28073621
v 0.27849564 0.01627734 0.27695543
v 0.28052309 0.01911061 0.27316964
v 0.28119355 0.01793345 0.27683455
v 0.30415976 0.01496257 0.27449116
v 0.30748355 0.00974163 0.27578318
v 0.29923612 -0.01391430 0.28134781
v 0.30479658 0.01361635 0.27564207
v 0.30421802 0.01442991 0.27530679
v 0.29287520 -0.01857227 0.27864394
v 0.28613165 -0.02177113 0.26799703
v 0.28375450 -0.02078598 0.27144632
v 0.30544141 0.01288356 0.27563590
v 0.28861660 -0.02008220 0.27626467
v 0.29831618 -0.01387709 0.28196767
v 0.29831618 -0.01387709 0.28196767
v 0.29347301 -0.01674120 0.28104594
v 0.30603388 0.01207746 0.27569321
v 0.30784792 0.00910887 0.27573162
v 0.28331807 0.02068762 0.27131483
v 0.30960140 0.00476799 0.27535784
v 0.28986764 -0.01890345 0.27853474
v 0.28472295 -0.02014537 0.27465770
v 0.28459188 0.02048842 0.27346915
v 0.29758704 -0.01395947 0.28227532
v 0.29810402 0.01865046 0.27544433
v 0.29758704 -0.01395947 0.28227532
v 0.29696405 -0.01233865 0.28395540
v 0.29698554 -0.01392960 0.28260100
v 0.30403891 0.01534044 0.27380937
v 0.30715171 0.01037382 0.27572778
v 0.30663213 0.01116423 0.27576914
v 0.29698554 -0.01392960 0.28260100
v 0.29637221 -0.01404566 0.28276864
v 0.28188932 -0.01927550 0.27447486
v 0.29087970 -0.01691112 0.28126642
v 0.29569748 -0.01402002 0.28308913
v 0.28035653 -0.01968216 0.27070260
v 0.30784792 0.00910887 0.27573162
v 0.30748355 0.00974163 0.27578318
v 0.29432100 -0.01401271 0.28361127
v 0.29637221 -0.01404566 0.28276864
v 0.29569748 -0.01402002 0.28308913
v 0.28552794 -0.01831729 0.27871656
v 0.29499719 -0.01394296 0.28338090
v 0.28325298 -0.01862613 0.27703056
v 0.27521831 0.01439579 0.27548978
v 0.27452272 0.01220926 0.27742547
v 0.30399415 0.01572637 0.27297339
v 0.28730136 -0.01702198 0.28102452
v 0.28014910 0.01958669 0.27078119
v 0.27765307 0.01706529 0.27419469
v 0.29499719 -0.01394296 0.28338090
v 0.29403377 -0.01230307 0.28496018
v 0.29737851 -0.00981939 0.28537425
v 0.27907678 -0.01809495 0.27383024
v 0.27876934 -0.01816716 0.27309868
v 0.29023266 -0.01480714 0.28349954
v 0.29432100 -0.01401271 0.28361127
v 0.29370204 -0.01387769 0.28380173
v 0.27960792 -0.01806291 0.27468583
v 0.29278195 -0.01375234 0.28410789
v 0.29370204 -0.01387769 0.28380173
v 0.28029519 -0.01796673 0.27574971
v 0.27876934 -0.01816716 0.27309868
v 0.27907678 -0.01809495 0.27383024
v 0.28079790 -0.01782426 0.27659753
v 0.29278195 -0.01375234 0.28410789
v 0.28709108 -0.01448685 0.28362948
v 0.28319687 -0.01682752 0.27981639
v 0.28104937 -0.01765091 0.27708933
v 0.28167060 -0.01749682 0.27786526
v 0.27960792 -0.01806291 0.27468583
v 0.30294615 0.01464267 0.27694249
v 0.30403891 0.01534044 0.27380937
v 0.28213128 -0.01732150 0.27845109
v 0.29167917 -0.01363020 0.28436705
v 0.28279653 -0.01711697 0.27916980
v 0.28029519 -0.01796673 0.27574971
v 0.28079790 -0.01782426 0.27659753
v 0.29497591 -0.00916349 0.28654921
v 0.28387755 -0.01654094 0.28048944
v 0.29167917 -0.01363020 0.28436705
v 0.30294615 0.01464267 0.27694249
v 0.28432226 -0.01622936 0.28105688
v 0.28279653 -0.01711697 0.27916980
v 0.28213128 -0.01732150 0.27845109
v 0.28103453 -0.01582986 0.27984503
v 0.28621951 -0.01497311 0.28294516
v 0.28319687 -0.01682752 0.27981639
v 0.29063317 -0.01346179 0.28458679
v 0.28167060 -0.01749682 0.27786526
v 0.28104937 -0.01765091 0.27708933
v 0.27903837 -0.01619438 0.27764541
v 0.28975737 -0.01320425 0.28485748
v 0.29063317 -0.01346179 0.28458679
v 0.28547707 -0.01549917 0.28223029
v 0.28502819 -0.01589058 0.28169006
v 0.28780684 -0.01386852 0.28418860
v 0.28387755 -0.01654094 0.28048944
v 0.28432226 -0.01622936 0.28105688
v 0.28883076 -0.01316121 0.28481677
v 0.27633896 -0.01473654 0.27670899
v 0.29227623 -0.01021305 0.28657269
v 0.27457541 0.01481329 0.27338099
v 0.27689967 0.01719428 0.27229318
v 0.28975737 -0.01320425 0.28485748
v 0.28547707 -0.01549917 0.28223029
v 0.28502819 -0.01589058 0.28169006
v 0.28416651 -0.01440508 0.28293106
v 0.28621951 -0.01497311 0.28294516
v 0.28709108 -0.01448685 0.28362948
v 0.28621590 -0.01251563 0.28499454
v 0.28780684 -0.01386852 0.28418860
v 0.27896187 -0.01425113 0.28014761
v 0.28883076 -0.01316121 0.28481677
v 0.28860018 -0.01271045 0.28516197
v 0.28214201 -0.01382601 0.28258917
v 0.28883076 -0.01316121 0.28481677
v 0.28860018 -0.01271045 0.28516197
v 0.28822070 -0.01111867 0.28617632
v 0.27429214 -0.01306610 0.27596083
v 0.28829163 -0.01184922 0.28568944
v 0.28829163 -0.01184922 0.28568944
v 0.27617446 -0.01200728 0.27980334
v 0.28324267 -0.01183320 0.28462693
v 0.28822070 -0.01111867 0.28617632
v 0.28958750 -0.00827075 0.28763935
v 0.28077707 -0.01155007 0.28369898
v 0.27837455 -0.01233459 0.28150582
v 0.28839815 0.01055245 0.28646010
v 0.28839815 0.01055245 0.28646010
v 0.28797197 -0.01001844 0.28672305
v 0.28608289 -0.01008071 0.28644210
v 0.27287954 -0.01240919 0.27416810
v 0.27285856 -0.01074145 0.27646208
v 0.29117480 -0.00721091 0.28797430
v 0.27431840 -0.01055494 0.27892405
v 0.28661990 0.00972445 0.28677717
v 0.28742641 0.01018343 0.28657615
v 0.27788836 0.01155991 0.28172553
v 0.27893776 0.01131736 0.28273383
v 0.27315238 0.01067477 0.27706626
v 0.27374163 0.01220870 0.27615026
v 0.27452272 0.01220926 0.27742547
v 0.27606177 0.01202978 0.27962860
v 0.27522796 0.01214792 0.27845076
v 0.27316707 0.01223243 0.27500057
v 0.27374163 0.01220870 0.27615026
v 0.27316707 0.01223243 0.27500057
v 0.27294150 0.01248574 0.27414021
v 0.28797197 -0.01001844 0.28672305
v 0.28765550 -0.00872633 0.28729808
v 0.28315628 -0.00946242 0.28598735
v 0.27850425 -0.00995408 0.28336111
v 0.28765550 -0.00872633 0.28729808
v 0.28563011 -0.00712066 0.28765982
v 0.28901836 0.00624362 0.28834659
v 0.28405058 0.00937212 0.28629091
v 0.28300011 0.00978385 0.28574371
v 0.28101981 0.01058751 0.28442973
v 0.27988219 0.01100713 0.28353038
v 0.27788836 0.01155991 0.28172553
v 0.27625382 0.01016168 0.28136379
v 0.27711686 0.01194317 0.28080902
v 0.28661990 0.00972445 0.28677717
v 0.28586155 0.00922492 0.28681001
v 0.27606177 0.01202978 0.27962860
v 0.28198546 0.01016104 0.28512096
v 0.27112421 0.00903763 0.27498317
v 0.27522796 0.01214792 0.27845076
v 0.28112131 -0.00861506 0.28557712
v 0.28727910 -0.00689855 0.28797260
v 0.28727910 -0.00689855 0.28797260
v 0.27683303 -0.00919226 0.28252578
v 0.27256247 -0.00822678 0.27834037
v 0.28538197 0.00708161 0.28761742
v 0.28586155 0.00922492 0.28681001
v 0.28216282 0.00839074 0.28613028
v 0.28405058 0.00937212 0.28629091
v 0.28520054 0.00889033 0.28681695
v 0.27852234 0.00892948 0.28396714
v 0.28101981 0.01058751 0.28442973
v 0.28529036 0.00801402 0.28721201
v 0.28520054 0.00889033 0.28681695
v 0.28300011 0.00978385 0.28574371
v 0.27988219 0.01100713 0.28353038
v 0.27893776 0.01131736 0.28273383
v 0.27332389 0.00887533 0.27897602
v 0.28198546 0.01016104 0.28512096
v 0.28520054 0.00889033 0.28681695
v 0.27141905 -0.00962221 0.27484721
v 0.27439708 -0.00722730 0.28131309
v 0.28923908 -0.00481172 0.28870448
v 0.28264788 -0.00591568 0.28721800
v 0.27976179 -0.00635141 0.28582951
v 0.27023801 -0.00633996 0.27539286
v 0.27663884 -0.00689780 0.28354883
v 0.28552812 0.00578182 0.28801537
v 0.28527865 0.00623838 0.28783357
v 0.28294334 0.00653090 0.28712469
v 0.28538197 0.00708161 0.28761742
v 0.27362201 0.00634182 0.28085843
v 0.27533025 0.00797126 0.28186092
v 0.28529036 0.00801402 0.28721201
v 0.27933177 0.00595183 0.28573060
v 0.27184615 0.00639948 0.27838114
v 0.28695396 -0.00493874 0.28847790
v 0.28695396 -0.00493874 0.28847790
v 0.27184328 -0.00541122 0.27893186
v 0.28475195 -0.00427629 0.28823206
v 0.27730671 -0.00424764 0.28491604
v 0.28844908 -0.00247370 0.28905952
v 0.27444673 -0.00428387 0.28250936
v 0.26961958 -0.00325353 0.27570683
v 0.27657947 0.00546223 0.28403673
v 0.27436492 0.00388337 0.28253421
v 0.28199780 0.00334686 0.28756893
v 0.28554255 0.00474101 0.28832665
v 0.28573588 0.00390497 0.28852910
v 0.28981024 0.00380432 0.28890350
v 0.28554255 0.00474101 0.28832665
v 0.27233270 0.00311740 0.28040460
v 0.28552812 0.00578182 0.28801537
v 0.26976398 0.00431409 0.27562803
v 0.27071390 0.00457398 0.27737287
v 0.28527865 0.00623838 0.28783357
v 0.28263485 -0.00244058 0.28792983
v 0.27977714 -0.00302379 0.28662565
v 0.28643045 -0.00183233 0.28891426
v 0.27305573 -0.00270874 0.28134698
v 0.27078289 -0.00198278 0.27834508
v 0.28643045 -0.00183233 0.28891426
v 0.27504769 -0.00116422 0.28362760
v 0.27768102 -0.00171866 0.28557846
v 0.28446826 0.00122063 0.28857890
v 0.28034246 -0.00013225 0.28715926
v 0.27351451 0.00048015 0.28215078
v 0.27153385 -0.00017322 0.27963620
v 0.28612706 0.00041090 0.28892216
v 0.28612706 0.00041090 0.28892216
v 0.28206336 0.00067779 0.28784886
v 0.28801984 0.00143662 0.28911582
v 0.27706942 0.00141989 0.28521687
v 0.26941377 0.00012252 0.27578130
v 0.27050403 0.00165254 0.27786338
v 0.28591684 0.00162861 0.28880987
v 0.28591684 0.00162861 0.28880987
v 0.27857253 0.00329336 0.28591543
v 0.28583834 0.00286029 0.28867042
v 0.28583834 0.00286029 0.28867042
v 0.28573588 0.00390497 0.28852910
v 0.27804336 -0.01812864 0.27177441
v 0.28283006 -0.02080960 0.26952830
v 0.30602792 -0.01223000 0.25871393
v 0.30044678 0.01834773 0.26131007
v 0.28427777 0.02131540 0.26885244
v 0.27276659 0.01219500 0.27422169
vt 0.33988845 0.68657273
vt 0.33782175 0.69265693
vt 0.33948979 0.69350582
vt 0.16382192 0.85693091
vt 0.17204569 0.79890186
vt 0.15366679 0.77490568
vt 0.13014333 0.76434493
vt 0.09885128 0.76688147
vt 0.07722642 0.78320432
vt 0.06574059 0.80298847
vt 0.07484173 0.85503858
vt 0.09334342 0.87141448
vt 0.11747126 0.87811846
vt 0.13943569 0.87395990
vt 0.17307633 0.83913219
vt 0.17666650 0.81798041
vt 0.06240335 0.82856286
vt 0.11639255 0.74842250
vt 0.89885640 0.58790660
vt 0.87776393 0.59937584
vt 0.89385158 0.60995626
vt 0.04808256 0.83313358
vt 0.05343521 0.85290211
vt 0.04198052 0.80530411
vt 0.03162056 0.82871091
vt 0.01824894 0.79685295
vt 0.01942021 0.82066566
vt 0.13157134 0.73438662
vt 0.14330374 0.75275797
vt 0.15872297 0.73921347
vt 0.06542516 0.77498078
vt 0.08984651 0.74272466
vt 0.14251283 0.72372603
vt 0.15433027 0.72565055
vt 0.15864633 0.72652638
vt 0.06808052 0.75249207
vt 0.14773414 0.72421610
vt 0.11190003 0.71999735
vt 0.15100355 0.72491181
vt 0.89592034 0.67790842
vt 0.88750315 0.68755931
vt 0.89657760 0.68243510
vt 0.89687222 0.68576998
vt 0.13504083 0.72184557
vt 0.87827557 0.66604465
vt 0.89319748 0.66430509
vt 0.89719391 0.68908572
vt 0.89817238 0.69450837
vt 0.12794888 0.72117144
vt 0.11906650 0.72012746
vt 0.89775652 0.70191067
vt 0.89027959 0.71264267
vt 0.08037376 0.73132098
vt 0.89813846 0.70908761
vt 0.89783680 0.71798652
vt 0.01511538 0.85012603
vt 0.03155074 0.85662353
vt 0.24606444 0.76131326
vt 0.25002977 0.78441399
vt 0.26919594 0.77992749
vt 0.10449750 0.71982622
vt 0.26292023 0.80625564
vt 0.28104874 0.80551195
vt 0.89820045 0.72531426
vt 0.30059603 0.84876162
vt 0.31082246 0.82674342
vt 0.29748827 0.81432641
vt 0.32586911 0.83708769
vt 0.32169464 0.85691547
vt 0.33940840 0.86306649
vt 0.34057239 0.85171223
vt 0.87116909 0.68912476
vt 0.27641016 0.72606051
vt 0.28564629 0.74054992
vt 0.28230107 0.72715139
vt 0.29834065 0.75563651
vt 0.29236069 0.78010839
vt 0.31062379 0.77344984
vt 0.26954246 0.82986581
vt 0.89755046 0.73262393
vt 0.04757547 0.76092982
vt 0.04474896 0.78607029
vt 0.32144457 0.79465300
vt 0.30038324 0.88757527
vt 0.28054872 0.87712312
vt 0.25753963 0.88375372
vt 0.26080674 0.85486561
vt 0.22501388 0.89067203
vt 0.23387112 0.87431681
vt 0.21003559 0.88214892
vt 0.32449520 0.88105953
vt 0.33804175 0.87572461
vt 0.24534287 0.90180093
vt 0.27112836 0.90406936
vt 0.00370592 0.86433440
vt 0.00197408 0.85611063
vt 0.23007570 0.91306895
vt 0.21229200 0.91106993
vt 0.33616301 0.88147759
vt 0.31828019 0.89512950
vt 0.23925696 0.84025151
vt 0.22744605 0.84962952
vt 0.22410177 0.82554972
vt 0.20883568 0.85103840
vt 0.28668872 0.84577280
vt 0.30086294 0.90992188
vt 0.24780148 0.91979438
vt 0.33458012 0.88827139
vt 0.27221307 0.92037052
vt 0.02999836 0.87657845
vt 0.81492770 0.83890557
vt 0.82262778 0.83709353
vt 0.81555426 0.82320988
vt 0.26171854 0.73647535
vt 0.27006254 0.75506914
vt 0.20886180 0.81678450
vt 0.24224213 0.81516701
vt 0.21475112 0.93110377
vt 0.33280635 0.89324957
vt 0.00423715 0.87008989
vt 0.00530047 0.87694728
vt 0.24544218 0.94019914
vt 0.33109224 0.89867663
vt 0.26019865 0.93289536
vt 0.02339527 0.89153242
vt 0.00567424 0.88198316
vt 0.85399556 0.66493535
vt 0.86835557 0.65049744
vt 0.87151253 0.70783466
vt 0.08891128 0.72019070
vt 0.22362655 0.75685591
vt 0.24036410 0.74233037
vt 0.23156849 0.77442122
vt 0.33804742 0.86759853
vt 0.22416666 0.79732591
vt 0.28761646 0.93181682
vt 0.00651460 0.88747543
vt 0.21674541 0.94455194
vt 0.32499424 0.91852027
vt 0.32946634 0.90417951
vt 0.09554417 0.71999389
vt 0.78274208 0.83181632
vt 0.79843020 0.81235695
vt 0.26867697 0.72439206
vt 0.34082690 0.82355756
vt 0.34050637 0.83952475
vt 0.34189901 0.82826877
vt 0.00780997 0.89305270
vt 0.30930853 0.93687266
vt 0.24193671 0.95240515
vt 0.32835728 0.91004366
vt 0.01004452 0.89901918
vt 0.80542022 0.84033704
vt 0.00034221 0.82795787
vt 0.00166879 0.81666362
vt 0.21037051 0.77900356
vt 0.27179825 0.94788051
vt 0.23263155 0.95315647
vt 0.22415413 0.95288432
vt 0.24952272 0.95176846
vt 0.32684216 0.91458917
vt 0.26453906 0.94956034
vt 0.05251576 0.87076688
vt 0.02478114 0.90643567
vt 0.25705898 0.95079339
vt 0.88061124 0.73175752
vt 0.27763286 0.94685280
vt 0.85467589 0.23483706
vt 0.86216807 0.23589242
vt 0.87161386 0.23674506
vt 0.84910870 0.22314262
vt 0.84716779 0.23370159
vt 0.01145089 0.90359390
vt 0.01189784 0.90738529
vt 0.83235103 0.23114014
vt 0.83970147 0.23236614
vt 0.28747231 0.94383991
vt 0.88608992 0.23633093
vt 0.87988788 0.23722219
vt 0.29590839 0.94156635
vt 0.01391387 0.91206503
vt 0.32183257 0.92710328
vt 0.32351691 0.92288566
vt 0.30314165 0.93908495
vt 0.82692945 0.21628535
vt 0.82668215 0.22932696
vt 0.88995868 0.21546173
vt 0.31554931 0.93431044
vt 0.77555519 0.81152004
vt 0.81671143 0.22693884
vt 0.02539854 0.92346090
vt 0.01544097 0.91628850
vt 0.86786819 0.21193874
vt 0.01844805 0.92049044
vt 0.80840391 0.22395825
vt 0.32149407 0.93118769
vt 0.79530025 0.21893674
vt 0.80123669 0.22123837
vt 0.78907251 0.21568096
vt 0.84871554 0.63774818
vt 0.83968627 0.65367395
vt 0.89660746 0.74153173
vt 0.08128312 0.72015119
vt 0.00219976 0.85154086
vt 0.84473801 0.20836926
vt 0.80193478 0.20269191
vt 0.78059995 0.20678103
vt 0.78302896 0.21317279
vt 0.04724357 0.89098507
vt 0.32289162 0.81221360
vt 0.89217168 0.19939941
vt 0.21340075 0.74560380
vt 0.85930723 0.18920565
vt 0.77825207 0.19893581
vt 0.87954825 0.74920982
vt 0.89564496 0.74809939
vt 0.07127691 0.72118419
vt 0.05627059 0.73418218
vt 0.78427351 0.84307551
vt 0.79008412 0.84232533
vt 0.23314278 0.71999085
vt 0.25153962 0.72129011
vt 0.24398610 0.72030073
vt 0.83398104 0.19415021
vt 0.03402568 0.92497277
vt 0.05053352 0.91282344
vt 0.03389159 0.92645633
vt 0.89393312 0.75556600
vt 0.79771334 0.84165031
vt 0.25929755 0.72233731
vt 0.04126816 0.92741281
vt 0.89473134 0.17923921
vt 0.87791282 0.18142462
vt 0.77666515 0.19877255
vt 0.77473271 0.19190061
vt 0.78715569 0.18170196
vt 0.00141348 0.84014910
vt 0.23809707 0.71998745
vt 0.21704444 0.72003573
vt 0.22591260 0.71910417
vt 0.81335819 0.18541044
vt 0.76990968 0.18014348
vt 0.77962822 0.84410173
vt 0.83698326 0.17428881
vt 0.88074666 0.15829599
vt 0.86403823 0.16435349
vt 0.85274595 0.69215089
vt 0.79769391 0.17169601
vt 0.05384920 0.92896616
vt 0.06400041 0.90762508
vt 0.77197188 0.84339833
vt 0.81704211 0.16729641
vt 0.89208376 0.76543975
vt 0.76027173 0.82816654
vt 0.84915984 0.15349901
vt 0.82299125 0.15453774
vt 0.07476301 0.89084995
vt 0.76371968 0.16043353
vt 0.86243314 0.72502446
vt 0.88164097 0.77358067
vt 0.87145019 0.13600260
vt 0.78049231 0.15807402
vt 0.07441539 0.93046182
vt 0.89727831 0.14588141
vt 0.79698074 0.14672363
vt 0.84052920 0.13581252
vt 0.89824146 0.11497015
vt 0.82894236 0.79510057
vt 0.84471667 0.81954056
vt 0.85261244 0.80142635
vt 0.84326208 0.70641810
vt 0.04459562 0.72491300
vt 0.30309412 0.73677051
vt 0.32229593 0.76573151
vt 0.32100102 0.74105138
vt 0.00245483 0.79577559
vt 0.00309685 0.78987229
vt 0.79378337 0.79177254
vt 0.82923251 0.68011904
vt 0.80767149 0.77668029
vt 0.80951798 0.79945713
vt 0.33987319 0.80137140
vt 0.33961356 0.79482865
vt 0.75619978 0.79859775
vt 0.77666116 0.78604954
vt 0.86800349 0.11987299
vt 0.76059490 0.14713657
vt 0.08738582 0.91451526
vt 0.80961341 0.12877321
vt 0.81668156 0.65411162
vt 0.82187527 0.63716108
vt 0.88423675 0.79138517
vt 0.77919179 0.76860791
vt 0.80882496 0.75753289
vt 0.79515797 0.74050373
vt 0.30940777 0.73629832
vt 0.30094713 0.73313373
vt 0.00210052 0.80189282
vt 0.75389045 0.77510560
vt 0.84516490 0.11085081
vt 0.77493548 0.12952477
vt 0.87292916 0.10145032
vt 0.82610071 0.11520201
vt 0.86323428 0.76360852
vt 0.34044024 0.80728823
vt 0.08805963 0.93034220
vt 0.02904600 0.75529349
vt 0.78751230 0.68203002
vt 0.80144513 0.70665920
vt 0.81520110 0.69432485
vt 0.89842647 0.09125113
vt 0.85939747 0.09087527
vt 0.01655751 0.73359734
vt 0.03287823 0.73872226
vt 0.02150822 0.73219359
vt 0.01315536 0.74637353
vt 0.00432115 0.78329325
vt 0.02305518 0.77240902
vt 0.76508820 0.72637492
vt 0.78365898 0.72031170
vt 0.83973485 0.83150113
vt 0.84704787 0.82954186
vt 0.85024756 0.83146000
vt 0.09616079 0.93043733
vt 0.86050910 0.74637330
vt 0.01582592 0.74007189
vt 0.77097857 0.75005251
vt 0.83466774 0.83332872
vt 0.86632937 0.81056470
vt 0.87048215 0.78835285
vt 0.80404043 0.11097562
vt 0.75960344 0.13910580
vt 0.87921566 0.07006091
vt 0.78376222 0.11455888
vt 0.10476201 0.92961091
vt 0.01117191 0.75305986
vt 0.00942794 0.76052821
vt 0.00745442 0.76709211
vt 0.75192976 0.74303162
vt 0.10174142 0.89886910
vt 0.84593332 0.07905817
vt 0.82104737 0.09270406
vt 0.75769877 0.12370622
vt 0.84248841 0.72723222
vt 0.82090104 0.73306191
vt 0.83778536 0.74670351
vt 0.75804240 0.13060594
vt 0.79527140 0.62555194
vt 0.81690890 0.61749202
vt 0.82836056 0.83523142
vt 0.81785750 0.71507674
vt 0.87325346 0.81842130
vt 0.87590218 0.81374097
vt 0.28863826 0.72874188
vt 0.29381481 0.73022449
vt 0.78600395 0.09863037
vt 0.11803094 0.91282648
vt 0.82304901 0.07709181
vt 0.85919434 0.05722529
vt 0.83193010 0.76897830
vt 0.34108633 0.81345725
vt 0.75671113 0.11501133
vt 0.76554275 0.09704030
vt 0.11164643 0.92943251
vt 0.79059982 0.64529026
vt 0.76915246 0.67508113
vt 0.79696858 0.66582298
vt 0.86687809 0.82132339
vt 0.00676103 0.77214390
vt 0.12031851 0.92818177
vt 0.33099875 0.75106984
vt 0.32719973 0.74446505
vt 0.80091476 0.07546395
vt 0.89761233 0.06124848
vt 0.88015389 0.03547800
vt 0.33240515 0.75744402
vt 0.83200079 0.05296135
vt 0.75530928 0.10692525
vt 0.12838203 0.92603022
vt 0.78028274 0.07399470
vt 0.33419883 0.76423061
vt 0.00546375 0.77737063
vt 0.76473588 0.70185578
vt 0.00078097 0.81199908
vt 0.81122577 0.05540186
vt 0.85467720 0.03226209
vt 0.78348553 0.70291114
vt 0.75553304 0.10096306
vt 0.84657818 0.78330398
vt 0.13420738 0.92528266
vt 0.14206915 0.91090971
vt 0.75511301 0.09594250
vt 0.86161000 0.82342213
vt 0.33708069 0.77843451
vt 0.33616817 0.77179420
vt 0.13914065 0.92389572
vt 0.75600350 0.09116703
vt 0.86321777 0.01517081
vt 0.78688771 0.05581713
vt 0.14911722 0.92225409
vt 0.89382666 0.01677853
vt 0.33885854 0.78876317
vt 0.33830535 0.78354859
vt 0.75649446 0.07481140
vt 0.14374936 0.92370355
vt 0.75592852 0.08569497
vt 0.82227558 0.02674806
vt 0.75590461 0.08016449
vt 0.84095109 0.01673323
vt 0.77220726 0.62584853
vt 0.78542131 0.61184847
vt 0.85547215 0.82640207
vt 0.79949462 0.03268790
vt 0.75166011 0.68112564
vt 0.76859134 0.64990193
vt 0.15442742 0.92040074
vt 0.16390842 0.90550029
vt 0.14101703 0.89169651
vt 0.87434870 0.00012815
vt 0.88030738 0.00039005
vt 0.77075928 0.04698235
vt 0.15940484 0.91944367
vt 0.16389756 0.91766524
vt 0.86693656 0.00094289
vt 0.75740290 0.06330550
vt 0.75688028 0.07026368
vt 0.85755944 0.00212157
vt 0.88265300 0.60998452
vt 0.87690234 0.60924506
vt 0.85014266 0.00303453
vt 0.17050128 0.91511506
vt 0.77890319 0.02610117
vt 0.81974733 0.00959212
vt 0.84580433 0.00320452
vt 0.83848119 0.00500643
vt 0.86938483 0.60903418
vt 0.87908781 0.80491507
vt 0.31569093 0.73859310
vt 0.83288550 0.00634784
vt 0.75883991 0.05530602
vt 0.82573742 0.00868499
vt 0.85989404 0.60822773
vt 0.85253513 0.60720527
vt 0.15928048 0.88233703
vt 0.81274974 0.01230919
vt 0.17807239 0.91242450
vt 0.03063462 0.72869951
vt 0.80715412 0.01385921
vt 0.82795322 0.60228354
vt 0.83531761 0.60357881
vt 0.83204478 0.59011823
vt 0.78685874 0.02189970
vt 0.82225358 0.60007840
vt 0.76026350 0.04784453
vt 0.84094179 0.60479867
vt 0.84843600 0.60579705
vt 0.85437447 0.59216052
vt 0.19101545 0.90609562
vt 0.18501763 0.90947247
vt 0.79468745 0.01862586
vt 0.80027354 0.01693469
vt 0.77209657 0.02984607
vt 0.81506330 0.59827119
vt 0.80958480 0.59609199
vt 0.76373512 0.03551835
vt 0.87232983 0.57888752
vt 0.17757712 0.88614094
vt 0.75566107 0.62912118
vt 0.75341499 0.65136135
vt 0.76094192 0.04165190
vt 0.79718864 0.59115136
vt 0.80251515 0.59393305
vt 0.79905587 0.58092052
vt 0.78945136 0.58758461
vt 0.78150266 0.58426958
vt 0.77708405 0.56780362
vt 0.77455539 0.58036917
vt 0.83974618 0.57571411
vt 0.19635776 0.90445709
vt 0.19843343 0.90052748
vt 0.81045532 0.57446784
vt 0.76601028 0.57586563
vt 0.76513004 0.57187772
vt 0.20220697 0.88739616
vt 0.88608772 0.56467879
vt 0.76321840 0.56483614
vt 0.20098749 0.89327735
vt 0.85452563 0.55605423
vt 0.79305625 0.55945599
vt 0.76066500 0.55892205
vt 0.19492012 0.86705405
vt 0.81001234 0.55512524
vt 0.83425397 0.55976534
vt 0.89533085 0.67163140
vt 0.16492355 0.72868121
vt 0.20400392 0.87842655
vt 0.76887268 0.54851031
vt 0.90317148 0.55956477
vt 0.88954586 0.54538471
vt 0.18482676 0.86124027
vt 0.86819714 0.54379272
vt 0.17844394 0.73190838
vt 0.17190073 0.72992468
vt 0.82610965 0.61908346
vt 0.83670861 0.62233305
vt 0.88194245 0.38724792
vt 0.88439310 0.37737995
vt 0.87322897 0.37731934
vt 0.80538177 0.61468059
vt 0.79464674 0.61306620
vt 0.89384955 0.37742984
vt 0.77439386 0.61090404
vt 0.76487893 0.61093390
vt 0.75813472 0.61260879
vt 0.75842601 0.55009347
vt 0.20605208 0.86796212
vt 0.78515106 0.54076087
vt 0.82242590 0.54086190
vt 0.75633812 0.53972620
vt 0.76345038 0.52514625
vt 0.17628145 0.75930619
vt 0.88058865 0.64178962
vt 0.87274677 0.63720340
vt 0.85609496 0.62953532
vt 0.84562403 0.62558359
vt 0.83224845 0.38269639
vt 0.84219742 0.39133167
vt 0.84126109 0.37994552
vt 0.89194310 0.65793753
vt 0.89054179 0.65186906
vt 0.85308504 0.37867808
vt 0.86459041 0.63306385
vt 0.90389538 0.39855045
vt 0.86390251 0.37778056
vt 0.79697591 0.53237349
vt 0.20790043 0.85338283
vt 0.75383580 0.52526933
vt 0.83506060 0.53388679
vt 0.87955707 0.52495658
vt 0.19395380 0.74866140
vt 0.18403934 0.73444414
vt 0.78672647 0.40772462
vt 0.77685332 0.40266490
vt 0.76840264 0.40715504
vt 0.81641370 0.40107626
vt 0.80181319 0.39150751
vt 0.19122167 0.74211866
vt 0.18863279 0.73597103
vt 0.78492695 0.39879018
vt 0.81236237 0.38773334
vt 0.82145661 0.38499248
vt 0.87011427 0.39919019
vt 0.79328924 0.39527774
vt 0.88872242 0.64702302
vt 0.90564644 0.53668290
vt 0.85334182 0.51741183
vt 0.19543587 0.84020704
vt 0.77983379 0.51298940
vt 0.80155194 0.51381624
vt 0.90754104 0.51059711
vt 0.82965559 0.51589781
vt 0.19692315 0.75801331
vt 0.76239914 0.42601132
vt 0.77745318 0.42159081
vt 0.76325673 0.42021883
vt 0.85794502 0.41672862
vt 0.84385335 0.40597260
vt 0.76577610 0.41341889
vt 0.80261689 0.42260623
vt 0.88083535 0.41614151
vt 0.75218779 0.50998527
vt 0.20862262 0.83809155
vt 0.87907004 0.50283140
vt 0.76382446 0.50262469
vt 0.81815171 0.49605680
vt 0.19766189 0.82162362
vt 0.84570152 0.49479592
vt 0.90819371 0.48682284
vt 0.82551324 0.42424423
vt 0.84490556 0.43441784
vt 0.77965200 0.44357789
vt 0.75841653 0.43695599
vt 0.20100412 0.77155221
vt 0.17795078 0.77775979
vt 0.19975837 0.76544178
vt 0.86705005 0.43931961
vt 0.76023692 0.42954743
vt 0.90704441 0.43122840
vt 0.89229089 0.42905211
vt 0.19686064 0.75452292
vt 0.77526945 0.48675764
vt 0.79638231 0.48864698
vt 0.75161970 0.48608494
vt 0.85884762 0.48242152
vt 0.88705564 0.47672999
vt 0.20816204 0.81419343
vt 0.83590829 0.47160089
vt 0.81217849 0.47731555
vt 0.76242214 0.46145034
vt 0.79023683 0.46755677
vt 0.85157001 0.45879984
vt 0.87571836 0.46324742
vt 0.75277090 0.46916521
vt 0.20624584 0.79732168
vt 0.77802676 0.46312284
vt 0.19376728 0.79233205
vt 0.81677419 0.45371735
vt 0.90829885 0.46160376
vt 0.89074671 0.44995540
vt 0.20495762 0.78821522
vt 0.75425559 0.46001434
vt 0.80540407 0.44114721
vt 0.75527269 0.45093906
vt 0.20274058 0.77922207
vt 0.75666428 0.44331884
vt 0.89134848 -0.00000203
vt 0.89589596 0.03557605
vt 0.21848647 0.95419949
vt 0.76359552 0.84486669
vt 0.75125355 0.71718907
vt 0.90031362 0.37785697
f 1/1 3/3 2/2
f 4/4 6/6 5/5
f 7/7 6/6 4/4
f 4/4 8/8 7/7
f 4/4 9/9 8/8
f 4/4 10/10 9/9
f 4/4 11/11 10/10
f 4/4 12/12 11/11
f 4/4 13/13 12/12
f 4/4 14/14 13/13
f 4/4 16/16 15/15
f 5/5 16/16 4/4
f 11/11 17/17 10/10
f 18/18 7/7 8/8
f 19/19 21/21 20/20
f 17/17 23/23 22/22
f 17/17 11/11 23/23
f 22/22 25/25 24/24
f 24/24 27/27 26/26
f 28/28 29/29 7/7
f 28/28 7/7 18/18
f 30/30 29/29 28/28
f 31/31 8/8 9/9
f 31/31 9/9 10/10
f 18/18 8/8 32/32
f 33/33 30/30 28/28
f 34/34 30/30 33/33
f 35/35 30/30 34/34
f 36/36 8/8 31/31
f 37/37 34/34 33/33
f 28/28 18/18 38/38
f 39/39 34/34 37/37
f 38/38 18/18 32/32
f 40/40 42/42 41/41
f 41/41 42/42 43/43
f 44/44 33/33 28/28
f 45/45 46/46 40/40
f 47/47 41/41 43/43
f 32/32 8/8 36/36
f 41/41 47/47 48/48
f 44/44 28/28 49/49
f 49/49 28/28 50/50
f 50/50 28/28 38/38
f 41/41 48/48 51/51
f 45/45 40/40 41/41
f 52/52 41/41 51/51
f 38/38 32/32 53/53
f 52/52 51/51 54/54
f 52/52 54/54 55/55
f 56/56 25/25 57/57
f 58/58 60/60 59/59
f 61/61 38/38 53/53
f 60/60 63/63 62/62
f 52/52 55/55 64/64
f 65/65 67/67 66/66
f 65/65 66/66 68/68
f 65/65 68/68 69/69
f 69/69 71/71 70/70
f 45/45 41/41 72/72
f 73/73 75/75 74/74
f 76/76 78/78 77/77
f 79/79 63/63 67/67
f 52/52 64/64 80/80
f 53/53 32/32 36/36
f 36/36 31/31 81/81
f 82/82 10/10 24/24
f 77/77 78/78 83/83
f 84/84 85/85 65/65
f 86/86 87/87 85/85
f 84/84 65/65 69/69
f 88/88 90/90 89/89
f 91/91 69/69 92/92
f 91/91 84/84 69/69
f 93/93 89/89 86/86
f 94/94 86/86 85/85
f 88/88 89/89 93/93
f 95/95 96/96 56/56
f 97/97 88/88 93/93
f 98/98 88/88 97/97
f 94/94 93/93 86/86
f 91/91 92/92 99/99
f 84/84 94/94 85/85
f 100/100 84/84 91/91
f 72/72 41/41 52/52
f 87/87 101/101 79/79
f 102/102 104/104 103/103
f 102/102 103/103 101/101
f 87/87 79/79 105/105
f 101/101 87/87 102/102
f 89/89 102/102 87/87
f 85/85 105/105 65/65
f 105/105 85/85 87/87
f 89/89 104/104 102/102
f 86/86 89/89 87/87
f 94/94 84/84 106/106
f 107/107 97/97 93/93
f 107/107 93/93 94/94
f 106/106 84/84 100/100
f 108/108 91/91 99/99
f 109/109 107/107 94/94
f 110/110 95/95 56/56
f 82/82 31/31 10/10
f 111/111 113/113 112/112
f 114/114 73/73 74/74
f 115/115 74/74 76/76
f 105/105 67/67 65/65
f 104/104 116/116 103/103
f 101/101 103/103 117/117
f 101/101 117/117 79/79
f 118/118 98/98 97/97
f 119/119 91/91 108/108
f 57/57 110/110 56/56
f 100/100 91/91 119/119
f 95/95 121/121 120/120
f 109/109 94/94 106/106
f 122/122 118/118 97/97
f 122/122 97/97 107/107
f 123/123 100/100 119/119
f 124/124 122/122 107/107
f 124/124 107/107 109/109
f 125/125 126/126 121/121
f 125/125 121/121 95/95
f 127/127 128/128 45/45
f 129/129 72/72 52/52
f 130/130 61/61 53/53
f 131/131 132/132 58/58
f 133/133 58/58 59/59
f 59/59 60/60 62/62
f 134/134 69/69 70/70
f 103/103 135/135 117/117
f 103/103 116/116 135/135
f 79/79 117/117 62/62
f 136/136 109/109 106/106
f 137/137 126/126 125/125
f 138/138 118/118 122/122
f 139/139 106/106 100/100
f 139/139 100/100 140/140
f 140/140 100/100 123/123
f 141/141 61/61 130/130
f 142/142 143/143 113/113
f 144/144 73/73 114/114
f 145/145 147/147 146/146
f 124/124 109/109 136/136
f 125/125 148/148 137/137
f 149/149 136/136 106/106
f 138/138 122/122 150/150
f 149/149 106/106 139/139
f 151/151 139/139 140/140
f 152/152 148/148 125/125
f 110/110 125/125 95/95
f 153/153 113/113 111/111
f 154/154 155/155 27/27
f 156/156 133/133 135/135
f 157/157 122/122 124/124
f 136/136 157/157 124/124
f 158/158 138/138 150/150
f 158/158 159/159 138/138
f 160/160 150/150 122/122
f 161/161 139/139 151/151
f 162/162 122/122 157/157
f 57/57 163/163 110/110
f 125/125 164/164 152/152
f 122/122 162/162 165/165
f 166/166 52/52 80/80
f 27/27 25/25 56/56
f 79/79 67/67 105/105
f 136/136 167/167 157/157
f 122/122 165/165 160/160
f 168/168 170/170 169/169
f 171/171 168/168 172/172
f 164/164 173/173 152/152
f 171/171 170/170 168/168
f 164/164 174/174 173/173
f 171/171 176/176 175/175
f 177/177 167/167 136/136
f 163/163 57/57 23/23
f 178/178 179/179 170/170
f 171/171 172/172 176/176
f 180/180 136/136 149/149
f 181/181 174/174 164/164
f 129/129 52/52 166/166
f 114/114 74/74 115/115
f 115/115 76/76 77/77
f 68/68 145/145 146/146
f 133/133 131/131 58/58
f 177/177 136/136 180/180
f 182/182 149/149 139/139
f 182/182 139/139 183/183
f 180/180 149/149 184/184
f 175/175 186/186 185/185
f 175/175 185/185 171/171
f 170/170 187/187 178/178
f 149/149 182/182 188/188
f 127/127 45/45 72/72
f 24/24 10/10 17/17
f 189/189 143/143 142/142
f 62/62 63/63 79/79
f 92/92 69/69 134/134
f 59/59 135/135 133/133
f 59/59 117/117 135/135
f 185/185 186/186 190/190
f 191/191 192/192 181/181
f 193/193 187/187 170/170
f 193/193 170/170 171/171
f 194/194 192/192 191/191
f 185/185 190/190 195/195
f 188/188 182/182 196/196
f 191/191 181/181 164/164
f 197/197 199/199 198/198
f 200/200 128/128 201/201
f 201/201 128/128 127/127
f 166/166 80/80 202/202
f 203/203 130/130 53/53
f 142/142 113/113 153/153
f 62/62 117/117 59/59
f 204/204 56/56 96/96
f 57/57 22/22 23/23
f 205/205 193/193 171/171
f 206/206 185/185 195/195
f 207/207 198/198 199/199
f 207/207 199/199 208/208
f 209/209 125/125 110/110
f 205/205 171/171 185/185
f 68/68 210/210 145/145
f 206/206 195/195 198/198
f 198/198 207/207 206/206
f 187/187 193/193 211/211
f 67/67 77/77 83/83
f 131/131 212/212 132/132
f 213/213 193/193 205/205
f 209/209 110/110 163/163
f 214/214 206/206 207/207
f 215/215 202/202 216/216
f 217/217 203/203 53/53
f 53/53 36/36 218/218
f 219/219 142/142 220/220
f 221/221 223/223 222/222
f 212/212 221/221 132/132
f 213/213 211/211 193/193
f 224/224 205/205 185/185
f 224/224 185/185 206/206
f 225/225 191/191 164/164
f 226/226 164/164 125/125
f 226/226 125/125 209/209
f 227/227 191/191 225/225
f 213/213 205/205 224/224
f 215/215 216/216 228/228
f 229/229 142/142 153/153
f 222/222 230/230 144/144
f 132/132 221/221 114/114
f 63/63 77/77 67/67
f 69/69 146/146 71/71
f 231/231 225/225 164/164
f 232/232 211/211 233/233
f 233/233 211/211 213/213
f 234/234 235/235 214/214
f 206/206 214/214 236/236
f 166/166 202/202 215/215
f 67/67 83/83 210/210
f 154/154 27/27 237/237
f 238/238 223/223 221/221
f 58/58 115/115 60/60
f 239/239 240/240 221/221
f 241/241 224/224 206/206
f 231/231 164/164 226/226
f 222/222 144/144 114/114
f 66/66 210/210 68/68
f 60/60 77/77 63/63
f 57/57 25/25 22/22
f 242/242 214/214 235/235
f 206/206 236/236 241/241
f 81/81 31/31 82/82
f 221/221 222/222 114/114
f 60/60 115/115 77/77
f 243/243 142/142 219/219
f 224/224 244/244 213/213
f 233/233 245/245 232/232
f 214/214 242/242 236/236
f 213/213 246/246 233/233
f 224/224 241/241 244/244
f 247/247 72/72 129/129
f 218/218 36/36 81/81
f 24/24 17/17 22/22
f 58/58 132/132 115/115
f 56/56 204/204 237/237
f 245/245 233/233 246/246
f 248/248 241/241 236/236
f 226/226 249/249 231/231
f 250/250 226/226 209/209
f 127/127 72/72 247/247
f 217/217 53/53 218/218
f 251/251 142/142 243/243
f 244/244 246/246 213/213
f 241/241 252/252 244/244
f 215/215 228/228 253/253
f 66/66 67/67 210/210
f 254/254 189/189 142/142
f 255/255 246/246 244/244
f 252/252 241/241 248/248
f 220/220 142/142 229/229
f 132/132 114/114 115/115
f 256/256 244/244 252/252
f 257/257 250/250 209/209
f 236/236 242/242 258/258
f 244/244 256/256 255/255
f 259/259 129/129 166/166
f 260/260 215/215 253/253
f 257/257 209/209 163/163
f 261/261 245/245 246/246
f 246/246 255/255 261/261
f 146/146 69/69 68/68
f 258/258 262/262 236/236
f 263/263 249/249 226/226
f 261/261 264/264 245/245
f 265/265 252/252 248/248
f 262/262 248/248 236/236
f 256/256 252/252 265/265
f 27/27 56/56 237/237
f 266/266 255/255 256/256
f 265/265 248/248 262/262
f 263/263 226/226 250/250
f 11/11 163/163 23/23
f 261/261 267/267 264/264
f 268/268 270/270 269/269
f 266/266 261/261 255/255
f 247/247 129/129 271/271
f 271/271 129/129 259/259
f 217/217 218/218 272/272
f 113/113 268/268 269/269
f 273/273 275/275 274/274
f 276/276 277/277 26/26
f 189/189 278/278 143/143
f 257/257 163/163 11/11
f 279/279 201/201 127/127
f 280/280 268/268 281/281
f 83/83 283/283 282/282
f 284/284 285/285 189/189
f 143/143 278/278 281/281
f 286/286 267/267 261/261
f 286/286 261/261 266/266
f 287/287 262/262 258/258
f 250/250 257/257 288/288
f 256/256 265/265 289/289
f 290/290 291/291 201/201
f 279/279 127/127 247/247
f 259/259 166/166 215/215
f 260/260 253/253 292/292
f 293/293 295/295 294/294
f 293/293 294/294 280/280
f 273/273 297/297 296/296
f 276/276 26/26 298/298
f 284/284 299/299 285/285
f 189/189 285/285 278/278
f 289/289 266/266 256/256
f 286/286 266/266 300/300
f 301/301 265/265 262/262
f 288/288 263/263 250/250
f 302/302 267/267 286/286
f 303/303 266/266 289/289
f 304/304 215/215 260/260
f 278/278 280/280 281/281
f 76/76 273/273 274/274
f 78/78 274/274 83/83
f 83/83 282/282 305/305
f 303/303 300/300 266/266
f 306/306 263/263 288/288
f 218/218 81/81 307/307
f 308/308 310/310 309/309
f 299/299 293/293 285/285
f 287/287 301/301 262/262
f 302/302 311/311 267/267
f 312/312 302/302 286/286
f 279/279 247/247 271/271
f 313/313 315/315 314/314
f 316/316 314/314 307/307
f 317/317 318/318 26/26
f 319/319 320/320 295/295
f 281/281 268/268 113/113
f 321/321 269/269 322/322
f 321/321 322/322 323/323
f 312/312 286/286 300/300
f 288/288 324/324 306/306
f 259/259 215/215 325/325
f 314/314 218/218 307/307
f 318/318 81/81 82/82
f 313/313 314/314 326/326
f 27/27 24/24 25/25
f 327/327 319/319 295/295
f 328/328 269/269 321/321
f 289/289 265/265 301/301
f 270/270 330/330 329/329
f 326/326 314/314 316/316
f 331/331 303/303 289/289
f 301/301 287/287 332/332
f 333/333 311/311 302/302
f 334/334 289/289 301/301
f 335/335 324/324 288/288
f 316/316 307/307 336/336
f 336/336 307/307 337/337
f 307/307 318/318 338/338
f 327/327 295/295 293/293
f 210/210 83/83 305/305
f 299/299 339/339 327/327
f 327/327 293/293 299/299
f 333/333 302/302 312/312
f 331/331 289/289 334/334
f 340/340 288/288 257/257
f 341/341 312/312 300/300
f 342/342 300/300 303/303
f 343/343 301/301 332/332
f 12/12 257/257 11/11
f 344/344 259/259 325/325
f 345/345 346/346 294/294
f 113/113 269/269 328/328
f 76/76 274/274 78/78
f 155/155 298/298 26/26
f 342/342 341/341 300/300
f 343/343 332/332 347/347
f 348/348 349/349 291/291
f 293/293 280/280 278/278
f 143/143 281/281 113/113
f 113/113 328/328 350/350
f 342/342 303/303 331/331
f 290/290 201/201 279/279
f 344/344 271/271 259/259
f 295/295 351/351 345/345
f 352/352 329/329 353/353
f 354/354 355/355 75/75
f 75/75 355/355 273/273
f 356/356 331/331 334/334
f 288/288 340/340 357/357
f 335/335 288/288 357/357
f 331/331 356/356 342/342
f 342/342 358/358 341/341
f 312/312 359/359 333/333
f 325/325 215/215 304/304
f 294/294 346/346 360/360
f 337/337 307/307 338/338
f 210/210 305/305 361/361
f 210/210 361/361 145/145
f 155/155 26/26 27/27
f 350/350 112/112 113/113
f 340/340 257/257 12/12
f 359/359 312/312 341/341
f 362/362 301/301 343/343
f 363/363 356/356 334/334
f 357/357 364/364 335/335
f 365/365 291/291 290/290
f 346/346 344/344 325/325
f 330/330 304/304 260/260
f 307/307 81/81 318/318
f 366/366 367/367 308/308
f 309/309 351/351 295/295
f 329/329 352/352 368/368
f 338/338 318/318 369/369
f 75/75 273/273 74/74
f 74/74 273/273 76/76
f 370/370 364/364 357/357
f 363/363 334/334 301/301
f 348/348 291/291 365/365
f 272/272 218/218 314/314
f 275/275 372/372 371/371
f 369/369 318/318 317/317
f 301/301 362/362 363/363
f 342/342 356/356 373/373
f 342/342 373/373 358/358
f 333/333 359/359 374/374
f 374/374 359/359 375/375
f 26/26 82/82 24/24
f 275/275 371/371 376/376
f 359/359 341/341 377/377
f 377/377 341/341 358/358
f 378/378 363/363 362/362
f 379/379 370/370 357/357
f 373/373 356/356 380/380
f 330/330 260/260 292/292
f 376/376 381/381 274/274
f 382/382 369/369 317/317
f 319/319 383/383 320/320
f 155/155 384/384 298/298
f 278/278 285/285 293/293
f 385/385 377/377 358/358
f 359/359 386/386 375/375
f 387/387 308/308 309/309
f 320/320 387/387 309/309
f 386/386 359/359 377/377
f 385/385 358/358 373/373
f 363/363 380/380 356/356
f 363/363 378/378 388/388
f 295/295 345/345 294/294
f 268/268 360/360 389/389
f 269/269 270/270 329/329
f 383/383 387/387 320/320
f 379/379 391/391 390/390
f 388/388 392/392 363/363
f 268/268 389/389 270/270
f 393/393 329/329 368/368
f 274/274 395/395 394/394
f 280/280 360/360 268/268
f 396/396 390/390 391/391
f 391/391 379/379 357/357
f 13/13 340/340 12/12
f 397/397 363/363 392/392
f 275/275 376/376 274/274
f 274/274 381/381 395/395
f 340/340 13/13 357/357
f 375/375 386/386 398/398
f 373/373 380/380 399/399
f 373/373 399/399 385/385
f 396/396 391/391 400/400
f 375/375 398/398 401/401
f 367/367 290/290 279/279
f 310/310 279/279 271/271
f 346/346 325/325 304/304
f 318/318 82/82 26/26
f 320/320 309/309 295/295
f 394/394 403/403 402/402
f 402/402 283/283 83/83
f 404/404 380/380 363/363
f 400/400 405/405 396/396
f 397/397 406/406 363/363
f 363/363 406/406 404/404
f 377/377 407/407 386/386
f 406/406 408/408 404/404
f 386/386 409/409 398/398
f 410/410 411/411 348/348
f 269/269 329/329 412/412
f 412/412 329/329 393/393
f 413/413 385/385 399/399
f 377/377 385/385 407/407
f 310/310 271/271 351/351
f 351/351 271/271 344/344
f 414/414 415/415 366/366
f 383/383 308/308 387/387
f 294/294 360/360 280/280
f 274/274 394/394 402/402
f 412/412 322/322 269/269
f 416/416 400/400 417/417
f 385/385 413/413 407/407
f 386/386 407/407 409/409
f 357/357 13/13 418/418
f 401/401 398/398 419/419
f 401/401 419/419 420/420
f 380/380 404/404 399/399
f 399/399 404/404 421/421
f 367/367 365/365 290/290
f 389/389 304/304 330/330
f 274/274 402/402 83/83
f 357/357 418/418 391/391
f 400/400 391/391 417/417
f 422/422 416/416 423/423
f 416/416 417/417 423/423
f 398/398 424/424 419/419
f 404/404 426/426 425/425
f 398/398 427/427 424/424
f 367/367 279/279 310/310
f 26/26 277/277 317/317
f 399/399 421/421 413/413
f 428/428 429/429 20/20
f 428/428 20/20 21/21
f 430/430 398/398 409/409
f 423/423 417/417 431/431
f 404/404 425/425 421/421
f 421/421 432/432 413/413
f 407/407 433/433 409/409
f 409/409 435/435 434/434
f 409/409 434/434 430/430
f 398/398 430/430 427/427
f 429/429 436/436 20/20
f 330/330 292/292 437/437
f 366/366 415/415 367/367
f 275/275 273/273 438/438
f 438/438 273/273 296/296
f 308/308 383/383 366/366
f 407/407 413/413 433/433
f 409/409 439/439 435/435
f 421/421 425/425 440/440
f 433/433 441/441 409/409
f 409/409 441/441 439/439
f 442/442 443/443 436/436
f 391/391 418/418 444/444
f 433/433 413/413 445/445
f 436/436 443/443 20/20
f 391/391 444/444 417/417
f 431/431 417/417 446/446
f 447/447 272/272 314/314
f 415/415 365/365 367/367
f 418/418 13/13 14/14
f 413/413 448/448 445/445
f 449/449 451/451 450/450
f 413/413 432/432 452/452
f 449/449 453/453 451/451
f 440/440 454/454 421/421
f 450/450 451/451 455/455
f 456/456 455/455 457/457
f 456/456 457/457 443/443
f 443/443 457/457 20/20
f 351/351 344/344 345/345
f 446/446 417/417 458/458
f 446/446 458/458 459/459
f 413/413 452/452 460/460
f 413/413 460/460 461/461
f 413/413 461/461 448/448
f 455/455 451/451 457/457
f 432/432 421/421 462/462
f 463/463 464/464 453/453
f 421/421 454/454 465/465
f 464/464 451/451 453/453
f 20/20 466/466 19/19
f 466/466 20/20 457/457
f 467/467 458/458 417/417
f 410/410 348/348 365/365
f 345/345 344/344 346/346
f 315/315 447/447 314/314
f 415/415 468/468 410/410
f 469/469 468/468 415/415
f 454/454 470/470 465/465
f 421/421 465/465 462/462
f 471/471 473/473 472/472
f 472/472 473/473 464/464
f 474/474 473/473 471/471
f 464/464 473/473 451/451
f 475/475 476/476 474/474
f 417/417 444/444 467/467
f 475/475 477/477 476/476
f 474/474 476/476 473/473
f 457/457 451/451 478/478
f 360/360 346/346 304/304
f 458/458 480/480 479/479
f 473/473 481/481 451/451
f 14/14 444/444 418/418
f 482/482 483/483 477/477
f 451/451 481/481 478/478
f 458/458 467/467 480/480
f 478/478 466/466 457/457
f 480/480 467/467 484/484
f 19/19 466/466 485/485
f 483/483 486/486 477/477
f 477/477 486/486 476/476
f 480/480 484/484 487/487
f 466/466 478/478 488/488
f 473/473 476/476 489/489
f 473/473 489/489 481/481
f 486/486 490/490 476/476
f 467/467 491/491 484/484
f 481/481 489/489 492/492
f 481/481 492/492 478/478
f 444/444 14/14 4/4
f 478/478 492/492 493/493
f 478/478 493/493 488/488
f 201/201 291/291 200/200
f 40/40 46/46 494/494
f 35/35 495/495 30/30
f 437/437 353/353 329/329
f 437/437 329/329 330/330
f 330/330 270/270 389/389
f 389/389 360/360 304/304
f 410/410 365/365 415/415
f 466/466 488/488 485/485
f 444/444 4/4 467/467
f 484/484 491/491 496/496
f 490/490 497/497 476/476
f 485/485 499/499 498/498
f 467/467 500/500 491/491
f 476/476 497/497 489/489
f 467/467 4/4 500/500
f 488/488 501/501 485/485
f 502/502 30/30 495/495
f 502/502 495/495 503/503
f 504/504 505/505 349/349
f 506/506 508/508 507/507
f 509/509 348/348 510/510
f 506/506 507/507 511/511
f 509/509 349/349 348/348
f 510/510 348/348 411/411
f 411/411 410/410 512/512
f 513/513 512/512 410/410
f 200/200 291/291 505/505
f 505/505 291/291 349/349
f 310/310 351/351 309/309
f 310/310 308/308 367/367
f 410/410 514/514 513/513
f 515/515 497/497 490/490
f 485/485 501/501 499/499
f 496/496 491/491 516/516
f 497/497 517/517 489/489
f 493/493 492/492 518/518
f 493/493 518/518 488/488
f 515/515 519/519 497/497
f 497/497 520/520 517/517
f 489/489 517/517 492/492
f 521/521 29/29 30/30
f 522/522 128/128 523/523
f 524/524 200/200 525/525
f 526/526 528/528 527/527
f 529/529 45/45 530/530
f 522/522 530/530 45/45
f 522/522 45/45 128/128
f 527/527 528/528 531/531
f 529/529 46/46 45/45
f 532/532 523/523 128/128
f 532/532 128/128 524/524
f 533/533 506/506 511/511
f 525/525 200/200 505/505
f 531/531 534/534 506/506
f 506/506 534/534 508/508
f 524/524 128/128 200/200
f 492/492 517/517 535/535
f 516/516 491/491 536/536
f 519/519 537/537 497/497
f 518/518 538/538 488/488
f 497/497 537/537 520/520
f 492/492 535/535 518/518
f 488/488 538/538 501/501
f 501/501 539/539 499/499
f 540/540 502/502 541/541
f 542/542 544/544 543/543
f 545/545 542/542 546/546
f 547/547 541/541 548/548
f 542/542 543/543 549/549
f 545/545 546/546 550/550
f 545/545 551/551 527/527
f 552/552 527/527 531/531
f 6/6 29/29 521/521
f 542/542 553/553 546/546
f 545/545 550/550 551/551
f 6/6 7/7 29/29
f 502/502 521/521 30/30
f 549/549 553/553 542/542
f 554/554 530/530 522/522
f 527/527 551/551 526/526
f 552/552 531/531 506/506
f 539/539 555/555 499/499
f 556/556 501/501 538/538
f 491/491 500/500 557/557
f 517/517 520/520 558/558
f 535/535 559/559 518/518
f 501/501 556/556 539/539
f 555/555 539/539 560/560
f 4/4 15/15 500/500
f 517/517 558/558 535/535
f 518/518 561/561 538/538
f 518/518 559/559 561/561
f 538/538 561/561 556/556
f 562/562 521/521 540/540
f 563/563 565/565 564/564
f 566/566 567/567 552/552
f 564/564 565/565 568/568
f 542/542 545/545 569/569
f 570/570 552/552 533/533
f 564/564 568/568 542/542
f 521/521 502/502 540/540
f 545/545 527/527 567/567
f 568/568 544/544 542/542
f 567/567 527/527 552/552
f 533/533 552/552 506/506
f 540/540 541/541 547/547
f 491/491 557/557 536/536
f 537/537 571/571 520/520
f 500/500 15/15 557/557
f 557/557 572/572 536/536
f 539/539 556/556 573/573
f 535/535 558/558 559/559
f 539/539 573/573 560/560
f 520/520 574/574 558/558
f 520/520 571/571 574/574
f 561/561 559/559 575/575
f 557/557 576/576 572/572
f 556/556 577/577 573/573
f 573/573 578/578 560/560
f 566/566 580/580 579/579
f 564/564 569/569 581/581
f 564/564 581/581 582/582
f 583/583 584/584 521/521
f 583/583 521/521 585/585
f 586/586 566/566 570/570
f 566/566 579/579 567/567
f 582/582 587/587 563/563
f 585/585 521/521 562/562
f 582/582 563/563 564/564
f 588/588 589/589 533/533
f 589/589 570/570 533/533
f 584/584 6/6 521/521
f 569/569 545/545 579/579
f 570/570 566/566 552/552
f 590/590 562/562 540/540
f 569/569 564/564 542/542
f 579/579 545/545 567/567
f 561/561 575/575 577/577
f 561/561 577/577 556/556
f 574/574 591/591 558/558
f 559/559 592/592 575/575
f 15/15 16/16 557/557
f 571/571 593/593 574/574
f 558/558 591/591 559/559
f 577/577 594/594 573/573
f 573/573 595/595 578/578
f 572/572 576/576 596/596
f 559/559 591/591 592/592
f 557/557 16/16 576/576
f 573/573 594/594 595/595
f 575/575 597/597 577/577
f 577/577 597/597 594/594
f 574/574 593/593 591/591
f 575/575 592/592 598/598
f 575/575 598/598 597/597
f 593/593 599/599 591/591
f 591/591 600/600 592/592
f 597/597 601/601 594/594
f 595/595 594/594 602/602
f 592/592 600/600 598/598
f 593/593 603/603 599/599
f 594/594 601/601 602/602
f 596/596 576/576 604/604
f 591/591 605/605 600/600
f 576/576 16/16 606/606
f 598/598 600/600 607/607
f 598/598 607/607 597/597
f 576/576 606/606 604/604
f 599/599 605/605 591/591
f 595/595 609/609 608/608
f 16/16 5/5 606/606
f 595/595 602/602 609/609
f 601/601 586/586 602/602
f 597/597 607/607 601/601
f 605/605 599/599 581/581
f 606/606 610/610 604/604
f 602/602 586/586 609/609
f 603/603 611/611 599/599
f 600/600 612/612 607/607
f 607/607 580/580 601/601
f 606/606 5/5 584/584
f 611/611 613/613 599/599
f 605/605 581/581 600/600
f 610/610 606/606 614/614
f 600/600 581/581 612/612
f 601/601 580/580 586/586
f 609/609 589/589 588/588
f 606/606 583/583 614/614
f 612/612 579/579 607/607
f 607/607 579/579 580/580
f 609/609 586/586 589/589
f 613/613 615/615 599/599
f 599/599 582/582 581/581
f 606/606 584/584 583/583
f 599/599 615/615 582/582
f 581/581 569/569 612/612
f 612/612 569/569 579/579
f 580/580 566/566 586/586
f 586/586 570/570 589/589
f 5/5 6/6 584/584
f 595/595 608/608 578/578
f 498/498 499/499 555/555
f 19/19 485/485 498/498
f 420/420 616/616 401/401
f 617/617 375/375 401/401
f 374/374 375/375 617/617
f 311/311 333/333 374/374
f 232/232 245/245 264/264
f 159/159 618/618 138/138
f 88/88 98/98 90/90
f 89/89 90/90 104/104
f 135/135 116/116 156/156
f 133/133 156/156 131/131
f 156/156 212/212 131/131
f 239/239 221/221 212/212
f 254/254 142/142 619/619
f 619/619 142/142 251/251
f 189/189 254/254 284/284
f 327/327 339/339 319/319
f 319/319 339/339 620/620
f 319/319 620/620 383/383
f 383/383 620/620 414/414
f 414/414 366/366 383/383
f 415/415 414/414 469/469
f 468/468 514/514 410/410
f 533/533 511/511 621/621
f 608/608 609/609 588/588

