v 0.28626776 0.02482219 0.26166564
v 0.28702000 0.00000000 0.26141599
v 0.28969285 0.02464334 0.26006791
v 0.29281589 0.02399392 0.25861299
v 0.29739970 0.02198889 0.25647312
v 0.29920486 0.02104393 0.25564656
v 0.30125138 0.01922910 0.25467864
v 0.30509698 0.01472113 0.25288376
v 0.30763650 0.00992324 0.25170198
v 0.30896348 0.00544061 0.25108287
v 0.30948919 0.00097017 0.25083703
v 0.30932936 -0.00305172 0.25091213
v 0.30832615 -0.00797355 0.25137946
v 0.30602735 -0.01319315 0.25244990
v 0.30279136 -0.01768805 0.25396013
v 0.30000284 -0.02027127 0.25526097
v 0.29614750 -0.02271127 0.25705793
v 0.28908968 -0.02476396 0.26034904
v 0.28437337 -0.02466208 0.26254877
v 0.27974167 -0.02351395 0.26470730
v 0.27413684 -0.02047646 0.26732135
v 0.27268031 -0.01918868 0.26800203
v 0.26959416 -0.01581833 0.26944137
v 0.26746699 -0.01240861 0.27043340
v 0.26594543 -0.00885702 0.27114189
v 0.26480162 -0.00436594 0.27167702
v 0.26446983 0.00025432 0.27182984
v 0.26485172 0.00455032 0.27165204
v 0.26592326 0.00882276 0.27115318
v 0.26850843 0.01424632 0.26994637
v 0.27246958 0.01900803 0.26809981
v 0.27530405 0.02121862 0.26677799
v 0.27822295 0.02287645 0.26541659
v 0.28227425 0.02429696 0.26352847
v 0.27968779 -0.02349493 0.26483524
v 0.27974167 -0.02351395 0.26470730
v 0.27413684 -0.02047646 0.26732135
v 0.28437337 -0.02466208 0.26254877
v 0.30832615 -0.00797355 0.25137946
v 0.30602735 -0.01319315 0.25244990
v 0.30583811 -0.01388619 0.25259888
v 0.30602735 -0.01319315 0.25244990
v 0.30279136 -0.01768805 0.25396013
v 0.30440000 -0.01592775 0.25323948
v 0.29614750 -0.02271127 0.25705793
v 0.28908968 -0.02476396 0.26034904
v 0.29195359 -0.02422078 0.25911495
v 0.26984307 0.01602824 0.26942584
v 0.26850843 0.01424632 0.26994637
v 0.27246958 0.01900803 0.26809981
v 0.30503577 0.01489720 0.25301504
v 0.30509698 0.01472113 0.25288376
v 0.30763650 0.00992324 0.25170198
v 0.30125138 0.01922910 0.25467864
v 0.29920486 0.02104393 0.25564656
v 0.29685763 0.02243459 0.25677159
v 0.29739970 0.02198889 0.25647312
v 0.29281589 0.02399392 0.25861299
v 0.30896348 0.00544061 0.25108287
v 0.30945823 0.00359994 0.25095126
v 0.30839479 0.00850876 0.25144857
v 0.30948919 0.00097017 0.25083703
v 0.30966580 0.00101183 0.25085694
v 0.30962762 -0.00190784 0.25087392
v 0.30932936 -0.00305172 0.25091213
v 0.30917838 -0.00540412 0.25108820
v 0.30832615 -0.00797355 0.25137946
v 0.30806401 -0.00929423 0.25160232
v 0.30583811 -0.01388619 0.25259888
v 0.30723533 -0.01130334 0.25198883
v 0.30602735 -0.01319315 0.25244990
v 0.30440000 -0.01592775 0.25323948
v 0.30279136 -0.01768805 0.25396013
v 0.30283880 -0.01790974 0.25403893
v 0.26480162 -0.00436594 0.27167702
v 0.26442528 -0.00209102 0.27195218
v 0.26494005 -0.00570204 0.27171394
v 0.26446983 0.00025432 0.27182984
v 0.26452389 0.00353549 0.27190980
v 0.26485172 0.00455032 0.27165204
v 0.26532310 0.00725586 0.27153224
v 0.26592326 0.00882276 0.27115318
v 0.26618424 0.00984591 0.27113113
v 0.26691905 0.01154846 0.27078888
v 0.26850843 0.01424632 0.26994637
v 0.26807091 0.01373379 0.27025163
v 0.26984307 0.01602824 0.26942584
v 0.26971421 0.01616948 0.26948661
v 0.27968779 -0.02349493 0.26483524
v 0.27688873 -0.02243890 0.26613602
v 0.28128579 -0.02420750 0.26409215
v 0.27413684 -0.02047646 0.26732135
v 0.27268031 -0.01918868 0.26800203
v 0.27288556 -0.01955639 0.26800770
v 0.27104938 -0.01775102 0.26886165
v 0.26959416 -0.01581833 0.26944137
v 0.26845416 -0.01444859 0.27007091
v 0.26746699 -0.01240861 0.27043340
v 0.26610780 -0.00970728 0.27117229
v 0.26594543 -0.00885702 0.27114189
v 0.29281589 0.02399392 0.25861299
v 0.29685763 0.02243459 0.25677159
v 0.29407242 0.02380836 0.25812402
v 0.30125138 0.01922910 0.25467864
v 0.30171877 0.01906325 0.25456500
v 0.29920486 0.02104393 0.25564656
v 0.30388770 0.01672445 0.25355059
v 0.30503577 0.01489720 0.25301504
v 0.30539173 0.01463733 0.25284830
v 0.30649811 0.01279800 0.25233331
v 0.30763650 0.00992324 0.25170198
v 0.28908968 -0.02476396 0.26034904
v 0.28437337 -0.02466208 0.26254877
v 0.28616494 -0.02499627 0.26181418
v 0.28361380 -0.02472529 0.26300302
v 0.30008110 -0.02049106 0.25532374
v 0.30000284 -0.02027127 0.25526097
v 0.29614750 -0.02271127 0.25705793
v 0.29718941 -0.02234710 0.25667295
v 0.29586491 -0.02302049 0.25729120
v 0.29419062 -0.02372735 0.25807112
v 0.29195359 -0.02422078 0.25911495
v 0.29045194 -0.02478006 0.25981256
v 0.27210873 0.01886314 0.26837352
v 0.27246958 0.01900803 0.26809981
v 0.27538219 0.02147303 0.26684266
v 0.27530405 0.02121862 0.26677799
v 0.27949464 0.02365758 0.26492742
v 0.27822295 0.02287645 0.26541659
v 0.28227425 0.02429696 0.26352847
v 0.28373507 0.02476039 0.26294520
v 0.28626776 0.02482219 0.26166564
v 0.28635338 0.02499633 0.26172748
v 0.28822789 0.02497028 0.26085210
v 0.28969285 0.02464334 0.26006791
v 0.29052943 0.02471736 0.25977764
v 0.26976398 0.00431409 0.27562803
v 0.26941377 0.00012252 0.27578130
v 0.26914370 0.00052702 0.27591112
v 0.29631239 -0.02068557 0.26323912
v 0.30006295 -0.01861828 0.26148653
v 0.29897720 -0.01968384 0.26199880
v 0.30044678 0.01834773 0.26131007
v 0.29813507 0.01981946 0.26238063
v 0.30072954 0.01849768 0.26118267
v 0.30342439 -0.01612382 0.25992551
v 0.30226696 -0.01687474 0.26049984
v 0.30393577 -0.01509026 0.25969505
v 0.30602792 -0.01223000 0.25871393
v 0.30610669 -0.01258336 0.25867453
v 0.30688122 -0.01065118 0.25832790
v 0.30842888 -0.00769263 0.25759161
v 0.30778337 -0.00858050 0.25791019
v 0.30870685 -0.00560265 0.25746334
v 0.30960506 -0.00137565 0.25704336
v 0.30929890 -0.00149752 0.25717920
v 0.30923021 0.00273234 0.25721771
v 0.30927116 0.00438968 0.25719890
v 0.30826202 0.00716162 0.25766635
v 0.30768350 0.00953183 0.25793883
v 0.30630043 0.01181094 0.25858617
v 0.30552229 0.01347317 0.25894722
v 0.30345383 0.01563694 0.25990936
v 0.30353776 0.01593317 0.25987247
v 0.29775918 0.02034395 0.26256701
v 0.29425192 0.02136815 0.26420397
v 0.29397848 0.02174512 0.26432994
v 0.29127327 0.02196712 0.26559907
v 0.28989744 0.02232681 0.26623312
v 0.28734443 0.02191496 0.26742098
v 0.28572088 0.02198440 0.26818043
v 0.28427777 0.02131540 0.26885244
v 0.28200355 0.02079309 0.26991388
v 0.28014910 0.01958669 0.27078119
v 0.27838883 0.01877894 0.27159956
v 0.27689967 0.01719428 0.27229318
v 0.27466959 0.01535896 0.27333376
v 0.27457541 0.01481329 0.27338099
v 0.27294150 0.01248574 0.27414021
v 0.27240491 0.01213283 0.27438992
v 0.27276659 0.01219500 0.27422169
v 0.27112421 0.00903763 0.27498317
v 0.27108636 0.00954862 0.27500442
v 0.26975083 0.00555003 0.27562776
v 0.26961958 -0.00325353 0.27570683
v 0.26949990 -0.00438765 0.27574489
v 0.27023801 -0.00633996 0.27539286
v 0.27120626 -0.00987679 0.27494869
v 0.27141905 -0.00962221 0.27484721
v 0.27287954 -0.01240919 0.27416810
v 0.27337274 -0.01366335 0.27393845
v 0.27535450 -0.01571698 0.27300659
v 0.27610239 -0.01685278 0.27266592
v 0.27804336 -0.01812864 0.27177441
v 0.27818558 -0.01858567 0.27169427
v 0.28035653 -0.01968216 0.27070260
v 0.28120777 -0.02044658 0.27028507
v 0.28283006 -0.02080960 0.26952830
v 0.28460798 -0.02168120 0.26869911
v 0.28613165 -0.02177113 0.26799703
v 0.28828204 -0.02232631 0.26698655
v 0.28984737 -0.02204223 0.26626521
v 0.29271227 -0.02175956 0.26494408
v 0.29387534 -0.02183517 0.26437819
v 0.30960506 -0.00137565 0.25704336
v 0.30960330 0.00386107 0.25770572
v 0.30980527 -0.00213300 0.25761145
v 0.30927116 0.00438968 0.25719890
v 0.30827242 0.00872337 0.25832659
v 0.30768350 0.00953183 0.25793883
v 0.30589277 0.01341161 0.25943768
v 0.30552229 0.01347317 0.25894722
v 0.30353776 0.01593317 0.25987247
v 0.30113915 0.01843248 0.26165089
v 0.30072954 0.01849768 0.26118267
v 0.30113915 0.01843248 0.26165089
v 0.30072954 0.01849768 0.26118267
v 0.30052856 0.01888948 0.26192915
v 0.29775918 0.02034395 0.26256701
v 0.29554495 0.02136794 0.26426032
v 0.29397848 0.02174512 0.26432994
v 0.29023293 0.02238959 0.26674011
v 0.28989744 0.02232681 0.26623312
v 0.28572088 0.02198440 0.26818043
v 0.28467256 0.02165467 0.26932991
v 0.28200355 0.02079309 0.26991388
v 0.28056258 0.01998528 0.27124837
v 0.27838883 0.01877894 0.27159956
v 0.27778745 0.01808024 0.27254018
v 0.27617478 0.01667309 0.27329409
v 0.27466959 0.01535896 0.27333376
v 0.27271685 0.01235190 0.27490780
v 0.27240491 0.01213283 0.27438992
v 0.27240491 0.01213283 0.27438992
v 0.27108636 0.00954862 0.27500442
v 0.27271685 0.01235190 0.27490780
v 0.27048370 0.00734883 0.27594760
v 0.26975083 0.00555003 0.27562776
v 0.26950952 0.00232535 0.27640185
v 0.26914370 0.00052702 0.27591112
v 0.26940373 -0.00011684 0.27645466
v 0.26949990 -0.00438765 0.27574489
v 0.26971063 -0.00390747 0.27630901
v 0.27071336 -0.00801773 0.27584156
v 0.27120626 -0.00987679 0.27494869
v 0.27232045 -0.01154256 0.27509326
v 0.27337274 -0.01366335 0.27393845
v 0.27476788 -0.01519608 0.27395001
v 0.27610239 -0.01685278 0.27266592
v 0.27855101 -0.01869311 0.27218485
v 0.27818558 -0.01858567 0.27169427
v 0.27818558 -0.01858567 0.27169427
v 0.28260401 -0.02099884 0.27030030
v 0.27855101 -0.01869311 0.27218485
v 0.28120777 -0.02044658 0.27028507
v 0.28460798 -0.02168120 0.26869911
v 0.28850853 -0.02236759 0.26754138
v 0.28828204 -0.02232631 0.26698655
v 0.29387534 -0.02183517 0.26437819
v 0.29404342 -0.02180889 0.26496109
v 0.29797682 -0.02034880 0.26312613
v 0.29897720 -0.01968384 0.26199880
v 0.30178910 -0.01789917 0.26134959
v 0.30342439 -0.01612382 0.25992551
v 0.30618089 -0.01295890 0.25929356
v 0.30610669 -0.01258336 0.25867453
v 0.30642605 -0.01242094 0.25918737
v 0.30642605 -0.01242094 0.25918737
v 0.30610669 -0.01258336 0.25867453
v 0.30835542 -0.00862408 0.25828636
v 0.30842888 -0.00769263 0.25759161
v 0.30151883 -0.01864970 0.26180694
v 0.29587573 -0.02163974 0.26443839
v 0.27855101 -0.01869311 0.27218485
v 0.28047332 -0.02018919 0.27162039
v 0.27663139 -0.01741621 0.27341208
v 0.28260401 -0.02099884 0.27030030
v 0.28273991 -0.02133698 0.27056462
v 0.28273991 -0.02133698 0.27056462
v 0.28841367 -0.02259261 0.26791784
v 0.29182410 -0.02250618 0.26632807
v 0.26950952 0.00232535 0.27640185
v 0.26927805 -0.00005968 0.27683759
v 0.26961505 0.00471766 0.27668363
v 0.26940373 -0.00011684 0.27645466
v 0.26953128 -0.00403182 0.27672270
v 0.26927805 -0.00005968 0.27683759
v 0.27092931 -0.00898004 0.27607080
v 0.27217078 -0.01178946 0.27548558
v 0.27232045 -0.01154256 0.27509326
v 0.27476788 -0.01519608 0.27395001
v 0.27217078 -0.01178946 0.27548558
v 0.27997541 0.01990703 0.27185261
v 0.27775574 0.01831917 0.27288711
v 0.27778745 0.01808024 0.27254018
v 0.27617478 0.01667309 0.27329409
v 0.27775574 0.01831917 0.27288711
v 0.27501157 0.01576385 0.27416739
v 0.27271685 0.01235190 0.27490780
v 0.27183172 0.01105265 0.27565011
v 0.27048370 0.00734883 0.27594760
v 0.29513511 0.02191452 0.26478350
v 0.30082545 0.01908832 0.26213020
v 0.28950131 0.02264387 0.26741055
v 0.28453332 0.02191759 0.26972711
v 0.31013194 0.00309133 0.25779009
v 0.30997664 -0.00428170 0.25786254
v 0.30820158 -0.00992966 0.25869048
v 0.30652446 -0.01310997 0.25947288
v 0.30618089 -0.01295890 0.25929356
v 0.30652446 -0.01310997 0.25947288
v 0.30082545 0.01908832 0.26213020
v 0.30052856 0.01888948 0.26192915
v 0.30476490 0.01553363 0.26029330
v 0.30811733 0.01020325 0.25872982
v 0.27223513 -0.01428843 0.27546206
v 0.26970711 -0.00950946 0.27664095
v 0.27092931 -0.00898004 0.27607080
v 0.26799452 -0.00200575 0.27743953
v 0.26953128 -0.00403182 0.27672270
v 0.27165881 0.01333121 0.27573103
v 0.27044445 0.01107154 0.27629721
v 0.30674779 0.01509218 0.25936875
v 0.30811733 0.01020325 0.25872982
v 0.30476490 0.01553363 0.26029330
v 0.30884355 0.01156170 0.25839135
v 0.26827890 0.00407180 0.27730682
v 0.26928750 0.00816123 0.27683651
v 0.31152633 0.00160145 0.25714019
v 0.30997664 -0.00428170 0.25786254
v 0.31013194 0.00309133 0.25779009
v 0.31117314 -0.00455478 0.25730476
v 0.27361295 0.01612823 0.27481976
v 0.31053105 0.00731550 0.25760448
v 0.29708347 0.02262862 0.26387489
v 0.30193287 0.02002469 0.26161402
v 0.29513511 0.02191452 0.26478350
v 0.30082545 0.01908832 0.26213020
v 0.30899382 -0.01141064 0.25832123
v 0.30820158 -0.00992966 0.25869048
v 0.30652446 -0.01310997 0.25947288
v 0.28077736 -0.02190417 0.27147853
v 0.27585524 -0.01858357 0.27377424
v 0.30601281 -0.01599693 0.25971133
v 0.28201312 0.02248740 0.27090245
v 0.27997541 0.01990703 0.27185261
v 0.27733687 0.01979515 0.27308348
v 0.28453332 0.02191759 0.26972711
v 0.30234402 -0.01967750 0.26142207
v 0.29669318 -0.02284298 0.26405713
v 0.30151883 -0.01864970 0.26180694
v 0.29587573 -0.02163974 0.26443839
v 0.28726855 0.02391597 0.26845205
v 0.28950131 0.02264387 0.26741055
v 0.29298392 0.02378341 0.26578671
v 0.28543606 -0.02359458 0.26930657
v 0.29182410 -0.02250618 0.26632807
v 0.29071176 -0.02402412 0.26684639
v 0.28841367 -0.02259261 0.26791784
v 0.26659718 -0.00458295 0.27698779
v 0.26716253 -0.00726596 0.27672341
v 0.26478830 -0.00510099 0.27289096
v 0.26530552 -0.00731871 0.27252981
v 0.26761514 -0.00778317 0.27668467
v 0.26565477 -0.00854332 0.27247441
v 0.26752874 -0.00853342 0.27655244
v 0.26659864 -0.01104956 0.27201101
v 0.26850632 -0.01104759 0.27609718
v 0.26664010 -0.01111411 0.27177447
v 0.26850632 -0.01104759 0.27609718
v 0.26865667 -0.01111724 0.27610561
v 0.26659864 -0.01104956 0.27201101
v 0.26865667 -0.01111724 0.27610561
v 0.26903582 -0.01159242 0.27601221
v 0.26664010 -0.01111411 0.27177447
v 0.26690835 -0.01162509 0.27143025
v 0.26710227 -0.01211515 0.27181146
v 0.26899812 -0.01214159 0.27586818
v 0.26841787 -0.01452624 0.27118146
v 0.27032420 -0.01451549 0.27525002
v 0.27032420 -0.01451549 0.27525002
v 0.27066883 -0.01458445 0.27524525
v 0.26841787 -0.01452624 0.27118146
v 0.26856717 -0.01459995 0.27076969
v 0.26908264 -0.01549461 0.27088514
v 0.27066883 -0.01458445 0.27524525
v 0.27097628 -0.01552063 0.27494559
v 0.26856717 -0.01459995 0.27076969
v 0.27071366 -0.01762900 0.27011624
v 0.27261734 -0.01761443 0.27418020
v 0.27261734 -0.01761443 0.27418020
v 0.27306226 -0.01775258 0.27412334
v 0.27071366 -0.01762900 0.27011624
v 0.27098051 -0.01775996 0.26967326
v 0.27306226 -0.01775258 0.27412334
v 0.27153957 -0.01851311 0.26971093
v 0.27098051 -0.01775996 0.26967326
v 0.27342585 -0.01846181 0.27381620
v 0.27531657 -0.02029526 0.27292365
v 0.27341339 -0.02026500 0.26881614
v 0.27531657 -0.02029526 0.27292365
v 0.27591142 -0.02042277 0.27281350
v 0.27341339 -0.02026500 0.26881614
v 0.27378732 -0.02045307 0.26825598
v 0.27591142 -0.02042277 0.27281350
v 0.27405685 -0.02070480 0.26822647
v 0.27378732 -0.02045307 0.26825598
v 0.27618945 -0.02097187 0.27251527
v 0.27427515 -0.02098868 0.26846087
v 0.27646247 -0.02244308 0.26744169
v 0.27427515 -0.02098868 0.26846087
v 0.27822989 -0.02238342 0.27156323
v 0.27618945 -0.02097187 0.27251527
v 0.27698958 -0.02256786 0.26678923
v 0.27909574 -0.02258959 0.27128658
v 0.27741879 -0.02299682 0.26699772
v 0.27698958 -0.02256786 0.26678923
v 0.27931646 -0.02299246 0.27105752
v 0.27909574 -0.02258959 0.27128658
v 0.27931646 -0.02299246 0.27105752
v 0.28166223 -0.02406525 0.26996228
v 0.27741879 -0.02299682 0.26699772
v 0.27973384 -0.02402546 0.26585263
v 0.28216237 -0.02400061 0.26988301
v 0.28047279 -0.02417688 0.26526910
v 0.28254473 -0.02418419 0.26967385
v 0.28080681 -0.02443200 0.26540944
v 0.28047279 -0.02417688 0.26526910
v 0.28270155 -0.02443556 0.26947874
v 0.28254473 -0.02418419 0.26967385
v 0.28270155 -0.02443556 0.26947874
v 0.28323969 -0.02509786 0.26428595
v 0.28080681 -0.02443200 0.26540944
v 0.28515261 -0.02509563 0.26833412
v 0.28572962 -0.02494578 0.26823425
v 0.28358176 -0.02495695 0.26364475
v 0.28415710 -0.02515096 0.26366535
v 0.28434867 -0.02528116 0.26375362
v 0.28415710 -0.02515096 0.26366535
v 0.28624755 -0.02528016 0.26782492
v 0.28615269 -0.02515010 0.26794401
v 0.28615269 -0.02515010 0.26794401
v 0.28681719 -0.02547821 0.26255709
v 0.28434867 -0.02528116 0.26375362
v 0.28871775 -0.02550305 0.26667243
v 0.28624755 -0.02528016 0.26782492
v 0.28990081 -0.02542093 0.26616418
v 0.28792790 -0.02547395 0.26198769
v 0.29234263 -0.02531502 0.26498160
v 0.29050606 -0.02528233 0.26089263
v 0.29284915 -0.02500281 0.26490021
v 0.29087144 -0.02494284 0.26019418
v 0.29351458 -0.02507208 0.26444143
v 0.29170746 -0.02509735 0.26033700
v 0.29586795 -0.02449366 0.26333666
v 0.29407221 -0.02442862 0.25923029
v 0.29426056 -0.02403765 0.25860226
v 0.29646567 -0.02405627 0.26321554
v 0.29705140 -0.02405019 0.26278573
v 0.29512039 -0.02406360 0.25874794
v 0.29745656 -0.02299339 0.25763327
v 0.29935580 -0.02299073 0.26171228
v 0.29935580 -0.02299073 0.26171228
v 0.29940775 -0.02288742 0.26173654
v 0.29745656 -0.02299339 0.25763327
v 0.29746488 -0.02289338 0.25754774
v 0.29940775 -0.02288742 0.26173654
v 0.29762438 -0.02250611 0.25703323
v 0.29746488 -0.02289338 0.25754774
v 0.29987931 -0.02248278 0.26162869
v 0.29846650 -0.02243691 0.25718424
v 0.30032885 -0.02244179 0.26125821
v 0.30249313 -0.02097990 0.26025003
v 0.30058935 -0.02097470 0.25618118
v 0.30249313 -0.02097990 0.26025003
v 0.30052447 -0.02069839 0.25587913
v 0.30058935 -0.02097470 0.25618118
v 0.30262634 -0.02072579 0.26029739
v 0.30052447 -0.02069839 0.25587913
v 0.30262634 -0.02072579 0.26029739
v 0.30298847 -0.02036826 0.26016977
v 0.30149344 -0.02025652 0.25577196
v 0.30336973 -0.02027127 0.25984082
v 0.30341473 -0.01845214 0.25487372
v 0.30530912 -0.01845247 0.25893635
v 0.30530912 -0.01845247 0.25893635
v 0.30338842 -0.01803032 0.25451288
v 0.30341473 -0.01845214 0.25487372
v 0.30546328 -0.01806248 0.25898710
v 0.30546328 -0.01806248 0.25898710
v 0.30606800 -0.01756187 0.25859496
v 0.30338842 -0.01803032 0.25451288
v 0.30427656 -0.01750755 0.25447398
v 0.30575851 -0.01545551 0.25366473
v 0.30773297 -0.01547074 0.25780410
v 0.30773297 -0.01547074 0.25780410
v 0.30791026 -0.01492306 0.25786361
v 0.30575851 -0.01545551 0.25366473
v 0.30580702 -0.01490860 0.25332373
v 0.30791026 -0.01492306 0.25786361
v 0.30636486 -0.01449371 0.25339252
v 0.30580702 -0.01490860 0.25332373
v 0.30835602 -0.01446213 0.25752458
v 0.30680731 -0.01392103 0.25329205
v 0.30871236 -0.01392885 0.25734913
v 0.30871236 -0.01392885 0.25734913
v 0.30777892 -0.01214234 0.25283796
v 0.30680731 -0.01392103 0.25329205
v 0.30965501 -0.01209663 0.25693202
v 0.30774382 -0.01137409 0.25244641
v 0.30987063 -0.01138885 0.25695109
v 0.30987063 -0.01138885 0.25695109
v 0.31016284 -0.01104014 0.25667912
v 0.30774382 -0.01137409 0.25244641
v 0.30822644 -0.01104106 0.25252548
v 0.31016284 -0.01104014 0.25667912
v 0.31114385 -0.00851658 0.25621396
v 0.30822644 -0.01104106 0.25252548
v 0.30924359 -0.00853284 0.25215995
v 0.31126383 -0.00755513 0.25632328
v 0.30916050 -0.00756138 0.25178269
v 0.30916050 -0.00756138 0.25178269
v 0.31126383 -0.00755513 0.25632328
v 0.30953461 -0.00730882 0.25192037
v 0.31150079 -0.00733380 0.25604874
v 0.31016082 -0.00471277 0.25171185
v 0.31150079 -0.00733380 0.25604874
v 0.31204927 -0.00459149 0.25581005
v 0.30953461 -0.00730882 0.25192037
v 0.31213140 -0.00356260 0.25585985
v 0.31007925 -0.00356615 0.25144568
v 0.31034565 -0.00340587 0.25163686
v 0.31007925 -0.00356615 0.25144568
v 0.31225267 -0.00341048 0.25569856
v 0.31213140 -0.00356260 0.25585985
v 0.31225267 -0.00341048 0.25569856
v 0.31057164 -0.00068022 0.25153583
v 0.31034565 -0.00340587 0.25163686
v 0.31244898 -0.00061205 0.25560641
v 0.31229976 -0.00007326 0.25585288
v 0.31017026 -0.00008996 0.25123996
v 0.31051043 0.00057379 0.25149590
v 0.31242254 0.00054554 0.25565663
v 0.31051043 0.00057379 0.25149590
v 0.31242254 0.00054554 0.25565663
v 0.31247145 0.00058186 0.25559798
v 0.31247145 0.00058186 0.25559798
v 0.31035495 0.00335234 0.25163433
v 0.31224421 0.00337993 0.25570232
v 0.31201065 0.00404663 0.25597945
v 0.30990142 0.00396279 0.25138396
v 0.31017819 0.00464269 0.25172099
v 0.31208339 0.00467592 0.25577605
v 0.30956990 0.00724589 0.25195771
v 0.31148455 0.00727845 0.25605825
v 0.31115144 0.00795178 0.25636992
v 0.30916494 0.00838963 0.25206691
v 0.31114447 0.00851152 0.25621471
v 0.30829692 0.01107749 0.25258306
v 0.31016958 0.01105055 0.25666970
v 0.31016958 0.01105055 0.25666970
v 0.31009164 0.01110285 0.25674087
v 0.30829692 0.01107749 0.25258306
v 0.30811459 0.01109677 0.25250956
v 0.30811459 0.01109677 0.25250956
v 0.31009164 0.01110285 0.25674087
v 0.30983114 0.01142212 0.25699779
v 0.30763367 0.01154724 0.25241435
v 0.30778304 0.01211523 0.25283778
v 0.30966374 0.01219534 0.25690475
v 0.30646318 0.01452775 0.25345084
v 0.30834424 0.01450871 0.25752056
v 0.30608407 0.01458181 0.25328714
v 0.30834424 0.01450871 0.25752056
v 0.30816481 0.01460872 0.25770593
v 0.30646318 0.01452775 0.25345084
v 0.30816481 0.01460872 0.25770593
v 0.30768013 0.01547841 0.25784597
v 0.30608407 0.01458181 0.25328714
v 0.30579054 0.01549144 0.25375444
v 0.30417046 0.01763980 0.25451371
v 0.30605945 0.01762132 0.25858557
v 0.30605945 0.01762132 0.25858557
v 0.30367494 0.01775173 0.25443804
v 0.30417046 0.01763980 0.25451371
v 0.30575401 0.01773847 0.25886789
v 0.30367494 0.01775173 0.25443804
v 0.30575401 0.01773847 0.25886789
v 0.30332103 0.01850199 0.25487703
v 0.30523792 0.01851698 0.25897038
v 0.30335230 0.02027540 0.25985309
v 0.30144683 0.02027470 0.25576749
v 0.30335230 0.02027540 0.25985309
v 0.30078000 0.02041540 0.25569591
v 0.30144683 0.02027470 0.25576749
v 0.30290845 0.02041444 0.26020849
v 0.30058786 0.02097451 0.25619259
v 0.30078000 0.02041540 0.25569591
v 0.30247200 0.02097968 0.26025960
v 0.30290845 0.02041444 0.26020849
v 0.29842153 0.02240484 0.25715125
v 0.30006307 0.02137210 0.25643677
v 0.30037105 0.02241002 0.26124021
v 0.30195478 0.02136767 0.26050073
v 0.30006307 0.02137210 0.25643677
v 0.30195478 0.02136767 0.26050073
v 0.29971084 0.02258804 0.26169872
v 0.29761252 0.02258029 0.25721508
v 0.29971084 0.02258804 0.26169872
v 0.29935321 0.02298776 0.26171410
v 0.29761252 0.02258029 0.25721508
v 0.29746777 0.02300008 0.25764173
v 0.29935321 0.02298776 0.26171410
v 0.29702657 0.02406443 0.26279652
v 0.29746777 0.02300008 0.25764173
v 0.29510960 0.02406211 0.25874883
v 0.29624584 0.02411829 0.26333192
v 0.29413754 0.02412092 0.25880775
v 0.29407930 0.02444078 0.25922364
v 0.29624584 0.02411829 0.26333192
v 0.29598567 0.02445717 0.26328436
v 0.29413754 0.02412092 0.25880775
v 0.29598567 0.02445717 0.26328436
v 0.29158857 0.02505458 0.26031563
v 0.29407930 0.02444078 0.25922364
v 0.29351312 0.02507685 0.26443925
v 0.29260269 0.02508413 0.26498479
v 0.29057106 0.02512044 0.26058313
v 0.29052636 0.02527369 0.26087752
v 0.29057106 0.02512044 0.26058313
v 0.29243174 0.02529252 0.26494238
v 0.29260269 0.02508413 0.26498479
v 0.28806260 0.02551943 0.26203251
v 0.29243174 0.02529252 0.26494238
v 0.28989539 0.02549794 0.26612291
v 0.29052636 0.02527369 0.26087752
v 0.28738490 0.02528400 0.26187056
v 0.28942275 0.02527796 0.26650834
v 0.28689116 0.02548196 0.26250607
v 0.28881231 0.02546558 0.26664203
v 0.26628199 -0.00052900 0.27716601
v 0.26651219 -0.00003376 0.27720562
v 0.26626769 -0.00058908 0.27714989
v 0.26622736 0.00060883 0.27715936
v 0.26655990 0.00353661 0.27707326
v 0.26680100 0.00402650 0.27706873
v 0.26641473 0.00341450 0.27707407
v 0.26659307 0.00464844 0.27698955
v 0.26745132 0.00753247 0.27669489
v 0.26757684 0.00840972 0.27656198
v 0.26887318 0.01132342 0.27603918
v 0.26848415 0.01107085 0.27610928
v 0.26893926 0.01135755 0.27606389
v 0.26900330 0.01213040 0.27586496
v 0.27089122 0.01488818 0.27515310
v 0.27012756 0.01423380 0.27533388
v 0.27094936 0.01546559 0.27495790
v 0.27257487 0.01757393 0.27419960
v 0.27331144 0.01801605 0.27401268
v 0.27336559 0.01845183 0.27383131
v 0.27532688 0.02023933 0.27293277
v 0.27611676 0.02070227 0.27265772
v 0.27618161 0.02097807 0.27251765
v 0.27830932 0.02239898 0.27153534
v 0.27931058 0.02284431 0.27113616
v 0.27931261 0.02299610 0.27105811
v 0.27930099 0.02290900 0.27110001
v 0.28243586 0.02408139 0.26976705
v 0.28164816 0.02405438 0.26996922
v 0.28271309 0.02443539 0.26947299
v 0.28575182 0.02495093 0.26822340
v 0.28513435 0.02509812 0.26834375
v 0.28631794 0.02530502 0.26779026
v 0.28942275 0.02527796 0.26650834
v 0.28881231 0.02546558 0.26664203
v 0.28989539 0.02549794 0.26612291
v 0.29260269 0.02508413 0.26498479
v 0.29351312 0.02507685 0.26443925
v 0.29598567 0.02445717 0.26328436
v 0.29624584 0.02411829 0.26333192
v 0.29702657 0.02406443 0.26279652
v 0.29935321 0.02298776 0.26171410
v 0.29971084 0.02258804 0.26169872
v 0.30037105 0.02241002 0.26124021
v 0.30247200 0.02097968 0.26025960
v 0.30290845 0.02041444 0.26020849
v 0.30335230 0.02027540 0.25985309
v 0.30523792 0.01851698 0.25897038
v 0.30575401 0.01773847 0.25886789
v 0.30605945 0.01762132 0.25858557
v 0.30816481 0.01460872 0.25770593
v 0.30768013 0.01547841 0.25784597
v 0.30834424 0.01450871 0.25752056
v 0.30983114 0.01142212 0.25699779
v 0.30966374 0.01219534 0.25690475
v 0.31009164 0.01110285 0.25674087
v 0.31016958 0.01105055 0.25666970
v 0.31114447 0.00851152 0.25621471
v 0.31115144 0.00795178 0.25636992
v 0.31148455 0.00727845 0.25605825
v 0.31201065 0.00404663 0.25597945
v 0.31208339 0.00467592 0.25577605
v 0.31224421 0.00337993 0.25570232
v 0.31229976 -0.00007326 0.25585288
v 0.31242254 0.00054554 0.25565663
v 0.31244898 -0.00061205 0.25560641
v 0.31225267 -0.00341048 0.25569856
v 0.31213140 -0.00356260 0.25585985
v 0.31204927 -0.00459149 0.25581005
v 0.31150079 -0.00733380 0.25604874
v 0.31126383 -0.00755513 0.25632328
v 0.31114385 -0.00851658 0.25621396
v 0.31016284 -0.01104014 0.25667912
v 0.30987063 -0.01138885 0.25695109
v 0.30965501 -0.01209663 0.25693202
v 0.30835602 -0.01446213 0.25752458
v 0.30791026 -0.01492306 0.25786361
v 0.30773297 -0.01547074 0.25780410
v 0.30546328 -0.01806248 0.25898710
v 0.30606800 -0.01756187 0.25859496
v 0.30530912 -0.01845247 0.25893635
v 0.30298847 -0.02036826 0.26016977
v 0.30336973 -0.02027127 0.25984082
v 0.30262634 -0.02072579 0.26029739
v 0.30249313 -0.02097990 0.26025003
v 0.30032885 -0.02244179 0.26125821
v 0.29987931 -0.02248278 0.26162869
v 0.29940775 -0.02288742 0.26173654
v 0.29935580 -0.02299073 0.26171228
v 0.29705140 -0.02405019 0.26278573
v 0.29646567 -0.02405627 0.26321554
v 0.29586795 -0.02449366 0.26333666
v 0.29284915 -0.02500281 0.26490021
v 0.29351458 -0.02507208 0.26444143
v 0.29234263 -0.02531502 0.26498160
v 0.28871775 -0.02550305 0.26667243
v 0.28990081 -0.02542093 0.26616418
v 0.28615269 -0.02515010 0.26794401
v 0.28572962 -0.02494578 0.26823425
v 0.28515261 -0.02509563 0.26833412
v 0.28254473 -0.02418419 0.26967385
v 0.28216237 -0.02400061 0.26988301
v 0.28166223 -0.02406525 0.26996228
v 0.27931646 -0.02299246 0.27105752
v 0.27909574 -0.02258959 0.27128658
v 0.27822989 -0.02238342 0.27156323
v 0.27618945 -0.02097187 0.27251527
v 0.27591142 -0.02042277 0.27281350
v 0.27531657 -0.02029526 0.27292365
v 0.27306226 -0.01775258 0.27412334
v 0.27342585 -0.01846181 0.27381620
v 0.27261734 -0.01761443 0.27418020
v 0.27097628 -0.01552063 0.27494559
v 0.27066883 -0.01458445 0.27524525
v 0.27032420 -0.01451549 0.27525002
v 0.26899812 -0.01214159 0.27586818
v 0.26903582 -0.01159242 0.27601221
v 0.26850632 -0.01104759 0.27609718
v 0.26865667 -0.01111724 0.27610561
v 0.26752874 -0.00853342 0.27655244
v 0.26761514 -0.00778317 0.27668467
v 0.26716253 -0.00726596 0.27672341
v 0.26659718 -0.00458295 0.27698779
v 0.26680517 -0.00398938 0.27707294
v 0.26639393 -0.00331659 0.27708256
v 0.31247145 0.00058186 0.25559798
v 0.30195478 0.02136767 0.26050073
v 0.29243174 0.02529252 0.26494238
v 0.26719320 0.00731892 0.27670997
v 0.28270155 -0.02443556 0.26947874
v 0.28624755 -0.02528016 0.26782492
v 0.30871236 -0.01392885 0.25734913
v 0.26463455 -0.00400646 0.27240103
v 0.26639393 -0.00331659 0.27708256
v 0.26680517 -0.00398938 0.27707294
v 0.26451051 -0.00334851 0.27301219
v 0.30945823 0.00359994 0.25095126
v 0.28356716 0.02494711 0.26363266
v 0.28373507 0.02476039 0.26294520
v 0.28439590 0.02528462 0.26374367
v 0.28325957 0.02509556 0.26427883
v 0.27949464 0.02365758 0.26492742
v 0.28083253 0.02444359 0.26540285
v 0.28015172 0.02402451 0.26520211
v 0.27976567 0.02406363 0.26590523
v 0.27731001 0.02285486 0.26686025
v 0.27644929 0.02240882 0.26735535
v 0.27538219 0.02147303 0.26684266
v 0.27404380 0.02069502 0.26818663
v 0.27210873 0.01886314 0.26837352
v 0.27427834 0.02098412 0.26845181
v 0.27338085 0.02022965 0.26883331
v 0.27068540 0.01755678 0.27008751
v 0.27121958 0.01802599 0.26955578
v 0.26971421 0.01616948 0.26948661
v 0.26807091 0.01373379 0.27025163
v 0.26879251 0.01488617 0.27064076
v 0.26822144 0.01424136 0.27127722
v 0.26682621 0.01136514 0.27152306
v 0.26691905 0.01154846 0.27078888
v 0.26710787 0.01214637 0.27180842
v 0.26658055 0.01103512 0.27193645
v 0.26618424 0.00984591 0.27113113
v 0.26532310 0.00725586 0.27153224
v 0.26564103 0.00854851 0.27248883
v 0.26541013 0.00755283 0.27220789
v 0.26529488 0.00731918 0.27263960
v 0.26452389 0.00353549 0.27190980
v 0.26469725 0.00463355 0.27292863
v 0.26463836 0.00404223 0.27247855
v 0.26458558 0.00355244 0.27272126
v 0.26451784 0.00340692 0.27296919
v 0.26432607 0.00063261 0.27310383
v 0.26434454 0.00004049 0.27258790
v 0.26442528 -0.00209102 0.27195218
v 0.26435211 -0.00057862 0.27304536
v 0.26494005 -0.00570204 0.27171394
v 0.26610780 -0.00970728 0.27117229
v 0.26845416 -0.01444859 0.27007091
v 0.27104938 -0.01775102 0.26886165
v 0.27288556 -0.01955639 0.26800770
v 0.27413684 -0.02047646 0.26732135
v 0.27688873 -0.02243890 0.26613602
v 0.28128579 -0.02420750 0.26409215
v 0.28361380 -0.02472529 0.26300302
v 0.28616494 -0.02499627 0.26181418
v 0.29045194 -0.02478006 0.25981256
v 0.29419062 -0.02372735 0.25807112
v 0.29718941 -0.02234710 0.25667295
v 0.30008110 -0.02049106 0.25532374
v 0.30283880 -0.01790974 0.25403893
v 0.30440000 -0.01592775 0.25323948
v 0.30583811 -0.01388619 0.25259888
v 0.30723533 -0.01130334 0.25198883
v 0.30917838 -0.00540412 0.25108820
v 0.30806401 -0.00929423 0.25160232
v 0.30962762 -0.00190784 0.25087392
v 0.30966580 0.00101183 0.25085694
v 0.30839479 0.00850876 0.25144857
v 0.30649811 0.01279800 0.25233331
v 0.30539173 0.01463733 0.25284830
v 0.30388770 0.01672445 0.25355059
v 0.30171877 0.01906325 0.25456500
v 0.29920486 0.02104393 0.25564656
v 0.29685763 0.02243459 0.25677159
v 0.29407242 0.02380836 0.25812402
v 0.29052943 0.02471736 0.25977764
v 0.28635338 0.02499633 0.26172748
v 0.28822789 0.02497028 0.26085210
v 0.30583811 -0.01388619 0.25259888
v 0.29586491 -0.02302049 0.25729120
v 0.27413684 -0.02047646 0.26732135
v 0.27405685 -0.02070480 0.26822647
v 0.26807091 0.01373379 0.27025163
v 0.26812503 0.01400231 0.27132976
v 0.26812503 0.01400231 0.27132976
v 0.26904306 0.01546925 0.27089640
v 0.27146095 0.01845564 0.26976407
v 0.27741548 0.02299215 0.26698077
v 0.29920486 0.02104393 0.25564656
v 0.28631794 0.02530502 0.26779026
v 0.28575182 0.02495093 0.26822340
v 0.28513435 0.02509812 0.26834375
v 0.28271309 0.02443539 0.26947299
v 0.28243586 0.02408139 0.26976705
v 0.28164816 0.02405438 0.26996922
v 0.27931261 0.02299610 0.27105811
v 0.27931261 0.02299610 0.27105811
v 0.27731001 0.02285486 0.26686025
v 0.27741548 0.02299215 0.26698077
v 0.27731001 0.02285486 0.26686025
v 0.27930099 0.02290900 0.27110001
v 0.27931058 0.02284431 0.27113616
v 0.27930099 0.02290900 0.27110001
v 0.27931058 0.02284431 0.27113616
v 0.27830932 0.02239898 0.27153534
v 0.27618161 0.02097807 0.27251765
v 0.27427834 0.02098412 0.26845181
v 0.27618161 0.02097807 0.27251765
v 0.27611676 0.02070227 0.27265772
v 0.27404380 0.02069502 0.26818663
v 0.27532688 0.02023933 0.27293277
v 0.27611676 0.02070227 0.27265772
v 0.27336559 0.01845183 0.27383131
v 0.27336559 0.01845183 0.27383131
v 0.27121958 0.01802599 0.26955578
v 0.27146095 0.01845564 0.26976407
v 0.27331144 0.01801605 0.27401268
v 0.27331144 0.01801605 0.27401268
v 0.27257487 0.01757393 0.27419960
v 0.27094936 0.01546559 0.27495790
v 0.27094936 0.01546559 0.27495790
v 0.26879251 0.01488617 0.27064076
v 0.26904306 0.01546925 0.27089640
v 0.27089122 0.01488818 0.27515310
v 0.27089122 0.01488818 0.27515310
v 0.27012756 0.01423380 0.27533388
v 0.27012756 0.01423380 0.27533388
v 0.26822144 0.01424136 0.27127722
v 0.26900330 0.01213040 0.27586496
v 0.26893926 0.01135755 0.27606389
v 0.26893926 0.01135755 0.27606389
v 0.26887318 0.01132342 0.27603918
v 0.26682621 0.01136514 0.27152306
v 0.26887318 0.01132342 0.27603918
v 0.26658055 0.01103512 0.27193645
v 0.26682621 0.01136514 0.27152306
v 0.26848415 0.01107085 0.27610928
v 0.26848415 0.01107085 0.27610928
v 0.26757684 0.00840972 0.27656198
v 0.26745132 0.00753247 0.27669489
v 0.26529488 0.00731918 0.27263960
v 0.26541013 0.00755283 0.27220789
v 0.26719320 0.00731892 0.27670997
v 0.26745132 0.00753247 0.27669489
v 0.26719320 0.00731892 0.27670997
v 0.26659307 0.00464844 0.27698955
v 0.26680100 0.00402650 0.27706873
v 0.26655990 0.00353661 0.27707326
v 0.26451784 0.00340692 0.27296919
v 0.26655990 0.00353661 0.27707326
v 0.26641473 0.00341450 0.27707407
v 0.26458558 0.00355244 0.27272126
v 0.26641473 0.00341450 0.27707407
v 0.26622736 0.00060883 0.27715936
v 0.26651219 -0.00003376 0.27720562
v 0.26628199 -0.00052900 0.27716601
v 0.26628199 -0.00052900 0.27716601
v 0.26626769 -0.00058908 0.27714989
v 0.26435211 -0.00057862 0.27304536
v 0.26626769 -0.00058908 0.27714989
vt 0.57859182 0.74853849
vt 0.56501597 0.56226701
vt 0.55013543 0.74836320
vt 0.52404982 0.74454433
vt 0.48541903 0.73104018
vt 0.47021168 0.72455615
vt 0.45264080 0.71161479
vt 0.41935897 0.67905200
vt 0.39683399 0.64386696
vt 0.38444382 0.61063135
vt 0.37870377 0.57722151
vt 0.37879071 0.54694617
vt 0.38558722 0.50962311
vt 0.40302876 0.46962070
vt 0.42847833 0.43474382
vt 0.45080039 0.41438162
vt 0.48200792 0.39473534
vt 0.53988916 0.37690806
vt 0.57902229 0.37606812
vt 0.61777431 0.38311613
vt 0.66518259 0.40402865
vt 0.67766058 0.41321278
vt 0.70428729 0.43748486
vt 0.72297633 0.46238267
vt 0.73668563 0.48855233
vt 0.74755949 0.52190715
vt 0.75172937 0.55651104
vt 0.74989086 0.58891881
vt 0.74232835 0.62138987
vt 0.72256464 0.66302127
vt 0.69119614 0.70015156
vt 0.66837746 0.71772796
vt 0.64468861 0.73117775
vt 0.61154157 0.74323058
vt 0.33807835 0.42351419
vt 0.33882216 0.42424023
vt 0.33272076 0.38287210
vt 0.34182310 0.46058756
vt 0.96850181 0.23326546
vt 0.97343010 0.26720405
vt 0.97446507 0.27135634
vt 0.33226079 0.65274811
vt 0.33759898 0.62013656
vt 0.33527073 0.63497084
vt 0.34269109 0.55919313
vt 0.34343311 0.49890518
vt 0.34288922 0.52267909
vt 0.96758693 0.35577464
vt 0.96911502 0.34303641
vt 0.96350724 0.38166595
vt 0.96765095 0.05964482
vt 0.96686304 0.06111681
vt 0.96446741 0.10111451
vt 0.97144419 0.02099764
vt 0.96957356 0.60133255
vt 0.96687001 0.58465922
vt 0.96727532 0.58906806
vt 0.96293074 0.55420405
vt 0.71334374 0.30403316
vt 0.70496970 0.31568825
vt 0.72810894 0.28559804
vt 0.68995994 0.32857972
vt 0.69092035 0.32926983
vt 0.67365950 0.34283936
vt 0.66561490 0.34657764
vt 0.65086967 0.35647464
vt 0.63160902 0.36339927
vt 0.62231946 0.36770856
vt 0.58394337 0.37518340
vt 0.60625154 0.37186944
vt 0.58910108 0.37327123
vt 0.56456220 0.37564301
vt 0.54593319 0.37367064
vt 0.54468006 0.37477922
vt 0.42544824 0.06562018
vt 0.43658075 0.05218303
vt 0.41815984 0.07258290
vt 0.45072600 0.04162198
vt 0.46997783 0.02618450
vt 0.47782901 0.02375644
vt 0.49590635 0.01374751
vt 0.50839549 0.01044834
vt 0.51554018 0.00704497
vt 0.52932477 0.00372392
vt 0.55359524 0.00146216
vt 0.54811507 0.00081295
vt 0.57077658 0.00138390
vt 0.57092947 -0.00011563
vt 0.39116174 0.25189590
vt 0.38272831 0.22885692
vt 0.39533585 0.26556855
vt 0.38002706 0.20206738
vt 0.37994576 0.18657506
vt 0.37866676 0.18938833
vt 0.37963659 0.16900861
vt 0.38353366 0.15072399
vt 0.38539091 0.13664883
vt 0.39235556 0.12086952
vt 0.40084112 0.09905982
vt 0.40517521 0.09425098
vt 0.73747981 0.11209810
vt 0.74937987 0.14543521
vt 0.74276227 0.12084079
vt 0.75367302 0.18904948
vt 0.75493437 0.19259089
vt 0.75356972 0.16722995
vt 0.75259638 0.21765566
vt 0.74790853 0.23370558
vt 0.74825168 0.23723662
vt 0.74327475 0.25307119
vt 0.73261756 0.27425873
vt 0.43303749 0.31878954
vt 0.40900630 0.28788865
vt 0.41620299 0.30077565
vt 0.40447193 0.28304124
vt 0.51519805 0.36920881
vt 0.51627314 0.36790967
vt 0.48188478 0.35459155
vt 0.48925054 0.35933983
vt 0.47839665 0.35398161
vt 0.46552667 0.34653211
vt 0.45095879 0.33443874
vt 0.43985516 0.32740635
vt 0.59916669 0.00257117
vt 0.60210842 0.00447357
vt 0.63152188 0.01134783
vt 0.62983078 0.01229620
vt 0.66575861 0.02752608
vt 0.65475953 0.02327484
vt 0.68421358 0.04267848
vt 0.69435501 0.04966629
vt 0.70813543 0.06594938
vt 0.70939636 0.06542683
vt 0.71903276 0.07764685
vt 0.72497398 0.08888638
vt 0.72957498 0.09368402
vt 0.32380167 0.50752318
vt 0.32883522 0.53876907
vt 0.33084512 0.53557825
vt 0.11983602 0.71028519
vt 0.08807003 0.69692761
vt 0.09752922 0.70429754
vt 0.06551199 0.41982770
vt 0.08361730 0.40746588
vt 0.06313533 0.41886508
vt 0.05929596 0.68013823
vt 0.06926111 0.68510175
vt 0.05459592 0.67267752
vt 0.03596868 0.65242124
vt 0.03550221 0.65511727
vt 0.02819893 0.64106166
vt 0.01394220 0.61975741
vt 0.01974140 0.62604320
vt 0.01057697 0.60423654
vt 0.00100458 0.57304013
vt 0.00355164 0.57378328
vt 0.00191117 0.54201007
vt 0.00070564 0.52960128
vt 0.00748874 0.50822592
vt 0.01098125 0.49011385
vt 0.02110217 0.47222245
vt 0.02658340 0.45930600
vt 0.04235447 0.44188839
vt 0.04151772 0.43971145
vt 0.08644741 0.40331155
vt 0.11459419 0.39361823
vt 0.11662394 0.39063418
vt 0.13865082 0.38741744
vt 0.14968878 0.38393164
vt 0.17076932 0.38556015
vt 0.18401878 0.38410616
vt 0.19616793 0.38829809
vt 0.21503882 0.39091492
vt 0.23084547 0.39890170
vt 0.24565242 0.40395200
vt 0.25866005 0.41498768
vt 0.27786326 0.42747831
vt 0.27893099 0.43151569
vt 0.29350480 0.44803798
vt 0.29807758 0.45038241
vt 0.29508969 0.45012486
vt 0.31016123 0.47286791
vt 0.31021869 0.46901220
vt 0.32323903 0.49824232
vt 0.32899544 0.56420708
vt 0.33051577 0.57265282
vt 0.32548186 0.58772308
vt 0.31944871 0.61480993
vt 0.31756344 0.61302251
vt 0.30709645 0.63476729
vt 0.30372444 0.64445537
vt 0.28857487 0.66100293
vt 0.28308159 0.66994876
vt 0.26792294 0.68063182
vt 0.26695690 0.68414420
vt 0.24984813 0.69360697
vt 0.24322328 0.69983482
vt 0.23014872 0.70349038
vt 0.21607085 0.71104693
vt 0.20368443 0.71259516
vt 0.18637022 0.71799076
vt 0.17344713 0.71675670
vt 0.14992043 0.71627575
vt 0.14037609 0.71751392
vt 0.36847344 0.54881978
vt 0.36285770 0.50979531
vt 0.36443236 0.55430585
vt 0.36722046 0.50575620
vt 0.36377603 0.47175479
vt 0.36853138 0.46524751
vt 0.36671799 0.43327123
vt 0.37131399 0.43265265
vt 0.37424770 0.41125524
vt 0.37404642 0.38848042
vt 0.37867168 0.38768435
vt 0.35604799 0.62394297
vt 0.36025059 0.62305725
vt 0.35516554 0.62001836
vt 0.35667065 0.60139990
vt 0.35001081 0.58265936
vt 0.35347840 0.57242984
vt 0.34685203 0.54066050
vt 0.35135353 0.53990889
vt 0.35050926 0.50535256
vt 0.34614444 0.49430299
vt 0.35101572 0.47339278
vt 0.34718934 0.45849741
vt 0.35272136 0.44116461
vt 0.34902680 0.43327343
vt 0.35049453 0.41820204
vt 0.35638744 0.40619767
vt 0.35549051 0.38408089
vt 0.36023915 0.38333952
vt 0.36027232 0.62976301
vt 0.36300406 0.64616406
vt 0.36453786 0.62841821
vt 0.36935773 0.66067684
vt 0.36616546 0.67292613
vt 0.37226138 0.69560486
vt 0.36851323 0.70854330
vt 0.37313440 0.71329045
vt 0.36937335 0.74521375
vt 0.37373909 0.74162161
vt 0.37339151 0.77362692
vt 0.36835250 0.78862602
vt 0.37197712 0.80246747
vt 0.36615178 0.82044888
vt 0.36929512 0.83385736
vt 0.36293119 0.84896284
vt 0.36457470 0.86667973
vt 0.36027142 0.86557567
vt 0.34366030 0.62374818
vt 0.35293597 0.65450954
vt 0.34823725 0.62464726
vt 0.34731063 0.64595491
vt 0.35017049 0.67205894
vt 0.35672957 0.70090121
vt 0.35226142 0.70118785
vt 0.35330191 0.74752247
vt 0.35765636 0.74684346
vt 0.35676122 0.78092009
vt 0.35177025 0.79206502
vt 0.35439932 0.81533366
vt 0.34798944 0.83312374
vt 0.34854004 0.85781723
vt 0.34367847 0.85977548
vt 0.34787855 0.86048847
vt 0.37414530 0.62459278
vt 0.37871143 0.62569225
vt 0.36928618 0.59976029
vt 0.37274635 0.59344459
vt 0.35757637 0.81108218
vt 0.36015913 0.76099443
vt 0.09773596 0.05114269
vt 0.11210060 0.03988689
vt 0.08060902 0.06073922
vt 0.13090314 0.03373688
vt 0.13068084 0.03126693
vt 0.35558829 0.65414345
vt 0.35920674 0.69878399
vt 0.36015078 0.72674704
vt 0.02362355 0.20920545
vt 0.02034091 0.19126672
vt 0.02309738 0.22719836
vt 0.02277538 0.19083554
vt 0.37644634 0.74196649
vt 0.37566701 0.71240216
vt 0.37573969 0.78084689
vt 0.37493265 0.80365556
vt 0.04663762 0.10489565
vt 0.06672606 0.07743365
vt 0.04404841 0.10302609
vt 0.34486398 0.45256591
vt 0.34639892 0.43231434
vt 0.09149040 0.32766199
vt 0.07825125 0.31710207
vt 0.08982085 0.32948768
vt 0.06732632 0.31026727
vt 0.04990754 0.28462487
vt 0.04126402 0.27483779
vt 0.03160357 0.24698150
vt 0.34684592 0.57902098
vt 0.35272583 0.62169796
vt 0.34401664 0.53402019
vt 0.34346446 0.49249041
vt 0.36015779 0.51609826
vt 0.36285612 0.57019401
vt 0.36803812 0.60892600
vt 0.37204409 0.62945402
vt 0.37453187 0.62788510
vt 0.35103366 0.85940129
vt 0.37235317 0.38299298
vt 0.37478969 0.38435602
vt 0.36620036 0.41557598
vt 0.36162591 0.46038496
vt 0.04457402 0.08426303
vt 0.02385110 0.12020493
vt 0.03387181 0.12418270
vt 0.00981264 0.17662913
vt 0.02241031 0.16139305
vt 0.03984628 0.29197294
vt 0.02989137 0.27497959
vt 0.32745689 0.30521441
vt 0.33868530 0.26844913
vt 0.31120336 0.30853558
vt 0.34463808 0.27866369
vt 0.01214252 0.22233748
vt 0.02041042 0.25309050
vt 0.36662909 0.20375669
vt 0.35392809 0.15951598
vt 0.35520059 0.21496475
vt 0.36373609 0.15746266
vt 0.05586319 0.31300467
vt 0.35846972 0.24673057
vt 0.24823989 0.36189139
vt 0.28798863 0.34230900
vt 0.23227048 0.35652232
vt 0.27891296 0.33526582
vt 0.34587607 0.10590804
vt 0.33938062 0.11704236
vt 0.32563347 0.09312457
vt 0.11459388 0.02698773
vt 0.07424937 0.05196017
vt 0.32143906 0.07141566
vt 0.12471767 0.36083090
vt 0.10801116 0.34142417
vt 0.08638469 0.34058297
vt 0.14537553 0.35654569
vt 0.29136825 0.04373455
vt 0.24504940 0.01992869
vt 0.28460383 0.05146360
vt 0.23834974 0.02897745
vt 0.16779412 0.37157202
vt 0.18609358 0.36200744
vt 0.21463875 0.37057912
vt 0.15278034 0.01427597
vt 0.20513837 0.02246237
vt 0.19602562 0.01104665
vt 0.17718612 0.02181351
vt 0.91155320 0.13271940
vt 0.91140658 0.15342426
vt 0.94433433 0.13668305
vt 0.94482565 0.15396369
vt 0.90971464 0.15787268
vt 0.94395196 0.16349906
vt 0.91115147 0.16337043
vt 0.94316483 0.18353844
vt 0.91016948 0.18351102
vt 0.76727903 0.30938053
vt 0.76810461 0.27450240
vt 0.76728004 0.27411759
vt 0.76811409 0.30778313
vt 0.90944242 0.18422425
vt 0.90840238 0.18829250
vt 0.94438618 0.18422073
vt 0.94536191 0.18856502
vt 0.94237608 0.19219655
vt 0.90961617 0.19238114
vt 0.94082075 0.21214080
vt 0.90792954 0.21206069
vt 0.76584053 0.31162822
vt 0.76388961 0.31084019
vt 0.76587176 0.34478295
vt 0.76392716 0.34732497
vt 0.93982291 0.22036541
vt 0.90632749 0.21308458
vt 0.90705031 0.22054052
vt 0.94257897 0.21316731
vt 0.93753541 0.23878735
vt 0.90468019 0.23867613
vt 0.76132494 0.23814213
vt 0.75835878 0.23743844
vt 0.76136327 0.27125859
vt 0.75837934 0.27369368
vt 0.90302104 0.24040562
vt 0.93640053 0.24667972
vt 0.93904030 0.24047667
vt 0.90337044 0.24623895
vt 0.90052205 0.26291072
vt 0.93362123 0.26276016
vt 0.34337375 0.65082294
vt 0.33942595 0.65012395
vt 0.34329015 0.68420327
vt 0.33948761 0.68725860
vt 0.89842314 0.26467419
vt 0.93425566 0.26717925
vt 0.93524784 0.26493299
vt 0.89909941 0.26928777
vt 0.93191373 0.26938087
vt 0.93466312 0.62708968
vt 0.93193007 0.61119533
vt 0.90145636 0.62622815
vt 0.89882100 0.61146051
vt 0.93779612 0.63244057
vt 0.90118247 0.63249600
vt 0.75803494 0.34449172
vt 0.76157331 0.34759706
vt 0.75814462 0.31170106
vt 0.76150078 0.31126004
vt 0.90265489 0.63426578
vt 0.90490997 0.65198052
vt 0.93572944 0.63414299
vt 0.93834794 0.65186036
vt 0.90392232 0.65567315
vt 0.94046074 0.65839601
vt 0.90452254 0.65858769
vt 0.37658432 0.73489499
vt 0.37883872 0.73717988
vt 0.37666401 0.70204914
vt 0.37882945 0.70154637
vt 0.90574199 0.65996516
vt 0.94049001 0.67882371
vt 0.93886673 0.65989625
vt 0.90744859 0.67908877
vt 0.90626156 0.68347645
vt 0.94367266 0.68330461
vt 0.94217849 0.68684244
vt 0.76724517 0.27159995
vt 0.76837271 0.27297246
vt 0.76724809 0.23872739
vt 0.76837379 0.23842990
vt 0.90731966 0.68693411
vt 0.94254297 0.70770609
vt 0.94119132 0.68767750
vt 0.90912092 0.70764250
vt 0.90803903 0.68777442
vt 0.90901124 0.71724862
vt 0.94324148 0.71694136
vt 0.90997487 0.73748660
vt 0.94302082 0.73790777
vt 0.90863186 0.74156237
vt 0.94624561 0.74299151
vt 0.90994745 0.74736434
vt 0.94309902 0.74795198
vt 0.90989935 0.76737809
vt 0.94290328 0.76816869
vt 0.94608563 0.77191520
vt 0.90839279 0.77235591
vt 0.90962785 0.77763146
vt 0.94266218 0.77720279
vt 0.94203621 0.79779404
vt 0.90882790 0.79786569
vt 0.33194733 0.45187175
vt 0.33134407 0.45164919
vt 0.33195472 0.48511755
vt 0.33134970 0.48577029
vt 0.90836209 0.79827732
vt 0.94494730 0.80144000
vt 0.94249099 0.79825878
vt 0.90717494 0.80232906
vt 0.94140828 0.80671674
vt 0.90835172 0.80655468
vt 0.90694040 0.82619506
vt 0.94007224 0.82605666
vt 0.76723701 0.23783535
vt 0.76559675 0.27349919
vt 0.76727527 0.27103746
vt 0.76568907 0.23735315
vt 0.94191408 0.82695341
vt 0.90586847 0.82728171
vt 0.90519160 0.83058643
vt 0.93924981 0.83436930
vt 0.90620106 0.83429909
vt 0.93729591 0.85249025
vt 0.90421897 0.85258621
vt 0.76385254 0.27476412
vt 0.76114321 0.31071532
vt 0.76398683 0.30788970
vt 0.76125556 0.27426255
vt 0.90287054 0.85398763
vt 0.90309501 0.85993052
vt 0.93926167 0.85405630
vt 0.93620145 0.86079073
vt 0.93452954 0.87605017
vt 0.90074521 0.87641096
vt 0.75841147 0.23779190
vt 0.75463820 0.23722589
vt 0.75836158 0.27165967
vt 0.75467956 0.27423018
vt 0.89904231 0.87810397
vt 0.93329823 0.88223523
vt 0.93594873 0.87812304
vt 0.89942068 0.88279718
vt 0.93190396 0.88628602
vt 0.89882553 0.88637084
vt 0.99998277 0.88212156
vt 0.96489203 0.87071192
vt 0.96687835 0.88189816
vt 0.99819440 0.87046230
vt 0.96174544 0.86531228
vt 0.99853677 0.86560428
vt 0.75808537 0.31120753
vt 0.75491405 0.31168944
vt 0.75813705 0.34796846
vt 0.75484627 0.34552926
vt 0.99699044 0.86376625
vt 0.99473405 0.84709501
vt 0.96316302 0.86358225
vt 0.96166778 0.84705645
vt 0.99551368 0.84018278
vt 0.95848268 0.84009880
vt 0.37876776 0.70195103
vt 0.37885872 0.66501904
vt 0.37663421 0.69952458
vt 0.37646833 0.66578937
vt 0.95902699 0.82083601
vt 0.99385613 0.83910835
vt 0.99236149 0.82005376
vt 0.96013612 0.83873129
vt 0.99258202 0.81263196
vt 0.95662165 0.81248993
vt 0.76601094 0.30770785
vt 0.76733202 0.31002152
vt 0.76603270 0.27458382
vt 0.76728517 0.27410495
vt 0.99158728 0.81181079
vt 0.95735246 0.79208124
vt 0.95844996 0.81161332
vt 0.99047995 0.79168761
vt 0.99183625 0.78733706
vt 0.95427573 0.78733420
vt 0.95655918 0.78284574
vt 0.99045998 0.78314233
vt 0.33183718 0.55400592
vt 0.33196035 0.52024978
vt 0.33159757 0.52042037
vt 0.99011433 0.78298026
vt 0.95649344 0.76214749
vt 0.98963565 0.76207089
vt 0.99102020 0.75663179
vt 0.95364308 0.75714064
vt 0.95641816 0.75235707
vt 0.98949516 0.75228155
vt 0.95624167 0.73217976
vt 0.98967010 0.73208976
vt 0.99111670 0.72641820
vt 0.95594275 0.72309303
vt 0.98981047 0.72241515
vt 0.95729047 0.70170134
vt 0.99055356 0.70197791
vt 0.33198440 0.38363314
vt 0.33132699 0.38351071
vt 0.33206397 0.41676545
vt 0.33132809 0.41794682
vt 0.95641786 0.70131791
vt 0.99090832 0.70142579
vt 0.99219739 0.69850141
vt 0.95467800 0.69733083
vt 0.95787585 0.69311273
vt 0.99098158 0.69264442
vt 0.95915282 0.67295069
vt 0.99230921 0.67320579
vt 0.76402962 0.27354485
vt 0.76568866 0.23799425
vt 0.76406747 0.23753262
vt 0.76574939 0.27104592
vt 0.99329674 0.67206722
vt 0.99314761 0.66484314
vt 0.95724767 0.67206520
vt 0.95981848 0.66462535
vt 0.96167505 0.64582855
vt 0.99485528 0.64607620
vt 0.76393211 0.31171679
vt 0.76121515 0.34717798
vt 0.76411152 0.34481823
vt 0.76128447 0.31110704
vt 0.96006739 0.64419270
vt 0.99630934 0.64456582
vt 0.96247017 0.63792479
vt 0.99585330 0.63797057
vt 0.99820685 0.62147188
vt 0.96490180 0.62135047
vt 0.33540541 0.65078688
vt 0.33167854 0.68701929
vt 0.33551848 0.68402976
vt 0.33170184 0.65021688
vt 0.96618611 0.61461437
vt 0.96308500 0.61933577
vt 0.99932063 0.61470294
vt 0.99995130 0.61958784
vt 0.92365080 0.59894693
vt 0.92603308 0.61080682
vt 0.95705301 0.59905285
vt 0.95908755 0.61059111
vt 0.96687388 0.61075366
vt 0.99998653 0.61088949
vt 0.95755517 0.59344506
vt 0.92094892 0.59371996
vt 0.75824964 0.27417624
vt 0.75478601 0.27485150
vt 0.75831974 0.31071788
vt 0.75471920 0.30801708
vt 0.95586455 0.59152871
vt 0.95350885 0.57397956
vt 0.92276484 0.59181625
vt 0.92048353 0.57396615
vt 0.95433092 0.56717795
vt 0.91748863 0.56740957
vt 0.37645388 0.66259372
vt 0.37888280 0.62860668
vt 0.37637129 0.62944978
vt 0.37881881 0.66549814
vt 0.95260310 0.56600440
vt 0.91736954 0.54679030
vt 0.91954964 0.56608641
vt 0.95088738 0.54664212
vt 0.95139647 0.53886330
vt 0.91557801 0.53922403
vt 0.76581407 0.34522533
vt 0.76717663 0.34724414
vt 0.76577032 0.31204826
vt 0.76721710 0.31143081
vt 0.91598564 0.51839888
vt 0.95020121 0.53810549
vt 0.94903749 0.51768458
vt 0.91713035 0.53820109
vt 0.91296583 0.51406395
vt 0.95028031 0.51300776
vt 0.91514689 0.50901854
vt 0.94880748 0.50878584
vt 0.00027600 0.18773800
vt 0.00154989 0.19146359
vt 0.00018630 0.18728626
vt -0.00003463 0.19629556
vt 0.00240021 0.21831214
vt 0.00392678 0.22199869
vt 0.00148638 0.21739745
vt 0.00296008 0.22667569
vt 0.00949885 0.24837834
vt 0.01086828 0.25496566
vt 0.02105500 0.27692080
vt 0.01845338 0.27497250
vt 0.02148227 0.27713245
vt 0.02271829 0.28294152
vt 0.03748510 0.30368304
vt 0.03197216 0.29875505
vt 0.03866462 0.30802214
vt 0.05199122 0.32387871
vt 0.05737114 0.32720387
vt 0.05846696 0.33048487
vt 0.07444990 0.34395045
vt 0.08055846 0.34740531
vt 0.08155568 0.34947968
vt 0.09894007 0.36017859
vt 0.10687412 0.36351359
vt 0.10721511 0.36465812
vt 0.10696500 0.36399901
vt 0.13212174 0.37281728
vt 0.12635869 0.37261605
vt 0.13508700 0.37548006
vt 0.15929037 0.37935710
vt 0.15493260 0.38046390
vt 0.16464446 0.38201761
vt 0.18939520 0.38181520
vt 0.18501416 0.38325799
vt 0.19396053 0.38346839
vt 0.21562752 0.38035905
vt 0.22359967 0.38030553
vt 0.24387081 0.37564397
vt 0.24529827 0.37309408
vt 0.25241664 0.37268710
vt 0.27147719 0.36460018
vt 0.27377141 0.36158758
vt 0.27981949 0.36025119
vt 0.29704154 0.34949231
vt 0.29999176 0.34526610
vt 0.30424213 0.34420162
vt 0.31971028 0.33097768
vt 0.32336089 0.32511646
vt 0.32645148 0.32423568
vt 0.34328032 0.30158144
vt 0.33968443 0.30813777
vt 0.34517908 0.30082607
vt 0.35665193 0.27761745
vt 0.35599509 0.28343320
vt 0.35938171 0.27523088
vt 0.36013815 0.27482390
vt 0.36813152 0.25572985
vt 0.36752465 0.25151747
vt 0.37091261 0.24645376
vt 0.37452674 0.22214895
vt 0.37583262 0.22688460
vt 0.37714767 0.21713901
vt 0.37686181 0.19116664
vt 0.37842664 0.19582081
vt 0.37882772 0.18711591
vt 0.37721935 0.16606998
vt 0.37578234 0.16492426
vt 0.37549409 0.15718216
vt 0.37105802 0.13656831
vt 0.36842424 0.13490033
vt 0.36813235 0.12766820
vt 0.36006686 0.10868835
vt 0.35709968 0.10606796
vt 0.35584179 0.10074061
vt 0.34524688 0.08295184
vt 0.34104618 0.07948309
vt 0.34018341 0.07536930
vt 0.32107177 0.05585825
vt 0.32648540 0.05962932
vt 0.32030162 0.05294538
vt 0.30064899 0.03854001
vt 0.30440697 0.03926921
vt 0.29784834 0.03587455
vt 0.29722106 0.03393769
vt 0.27948841 0.02294862
vt 0.27512690 0.02263963
vt 0.27173394 0.01959544
vt 0.27150875 0.01881588
vt 0.25262573 0.01085085
vt 0.24716589 0.01080430
vt 0.24292551 0.00752169
vt 0.21753003 0.00368756
vt 0.22360991 0.00316399
vt 0.21402511 0.00133932
vt 0.18431361 -0.00007570
vt 0.19381940 0.00050509
vt 0.16297287 0.00258172
vt 0.15911627 0.00411755
vt 0.15509690 0.00299102
vt 0.13319951 0.00984228
vt 0.12993741 0.01122421
vt 0.12648386 0.01073956
vt 0.10724710 0.01880354
vt 0.10484208 0.02174062
vt 0.09833997 0.02338284
vt 0.08161881 0.03399986
vt 0.07863313 0.03813195
vt 0.07445894 0.03908724
vt 0.05535559 0.05821121
vt 0.05890197 0.05286747
vt 0.05234474 0.05925304
vt 0.03889005 0.07499897
vt 0.03571782 0.08203810
vt 0.03354266 0.08255690
vt 0.02267747 0.10041064
vt 0.02230698 0.10453939
vt 0.01864374 0.10863364
vt 0.01959677 0.10813087
vt 0.01063362 0.12753844
vt 0.01061795 0.13318479
vt 0.00763248 0.13707668
vt 0.00299255 0.15724981
vt 0.00393436 0.16171652
vt 0.00132747 0.16677529
vt 0.37900493 0.19609874
vt 0.29280239 0.35241169
vt 0.21473823 0.38193071
vt 0.00787554 0.24676001
vt 0.13499837 0.00795323
vt 0.16406423 0.00159687
vt 0.34819961 0.08696753
vt 0.94756991 0.12872303
vt 0.91150051 0.12305003
vt 0.90988243 0.12856686
vt 0.94430834 0.12332338
vt 0.94976658 0.75940078
vt 0.91204965 0.48249924
vt 0.90838426 0.48554778
vt 0.91509849 0.48814428
vt 0.91502547 0.47859728
vt 0.90859544 0.44942641
vt 0.91510701 0.45793140
vt 0.91208923 0.45344722
vt 0.91532868 0.44869149
vt 0.91501540 0.42763388
vt 0.91598272 0.41970056
vt 0.91036314 0.41292775
vt 0.91576731 0.39867508
vt 0.91307867 0.38268900
vt 0.91786402 0.39978874
vt 0.91842073 0.39157242
vt 0.92137432 0.36598426
vt 0.91894418 0.37178463
vt 0.91615731 0.35952985
vt 0.91915196 0.34287012
vt 0.92238230 0.34788656
vt 0.92561972 0.34135115
vt 0.93736911 0.01891440
vt 0.94121355 0.01817298
vt 0.93410814 0.01337475
vt 0.93615609 0.02074140
vt 0.94317460 0.02951461
vt 0.94567704 0.04718781
vt 0.93810743 0.03748202
vt 0.94117671 0.04467237
vt 0.93923926 0.04597980
vt 0.94841546 0.07331342
vt 0.94121802 0.06478876
vt 0.94435185 0.06935328
vt 0.94337416 0.07260817
vt 0.94221878 0.07356071
vt 0.94326454 0.09367174
vt 0.94643217 0.09838438
vt 0.95054126 0.11460871
vt 0.94396579 0.10262477
vt 0.95079112 0.14206737
vt 0.94994038 0.17350680
vt 0.94719791 0.21232569
vt 0.94343626 0.24093604
vt 0.94058877 0.25726247
vt 0.93936032 0.26638490
vt 0.94232410 0.63401145
vt 0.94614118 0.66750920
vt 0.94761711 0.68582600
vt 0.94878370 0.70628172
vt 0.94981676 0.74157268
vt 0.94945914 0.77351570
vt 0.94842178 0.79985374
vt 0.94668180 0.82596326
vt 0.94386071 0.85194886
vt 0.94212377 0.86769521
vt 0.93935347 0.88198638
vt 0.95744473 0.86430848
vt 0.95284569 0.82479382
vt 0.95561302 0.85116827
vt 0.95111585 0.80004573
vt 0.95021868 0.77874434
vt 0.94996244 0.72145069
vt 0.95159203 0.68644887
vt 0.95272338 0.67088467
vt 0.95440018 0.65275556
vt 0.95702797 0.63151884
vt 0.95968670 0.61242241
vt 0.91561693 0.58991599
vt 0.91323614 0.56867260
vt 0.91073805 0.54095632
vt 0.90894508 0.50722855
vt 0.90960610 0.52250350
vt 0.95994455 0.88066471
vt 0.94896704 0.78813040
vt 0.93954897 0.61427468
vt 0.93373919 0.61084580
vt 0.93832225 0.00394273
vt 0.93158811 0.00136727
vt 0.92599612 0.34015918
vt 0.92413002 0.34963238
vt 0.92058069 0.37340426
vt 0.91596013 0.42813021
vt 0.91847950 0.60705799
vt 0.94810665 0.48822266
vt 0.94953799 0.48258835
vt 0.94801718 0.47827524
vt 0.94816899 0.45761657
vt 0.94966668 0.45435542
vt 0.94835997 0.44841254
vt 0.94910765 0.42792213
vt 0.33184665 0.41784430
vt 0.33117923 0.45203924
vt 0.33198041 0.45075077
vt 0.33172229 0.52037209
vt 0.33196199 0.48603797
vt 0.33165661 0.48583591
vt 0.33133501 0.41770899
vt 0.94984049 0.42744493
vt 0.94970262 0.41890371
vt 0.95097786 0.39964825
vt 0.34360364 0.75203335
vt 0.34364328 0.71919948
vt 0.34184700 0.71878463
vt 0.34187195 0.75485337
vt 0.95187634 0.39163661
vt 0.95207882 0.39840209
vt 0.95370096 0.37325734
vt 0.76411545 0.23805201
vt 0.76119828 0.27342629
vt 0.76415437 0.27092254
vt 0.76122910 0.23743308
vt 0.95535481 0.37175226
vt 0.95470977 0.36563277
vt 0.95722157 0.34951806
vt 0.33950427 0.65079999
vt 0.33542606 0.68650794
vt 0.33954394 0.68363684
vt 0.33546719 0.65012163
vt 0.95911390 0.34764040
vt 0.95863122 0.34117556
vt 0.89853710 -0.00010204
vt 0.93131626 0.00000072
vt 0.90134269 0.01348054
vt 0.90071869 0.01894212
vt 0.33166355 0.48579836
vt 0.33135563 0.48610801
vt 0.33162537 0.52273589
vt 0.76145023 0.27436268
vt 0.75830603 0.30856812
vt 0.76144665 0.31101406
vt 0.75835186 0.27477884
vt 0.90267241 0.02043235
vt 0.90509963 0.03854507
vt 0.90519536 0.04474580
vt 0.76393765 0.30780989
vt 0.76625395 0.31063628
vt 0.76409197 0.27469563
vt 0.76613301 0.27425504
vt 0.90637815 0.04596555
vt 0.90841782 0.06466472
vt 0.90719622 0.06947863
vt 0.90845311 0.07276583
vt 0.76715833 0.34560585
vt 0.76828802 0.31199145
vt 0.76727337 0.31226361
vt 0.76834792 0.34726822
vt 0.90916657 0.07346010
vt 0.91048610 0.09383893
vt 0.90910858 0.09893066
vt 0.91057700 0.10229701
vt 0.33156499 0.55982798
vt 0.33127990 0.56004804
vt 0.33153889 0.59317642
vt 0.91082621 0.10268056
f 1/1 3/3 2/2
f 3/3 4/4 2/2
f 4/4 5/5 2/2
f 2/2 5/5 6/6
f 6/6 7/7 2/2
f 7/7 8/8 2/2
f 8/8 9/9 2/2
f 9/9 10/10 2/2
f 2/2 10/10 11/11
f 11/11 12/12 2/2
f 2/2 12/12 13/13
f 13/13 14/14 2/2
f 2/2 14/14 15/15
f 15/15 16/16 2/2
f 16/16 17/17 2/2
f 17/17 18/18 2/2
f 2/2 18/18 19/19
f 2/2 19/19 20/20
f 20/20 21/21 2/2
f 2/2 21/21 22/22
f 22/22 23/23 2/2
f 23/23 24/24 2/2
f 2/2 24/24 25/25
f 25/25 26/26 2/2
f 26/26 27/27 2/2
f 2/2 27/27 28/28
f 2/2 28/28 29/29
f 2/2 29/29 30/30
f 2/2 30/30 31/31
f 2/2 31/31 32/32
f 32/32 33/33 2/2
f 2/2 33/33 34/34
f 34/34 1/1 2/2
f 35/35 37/37 36/36
f 35/35 36/36 38/38
f 39/39 41/41 40/40
f 42/42 44/44 43/43
f 45/45 47/47 46/46
f 48/48 50/50 49/49
f 51/51 53/53 52/52
f 51/51 52/52 54/54
f 55/55 57/57 56/56
f 56/56 57/57 58/58
f 59/59 61/61 60/60
f 59/59 60/60 62/62
f 62/62 60/60 63/63
f 62/62 63/63 64/64
f 62/62 64/64 65/65
f 65/65 64/64 66/66
f 65/65 66/66 67/67
f 67/67 66/66 68/68
f 67/67 68/68 69/69
f 69/69 68/68 70/70
f 71/71 69/69 72/72
f 72/72 74/74 73/73
f 75/75 77/77 76/76
f 75/75 76/76 78/78
f 78/78 76/76 79/79
f 78/78 79/79 80/80
f 80/80 79/79 81/81
f 80/80 81/81 82/82
f 82/82 81/81 83/83
f 82/82 83/83 84/84
f 82/82 84/84 85/85
f 85/85 84/84 86/86
f 85/85 86/86 87/87
f 87/87 86/86 88/88
f 89/89 91/91 90/90
f 89/89 90/90 92/92
f 93/93 92/92 94/94
f 93/93 94/94 95/95
f 93/93 95/95 96/96
f 96/96 95/95 97/97
f 96/96 97/97 98/98
f 98/98 97/97 99/99
f 98/98 99/99 100/100
f 100/100 99/99 75/75
f 75/75 99/99 77/77
f 101/101 103/103 102/102
f 104/104 106/106 105/105
f 104/104 105/105 107/107
f 104/104 107/107 108/108
f 108/108 107/107 109/109
f 108/108 109/109 110/110
f 108/108 110/110 111/111
f 111/111 110/110 61/61
f 111/111 61/61 59/59
f 112/112 114/114 113/113
f 113/113 114/114 115/115
f 113/113 115/115 89/89
f 89/89 115/115 91/91
f 73/73 74/74 116/116
f 73/73 116/116 117/117
f 117/117 116/116 118/118
f 118/118 116/116 119/119
f 118/118 119/119 120/120
f 118/118 120/120 121/121
f 118/118 121/121 122/122
f 122/122 121/121 123/123
f 122/122 123/123 112/112
f 112/112 123/123 114/114
f 87/87 88/88 124/124
f 87/87 124/124 125/125
f 125/125 124/124 126/126
f 125/125 126/126 127/127
f 127/127 126/126 128/128
f 127/127 128/128 129/129
f 129/129 128/128 130/130
f 130/130 128/128 131/131
f 130/130 131/131 132/132
f 132/132 131/131 133/133
f 132/132 133/133 134/134
f 132/132 134/134 135/135
f 135/135 134/134 136/136
f 135/135 136/136 101/101
f 101/101 136/136 103/103
f 137/137 139/139 138/138
f 140/140 142/142 141/141
f 143/143 145/145 144/144
f 141/141 142/142 146/146
f 141/141 146/146 147/147
f 147/147 146/146 148/148
f 148/148 146/146 149/149
f 149/149 146/146 150/150
f 149/149 150/150 151/151
f 151/151 150/150 152/152
f 151/151 152/152 153/153
f 153/153 152/152 154/154
f 154/154 152/152 155/155
f 154/154 155/155 156/156
f 156/156 155/155 157/157
f 157/157 155/155 158/158
f 157/157 158/158 159/159
f 159/159 158/158 160/160
f 159/159 160/160 161/161
f 161/161 160/160 162/162
f 161/161 162/162 163/163
f 163/163 162/162 164/164
f 163/163 164/164 145/145
f 163/163 145/145 143/143
f 144/144 145/145 165/165
f 144/144 165/165 166/166
f 166/166 165/165 167/167
f 166/166 167/167 168/168
f 168/168 167/167 169/169
f 168/168 169/169 170/170
f 170/170 169/169 171/171
f 170/170 171/171 172/172
f 172/172 171/171 173/173
f 172/172 173/173 174/174
f 174/174 173/173 175/175
f 174/174 175/175 176/176
f 176/176 175/175 177/177
f 176/176 177/177 178/178
f 178/178 177/177 179/179
f 179/179 177/177 180/180
f 179/179 180/180 181/181
f 181/181 180/180 182/182
f 182/182 180/180 183/183
f 182/182 183/183 184/184
f 182/182 184/184 137/137
f 137/137 184/184 139/139
f 138/138 139/139 185/185
f 185/185 139/139 186/186
f 185/185 186/186 187/187
f 187/187 186/186 188/188
f 187/187 188/188 189/189
f 189/189 188/188 190/190
f 190/190 188/188 191/191
f 190/190 191/191 192/192
f 192/192 191/191 193/193
f 192/192 193/193 194/194
f 194/194 193/193 195/195
f 194/194 195/195 196/196
f 196/196 195/195 197/197
f 196/196 197/197 198/198
f 198/198 197/197 199/199
f 198/198 199/199 200/200
f 200/200 199/199 201/201
f 200/200 201/201 202/202
f 202/202 201/201 203/203
f 203/203 201/201 204/204
f 203/203 204/204 140/140
f 140/140 204/204 142/142
f 205/205 207/207 206/206
f 205/205 206/206 208/208
f 208/208 206/206 209/209
f 208/208 209/209 210/210
f 210/210 209/209 211/211
f 210/210 211/211 212/212
f 212/212 211/211 213/213
f 211/211 214/214 213/213
f 213/213 214/214 215/215
f 216/216 218/218 217/217
f 217/217 218/218 219/219
f 218/218 220/220 219/219
f 219/219 220/220 221/221
f 221/221 220/220 222/222
f 221/221 222/222 223/223
f 223/223 222/222 224/224
f 222/222 225/225 224/224
f 224/224 225/225 226/226
f 226/226 225/225 227/227
f 226/226 227/227 228/228
f 227/227 229/229 228/228
f 228/228 229/229 230/230
f 228/228 230/230 231/231
f 230/230 232/232 231/231
f 231/231 232/232 233/233
f 234/234 236/236 235/235
f 236/236 237/237 235/235
f 235/235 237/237 238/238
f 238/238 237/237 239/239
f 238/238 239/239 240/240
f 240/240 239/239 241/241
f 240/240 241/241 242/242
f 242/242 241/241 243/243
f 243/243 244/244 242/242
f 242/242 244/244 245/245
f 244/244 246/246 245/245
f 245/245 246/246 247/247
f 247/247 246/246 248/248
f 247/247 248/248 249/249
f 249/249 248/248 250/250
f 249/249 250/250 251/251
f 252/252 254/254 253/253
f 252/252 253/253 255/255
f 255/255 253/253 256/256
f 253/253 257/257 256/256
f 256/256 257/257 258/258
f 258/258 257/257 259/259
f 257/257 260/260 259/259
f 260/260 261/261 259/259
f 259/259 261/261 262/262
f 262/262 261/261 263/263
f 262/262 263/263 264/264
f 264/264 263/263 265/265
f 264/264 265/265 266/266
f 265/265 267/267 266/266
f 268/268 270/270 269/269
f 269/269 270/270 271/271
f 271/271 270/270 207/207
f 271/271 207/207 205/205
f 261/261 273/273 272/272
f 261/261 272/272 263/263
f 274/274 276/276 275/275
f 274/274 275/275 277/277
f 277/277 275/275 278/278
f 253/253 279/279 257/257
f 257/257 279/279 280/280
f 257/257 280/280 281/281
f 257/257 281/281 260/260
f 260/260 281/281 273/273
f 260/260 273/273 261/261
f 282/282 284/284 283/283
f 282/282 283/283 285/285
f 241/241 287/287 286/286
f 241/241 286/286 243/243
f 243/243 286/286 244/244
f 244/244 286/286 288/288
f 244/244 288/288 246/246
f 246/246 288/288 289/289
f 290/290 292/292 291/291
f 291/291 292/292 276/276
f 291/291 276/276 274/274
f 227/227 293/293 229/229
f 229/229 293/293 294/294
f 295/295 297/297 296/296
f 296/296 297/297 298/298
f 296/296 298/298 299/299
f 299/299 298/298 300/300
f 299/299 300/300 301/301
f 301/301 300/300 284/284
f 301/301 284/284 282/282
f 218/218 303/303 302/302
f 218/218 302/302 220/220
f 220/220 302/302 222/222
f 222/222 302/302 304/304
f 222/222 304/304 305/305
f 222/222 305/305 225/225
f 225/225 305/305 227/227
f 227/227 305/305 293/293
f 306/306 207/207 307/307
f 307/307 207/207 270/270
f 307/307 270/270 308/308
f 308/308 270/270 268/268
f 308/308 268/268 309/309
f 309/309 268/268 310/310
f 311/311 265/265 272/272
f 272/272 265/265 263/263
f 312/312 313/313 214/214
f 312/312 214/214 314/314
f 314/314 214/214 211/211
f 314/314 211/211 315/315
f 315/315 211/211 209/209
f 315/315 209/209 306/306
f 306/306 209/209 206/206
f 306/306 206/206 207/207
f 316/316 292/292 317/317
f 317/317 292/292 318/318
f 319/319 317/317 320/320
f 321/321 322/322 300/300
f 323/323 325/325 324/324
f 323/323 324/324 326/326
f 327/327 284/284 328/328
f 329/329 331/331 330/330
f 329/329 330/330 332/332
f 320/320 283/283 319/319
f 327/327 319/319 284/284
f 321/321 300/300 333/333
f 333/333 300/300 298/298
f 334/334 331/331 329/329
f 319/319 283/283 284/284
f 328/328 284/284 300/300
f 328/328 300/300 322/322
f 335/335 337/337 336/336
f 336/336 337/337 338/338
f 334/334 326/326 324/324
f 334/334 324/324 331/331
f 332/332 330/330 339/339
f 339/339 330/330 340/340
f 339/339 340/340 341/341
f 342/342 275/275 343/343
f 317/317 318/318 320/320
f 339/339 341/341 344/344
f 345/345 347/347 346/346
f 345/345 346/346 348/348
f 336/336 325/325 323/323
f 275/275 276/276 343/343
f 333/333 298/298 347/347
f 298/298 297/297 347/347
f 349/349 351/351 350/350
f 350/350 351/351 352/352
f 347/347 297/297 346/346
f 345/345 348/348 353/353
f 354/354 337/337 355/355
f 336/336 338/338 325/325
f 344/344 341/341 351/351
f 343/343 292/292 316/316
f 353/353 354/354 355/355
f 344/344 351/351 349/349
f 356/356 278/278 342/342
f 342/342 278/278 275/275
f 343/343 276/276 292/292
f 335/335 355/355 337/337
f 348/348 354/354 353/353
f 350/350 352/352 357/357
f 350/350 357/357 358/358
f 356/356 359/359 278/278
f 358/358 359/359 356/356
f 358/358 357/357 359/359
f 360/360 362/362 361/361
f 361/361 362/362 363/363
f 361/361 363/363 364/364
f 364/364 363/363 365/365
f 365/365 366/366 364/364
f 366/366 365/365 367/367
f 366/366 367/367 368/368
f 369/369 371/371 370/370
f 370/370 372/372 369/369
f 373/373 375/375 374/374
f 374/374 375/375 376/376
f 377/377 378/378 376/376
f 376/376 378/378 374/374
f 379/379 380/380 378/378
f 379/379 378/378 377/377
f 381/381 383/383 382/382
f 382/382 383/383 384/384
f 385/385 387/387 386/386
f 385/385 386/386 388/388
f 389/389 390/390 387/387
f 389/389 387/387 385/385
f 391/391 393/393 392/392
f 392/392 393/393 394/394
f 395/395 397/397 396/396
f 395/395 396/396 398/398
f 398/398 396/396 399/399
f 399/399 396/396 400/400
f 401/401 403/403 402/402
f 402/402 403/403 404/404
f 405/405 407/407 406/406
f 405/405 406/406 408/408
f 409/409 408/408 406/406
f 410/410 412/412 411/411
f 413/413 411/411 412/412
f 414/414 412/412 410/410
f 412/412 414/414 415/415
f 416/416 418/418 417/417
f 417/417 418/418 419/419
f 420/420 422/422 421/421
f 421/421 422/422 423/423
f 421/421 423/423 424/424
f 424/424 423/423 425/425
f 424/424 425/425 426/426
f 427/427 429/429 428/428
f 428/428 429/429 430/430
f 431/431 433/433 432/432
f 431/431 432/432 434/434
f 434/434 432/432 435/435
f 435/435 432/432 436/436
f 435/435 436/436 437/437
f 438/438 440/440 439/439
f 439/439 440/440 441/441
f 437/437 442/442 435/435
f 443/443 445/445 444/444
f 444/444 445/445 446/446
f 445/445 443/443 447/447
f 447/447 443/443 448/448
f 447/447 448/448 449/449
f 449/449 448/448 450/450
f 450/450 451/451 449/449
f 451/451 450/450 452/452
f 451/451 452/452 453/453
f 454/454 453/453 452/452
f 453/453 454/454 455/455
f 455/455 454/454 456/456
f 455/455 456/456 457/457
f 455/455 457/457 458/458
f 458/458 457/457 459/459
f 459/459 457/457 460/460
f 461/461 462/462 459/459
f 461/461 459/459 460/460
f 463/463 465/465 464/464
f 464/464 465/465 466/466
f 467/467 469/469 468/468
f 467/467 468/468 470/470
f 471/471 472/472 468/468
f 468/468 472/472 470/470
f 472/472 471/471 473/473
f 473/473 471/471 474/474
f 475/475 477/477 476/476
f 475/475 476/476 478/478
f 479/479 481/481 480/480
f 481/481 479/479 482/482
f 482/482 483/483 481/481
f 484/484 485/485 482/482
f 482/482 485/485 483/483
f 486/486 488/488 487/487
f 487/487 489/489 486/486
f 490/490 492/492 491/491
f 492/492 493/493 491/491
f 494/494 495/495 493/493
f 491/491 493/493 495/495
f 496/496 498/498 497/497
f 497/497 498/498 499/499
f 500/500 502/502 501/501
f 500/500 501/501 503/503
f 503/503 501/501 504/504
f 503/503 504/504 505/505
f 506/506 508/508 507/507
f 506/506 507/507 509/509
f 509/509 507/507 510/510
f 511/511 509/509 510/510
f 512/512 514/514 513/513
f 513/513 514/514 515/515
f 516/516 518/518 517/517
f 517/517 518/518 519/519
f 519/519 521/521 520/520
f 519/519 520/520 517/517
f 522/522 524/524 523/523
f 523/523 524/524 525/525
f 526/526 528/528 527/527
f 527/527 529/529 526/526
f 528/528 526/526 530/530
f 526/526 531/531 530/530
f 532/532 534/534 533/533
f 533/533 534/534 535/535
f 536/536 538/538 537/537
f 536/536 537/537 539/539
f 537/537 540/540 539/539
f 540/540 537/537 541/541
f 542/542 540/540 541/541
f 540/540 542/542 543/543
f 544/544 546/546 545/545
f 547/547 542/542 548/548
f 547/547 548/548 549/549
f 548/548 550/550 549/549
f 551/551 550/550 548/548
f 550/550 551/551 552/552
f 552/552 553/553 550/550
f 554/554 555/555 553/553
f 553/553 552/552 554/554
f 555/555 554/554 556/556
f 556/556 554/554 557/557
f 557/557 558/558 556/556
f 558/558 557/557 559/559
f 558/558 559/559 560/560
f 561/561 563/563 562/562
f 562/562 563/563 564/564
f 565/565 567/567 566/566
f 567/567 565/565 568/568
f 569/569 570/570 568/568
f 568/568 570/570 567/567
f 570/570 569/569 571/571
f 570/570 571/571 572/572
f 573/573 575/575 574/574
f 574/574 576/576 573/573
f 577/577 579/579 578/578
f 578/578 579/579 580/580
f 578/578 580/580 581/581
f 578/578 581/581 582/582
f 583/583 585/585 584/584
f 583/583 584/584 586/586
f 587/587 589/589 588/588
f 588/588 589/589 590/590
f 590/590 589/589 591/591
f 591/591 589/589 592/592
f 593/593 595/595 594/594
f 593/593 594/594 596/596
f 597/597 599/599 598/598
f 598/598 599/599 600/600
f 601/601 603/603 602/602
f 602/602 603/603 604/604
f 605/605 606/606 597/597
f 597/597 606/606 599/599
f 603/603 601/601 607/607
f 601/601 608/608 607/607
f 609/609 611/611 610/610
f 612/612 610/610 611/611
f 613/613 615/615 614/614
f 614/614 615/615 616/616
f 614/614 616/616 617/617
f 617/617 616/616 618/618
f 619/619 621/621 620/620
f 619/619 620/620 622/622
f 623/623 625/625 624/624
f 623/623 624/624 626/626
f 626/626 624/624 627/627
f 627/627 624/624 628/628
f 629/629 631/631 630/630
f 630/630 631/631 632/632
f 633/633 635/635 634/634
f 633/633 634/634 636/636
f 635/635 633/633 637/637
f 635/635 637/637 638/638
f 638/638 637/637 639/639
f 639/639 640/640 638/638
f 319/319 642/642 641/641
f 319/319 641/641 643/643
f 644/644 642/642 319/319
f 327/327 646/646 645/645
f 327/327 645/645 647/647
f 327/327 648/648 646/646
f 328/328 650/650 649/649
f 651/651 652/652 322/322
f 322/322 653/653 651/651
f 322/322 654/654 653/653
f 655/655 656/656 321/321
f 333/333 657/657 655/655
f 333/333 655/655 321/321
f 333/333 659/659 658/658
f 333/333 660/660 659/659
f 347/347 662/662 661/661
f 663/663 662/662 347/347
f 345/345 665/665 664/664
f 345/345 664/664 347/347
f 666/666 667/667 345/345
f 345/345 667/667 665/665
f 668/668 669/669 345/345
f 670/670 668/668 345/345
f 671/671 672/672 353/353
f 353/353 673/673 671/671
f 674/674 675/675 353/353
f 676/676 674/674 353/353
f 355/355 678/678 677/677
f 335/335 680/680 679/679
f 335/335 681/681 680/680
f 336/336 683/683 682/682
f 684/684 683/683 336/336
f 336/336 686/686 685/685
f 336/336 687/687 686/686
f 323/323 689/689 688/688
f 690/690 689/689 323/323
f 691/691 692/692 323/323
f 323/323 693/693 691/691
f 694/694 695/695 326/326
f 696/696 694/694 326/326
f 697/697 696/696 326/326
f 334/334 699/699 698/698
f 700/700 699/699 334/334
f 329/329 701/701 334/334
f 334/334 701/701 702/702
f 703/703 701/701 329/329
f 704/704 705/705 329/329
f 329/329 706/706 704/704
f 332/332 708/708 707/707
f 332/332 709/709 708/708
f 332/332 711/711 710/710
f 339/339 712/712 711/711
f 339/339 711/711 332/332
f 339/339 714/714 713/713
f 339/339 715/715 714/714
f 339/339 717/717 716/716
f 344/344 718/718 717/717
f 344/344 717/717 339/339
f 719/719 720/720 344/344
f 721/721 719/719 344/344
f 722/722 723/723 349/349
f 724/724 722/722 349/349
f 349/349 725/725 724/724
f 349/349 727/727 726/726
f 350/350 728/728 727/727
f 350/350 727/727 349/349
f 729/729 728/728 350/350
f 350/350 731/731 730/730
f 350/350 732/732 731/731
f 358/358 733/733 350/350
f 350/350 733/733 734/734
f 733/733 358/358 735/735
f 736/736 737/737 358/358
f 356/356 739/739 738/738
f 356/356 740/740 739/739
f 356/356 742/742 741/741
f 342/342 742/742 356/356
f 342/342 743/743 742/742
f 342/342 745/745 744/744
f 746/746 745/745 342/342
f 343/343 748/748 747/747
f 749/749 748/748 343/343
f 750/750 751/751 343/343
f 752/752 750/750 343/343
f 316/316 754/754 753/753
f 754/754 316/316 755/755
f 756/756 317/317 757/757
f 758/758 759/759 317/317
f 759/759 757/757 317/317
f 317/317 761/761 760/760
f 317/317 762/762 761/761
f 319/319 764/764 763/763
f 319/319 765/765 764/764
f 705/705 766/766 329/329
f 766/766 703/703 329/329
f 334/334 702/702 700/700
f 334/334 698/698 697/697
f 334/334 697/697 326/326
f 326/326 695/695 323/323
f 695/695 693/693 323/323
f 690/690 323/323 692/692
f 323/323 688/688 336/336
f 336/336 688/688 687/687
f 336/336 685/685 767/767
f 767/767 684/684 336/336
f 336/336 682/682 335/335
f 681/681 335/335 682/682
f 335/335 679/679 355/355
f 355/355 679/679 678/678
f 677/677 768/768 355/355
f 768/768 676/676 355/355
f 355/355 676/676 353/353
f 675/675 673/673 353/353
f 353/353 672/672 345/345
f 345/345 672/672 670/670
f 669/669 666/666 345/345
f 663/663 347/347 664/664
f 347/347 661/661 660/660
f 347/347 660/660 333/333
f 658/658 657/657 333/333
f 654/654 322/322 656/656
f 656/656 322/322 321/321
f 322/322 652/652 328/328
f 328/328 652/652 650/650
f 649/649 769/769 328/328
f 328/328 769/769 327/327
f 327/327 769/769 648/648
f 327/327 647/647 319/319
f 647/647 644/644 319/319
f 319/319 643/643 765/765
f 319/319 763/763 762/762
f 319/319 762/762 317/317
f 317/317 760/760 758/758
f 317/317 756/756 316/316
f 316/316 756/756 755/755
f 753/753 752/752 316/316
f 316/316 752/752 343/343
f 751/751 749/749 343/343
f 746/746 343/343 747/747
f 343/343 746/746 342/342
f 744/744 743/743 342/342
f 741/741 770/770 356/356
f 770/770 740/740 356/356
f 738/738 771/771 356/356
f 356/356 771/771 736/736
f 356/356 736/736 358/358
f 358/358 737/737 735/735
f 734/734 732/732 350/350
f 350/350 730/730 729/729
f 349/349 726/726 725/725
f 723/723 721/721 349/349
f 349/349 721/721 344/344
f 718/718 344/344 720/720
f 339/339 716/716 772/772
f 339/339 772/772 715/715
f 713/713 712/712 339/339
f 332/332 710/710 709/709
f 332/332 707/707 329/329
f 329/329 707/707 706/706
f 773/773 775/775 774/774
f 774/774 776/776 773/773
f 362/362 360/360 773/773
f 773/773 360/360 775/775
f 551/551 548/548 777/777
f 778/778 780/780 779/779
f 779/779 781/781 778/778
f 782/782 784/784 783/783
f 785/785 784/784 782/782
f 782/782 787/787 786/786
f 788/788 787/787 782/782
f 789/789 788/788 790/790
f 788/788 789/789 791/791
f 790/790 792/792 789/789
f 793/793 794/794 790/790
f 795/795 793/793 790/790
f 796/796 797/797 795/795
f 796/796 798/798 797/797
f 799/799 801/801 800/800
f 800/800 802/802 799/799
f 802/802 800/800 803/803
f 804/804 806/806 805/805
f 807/807 806/806 804/804
f 808/808 810/810 809/809
f 808/808 811/811 810/810
f 808/808 812/812 811/811
f 808/808 814/814 813/813
f 815/815 816/816 814/814
f 815/815 814/814 808/808
f 817/817 773/773 815/815
f 815/815 773/773 776/776
f 362/362 773/773 817/817
f 818/818 363/363 817/817
f 818/818 365/365 363/363
f 818/818 375/375 367/367
f 818/818 376/376 375/375
f 819/819 377/377 376/376
f 819/819 376/376 818/818
f 819/819 385/385 388/388
f 820/820 396/396 397/397
f 821/821 407/407 400/400
f 822/822 406/406 407/407
f 822/822 407/407 821/821
f 823/823 414/414 410/410
f 422/422 414/414 823/823
f 425/425 423/423 824/824
f 824/824 423/423 823/823
f 825/825 436/436 432/432
f 825/825 437/437 436/436
f 448/448 443/443 826/826
f 827/827 448/448 826/826
f 452/452 450/450 827/827
f 454/454 452/452 827/827
f 828/828 457/457 456/456
f 828/828 460/460 457/457
f 829/829 468/468 469/469
f 471/471 468/468 829/829
f 830/830 482/482 479/479
f 831/831 493/493 492/492
f 493/493 831/831 832/832
f 833/833 502/502 494/494
f 833/833 494/494 832/832
f 833/833 501/501 502/502
f 834/834 510/510 507/507
f 834/834 518/518 510/510
f 835/835 521/521 836/836
f 836/836 521/521 519/519
f 835/835 529/529 521/521
f 835/835 531/531 526/526
f 538/538 531/531 837/837
f 837/837 531/531 835/835
f 837/837 541/541 537/537
f 838/838 541/541 837/837
f 542/542 541/541 838/838
f 777/777 552/552 551/551
f 839/839 557/557 554/554
f 839/839 568/568 565/565
f 840/840 568/568 839/839
f 569/569 568/568 840/840
f 580/580 579/579 841/841
f 842/842 580/580 841/841
f 842/842 589/589 587/587
f 843/843 589/589 842/842
f 843/843 598/598 592/592
f 844/844 597/597 598/598
f 844/844 598/598 843/843
f 845/845 608/608 601/601
f 846/846 618/618 616/616
f 625/625 618/618 846/846
f 847/847 628/628 624/624
f 848/848 637/637 849/849
f 849/849 637/637 633/633
f 848/848 639/639 637/637
f 537/537 538/538 837/837
f 529/529 835/835 526/526
f 836/836 519/519 518/518
f 518/518 834/834 836/836
f 834/834 507/507 850/850
f 507/507 508/508 850/850
f 833/833 504/504 501/501
f 494/494 493/493 832/832
f 492/492 484/484 831/831
f 831/831 484/484 830/830
f 830/830 484/484 482/482
f 479/479 474/474 830/830
f 830/830 474/474 471/471
f 830/830 471/471 829/829
f 469/469 461/461 829/829
f 829/829 461/461 851/851
f 460/460 851/851 461/461
f 851/851 460/460 828/828
f 456/456 454/454 828/828
f 828/828 454/454 827/827
f 450/450 448/448 827/827
f 444/444 826/826 443/443
f 826/826 444/444 825/825
f 444/444 437/437 825/825
f 825/825 432/432 824/824
f 824/824 432/432 433/433
f 433/433 425/425 824/824
f 423/423 422/422 823/823
f 410/410 411/411 823/823
f 411/411 853/853 852/852
f 411/411 852/852 823/823
f 821/821 400/400 396/396
f 821/821 396/396 820/820
f 397/397 389/389 820/820
f 820/820 389/389 819/819
f 389/389 385/385 819/819
f 388/388 379/379 819/819
f 377/377 819/819 379/379
f 367/367 365/365 818/818
f 363/363 362/362 817/817
f 776/776 816/816 815/815
f 808/808 813/813 812/812
f 808/808 809/809 804/804
f 809/809 807/807 804/804
f 804/804 805/805 803/803
f 803/803 805/805 802/802
f 801/801 854/854 800/800
f 854/854 801/801 855/855
f 798/798 796/796 856/856
f 797/797 857/857 795/795
f 857/857 793/793 795/795
f 794/794 858/858 790/790
f 858/858 792/792 790/790
f 788/788 791/791 787/787
f 786/786 859/859 782/782
f 859/859 785/785 782/782
f 783/783 781/781 782/782
f 782/782 781/781 779/779
f 779/779 780/780 639/639
f 779/779 639/639 848/848
f 849/849 633/633 847/847
f 636/636 628/628 847/847
f 636/636 847/847 633/633
f 847/847 624/624 846/846
f 624/624 625/625 846/846
f 615/615 846/846 616/616
f 615/615 608/608 845/845
f 615/615 845/845 846/846
f 845/845 601/601 860/860
f 860/860 601/601 602/602
f 597/597 844/844 605/605
f 592/592 589/589 843/843
f 587/587 581/581 842/842
f 580/580 842/842 581/581
f 579/579 571/571 841/841
f 841/841 571/571 840/840
f 840/840 571/571 569/569
f 565/565 559/559 839/839
f 839/839 559/559 557/557
f 552/552 839/839 554/554
f 839/839 552/552 777/777
f 548/548 542/542 777/777
f 777/777 542/542 838/838
f 640/640 639/639 861/861
f 861/861 639/639 780/780
f 780/780 862/862 861/861
f 862/862 780/780 778/778
f 781/781 863/863 778/778
f 778/778 863/863 862/862
f 863/863 781/781 783/783
f 863/863 783/783 864/864
f 783/783 865/865 864/864
f 865/865 783/783 784/784
f 784/784 866/866 865/865
f 785/785 866/866 784/784
f 866/866 785/785 867/867
f 867/867 785/785 859/859
f 868/868 870/870 869/869
f 871/871 873/873 872/872
f 868/868 869/869 874/874
f 875/875 786/786 787/787
f 875/875 787/787 876/876
f 876/876 787/787 791/791
f 876/876 791/791 877/877
f 878/878 880/880 879/879
f 880/880 878/878 881/881
f 882/882 883/883 789/789
f 882/882 789/789 792/792
f 858/858 884/884 882/882
f 858/858 882/882 792/792
f 885/885 887/887 886/886
f 886/886 888/888 885/885
f 794/794 793/793 889/889
f 889/889 793/793 890/890
f 890/890 793/793 857/857
f 890/890 857/857 891/891
f 892/892 894/894 893/893
f 893/893 895/895 892/892
f 896/896 797/797 897/897
f 798/798 897/897 797/797
f 898/898 899/899 855/855
f 898/898 855/855 801/801
f 898/898 801/801 900/900
f 900/900 801/801 799/799
f 799/799 901/901 900/900
f 902/902 904/904 903/903
f 905/905 907/907 906/906
f 906/906 908/908 905/905
f 805/805 910/910 909/909
f 805/805 909/909 802/802
f 910/910 805/805 806/806
f 910/910 806/806 911/911
f 912/912 914/914 913/913
f 913/913 914/914 915/915
f 916/916 807/807 917/917
f 917/917 807/807 809/809
f 809/809 918/918 917/917
f 918/918 809/809 810/810
f 918/918 810/810 811/811
f 811/811 919/919 918/918
f 920/920 922/922 921/921
f 920/920 921/921 923/923
f 924/924 812/812 813/813
f 924/924 813/813 925/925
f 925/925 813/813 926/926
f 926/926 813/813 814/814
f 926/926 814/814 816/816
f 816/816 927/927 926/926
f 928/928 930/930 929/929
f 776/776 774/774 816/816
f 816/816 774/774 931/931

