v 0.06016738 0.01645446 -0.08940714
v 0.06473765 0.01829698 -0.08876802
v 0.05971152 0.01657661 -0.09051325
v 0.06124757 0.01616502 -0.08871507
v 0.06825273 0.01964310 -0.08855066
v 0.06784992 0.02127531 -0.09051325
v 0.06807597 0.02186120 -0.09651325
v 0.06868546 0.01986345 -0.09896686
v 0.06615207 0.02029506 -0.09759051
v 0.06834079 0.01924931 -0.09851325
v 0.06404165 0.01907661 -0.09826325
v 0.06175775 0.01602832 -0.09844921
v 0.06016738 0.01645446 -0.09761936
v 0.05971152 0.01657661 -0.09651325
v 0.06016738 0.01645446 -0.11040714
v 0.06473765 0.01829698 -0.10976803
v 0.05971152 0.01657661 -0.11151325
v 0.06124757 0.01616502 -0.10971507
v 0.06825273 0.01964310 -0.10955067
v 0.06789120 0.02111886 -0.11073856
v 0.06404165 0.01907661 -0.11926325
v 0.06784992 0.02127531 -0.11751325
v 0.06834079 0.01924931 -0.11951325
v 0.06244358 0.01584456 -0.11951325
v 0.06038770 0.01639543 -0.11883043
v 0.05971152 0.01657661 -0.11751325
v -0.04876344 -0.03168688 -0.12051325
v -0.04316308 -0.03874207 -0.11191325
v -0.04834129 -0.03205668 -0.11191070
v -0.04470419 -0.03695315 -0.12051325
v -0.03957622 -0.04239956 -0.12051325
v -0.03575605 -0.04566733 -0.11191325
v -0.03499536 -0.04625283 -0.12051325
v -0.03101678 -0.04900979 -0.11191325
v -0.03004175 -0.04961344 -0.12051325
v -0.02202878 -0.05365383 -0.12051325
v -0.02334209 -0.05309564 -0.11191325
v -0.01638141 -0.05563856 -0.12051325
v -0.01373814 -0.05634947 -0.11191325
v -0.01055956 -0.05703066 -0.12051325
v -0.00947595 -0.05722068 -0.11191325
v -0.00462522 -0.05781529 -0.12051325
v -0.00081590 -0.05799426 -0.11191325
v 0.00135838 -0.05798409 -0.12051325
v 0.00732751 -0.05753527 -0.12051325
v 0.00929694 -0.05725004 -0.11191325
v 0.01321859 -0.05647361 -0.12051325
v 0.01496770 -0.05603542 -0.11191325
v 0.01896887 -0.05481042 -0.12051325
v 0.01923855 -0.05473772 -0.11190160
v 0.02472570 -0.05902611 -0.10845166
v 0.02260834 -0.05987373 -0.10844915
v 0.02231935 -0.05809417 -0.10946868
v -0.05517393 -0.03243203 -0.10844915
v -0.05322707 -0.03130801 -0.10974701
v -0.05205570 -0.03229190 -0.11003215
v -0.04974298 -0.03149633 -0.11140749
v -0.05348351 -0.03514988 -0.10844915
v 0.02059134 -0.05495051 -0.11151958
v 0.01651608 -0.06183219 -0.10844915
v 0.01025869 -0.06317246 -0.10844915
v 0.00389874 -0.06388114 -0.10844915
v -0.00728648 -0.06358386 -0.10844915
v -0.01359980 -0.06253835 -0.10844915
v -0.01977716 -0.06086759 -0.10844915
v -0.02575679 -0.05858829 -0.10844915
v -0.03147891 -0.05572323 -0.10844915
v -0.03688631 -0.05230105 -0.10844915
v -0.04192492 -0.04835598 -0.10844915
v -0.04970593 -0.04031526 -0.10844915
v 0.05402692 0.02904395 -0.08701325
v 0.06198170 0.03463046 -0.08701325
v 0.06854375 0.01851364 -0.08701325
v -0.05296547 -0.03173433 -0.08701325
v -0.05124048 -0.03221819 -0.08701325
v -0.06098171 -0.03636250 -0.08701325
v -0.05147455 -0.04890165 -0.08701325
v 0.07090692 0.00363430 -0.08701325
v -0.04535367 -0.05462641 -0.08701325
v 0.05238681 0.02757010 -0.08701325
v 0.05489567 0.01872074 -0.08701325
v 0.05182336 0.02638693 -0.08701325
v 0.05655317 0.01287396 -0.08701325
v -0.04896619 -0.03158746 -0.08701325
v -0.04366047 -0.03818067 -0.08701325
v 0.05787146 0.00385929 -0.08701325
v 0.05760443 -0.00676237 -0.08701325
v 0.06909372 -0.01634192 -0.08701325
v 0.05658064 -0.01275270 -0.08701325
v -0.02979636 -0.06444515 -0.08701325
v -0.03942576 -0.04253950 -0.08701325
v -0.03227798 -0.04818851 -0.08701325
v 0.05062033 -0.02831223 -0.08701325
v 0.05442934 -0.02003614 -0.08701325
v 0.06609253 -0.02593796 -0.08701325
v 0.04556233 -0.03588975 -0.08701325
v 0.05818700 -0.04068504 -0.08701325
v 0.03591416 -0.04554309 -0.08701325
v 0.04155690 -0.04046015 -0.08701325
v 0.04704981 -0.05317250 -0.08701325
v -0.00231046 -0.05795396 -0.08701325
v 0.01113373 -0.07012161 -0.08701325
v -0.01058333 -0.07020679 -0.08701325
v 0.00679325 -0.05760080 -0.08701325
v 0.01426107 -0.05621941 -0.08701325
v 0.02006531 -0.05441859 -0.08701325
v 0.02567853 -0.06619375 -0.08701325
v -0.02433377 -0.05264853 -0.08701325
v -0.01724616 -0.05537662 -0.08701325
v 0.02833935 -0.05060515 -0.08701325
v 0.03765593 -0.06019162 -0.08701325
v -0.01135715 -0.05687719 -0.08701325
v 0.07082258 -0.00981897 -0.12051325
v 0.07133128 -0.00354940 -0.11751325
v 0.07143301 -0.00309437 -0.11886011
v 0.07133128 -0.00354940 -0.09651325
v 0.07120727 -0.00646336 -0.08751325
v 0.07140757 -0.00363435 -0.08980017
v 0.07145186 -0.00262344 -0.10983852
v 0.07133128 -0.00354940 -0.11151325
v 0.07149059 -0.00115962 -0.09876018
v 0.07147279 0.00197229 -0.10901325
v 0.07096791 0.00870668 -0.09901325
v 0.07047755 0.01204847 -0.10901325
v 0.06856663 0.02026988 -0.10917623
v 0.06753310 0.02348469 -0.08751325
v 0.06875352 0.01962661 -0.08802498
v 0.06695956 0.02507323 -0.12051325
v 0.07047755 0.01204847 -0.08801325
v 0.07148378 -0.00152302 -0.08836718
v 0.07149944 0.00028359 -0.12051325
v 0.07129990 0.00534545 -0.12001325
v 0.07047755 0.01204847 -0.12051325
v 0.06902645 0.01864401 -0.12051325
v 0.06429533 0.03127876 -0.08751325
v 0.06429533 0.03127876 -0.12051325
v 0.06241224 0.03488499 -0.12051325
v 0.06241224 0.03488499 -0.08751325
v -0.06141741 -0.03660809 -0.08751325
v -0.05827357 -0.04142995 -0.12051325
v -0.06141741 -0.03660809 -0.12051325
v -0.05625199 -0.04413574 -0.08751325
v -0.05519383 -0.04545207 -0.12051325
v -0.05298575 -0.04800792 -0.08751325
v -0.05183704 -0.04924603 -0.12051325
v -0.04945352 -0.05163912 -0.08751325
v -0.04695965 -0.05391699 -0.08751325
v -0.04436098 -0.05607453 -0.12051325
v -0.04166333 -0.05810695 -0.08751325
v -0.04027925 -0.05907480 -0.12051325
v -0.03744445 -0.06091111 -0.08751325
v -0.03452610 -0.06261149 -0.12051325
v -0.03153070 -0.06417215 -0.08751325
v -0.03000620 -0.06489898 -0.12051325
v -0.02690781 -0.06624364 -0.08751325
v -0.02533567 -0.06686071 -0.12051325
v -0.02214985 -0.06798260 -0.08751325
v -0.01891461 -0.06895279 -0.12051325
v -0.01563716 -0.06976911 -0.08751325
v -0.01398489 -0.07011899 -0.12051325
v -0.01065786 -0.07070120 -0.08751325
v -0.00730705 -0.07112564 -0.12051325
v -0.00393994 -0.07139137 -0.08751325
v -0.00225261 -0.07146451 -0.12051325
v 0.00449984 -0.07135826 -0.08751325
v 0.00618402 -0.07123207 -0.12051325
v 0.00954111 -0.07086055 -0.08751325
v 0.01121214 -0.07061543 -0.12051325
v 0.01453449 -0.07000713 -0.08751325
v 0.01782442 -0.06924262 -0.12051325
v 0.02107456 -0.06832359 -0.08751325
v 0.02268245 -0.06780676 -0.12051325
v 0.02585937 -0.06665991 -0.08751325
v 0.03203312 -0.06392284 -0.12051325
v 0.03203312 -0.06392284 -0.08751325
v 0.03501619 -0.06233872 -0.12051325
v 0.04074141 -0.05875702 -0.08751325
v 0.03934224 -0.05970292 -0.12051325
v 0.04479949 -0.05572482 -0.08751325
v 0.04610318 -0.05465114 -0.12051325
v 0.04863268 -0.05241290 -0.08751325
v 0.04985708 -0.05124960 -0.12051325
v 0.05446989 -0.04631718 -0.08751325
v 0.05554868 -0.04501771 -0.12051325
v 0.05761270 -0.04234415 -0.08751325
v 0.05859677 -0.04097156 -0.12051325
v 0.06046630 -0.03815857 -0.08751325
v 0.06220090 -0.03526042 -0.12051325
v 0.06379671 -0.03228360 -0.08751325
v 0.06454143 -0.03076775 -0.12051325
v 0.06592245 -0.02768540 -0.08751325
v 0.06824040 -0.02134238 -0.12051325
v 0.06917217 -0.01809587 -0.08751325
v 0.06958029 -0.01645701 -0.12051325
v 0.07027985 -0.01315266 -0.08751325
v 0.05440140 0.03025396 -0.12101325
v 0.05442579 0.02866681 -0.12101325
v 0.06198170 0.03463046 -0.12101325
v 0.06934159 0.01525595 -0.12101325
v 0.05232335 0.02639075 -0.12101325
v 0.07080130 0.00530807 -0.12101325
v -0.06098171 -0.03636250 -0.12101325
v -0.05030515 -0.05010381 -0.12101325
v -0.05340140 -0.03198601 -0.12101325
v -0.04901673 -0.03211797 -0.12101325
v -0.03574361 -0.06134652 -0.12101325
v 0.03989948 -0.04895078 -0.12101325
v 0.05913173 -0.03929935 -0.12101325
v 0.06724373 -0.02278775 -0.12101325
v 0.01975200 -0.05520599 -0.12101325
v 0.01278686 -0.06983908 -0.12101325
v 0.02295469 -0.05937035 -0.12101325
v 0.04829259 -0.05204638 -0.12101325
v -0.00391238 -0.07089213 -0.12101325
v 0.03895308 -0.05140922 -0.12101325
v 0.02723483 -0.06556877 -0.12101325
v 0.02504515 -0.05943896 -0.12101325
v 0.03745130 -0.04612514 -0.12051325
v 0.03816187 -0.04435850 -0.12101325
v 0.04467159 -0.03777167 -0.12101325
v 0.04916153 -0.03170794 -0.12101325
v -0.01388709 -0.06962865 -0.12101325
v 0.00888601 -0.05782118 -0.12101325
v -0.00616863 -0.05817386 -0.12101325
v 0.03288173 -0.05548911 -0.12101325
v 0.03765593 -0.06019162 -0.12101325
v 0.05648727 -0.01521310 -0.12101325
v 0.05849928 -0.00028934 -0.12101325
v 0.07032732 -0.00975031 -0.12101325
v 0.05731571 0.01171151 -0.12101325
v -0.03030073 -0.05004114 -0.12101325
v -0.04207103 -0.04064823 -0.12101325
v -0.01796555 -0.05567306 -0.12101325
v -0.02826589 -0.06513094 -0.12101325
v 0.03798278 -0.04383273 -0.12051325
v 0.04229829 -0.03968444 -0.12051325
v 0.03786187 -0.04394663 -0.11190913
v 0.04400037 -0.03778846 -0.11191325
v 0.04616325 -0.03511344 -0.12051325
v 0.04755413 -0.03320549 -0.11191325
v 0.05029866 -0.02887983 -0.12051325
v 0.05261048 -0.02441592 -0.11191325
v 0.05300739 -0.02354179 -0.12051325
v 0.05478577 -0.01903996 -0.11191325
v 0.05515152 -0.01795299 -0.12051325
v 0.05726080 -0.00923042 -0.12051325
v 0.05701637 -0.01063643 -0.11191325
v 0.05790721 -0.00327944 -0.12051325
v 0.05799745 -0.00054382 -0.11191325
v 0.05793682 0.00270646 -0.12051325
v 0.05787507 0.00380478 -0.11191325
v 0.05734931 0.00866354 -0.12051325
v 0.05665604 0.01241343 -0.11191325
v 0.05615093 0.01452834 -0.12051325
v 0.05435446 0.02023839 -0.12051325
v 0.05362823 0.02209102 -0.11191325
v 0.05197903 0.02573286 -0.12051325
v 0.05189436 0.02594221 -0.11190318
v 0.05917598 0.02437630 -0.10844915
v 0.05361019 0.02834377 -0.11038803
v 0.05222152 0.02741623 -0.11134697
v 0.05567393 0.03156601 -0.10844915
v 0.05372707 0.03044199 -0.10974701
v 0.04297284 -0.04742716 -0.10844915
v 0.03865111 -0.05101070 -0.10844915
v 0.03942868 -0.04965773 -0.10879122
v 0.03932401 -0.04873632 -0.10924432
v 0.03740131 -0.04599480 -0.11117297
v 0.06215495 0.01525655 -0.10844915
v 0.06373720 0.00579395 -0.10844915
v 0.06399218 0.00100037 -0.10844915
v 0.06377219 -0.00539516 -0.10844915
v 0.06291462 -0.01173675 -0.10844915
v 0.06142803 -0.01796100 -0.10844915
v 0.05932729 -0.02400568 -0.10844915
v 0.05663341 -0.02981035 -0.10844915
v 0.05337332 -0.03531698 -0.10844915
v 0.04749430 -0.04289862 -0.10844915
v 0.03672256 -0.05241616 -0.09957735
v 0.04177348 -0.04848687 -0.09957735
v 0.04957961 -0.04047052 -0.09957735
v 0.05337332 -0.03531698 -0.09957735
v 0.05870848 -0.02548166 -0.09957735
v 0.06095970 -0.01949140 -0.09957735
v 0.06342271 -0.00857668 -0.09957735
v 0.06396217 -0.00220015 -0.09957735
v 0.06336783 0.00897322 -0.09957735
v 0.06215495 0.01525655 -0.09957735
v 0.05854794 0.02584838 -0.09957735
v 0.05567393 0.03156601 -0.09957735
v -0.05069848 -0.03905975 -0.09957735
v -0.05517393 -0.03243203 -0.09957735
v -0.04312096 -0.04729253 -0.09957735
v -0.03818257 -0.05136235 -0.09957735
v -0.02865369 -0.05722732 -0.09957735
v -0.02279549 -0.05980273 -0.09957735
v -0.01203177 -0.06285886 -0.09957735
v -0.00569427 -0.06374618 -0.09957735
v 0.00549488 -0.06376368 -0.09957735
v 0.01496479 -0.06222584 -0.09957735
v 0.02110412 -0.06042033 -0.09957735
v 0.02847456 -0.05731666 -0.09957735
v 0.02413209 -0.05913429 -0.12051325
v 0.02750137 -0.05778992 -0.12051325
v 0.03130448 -0.05582141 -0.09957735
v 0.03269051 -0.05502118 -0.12051325
v 0.03865111 -0.05101070 -0.12051325
v -0.04841379 -0.03197073 -0.09612332
v -0.05135151 -0.03225590 -0.09763846
v -0.05006981 -0.03158326 -0.09680533
v -0.05322707 -0.03130801 -0.09827948
v 0.05376744 0.02851823 -0.09776583
v 0.05372707 0.03044199 -0.09827948
v 0.05193255 0.02583645 -0.09611579
v 0.05214811 0.02733052 -0.09661901
v -0.04594550 -0.03539790 -0.09611325
v -0.04117221 -0.04085155 -0.09611325
v -0.03575605 -0.04566733 -0.09611325
v -0.02978158 -0.04977005 -0.09611325
v -0.02596740 -0.05186226 -0.09611325
v -0.02065841 -0.05419622 -0.09611325
v -0.01373814 -0.05634947 -0.09611325
v -0.00660337 -0.05762287 -0.09611325
v 0.00063451 -0.05799653 -0.09611325
v 0.00497973 -0.05778583 -0.09611325
v 0.01072558 -0.05699966 -0.09611325
v 0.01775045 -0.05521704 -0.09611325
v 0.02580507 -0.05194322 -0.09611325
v 0.02965567 -0.04984517 -0.09611325
v 0.03561305 -0.04577893 -0.09611325
v 0.04304171 -0.03887688 -0.09611325
v 0.04755413 -0.03320549 -0.09611325
v 0.05134483 -0.02697607 -0.09611325
v 0.05429254 -0.02040393 -0.09611325
v 0.05701637 -0.01063643 -0.09611325
v 0.05789774 -0.00344270 -0.09611325
v 0.05761248 0.00669347 -0.09611325
v 0.05694872 0.01099286 -0.09611325
v 0.05416385 0.02074313 -0.09611325
v -0.05975159 -0.03507495 -0.10299641
v -0.05784926 -0.03397664 -0.10151477
v -0.06123629 -0.03593214 -0.08751325
v -0.05634825 -0.03311003 -0.09608904
v -0.05788120 -0.03399507 -0.09501262
v -0.05569251 -0.03273144 -0.10332415
v -0.05651620 -0.03378434 -0.11258710
v -0.05796552 -0.03404376 -0.11316233
v -0.06123629 -0.03593214 -0.12051325
v -0.05788120 -0.03399507 -0.11601262
v -0.05844274 -0.03431929 -0.10639089
v -0.05656301 -0.03323402 -0.10608584
v -0.05573505 -0.03275600 -0.11708903
v -0.05322707 -0.03130801 -0.12051325
v -0.05391999 -0.03170807 -0.11538394
v -0.05727744 -0.03422384 -0.09230222
v -0.05588799 -0.03284430 -0.09091931
v -0.05474316 -0.03218333 -0.11238912
v -0.05383708 -0.03166020 -0.09404223
v -0.05322707 -0.03130801 -0.08751325
v -0.05397640 -0.03174064 -0.09247740
v -0.05827235 -0.03422090 -0.09315921
v 0.05639562 0.03198268 -0.11161815
v 0.05863996 0.03327844 -0.11291967
v 0.05403018 0.03061699 -0.11451325
v 0.05372707 0.03044199 -0.12051325
v 0.05481817 0.03107194 -0.11240386
v 0.06173629 0.03506611 -0.12051325
v 0.05905313 0.03351699 -0.11451325
v 0.05826513 0.03306204 -0.11662263
v 0.05639562 0.03198268 -0.09640834
v 0.05846555 0.03317775 -0.09537733
v 0.05662810 0.03211690 -0.10223861
v 0.05403018 0.03061699 -0.09351325
v 0.05372707 0.03044199 -0.08751325
v 0.05504190 0.03120111 -0.09583940
v 0.05444334 0.03085553 -0.11610682
v 0.05582135 0.03165112 -0.11729142
v 0.06173629 0.03506611 -0.08751325
v 0.05863996 0.03327844 -0.09191968
v 0.05905313 0.03351699 -0.09351325
v 0.06047827 0.03433980 -0.10454223
v 0.05639562 0.03198268 -0.09061816
v 0.05917077 0.03358491 -0.10162850
v 0.05481817 0.03107194 -0.09140386
v 0.05643416 0.03200493 -0.10551262
v 0.05796710 0.03288997 -0.10658903
v -0.04803994 -0.04263151 -0.09322730
v -0.04921075 -0.04476449 -0.09351325
v -0.04828776 -0.04277459 -0.09460437
v -0.04900495 -0.04318866 -0.09537781
v -0.05067835 -0.04415480 -0.09537781
v -0.05150974 -0.04463480 -0.09434989
v -0.05150974 -0.04463480 -0.09267661
v -0.05021167 -0.04388536 -0.09145717
v -0.04860032 -0.04295505 -0.09197849
v -0.05407801 -0.03237665 -0.09421650
v -0.05603929 -0.03350900 -0.09559369
v -0.05727744 -0.03422384 -0.09472428
v -0.05554401 -0.03322305 -0.09143281
v -0.05464392 -0.03270338 -0.09188426
v -0.05407801 -0.03237665 -0.09281000
v -0.04803994 -0.04263151 -0.11422730
v -0.04921075 -0.04476449 -0.11451325
v -0.04828776 -0.04277459 -0.11560438
v -0.04879287 -0.04306621 -0.11622889
v -0.05021167 -0.04388536 -0.11656933
v -0.05125240 -0.04448622 -0.11583854
v -0.05159286 -0.04468279 -0.11394668
v -0.05089043 -0.04427724 -0.11279761
v -0.04879287 -0.04306621 -0.11279761
v -0.05430587 -0.03250821 -0.11572428
v -0.05506710 -0.03294770 -0.11643939
v -0.05740641 -0.03429830 -0.11547939
v -0.05417690 -0.03243374 -0.11354711
v 0.06653614 0.02051680 -0.09317658
v 0.06640167 0.02043916 -0.09450511
v 0.06529739 0.01980161 -0.09602472
v 0.06389562 0.01899230 -0.09640834
v 0.06254190 0.01821073 -0.09583940
v 0.06153018 0.01762661 -0.09351325
v 0.06194334 0.01786515 -0.09191968
v 0.06332135 0.01866074 -0.09073508
v 0.06529739 0.01980161 -0.09100177
v 0.06640167 0.02043916 -0.11352139
v 0.06640167 0.02043916 -0.11550511
v 0.06476195 0.01949247 -0.11729142
v 0.06231817 0.01808156 -0.11662263
v 0.06153018 0.01762661 -0.11451325
v 0.06194334 0.01786515 -0.11291967
v 0.06418768 0.01916092 -0.11161815
v 0.06576513 0.02007166 -0.11240386
v 0.06404165 0.01907661 -0.10976325
v 0.06404165 0.01907661 -0.08876325
v 0.02103658 -0.05528561 -0.12051325
v 0.02276918 -0.05865051 -0.12051325
v 0.03942189 -0.04912501 -0.12051325
v 0.07104859 0.00047827 -0.08852663
v 0.07104859 0.00047827 -0.10952663
v 0.07106228 0.00033537 -0.11949202
v -0.05120401 -0.03220364 -0.12051325
v -0.05006981 -0.03158326 -0.12051325
v 0.05222152 0.02741623 -0.12051325
v 0.07122932 -0.00171718 -0.08889277
v 0.07110444 -0.00012349 -0.09845394
v -0.05404165 -0.03639711 -0.10401325
v -0.05444687 -0.03663107 -0.10529882
v -0.05701964 -0.03811646 -0.10540257
v -0.05701964 -0.03811646 -0.10262393
v -0.05571325 -0.03736221 -0.10201447
v 0.06402492 0.02714985 -0.10457982
v 0.06013846 0.03356626 -0.10497939
v 0.06264372 0.02635241 -0.10606933
v 0.05737597 0.03197133 -0.10564224
v 0.06052249 0.02512772 -0.10457982
v 0.05670929 0.03158642 -0.10415656
v 0.06071981 0.02524164 -0.10292212
v 0.05703792 0.03177616 -0.10280222
v 0.06332248 0.02674430 -0.10229761
v -0.06016738 -0.01645446 -0.08940714
v -0.06473765 -0.01829698 -0.08876802
v -0.05971152 -0.01657661 -0.09051325
v -0.06124757 -0.01616502 -0.08871507
v -0.06825273 -0.01964310 -0.08855066
v -0.06784992 -0.02127531 -0.09051325
v -0.06784992 -0.02127531 -0.09651325
v -0.06868546 -0.01986345 -0.09896686
v -0.06404165 -0.01907661 -0.09826325
v -0.06834079 -0.01924931 -0.09851325
v -0.06175775 -0.01602832 -0.09844921
v -0.06016738 -0.01645446 -0.09761936
v -0.05971152 -0.01657661 -0.09651325
v -0.06016738 -0.01645446 -0.11040714
v -0.06473765 -0.01829698 -0.10976803
v -0.05971152 -0.01657661 -0.11151325
v -0.06124757 -0.01616502 -0.10971507
v -0.06825273 -0.01964310 -0.10955067
v -0.06789120 -0.02111886 -0.11073856
v -0.06404165 -0.01907661 -0.11926325
v -0.06784992 -0.02127531 -0.11751325
v -0.06834079 -0.01924931 -0.11951325
v -0.06244358 -0.01584456 -0.11951325
v -0.06038770 -0.01639543 -0.11883043
v -0.05971152 -0.01657661 -0.11751325
v 0.04876344 0.03168688 -0.12051325
v 0.04316308 0.03874207 -0.11191325
v 0.04834129 0.03205668 -0.11191070
v 0.04470419 0.03695315 -0.12051325
v 0.03957622 0.04239956 -0.12051325
v 0.03575605 0.04566733 -0.11191325
v 0.03499536 0.04625283 -0.12051325
v 0.03101678 0.04900979 -0.11191325
v 0.03004175 0.04961344 -0.12051325
v 0.02202878 0.05365383 -0.12051325
v 0.02334209 0.05309564 -0.11191325
v 0.01638141 0.05563856 -0.12051325
v 0.01373814 0.05634947 -0.11191325
v 0.01055956 0.05703066 -0.12051325
v 0.00947595 0.05722068 -0.11191325
v 0.00462522 0.05781529 -0.12051325
v 0.00081590 0.05799426 -0.11191325
v -0.00135838 0.05798409 -0.12051325
v -0.00732751 0.05753527 -0.12051325
v -0.00929694 0.05725004 -0.11191325
v -0.01321859 0.05647361 -0.12051325
v -0.01496770 0.05603542 -0.11191325
v -0.01896887 0.05481042 -0.12051325
v -0.01923855 0.05473772 -0.11190160
v -0.02472570 0.05902611 -0.10845166
v -0.02260834 0.05987373 -0.10844915
v -0.02231935 0.05809417 -0.10946868
v 0.05517393 0.03243203 -0.10844915
v 0.05322707 0.03130801 -0.10974701
v 0.05205570 0.03229190 -0.11003215
v 0.04974298 0.03149633 -0.11140749
v 0.05348351 0.03514988 -0.10844915
v -0.02059134 0.05495051 -0.11151958
v -0.01651608 0.06183219 -0.10844915
v -0.01025869 0.06317246 -0.10844915
v -0.00389874 0.06388114 -0.10844915
v 0.00728648 0.06358386 -0.10844915
v 0.01359980 0.06253835 -0.10844915
v 0.01977716 0.06086759 -0.10844915
v 0.02575679 0.05858829 -0.10844915
v 0.03147891 0.05572323 -0.10844915
v 0.03688631 0.05230105 -0.10844915
v 0.04192492 0.04835598 -0.10844915
v 0.04970593 0.04031526 -0.10844915
v -0.05402692 -0.02904395 -0.08701325
v -0.06198170 -0.03463046 -0.08701325
v -0.06854375 -0.01851364 -0.08701325
v 0.04535367 0.05462641 -0.08701325
v 0.05147455 0.04890165 -0.08701325
v 0.05124048 0.03221819 -0.08701325
v -0.07090692 -0.00363430 -0.08701325
v 0.06098171 0.03636250 -0.08701325
v 0.05296547 0.03173433 -0.08701325
v -0.05238681 -0.02757010 -0.08701325
v 0.02979636 0.06444515 -0.08701325
v -0.05489567 -0.01872074 -0.08701325
v -0.05182336 -0.02638693 -0.08701325
v -0.05062033 0.02831223 -0.08701325
v -0.05442934 0.02003614 -0.08701325
v -0.06609253 0.02593796 -0.08701325
v -0.06909372 0.01634192 -0.08701325
v -0.05622704 0.01423094 -0.08701325
v -0.05655317 -0.01287396 -0.08701325
v -0.04556233 0.03588975 -0.08701325
v -0.05818700 0.04068504 -0.08701325
v 0.00231046 0.05795396 -0.08701325
v -0.01113373 0.07012161 -0.08701325
v 0.01058333 0.07020679 -0.08701325
v -0.00679325 0.05760080 -0.08701325
v 0.04366047 0.03818067 -0.08701325
v 0.04896619 0.03158746 -0.08701325
v -0.05787146 -0.00385929 -0.08701325
v -0.05740745 0.00826950 -0.08701325
v -0.05795760 0.00221728 -0.08701325
v -0.03591416 0.04554309 -0.08701325
v -0.04155690 0.04046015 -0.08701325
v -0.04704981 0.05317250 -0.08701325
v -0.02006531 0.05441859 -0.08701325
v -0.02833935 0.05060515 -0.08701325
v -0.02567853 0.06619375 -0.08701325
v -0.03765593 0.06019162 -0.08701325
v 0.01724616 0.05537662 -0.08701325
v 0.01135715 0.05687719 -0.08701325
v 0.03942576 0.04253950 -0.08701325
v 0.03227798 0.04818851 -0.08701325
v -0.01426107 0.05621941 -0.08701325
v 0.02433377 0.05264853 -0.08701325
v -0.07082258 0.00981897 -0.12051325
v -0.07133128 0.00354940 -0.11751325
v -0.07143301 0.00309437 -0.11886011
v -0.07133128 0.00354940 -0.09651325
v -0.07120727 0.00646336 -0.08751325
v -0.07140757 0.00363435 -0.08980017
v -0.07145186 0.00262344 -0.10983852
v -0.07133128 0.00354940 -0.11151325
v -0.07149059 0.00115962 -0.09876018
v -0.07147279 -0.00197229 -0.10901325
v -0.07096791 -0.00870668 -0.09901325
v -0.07047755 -0.01204847 -0.10901325
v -0.06856663 -0.02026988 -0.10917623
v -0.06753310 -0.02348469 -0.08751325
v -0.06875352 -0.01962661 -0.08802498
v -0.06695956 -0.02507323 -0.12051325
v -0.07047755 -0.01204847 -0.08801325
v -0.07148378 0.00152302 -0.08836718
v -0.07149944 -0.00028359 -0.12051325
v -0.07129990 -0.00534545 -0.12001325
v -0.07047755 -0.01204847 -0.12051325
v -0.06902645 -0.01864401 -0.12051325
v -0.06429533 -0.03127876 -0.08751325
v -0.06429533 -0.03127876 -0.12051325
v -0.06241224 -0.03488499 -0.12051325
v -0.06241224 -0.03488499 -0.08751325
v 0.06141741 0.03660809 -0.08751325
v 0.05827357 0.04142995 -0.12051325
v 0.06141741 0.03660809 -0.12051325
v 0.05625199 0.04413574 -0.08751325
v 0.05519383 0.04545207 -0.12051325
v 0.05298575 0.04800792 -0.08751325
v 0.05183704 0.04924603 -0.12051325
v 0.04945352 0.05163912 -0.08751325
v 0.04695965 0.05391699 -0.08751325
v 0.04436098 0.05607453 -0.12051325
v 0.04166333 0.05810695 -0.08751325
v 0.04027925 0.05907480 -0.12051325
v 0.03744445 0.06091111 -0.08751325
v 0.03452610 0.06261149 -0.12051325
v 0.03153070 0.06417215 -0.08751325
v 0.03000620 0.06489898 -0.12051325
v 0.02690781 0.06624364 -0.08751325
v 0.02533567 0.06686071 -0.12051325
v 0.02214985 0.06798260 -0.08751325
v 0.01891461 0.06895279 -0.12051325
v 0.01563716 0.06976911 -0.08751325
v 0.01398489 0.07011899 -0.12051325
v 0.01065786 0.07070120 -0.08751325
v 0.00730705 0.07112564 -0.12051325
v 0.00393994 0.07139137 -0.08751325
v 0.00225261 0.07146451 -0.12051325
v -0.00449984 0.07135826 -0.08751325
v -0.00618402 0.07123207 -0.12051325
v -0.00954111 0.07086055 -0.08751325
v -0.01121214 0.07061543 -0.12051325
v -0.01453449 0.07000713 -0.08751325
v -0.01782442 0.06924262 -0.12051325
v -0.02107456 0.06832359 -0.08751325
v -0.02268245 0.06780676 -0.12051325
v -0.02585937 0.06665991 -0.08751325
v -0.03203312 0.06392284 -0.12051325
v -0.03203312 0.06392284 -0.08751325
v -0.03792111 0.06061551 -0.12051325
v -0.04074141 0.05875702 -0.08751325
v -0.04211786 0.05777834 -0.12051325
v -0.04479949 0.05572482 -0.08751325
v -0.04610318 0.05465114 -0.12051325
v -0.04863268 0.05241290 -0.08751325
v -0.04985708 0.05124960 -0.12051325
v -0.05446989 0.04631718 -0.08751325
v -0.05554868 0.04501771 -0.12051325
v -0.05761270 0.04234415 -0.08751325
v -0.05859677 0.04097156 -0.12051325
v -0.06046630 0.03815857 -0.08751325
v -0.06220090 0.03526042 -0.12051325
v -0.06379671 0.03228360 -0.08751325
v -0.06454143 0.03076775 -0.12051325
v -0.06592245 0.02768540 -0.08751325
v -0.06824040 0.02134238 -0.12051325
v -0.06917217 0.01809587 -0.08751325
v -0.06958029 0.01645701 -0.12051325
v -0.07027985 0.01315266 -0.08751325
v -0.05232335 -0.02639075 -0.12101325
v -0.06934159 -0.01525595 -0.12101325
v -0.05442579 -0.02866681 -0.12101325
v -0.05440140 -0.03025396 -0.12101325
v -0.06198170 -0.03463046 -0.12101325
v -0.07080130 -0.00530807 -0.12101325
v 0.05030515 0.05010381 -0.12101325
v 0.04901673 0.03211797 -0.12101325
v 0.05340140 0.03198601 -0.12101325
v 0.03574361 0.06134652 -0.12101325
v -0.00446837 0.07085925 -0.12101325
v -0.02202980 0.05857373 -0.12101325
v 0.01388709 0.06962865 -0.12101325
v 0.06098171 0.03636250 -0.12101325
v -0.04829259 0.05204638 -0.12101325
v -0.03990174 0.04987036 -0.12101325
v -0.03895308 0.05140922 -0.12101325
v -0.05913173 0.03929935 -0.12101325
v -0.03784348 0.04573181 -0.12101325
v -0.06724373 0.02278775 -0.12101325
v -0.05731571 -0.01171151 -0.12101325
v -0.05849928 0.00028934 -0.12101325
v -0.02723483 0.06556877 -0.12101325
v -0.02445334 0.05960624 -0.12101325
v 0.04207103 0.04064823 -0.12101325
v -0.04916153 0.03170794 -0.12101325
v 0.03030073 0.05004114 -0.12101325
v 0.00616863 0.05817386 -0.12101325
v -0.00888601 0.05782118 -0.12101325
v -0.01975200 0.05520599 -0.12101325
v -0.03288173 0.05548911 -0.12101325
v -0.03765593 0.06019162 -0.12101325
v -0.05648727 0.01521310 -0.12101325
v -0.07032732 0.00975031 -0.12101325
v 0.01796555 0.05567306 -0.12101325
v 0.02826589 0.06513094 -0.12101325
v -0.03798278 0.04383273 -0.12051325
v -0.04229829 0.03968444 -0.12051325
v -0.03786187 0.04394663 -0.11190913
v -0.04400037 0.03778846 -0.11191325
v -0.04616325 0.03511344 -0.12051325
v -0.04755413 0.03320549 -0.11191325
v -0.05029866 0.02887983 -0.12051325
v -0.05261048 0.02441592 -0.11191325
v -0.05300739 0.02354179 -0.12051325
v -0.05478577 0.01903996 -0.11191325
v -0.05515152 0.01795299 -0.12051325
v -0.05726080 0.00923042 -0.12051325
v -0.05701637 0.01063643 -0.11191325
v -0.05790721 0.00327944 -0.12051325
v -0.05799745 0.00054382 -0.11191325
v -0.05793682 -0.00270646 -0.12051325
v -0.05787507 -0.00380478 -0.11191325
v -0.05734931 -0.00866354 -0.12051325
v -0.05665604 -0.01241343 -0.11191325
v -0.05615093 -0.01452834 -0.12051325
v -0.05435446 -0.02023839 -0.12051325
v -0.05362823 -0.02209102 -0.11191325
v -0.05197903 -0.02573286 -0.12051325
v -0.05189436 -0.02594221 -0.11190318
v -0.05917598 -0.02437630 -0.10844915
v -0.05361019 -0.02834377 -0.11038803
v -0.05222152 -0.02741623 -0.11134697
v -0.05567393 -0.03156601 -0.10844915
v -0.05372707 -0.03044199 -0.10974701
v -0.04297284 0.04742716 -0.10844915
v -0.03865111 0.05101070 -0.10844915
v -0.03942868 0.04965773 -0.10879122
v -0.03932401 0.04873632 -0.10924432
v -0.03740131 0.04599480 -0.11117297
v -0.06215495 -0.01525655 -0.10844915
v -0.06373720 -0.00579395 -0.10844915
v -0.06399218 -0.00100037 -0.10844915
v -0.06377219 0.00539516 -0.10844915
v -0.06291462 0.01173675 -0.10844915
v -0.06142803 0.01796100 -0.10844915
v -0.05932729 0.02400568 -0.10844915
v -0.05663341 0.02981035 -0.10844915
v -0.05337332 0.03531698 -0.10844915
v -0.04749430 0.04289862 -0.10844915
v -0.03672256 0.05241616 -0.09957735
v -0.04177348 0.04848687 -0.09957735
v -0.04957961 0.04047052 -0.09957735
v -0.05337332 0.03531698 -0.09957735
v -0.05870848 0.02548166 -0.09957735
v -0.06095970 0.01949140 -0.09957735
v -0.06342271 0.00857668 -0.09957735
v -0.06396217 0.00220015 -0.09957735
v -0.06336783 -0.00897322 -0.09957735
v -0.06215495 -0.01525655 -0.09957735
v -0.05854794 -0.02584838 -0.09957735
v -0.05567393 -0.03156601 -0.09957735
v 0.05069848 0.03905975 -0.09957735
v 0.05517393 0.03243203 -0.09957735
v 0.04312096 0.04729253 -0.09957735
v 0.03818257 0.05136235 -0.09957735
v 0.02865369 0.05722732 -0.09957735
v 0.01977716 0.06086759 -0.09957735
v 0.01359980 0.06253835 -0.09957735
v 0.00569427 0.06374618 -0.09957735
v -0.00549488 0.06376368 -0.09957735
v -0.01496479 0.06222584 -0.09957735
v -0.02110412 0.06042033 -0.09957735
v -0.02847456 0.05731666 -0.09957735
v -0.02413209 0.05913429 -0.12051325
v -0.02750137 0.05778992 -0.12051325
v -0.03130448 0.05582141 -0.09957735
v -0.03269051 0.05502118 -0.12051325
v -0.03865111 0.05101070 -0.12051325
v 0.04841379 0.03197073 -0.09612332
v 0.05135151 0.03225590 -0.09763846
v 0.05006981 0.03158326 -0.09680533
v 0.05322707 0.03130801 -0.09827948
v -0.05376744 -0.02851823 -0.09776583
v -0.05372707 -0.03044199 -0.09827948
v -0.05193255 -0.02583645 -0.09611579
v -0.05214811 -0.02733052 -0.09661901
v 0.04594550 0.03539790 -0.09611325
v 0.04117221 0.04085155 -0.09611325
v 0.03575605 0.04566733 -0.09611325
v 0.02978158 0.04977005 -0.09611325
v 0.02596740 0.05186226 -0.09611325
v 0.02065841 0.05419622 -0.09611325
v 0.01373814 0.05634947 -0.09611325
v 0.00660337 0.05762287 -0.09611325
v -0.00063451 0.05799653 -0.09611325
v -0.00497973 0.05778583 -0.09611325
v -0.01072558 0.05699966 -0.09611325
v -0.01775045 0.05521704 -0.09611325
v -0.02580507 0.05194322 -0.09611325
v -0.02965567 0.04984517 -0.09611325
v -0.03561305 0.04577893 -0.09611325
v -0.04304171 0.03887688 -0.09611325
v -0.04755413 0.03320549 -0.09611325
v -0.05134483 0.02697607 -0.09611325
v -0.05429254 0.02040393 -0.09611325
v -0.05701637 0.01063643 -0.09611325
v -0.05789774 0.00344270 -0.09611325
v -0.05761248 -0.00669347 -0.09611325
v -0.05694872 -0.01099286 -0.09611325
v -0.05416385 -0.02074313 -0.09611325
v 0.05651620 0.03378434 -0.11258710
v 0.05796552 0.03404376 -0.11316233
v 0.05634825 0.03311003 -0.09608904
v 0.05788120 0.03399507 -0.09501262
v 0.05784926 0.03397664 -0.10151477
v 0.06123629 0.03593214 -0.08751325
v 0.05975159 0.03507495 -0.10299641
v 0.05569251 0.03273144 -0.10332415
v 0.05656301 0.03323402 -0.10608584
v 0.05727744 0.03422384 -0.09230222
v 0.05827235 0.03422090 -0.09315921
v 0.06123629 0.03593214 -0.12051325
v 0.05844274 0.03431929 -0.10639089
v 0.05383708 0.03166020 -0.09404223
v 0.05588799 0.03284430 -0.09091931
v 0.05788120 0.03399507 -0.11601262
v 0.05322707 0.03130801 -0.12051325
v 0.05391999 0.03170807 -0.11538394
v 0.05322707 0.03130801 -0.08751325
v 0.05474316 0.03218333 -0.11238912
v 0.05397640 0.03174064 -0.09247740
v 0.05573505 0.03275600 -0.11708903
v -0.05372707 -0.03044199 -0.08751325
v -0.05403018 -0.03061699 -0.09351325
v -0.05639562 -0.03198268 -0.09640834
v -0.05846555 -0.03317775 -0.09537733
v -0.05403018 -0.03061699 -0.11451325
v -0.05481817 -0.03107194 -0.11240386
v -0.05863996 -0.03327844 -0.11291967
v -0.05639562 -0.03198268 -0.11161815
v -0.05905313 -0.03351699 -0.09351325
v -0.06173629 -0.03506611 -0.08751325
v -0.05863996 -0.03327844 -0.09191968
v -0.05639562 -0.03198268 -0.09061816
v -0.05481817 -0.03107194 -0.09140386
v -0.05372707 -0.03044199 -0.12051325
v -0.05504190 -0.03120111 -0.09583940
v -0.06173629 -0.03506611 -0.12051325
v -0.05905313 -0.03351699 -0.11451325
v -0.05826513 -0.03306204 -0.11662263
v -0.05444334 -0.03085553 -0.11610682
v -0.05582135 -0.03165112 -0.11729142
v -0.06047827 -0.03433980 -0.10454223
v -0.05662810 -0.03211690 -0.10223861
v -0.05643416 -0.03200493 -0.10551262
v -0.05917077 -0.03358491 -0.10162850
v -0.05796710 -0.03288997 -0.10658903
v 0.04803994 0.04263151 -0.09322730
v 0.04921075 0.04476449 -0.09351325
v 0.04828776 0.04277459 -0.09460437
v 0.04900495 0.04318866 -0.09537781
v 0.05067835 0.04415480 -0.09537781
v 0.05150974 0.04463480 -0.09434989
v 0.05150974 0.04463480 -0.09267661
v 0.05021167 0.04388536 -0.09145717
v 0.04860032 0.04295505 -0.09197849
v 0.05407801 0.03237665 -0.09421650
v 0.05603929 0.03350900 -0.09559369
v 0.05727744 0.03422384 -0.09472428
v 0.05554401 0.03322305 -0.09143281
v 0.05464392 0.03270338 -0.09188426
v 0.05407801 0.03237665 -0.09281000
v 0.04803994 0.04263151 -0.11422730
v 0.04921075 0.04476449 -0.11451325
v 0.04828776 0.04277459 -0.11560438
v 0.04879287 0.04306621 -0.11622889
v 0.05021167 0.04388536 -0.11656933
v 0.05125240 0.04448622 -0.11583854
v 0.05159286 0.04468279 -0.11394668
v 0.05089043 0.04427724 -0.11279761
v 0.04879287 0.04306621 -0.11279761
v 0.05430587 0.03250821 -0.11572428
v 0.05506710 0.03294770 -0.11643939
v 0.05740641 0.03429830 -0.11547939
v 0.05417690 0.03243374 -0.11354711
v -0.06653614 -0.02051680 -0.09317658
v -0.06640167 -0.02043916 -0.09450511
v -0.06529739 -0.01980161 -0.09602472
v -0.06389562 -0.01899230 -0.09640834
v -0.06254190 -0.01821073 -0.09583940
v -0.06153018 -0.01762661 -0.09351325
v -0.06194334 -0.01786515 -0.09191968
v -0.06332135 -0.01866074 -0.09073508
v -0.06529739 -0.01980161 -0.09100177
v -0.06640167 -0.02043916 -0.11352139
v -0.06640167 -0.02043916 -0.11550511
v -0.06476195 -0.01949247 -0.11729142
v -0.06231817 -0.01808156 -0.11662263
v -0.06153018 -0.01762661 -0.11451325
v -0.06194334 -0.01786515 -0.11291967
v -0.06418768 -0.01916092 -0.11161815
v -0.06576513 -0.02007166 -0.11240386
v -0.06404165 -0.01907661 -0.10976325
v -0.06404165 -0.01907661 -0.08876325
v -0.02103658 0.05528561 -0.12051325
v -0.02276918 0.05865051 -0.12051325
v -0.03942189 0.04912501 -0.12051325
v -0.03745130 0.04612514 -0.12051325
v -0.07104859 -0.00047827 -0.08852663
v -0.07104859 -0.00047827 -0.10952663
v -0.07106228 -0.00033537 -0.11949202
v 0.05120401 0.03220364 -0.12051325
v 0.05006981 0.03158326 -0.12051325
v -0.05222152 -0.02741623 -0.12051325
v -0.07122932 0.00171718 -0.08889277
v -0.07110444 0.00012349 -0.09845394
v 0.05404165 0.03639711 -0.10401325
v 0.05444687 0.03663107 -0.10529882
v 0.05701964 0.03811646 -0.10540257
v 0.05701964 0.03811646 -0.10262393
v 0.05571325 0.03736221 -0.10201447
v -0.06402492 -0.02714985 -0.10457982
v -0.06013846 -0.03356626 -0.10497939
v -0.06264372 -0.02635241 -0.10606933
v -0.05737597 -0.03197133 -0.10564224
v -0.06052249 -0.02512772 -0.10457982
v -0.05670929 -0.03158642 -0.10415656
v -0.06071981 -0.02524164 -0.10292212
v -0.05703792 -0.03177616 -0.10280222
v -0.06332248 -0.02674430 -0.10229761
f 1 3 2
f 2 4 1
f 2 5 4
f 5 2 6
f 7 9 8
f 10 9 11
f 9 10 8
f 10 11 12
f 12 11 13
f 13 11 14
f 15 17 16
f 16 18 15
f 16 19 18
f 19 16 20
f 21 23 22
f 21 25 24
f 23 21 24
f 25 21 26
f 27 29 28
f 27 28 30
f 30 28 31
f 28 32 31
f 31 32 33
f 32 34 33
f 33 34 35
f 35 34 36
f 34 37 36
f 36 37 38
f 38 37 39
f 38 39 40
f 40 39 41
f 40 41 42
f 42 41 43
f 42 43 44
f 44 43 45
f 43 46 45
f 45 46 47
f 46 48 47
f 47 48 49
f 50 49 48
f 51 53 52
f 54 56 55
f 29 57 56
f 58 56 54
f 29 56 58
f 59 52 53
f 59 50 52
f 52 50 60
f 50 48 60
f 60 48 61
f 48 46 61
f 61 46 62
f 46 43 62
f 62 43 63
f 43 41 63
f 63 41 64
f 41 39 64
f 64 39 65
f 39 37 65
f 65 37 66
f 37 34 66
f 66 34 67
f 67 34 68
f 34 32 68
f 68 32 69
f 32 28 69
f 69 28 70
f 28 29 70
f 70 29 58
f 71 73 72
f 74 76 75
f 75 76 77
f 71 78 73
f 75 77 79
f 80 78 71
f 80 82 81
f 80 81 78
f 78 81 83
f 75 85 84
f 83 86 78
f 78 86 87
f 78 87 88
f 88 87 89
f 90 92 91
f 90 91 85
f 79 90 75
f 75 90 85
f 93 95 94
f 94 95 88
f 94 88 89
f 96 97 93
f 93 97 95
f 98 100 99
f 99 100 96
f 96 100 97
f 101 103 102
f 101 102 104
f 104 102 105
f 105 102 106
f 106 102 107
f 90 109 108
f 90 108 92
f 106 107 110
f 110 107 111
f 110 111 98
f 98 111 100
f 109 90 112
f 112 90 103
f 112 103 101
f 113 115 114
f 113 114 116
f 117 116 118
f 116 120 119
f 119 121 116
f 121 119 122
f 121 122 123
f 123 122 124
f 123 124 8
f 8 124 125
f 126 127 6
f 126 6 7
f 20 22 128
f 7 125 20
f 7 20 126
f 125 7 8
f 78 130 129
f 117 118 130
f 117 130 78
f 131 115 113
f 132 131 133
f 128 22 134
f 20 128 126
f 126 128 135
f 135 128 136
f 135 136 137
f 135 137 138
f 139 141 140
f 139 140 142
f 142 140 143
f 142 143 144
f 144 143 145
f 144 145 146
f 146 145 147
f 147 145 148
f 147 148 149
f 149 148 150
f 149 150 151
f 151 150 152
f 151 152 153
f 153 152 154
f 153 154 155
f 155 154 156
f 155 156 157
f 157 156 158
f 157 158 159
f 159 158 160
f 159 160 161
f 161 160 162
f 161 162 163
f 163 162 164
f 163 164 165
f 165 164 166
f 165 166 167
f 167 166 168
f 167 168 169
f 169 168 170
f 169 170 171
f 171 170 172
f 171 172 173
f 173 172 174
f 173 174 175
f 175 174 176
f 175 176 177
f 177 176 178
f 177 178 179
f 179 178 180
f 179 180 181
f 181 180 182
f 181 182 183
f 183 182 184
f 183 184 185
f 185 184 186
f 185 186 187
f 187 186 188
f 187 188 189
f 189 188 190
f 189 190 191
f 191 190 192
f 191 192 193
f 193 192 194
f 193 194 195
f 195 194 113
f 195 113 117
f 117 113 116
f 196 198 197
f 197 198 199
f 200 199 201
f 197 199 200
f 202 204 203
f 203 204 205
f 205 206 203
f 207 209 208
f 210 212 211
f 207 208 213
f 210 211 214
f 213 215 207
f 216 212 217
f 218 219 207
f 212 216 211
f 219 220 207
f 207 220 209
f 220 221 209
f 214 222 210
f 210 222 223
f 224 223 222
f 216 217 225
f 216 225 226
f 226 225 215
f 226 215 213
f 209 221 227
f 228 201 229
f 228 229 227
f 227 229 209
f 228 230 201
f 231 206 232
f 205 232 206
f 224 222 233
f 233 222 234
f 233 234 231
f 231 234 206
f 201 230 200
f 235 237 236
f 236 237 238
f 236 238 239
f 239 238 240
f 239 240 241
f 240 242 241
f 241 242 243
f 242 244 243
f 243 244 245
f 245 244 246
f 244 247 246
f 246 247 248
f 248 247 249
f 248 249 250
f 250 249 251
f 250 251 252
f 252 251 253
f 252 253 254
f 254 253 255
f 253 256 255
f 255 256 257
f 258 257 256
f 259 260 258
f 258 260 261
f 262 263 259
f 259 263 260
f 264 266 265
f 264 267 266
f 268 267 264
f 264 237 268
f 258 256 259
f 259 256 269
f 256 253 269
f 269 253 270
f 253 251 270
f 270 251 271
f 251 249 271
f 271 249 272
f 249 247 272
f 272 247 273
f 247 244 273
f 273 244 274
f 274 244 275
f 244 242 275
f 275 242 276
f 242 240 276
f 276 240 277
f 277 240 278
f 240 238 278
f 238 237 278
f 278 237 264
f 265 279 264
f 264 279 280
f 264 280 278
f 278 280 281
f 278 281 277
f 277 281 282
f 277 282 276
f 276 282 283
f 276 283 275
f 275 283 274
f 274 283 284
f 274 284 273
f 273 284 285
f 273 285 272
f 272 285 286
f 272 286 271
f 271 286 287
f 271 287 270
f 270 287 269
f 269 287 288
f 269 288 289
f 269 289 259
f 259 289 290
f 259 290 262
f 54 292 291
f 54 291 58
f 58 291 70
f 70 291 293
f 70 293 69
f 69 293 68
f 68 293 294
f 68 294 67
f 67 294 295
f 67 295 66
f 66 295 296
f 66 296 65
f 65 296 297
f 65 297 64
f 64 297 63
f 63 297 298
f 63 298 299
f 63 299 62
f 62 299 61
f 61 299 300
f 61 300 60
f 60 300 52
f 52 300 301
f 52 301 51
f 51 301 302
f 303 51 302
f 303 302 304
f 305 306 302
f 302 306 304
f 306 305 307
f 307 305 279
f 307 279 265
f 291 309 308
f 308 309 310
f 292 311 291
f 311 309 291
f 312 313 290
f 314 315 312
f 289 312 290
f 314 312 289
f 308 316 291
f 291 316 293
f 293 316 317
f 317 318 293
f 293 318 294
f 318 319 294
f 294 319 295
f 319 320 295
f 295 320 296
f 320 321 296
f 296 321 297
f 297 321 322
f 322 323 297
f 297 323 298
f 323 324 298
f 298 324 299
f 324 325 299
f 299 325 300
f 325 326 300
f 300 326 327
f 300 327 301
f 301 327 302
f 327 328 302
f 328 329 302
f 302 329 305
f 305 329 279
f 329 330 279
f 279 330 280
f 330 331 280
f 280 331 281
f 331 332 281
f 281 332 282
f 332 333 282
f 282 333 283
f 333 334 283
f 283 334 284
f 334 335 284
f 284 335 285
f 335 336 285
f 285 336 286
f 336 337 286
f 286 337 287
f 337 338 287
f 287 338 288
f 338 339 288
f 288 339 289
f 339 314 289
f 84 316 308
f 85 316 84
f 85 317 316
f 91 317 85
f 91 318 317
f 92 318 91
f 92 319 318
f 92 320 319
f 108 320 92
f 108 321 320
f 109 321 108
f 109 322 321
f 112 322 109
f 112 323 322
f 101 323 112
f 101 324 323
f 101 325 324
f 104 325 101
f 104 326 325
f 105 326 104
f 105 327 326
f 106 327 105
f 106 328 327
f 110 328 106
f 110 329 328
f 98 330 110
f 110 330 329
f 99 331 98
f 98 331 330
f 96 331 99
f 96 332 331
f 93 332 96
f 93 333 332
f 94 334 93
f 93 334 333
f 89 335 94
f 94 335 334
f 87 335 89
f 87 336 335
f 86 336 87
f 86 337 336
f 337 86 83
f 337 83 338
f 338 83 339
f 339 83 81
f 339 81 82
f 339 82 314
f 340 342 341
f 343 292 344
f 292 345 341
f 292 341 344
f 346 347 54
f 292 343 311
f 342 340 348
f 347 349 348
f 348 340 350
f 348 350 347
f 54 351 345
f 352 354 353
f 342 356 355
f 345 292 54
f 55 357 54
f 54 357 346
f 347 350 351
f 347 351 54
f 353 354 55
f 311 343 358
f 348 349 352
f 348 352 353
f 55 354 357
f 359 360 356
f 361 342 355
f 341 342 361
f 341 361 344
f 359 356 342
f 311 358 359
f 359 358 360
f 262 363 362
f 364 365 263
f 263 366 364
f 367 369 368
f 370 371 290
f 262 362 263
f 263 362 366
f 290 372 262
f 373 313 374
f 373 375 313
f 365 364 376
f 376 377 365
f 378 380 379
f 313 375 290
f 290 375 370
f 365 377 367
f 367 377 369
f 381 371 380
f 363 381 368
f 379 382 378
f 371 381 383
f 374 382 384
f 374 384 373
f 381 378 367
f 385 386 262
f 378 382 374
f 262 372 385
f 386 381 363
f 367 368 381
f 378 381 380
f 262 386 363
f 371 383 290
f 290 383 372
f 387 389 388
f 389 390 388
f 390 391 388
f 391 392 388
f 388 392 393
f 393 394 388
f 388 394 395
f 388 395 387
f 396 389 387
f 389 396 390
f 390 396 397
f 390 397 391
f 391 397 398
f 391 398 392
f 392 398 393
f 393 398 355
f 393 355 394
f 394 355 399
f 394 399 395
f 395 399 400
f 395 400 387
f 387 400 401
f 387 401 396
f 402 404 403
f 403 404 405
f 405 406 403
f 403 406 407
f 403 407 408
f 403 408 409
f 403 409 410
f 410 402 403
f 411 404 402
f 404 411 405
f 405 411 412
f 405 412 406
f 406 412 352
f 406 352 407
f 407 352 413
f 407 413 408
f 408 413 347
f 408 347 346
f 408 346 409
f 409 346 357
f 409 357 410
f 410 357 414
f 410 414 402
f 402 414 411
f 415 380 416
f 416 380 371
f 416 371 417
f 417 371 370
f 417 370 418
f 418 370 375
f 418 375 419
f 419 375 373
f 419 373 420
f 420 373 384
f 420 384 421
f 421 384 422
f 422 384 382
f 422 382 423
f 423 382 379
f 423 379 415
f 415 379 380
f 424 368 425
f 425 368 369
f 425 369 426
f 426 369 377
f 426 377 427
f 427 377 376
f 427 376 364
f 427 364 428
f 428 364 366
f 428 366 429
f 429 366 430
f 430 366 362
f 430 362 431
f 431 362 363
f 431 363 424
f 424 363 368
f 26 427 428
f 26 428 17
f 20 424 22
f 424 425 22
f 17 428 429
f 432 430 431
f 432 431 20
f 20 431 424
f 22 426 21
f 21 426 427
f 21 427 26
f 430 432 17
f 430 17 429
f 22 425 426
f 423 415 6
f 416 7 415
f 415 7 6
f 14 419 420
f 14 420 3
f 417 9 416
f 3 420 421
f 418 11 417
f 417 11 9
f 419 14 418
f 418 14 11
f 433 422 423
f 433 423 6
f 7 416 9
f 422 433 3
f 422 3 421
f 434 53 435
f 436 267 218
f 5 437 4
f 116 14 118
f 118 14 3
f 19 438 18
f 114 26 120
f 120 26 17
f 24 439 23
f 440 56 441
f 74 311 359
f 310 309 75
f 314 82 315
f 315 82 80
f 315 80 312
f 442 261 260
f 257 258 442
f 442 258 261
f 84 310 75
f 84 308 310
f 29 27 57
f 57 27 441
f 57 441 56
f 312 80 71
f 71 313 312
f 374 313 71
f 263 365 197
f 442 260 197
f 197 260 263
f 75 309 74
f 74 309 311
f 56 440 204
f 353 55 204
f 204 55 56
f 4 437 443
f 4 443 1
f 1 443 118
f 1 118 3
f 14 116 13
f 116 444 13
f 13 444 12
f 444 10 12
f 18 438 119
f 18 119 15
f 15 119 120
f 15 120 17
f 26 114 25
f 25 114 115
f 25 115 24
f 24 115 439
f 218 237 235
f 218 268 237
f 268 218 267
f 434 59 53
f 49 59 434
f 49 50 59
f 51 303 435
f 51 435 53
f 267 436 266
f 266 436 307
f 307 265 266
f 210 49 434
f 435 210 434
f 49 210 47
f 47 210 223
f 47 223 45
f 45 223 44
f 44 223 224
f 44 224 42
f 42 224 40
f 40 224 38
f 38 224 233
f 38 233 36
f 36 233 35
f 35 233 231
f 35 231 33
f 33 231 232
f 33 232 31
f 31 232 30
f 30 232 27
f 27 232 205
f 210 435 212
f 212 435 303
f 212 303 217
f 205 441 27
f 217 303 304
f 217 304 225
f 304 306 225
f 306 307 225
f 225 307 215
f 205 440 441
f 359 342 74
f 74 342 76
f 215 307 207
f 207 307 436
f 204 440 205
f 76 342 139
f 436 218 207
f 204 202 348
f 204 348 353
f 348 141 342
f 342 141 139
f 142 76 139
f 138 72 135
f 135 72 73
f 135 73 126
f 126 73 127
f 127 73 78
f 127 78 129
f 78 88 117
f 117 88 195
f 195 88 193
f 193 88 95
f 193 95 191
f 191 95 189
f 189 95 97
f 189 97 187
f 187 97 185
f 185 97 183
f 183 97 100
f 183 100 181
f 181 100 179
f 179 100 177
f 177 100 111
f 177 111 175
f 175 111 107
f 175 107 173
f 173 107 171
f 171 107 102
f 171 102 169
f 169 102 167
f 167 102 165
f 165 102 163
f 163 102 103
f 163 103 161
f 161 103 159
f 159 103 90
f 159 90 157
f 157 90 155
f 155 90 153
f 153 90 151
f 151 90 79
f 151 79 149
f 149 79 147
f 147 79 146
f 146 79 77
f 146 77 144
f 144 77 142
f 142 77 76
f 378 374 72
f 72 374 71
f 219 218 235
f 348 202 141
f 72 138 378
f 257 200 255
f 255 200 230
f 255 230 254
f 254 230 252
f 252 230 250
f 250 230 228
f 250 228 248
f 248 228 246
f 246 228 227
f 246 227 245
f 245 227 243
f 243 227 221
f 243 221 241
f 241 221 239
f 239 221 220
f 239 220 236
f 236 220 235
f 235 220 219
f 136 198 137
f 141 202 140
f 140 202 203
f 140 203 143
f 143 203 145
f 145 203 148
f 148 203 206
f 148 206 150
f 150 206 152
f 152 206 154
f 154 206 234
f 154 234 156
f 156 234 222
f 156 222 158
f 158 222 160
f 160 222 162
f 162 222 214
f 162 214 164
f 164 214 211
f 164 211 166
f 166 211 168
f 168 211 170
f 170 211 216
f 170 216 172
f 172 216 174
f 174 216 226
f 174 226 176
f 176 226 178
f 178 226 213
f 178 213 180
f 180 213 182
f 182 213 208
f 182 208 184
f 184 208 186
f 186 208 188
f 188 208 209
f 188 209 190
f 190 209 192
f 192 209 194
f 194 209 229
f 194 229 113
f 113 229 201
f 113 201 131
f 131 201 133
f 133 201 199
f 133 199 134
f 134 199 128
f 128 199 198
f 128 198 136
f 137 367 138
f 138 367 378
f 200 257 442
f 137 198 367
f 198 196 367
f 367 196 365
f 442 197 200
f 197 365 196
f 396 358 343
f 396 343 397
f 397 343 398
f 398 343 344
f 398 344 361
f 398 361 355
f 399 355 356
f 399 356 360
f 399 360 400
f 400 360 401
f 401 360 396
f 396 360 358
f 411 354 352
f 411 352 412
f 352 349 413
f 413 349 347
f 414 357 354
f 414 354 411
f 122 438 124
f 124 438 19
f 124 19 125
f 122 119 438
f 125 19 20
f 116 114 120
f 131 439 115
f 23 134 22
f 134 23 133
f 133 23 439
f 133 439 132
f 132 439 131
f 8 10 123
f 123 10 444
f 123 444 121
f 121 444 116
f 127 5 6
f 130 443 437
f 118 443 130
f 130 437 129
f 129 437 5
f 129 5 127
f 432 16 17
f 16 432 20
f 433 2 3
f 2 433 6
f 445 351 446
f 446 351 447
f 447 351 350
f 447 350 340
f 447 340 448
f 448 340 449
f 449 340 341
f 449 341 345
f 449 345 445
f 445 345 351
f 445 448 449
f 445 447 448
f 445 446 447
f 450 451 386
f 450 386 452
f 452 386 453
f 452 453 454
f 454 453 455
f 454 455 456
f 456 455 457
f 456 457 458
f 458 457 383
f 458 383 381
f 458 381 450
f 450 381 451
f 450 456 458
f 450 454 456
f 452 454 450
f 451 381 386
f 453 386 385
f 453 385 455
f 455 385 372
f 455 372 457
f 457 372 383
f 459 461 460
f 460 462 459
f 460 463 462
f 463 460 464
f 465 467 466
f 467 468 466
f 468 467 469
f 469 467 470
f 470 467 471
f 472 474 473
f 473 475 472
f 473 476 475
f 476 473 477
f 478 480 479
f 478 482 481
f 480 478 481
f 482 478 483
f 484 486 485
f 484 485 487
f 487 485 488
f 485 489 488
f 488 489 490
f 489 491 490
f 490 491 492
f 492 491 493
f 491 494 493
f 493 494 495
f 495 494 496
f 495 496 497
f 497 496 498
f 497 498 499
f 499 498 500
f 499 500 501
f 501 500 502
f 500 503 502
f 502 503 504
f 503 505 504
f 504 505 506
f 507 506 505
f 508 510 509
f 511 513 512
f 486 514 513
f 515 513 511
f 486 513 515
f 516 509 510
f 516 507 509
f 509 507 517
f 507 505 517
f 517 505 518
f 505 503 518
f 518 503 519
f 503 500 519
f 519 500 520
f 500 498 520
f 520 498 521
f 498 496 521
f 521 496 522
f 496 494 522
f 522 494 523
f 494 491 523
f 523 491 524
f 524 491 525
f 491 489 525
f 525 489 526
f 489 485 526
f 526 485 527
f 485 486 527
f 527 486 515
f 528 530 529
f 531 533 532
f 528 534 530
f 532 533 535
f 535 533 536
f 537 534 528
f 538 533 531
f 537 540 539
f 537 539 534
f 541 543 542
f 542 543 544
f 542 544 545
f 539 546 534
f 547 548 541
f 541 548 543
f 549 551 550
f 549 550 552
f 538 553 533
f 533 553 554
f 546 555 534
f 545 544 556
f 556 544 557
f 557 544 534
f 557 534 555
f 558 560 559
f 559 560 547
f 547 560 548
f 561 563 562
f 562 563 564
f 562 564 558
f 558 564 560
f 565 538 566
f 566 538 551
f 566 551 549
f 538 567 553
f 538 568 567
f 552 550 569
f 569 550 561
f 561 550 563
f 568 538 570
f 570 538 565
f 571 573 572
f 571 572 574
f 575 574 576
f 574 578 577
f 577 579 574
f 579 577 580
f 579 580 581
f 581 580 582
f 581 582 466
f 466 582 583
f 584 585 464
f 584 464 465
f 477 479 586
f 465 583 477
f 465 477 584
f 583 465 466
f 534 588 587
f 575 576 588
f 575 588 534
f 589 573 571
f 590 589 591
f 586 479 592
f 477 586 584
f 584 586 593
f 593 586 594
f 593 594 595
f 593 595 596
f 597 599 598
f 597 598 600
f 600 598 601
f 600 601 602
f 602 601 603
f 602 603 604
f 604 603 605
f 605 603 606
f 605 606 607
f 607 606 608
f 607 608 609
f 609 608 610
f 609 610 611
f 611 610 612
f 611 612 613
f 613 612 614
f 613 614 615
f 615 614 616
f 615 616 617
f 617 616 618
f 617 618 619
f 619 618 620
f 619 620 621
f 621 620 622
f 621 622 623
f 623 622 624
f 623 624 625
f 625 624 626
f 625 626 627
f 627 626 628
f 627 628 629
f 629 628 630
f 629 630 631
f 631 630 632
f 631 632 633
f 633 632 634
f 633 634 635
f 635 634 636
f 635 636 637
f 637 636 638
f 637 638 639
f 639 638 640
f 639 640 641
f 641 640 642
f 641 642 643
f 643 642 644
f 643 644 645
f 645 644 646
f 645 646 647
f 647 646 648
f 647 648 649
f 649 648 650
f 649 650 651
f 651 650 652
f 651 652 653
f 653 652 571
f 653 571 575
f 575 571 574
f 654 656 655
f 657 658 656
f 656 658 655
f 654 655 659
f 660 662 661
f 661 663 660
f 664 666 665
f 667 662 660
f 668 670 669
f 668 669 671
f 672 673 671
f 659 675 674
f 676 665 677
f 671 669 672
f 665 676 664
f 661 678 663
f 659 674 654
f 673 672 679
f 663 678 680
f 681 682 666
f 665 682 683
f 676 677 684
f 676 684 685
f 685 684 670
f 685 670 668
f 673 679 686
f 675 659 687
f 675 687 686
f 686 687 673
f 666 682 665
f 681 666 688
f 688 666 689
f 688 689 680
f 680 689 663
f 690 692 691
f 691 692 693
f 691 693 694
f 694 693 695
f 694 695 696
f 695 697 696
f 696 697 698
f 697 699 698
f 698 699 700
f 700 699 701
f 699 702 701
f 701 702 703
f 703 702 704
f 703 704 705
f 705 704 706
f 705 706 707
f 707 706 708
f 707 708 709
f 709 708 710
f 708 711 710
f 710 711 712
f 713 712 711
f 714 715 713
f 713 715 716
f 717 718 714
f 714 718 715
f 719 721 720
f 719 722 721
f 723 722 719
f 719 692 723
f 713 711 714
f 714 711 724
f 711 708 724
f 724 708 725
f 708 706 725
f 725 706 726
f 706 704 726
f 726 704 727
f 704 702 727
f 727 702 728
f 702 699 728
f 728 699 729
f 729 699 730
f 699 697 730
f 730 697 731
f 697 695 731
f 731 695 732
f 732 695 733
f 695 693 733
f 693 692 733
f 733 692 719
f 720 734 719
f 719 734 735
f 719 735 733
f 733 735 736
f 733 736 732
f 732 736 737
f 732 737 731
f 731 737 738
f 731 738 730
f 730 738 729
f 729 738 739
f 729 739 728
f 728 739 740
f 728 740 727
f 727 740 741
f 727 741 726
f 726 741 742
f 726 742 725
f 725 742 724
f 724 742 743
f 724 743 744
f 724 744 714
f 714 744 745
f 714 745 717
f 511 747 746
f 511 746 515
f 515 746 527
f 527 746 748
f 527 748 526
f 526 748 525
f 525 748 749
f 525 749 524
f 524 749 750
f 524 750 523
f 523 750 751
f 523 751 522
f 522 751 521
f 521 751 752
f 521 752 520
f 520 752 753
f 520 753 754
f 520 754 519
f 519 754 518
f 518 754 755
f 518 755 517
f 517 755 509
f 509 755 756
f 509 756 508
f 508 756 757
f 758 508 757
f 758 757 759
f 760 761 757
f 757 761 759
f 761 760 762
f 762 760 734
f 762 734 720
f 746 764 763
f 763 764 765
f 747 766 746
f 766 764 746
f 767 768 745
f 769 770 767
f 744 767 745
f 769 767 744
f 763 771 746
f 746 771 748
f 748 771 772
f 772 773 748
f 748 773 749
f 773 774 749
f 749 774 750
f 774 775 750
f 750 775 751
f 775 776 751
f 751 776 777
f 751 777 752
f 752 777 753
f 777 778 753
f 778 779 753
f 753 779 754
f 779 780 754
f 754 780 755
f 780 781 755
f 755 781 782
f 755 782 756
f 756 782 757
f 782 783 757
f 783 784 757
f 757 784 760
f 760 784 734
f 784 785 734
f 734 785 735
f 785 786 735
f 735 786 736
f 786 787 736
f 736 787 737
f 787 788 737
f 737 788 738
f 788 789 738
f 738 789 739
f 789 790 739
f 739 790 740
f 790 791 740
f 740 791 741
f 791 792 741
f 741 792 742
f 792 793 742
f 742 793 743
f 793 794 743
f 743 794 744
f 794 769 744
f 554 771 763
f 553 771 554
f 553 772 771
f 567 772 553
f 567 773 772
f 568 773 567
f 568 774 773
f 568 775 774
f 570 775 568
f 570 776 775
f 565 776 570
f 565 777 776
f 566 777 565
f 566 778 777
f 549 778 566
f 549 779 778
f 549 780 779
f 552 780 549
f 552 781 780
f 569 781 552
f 569 782 781
f 561 782 569
f 561 783 782
f 562 783 561
f 562 784 783
f 558 785 562
f 562 785 784
f 559 786 558
f 558 786 785
f 547 786 559
f 547 787 786
f 541 787 547
f 541 788 787
f 542 789 541
f 541 789 788
f 545 790 542
f 542 790 789
f 556 790 545
f 557 790 556
f 557 791 790
f 555 791 557
f 555 792 791
f 792 555 546
f 792 546 793
f 793 546 794
f 794 546 539
f 794 539 540
f 794 540 769
f 795 796 511
f 747 798 797
f 799 801 800
f 511 803 802
f 747 797 766
f 804 805 800
f 800 801 806
f 807 796 806
f 766 797 808
f 800 809 804
f 806 801 807
f 511 802 747
f 806 796 810
f 811 812 512
f 809 800 813
f 796 807 803
f 796 803 511
f 812 814 512
f 747 802 799
f 747 799 798
f 512 814 511
f 511 814 795
f 813 815 809
f 806 810 816
f 806 816 811
f 816 812 811
f 815 813 808
f 808 813 766
f 799 800 805
f 799 805 798
f 817 818 768
f 819 820 745
f 718 822 821
f 823 824 717
f 717 824 718
f 718 824 822
f 825 827 826
f 826 827 828
f 817 829 818
f 718 821 830
f 817 828 829
f 818 831 768
f 832 834 833
f 826 828 817
f 768 831 745
f 745 831 819
f 830 821 835
f 830 836 832
f 832 836 834
f 823 837 833
f 830 835 836
f 837 820 825
f 838 839 717
f 832 833 837
f 832 837 826
f 826 837 825
f 820 837 840
f 717 839 841
f 823 841 837
f 820 840 745
f 745 840 838
f 745 838 717
f 717 841 823
f 842 844 843
f 844 845 843
f 845 846 843
f 846 847 843
f 843 847 848
f 848 849 843
f 843 849 850
f 843 850 842
f 851 844 842
f 844 851 845
f 845 851 852
f 845 852 846
f 846 852 853
f 846 853 847
f 847 853 848
f 848 853 804
f 848 804 849
f 849 804 854
f 849 854 850
f 850 854 855
f 850 855 842
f 842 855 856
f 842 856 851
f 857 859 858
f 858 859 860
f 860 861 858
f 858 861 862
f 858 862 863
f 858 863 864
f 858 864 865
f 865 857 858
f 866 859 857
f 859 866 860
f 860 866 867
f 860 867 861
f 861 867 816
f 861 816 862
f 862 816 868
f 862 868 863
f 863 868 796
f 863 796 795
f 863 795 864
f 864 795 814
f 864 814 865
f 865 814 869
f 865 869 857
f 857 869 866
f 870 825 871
f 871 825 820
f 871 820 872
f 872 820 819
f 872 819 873
f 873 819 831
f 873 831 874
f 874 831 818
f 874 818 875
f 875 818 829
f 875 829 876
f 876 829 877
f 877 829 828
f 877 828 878
f 878 828 827
f 878 827 870
f 870 827 825
f 879 833 880
f 880 833 834
f 880 834 881
f 881 834 836
f 881 836 882
f 882 836 835
f 882 835 821
f 882 821 883
f 883 821 822
f 883 822 884
f 884 822 885
f 885 822 824
f 885 824 886
f 886 824 823
f 886 823 879
f 879 823 833
f 477 879 479
f 879 880 479
f 474 883 884
f 882 478 881
f 882 483 478
f 483 882 883
f 483 883 474
f 479 880 881
f 879 477 886
f 886 477 887
f 886 887 885
f 881 478 479
f 885 474 884
f 885 887 474
f 878 870 464
f 464 870 465
f 870 871 465
f 461 875 876
f 875 461 471
f 471 874 875
f 872 465 871
f 874 471 873
f 873 471 467
f 877 461 876
f 877 888 461
f 888 878 464
f 873 467 872
f 872 467 465
f 878 888 877
f 889 510 890
f 891 722 892
f 462 463 893
f 574 471 576
f 576 471 461
f 475 476 894
f 572 483 578
f 578 483 474
f 481 895 480
f 896 513 897
f 536 766 813
f 765 764 533
f 769 540 770
f 770 540 537
f 770 537 767
f 898 716 715
f 712 713 898
f 898 713 716
f 554 765 533
f 554 763 765
f 486 484 514
f 514 484 897
f 514 897 513
f 767 537 528
f 528 768 767
f 817 768 528
f 718 830 656
f 898 715 656
f 656 715 718
f 533 764 536
f 536 764 766
f 513 896 662
f 811 512 662
f 662 512 513
f 462 893 899
f 462 899 459
f 459 899 576
f 459 576 461
f 471 574 470
f 574 900 470
f 470 900 469
f 900 468 469
f 475 894 577
f 475 577 472
f 472 577 578
f 472 578 474
f 483 572 482
f 482 572 573
f 482 573 481
f 481 573 895
f 892 692 690
f 892 723 692
f 723 892 722
f 889 516 510
f 506 516 889
f 506 507 516
f 508 758 890
f 508 890 510
f 722 891 721
f 721 891 762
f 762 720 721
f 683 506 889
f 890 665 889
f 889 665 683
f 506 683 504
f 504 683 682
f 504 682 502
f 502 682 501
f 501 682 681
f 501 681 499
f 499 681 497
f 497 681 495
f 495 681 688
f 495 688 493
f 493 688 492
f 492 688 680
f 492 680 490
f 490 680 678
f 490 678 488
f 488 678 487
f 487 678 484
f 484 678 661
f 665 890 758
f 665 758 677
f 661 897 484
f 677 758 759
f 677 759 684
f 759 761 684
f 761 762 684
f 684 762 670
f 661 896 897
f 813 800 536
f 536 800 535
f 670 762 669
f 762 891 669
f 669 891 672
f 662 896 661
f 535 800 597
f 892 672 891
f 662 667 806
f 662 806 811
f 806 599 800
f 800 599 597
f 600 535 597
f 596 529 593
f 593 529 530
f 593 530 584
f 584 530 585
f 585 530 534
f 585 534 587
f 534 544 575
f 575 544 653
f 653 544 651
f 651 544 543
f 651 543 649
f 649 543 647
f 647 543 548
f 647 548 645
f 645 548 643
f 643 548 641
f 641 548 560
f 641 560 639
f 639 560 637
f 637 560 635
f 635 560 564
f 635 564 633
f 633 564 563
f 633 563 631
f 631 563 629
f 629 563 550
f 629 550 627
f 627 550 625
f 625 550 623
f 623 550 621
f 621 550 551
f 621 551 619
f 619 551 617
f 617 551 538
f 617 538 615
f 615 538 613
f 613 538 611
f 611 538 609
f 609 538 531
f 609 531 607
f 607 531 605
f 605 531 604
f 604 531 532
f 604 532 602
f 602 532 600
f 600 532 535
f 826 817 529
f 529 817 528
f 672 892 690
f 806 667 599
f 529 596 826
f 712 654 710
f 710 654 674
f 710 674 709
f 709 674 707
f 707 674 705
f 705 674 675
f 705 675 703
f 703 675 701
f 701 675 686
f 701 686 700
f 700 686 698
f 698 686 679
f 698 679 696
f 696 679 694
f 694 679 672
f 694 672 691
f 691 672 690
f 594 658 595
f 599 667 598
f 598 667 660
f 598 660 601
f 601 660 603
f 603 660 606
f 606 660 663
f 606 663 608
f 608 663 610
f 610 663 612
f 612 663 689
f 612 689 614
f 614 689 666
f 614 666 616
f 616 666 618
f 618 666 620
f 620 666 664
f 620 664 622
f 622 664 624
f 624 664 626
f 626 664 628
f 628 664 676
f 628 676 630
f 630 676 632
f 632 676 685
f 632 685 634
f 634 685 636
f 636 685 668
f 636 668 638
f 638 668 640
f 640 668 671
f 640 671 642
f 642 671 644
f 644 671 646
f 646 671 673
f 646 673 648
f 648 673 650
f 650 673 652
f 652 673 687
f 652 687 571
f 571 687 659
f 571 659 589
f 589 659 591
f 591 659 655
f 591 655 592
f 592 655 586
f 586 655 658
f 586 658 594
f 595 832 596
f 596 832 826
f 654 712 898
f 595 658 832
f 658 657 832
f 832 657 830
f 898 656 654
f 656 830 657
f 851 808 797
f 851 797 852
f 852 797 853
f 853 797 798
f 853 798 805
f 853 805 804
f 854 804 809
f 854 809 815
f 854 815 855
f 855 815 856
f 856 815 851
f 851 815 808
f 866 812 816
f 866 816 867
f 816 810 868
f 868 810 796
f 869 814 812
f 869 812 866
f 580 894 582
f 582 894 476
f 582 476 583
f 580 577 894
f 583 476 477
f 574 572 578
f 589 895 573
f 480 592 479
f 592 480 591
f 591 480 895
f 591 895 590
f 590 895 589
f 466 468 581
f 581 468 900
f 581 900 579
f 579 900 574
f 585 463 464
f 588 899 893
f 576 899 588
f 588 893 587
f 587 893 463
f 587 463 585
f 887 473 474
f 473 887 477
f 888 460 461
f 460 888 464
f 901 803 902
f 902 803 903
f 903 803 807
f 903 807 801
f 903 801 904
f 904 801 905
f 905 801 799
f 905 799 802
f 905 802 901
f 901 802 803
f 901 904 905
f 901 903 904
f 901 902 903
f 906 907 841
f 906 841 908
f 908 841 909
f 908 909 910
f 910 909 911
f 910 911 912
f 912 911 913
f 912 913 914
f 914 913 840
f 914 840 837
f 914 837 906
f 906 837 907
f 906 912 914
f 906 910 912
f 908 910 906
f 907 837 841
f 909 841 839
f 909 839 911
f 911 839 838
f 911 838 913
f 913 838 840

