v 0.02072906 0.04050378 -0.24564171
v 0.02276315 0.04402694 -0.25104171
v 0.02072906 0.04050378 -0.25054172
v -0.02471277 -0.03820378 -0.23244171
v -0.02674687 -0.04172694 -0.22704172
v -0.02471277 -0.03820378 -0.22754171
v -0.03111189 -0.05188738 -0.22704172
v -0.04501001 -0.04042709 -0.22704172
v -0.02694328 -0.04325708 -0.22704172
v 0.00993249 0.05967911 -0.22704172
v 0.02399009 0.04496210 -0.22704172
v 0.02276315 0.04402694 -0.22704172
v 0.02937984 0.05288738 -0.22704172
v -0.03045945 -0.03447060 -0.22704172
v 0.00815514 0.05123933 -0.22704172
v 0.01042928 0.05216413 -0.22704172
v 0.01243156 0.04428833 -0.22704172
v -0.05078822 0.01582478 -0.22704172
v -0.03703056 0.03643573 -0.22704172
v -0.05008014 0.01365844 -0.22704172
v -0.02300966 0.03983159 -0.22704172
v -0.03735039 0.02685048 -0.22704172
v -0.04322459 0.01573642 -0.22704172
v -0.04587066 0.00344712 -0.22704172
v -0.05077158 -0.01163584 -0.22712958
v -0.04509098 -0.00909962 -0.22704172
v -0.04800826 -0.01985023 -0.22704172
v -0.04239554 -0.01784989 -0.22704172
v 0.02097937 0.04093734 -0.22704172
v -0.01357397 0.04395165 -0.22704172
v -0.01603048 0.04933676 -0.22704172
v -0.02908179 0.04321337 -0.22712958
v -0.00231413 0.04594176 -0.22704172
v -0.00649310 0.05168158 -0.22712958
v -0.03598014 -0.02866059 -0.22704172
v -0.04848110 -0.02189635 -0.22704172
v -0.05679953 0.01702912 -0.22704172
v -0.05480037 0.01787469 -0.22704172
v -0.05327502 -0.02867093 -0.22704172
v -0.05072879 -0.02397573 -0.22704172
v 0.01175737 0.05726723 -0.22704172
v -0.05389497 -0.02406829 -0.22704172
v -0.05636009 0.02199524 -0.22704172
v -0.05748431 0.01535591 -0.22734171
v -0.05103634 0.03248911 -0.22704172
v -0.04761880 0.03812414 -0.22754171
v -0.04142418 0.03698406 -0.22704172
v -0.04321164 0.03973280 -0.22704172
v -0.04281880 0.04156094 -0.22704172
v -0.05512755 -0.02237889 -0.22734171
v -0.05606018 -0.02274876 -0.22704172
v -0.05901792 -0.01542354 -0.22754171
v -0.06049071 -0.00106021 -0.22704172
v -0.06045325 0.00814893 -0.22754171
v -0.05879892 0.00910698 -0.22734171
v 0.00995233 0.05857931 -0.22734171
v 0.00278977 0.05943456 -0.22734171
v -0.00962408 0.05972962 -0.22704172
v -0.02504768 0.05397096 -0.22734171
v -0.02604514 0.05516023 -0.22754171
v -0.03487131 0.04943927 -0.22704172
v 0.01272159 0.04368537 -0.25054172
v 0.01251849 0.04374400 -0.24564171
v 0.00731133 0.04490874 -0.24564171
v 0.00163014 0.04547079 -0.25054172
v -0.00013129 0.04549981 -0.24564171
v -0.00545702 0.04517157 -0.24564171
v -0.00623392 0.04507092 -0.25054172
v -0.01578297 0.04267491 -0.25054172
v -0.01277073 0.04367102 -0.24564171
v -0.02164224 0.04002329 -0.24564171
v -0.02313909 0.03917694 -0.25054172
v -0.02789612 0.03594518 -0.24564171
v -0.02532477 0.03840125 -0.25104171
v -0.03376112 0.03052456 -0.24563339
v -0.03376112 0.03052456 -0.25054172
v -0.03780315 0.03497387 -0.24217762
v -0.03927348 0.03225743 -0.24256864
v -0.04068335 0.03157190 -0.24217947
v 0.02316133 0.04599785 -0.24217762
v 0.02529396 0.04486051 -0.24217762
v 0.02328222 0.04461712 -0.24285518
v -0.03616622 0.03036509 -0.24464680
v -0.03157473 0.04068521 -0.24217762
v -0.02555243 0.04471380 -0.24217762
v -0.02124878 0.04691204 -0.24217762
v -0.01329091 0.04975542 -0.24217762
v -0.00377098 0.05136175 -0.24217762
v 0.00588146 0.05116306 -0.24217762
v 0.01532722 0.04916631 -0.24217762
v -0.04174735 -0.04384923 -0.22879030
v -0.03972104 -0.04629513 -0.22754171
v -0.04071467 -0.04444733 -0.23019667
v -0.04142051 -0.04478104 -0.24173416
v -0.04131571 -0.04487775 -0.23622324
v -0.04074605 -0.04539559 -0.24744171
v -0.03972104 -0.04629513 -0.25054172
v -0.04221714 -0.04334378 -0.24943937
v -0.04710347 -0.03875904 -0.23694171
v -0.04873670 -0.03668426 -0.24114172
v -0.05172629 -0.03233251 -0.23694171
v -0.05371550 -0.02890753 -0.24174871
v -0.05303420 -0.02955249 -0.23617968
v -0.05412403 -0.02790331 -0.23514302
v -0.05424977 -0.02770572 -0.24336857
v -0.05491601 -0.02655620 -0.25054172
v -0.05412403 -0.02790331 -0.24814302
v -0.05547791 -0.02536141 -0.22754171
v -0.05424977 -0.02770572 -0.23036857
v -0.05241396 -0.03120540 -0.25054172
v -0.04710347 -0.03875904 -0.24994172
v -0.04710347 -0.03875904 -0.22754171
v -0.03556904 -0.04955647 -0.25054172
v -0.03556904 -0.04955647 -0.22754171
v -0.03135674 -0.05232356 -0.25054172
v -0.03135674 -0.05232356 -0.22754171
v 0.02963516 0.05331751 -0.22754171
v 0.02632973 0.05502496 -0.25054172
v 0.02963516 0.05331751 -0.25054172
v 0.02147300 0.05709562 -0.22754171
v 0.02023224 0.05754700 -0.25054172
v 0.01518027 0.05908096 -0.22754171
v 0.01260923 0.05968256 -0.25054172
v 0.01001457 0.06017232 -0.22754171
v 0.00740115 0.06054934 -0.25054172
v 0.00477386 0.06081291 -0.22754171
v 0.00213763 0.06096254 -0.25054172
v -0.00314192 0.06091903 -0.22754171
v -0.00314192 0.06091903 -0.25054172
v -0.00839792 0.06041916 -0.25054172
v -0.00839792 0.06041916 -0.22754171
v -0.01359101 0.05946667 -0.25054172
v -0.01359101 0.05946667 -0.22754171
v -0.01868229 0.05806869 -0.25054172
v -0.01868229 0.05806869 -0.22754171
v -0.02604514 0.05516023 -0.25054172
v -0.03071738 0.05270145 -0.25054172
v -0.03296933 0.05132274 -0.22754171
v -0.03728380 0.04827958 -0.25054172
v -0.04131897 0.04487475 -0.22754171
v -0.04228052 0.04396996 -0.25054172
v -0.04414377 0.04209902 -0.22754171
v -0.04592431 0.04014919 -0.25054172
v -0.04843277 0.03708458 -0.25054172
v -0.05145813 0.03275761 -0.22754171
v -0.05409799 0.02818524 -0.25054172
v -0.05633258 0.02340172 -0.22754171
v -0.05682587 0.02217702 -0.25054172
v -0.05814516 0.01844289 -0.25054172
v -0.05952216 0.01334590 -0.22754171
v -0.06004395 0.01075749 -0.25054172
v -0.06074927 0.00552510 -0.25054172
v -0.06093146 0.00289091 -0.22754171
v -0.06099948 0.00025131 -0.25054172
v -0.06066975 -0.00633894 -0.22754171
v -0.06033858 -0.00895857 -0.25054172
v -0.05989436 -0.01156141 -0.22754171
v -0.05867027 -0.01669727 -0.25054172
v -0.05789271 -0.01922066 -0.22754171
v -0.05746315 -0.02046915 -0.25054172
v -0.02674687 -0.04172694 -0.25104171
v -0.04229186 -0.04326255 -0.25104171
v -0.02694328 -0.04325708 -0.25104171
v -0.03111189 -0.05188738 -0.25104171
v -0.05264201 -0.02981726 -0.25104171
v 0.02399009 0.04496210 -0.25104171
v 0.01250588 0.05919335 -0.25104171
v 0.02937984 0.05288738 -0.25104171
v -0.04417671 0.01602042 -0.25054172
v -0.04664781 0.01644633 -0.25104171
v -0.04331560 0.01397571 -0.25054172
v 0.01503125 0.04347484 -0.25104171
v 0.01207152 0.05621228 -0.25104171
v 0.00992078 0.05891351 -0.25104171
v 0.00050972 0.04599718 -0.25104171
v 0.00929697 0.05142580 -0.25104171
v -0.04798902 -0.02004349 -0.25104171
v -0.04828322 0.01901373 -0.25104171
v -0.03969050 0.03270594 -0.25104171
v -0.03832567 0.03604728 -0.25104171
v -0.04288011 0.03852116 -0.25104171
v -0.03408816 0.03090278 -0.25104171
v -0.05199071 -0.00317989 -0.25095385
v -0.04803579 0.03678061 -0.25104171
v -0.04193396 0.04360955 -0.25104171
v -0.04599493 -0.00068311 -0.25104171
v -0.04496161 -0.00971873 -0.25104171
v -0.04217083 -0.01837446 -0.25104171
v -0.04253182 0.02991729 -0.25104171
v -0.05636009 0.02199524 -0.25104171
v -0.05006955 0.01385153 -0.25104171
v -0.04523040 0.00837920 -0.25104171
v 0.01042928 0.05216413 -0.25104171
v -0.00854965 0.04519849 -0.25104171
v 0.00043663 0.05208604 -0.25095385
v -0.00180775 0.06047299 -0.25104171
v -0.00241661 0.05945091 -0.25074172
v -0.01727483 0.04263309 -0.25104171
v -0.01257991 0.05054594 -0.25095385
v -0.02853426 0.05221155 -0.25074172
v -0.02100420 0.05673688 -0.25104171
v -0.03593317 0.04867296 -0.25104171
v -0.05511421 0.01783911 -0.25104171
v -0.05744394 0.01549373 -0.25074172
v -0.03494585 -0.02991300 -0.25104171
v -0.04848110 -0.02189635 -0.25104171
v -0.05300002 -0.02437069 -0.25104171
v -0.05483913 -0.02287473 -0.25074172
v -0.02496309 -0.03863734 -0.25104171
v -0.05274123 0.01738236 -0.25104171
v -0.05835367 0.01162320 -0.25074172
v -0.06025132 0.00547981 -0.25104171
v -0.05984400 -0.00888513 -0.25104171
v -0.05758555 -0.01497178 -0.25074172
v -0.04473876 0.00828813 -0.25054172
v -0.04339450 0.01501956 -0.24539909
v -0.04475176 0.00821766 -0.24564171
v -0.04540580 -0.00292628 -0.25054172
v -0.04545889 0.00193368 -0.24564171
v -0.04466248 -0.00868982 -0.24564171
v -0.04330478 -0.01396230 -0.25054172
v -0.04184824 -0.01785987 -0.24564171
v -0.04076193 -0.02021670 -0.25054172
v -0.03732156 -0.02602597 -0.25054172
v -0.03654823 -0.02710124 -0.24564171
v -0.03162417 -0.03271333 -0.24564171
v -0.02894713 -0.03510433 -0.25054172
v -0.02471277 -0.03820378 -0.25054172
v -0.02471277 -0.03820378 -0.24564171
v -0.03121351 -0.04096299 -0.24217762
v -0.02699850 -0.04247195 -0.24285497
v -0.02620336 -0.04433547 -0.24217762
v -0.04842009 0.01754265 -0.24217762
v -0.04776744 0.01911283 -0.24220690
v -0.04738940 0.01759109 -0.24272667
v -0.03491567 -0.03785692 -0.24217762
v -0.03988300 -0.03258215 -0.24217762
v -0.04526334 -0.02456583 -0.24217762
v -0.04736669 -0.02021501 -0.24217762
v -0.05003489 -0.01219671 -0.24217762
v -0.05143209 -0.00264385 -0.24217762
v -0.05102179 0.00700192 -0.24217762
v -0.05014085 0.01175351 -0.24217762
v -0.04489938 0.02522491 -0.23590581
v -0.04918984 0.01525155 -0.23590581
v -0.05129412 0.00460036 -0.23590581
v -0.05149950 -0.00022784 -0.23590581
v -0.05076892 -0.00864679 -0.23590581
v -0.04905296 -0.01568620 -0.23590581
v -0.04736669 -0.02021501 -0.23590581
v -0.04342313 -0.02768902 -0.23590581
v -0.03910746 -0.03350905 -0.23590581
v -0.03491567 -0.03785692 -0.23590581
v -0.02825464 -0.04305723 -0.23590581
v -0.02620336 -0.04433547 -0.23590581
v 0.02529396 0.04486051 -0.23590581
v 0.01874785 0.04796632 -0.23590581
v 0.01416928 0.04951244 -0.23590581
v 0.00708041 0.05101096 -0.23590581
v 0.00105991 0.05148909 -0.23590581
v -0.00377098 0.05136175 -0.23590581
v -0.01329091 0.04975542 -0.23590581
v -0.01902435 0.04785733 -0.23590581
v -0.02342640 0.04586342 -0.23590581
v -0.03157473 0.04068521 -0.23590581
v -0.03612061 0.03670901 -0.23590581
v -0.04233730 0.02932240 -0.23590581
v -0.04145008 0.03056372 -0.25054172
v -0.04570654 0.02373104 -0.25054172
v -0.04764297 0.01955497 -0.25054172
v 0.02072906 0.04050378 -0.23244171
v 0.02328253 0.04461736 -0.23522846
v -0.02699845 -0.04247156 -0.23522826
v 0.01251849 0.04374400 -0.23244171
v 0.00519624 0.04520231 -0.23244171
v -0.00545702 0.04517157 -0.23244171
v -0.01277073 0.04367102 -0.23244171
v -0.02257545 0.03950442 -0.23244171
v -0.02873192 0.03528069 -0.23244171
v -0.03678659 0.02677679 -0.23244171
v -0.04067032 0.02040037 -0.23244171
v -0.04429920 0.01038417 -0.23244171
v -0.04540100 0.00299986 -0.23244171
v -0.04537268 -0.00340146 -0.23244171
v -0.04300092 -0.01487181 -0.23244171
v -0.04048822 -0.02075943 -0.23244171
v -0.03384704 -0.03040769 -0.23244171
v -0.03084782 -0.03344640 -0.23244171
v 0.01553426 0.04276607 -0.22754171
v 0.00787563 0.04481322 -0.22754171
v -0.00115588 0.04548531 -0.22754171
v -0.01014161 0.04435536 -0.22754171
v -0.02656759 0.03693796 -0.22754171
v -0.03411783 0.03010355 -0.22754171
v -0.03940416 0.02275000 -0.22754171
v -0.04312935 0.01449513 -0.22754171
v -0.04499063 0.00678922 -0.22754171
v -0.04544404 -0.00225592 -0.22754171
v -0.04348367 -0.01339479 -0.22754171
v -0.03487157 -0.02922711 -0.22754171
v -0.02839220 -0.03555465 -0.22754171
v 0.02981596 0.05264276 -0.25054172
v 0.02531699 0.04485031 -0.25054172
v 0.02791984 0.04935858 -0.24685055
v 0.02678876 0.04739949 -0.24761845
v 0.02531699 0.04485031 -0.22754171
v 0.02981596 0.05264276 -0.22754171
v 0.02652949 0.04695042 -0.23067977
v 0.02760449 0.04881237 -0.23067977
v 0.02813969 0.04973936 -0.23268233
v 0.02817906 0.04980756 -0.24018329
v 0.02709232 0.04892527 -0.24416979
v 0.02652949 0.04695042 -0.24367976
v 0.02796387 0.04943484 -0.23730034
v 0.02658002 0.04803794 -0.23418818
v 0.02725155 0.04820106 -0.24151431
v 0.02666665 0.04718799 -0.23667340
v 0.02604904 0.04611826 -0.23323281
v 0.02592305 0.04590005 -0.24004953
v 0.02581074 0.04670551 -0.24564964
v -0.03068199 -0.05214276 -0.25054172
v -0.02907020 -0.04935106 -0.24630804
v -0.02799798 -0.04749392 -0.24793820
v -0.02671141 -0.04526552 -0.23993097
v -0.02679583 -0.04541174 -0.24477538
v -0.02786805 -0.04726887 -0.24314523
v -0.02912598 -0.04944767 -0.23280120
v -0.03068199 -0.05214276 -0.22754171
v -0.02880421 -0.04889035 -0.23089124
v -0.02618301 -0.04435031 -0.25054172
v -0.02679583 -0.04541174 -0.24630804
v -0.02880421 -0.04889035 -0.23419219
v -0.02618301 -0.04435031 -0.22754171
v -0.02825405 -0.04793745 -0.23022920
v -0.02690478 -0.04560045 -0.23377904
v -0.02697770 -0.04572675 -0.23108929
v -0.02800690 -0.04650938 -0.23706836
v -0.02773887 -0.04704514 -0.23491010
v -0.02901915 -0.04926264 -0.24047044
v -0.02915461 -0.04949727 -0.23815246
v -0.02860644 -0.04854780 -0.24355526
v 0.01746154 0.05342711 -0.23254171
v 0.01821245 0.05274488 -0.23417760
v 0.01755793 0.05161123 -0.23317315
v 0.01908233 0.05425157 -0.23317315
v 0.01863584 0.05347823 -0.23101731
v 0.01800442 0.05238457 -0.23101731
v 0.01746154 0.05342711 -0.24554172
v 0.01821245 0.05274488 -0.24717760
v 0.01750219 0.05151468 -0.24575709
v 0.01890349 0.05394181 -0.24670844
v 0.01908233 0.05425157 -0.24491028
v 0.01821245 0.05274488 -0.24390583
v 0.01755793 0.05161123 -0.24491028
v -0.03518816 -0.04594767 -0.23228224
v -0.03477205 -0.04522697 -0.23437090
v -0.03418933 -0.04421765 -0.23491010
v -0.03290610 -0.04199504 -0.23354945
v -0.03312400 -0.04237244 -0.23089124
v -0.03443936 -0.04465071 -0.23031217
v -0.03513237 -0.04585106 -0.24477538
v -0.03508428 -0.04576776 -0.24654944
v -0.03431622 -0.04443745 -0.24785423
v -0.03312400 -0.04237244 -0.24719219
v -0.03285801 -0.04191174 -0.24477538
v -0.03406016 -0.04399392 -0.24314523
v -0.03574634 0.03015552 -0.25054172
v -0.03788824 0.03179200 -0.25054172
v -0.03391243 -0.04373805 -0.24164523
v -0.03258738 -0.04144299 -0.24284315
v -0.03647265 -0.04017248 -0.24164306
v -0.03550996 -0.03850506 -0.24356842
v -0.03204519 -0.04050390 -0.24554172
v -0.03550929 -0.03850390 -0.24554172
v -0.03270688 -0.04164997 -0.24846934
v -0.03643689 -0.04011055 -0.24886268
v -0.03407795 -0.04402474 -0.24943820
v -0.03745929 -0.04188140 -0.24944171
v -0.03874761 -0.04411282 -0.24846934
v -0.03501759 -0.04565224 -0.24886268
v -0.03923619 -0.04495907 -0.24714813
v -0.03593817 -0.04724673 -0.24587245
v -0.03940929 -0.04525889 -0.24364172
v -0.03528351 -0.04611282 -0.24261409
v -0.03863181 -0.04391226 -0.24169186
v -0.03391243 -0.04373805 -0.22864524
v -0.03258738 -0.04144299 -0.22984315
v -0.03647265 -0.04017248 -0.22864306
v -0.03550996 -0.03850506 -0.23056842
v -0.03210811 -0.04061288 -0.23155899
v -0.03229281 -0.04093279 -0.23444372
v -0.03617098 -0.03964997 -0.23546934
v -0.03326812 -0.04262207 -0.23616049
v -0.03745929 -0.04188140 -0.23644172
v -0.03487309 -0.04540196 -0.23602413
v -0.03593817 -0.04724673 -0.23287246
v -0.03929790 -0.04506597 -0.23384096
v -0.03940929 -0.04525889 -0.23064171
v -0.03528351 -0.04611282 -0.22961409
v -0.05518442 -0.02224702 -0.24604172
v -0.05688961 -0.01743050 -0.24604172
v -0.05945333 -0.00235628 -0.24604172
v -0.05938902 -0.00363239 -0.25074172
v -0.05936345 0.00402881 -0.25074172
v -0.05879892 0.00910698 -0.24604172
v -0.05748431 0.01535591 -0.24604172
v -0.05497801 0.01512369 -0.24604172
v -0.05575587 0.01734414 -0.24604172
v -0.05608193 0.01018907 -0.24604172
v -0.05693333 0.00275611 -0.24604172
v -0.05680388 -0.00472433 -0.24604172
v -0.05511181 -0.01454953 -0.24604172
v -0.05267282 -0.02198729 -0.24604172
v -0.05322655 -0.02400979 -0.24604172
v -0.03616659 0.04724646 -0.25074172
v -0.04204076 0.04210492 -0.25074172
v -0.04204076 0.04210492 -0.24704172
v -0.03580586 0.04751255 -0.24692975
v -0.02968522 0.05155860 -0.24692975
v -0.02226710 0.05517632 -0.24704172
v -0.01400283 0.05782881 -0.25074172
v -0.01698833 0.05671753 -0.24633461
v -0.00992660 0.05866611 -0.24704172
v -0.00262986 0.05944185 -0.24704172
v 0.00561885 0.05920891 -0.24681920
v 0.00946309 0.05873600 -0.24704172
v -0.01243752 0.05571251 -0.24609783
v -0.00806093 0.05857140 -0.24625988
v -0.02446437 0.05194118 -0.24604172
v -0.00085137 0.05729593 -0.24604800
v 0.00914200 0.05800654 -0.24606679
v -0.05739702 0.01562946 -0.23204172
v -0.05835367 0.01162320 -0.23204172
v -0.05936345 0.00402881 -0.23204172
v -0.05945333 -0.00235628 -0.22734171
v -0.05938902 -0.00363239 -0.23204172
v -0.05885841 -0.00871422 -0.22734171
v -0.05758555 -0.01497178 -0.23204172
v -0.05518442 -0.02224702 -0.23204172
v -0.05495978 0.01540419 -0.23204172
v -0.05575587 0.01734414 -0.23204172
v -0.05272510 -0.02171110 -0.23204172
v -0.05322655 -0.02400979 -0.23204172
v -0.05442217 -0.01694779 -0.23204172
v -0.05617307 -0.00967399 -0.23204172
v -0.05695622 -0.00223354 -0.23204172
v -0.05647415 0.00772464 -0.23204172
v 0.00954421 0.05871631 -0.23204172
v -0.00760448 0.05901205 -0.23204172
v -0.00501535 0.05928825 -0.22734171
v -0.01273413 0.05812135 -0.22734171
v -0.01400283 0.05782881 -0.23204172
v -0.01651950 0.05716079 -0.22734171
v -0.02266239 0.05501514 -0.23204172
v -0.03298929 0.04951724 -0.22734171
v -0.03406487 0.04878355 -0.23204172
v -0.03819906 0.04561888 -0.22734171
v -0.04204076 0.04210492 -0.23204172
v 0.01142105 0.05726339 -0.23204172
v 0.00957495 0.05626888 -0.23204172
v -0.04058651 0.04005051 -0.23204172
v -0.04289840 0.03961393 -0.23204172
v -0.02859838 0.04930652 -0.23204172
v -0.02177908 0.05267515 -0.23204172
v -0.01334203 0.05541652 -0.23204172
v -0.00331628 0.05690345 -0.23204172
v 0.00070844 0.05208305 -0.22712958
v -0.02287325 0.04679701 -0.22712958
v -0.05205995 0.00170525 -0.22712958
v -0.04973219 -0.01548727 -0.25095385
v -0.05181119 0.00536161 -0.25095385
v -0.03403765 0.03942822 -0.25095385
v -0.04038923 0.03983048 -0.24634132
v -0.03496794 0.04498890 -0.24614075
v -0.02714898 0.04445311 -0.25095385
v -0.02065781 0.04781632 -0.25095385
v -0.01837082 0.05364894 -0.24633461
v -0.00764623 0.05152360 -0.25095385
v 0.00923239 0.05596524 -0.24634030
v -0.04274289 0.03928744 -0.24661854
v 0.01167143 0.05666663 -0.24732409
v -0.03863181 -0.04391226 -0.22869186
v -0.03593429 -0.03924001 -0.22900541
v -0.03563048 -0.03871379 -0.23539603
v -0.03613630 -0.03958992 -0.23629738
v -0.03894132 -0.04444835 -0.23613517
v -0.04221714 -0.04334378 -0.23643936
v -0.05165936 -0.03148905 -0.23644172
v -0.04078503 -0.04418475 -0.23539603
v -0.05209781 -0.03088738 -0.22866462
v -0.03593429 -0.03924001 -0.24200542
v -0.03613630 -0.03958992 -0.24929738
v -0.03563048 -0.03871379 -0.24839604
v -0.03894132 -0.04444835 -0.24913517
v -0.04142837 -0.04178378 -0.24164172
v -0.05165936 -0.03148905 -0.24944171
v -0.04071467 -0.04444733 -0.24319667
v -0.04078503 -0.04418475 -0.24839604
v -0.04164076 0.04170431 -0.24614075
v -0.02705674 0.05246631 -0.24619499
v -0.05302982 -0.03014694 -0.22831260
v 0.02260990 0.04816150 -0.23927826
v 0.02292790 0.04871229 -0.24051738
v 0.02380886 0.05023816 -0.24099883
v 0.02458712 0.05158614 -0.23939550
v 0.02446393 0.05137277 -0.23802465
v 0.02345524 0.04962566 -0.23706363
v -0.03579953 -0.04500661 -0.23998420
v -0.03467888 -0.04306559 -0.24110982
v -0.02800690 -0.04650938 -0.24101508
v -0.03392290 -0.04175619 -0.23998420
v -0.03433622 -0.04247207 -0.23722306
v -0.03579953 -0.04500661 -0.23809923
v -0.02072906 -0.04050378 -0.24564171
v -0.02276315 -0.04402694 -0.25104171
v -0.02072906 -0.04050378 -0.25054172
v 0.02471277 0.03820378 -0.23244171
v 0.02674687 0.04172694 -0.22704172
v 0.02496309 0.03863734 -0.22704172
v 0.02694328 0.04325708 -0.22704172
v 0.03111189 0.05188738 -0.22704172
v 0.04501001 0.04042709 -0.22704172
v 0.05327502 0.02867093 -0.22704172
v -0.02276315 -0.04402694 -0.22704172
v -0.01378409 -0.05890882 -0.22704172
v -0.02399009 -0.04496210 -0.22704172
v -0.02937984 -0.05288738 -0.22704172
v -0.00815514 -0.05123933 -0.22704172
v -0.01042928 -0.05216413 -0.22704172
v -0.01243156 -0.04428833 -0.22704172
v 0.00231413 -0.04594176 -0.22704172
v 0.04322459 -0.01573642 -0.22704172
v 0.04587066 -0.00344712 -0.22704172
v 0.05008014 -0.01365844 -0.22704172
v 0.05077158 0.01163584 -0.22712958
v 0.02300966 -0.03983159 -0.22704172
v 0.03735039 -0.02685048 -0.22704172
v 0.03703056 -0.03643573 -0.22704172
v 0.00649310 -0.05168158 -0.22712958
v 0.01603048 -0.04933676 -0.22704172
v 0.01357397 -0.04395165 -0.22704172
v -0.02097937 -0.04093734 -0.22704172
v -0.00995233 -0.05857931 -0.22734171
v 0.04509098 0.00909962 -0.22704172
v 0.04800826 0.01985023 -0.22704172
v 0.04239554 0.01784989 -0.22704172
v -0.01209522 -0.05573932 -0.22704172
v 0.02908179 -0.04321337 -0.22712958
v 0.03598014 0.02866059 -0.22704172
v 0.04848110 0.02189635 -0.22704172
v 0.05375925 0.02380075 -0.22734171
v 0.05072879 0.02397573 -0.22704172
v 0.05078822 -0.01582478 -0.22704172
v 0.05512755 0.02237889 -0.22734171
v 0.05606018 0.02274876 -0.22704172
v 0.05755377 -0.01602458 -0.22704172
v 0.05636009 -0.02199524 -0.22704172
v 0.05542321 -0.01777368 -0.22704172
v 0.03045945 0.03447060 -0.22704172
v 0.05903427 -0.01323651 -0.22704172
v 0.05103634 -0.03248911 -0.22704172
v 0.03909877 -0.03607149 -0.22704172
v 0.04761880 -0.03812414 -0.22754171
v 0.04272690 -0.03824496 -0.22704172
v 0.04281880 -0.04156094 -0.22704172
v -0.00278977 -0.05943456 -0.22734171
v 0.00180775 -0.06047299 -0.22704172
v 0.05901792 0.01542354 -0.22754171
v 0.06049071 0.00106021 -0.22704172
v 0.05879892 -0.00910698 -0.22734171
v 0.00962408 -0.05972962 -0.22704172
v 0.02504768 -0.05397096 -0.22734171
v 0.02604514 -0.05516023 -0.22754171
v 0.03487131 -0.04943927 -0.22704172
v -0.01272159 -0.04368537 -0.25054172
v -0.01251849 -0.04374400 -0.24564171
v -0.00731133 -0.04490874 -0.24564171
v -0.00163014 -0.04547079 -0.25054172
v 0.00013129 -0.04549981 -0.24564171
v 0.00545702 -0.04517157 -0.24564171
v 0.00623392 -0.04507092 -0.25054172
v 0.01578297 -0.04267491 -0.25054172
v 0.01277073 -0.04367102 -0.24564171
v 0.02164224 -0.04002329 -0.24564171
v 0.02313909 -0.03917694 -0.25054172
v 0.02789612 -0.03594518 -0.24564171
v 0.02532477 -0.03840125 -0.25104171
v 0.03376112 -0.03052456 -0.24563339
v 0.03376112 -0.03052456 -0.25054172
v 0.03780315 -0.03497387 -0.24217762
v 0.03927348 -0.03225743 -0.24256864
v 0.04068335 -0.03157190 -0.24217947
v -0.02316133 -0.04599785 -0.24217762
v -0.02529396 -0.04486051 -0.24217762
v -0.02328222 -0.04461712 -0.24285518
v 0.03616622 -0.03036509 -0.24464680
v 0.03157473 -0.04068521 -0.24217762
v 0.02555243 -0.04471380 -0.24217762
v 0.02124878 -0.04691204 -0.24217762
v 0.01329091 -0.04975542 -0.24217762
v 0.00377098 -0.05136175 -0.24217762
v -0.00588146 -0.05116306 -0.24217762
v -0.01532722 -0.04916631 -0.24217762
v 0.04174735 0.04384923 -0.22879030
v 0.03972104 0.04629513 -0.22754171
v 0.04071467 0.04444733 -0.23019667
v 0.04142051 0.04478104 -0.24173416
v 0.04131571 0.04487775 -0.23622324
v 0.04074605 0.04539559 -0.24744171
v 0.03972104 0.04629513 -0.25054172
v 0.04221714 0.04334378 -0.24943937
v 0.04710347 0.03875904 -0.23694171
v 0.04873670 0.03668426 -0.24114172
v 0.05172629 0.03233251 -0.23694171
v 0.05371550 0.02890753 -0.24174871
v 0.05303420 0.02955249 -0.23617968
v 0.05412403 0.02790331 -0.23514302
v 0.05424977 0.02770572 -0.24336857
v 0.05491601 0.02655620 -0.25054172
v 0.05412403 0.02790331 -0.24814302
v 0.05547791 0.02536141 -0.22754171
v 0.05424977 0.02770572 -0.23036857
v 0.05241396 0.03120540 -0.25054172
v 0.04710347 0.03875904 -0.24994172
v 0.04710347 0.03875904 -0.22754171
v 0.03556904 0.04955647 -0.25054172
v 0.03556904 0.04955647 -0.22754171
v 0.03135674 0.05232356 -0.25054172
v 0.03135674 0.05232356 -0.22754171
v -0.02963516 -0.05331751 -0.22754171
v -0.02632973 -0.05502496 -0.25054172
v -0.02963516 -0.05331751 -0.25054172
v -0.02147300 -0.05709562 -0.22754171
v -0.02023224 -0.05754700 -0.25054172
v -0.01518027 -0.05908096 -0.22754171
v -0.01260923 -0.05968256 -0.25054172
v -0.01001457 -0.06017232 -0.22754171
v -0.00740115 -0.06054934 -0.25054172
v -0.00477386 -0.06081291 -0.22754171
v -0.00213763 -0.06096254 -0.25054172
v 0.00314192 -0.06091903 -0.22754171
v 0.00314192 -0.06091903 -0.25054172
v 0.00839792 -0.06041916 -0.25054172
v 0.00839792 -0.06041916 -0.22754171
v 0.01359101 -0.05946667 -0.25054172
v 0.01359101 -0.05946667 -0.22754171
v 0.01868229 -0.05806869 -0.25054172
v 0.01868229 -0.05806869 -0.22754171
v 0.02604514 -0.05516023 -0.25054172
v 0.03071738 -0.05270145 -0.25054172
v 0.03296933 -0.05132274 -0.22754171
v 0.03728380 -0.04827958 -0.25054172
v 0.04131897 -0.04487475 -0.22754171
v 0.04228052 -0.04396996 -0.25054172
v 0.04414377 -0.04209902 -0.22754171
v 0.04592431 -0.04014919 -0.25054172
v 0.04843277 -0.03708458 -0.25054172
v 0.05145813 -0.03275761 -0.22754171
v 0.05409799 -0.02818524 -0.25054172
v 0.05633258 -0.02340172 -0.22754171
v 0.05682587 -0.02217702 -0.25054172
v 0.05814516 -0.01844289 -0.25054172
v 0.05952216 -0.01334590 -0.22754171
v 0.06004395 -0.01075749 -0.25054172
v 0.06045325 -0.00814893 -0.22754171
v 0.06074927 -0.00552510 -0.25054172
v 0.06093146 -0.00289091 -0.22754171
v 0.06099948 -0.00025131 -0.25054172
v 0.06066975 0.00633894 -0.22754171
v 0.06033858 0.00895857 -0.25054172
v 0.05989436 0.01156141 -0.22754171
v 0.05867027 0.01669727 -0.25054172
v 0.05789271 0.01922066 -0.22754171
v 0.05746315 0.02046915 -0.25054172
v 0.02674687 0.04172694 -0.25104171
v 0.04229186 0.04326255 -0.25104171
v 0.02694328 0.04325708 -0.25104171
v 0.05264201 0.02981726 -0.25104171
v 0.03111189 0.05188738 -0.25104171
v -0.02937984 -0.05288738 -0.25104171
v -0.01250588 -0.05919335 -0.25104171
v -0.02399009 -0.04496210 -0.25104171
v -0.00050972 -0.04599718 -0.25104171
v -0.01503125 -0.04347484 -0.25104171
v -0.00929697 -0.05142580 -0.25104171
v 0.03969050 -0.03270594 -0.25104171
v 0.03408816 -0.03090278 -0.25104171
v 0.03832567 -0.03604728 -0.25104171
v 0.05190721 -0.01688838 -0.25104171
v 0.04710048 -0.01666486 -0.25104171
v 0.04810553 -0.01974483 -0.25104171
v 0.05017229 -0.01462150 -0.25104171
v 0.05184793 -0.00169831 -0.25104171
v -0.01042928 -0.05216413 -0.25104171
v 0.04804231 0.01965986 -0.25104171
v 0.04815673 0.02119417 -0.25104171
v 0.04217083 0.01837446 -0.25104171
v 0.01257991 -0.05054594 -0.25095385
v 0.01727483 -0.04263309 -0.25104171
v 0.00854965 -0.04519849 -0.25104171
v -0.01207152 -0.05621228 -0.25104171
v -0.00992078 -0.05891351 -0.25104171
v 0.04444094 -0.02700005 -0.25104171
v 0.05636009 -0.02199524 -0.25104171
v 0.04803579 -0.03678061 -0.25104171
v 0.04264056 -0.03811267 -0.25104171
v -0.00043663 -0.05208604 -0.25095385
v 0.04193396 -0.04360955 -0.25104171
v 0.04523040 -0.00837920 -0.25104171
v 0.04331560 -0.01397571 -0.25054172
v 0.04496161 0.00971873 -0.25104171
v 0.05403410 0.02399348 -0.25104171
v 0.05518442 0.02224702 -0.25074172
v 0.05840613 -0.01577890 -0.25104171
v 0.05548509 -0.01744375 -0.25074172
v 0.04599493 0.00068311 -0.25104171
v 0.05205606 0.02440714 -0.25104171
v 0.04417671 -0.01602042 -0.25054172
v 0.03494585 0.02991300 -0.25104171
v 0.05984400 0.00888513 -0.25104171
v 0.05758555 0.01497178 -0.25074172
v 0.06025132 -0.00547981 -0.25104171
v 0.02496309 0.03863734 -0.25104171
v 0.00241661 -0.05945091 -0.25074172
v 0.00180775 -0.06047299 -0.25104171
v 0.02853426 -0.05221155 -0.25074172
v 0.02100420 -0.05673688 -0.25104171
v 0.03593317 -0.04867296 -0.25104171
v 0.04473876 -0.00828813 -0.25054172
v 0.04339450 -0.01501956 -0.24539909
v 0.04475176 -0.00821766 -0.24564171
v 0.04540580 0.00292628 -0.25054172
v 0.04545889 -0.00193368 -0.24564171
v 0.04466248 0.00868982 -0.24564171
v 0.04330478 0.01396230 -0.25054172
v 0.04184824 0.01785987 -0.24564171
v 0.04076193 0.02021670 -0.25054172
v 0.03732156 0.02602597 -0.25054172
v 0.03654823 0.02710124 -0.24564171
v 0.03162417 0.03271333 -0.24564171
v 0.02894713 0.03510433 -0.25054172
v 0.02471277 0.03820378 -0.25054172
v 0.02471277 0.03820378 -0.24564171
v 0.03121351 0.04096299 -0.24217762
v 0.02699850 0.04247195 -0.24285497
v 0.02620336 0.04433547 -0.24217762
v 0.04842009 -0.01754265 -0.24217762
v 0.04776744 -0.01911283 -0.24220690
v 0.04738940 -0.01759109 -0.24272667
v 0.03491567 0.03785692 -0.24217762
v 0.03988300 0.03258215 -0.24217762
v 0.04526334 0.02456583 -0.24217762
v 0.04736669 0.02021501 -0.24217762
v 0.05003489 0.01219671 -0.24217762
v 0.05143209 0.00264385 -0.24217762
v 0.05102179 -0.00700192 -0.24217762
v 0.05014085 -0.01175351 -0.24217762
v 0.04489938 -0.02522491 -0.23590581
v 0.04918984 -0.01525155 -0.23590581
v 0.05129412 -0.00460036 -0.23590581
v 0.05149950 0.00022784 -0.23590581
v 0.05076892 0.00864679 -0.23590581
v 0.04905296 0.01568620 -0.23590581
v 0.04736669 0.02021501 -0.23590581
v 0.04342313 0.02768902 -0.23590581
v 0.03910746 0.03350905 -0.23590581
v 0.03491567 0.03785692 -0.23590581
v 0.02825464 0.04305723 -0.23590581
v 0.02620336 0.04433547 -0.23590581
v -0.02529396 -0.04486051 -0.23590581
v -0.01874785 -0.04796632 -0.23590581
v -0.01416928 -0.04951244 -0.23590581
v -0.00708041 -0.05101096 -0.23590581
v -0.00105991 -0.05148909 -0.23590581
v 0.00377098 -0.05136175 -0.23590581
v 0.01329091 -0.04975542 -0.23590581
v 0.01902435 -0.04785733 -0.23590581
v 0.02342640 -0.04586342 -0.23590581
v 0.03157473 -0.04068521 -0.23590581
v 0.03612061 -0.03670901 -0.23590581
v 0.04233730 -0.02932240 -0.23590581
v 0.04145008 -0.03056372 -0.25054172
v 0.04570654 -0.02373104 -0.25054172
v 0.04764297 -0.01955497 -0.25054172
v -0.02072906 -0.04050378 -0.23244171
v -0.02328253 -0.04461736 -0.23522846
v 0.02699845 0.04247156 -0.23522826
v -0.01251849 -0.04374400 -0.23244171
v -0.00519624 -0.04520231 -0.23244171
v 0.00545702 -0.04517157 -0.23244171
v 0.01277073 -0.04367102 -0.23244171
v 0.02257545 -0.03950442 -0.23244171
v 0.02873192 -0.03528069 -0.23244171
v 0.03678659 -0.02677679 -0.23244171
v 0.04067032 -0.02040037 -0.23244171
v 0.04429920 -0.01038417 -0.23244171
v 0.04540100 -0.00299986 -0.23244171
v 0.04537268 0.00340146 -0.23244171
v 0.04485409 0.00763940 -0.23244171
v 0.04300092 0.01487181 -0.23244171
v 0.04048822 0.02075943 -0.23244171
v 0.03384704 0.03040769 -0.23244171
v 0.03084782 0.03344640 -0.23244171
v -0.01553426 -0.04276607 -0.22754171
v -0.00787563 -0.04481322 -0.22754171
v 0.00115588 -0.04548531 -0.22754171
v 0.01014161 -0.04435536 -0.22754171
v 0.02656759 -0.03693796 -0.22754171
v 0.03411783 -0.03010355 -0.22754171
v 0.03940416 -0.02275000 -0.22754171
v 0.04312935 -0.01449513 -0.22754171
v 0.04499063 -0.00678922 -0.22754171
v 0.04544404 0.00225592 -0.22754171
v 0.04348367 0.01339479 -0.22754171
v 0.03487157 0.02922711 -0.22754171
v 0.02839220 0.03555465 -0.22754171
v -0.02737390 -0.04941298 -0.24627149
v -0.02787521 -0.04928129 -0.24412411
v -0.02981596 -0.05264276 -0.25054172
v -0.02981596 -0.05264276 -0.22754171
v -0.02607342 -0.04616049 -0.23752472
v -0.02658002 -0.04803794 -0.23418818
v -0.02666665 -0.04718799 -0.23667340
v -0.02531699 -0.04485031 -0.22754171
v -0.02652949 -0.04695042 -0.23067977
v -0.02760449 -0.04881237 -0.23067977
v -0.02531699 -0.04485031 -0.25054172
v -0.02747837 -0.04859393 -0.24752806
v -0.02821092 -0.04986275 -0.23803391
v -0.02813969 -0.04973936 -0.23268233
v -0.02641257 -0.04674791 -0.23424743
v -0.02791072 -0.04934278 -0.24088630
v -0.02610285 -0.04621146 -0.24649264
v -0.02636879 -0.04767208 -0.24397928
v -0.02633826 -0.04661921 -0.24107294
v 0.02912598 0.04944767 -0.23280120
v 0.03068199 0.05214276 -0.22754171
v 0.02880421 0.04889035 -0.23089124
v 0.02618301 0.04435031 -0.22754171
v 0.02690478 0.04560045 -0.23377904
v 0.02679583 0.04541174 -0.23177539
v 0.02618301 0.04435031 -0.25054172
v 0.02799798 0.04749392 -0.24793820
v 0.02679583 0.04541174 -0.24630804
v 0.03068199 0.05214276 -0.25054172
v 0.02748885 0.04661208 -0.23031217
v 0.02907020 0.04935106 -0.24630804
v 0.02872515 0.04775341 -0.23706836
v 0.02773887 0.04704514 -0.23491010
v 0.02920825 0.04859018 -0.23778768
v 0.02671141 0.04526552 -0.23993097
v 0.02679583 0.04541174 -0.24477538
v 0.02786805 0.04726887 -0.24314523
v 0.02704090 0.04583621 -0.23715055
v 0.02880421 0.04889035 -0.23419219
v 0.02860644 0.04854780 -0.24355526
v 0.02901915 0.04926264 -0.24047044
v -0.01746154 -0.05342711 -0.23254171
v -0.01821245 -0.05274488 -0.23417760
v -0.01755793 -0.05161123 -0.23317315
v -0.01908233 -0.05425157 -0.23317315
v -0.01863584 -0.05347823 -0.23101731
v -0.01800442 -0.05238457 -0.23101731
v -0.02581074 -0.04670551 -0.23243380
v -0.01746154 -0.05342711 -0.24554172
v -0.01821245 -0.05274488 -0.24717760
v -0.01750219 -0.05151468 -0.24575709
v -0.01890349 -0.05394181 -0.24670844
v -0.01908233 -0.05425157 -0.24491028
v -0.01821245 -0.05274488 -0.24390583
v -0.01755793 -0.05161123 -0.24491028
v 0.03518816 0.04594767 -0.23228224
v 0.03477205 0.04522697 -0.23437090
v 0.03418933 0.04421765 -0.23491010
v 0.03290610 0.04199504 -0.23354945
v 0.03312400 0.04237244 -0.23089124
v 0.03443936 0.04465071 -0.23031217
v 0.03513237 0.04585106 -0.24477538
v 0.03508428 0.04576776 -0.24654944
v 0.03431622 0.04443745 -0.24785423
v 0.03312400 0.04237244 -0.24719219
v 0.03285801 0.04191174 -0.24477538
v 0.03406016 0.04399392 -0.24314523
v 0.03574634 -0.03015552 -0.25054172
v 0.03788824 -0.03179200 -0.25054172
v 0.03391243 0.04373805 -0.24164523
v 0.03258738 0.04144299 -0.24284315
v 0.03745929 0.04188140 -0.24164172
v 0.03550996 0.03850506 -0.24356842
v 0.03204519 0.04050390 -0.24554172
v 0.03550929 0.03850390 -0.24554172
v 0.03270688 0.04164997 -0.24846934
v 0.03643689 0.04011055 -0.24886268
v 0.03407795 0.04402474 -0.24943820
v 0.03745929 0.04188140 -0.24944171
v 0.03874761 0.04411282 -0.24846934
v 0.03501759 0.04565224 -0.24886268
v 0.03940929 0.04525889 -0.24554172
v 0.03593817 0.04724673 -0.24587245
v 0.03528351 0.04611282 -0.24261409
v 0.03886710 0.04431980 -0.24284315
v 0.03391243 0.04373805 -0.22864524
v 0.03258738 0.04144299 -0.22984315
v 0.03745929 0.04188140 -0.22864172
v 0.03550996 0.03850506 -0.23056842
v 0.03210811 0.04061288 -0.23155899
v 0.03229281 0.04093279 -0.23444372
v 0.03617098 0.03964997 -0.23546934
v 0.03326812 0.04262207 -0.23616049
v 0.03745929 0.04188140 -0.23644172
v 0.03487309 0.04540196 -0.23602413
v 0.03593817 0.04724673 -0.23287246
v 0.03929790 0.04506597 -0.23384096
v 0.03528351 0.04611282 -0.22961409
v 0.03886710 0.04431980 -0.22984315
v 0.05518442 0.02224702 -0.24604172
v 0.05688961 0.01743050 -0.24604172
v 0.05945333 0.00235628 -0.24604172
v 0.05938902 0.00363239 -0.25074172
v 0.05936345 -0.00402881 -0.25074172
v 0.05879892 -0.00910698 -0.24604172
v 0.05835367 -0.01162320 -0.25074172
v 0.05748431 -0.01535591 -0.24604172
v 0.05497801 -0.01512369 -0.24604172
v 0.05575587 -0.01734414 -0.24604172
v 0.05608193 -0.01018907 -0.24604172
v 0.05693333 -0.00275611 -0.24604172
v 0.05680388 0.00472433 -0.24604172
v 0.05511181 0.01454953 -0.24604172
v 0.05267282 0.02198729 -0.24604172
v 0.05322655 0.02400979 -0.24604172
v 0.03616659 -0.04724646 -0.25074172
v 0.04204076 -0.04210492 -0.25074172
v 0.04204076 -0.04210492 -0.24704172
v 0.03580586 -0.04751255 -0.24692975
v 0.02968522 -0.05155860 -0.24692975
v 0.02226710 -0.05517632 -0.24704172
v 0.01400283 -0.05782881 -0.25074172
v 0.01698833 -0.05671753 -0.24633461
v 0.00992660 -0.05866611 -0.24704172
v 0.00262986 -0.05944185 -0.24704172
v -0.00561885 -0.05920891 -0.24681920
v -0.00946309 -0.05873600 -0.24704172
v 0.01243752 -0.05571251 -0.24609783
v 0.00260484 -0.05887629 -0.24614075
v 0.02446437 -0.05194118 -0.24604172
v 0.00085137 -0.05729593 -0.24604800
v -0.00923239 -0.05596524 -0.24634030
v 0.05748431 -0.01535591 -0.23204172
v 0.05936345 -0.00402881 -0.23204172
v 0.05945333 0.00235628 -0.22734171
v 0.05938902 0.00363239 -0.23204172
v 0.05885841 0.00871422 -0.22734171
v 0.05758555 0.01497178 -0.23204172
v 0.05518442 0.02224702 -0.23204172
v 0.05272510 0.02171110 -0.23204172
v 0.05322655 0.02400979 -0.23204172
v 0.05442217 0.01694779 -0.23204172
v 0.05617307 0.00967399 -0.23204172
v 0.05695622 0.00223354 -0.23204172
v 0.05647415 -0.00772464 -0.23204172
v 0.05495978 -0.01540419 -0.23204172
v 0.05575587 -0.01734414 -0.23204172
v -0.00954421 -0.05871631 -0.23204172
v 0.00760448 -0.05901205 -0.23204172
v 0.00501535 -0.05928825 -0.22734171
v 0.01273413 -0.05812135 -0.22734171
v 0.01400283 -0.05782881 -0.23204172
v 0.01651950 -0.05716079 -0.22734171
v 0.02266239 -0.05501514 -0.23204172
v 0.03298929 -0.04951724 -0.22734171
v 0.03406487 -0.04878355 -0.23204172
v 0.03819906 -0.04561888 -0.22734171
v 0.04204076 -0.04210492 -0.23204172
v 0.04058651 -0.04005051 -0.23204172
v 0.04289840 -0.03961393 -0.23204172
v 0.02859838 -0.04930652 -0.23204172
v 0.02177908 -0.05267515 -0.23204172
v 0.01334203 -0.05541652 -0.23204172
v 0.00331628 -0.05690345 -0.23204172
v -0.00957495 -0.05626888 -0.23204172
v -0.01142105 -0.05726339 -0.23204172
v -0.00070844 -0.05208305 -0.22712958
v 0.02287325 -0.04679701 -0.22712958
v 0.05205995 -0.00170525 -0.22712958
v 0.05146408 0.00803705 -0.25095385
v 0.03403765 -0.03942822 -0.25095385
v 0.04038923 -0.03983048 -0.24634132
v 0.03496794 -0.04498890 -0.24614075
v 0.02714898 -0.04445311 -0.25095385
v 0.02065781 -0.04781632 -0.25095385
v 0.01837082 -0.05364894 -0.24633461
v 0.00764623 -0.05152360 -0.25095385
v 0.04274289 -0.03928744 -0.24661854
v -0.01148715 -0.05690785 -0.24661854
v 0.03593429 0.03924001 -0.22900541
v 0.03563048 0.03871379 -0.23539603
v 0.03613630 0.03958992 -0.23629738
v 0.03894132 0.04444835 -0.23613517
v 0.04221714 0.04334378 -0.23643936
v 0.05165936 0.03148905 -0.23644172
v 0.04078503 0.04418475 -0.23539603
v 0.05209781 0.03088738 -0.22866462
v 0.03593429 0.03924001 -0.24200542
v 0.03613630 0.03958992 -0.24929738
v 0.03563048 0.03871379 -0.24839604
v 0.03894132 0.04444835 -0.24913517
v 0.04142837 0.04178378 -0.24164172
v 0.05165936 0.03148905 -0.24944171
v 0.04071467 0.04444733 -0.24319667
v 0.04078503 0.04418475 -0.24839604
v 0.04164076 -0.04170431 -0.24614075
v 0.02705674 -0.05246631 -0.24619499
v 0.04769409 -0.01817512 -0.25054172
v 0.05302982 0.03014694 -0.22831260
v -0.02260990 -0.04816150 -0.23927826
v -0.02292790 -0.04871229 -0.24051738
v -0.02380886 -0.05023816 -0.24099883
v -0.02458712 -0.05158614 -0.23939550
v -0.02446393 -0.05137277 -0.23802465
v -0.02345524 -0.04962566 -0.23706363
v 0.03579953 0.04500661 -0.23998420
v 0.03467888 0.04306559 -0.24110982
v 0.02800690 0.04650938 -0.24101508
v 0.03392290 0.04175619 -0.23998420
v 0.02731780 0.04531582 -0.23916382
v 0.03433622 0.04247207 -0.23722306
v 0.03579953 0.04500661 -0.23809923
v 0.01529968 0.04771790 -0.15385482
v 0.01687855 0.04771790 -0.15964302
v 0.01697424 0.04771790 -0.15952657
v 0.01693750 0.04771790 -0.15770195
v 0.01680663 0.04771790 -0.15743323
v 0.01678745 0.04771790 -0.15716498
v 0.01678745 0.04771790 -0.16010031
v 0.01679182 0.04771790 -0.15993935
v 0.01529968 0.04771790 -0.16341045
v 0.01681964 0.04771790 -0.15977938
v 0.01719031 0.04771790 -0.15785655
v 0.01709913 0.04771790 -0.15944332
v 0.01724297 0.04771790 -0.15939569
v 0.01735028 0.04771790 -0.15788439
v 0.01751124 0.04771790 -0.15937653
v 0.01751124 0.04771790 -0.15788876
v 0.02128577 0.04771790 -0.15937653
v 0.01678745 0.04771790 -0.16341045
v 0.01530462 0.04771790 -0.16357999
v 0.01676690 0.04771790 -0.16369332
v 0.01533513 0.04771790 -0.16375573
v 0.01671439 0.04771790 -0.16386096
v 0.01539967 0.04771790 -0.16391578
v 0.01662406 0.04771790 -0.16401316
v 0.01564533 0.04771790 -0.16418034
v 0.01644181 0.04771790 -0.15308493
v 0.01546307 0.04771790 -0.15325211
v 0.01668746 0.04771790 -0.15334950
v 0.01537275 0.04771790 -0.15340431
v 0.01675201 0.04771790 -0.15350954
v 0.01532023 0.04771790 -0.15357195
v 0.01678251 0.04771790 -0.15368530
v 0.01678745 0.04771790 -0.15385482
v 0.01650223 0.04771790 -0.16413702
v 0.01597956 0.04771790 -0.16429402
v 0.01558491 0.04771790 -0.15312827
v 0.01610757 0.04771790 -0.15297125
v 0.02128577 0.04771790 -0.15788876
v 0.02145529 0.04771790 -0.15937158
v 0.02156863 0.04771790 -0.15790930
v 0.02163104 0.04771790 -0.15934108
v 0.02173628 0.04771790 -0.15796182
v 0.02179109 0.04771790 -0.15927653
v 0.02188847 0.04771790 -0.15805215
v 0.02205565 0.04771790 -0.15903087
v 0.02201232 0.04771790 -0.15817398
v 0.02216933 0.04771790 -0.15869665
v 0.01749274 0.04771790 -0.14110242
v 0.01614780 0.04771790 -0.14035341
v 0.01728791 0.04771790 -0.14130925
v 0.01835816 0.04771790 -0.14895019
v 0.01806612 0.04771790 -0.14886585
v 0.01782882 0.04771790 -0.15035202
v 0.01746521 0.04771790 -0.15022825
v 0.01779457 0.04771790 -0.14873838
v 0.01997904 0.04771790 -0.14852537
v 0.02132398 0.04771790 -0.14927438
v 0.02018386 0.04771790 -0.14831854
v 0.01911362 0.04771790 -0.14067760
v 0.01940566 0.04771790 -0.14076194
v 0.01964295 0.04771790 -0.13927577
v 0.02000657 0.04771790 -0.13939954
v 0.01967721 0.04771790 -0.14088941
v 0.01593639 0.04771790 -0.14063269
v 0.01711824 0.04771790 -0.14154474
v 0.01573799 0.04771790 -0.14096496
v 0.01698211 0.04771790 -0.14181389
v 0.01557814 0.04771790 -0.14131810
v 0.01545653 0.04771790 -0.14169051
v 0.01688077 0.04771790 -0.14212525
v 0.01537191 0.04771790 -0.14208250
v 0.01682115 0.04771790 -0.14245428
v 0.01532185 0.04771790 -0.14249808
v 0.01679206 0.04771790 -0.14285558
v 0.01530048 0.04771790 -0.14303982
v 0.01703278 0.04771790 -0.14792661
v 0.01692164 0.04771790 -0.14764772
v 0.01558581 0.04771790 -0.14832932
v 0.01546487 0.04771790 -0.14796776
v 0.01684510 0.04771790 -0.14733365
v 0.01537799 0.04771790 -0.14758103
v 0.01680173 0.04771790 -0.14696838
v 0.01711557 0.04771790 -0.15006307
v 0.01678575 0.04771790 -0.14985843
v 0.01754945 0.04771790 -0.14857246
v 0.01648081 0.04771790 -0.14961670
v 0.01733610 0.04771790 -0.14837326
v 0.01620546 0.04771790 -0.14934100
v 0.01717967 0.04771790 -0.14817747
v 0.01596427 0.04771790 -0.14903559
v 0.01575662 0.04771790 -0.14869802
v 0.02153539 0.04771790 -0.14899510
v 0.02035354 0.04771790 -0.14808305
v 0.02173379 0.04771790 -0.14866284
v 0.02048967 0.04771790 -0.14781390
v 0.02189364 0.04771790 -0.14830968
v 0.01825632 0.04771790 -0.14070134
v 0.01853214 0.04771790 -0.14065041
v 0.01817106 0.04771790 -0.13919924
v 0.01857180 0.04771790 -0.13915555
v 0.01881813 0.04771790 -0.14064112
v 0.01889998 0.04771790 -0.13915555
v 0.01927179 0.04771790 -0.13919446
v 0.01641605 0.04771790 -0.14007033
v 0.01671722 0.04771790 -0.13981883
v 0.01772741 0.04771790 -0.14092946
v 0.01704765 0.04771790 -0.13960268
v 0.01798495 0.04771790 -0.14079468
v 0.01740308 0.04771790 -0.13942541
v 0.01777897 0.04771790 -0.13929006
v 0.01529968 0.04771790 -0.14329077
v 0.01678745 0.04771790 -0.14329077
v 0.01529968 0.04771790 -0.14633702
v 0.01678745 0.04771790 -0.14633702
v 0.01530221 0.04771790 -0.14670938
v 0.01532448 0.04771790 -0.14716186
v 0.01921546 0.04771790 -0.14892645
v 0.01893963 0.04771790 -0.14897738
v 0.01930071 0.04771790 -0.15042855
v 0.01889998 0.04771790 -0.15047224
v 0.01865365 0.04771790 -0.14898667
v 0.01857180 0.04771790 -0.15047224
v 0.01819998 0.04771790 -0.15043333
v 0.02105573 0.04771790 -0.14955746
v 0.02075456 0.04771790 -0.14980896
v 0.01974436 0.04771790 -0.14869833
v 0.02042413 0.04771790 -0.15002511
v 0.01948683 0.04771790 -0.14883310
v 0.02006870 0.04771790 -0.15020238
v 0.01969281 0.04771790 -0.15033773
v 0.02035620 0.04771790 -0.13956472
v 0.02068602 0.04771790 -0.13976936
v 0.01992232 0.04771790 -0.14105533
v 0.02099097 0.04771790 -0.14001109
v 0.02013567 0.04771790 -0.14125453
v 0.02126632 0.04771790 -0.14028679
v 0.02029211 0.04771790 -0.14145032
v 0.02150751 0.04771790 -0.14059220
v 0.02043900 0.04771790 -0.14170116
v 0.02171515 0.04771790 -0.14092977
v 0.02188597 0.04771790 -0.14129847
v 0.02055014 0.04771790 -0.14198005
v 0.02200691 0.04771790 -0.14166003
v 0.02062668 0.04771790 -0.14229414
v 0.02209378 0.04771790 -0.14204676
v 0.02067005 0.04771790 -0.14265941
v 0.02201525 0.04771790 -0.14793728
v 0.02059101 0.04771790 -0.14750254
v 0.02209986 0.04771790 -0.14754529
v 0.02065062 0.04771790 -0.14717351
v 0.02214993 0.04771790 -0.14712971
v 0.02067972 0.04771790 -0.14677221
v 0.02217130 0.04771790 -0.14658797
v 0.02217210 0.04771790 -0.14329077
v 0.02216957 0.04771790 -0.14291841
v 0.02068432 0.04771790 -0.14329077
v 0.02214729 0.04771790 -0.14246593
v 0.02217210 0.04771790 -0.14633702
v 0.02068432 0.04771790 -0.14633702
v 0.01629243 0.04771790 -0.13634877
v 0.01716337 0.04771790 -0.13512835
v 0.01702870 0.04771790 -0.13505100
v 0.01878432 0.04771790 -0.13630834
v 0.01785336 0.04771790 -0.13493803
v 0.01775596 0.04771790 -0.13504332
v 0.01597863 0.04771790 -0.13610877
v 0.01692762 0.04771790 -0.13494630
v 0.01986006 0.04771790 -0.13512835
v 0.01972539 0.04771790 -0.13505100
v 0.01913833 0.04771790 -0.13643292
v 0.01894050 0.04771790 -0.13634272
v 0.02054416 0.04771790 -0.12704052
v 0.02145672 0.04771790 -0.12584487
v 0.02044308 0.04771790 -0.12693582
v 0.01701913 0.04771790 -0.12694350
v 0.01585139 0.04771790 -0.12600809
v 0.01692172 0.04771790 -0.12704879
v 0.01576890 0.04771790 -0.13588026
v 0.01561055 0.04771790 -0.13564657
v 0.01685284 0.04771790 -0.13480517
v 0.01731332 0.04771790 -0.13516696
v 0.01685772 0.04771790 -0.13659114
v 0.01656351 0.04771790 -0.13649006
v 0.01954953 0.04771790 -0.13480517
v 0.01792214 0.04771790 -0.13480544
v 0.02031754 0.04771790 -0.13512458
v 0.02115770 0.04771790 -0.13636202
v 0.02045265 0.04771790 -0.13504332
v 0.02055006 0.04771790 -0.13493803
v 0.02161850 0.04771790 -0.13598083
v 0.02140230 0.04771790 -0.13618860
v 0.02008423 0.04771790 -0.12532753
v 0.02015846 0.04771790 -0.12681986
v 0.02039625 0.04771790 -0.12535089
v 0.02070386 0.04771790 -0.12542135
v 0.02030841 0.04771790 -0.12685847
v 0.02099149 0.04771790 -0.12553474
v 0.02125523 0.04771790 -0.12568751
v 0.01685295 0.04771790 -0.12718137
v 0.01553286 0.04771790 -0.12648736
v 0.01567261 0.04771790 -0.12624016
v 0.01548620 0.04771790 -0.13539463
v 0.01539593 0.04771790 -0.13512930
v 0.01680972 0.04771790 -0.13463719
v 0.01847418 0.04771790 -0.13636491
v 0.01762085 0.04771790 -0.13512458
v 0.02017303 0.04771790 -0.13516499
v 0.02001001 0.04771790 -0.13516696
v 0.02003044 0.04771790 -0.13665859
v 0.01972520 0.04771790 -0.13662829
v 0.01942074 0.04771790 -0.13655132
v 0.02089346 0.04771790 -0.13649637
v 0.02061808 0.04771790 -0.13659009
v 0.02031802 0.04771790 -0.13664620
v 0.02167080 0.04771790 -0.12606673
v 0.02183503 0.04771790 -0.12629640
v 0.02061894 0.04771790 -0.12718165
v 0.01606674 0.04771790 -0.12580049
v 0.01626891 0.04771790 -0.12565286
v 0.01715424 0.04771790 -0.12686224
v 0.01678825 0.04771790 -0.12759303
v 0.01680825 0.04771790 -0.12735881
v 0.01531716 0.04771790 -0.12729618
v 0.01536677 0.04771790 -0.12697662
v 0.01543946 0.04771790 -0.12671591
v 0.01747634 0.04771790 -0.13516499
v 0.01746274 0.04771790 -0.13665794
v 0.01716992 0.04771790 -0.13664795
v 0.01826817 0.04771790 -0.13646472
v 0.01799475 0.04771790 -0.13656928
v 0.01771197 0.04771790 -0.13663401
v 0.02061883 0.04771790 -0.13480544
v 0.02193777 0.04771790 -0.13550185
v 0.02179765 0.04771790 -0.13574895
v 0.01533809 0.04771790 -0.13485631
v 0.01530876 0.04771790 -0.13458990
v 0.01678718 0.04771790 -0.13435827
v 0.01529785 0.04771790 -0.13426565
v 0.01678527 0.04771790 -0.13412704
v 0.01529750 0.04771790 -0.13412704
v 0.01678527 0.04771790 -0.12785977
v 0.01529750 0.04771790 -0.12785977
v 0.01529842 0.04771790 -0.12766613
v 0.01948196 0.04771790 -0.12785977
v 0.01796684 0.04771790 -0.13462800
v 0.01948196 0.04771790 -0.13412704
v 0.01948387 0.04771790 -0.13435827
v 0.01950641 0.04771790 -0.13463719
v 0.02196558 0.04771790 -0.12654538
v 0.02206172 0.04771790 -0.12680784
v 0.02066206 0.04771790 -0.12734963
v 0.01784747 0.04771790 -0.12704052
v 0.01738754 0.04771790 -0.12532753
v 0.01746177 0.04771790 -0.12681986
v 0.01708636 0.04771790 -0.12534930
v 0.01729875 0.04771790 -0.12682183
v 0.01680467 0.04771790 -0.12541032
v 0.01653031 0.04771790 -0.12551138
v 0.02068353 0.04771790 -0.13439380
v 0.02066353 0.04771790 -0.13462800
v 0.02215693 0.04771790 -0.13466614
v 0.02210976 0.04771790 -0.13498792
v 0.02204043 0.04771790 -0.13524687
v 0.01985093 0.04771790 -0.12686224
v 0.01971582 0.04771790 -0.12694350
v 0.01792224 0.04771790 -0.12718165
v 0.01954964 0.04771790 -0.12718137
v 0.01796537 0.04771790 -0.12734963
v 0.01950494 0.04771790 -0.12735881
v 0.01798791 0.04771790 -0.12762855
v 0.01798982 0.04771790 -0.12785977
v 0.02212536 0.04771790 -0.12708019
v 0.02215919 0.04771790 -0.12734666
v 0.02068460 0.04771790 -0.12762855
v 0.02217358 0.04771790 -0.12768407
v 0.02068651 0.04771790 -0.12785977
v 0.02217428 0.04771790 -0.12785977
v 0.02068651 0.04771790 -0.13412704
v 0.02217428 0.04771790 -0.13412704
v 0.02217372 0.04771790 -0.13428999
v 0.01948494 0.04771790 -0.12759303
v 0.01798684 0.04771790 -0.13439380
v 0.01798982 0.04771790 -0.13412704
v 0.02057974 0.04771790 -0.11429908
v 0.02064812 0.04771790 -0.11458460
v 0.02207501 0.04771790 -0.11413245
v 0.02213891 0.04771790 -0.11450268
v 0.02067963 0.04771790 -0.11490386
v 0.02216788 0.04771790 -0.11488708
v 0.02068432 0.04771790 -0.11522232
v 0.02217210 0.04771790 -0.11522232
v 0.02068432 0.04771790 -0.12195248
v 0.02082640 0.04771790 -0.11219838
v 0.02012873 0.04771790 -0.11355861
v 0.02112302 0.04771790 -0.11245014
v 0.02138683 0.04771790 -0.11273301
v 0.02031775 0.04771790 -0.11378098
v 0.02161455 0.04771790 -0.11304200
v 0.02046991 0.04771790 -0.11403101
v 0.02180676 0.04771790 -0.11337794
v 0.02196069 0.04771790 -0.11373936
v 0.01939499 0.04771790 -0.11310663
v 0.01966514 0.04771790 -0.11321963
v 0.02015131 0.04771790 -0.11180439
v 0.02049958 0.04771790 -0.11198105
v 0.01990988 0.04771790 -0.11337087
v 0.01618601 0.04771790 -0.11151057
v 0.01846034 0.04771790 -0.11299834
v 0.01846034 0.04771790 -0.11151057
v 0.01858267 0.04771790 -0.11151081
v 0.01881156 0.04771790 -0.11300462
v 0.01903857 0.04771790 -0.11152916
v 0.01912237 0.04771790 -0.11303869
v 0.01941600 0.04771790 -0.11157992
v 0.01978802 0.04771790 -0.11167064
v 0.02217210 0.04771790 -0.12195248
v 0.02068927 0.04771790 -0.12212200
v 0.02215154 0.04771790 -0.12223535
v 0.02071977 0.04771790 -0.12229776
v 0.02209903 0.04771790 -0.12240299
v 0.02078432 0.04771790 -0.12245780
v 0.02200871 0.04771790 -0.12255518
v 0.02102997 0.04771790 -0.12272236
v 0.02188687 0.04771790 -0.12267904
v 0.02136420 0.04771790 -0.12283605
v 0.01618601 0.04771790 -0.11299834
v 0.01601649 0.04771790 -0.11151551
v 0.01590314 0.04771790 -0.11297779
v 0.01584074 0.04771790 -0.11154602
v 0.01573550 0.04771790 -0.11292528
v 0.01568069 0.04771790 -0.11161056
v 0.01558331 0.04771790 -0.11283495
v 0.01541612 0.04771790 -0.11185621
v 0.01545945 0.04771790 -0.11271311
v 0.01530245 0.04771790 -0.11219045
v 0.01678976 0.04771790 -0.10327175
v 0.01532185 0.04771790 -0.10373887
v 0.01679779 0.04771790 -0.10355061
v 0.01538509 0.04771790 -0.10409926
v 0.01685295 0.04771790 -0.10383495
v 0.01549001 0.04771790 -0.10445498
v 0.01695342 0.04771790 -0.10410634
v 0.01563640 0.04771790 -0.10480057
v 0.01582309 0.04771790 -0.10513038
v 0.01709584 0.04771790 -0.10435810
v 0.01604844 0.04771790 -0.10544024
v 0.01728565 0.04771790 -0.10459680
v 0.01631159 0.04771790 -0.10572915
v 0.01529968 0.04771790 -0.10336128
v 0.01532342 0.04771790 -0.10297056
v 0.01682539 0.04771790 -0.10299970
v 0.01539431 0.04771790 -0.10258499
v 0.01690138 0.04771790 -0.10274002
v 0.01551056 0.04771790 -0.10221173
v 0.01701870 0.04771790 -0.10248914
v 0.01661446 0.04771790 -0.10600050
v 0.01751717 0.04771790 -0.10481635
v 0.01696471 0.04771790 -0.10626392
v 0.01784004 0.04771790 -0.10506053
v 0.01739065 0.04771790 -0.10654778
v 0.01820095 0.04771790 -0.10530003
v 0.02090436 0.04771790 -0.10882962
v 0.01567033 0.04771790 -0.10185505
v 0.01587355 0.04771790 -0.10151612
v 0.01717808 0.04771790 -0.10225171
v 0.01612448 0.04771790 -0.10119226
v 0.01738686 0.04771790 -0.10202294
v 0.01639392 0.04771790 -0.10091432
v 0.01766129 0.04771790 -0.10179126
v 0.01671134 0.04771790 -0.10064492
v 0.01804086 0.04771790 -0.10152690
v 0.01708236 0.04771790 -0.10037776
v 0.01820095 0.04771790 -0.10142252
v 0.01739065 0.04771790 -0.10017477
v 0.02171466 0.04771790 -0.09914068
v 0.02171466 0.04771790 -0.10758187
v 0.02104923 0.04771790 -0.10891780
v 0.02194070 0.04771790 -0.10775317
v 0.02121324 0.04771790 -0.10898793
v 0.02205269 0.04771790 -0.10788850
v 0.02138262 0.04771790 -0.10902097
v 0.02213114 0.04771790 -0.10804715
v 0.02173829 0.04771790 -0.10895904
v 0.02216865 0.04771790 -0.10821678
v 0.02201567 0.04771790 -0.10874064
v 0.02090436 0.04771790 -0.09789293
v 0.02185414 0.04771790 -0.09904421
v 0.02115279 0.04771790 -0.09775611
v 0.02198493 0.04771790 -0.09892291
v 0.02132198 0.04771790 -0.09770885
v 0.02208400 0.04771790 -0.09878161
v 0.02149882 0.04771790 -0.09770171
v 0.02217209 0.04771790 -0.09843149
v 0.02166905 0.04771790 -0.09773643
v 0.02208539 0.04771790 -0.09808927
v 0.02045047 0.04771790 -0.09358897
v 0.02159147 0.04771790 -0.09456004
v 0.02054787 0.04771790 -0.09348367
v 0.01962212 0.04771790 -0.09349194
v 0.01865513 0.04771790 -0.09464242
v 0.01972321 0.04771790 -0.09359664
v 0.01985788 0.04771790 -0.09367400
v 0.01915170 0.04771790 -0.09498706
v 0.01888977 0.04771790 -0.09483249
v 0.02136721 0.04771790 -0.09476407
v 0.02111210 0.04771790 -0.09493427
v 0.02031536 0.04771790 -0.09367022
v 0.02061665 0.04771790 -0.09335109
v 0.02193053 0.04771790 -0.09407160
v 0.02177989 0.04771790 -0.09432787
v 0.01845236 0.04771790 -0.09442032
v 0.01830018 0.04771790 -0.09419583
v 0.01954735 0.04771790 -0.09335081
v 0.01749274 0.04771790 -0.08582750
v 0.01614780 0.04771790 -0.08507850
v 0.01728791 0.04771790 -0.08603434
v 0.02017085 0.04771790 -0.09371063
v 0.02000783 0.04771790 -0.09371261
v 0.02003343 0.04771790 -0.09520436
v 0.01973124 0.04771790 -0.09517530
v 0.01943467 0.04771790 -0.09510233
v 0.02083249 0.04771790 -0.09506587
v 0.02053543 0.04771790 -0.09515521
v 0.02022824 0.04771790 -0.09519981
v 0.01816386 0.04771790 -0.09391338
v 0.01807506 0.04771790 -0.09363154
v 0.01950423 0.04771790 -0.09318283
v 0.01801938 0.04771790 -0.09332098
v 0.01948168 0.04771790 -0.09290392
v 0.01799512 0.04771790 -0.09297820
v 0.01947978 0.04771790 -0.09267268
v 0.01799200 0.04771790 -0.09267268
v 0.01947978 0.04771790 -0.08969781
v 0.01911362 0.04771790 -0.08540270
v 0.01940566 0.04771790 -0.08548704
v 0.01964295 0.04771790 -0.08400086
v 0.02000657 0.04771790 -0.08412464
v 0.01967721 0.04771790 -0.08561450
v 0.01593639 0.04771790 -0.08535777
v 0.01711824 0.04771790 -0.08626983
v 0.01573799 0.04771790 -0.08569004
v 0.01698211 0.04771790 -0.08653898
v 0.01557814 0.04771790 -0.08604319
v 0.02043900 0.04771790 -0.08642626
v 0.02055014 0.04771790 -0.08670515
v 0.02188597 0.04771790 -0.08602356
v 0.02200691 0.04771790 -0.08638512
v 0.02062668 0.04771790 -0.08701922
v 0.02209378 0.04771790 -0.08677186
v 0.02067005 0.04771790 -0.08738449
v 0.02035620 0.04771790 -0.08428981
v 0.02068602 0.04771790 -0.08449446
v 0.01992232 0.04771790 -0.08578042
v 0.02099097 0.04771790 -0.08473617
v 0.02013567 0.04771790 -0.08597961
v 0.02126632 0.04771790 -0.08501188
v 0.02029211 0.04771790 -0.08617540
v 0.02150751 0.04771790 -0.08531728
v 0.02171515 0.04771790 -0.08565485
v 0.01545653 0.04771790 -0.08641560
v 0.01688077 0.04771790 -0.08685035
v 0.01537191 0.04771790 -0.08680758
v 0.01682115 0.04771790 -0.08717936
v 0.01532185 0.04771790 -0.08722316
v 0.01679206 0.04771790 -0.08758068
v 0.01530048 0.04771790 -0.08776491
v 0.01825632 0.04771790 -0.08542643
v 0.01853214 0.04771790 -0.08537550
v 0.01817106 0.04771790 -0.08392433
v 0.01857180 0.04771790 -0.08388064
v 0.01881813 0.04771790 -0.08536622
v 0.01889998 0.04771790 -0.08388064
v 0.01927179 0.04771790 -0.08391955
v 0.01641605 0.04771790 -0.08479542
v 0.01671722 0.04771790 -0.08454391
v 0.01772741 0.04771790 -0.08565455
v 0.01704765 0.04771790 -0.08432777
v 0.01798495 0.04771790 -0.08551978
v 0.01740308 0.04771790 -0.08415050
v 0.01777897 0.04771790 -0.08401515
v 0.01529968 0.04771790 -0.08801586
v 0.01678745 0.04771790 -0.08801586
v 0.01529968 0.04771790 -0.09431860
v 0.02217210 0.04771790 -0.08801586
v 0.02068432 0.04771790 -0.09267268
v 0.02217210 0.04771790 -0.09267268
v 0.02068135 0.04771790 -0.09293944
v 0.02215864 0.04771790 -0.09317853
v 0.02066134 0.04771790 -0.09317365
v 0.02211762 0.04771790 -0.09349858
v 0.02204262 0.04771790 -0.09379499
v 0.02214729 0.04771790 -0.08719103
v 0.02216957 0.04771790 -0.08764349
v 0.02068432 0.04771790 -0.08801586
v 0.01799200 0.04771790 -0.08969781
v 0.01947483 0.04771790 -0.08952829
v 0.01801256 0.04771790 -0.08941495
v 0.01944433 0.04771790 -0.08935254
v 0.01806507 0.04771790 -0.08924731
v 0.01937978 0.04771790 -0.08919249
v 0.01815539 0.04771790 -0.08909511
v 0.01913413 0.04771790 -0.08892792
v 0.01827723 0.04771790 -0.08897126
v 0.01879990 0.04771790 -0.08881425
v 0.01678745 0.04771790 -0.09431860
v 0.01530462 0.04771790 -0.09448812
v 0.01676690 0.04771790 -0.09460147
v 0.01533513 0.04771790 -0.09466387
v 0.01671439 0.04771790 -0.09476911
v 0.01539967 0.04771790 -0.09482392
v 0.01662406 0.04771790 -0.09492130
v 0.01564533 0.04771790 -0.09508848
v 0.01650223 0.04771790 -0.09504516
v 0.01597956 0.04771790 -0.09520216
f 1 3 2
f 4 6 5
f 7 9 8
f 8 9 5
f 10 12 11
f 11 13 10
f 6 14 5
f 15 17 16
f 18 20 19
f 21 19 22
f 23 20 24
f 24 20 25
f 24 25 26
f 26 25 27
f 26 27 28
f 16 17 12
f 12 17 29
f 30 31 21
f 21 31 32
f 21 32 19
f 33 15 34
f 33 34 31
f 33 31 30
f 17 15 33
f 20 23 19
f 19 23 22
f 28 27 35
f 35 27 36
f 37 38 19
f 8 40 39
f 12 41 16
f 39 40 42
f 43 44 37
f 45 47 46
f 47 48 46
f 46 48 49
f 39 42 50
f 39 50 51
f 36 14 35
f 10 41 12
f 14 36 5
f 45 43 47
f 5 36 40
f 19 38 18
f 52 51 53
f 53 55 54
f 54 55 43
f 43 55 44
f 37 19 47
f 56 10 57
f 57 10 58
f 58 60 59
f 59 60 61
f 49 61 46
f 5 40 8
f 47 43 37
f 1 62 3
f 62 1 63
f 62 63 64
f 62 64 65
f 65 64 66
f 65 66 67
f 65 67 68
f 68 67 69
f 69 67 70
f 69 70 71
f 69 71 72
f 72 71 73
f 72 73 74
f 74 73 75
f 74 75 76
f 77 79 78
f 80 82 81
f 80 1 82
f 83 77 78
f 83 75 77
f 77 75 84
f 75 73 84
f 84 73 85
f 73 71 85
f 85 71 86
f 71 70 86
f 86 70 87
f 70 67 87
f 87 67 88
f 67 66 88
f 88 66 89
f 66 64 89
f 89 64 90
f 90 64 63
f 90 63 80
f 80 63 1
f 91 93 92
f 94 96 95
f 95 96 92
f 95 92 93
f 96 98 97
f 94 95 99
f 94 99 100
f 100 99 101
f 100 101 102
f 102 101 103
f 104 105 102
f 102 103 104
f 106 107 105
f 104 106 105
f 106 109 108
f 106 110 107
f 98 111 97
f 112 91 92
f 96 97 92
f 92 97 113
f 92 113 114
f 114 113 115
f 114 115 116
f 117 119 118
f 117 118 120
f 120 118 121
f 120 121 122
f 122 121 123
f 122 123 124
f 124 123 125
f 124 125 126
f 126 125 127
f 126 127 128
f 128 127 129
f 128 129 130
f 128 130 131
f 131 130 132
f 131 132 133
f 133 132 134
f 133 134 135
f 135 134 60
f 60 134 136
f 60 136 137
f 60 137 138
f 138 137 139
f 138 139 140
f 140 139 141
f 140 141 142
f 142 141 143
f 142 143 46
f 46 143 144
f 46 144 145
f 145 144 146
f 145 146 147
f 147 146 148
f 147 148 149
f 147 149 150
f 150 149 151
f 150 151 54
f 54 151 152
f 54 152 153
f 153 152 154
f 153 154 155
f 155 154 156
f 155 156 157
f 157 156 52
f 52 156 158
f 52 158 159
f 159 158 160
f 159 160 108
f 108 160 106
f 161 163 162
f 163 164 162
f 161 162 165
f 166 2 167
f 166 167 168
f 169 171 170
f 2 3 172
f 173 174 167
f 175 176 172
f 177 178 170
f 2 173 167
f 179 181 180
f 179 180 182
f 177 183 178
f 184 185 181
f 186 187 177
f 177 187 188
f 184 181 179
f 184 179 189
f 184 189 190
f 190 189 178
f 178 183 191
f 170 171 192
f 192 186 170
f 170 186 177
f 180 74 182
f 172 176 193
f 194 195 175
f 175 195 176
f 2 172 193
f 167 174 196
f 196 174 197
f 74 180 198
f 198 180 199
f 198 199 194
f 194 199 195
f 200 202 201
f 197 201 196
f 190 203 149
f 149 203 204
f 205 206 188
f 188 206 177
f 165 207 161
f 165 208 207
f 207 205 161
f 161 205 209
f 205 207 206
f 178 191 210
f 149 204 211
f 149 211 212
f 213 212 214
f 158 213 208
f 158 208 165
f 2 193 173
f 178 210 190
f 190 210 203
f 171 216 215
f 215 216 217
f 215 217 218
f 218 217 219
f 218 219 220
f 218 220 221
f 221 220 222
f 221 222 223
f 223 222 224
f 222 225 224
f 224 225 226
f 224 226 227
f 227 226 228
f 228 226 229
f 230 231 229
f 232 231 230
f 233 235 234
f 233 216 235
f 229 226 230
f 230 226 236
f 236 226 237
f 226 225 237
f 237 225 238
f 238 225 222
f 238 222 239
f 239 222 240
f 240 222 220
f 240 220 241
f 220 219 241
f 241 219 242
f 219 217 242
f 242 217 243
f 217 216 243
f 243 216 233
f 234 244 233
f 233 244 245
f 233 245 243
f 243 245 242
f 242 245 246
f 242 246 247
f 242 247 241
f 241 247 248
f 241 248 240
f 240 248 249
f 240 249 239
f 239 249 250
f 239 250 238
f 238 250 251
f 238 251 237
f 237 251 252
f 237 252 253
f 237 253 236
f 236 253 230
f 230 253 254
f 230 254 232
f 232 254 255
f 81 256 80
f 80 256 257
f 80 257 90
f 90 257 258
f 90 258 259
f 90 259 89
f 89 259 260
f 89 260 88
f 88 260 261
f 88 261 262
f 88 262 87
f 87 262 263
f 87 263 86
f 86 263 264
f 86 264 85
f 85 264 265
f 85 265 84
f 84 265 266
f 84 266 77
f 77 266 267
f 77 267 79
f 268 79 267
f 268 267 269
f 269 267 244
f 269 244 270
f 270 244 234
f 257 272 271
f 256 272 257
f 254 273 255
f 254 4 273
f 271 274 257
f 257 274 258
f 258 274 259
f 274 275 259
f 259 275 260
f 275 276 260
f 260 276 261
f 261 276 262
f 276 277 262
f 262 277 263
f 277 278 263
f 263 278 264
f 264 278 265
f 278 279 265
f 265 279 266
f 266 279 280
f 266 280 267
f 280 281 267
f 267 281 244
f 244 281 245
f 245 281 282
f 245 282 246
f 282 283 246
f 246 283 247
f 283 284 247
f 247 284 248
f 248 284 249
f 284 285 249
f 249 285 250
f 285 286 250
f 250 286 251
f 251 286 252
f 286 287 252
f 252 287 253
f 287 288 253
f 253 288 254
f 288 4 254
f 271 29 289
f 271 289 274
f 290 274 289
f 290 275 274
f 291 275 290
f 291 276 275
f 292 276 291
f 292 277 276
f 30 277 292
f 30 278 277
f 293 278 30
f 293 279 278
f 294 279 293
f 294 280 279
f 295 280 294
f 295 281 280
f 296 281 295
f 296 282 281
f 297 282 296
f 297 283 282
f 298 284 297
f 297 284 283
f 284 298 299
f 284 299 285
f 285 299 286
f 286 299 28
f 300 286 28
f 300 287 286
f 300 288 287
f 301 288 300
f 288 301 4
f 4 301 6
f 302 304 303
f 303 304 305
f 306 308 307
f 307 308 309
f 307 310 302
f 311 313 312
f 302 310 314
f 314 310 315
f 313 311 316
f 304 311 312
f 307 309 310
f 302 314 311
f 302 311 304
f 317 315 318
f 317 314 315
f 313 316 319
f 308 306 318
f 318 306 303
f 303 305 320
f 319 320 313
f 303 320 319
f 317 318 319
f 319 318 303
f 321 323 322
f 324 326 325
f 327 329 328
f 330 331 323
f 330 323 321
f 332 327 321
f 321 327 328
f 333 325 330
f 330 325 331
f 328 329 334
f 333 336 335
f 328 334 333
f 324 325 333
f 334 336 333
f 324 333 335
f 337 324 338
f 332 337 338
f 339 340 321
f 326 339 341
f 324 335 338
f 321 340 332
f 322 341 321
f 321 341 339
f 332 340 337
f 342 344 343
f 342 343 345
f 342 345 346
f 342 346 347
f 342 347 344
f 344 318 315
f 344 315 343
f 343 315 345
f 345 315 310
f 345 310 309
f 345 309 346
f 346 309 308
f 346 308 347
f 347 308 318
f 347 318 344
f 348 350 349
f 349 351 348
f 351 352 348
f 348 352 353
f 348 353 354
f 354 350 348
f 350 320 305
f 350 305 349
f 349 305 351
f 351 305 304
f 351 304 352
f 352 304 312
f 352 312 353
f 353 312 313
f 353 313 354
f 354 313 320
f 354 320 350
f 355 327 356
f 356 327 332
f 356 332 357
f 357 332 338
f 357 338 358
f 358 338 335
f 358 335 359
f 359 335 336
f 359 336 360
f 360 336 334
f 360 334 329
f 360 329 355
f 355 329 327
f 361 322 362
f 362 322 363
f 363 322 323
f 363 323 364
f 364 323 331
f 364 331 365
f 365 331 325
f 365 325 366
f 366 325 326
f 366 326 341
f 366 341 361
f 361 341 322
f 367 83 368
f 368 83 78
f 170 235 169
f 369 371 370
f 370 371 372
f 370 372 373
f 373 372 374
f 373 374 375
f 375 374 376
f 375 376 377
f 377 376 378
f 377 378 379
f 377 379 380
f 380 379 381
f 380 381 382
f 382 381 383
f 382 383 384
f 384 383 385
f 384 385 369
f 369 385 371
f 363 377 380
f 365 370 373
f 366 370 365
f 362 382 361
f 363 380 362
f 362 380 382
f 361 382 384
f 364 377 363
f 365 373 364
f 364 373 375
f 366 369 370
f 364 375 377
f 361 384 366
f 366 384 369
f 386 388 387
f 387 388 389
f 387 389 390
f 390 389 391
f 391 389 392
f 391 392 393
f 393 392 394
f 393 394 395
f 395 394 396
f 396 394 397
f 396 397 398
f 396 398 399
f 399 398 386
f 386 398 388
f 357 395 356
f 359 387 390
f 356 396 355
f 356 395 396
f 359 390 358
f 355 396 399
f 357 393 395
f 358 391 393
f 390 391 358
f 360 386 359
f 359 386 387
f 355 399 360
f 358 393 357
f 360 399 386
f 400 208 401
f 401 208 214
f 401 214 402
f 402 214 403
f 402 403 404
f 402 404 405
f 405 404 211
f 405 211 406
f 406 211 204
f 406 408 407
f 406 407 405
f 405 407 409
f 405 409 410
f 405 410 402
f 402 410 411
f 402 411 412
f 402 412 401
f 401 412 413
f 401 413 400
f 413 414 400
f 415 417 416
f 417 415 418
f 418 415 419
f 200 419 415
f 200 420 419
f 420 200 421
f 420 421 422
f 421 423 422
f 423 421 197
f 197 424 423
f 424 197 425
f 425 197 174
f 425 174 426
f 427 429 428
f 427 428 430
f 430 428 431
f 432 44 433
f 433 44 55
f 433 55 434
f 434 55 435
f 434 435 436
f 436 435 437
f 436 437 438
f 438 437 50
f 438 50 439
f 440 441 432
f 439 443 442
f 439 442 444
f 439 444 438
f 438 444 445
f 438 445 436
f 436 445 446
f 436 446 434
f 434 446 447
f 434 447 433
f 433 447 440
f 433 440 432
f 448 56 57
f 448 57 449
f 449 57 450
f 449 450 451
f 449 451 452
f 452 451 453
f 452 453 59
f 452 59 454
f 454 59 455
f 454 455 456
f 456 455 457
f 456 457 458
f 458 457 49
f 459 448 460
f 458 462 461
f 458 461 456
f 456 461 463
f 456 463 454
f 454 463 464
f 454 464 452
f 452 464 465
f 452 465 449
f 449 465 466
f 449 466 448
f 448 466 460
f 228 229 209
f 209 229 161
f 29 271 12
f 15 460 467
f 467 460 466
f 466 34 467
f 465 34 466
f 465 31 34
f 464 31 465
f 464 468 31
f 463 468 464
f 463 32 468
f 461 32 463
f 461 19 32
f 440 447 20
f 447 469 20
f 446 469 447
f 446 445 25
f 25 469 446
f 444 25 445
f 444 27 25
f 442 27 444
f 413 412 470
f 177 413 470
f 412 183 470
f 411 183 412
f 411 410 183
f 471 183 410
f 409 471 410
f 409 191 471
f 407 191 409
f 180 473 472
f 472 473 474
f 472 474 475
f 475 474 429
f 475 429 476
f 476 429 477
f 476 477 199
f 478 199 430
f 478 430 195
f 195 430 176
f 176 430 479
f 459 41 448
f 448 41 56
f 16 459 460
f 459 16 41
f 460 15 16
f 461 462 19
f 19 462 47
f 47 462 48
f 458 49 48
f 458 48 462
f 442 443 27
f 36 27 443
f 36 443 40
f 42 40 443
f 439 50 42
f 439 42 443
f 18 441 440
f 18 38 441
f 440 20 18
f 441 38 37
f 441 37 432
f 432 37 44
f 414 207 208
f 414 208 400
f 206 414 413
f 414 206 207
f 413 177 206
f 210 408 203
f 406 204 203
f 406 203 408
f 407 408 191
f 191 408 210
f 416 417 181
f 180 181 480
f 480 473 180
f 173 426 174
f 173 481 426
f 193 481 173
f 176 481 193
f 176 479 481
f 214 208 213
f 403 214 212
f 403 212 404
f 404 212 211
f 177 470 183
f 183 471 191
f 450 57 58
f 450 58 451
f 451 58 453
f 453 58 59
f 455 59 61
f 455 61 457
f 457 61 49
f 41 10 56
f 15 467 34
f 31 468 32
f 435 55 53
f 435 53 437
f 437 53 51
f 437 51 50
f 20 469 25
f 416 185 415
f 415 185 202
f 415 202 200
f 421 200 201
f 421 201 197
f 416 181 185
f 472 475 180
f 180 475 199
f 475 476 199
f 199 478 195
f 388 398 482
f 483 389 388
f 484 392 389
f 394 392 485
f 392 484 485
f 394 486 397
f 487 486 394
f 394 488 487
f 93 398 489
f 489 398 397
f 482 91 388
f 388 91 490
f 389 109 104
f 389 104 484
f 372 371 491
f 378 376 492
f 493 376 374
f 376 493 492
f 379 378 494
f 379 494 381
f 385 495 371
f 371 495 102
f 495 94 102
f 372 105 374
f 374 105 107
f 374 107 493
f 98 494 378
f 378 496 98
f 497 383 498
f 498 383 381
f 482 93 91
f 398 93 482
f 483 109 389
f 483 490 109
f 388 490 483
f 489 397 486
f 489 486 487
f 488 394 485
f 485 103 488
f 103 485 484
f 103 484 104
f 385 497 495
f 383 497 385
f 498 381 494
f 498 494 98
f 491 105 372
f 491 102 105
f 371 102 491
f 496 378 492
f 496 492 493
f 496 493 107
f 96 497 498
f 497 94 495
f 417 499 480
f 480 181 417
f 418 500 499
f 499 500 429
f 500 418 419
f 425 426 431
f 425 428 424
f 423 428 422
f 422 429 500
f 428 425 431
f 424 428 423
f 428 429 422
f 422 500 420
f 420 500 419
f 499 417 418
f 473 480 499
f 431 426 481
f 427 430 199
f 427 199 477
f 474 499 429
f 477 429 427
f 473 499 474
f 479 430 431
f 479 431 481
f 79 268 179
f 79 179 78
f 78 179 368
f 235 170 178
f 235 178 234
f 234 178 270
f 76 75 367
f 367 75 83
f 169 216 171
f 169 235 216
f 289 29 17
f 289 17 290
f 290 17 33
f 290 33 291
f 291 33 292
f 292 33 30
f 30 21 293
f 293 21 294
f 294 21 22
f 294 22 295
f 295 22 23
f 295 23 296
f 296 23 297
f 297 23 24
f 297 24 298
f 298 24 26
f 298 26 299
f 299 26 28
f 28 35 300
f 300 35 14
f 300 14 301
f 301 14 6
f 171 215 192
f 215 218 192
f 192 218 186
f 186 218 187
f 218 221 187
f 187 221 188
f 221 223 188
f 223 224 188
f 188 224 205
f 205 224 227
f 205 227 209
f 227 228 209
f 268 269 189
f 189 269 178
f 269 270 178
f 182 368 179
f 268 189 179
f 182 367 368
f 182 76 367
f 3 62 172
f 172 62 175
f 175 62 65
f 65 68 175
f 175 68 194
f 68 69 194
f 194 69 198
f 69 72 198
f 198 72 74
f 74 76 182
f 7 333 9
f 328 333 7
f 328 116 321
f 321 116 115
f 330 164 163
f 330 321 164
f 328 7 116
f 321 115 164
f 306 13 11
f 306 307 13
f 124 10 122
f 122 10 13
f 122 13 120
f 120 13 117
f 116 7 114
f 114 7 8
f 114 8 92
f 92 8 112
f 112 8 39
f 112 39 501
f 501 39 108
f 108 39 51
f 108 51 159
f 159 51 52
f 157 52 53
f 157 53 155
f 155 53 153
f 153 53 54
f 150 54 43
f 150 43 147
f 147 43 45
f 147 45 145
f 145 45 46
f 142 46 61
f 142 61 140
f 140 61 138
f 138 61 60
f 135 60 58
f 135 58 133
f 133 58 131
f 131 58 128
f 128 58 126
f 126 58 10
f 126 10 124
f 111 162 97
f 97 162 164
f 97 164 113
f 113 164 115
f 119 168 118
f 118 168 167
f 118 167 121
f 121 167 123
f 123 167 125
f 125 167 196
f 125 196 127
f 127 196 129
f 129 196 130
f 130 196 201
f 130 201 132
f 132 201 134
f 134 201 136
f 136 201 202
f 136 202 137
f 137 202 139
f 139 202 185
f 139 185 141
f 141 185 143
f 143 185 184
f 143 184 144
f 144 184 190
f 144 190 146
f 146 190 148
f 148 190 149
f 151 149 212
f 151 212 152
f 152 212 154
f 154 212 213
f 154 213 156
f 156 213 158
f 160 158 165
f 160 165 106
f 106 165 110
f 110 165 162
f 110 162 111
f 168 303 166
f 302 303 168
f 13 307 117
f 168 119 302
f 302 119 307
f 307 119 117
f 501 490 91
f 501 91 112
f 109 490 108
f 490 501 108
f 104 109 106
f 489 95 93
f 488 103 101
f 95 489 487
f 95 487 99
f 99 487 488
f 99 488 101
f 100 102 94
f 94 497 96
f 496 107 110
f 96 498 98
f 111 98 496
f 111 496 110
f 5 273 4
f 9 273 5
f 273 9 255
f 255 9 333
f 255 333 330
f 255 330 232
f 232 330 163
f 163 231 232
f 231 163 161
f 231 161 229
f 306 256 81
f 306 81 303
f 256 306 11
f 11 272 256
f 272 11 12
f 272 12 271
f 1 2 82
f 82 2 166
f 303 81 166
f 166 81 82
f 502 319 503
f 503 319 316
f 503 316 504
f 504 316 505
f 505 316 311
f 505 311 506
f 506 311 314
f 506 314 317
f 506 317 507
f 507 317 502
f 502 317 319
f 507 505 506
f 507 504 505
f 507 503 504
f 502 503 507
f 508 340 339
f 508 339 509
f 509 339 510
f 509 510 511
f 511 510 324
f 511 324 512
f 512 324 337
f 512 337 513
f 513 337 340
f 513 340 508
f 509 513 508
f 509 512 513
f 509 511 512
f 339 326 510
f 510 326 324
f 514 516 515
f 517 519 518
f 520 522 521
f 518 522 520
f 518 523 522
f 524 526 525
f 526 527 525
f 528 530 529
f 530 528 531
f 532 534 533
f 533 534 535
f 536 538 537
f 531 528 539
f 531 539 540
f 531 540 541
f 529 530 524
f 524 530 542
f 525 543 524
f 533 535 544
f 544 535 545
f 544 545 546
f 543 547 524
f 541 540 536
f 536 540 548
f 536 548 538
f 546 545 549
f 549 545 550
f 523 552 551
f 518 552 523
f 532 553 534
f 523 551 554
f 523 554 555
f 556 558 557
f 550 519 559
f 550 559 549
f 560 556 557
f 547 529 524
f 519 550 518
f 518 550 552
f 557 558 561
f 537 538 562
f 561 564 563
f 563 564 565
f 553 532 537
f 566 525 567
f 568 555 569
f 569 570 560
f 560 570 556
f 571 573 572
f 572 573 574
f 565 574 563
f 537 562 553
f 553 562 564
f 561 558 564
f 564 558 553
f 514 575 516
f 575 514 576
f 575 576 577
f 575 577 578
f 578 577 579
f 578 579 580
f 578 580 581
f 581 580 582
f 582 580 583
f 582 583 584
f 582 584 585
f 585 584 586
f 585 586 587
f 587 586 588
f 587 588 589
f 590 592 591
f 593 595 594
f 593 514 595
f 596 590 591
f 596 588 590
f 590 588 597
f 588 586 597
f 597 586 598
f 586 584 598
f 598 584 599
f 584 583 599
f 599 583 600
f 583 580 600
f 600 580 601
f 580 579 601
f 601 579 602
f 579 577 602
f 602 577 603
f 603 577 576
f 603 576 593
f 593 576 514
f 604 606 605
f 607 609 608
f 608 609 605
f 608 605 606
f 609 611 610
f 607 608 612
f 607 612 613
f 613 612 614
f 613 614 615
f 615 614 616
f 617 618 615
f 615 616 617
f 619 620 618
f 617 619 618
f 619 622 621
f 619 623 620
f 611 624 610
f 625 604 605
f 609 610 605
f 605 610 626
f 605 626 627
f 627 626 628
f 627 628 629
f 630 632 631
f 630 631 633
f 633 631 634
f 633 634 635
f 635 634 636
f 635 636 637
f 637 636 638
f 637 638 639
f 639 638 640
f 639 640 641
f 641 640 642
f 641 642 643
f 641 643 644
f 644 643 645
f 644 645 646
f 646 645 647
f 646 647 648
f 648 647 573
f 573 647 649
f 573 649 650
f 573 650 651
f 651 650 652
f 651 652 653
f 653 652 654
f 653 654 655
f 655 654 656
f 655 656 563
f 563 656 657
f 563 657 658
f 658 657 659
f 658 659 660
f 660 659 661
f 660 661 662
f 660 662 663
f 663 662 664
f 663 664 665
f 665 664 666
f 665 666 667
f 667 666 668
f 667 668 669
f 669 668 670
f 669 670 671
f 671 670 568
f 568 670 672
f 568 672 673
f 673 672 674
f 673 674 621
f 621 674 619
f 675 677 676
f 675 676 678
f 677 679 676
f 680 682 681
f 683 685 684
f 681 682 515
f 686 688 687
f 587 687 688
f 689 691 690
f 690 693 692
f 685 694 515
f 695 697 696
f 698 700 699
f 698 699 688
f 688 699 587
f 681 515 701
f 681 701 702
f 691 704 703
f 703 704 705
f 703 705 686
f 686 705 706
f 698 707 700
f 700 707 683
f 683 707 685
f 708 706 705
f 690 710 709
f 690 709 693
f 697 695 711
f 684 685 515
f 684 515 516
f 678 713 712
f 706 688 686
f 704 715 714
f 711 695 693
f 711 693 716
f 716 693 709
f 691 689 704
f 704 689 715
f 678 712 717
f 718 710 690
f 515 694 701
f 690 692 689
f 696 697 719
f 696 719 717
f 720 722 721
f 672 720 713
f 672 713 678
f 717 719 723
f 717 723 675
f 724 725 702
f 702 725 681
f 726 728 727
f 724 727 725
f 678 717 675
f 710 730 729
f 729 730 731
f 729 731 732
f 732 731 733
f 732 733 734
f 732 734 735
f 735 734 736
f 735 736 737
f 737 736 738
f 736 739 738
f 738 739 740
f 738 740 741
f 741 740 742
f 742 740 743
f 744 745 743
f 746 745 744
f 747 749 748
f 747 730 749
f 743 740 744
f 744 740 750
f 750 740 751
f 740 739 751
f 751 739 752
f 752 739 736
f 752 736 753
f 753 736 754
f 754 736 734
f 754 734 755
f 734 733 755
f 755 733 756
f 733 731 756
f 756 731 757
f 731 730 757
f 757 730 747
f 748 758 747
f 747 758 759
f 747 759 757
f 757 759 756
f 756 759 760
f 756 760 761
f 756 761 755
f 755 761 762
f 755 762 754
f 754 762 763
f 754 763 753
f 753 763 764
f 753 764 752
f 752 764 765
f 752 765 751
f 751 765 766
f 751 766 767
f 751 767 750
f 750 767 744
f 744 767 768
f 744 768 746
f 746 768 769
f 594 770 593
f 593 770 771
f 593 771 603
f 603 771 772
f 603 772 773
f 603 773 602
f 602 773 774
f 602 774 601
f 601 774 775
f 601 775 776
f 601 776 600
f 600 776 777
f 600 777 599
f 599 777 778
f 599 778 598
f 598 778 779
f 598 779 597
f 597 779 780
f 597 780 590
f 590 780 781
f 590 781 592
f 782 592 781
f 782 781 783
f 783 781 758
f 783 758 784
f 784 758 748
f 771 786 785
f 770 786 771
f 768 787 769
f 768 517 787
f 785 788 771
f 771 788 772
f 772 788 773
f 788 789 773
f 773 789 774
f 789 790 774
f 774 790 775
f 775 790 776
f 790 791 776
f 776 791 777
f 791 792 777
f 777 792 778
f 778 792 779
f 792 793 779
f 779 793 780
f 780 793 794
f 780 794 781
f 794 795 781
f 781 795 758
f 758 795 759
f 759 795 796
f 759 796 760
f 796 797 760
f 760 797 761
f 797 798 761
f 761 798 762
f 798 799 762
f 762 799 763
f 763 799 800
f 763 800 764
f 800 801 764
f 764 801 765
f 765 801 766
f 801 802 766
f 766 802 767
f 802 803 767
f 767 803 768
f 803 517 768
f 785 542 804
f 785 804 788
f 805 788 804
f 805 789 788
f 806 789 805
f 806 790 789
f 807 790 806
f 807 791 790
f 541 791 807
f 541 792 791
f 808 792 541
f 808 793 792
f 809 793 808
f 809 794 793
f 810 794 809
f 810 795 794
f 811 795 810
f 811 796 795
f 812 796 811
f 812 797 796
f 813 798 812
f 812 798 797
f 798 813 799
f 799 813 814
f 799 814 800
f 800 814 801
f 801 814 546
f 815 801 546
f 815 802 801
f 815 803 802
f 816 803 815
f 803 816 517
f 517 816 519
f 817 819 818
f 820 818 819
f 821 823 822
f 824 825 820
f 820 825 826
f 819 828 827
f 822 823 829
f 820 826 830
f 829 830 822
f 821 822 831
f 829 832 820
f 820 832 818
f 817 828 819
f 827 828 833
f 818 835 834
f 818 832 835
f 829 820 830
f 827 833 824
f 821 831 824
f 824 831 825
f 834 835 833
f 833 835 824
f 824 835 821
f 836 838 837
f 839 841 840
f 842 844 843
f 842 843 845
f 837 838 846
f 845 843 847
f 837 846 839
f 846 841 839
f 840 849 848
f 845 836 837
f 849 850 848
f 851 853 852
f 840 854 839
f 845 855 836
f 839 852 842
f 842 852 844
f 840 848 854
f 854 851 839
f 839 851 852
f 853 857 856
f 850 849 855
f 845 857 855
f 855 857 850
f 847 856 845
f 845 856 857
f 858 860 859
f 858 859 861
f 858 861 862
f 858 862 863
f 858 863 860
f 860 864 831
f 860 831 822
f 860 822 859
f 859 822 861
f 861 822 830
f 861 830 826
f 861 826 862
f 862 826 825
f 862 825 863
f 863 825 864
f 863 864 860
f 865 867 866
f 866 868 865
f 868 869 865
f 865 869 870
f 865 870 871
f 871 867 865
f 867 833 866
f 866 833 828
f 866 828 868
f 868 828 817
f 868 817 869
f 869 817 818
f 869 818 870
f 870 818 834
f 870 834 871
f 871 834 833
f 871 833 867
f 872 836 873
f 873 836 855
f 873 855 874
f 874 855 849
f 874 849 875
f 875 849 840
f 875 840 876
f 876 840 841
f 876 841 846
f 876 846 877
f 877 846 838
f 877 838 872
f 872 838 836
f 878 847 879
f 879 847 880
f 880 847 843
f 880 843 881
f 881 843 844
f 881 844 882
f 882 844 852
f 882 852 883
f 883 852 853
f 883 853 856
f 883 856 878
f 878 856 847
f 884 596 885
f 885 596 591
f 886 888 887
f 887 888 889
f 887 889 890
f 890 889 891
f 890 891 892
f 892 891 893
f 892 893 894
f 894 893 895
f 894 895 896
f 894 896 897
f 897 896 898
f 897 898 899
f 899 898 900
f 900 898 901
f 900 901 886
f 886 901 888
f 880 897 879
f 878 899 900
f 879 897 899
f 879 899 878
f 881 894 880
f 881 892 894
f 880 894 897
f 878 900 883
f 883 900 886
f 882 887 890
f 883 887 882
f 883 886 887
f 882 890 881
f 881 890 892
f 902 904 903
f 903 904 905
f 903 905 906
f 906 905 907
f 907 905 908
f 907 908 909
f 909 908 910
f 909 910 911
f 911 910 912
f 912 910 913
f 912 913 606
f 912 606 914
f 914 606 915
f 914 915 902
f 902 915 904
f 873 911 912
f 872 912 914
f 873 912 872
f 874 909 911
f 875 909 874
f 874 911 873
f 872 914 877
f 877 914 902
f 876 903 906
f 877 902 876
f 876 902 903
f 875 907 909
f 876 906 875
f 906 907 875
f 916 713 917
f 917 713 721
f 917 721 918
f 918 721 919
f 918 919 920
f 918 920 921
f 921 920 922
f 921 922 923
f 923 925 924
f 923 924 921
f 921 924 926
f 921 926 927
f 921 927 918
f 918 927 928
f 918 928 929
f 918 929 917
f 917 929 930
f 917 930 916
f 916 930 931
f 932 934 933
f 934 932 935
f 935 932 936
f 726 936 932
f 726 937 936
f 937 726 938
f 937 938 939
f 938 940 939
f 940 938 724
f 724 941 940
f 941 724 942
f 942 724 702
f 942 702 943
f 944 946 945
f 944 945 947
f 947 945 948
f 949 556 570
f 949 570 950
f 950 570 951
f 950 951 952
f 952 951 953
f 952 953 954
f 954 953 554
f 954 554 955
f 955 957 956
f 955 956 958
f 955 958 954
f 954 958 959
f 954 959 952
f 952 959 960
f 952 960 950
f 950 960 961
f 950 961 949
f 949 961 962
f 949 962 963
f 964 543 566
f 964 566 965
f 965 566 966
f 965 966 967
f 965 967 968
f 968 967 969
f 968 969 572
f 968 572 970
f 970 572 971
f 970 971 972
f 972 971 973
f 972 973 974
f 974 973 565
f 974 976 975
f 974 975 972
f 972 975 977
f 972 977 970
f 970 977 978
f 970 978 968
f 968 978 979
f 968 979 965
f 965 979 980
f 965 980 964
f 964 980 981
f 982 964 981
f 742 743 723
f 723 743 675
f 542 785 524
f 528 981 983
f 983 981 980
f 980 539 983
f 979 539 980
f 979 540 539
f 978 540 979
f 978 984 540
f 977 984 978
f 977 548 984
f 975 548 977
f 975 538 548
f 962 961 534
f 961 985 534
f 960 985 961
f 960 959 535
f 535 985 960
f 958 535 959
f 958 545 535
f 956 545 958
f 930 929 695
f 929 986 695
f 928 986 929
f 928 927 693
f 693 986 928
f 926 693 927
f 926 692 693
f 924 692 926
f 688 988 987
f 987 988 989
f 987 989 990
f 990 989 946
f 990 946 991
f 991 946 992
f 991 992 698
f 993 698 947
f 993 947 707
f 707 947 685
f 685 947 948
f 543 982 547
f 982 543 964
f 529 982 981
f 982 529 547
f 981 528 529
f 975 976 538
f 562 538 976
f 976 564 562
f 974 565 976
f 564 976 565
f 956 957 545
f 550 545 957
f 550 957 552
f 551 552 957
f 955 554 551
f 955 551 957
f 553 963 962
f 962 534 553
f 558 963 553
f 963 558 556
f 963 556 949
f 717 712 931
f 931 712 916
f 713 916 712
f 696 931 930
f 931 696 717
f 930 695 696
f 715 689 925
f 923 922 715
f 923 715 925
f 924 925 692
f 692 925 689
f 933 934 706
f 688 706 994
f 994 988 688
f 701 943 702
f 701 995 943
f 694 995 701
f 685 995 694
f 685 948 995
f 721 713 720
f 919 721 722
f 919 722 920
f 920 722 922
f 922 722 714
f 922 714 715
f 695 986 693
f 543 525 566
f 966 566 567
f 966 567 967
f 967 567 571
f 967 571 969
f 969 571 572
f 971 572 574
f 971 574 973
f 973 574 565
f 528 983 539
f 540 984 548
f 951 570 569
f 951 569 953
f 953 569 555
f 953 555 554
f 534 985 535
f 933 708 932
f 932 708 728
f 932 728 726
f 938 726 727
f 938 727 724
f 933 706 708
f 987 990 688
f 688 990 698
f 990 991 698
f 698 993 707
f 904 996 905
f 997 908 905
f 910 908 998
f 908 997 998
f 913 910 999
f 1000 999 910
f 910 1001 1000
f 913 1002 606
f 996 904 1003
f 1003 904 604
f 905 622 617
f 905 617 997
f 888 1004 889
f 895 893 1005
f 893 1006 1005
f 891 1006 893
f 896 895 1007
f 1007 898 896
f 888 1008 615
f 888 615 1004
f 1008 607 615
f 889 618 891
f 891 618 620
f 891 620 1006
f 895 1009 611
f 895 611 1007
f 898 1011 1010
f 915 604 904
f 915 606 604
f 996 622 905
f 996 1003 622
f 1002 913 999
f 1002 999 1000
f 1001 910 998
f 998 616 1001
f 616 998 997
f 616 997 617
f 901 1008 888
f 901 1010 1008
f 898 1010 901
f 1011 898 1007
f 1011 1007 611
f 1004 618 889
f 1004 615 618
f 1009 895 1005
f 1009 1005 1006
f 1009 1006 620
f 609 1010 1011
f 1010 607 1008
f 934 1012 994
f 994 706 934
f 935 1013 1012
f 1012 1013 946
f 1013 935 936
f 942 945 941
f 940 945 939
f 939 946 1013
f 945 942 943
f 941 945 940
f 945 946 939
f 939 1013 937
f 937 1013 936
f 1012 934 935
f 988 994 1012
f 948 943 995
f 948 945 943
f 944 947 698
f 944 698 992
f 989 1012 946
f 992 946 944
f 988 1012 989
f 592 782 686
f 592 686 591
f 591 686 885
f 749 718 1014
f 749 1014 748
f 748 1014 784
f 589 588 884
f 884 588 596
f 718 730 710
f 718 749 730
f 864 825 831
f 804 542 530
f 804 530 805
f 805 530 531
f 805 531 806
f 806 531 807
f 807 531 541
f 541 536 808
f 808 536 809
f 809 536 537
f 809 537 810
f 810 537 532
f 810 532 811
f 811 532 812
f 812 532 533
f 812 533 813
f 813 533 544
f 813 544 814
f 814 544 546
f 546 549 815
f 815 549 559
f 815 559 816
f 816 559 519
f 710 729 709
f 729 732 709
f 709 732 716
f 716 732 711
f 732 735 711
f 711 735 697
f 735 737 697
f 737 738 697
f 697 738 719
f 719 738 741
f 719 741 723
f 741 742 723
f 784 1014 691
f 691 1014 690
f 718 690 1014
f 782 783 703
f 703 783 691
f 783 784 691
f 687 885 686
f 782 703 686
f 687 884 885
f 687 589 884
f 516 575 684
f 684 575 683
f 683 575 578
f 578 581 683
f 683 581 700
f 581 582 700
f 700 582 699
f 582 585 699
f 699 585 587
f 587 589 687
f 521 839 520
f 837 839 521
f 837 629 845
f 845 629 628
f 842 679 677
f 842 845 679
f 837 521 629
f 845 628 679
f 824 527 526
f 824 820 527
f 637 525 635
f 635 525 527
f 635 527 633
f 633 527 630
f 629 521 627
f 627 521 522
f 627 522 605
f 605 522 625
f 625 522 523
f 625 523 1015
f 1015 523 621
f 621 523 555
f 621 555 673
f 673 555 568
f 671 568 569
f 671 569 669
f 669 569 667
f 667 569 560
f 667 560 665
f 665 560 663
f 663 560 660
f 660 560 557
f 660 557 561
f 660 561 658
f 658 561 563
f 655 563 574
f 655 574 653
f 653 574 651
f 651 574 573
f 648 573 571
f 648 571 646
f 646 571 644
f 644 571 641
f 641 571 567
f 641 567 639
f 639 567 525
f 639 525 637
f 624 676 610
f 610 676 679
f 610 679 626
f 626 679 628
f 632 680 631
f 631 680 681
f 631 681 634
f 634 681 636
f 636 681 638
f 638 681 725
f 638 725 640
f 640 725 642
f 642 725 643
f 643 725 727
f 643 727 645
f 645 727 647
f 647 727 649
f 649 727 728
f 649 728 650
f 650 728 652
f 652 728 708
f 652 708 654
f 654 708 656
f 656 708 705
f 656 705 657
f 657 705 704
f 657 704 659
f 659 704 661
f 661 704 662
f 662 704 714
f 662 714 664
f 664 714 722
f 664 722 666
f 666 722 668
f 668 722 720
f 668 720 670
f 670 720 672
f 674 672 678
f 674 678 619
f 619 678 623
f 623 678 676
f 623 676 624
f 680 827 682
f 819 827 680
f 527 820 630
f 680 632 819
f 819 632 820
f 820 632 630
f 1015 1003 604
f 1015 604 625
f 622 1003 621
f 1003 1015 621
f 617 622 619
f 1002 608 606
f 1001 616 614
f 608 1002 1000
f 608 1000 612
f 612 1000 1001
f 612 1001 614
f 613 615 607
f 607 1010 609
f 1009 620 623
f 609 1011 611
f 624 611 1009
f 624 1009 623
f 518 787 517
f 520 787 518
f 787 520 769
f 769 520 839
f 769 839 842
f 769 842 746
f 746 842 677
f 677 745 746
f 745 677 675
f 745 675 743
f 824 770 594
f 824 594 827
f 770 824 526
f 526 786 770
f 786 526 524
f 786 524 785
f 514 515 595
f 595 515 682
f 827 594 682
f 682 594 595
f 1016 821 835
f 1016 835 1017
f 1017 835 1018
f 1018 835 832
f 1018 832 1019
f 1019 832 829
f 1019 829 1020
f 1020 829 823
f 1020 823 1021
f 1021 823 821
f 1021 821 1016
f 1021 1019 1020
f 1021 1018 1019
f 1021 1017 1018
f 1016 1017 1021
f 1022 857 1023
f 1023 857 1024
f 1023 1024 1025
f 1025 1024 1026
f 1025 1026 1027
f 1027 1026 854
f 1027 854 848
f 1027 848 1028
f 1028 848 850
f 1028 850 857
f 1028 857 1022
f 1023 1028 1022
f 1023 1027 1028
f 1023 1025 1027
f 857 853 1024
f 1024 853 851
f 1024 851 1026
f 1026 851 854
f 1029 1031 1030
f 1032 1031 1033
f 1033 1031 1029
f 1033 1029 1034
f 1035 1037 1036
f 1036 1037 1029
f 1036 1029 1038
f 1038 1029 1030
f 1031 1032 1039
f 1031 1039 1040
f 1040 1039 1041
f 1041 1039 1042
f 1041 1042 1043
f 1043 1042 1044
f 1043 1044 1045
f 1035 1046 1037
f 1037 1046 1047
f 1047 1046 1048
f 1047 1048 1049
f 1049 1048 1050
f 1049 1050 1051
f 1051 1050 1052
f 1051 1052 1053
f 1054 1056 1055
f 1055 1056 1057
f 1057 1056 1058
f 1057 1058 1059
f 1059 1058 1060
f 1059 1060 1029
f 1029 1060 1061
f 1029 1061 1034
f 1062 1063 1052
f 1052 1063 1053
f 1064 1065 1055
f 1055 1065 1054
f 1044 1066 1045
f 1045 1066 1067
f 1067 1066 1068
f 1067 1068 1069
f 1069 1068 1070
f 1069 1070 1071
f 1071 1070 1072
f 1071 1072 1073
f 1074 1075 1072
f 1072 1075 1073
f 1076 1078 1077
f 1079 1081 1080
f 1080 1081 1082
f 1080 1082 1083
f 1084 1086 1085
f 1087 1089 1088
f 1088 1089 1090
f 1088 1090 1091
f 1077 1078 1092
f 1092 1078 1093
f 1092 1093 1094
f 1094 1093 1095
f 1094 1095 1096
f 1096 1095 1097
f 1097 1095 1098
f 1097 1098 1099
f 1099 1098 1100
f 1099 1100 1101
f 1101 1100 1102
f 1101 1102 1103
f 1104 1106 1105
f 1105 1106 1107
f 1105 1107 1108
f 1108 1107 1109
f 1108 1109 1110
f 1082 1111 1083
f 1083 1111 1112
f 1083 1112 1113
f 1113 1112 1114
f 1113 1114 1115
f 1115 1114 1116
f 1115 1116 1117
f 1117 1116 1118
f 1117 1118 1104
f 1104 1118 1119
f 1104 1119 1106
f 1085 1086 1120
f 1120 1086 1121
f 1120 1121 1122
f 1122 1121 1123
f 1122 1123 1124
f 1125 1127 1126
f 1126 1127 1128
f 1126 1128 1129
f 1129 1128 1130
f 1129 1130 1087
f 1087 1130 1131
f 1087 1131 1089
f 1077 1132 1076
f 1076 1132 1133
f 1076 1133 1134
f 1134 1133 1135
f 1134 1135 1136
f 1136 1135 1137
f 1136 1137 1125
f 1125 1137 1138
f 1125 1138 1127
f 1103 1102 1139
f 1139 1102 1140
f 1139 1140 1141
f 1140 1142 1141
f 1141 1142 1143
f 1143 1142 1110
f 1143 1110 1144
f 1144 1110 1109
f 1145 1147 1146
f 1146 1147 1148
f 1146 1148 1149
f 1149 1148 1150
f 1149 1150 1079
f 1079 1150 1151
f 1079 1151 1081
f 1085 1152 1084
f 1084 1152 1153
f 1084 1153 1154
f 1154 1153 1155
f 1154 1155 1156
f 1156 1155 1157
f 1156 1157 1145
f 1145 1157 1158
f 1145 1158 1147
f 1090 1159 1091
f 1091 1159 1160
f 1091 1160 1161
f 1161 1160 1162
f 1161 1162 1163
f 1163 1162 1164
f 1163 1164 1165
f 1165 1164 1166
f 1165 1166 1167
f 1166 1168 1167
f 1167 1168 1169
f 1167 1169 1170
f 1170 1169 1171
f 1170 1171 1172
f 1172 1171 1173
f 1172 1173 1174
f 1124 1123 1175
f 1175 1123 1176
f 1175 1176 1177
f 1177 1176 1178
f 1177 1178 1179
f 1179 1178 1180
f 1179 1180 1181
f 1182 1184 1183
f 1183 1184 1174
f 1183 1174 1185
f 1185 1174 1173
f 1181 1180 1186
f 1186 1180 1187
f 1186 1187 1182
f 1182 1187 1184
f 1188 1190 1189
f 1191 1193 1192
f 1188 1194 1190
f 1190 1194 1195
f 1196 1198 1197
f 1197 1198 1199
f 1197 1199 1191
f 1200 1202 1201
f 1203 1205 1204
f 1194 1206 1195
f 1195 1206 1207
f 1195 1207 1208
f 1209 1210 1189
f 1189 1210 1211
f 1189 1211 1188
f 1197 1191 1212
f 1212 1191 1192
f 1212 1192 1213
f 1214 1216 1215
f 1217 1218 1216
f 1216 1218 1219
f 1216 1219 1215
f 1220 1222 1221
f 1221 1222 1223
f 1221 1223 1224
f 1224 1223 1225
f 1224 1225 1202
f 1202 1225 1226
f 1202 1226 1201
f 1227 1228 1205
f 1205 1228 1229
f 1205 1229 1204
f 1207 1230 1208
f 1208 1230 1231
f 1208 1231 1232
f 1191 1233 1193
f 1193 1233 1234
f 1235 1237 1236
f 1236 1237 1238
f 1236 1238 1196
f 1196 1238 1239
f 1196 1239 1198
f 1215 1240 1214
f 1214 1240 1241
f 1214 1241 1235
f 1235 1241 1242
f 1235 1242 1237
f 1201 1243 1200
f 1200 1243 1244
f 1200 1244 1245
f 1204 1246 1203
f 1203 1246 1247
f 1203 1247 1248
f 1249 1251 1250
f 1250 1251 1252
f 1250 1252 1227
f 1227 1252 1253
f 1227 1253 1228
f 1254 1255 1209
f 1209 1255 1256
f 1209 1256 1210
f 1233 1257 1234
f 1234 1257 1258
f 1234 1258 1254
f 1254 1258 1259
f 1254 1259 1255
f 1260 1261 1217
f 1217 1261 1262
f 1217 1262 1218
f 1231 1263 1232
f 1232 1263 1264
f 1232 1264 1265
f 1265 1264 1266
f 1265 1266 1267
f 1267 1266 1268
f 1267 1268 1269
f 1269 1268 1270
f 1269 1270 1249
f 1249 1270 1271
f 1249 1271 1251
f 1272 1274 1273
f 1273 1274 1275
f 1273 1275 1213
f 1213 1275 1276
f 1213 1276 1212
f 1244 1277 1245
f 1245 1277 1278
f 1245 1278 1279
f 1280 1282 1281
f 1281 1282 1283
f 1283 1282 1284
f 1283 1284 1285
f 1285 1284 1248
f 1285 1248 1286
f 1286 1248 1247
f 1287 1289 1288
f 1288 1289 1290
f 1288 1290 1260
f 1260 1290 1291
f 1260 1291 1261
f 1221 1292 1220
f 1220 1292 1281
f 1281 1292 1293
f 1281 1293 1280
f 1280 1293 1294
f 1294 1293 1295
f 1294 1295 1296
f 1296 1295 1297
f 1296 1297 1298
f 1298 1297 1299
f 1278 1300 1279
f 1279 1300 1301
f 1279 1301 1302
f 1302 1301 1303
f 1302 1303 1304
f 1304 1303 1305
f 1304 1305 1306
f 1306 1305 1307
f 1306 1307 1287
f 1287 1307 1308
f 1287 1308 1289
f 1272 1273 1309
f 1309 1273 1310
f 1309 1310 1297
f 1297 1310 1311
f 1297 1311 1299
f 1312 1314 1313
f 1313 1314 1315
f 1313 1315 1316
f 1316 1315 1317
f 1316 1317 1318
f 1318 1317 1319
f 1318 1319 1320
f 1321 1323 1322
f 1322 1323 1324
f 1322 1324 1325
f 1325 1324 1326
f 1325 1326 1327
f 1327 1326 1328
f 1327 1328 1312
f 1312 1328 1329
f 1312 1329 1314
f 1330 1332 1331
f 1331 1332 1333
f 1331 1333 1334
f 1334 1333 1321
f 1334 1321 1322
f 1335 1337 1336
f 1336 1337 1338
f 1336 1338 1339
f 1339 1338 1340
f 1339 1340 1341
f 1341 1340 1342
f 1341 1342 1330
f 1330 1342 1343
f 1330 1343 1332
f 1319 1344 1320
f 1320 1344 1345
f 1345 1344 1346
f 1345 1346 1347
f 1347 1346 1348
f 1347 1348 1349
f 1349 1348 1350
f 1349 1350 1351
f 1352 1353 1350
f 1350 1353 1351
f 1336 1354 1335
f 1335 1354 1355
f 1355 1354 1356
f 1355 1356 1357
f 1357 1356 1358
f 1357 1358 1359
f 1359 1358 1360
f 1359 1360 1361
f 1362 1363 1360
f 1360 1363 1361
f 1364 1366 1365
f 1365 1366 1367
f 1367 1366 1368
f 1367 1368 1369
f 1369 1368 1370
f 1369 1370 1371
f 1371 1370 1372
f 1372 1370 1373
f 1372 1373 1374
f 1374 1373 1375
f 1374 1375 1376
f 1365 1377 1364
f 1364 1377 1378
f 1364 1378 1379
f 1379 1378 1380
f 1379 1380 1381
f 1381 1380 1382
f 1381 1382 1383
f 1376 1375 1384
f 1384 1375 1385
f 1384 1385 1386
f 1386 1385 1387
f 1386 1387 1388
f 1388 1387 1389
f 1388 1389 1390
f 1382 1391 1383
f 1383 1391 1392
f 1383 1392 1393
f 1393 1392 1394
f 1393 1394 1395
f 1395 1394 1396
f 1395 1396 1397
f 1397 1396 1398
f 1397 1398 1399
f 1399 1398 1400
f 1399 1400 1401
f 1401 1400 1402
f 1401 1402 1403
f 1389 1404 1390
f 1390 1404 1405
f 1405 1404 1406
f 1405 1406 1407
f 1407 1406 1408
f 1407 1408 1409
f 1409 1408 1410
f 1409 1410 1411
f 1412 1413 1410
f 1410 1413 1411
f 1402 1414 1403
f 1403 1414 1415
f 1415 1414 1416
f 1415 1416 1417
f 1417 1416 1418
f 1417 1418 1419
f 1419 1418 1420
f 1419 1420 1421
f 1422 1423 1420
f 1420 1423 1421
f 1424 1426 1425
f 1427 1429 1428
f 1430 1431 1429
f 1429 1431 1432
f 1429 1432 1428
f 1425 1433 1424
f 1424 1433 1434
f 1424 1434 1435
f 1436 1437 1426
f 1426 1437 1438
f 1426 1438 1425
f 1428 1439 1427
f 1427 1439 1440
f 1427 1440 1441
f 1442 1444 1443
f 1445 1447 1446
f 1446 1447 1448
f 1446 1448 1430
f 1430 1448 1449
f 1430 1449 1431
f 1434 1450 1435
f 1435 1450 1451
f 1435 1451 1445
f 1445 1451 1452
f 1445 1452 1447
f 1440 1453 1441
f 1441 1453 1454
f 1441 1454 1455
f 1455 1454 1456
f 1455 1456 1457
f 1457 1456 1458
f 1457 1458 1459
f 1459 1458 1460
f 1459 1460 1461
f 1462 1464 1463
f 1463 1464 1465
f 1463 1465 1466
f 1443 1444 1467
f 1467 1444 1468
f 1467 1468 1469
f 1469 1468 1470
f 1469 1470 1471
f 1472 1474 1473
f 1473 1474 1475
f 1473 1475 1476
f 1476 1475 1477
f 1476 1477 1478
f 1465 1479 1466
f 1466 1479 1480
f 1466 1480 1481
f 1481 1480 1482
f 1481 1482 1483
f 1483 1482 1484
f 1483 1484 1485
f 1485 1484 1486
f 1485 1486 1472
f 1472 1486 1487
f 1472 1487 1474
f 1471 1470 1488
f 1488 1470 1489
f 1488 1489 1490
f 1490 1489 1491
f 1490 1491 1492
f 1492 1491 1493
f 1492 1493 1494
f 1495 1497 1496
f 1496 1497 1498
f 1496 1498 1499
f 1499 1498 1500
f 1499 1500 1462
f 1462 1500 1501
f 1462 1501 1464
f 1443 1502 1442
f 1442 1502 1503
f 1442 1503 1504
f 1504 1503 1505
f 1504 1505 1506
f 1506 1505 1507
f 1506 1507 1495
f 1495 1507 1508
f 1495 1508 1497
f 1494 1493 1509
f 1509 1493 1510
f 1509 1510 1511
f 1512 1514 1513
f 1513 1514 1515
f 1515 1514 1516
f 1515 1516 1517
f 1517 1516 1518
f 1517 1518 1436
f 1436 1518 1519
f 1436 1519 1437
f 1477 1520 1478
f 1478 1520 1521
f 1478 1521 1522
f 1522 1521 1512
f 1522 1512 1513
f 1460 1523 1461
f 1461 1523 1524
f 1524 1523 1525
f 1524 1525 1526
f 1526 1525 1527
f 1526 1527 1528
f 1528 1527 1529
f 1528 1529 1530
f 1531 1532 1529
f 1529 1532 1530
f 1510 1533 1511
f 1511 1533 1534
f 1534 1533 1535
f 1534 1535 1536
f 1536 1535 1537
f 1536 1537 1538
f 1538 1537 1539
f 1538 1539 1540
f 1541 1542 1539
f 1539 1542 1540

