v -0.08439116 0.06913508 0.04557477
v -0.08856436 0.05540487 0.04127071
v -0.08486117 0.06944554 0.04559277
v -0.16064078 0.06569704 0.03392708
v -0.15293176 0.05540632 0.03222431
v -0.16079774 0.06518055 0.03376517
v -0.16091609 0.06465311 0.03360573
v -0.08106969 0.06194511 0.04409488
v -0.08103022 0.06248635 0.04424698
v -0.08161896 0.05986256 0.04345382
v -0.08142414 0.06036547 0.04361737
v -0.16103467 0.06357616 0.03329748
v -0.15854333 0.05763995 0.03204037
v -0.15893850 0.05803837 0.03209271
v -0.15812103 0.05726900 0.03199929
v -0.15767375 0.05692743 0.03196968
v -0.15720373 0.05661696 0.03195168
v -0.15671340 0.05633918 0.03194538
v -0.15620525 0.05609551 0.03195083
v -0.15568186 0.05588718 0.03196798
v -0.08126715 0.06088196 0.04377928
v -0.08114880 0.06140941 0.04393872
v -0.08242544 0.06715313 0.04531443
v -0.08276041 0.06760028 0.04538842
v -0.08312640 0.06802414 0.04545174
v -0.08535150 0.06972332 0.04559907
v -0.08585966 0.06996700 0.04559362
v -0.08638304 0.07017533 0.04557646
v -0.08691899 0.07034725 0.04554769
v -0.08746476 0.07048188 0.04550743
v -0.08801761 0.07057855 0.04545590
v -0.15405756 0.07063822 0.03619019
v -0.15461029 0.07058005 0.03609675
v -0.15994696 0.06715487 0.03441931
v -0.16021429 0.06668673 0.03425498
v -0.16044594 0.06619995 0.03409062
v -0.16107918 0.06250716 0.03289723
v -0.16091426 0.06194691 0.03287327
v -0.16079520 0.06141120 0.03274496
v -0.16063750 0.06088375 0.03262432
v -0.16044199 0.06036725 0.03251195
v -0.16020967 0.05986432 0.03240843
v -0.15994170 0.05937754 0.03231430
v -0.15963946 0.05890938 0.03223002
v -0.15930448 0.05846223 0.03215603
v -0.15514591 0.05571526 0.03199676
v -0.15460014 0.05558062 0.03203702
v -0.15404731 0.05548396 0.03208855
v -0.16099520 0.06411740 0.03344956
v -0.15349023 0.05542576 0.03215108
v -0.08745461 0.05548247 0.04144770
v -0.08185062 0.05937579 0.04328947
v -0.08690899 0.05557910 0.04155055
v -0.08534227 0.05609392 0.04191013
v -0.08485229 0.05633757 0.04204497
v -0.08438269 0.05661532 0.04218618
v -0.08352157 0.06842256 0.04550407
v -0.08394387 0.06879351 0.04554515
v -0.08857467 0.07063675 0.04539336
v -0.08913314 0.07065620 0.04532013
v -0.15350054 0.07065764 0.03627373
v -0.15515591 0.07048341 0.03599390
v -0.15569165 0.07034880 0.03588216
v -0.15621477 0.07017690 0.03576209
v -0.08637325 0.05571371 0.04166229
v -0.08585012 0.05588561 0.04178236
v -0.08393583 0.05692577 0.04233304
v -0.08351402 0.05726733 0.04248480
v -0.08311938 0.05763825 0.04264070
v -0.15672262 0.06996860 0.03563431
v -0.15721260 0.06972494 0.03549948
v -0.15768221 0.06944718 0.03535827
v -0.15812907 0.06913674 0.03521141
v -0.15855089 0.06879518 0.03505964
v -0.15894553 0.06842425 0.03490375
v -0.08800734 0.05542429 0.04135426
v -0.08275394 0.05803666 0.04279993
v -0.08241956 0.05846050 0.04296169
v -0.08201924 0.05888132 0.04302734
v -0.08103058 0.06303035 0.04439421
v -0.08107080 0.06357437 0.04453586
v -0.08115064 0.06411560 0.04467118
v -0.08126970 0.06465131 0.04479949
v -0.08142740 0.06517876 0.04492013
v -0.08162291 0.06569526 0.04503250
v -0.08185524 0.06619819 0.04513602
v -0.08212320 0.06668497 0.04523015
v -0.15931097 0.06802586 0.03474452
v -0.15964535 0.06760201 0.03458276
f 1 3 2
f 4 6 5
f 5 6 7
f 8 9 2
f 10 11 2
f 12 14 13
f 13 15 12
f 12 15 16
f 12 16 17
f 17 18 12
f 12 18 19
f 12 19 20
f 11 21 2
f 2 21 22
f 2 22 8
f 23 24 2
f 2 24 25
f 3 26 2
f 2 26 27
f 2 27 28
f 28 29 2
f 2 29 30
f 2 30 31
f 32 33 5
f 34 35 5
f 5 35 36
f 5 36 4
f 37 38 12
f 12 38 39
f 12 39 40
f 40 41 12
f 12 41 42
f 12 42 43
f 43 44 12
f 12 44 45
f 12 45 14
f 20 46 12
f 12 46 47
f 12 47 48
f 7 49 5
f 5 49 12
f 5 12 50
f 50 12 48
f 51 53 52
f 54 55 52
f 52 55 56
f 25 57 2
f 2 57 58
f 2 58 1
f 31 59 2
f 2 59 60
f 2 60 5
f 5 60 61
f 5 61 32
f 33 62 5
f 5 62 63
f 5 63 64
f 53 65 52
f 52 65 66
f 52 66 54
f 56 67 52
f 52 67 68
f 52 68 69
f 64 70 5
f 5 70 71
f 5 71 72
f 72 73 5
f 5 73 74
f 5 74 75
f 10 2 52
f 52 2 76
f 52 76 51
f 69 77 52
f 52 77 78
f 52 78 79
f 9 80 2
f 2 80 81
f 2 81 82
f 82 83 2
f 2 83 84
f 2 84 85
f 85 86 2
f 2 86 87
f 2 87 23
f 75 88 5
f 5 88 89
f 5 89 34

