v -0.08913314 0.07065620 0.04532013
v -0.15350054 0.07065764 0.03627373
v -0.08912329 0.07077868 0.04525013
v -0.15349069 0.07078012 0.03620373
v -0.08856436 0.05540487 0.04127071
v -0.08800734 0.05542429 0.04135426
v -0.08854731 0.05533418 0.04114942
v -0.08745461 0.05548247 0.04144770
v -0.08690899 0.05557910 0.04155055
v -0.08637325 0.05571371 0.04166229
v -0.08528442 0.05603195 0.04179694
v -0.08585012 0.05588561 0.04178236
v -0.08534227 0.05609392 0.04191013
v -0.08485229 0.05633757 0.04204497
v -0.08438269 0.05661532 0.04218618
v -0.08393583 0.05692577 0.04233304
v -0.08303337 0.05759585 0.04253676
v -0.08351402 0.05726733 0.04248480
v -0.08311938 0.05763825 0.04264070
v -0.08275394 0.05803666 0.04279993
v -0.08201924 0.05888132 0.04302734
v -0.08241956 0.05846050 0.04296169
v -0.08185062 0.05937579 0.04328947
v -0.08151394 0.05984833 0.04336018
v -0.08161896 0.05986256 0.04345382
v -0.08142414 0.06036547 0.04361737
v -0.08103783 0.06141477 0.04385122
v -0.08126715 0.06088196 0.04377928
v -0.08114880 0.06140941 0.04393872
v -0.08106969 0.06194511 0.04409488
v -0.08091812 0.06305625 0.04431248
v -0.08103022 0.06248635 0.04424698
v -0.08103058 0.06303035 0.04439421
v -0.08107080 0.06357437 0.04453586
v -0.08115064 0.06411560 0.04467118
v -0.08126970 0.06465131 0.04479949
v -0.08151793 0.06575491 0.04495885
v -0.08142740 0.06517876 0.04492013
v -0.08162291 0.06569526 0.04503250
v -0.08185524 0.06619819 0.04513602
v -0.08212320 0.06668497 0.04523015
v -0.08266985 0.06768406 0.04531928
v -0.08242544 0.06715313 0.04531443
v -0.08276041 0.06760028 0.04538842
v -0.08312640 0.06802414 0.04545174
v -0.08352157 0.06842256 0.04550407
v -0.08432126 0.06923831 0.04550799
v -0.08394387 0.06879351 0.04554515
v -0.08439116 0.06913508 0.04557477
v -0.08486117 0.06944554 0.04559277
v -0.08535150 0.06972332 0.04559907
v -0.08633836 0.07029172 0.04550971
v -0.08585966 0.06996700 0.04559362
v -0.08638304 0.07017533 0.04557646
v -0.08691899 0.07034725 0.04554769
v -0.08746476 0.07048188 0.04550743
v -0.08801761 0.07057855 0.04545590
v -0.08857467 0.07063675 0.04539336
v -0.15293176 0.05540632 0.03222431
v -0.15291472 0.05533563 0.03210302
v -0.15405756 0.07063822 0.03619019
v -0.15461029 0.07058005 0.03609675
v -0.15515591 0.07048341 0.03599390
v -0.15569165 0.07034880 0.03588216
v -0.15675360 0.07008235 0.03555621
v -0.15621477 0.07017690 0.03576209
v -0.15672262 0.06996860 0.03563431
v -0.15721260 0.06972494 0.03549948
v -0.15817785 0.06923996 0.03512795
v -0.15768221 0.06944718 0.03535827
v -0.15812907 0.06913674 0.03521141
v -0.15855089 0.06879518 0.03505964
v -0.15894553 0.06842425 0.03490375
v -0.15971334 0.06768579 0.03449134
v -0.15931097 0.06802586 0.03474452
v -0.15964535 0.06760201 0.03458276
v -0.15994696 0.06715487 0.03441931
v -0.16021429 0.06668673 0.03425498
v -0.16044594 0.06619995 0.03409062
v -0.16064078 0.06569704 0.03392708
v -0.16100018 0.06469953 0.03350193
v -0.16079774 0.06518055 0.03376517
v -0.16091609 0.06465311 0.03360573
v -0.16099520 0.06411740 0.03344956
v -0.16103467 0.06357616 0.03329748
v -0.16107918 0.06250716 0.03289723
v -0.16091426 0.06194691 0.03287327
v -0.16087775 0.06141657 0.03263026
v -0.16079520 0.06141120 0.03274496
v -0.16063750 0.06088375 0.03262432
v -0.16044199 0.06036725 0.03251195
v -0.16020967 0.05986432 0.03240843
v -0.15994170 0.05937754 0.03231430
v -0.15936816 0.05843025 0.03203387
v -0.15963946 0.05890938 0.03223002
v -0.15930448 0.05846223 0.03215603
v -0.15893850 0.05803837 0.03209271
v -0.15854333 0.05763995 0.03204037
v -0.15812103 0.05726900 0.03199929
v -0.15724079 0.05656160 0.03182693
v -0.15767375 0.05692743 0.03196968
v -0.15720373 0.05661696 0.03195168
v -0.15671340 0.05633918 0.03194538
v -0.15620525 0.05609551 0.03195083
v -0.15515693 0.05564848 0.03187259
v -0.15568186 0.05588718 0.03196798
v -0.15514591 0.05571526 0.03199676
v -0.15460014 0.05558062 0.03203702
v -0.15404731 0.05548396 0.03208855
v -0.15349023 0.05542576 0.03215108
v -0.15340936 0.07093680 0.03562506
v -0.08904196 0.07093536 0.04467146
v -0.08733318 0.07086266 0.04489195
v -0.08625703 0.07044840 0.04493104
v -0.08568537 0.07033408 0.04498043
v -0.08378696 0.06904908 0.04489933
v -0.08258852 0.06784074 0.04474061
v -0.08184953 0.06696475 0.04460729
v -0.08113522 0.06541847 0.04428903
v -0.08076913 0.06377140 0.04389453
v -0.08087638 0.06211394 0.04343069
v -0.08097071 0.06100739 0.04311783
v -0.08193791 0.05903799 0.04244867
v -0.08335167 0.05737690 0.04180022
v -0.08520308 0.05618863 0.04121827
v -0.08734218 0.05556943 0.04074997
v -0.08846598 0.05549086 0.04057075
v -0.15283339 0.05549230 0.03152435
v -0.15454218 0.05556500 0.03130386
v -0.15561832 0.05597926 0.03126477
v -0.15763542 0.05703268 0.03126648
v -0.15891621 0.05815769 0.03139108
v -0.15993211 0.05951383 0.03161547
v -0.16043875 0.06051607 0.03181563
v -0.16099785 0.06266383 0.03231856
v -0.16110735 0.06432885 0.03275398
v -0.16044275 0.06642266 0.03341430
v -0.15937831 0.06834126 0.03408338
v -0.15816498 0.06948169 0.03456268
v -0.15716845 0.06999229 0.03484099
v -0.15562823 0.07062405 0.03522852
v -0.15105900 0.05686042 0.01151015
v -0.15103810 0.05629322 0.01135954
v -0.15001735 0.05625338 0.01148759
v -0.12681702 0.05682829 0.01490404
v -0.12687488 0.05625286 0.01474011
v -0.10945562 0.05651468 0.01821342
v -0.11087795 0.05635843 0.01861195
v -0.10993797 0.05590679 0.01848380
v -0.11086363 0.05597421 0.01850993
v -0.10879239 0.05625245 0.01728148
v -0.10889318 0.05682788 0.01742312
v -0.12522252 0.05597453 0.01649189
v -0.12536247 0.05635983 0.01657181
v -0.12648520 0.05598433 0.01584455
v -0.12659825 0.05656513 0.01564790
v -0.12614691 0.05642456 0.01619607
v -0.08853994 0.08039893 0.02666572
v -0.08639947 0.07982333 0.02681071
v -0.08604520 0.08038870 0.02701358
v -0.08503579 0.08030840 0.02713371
v -0.08361858 0.07950159 0.02711445
v -0.07847673 0.05918596 0.02233659
v -0.08211773 0.05732858 0.02132195
v -0.08077556 0.05724285 0.02148738
v -0.07988171 0.05767017 0.02172871
v -0.07419091 0.06730410 0.02513698
v -0.07466602 0.06464264 0.02434960
v -0.07384784 0.06612083 0.02486482
v -0.07403672 0.06516062 0.02457829
v -0.07371539 0.06807879 0.02541356
v -0.08403345 0.08014835 0.02723125
v -0.08564993 0.05625194 0.02053399
v -0.08554187 0.05682736 0.02070498
v -0.08218084 0.05674091 0.02115397
v -0.08315161 0.05650223 0.02095290
v -0.08346341 0.05700863 0.02104619
v -0.07577367 0.06218723 0.02352910
v -0.07614180 0.06079748 0.02310108
v -0.07531700 0.06200627 0.02354429
v -0.07698347 0.06056421 0.02291963
v -0.07447004 0.06376174 0.02413864
v -0.07494069 0.07200755 0.02630508
v -0.07426707 0.06934606 0.02567914
v -0.07443265 0.07196215 0.02636419
v -0.07806723 0.07657506 0.02710232
v -0.07708700 0.07556988 0.02696793
v -0.07704024 0.07623155 0.02715365
v -0.11440583 0.07982396 0.02287461
v -0.11442731 0.08039953 0.02302743
v -0.08414199 0.05634223 0.02077038
v -0.07862033 0.05844308 0.02211526
v -0.07711561 0.05970132 0.02266743
v -0.07377271 0.06906350 0.02567212
v -0.07401224 0.07052931 0.02603533
v -0.07551268 0.07326999 0.02656649
v -0.07526329 0.07378436 0.02674081
v -0.07853294 0.07760903 0.02731681
v -0.08255780 0.07976124 0.02733384
v -0.08226795 0.07910369 0.02719655
v -0.07607678 0.07505833 0.02697141
v -0.08034520 0.07822548 0.02722901
v -0.07935741 0.07820729 0.02736292
v -0.08067644 0.07898027 0.02738681
v -0.10873412 0.05637721 0.01700980
v -0.10908978 0.05762756 0.01618642
v -0.10889711 0.05733416 0.01660195
v -0.10880486 0.05686218 0.01629862
v -0.10939337 0.05746729 0.01552292
v -0.10982797 0.05809094 0.01557907
v -0.11042733 0.05818458 0.01540593
v -0.11041228 0.05778098 0.01529877
v -0.12478622 0.05818490 0.01338789
v -0.12476469 0.05772061 0.01323462
v -0.12528473 0.05812496 0.01337432
v -0.12609676 0.05776728 0.01363242
v -0.12636122 0.05709497 0.01354144
v -0.12672356 0.05668641 0.01402105
v -0.12677670 0.05690598 0.01461709
v -0.12685601 0.05637762 0.01446289
v -0.07372198 0.06789593 0.02504948
v -0.07413457 0.06806204 0.02503647
v -0.07378237 0.06915740 0.02538254
v -0.08520057 0.08036180 0.02681136
v -0.08426715 0.07971966 0.02676869
v -0.08635914 0.07990102 0.02652377
v -0.08222762 0.07918138 0.02690960
v -0.08209080 0.07964187 0.02705351
v -0.08359586 0.08009192 0.02696383
v -0.07490036 0.07208525 0.02601813
v -0.07419880 0.07129196 0.02590195
v -0.07650630 0.06115809 0.02283384
v -0.07521184 0.06229286 0.02332302
v -0.07588950 0.06123830 0.02294225
v -0.08550154 0.05690505 0.02041804
v -0.08373721 0.05651716 0.02056099
v -0.08496225 0.05639341 0.02035531
v -0.08342308 0.05708632 0.02075924
v -0.15098560 0.07990247 0.01744096
v -0.15201852 0.08038042 0.01744692
v -0.15087579 0.08043084 0.01759944
v -0.07399791 0.06544716 0.02434768
v -0.07462569 0.06472033 0.02406265
v -0.07430656 0.06603444 0.02446331
v -0.07433634 0.06424164 0.02397371
v -0.07729680 0.05963193 0.02230952
v -0.07790989 0.05969301 0.02223989
v -0.08092897 0.07863218 0.02694343
v -0.08058748 0.07898059 0.02708576
v -0.07581398 0.07395394 0.02639568
v -0.07679488 0.07601134 0.02681487
v -0.07548995 0.07422777 0.02651536
v -0.07462039 0.07250008 0.02616980
v -0.07826248 0.05881248 0.02195193
v -0.10885285 0.05690558 0.01713617
v -0.08650836 0.08042939 0.02664585
v -0.07918752 0.07814078 0.02705514
v -0.07855953 0.07711271 0.02686505
v -0.07379132 0.06669406 0.02471432
v -0.08016600 0.05817365 0.02151142
v -0.08186657 0.05695141 0.02094148
v -0.07930759 0.05810478 0.02161342
v -0.15012799 0.05690650 0.01133523
v -0.15092084 0.05641323 0.01109024
v -0.14997879 0.05637814 0.01121314
v -0.15203592 0.05622998 0.01399477
v -0.15242513 0.05598836 0.01498470
v -0.15232360 0.05554433 0.01472891
v -0.15307736 0.05547167 0.01552967
v -0.15381148 0.05593308 0.01598302
v -0.15379685 0.05554064 0.01587882
v -0.15458341 0.05572576 0.01600402
v -0.15174949 0.05618233 0.01195675
v -0.15177035 0.05674158 0.01210524
v -0.15209109 0.08033590 0.01775774
v -0.15246035 0.07966089 0.01781787
v -0.15191440 0.07979091 0.01759849
v -0.15264180 0.08010877 0.01830953
v -0.14892839 0.08040030 0.01817853
v -0.12304103 0.08039973 0.02181683
v -0.12301956 0.07982416 0.02166401
v -0.12297175 0.07869192 0.02240966
v -0.12348738 0.07746124 0.02697235
v -0.12310414 0.07869193 0.02239106
v -0.12368543 0.07736308 0.02731423
v -0.12349474 0.07725292 0.02775593
v -0.12353147 0.07705440 0.02849846
v -0.12303384 0.07687216 0.02925470
v -0.12323530 0.07686743 0.02924423
v -0.12258382 0.07671481 0.02991056
v -0.12223144 0.07656971 0.03050656
v -0.12168228 0.07653785 0.03070367
v -0.12156147 0.07647013 0.03097567
v -0.12096494 0.07646607 0.03107477
v -0.12041567 0.07639334 0.03142585
v -0.11937983 0.07644522 0.03137594
v -0.11918762 0.07640881 0.03154007
v -0.11780400 0.07658800 0.03105953
v -0.11798075 0.07651525 0.03130871
v -0.11657889 0.07678215 0.03050036
v -0.11709793 0.07671469 0.03068157
v -0.11598814 0.07705377 0.02956035
v -0.11602681 0.07695825 0.02991467
v -0.11544433 0.07725750 0.02886941
v -0.11541945 0.07746106 0.02810624
v -0.11524105 0.07746947 0.02809962
v -0.11465738 0.07869174 0.02357819
v -0.11452499 0.07869173 0.02359680
v -0.11455380 0.07946444 0.02380196
v -0.11468619 0.07946444 0.02378336
v -0.12313296 0.07946464 0.02259622
v -0.12300057 0.07946463 0.02261483
v -0.14863555 0.07763843 0.02862172
v -0.14703083 0.07739615 0.02975960
v -0.14825118 0.07731429 0.02931160
v -0.14864127 0.07751542 0.02883741
v -0.14893134 0.07781205 0.02781678
v -0.14704137 0.07734813 0.02983456
v -0.14704558 0.07721242 0.02986461
v -0.09357112 0.07721122 0.03738008
v -0.09356697 0.07734627 0.03735058
v -0.09355636 0.07739495 0.03727508
v -0.09129559 0.07782797 0.03596173
v -0.09207669 0.07738596 0.03708621
v -0.09152621 0.07704133 0.03662205
v -0.09116742 0.07742565 0.03604696
v -0.14703043 0.07679350 0.02975679
v -0.14785071 0.07666699 0.02950349
v -0.09355525 0.07670970 0.03726705
v -0.09296137 0.07682798 0.03728321
v -0.08910109 0.07946537 0.02981596
v -0.09046469 0.07813698 0.03406753
v -0.12328933 0.07831626 0.02962891
v -0.12258253 0.07808156 0.03061214
v -0.12358550 0.07850322 0.02888315
v -0.12371107 0.07891849 0.02730149
v -0.11663292 0.07823098 0.03088505
v -0.11765499 0.07801843 0.03154202
v -0.12046970 0.07784216 0.03181053
v -0.12196211 0.07796416 0.03114143
v -0.11529507 0.07891830 0.02848430
v -0.11585177 0.07850305 0.02997007
v -0.11842831 0.07791889 0.03180829
v -0.11965381 0.07784215 0.03192520
v -0.14918312 0.07820728 0.02541269
v -0.14912675 0.07732240 0.02764773
v -0.14919648 0.07988135 0.01998625
v -0.11087379 0.05585114 0.01858221
v -0.12523268 0.05585146 0.01656416
v -0.16210626 0.07195751 0.01934688
v -0.16152219 0.07364772 0.01988660
v -0.16223019 0.07239234 0.01944719
v -0.16096322 0.07443058 0.02017712
v -0.15979822 0.07526246 0.02056610
v -0.16033895 0.07516407 0.02046346
v -0.16305920 0.06803362 0.01815053
v -0.16322377 0.06918478 0.01843908
v -0.16335209 0.06774033 0.01802996
v -0.16276383 0.07004336 0.01873619
v -0.15928929 0.07616116 0.02088096
v -0.15822054 0.07654903 0.02113619
v -0.16277239 0.07105648 0.01900930
v -0.16253777 0.06398191 0.01712680
v -0.16333619 0.06676996 0.01776946
v -0.15968777 0.05925164 0.01624662
v -0.16072659 0.05998020 0.01629788
v -0.15936975 0.05851439 0.01609171
v -0.16101862 0.06087472 0.01649903
v -0.15809172 0.05787332 0.01609776
v -0.15860693 0.05786395 0.01602281
v -0.15779448 0.05727440 0.01597738
v -0.15563914 0.05649016 0.01606797
v -0.15649465 0.05651269 0.01595383
v -0.15770328 0.07727538 0.02140555
v -0.15541108 0.07792249 0.02189755
v -0.15594311 0.07811686 0.02188078
v -0.16316049 0.06531946 0.01740143
v -0.16264747 0.06342856 0.01696156
v -0.16227522 0.06251577 0.01676674
v -0.16157894 0.06120454 0.01650958
v -0.15422006 0.07874842 0.02187143
v -0.15442666 0.07826135 0.02184083
v -0.15527038 0.07835609 0.02201863
v -0.15290561 0.07954998 0.02018653
v -0.15348141 0.07908476 0.02137430
v -0.15299487 0.07891088 0.02049035
v -0.15367541 0.07854352 0.02144938
v -0.15153876 0.05627305 0.01155463
v -0.14706627 0.07628038 0.03001167
v -0.14897799 0.07663904 0.02893057
v -0.14906843 0.07686390 0.02847423
v -0.14703190 0.07659547 0.02976721
v -0.09356247 0.07649741 0.03731838
v -0.09359181 0.07627918 0.03752714
v -0.09265570 0.07640546 0.03742007
v -0.09085224 0.07717570 0.03593612
v -0.09138912 0.07666506 0.03696157
v -0.09048439 0.07735334 0.03545442
v -0.08955204 0.07874823 0.03191192
v -0.14950696 0.07849115 0.02419514
v -0.07872173 0.07041023 0.03976431
v -0.07778270 0.07087524 0.03742253
v -0.07767521 0.06965466 0.03840886
v -0.07723919 0.06715797 0.03909211
v -0.07629082 0.06699359 0.03658124
v -0.07652907 0.06574836 0.03751231
v -0.07575960 0.06548713 0.03494292
v -0.07686770 0.06409128 0.03831400
v -0.07659769 0.06306081 0.03677500
v -0.07677019 0.06218383 0.03651331
v -0.07701603 0.06132609 0.03624652
v -0.07799748 0.06105688 0.03966314
v -0.07698007 0.06073419 0.03478960
v -0.07737405 0.05991759 0.03451313
v -0.07869279 0.05819894 0.03516416
v -0.07895239 0.05770708 0.03369279
v -0.07931467 0.05767329 0.03623239
v -0.07990663 0.05688960 0.03463905
v -0.08737665 0.05404745 0.03281961
v -0.08607639 0.05435874 0.03047984
v -0.08720195 0.05417360 0.03157661
v -0.08554530 0.05419393 0.03311667
v -0.08466877 0.05455715 0.03073140
v -0.08487750 0.05426467 0.03452764
v -0.08397719 0.05462813 0.03215292
v -0.08334549 0.05478244 0.03358519
v -0.08242543 0.05525641 0.03123602
v -0.08210848 0.05534274 0.03391076
v -0.08162361 0.05565839 0.03536232
v -0.08077667 0.05613026 0.03170436
v -0.08059434 0.05631454 0.03438669
v -0.07965430 0.05695442 0.03208525
v -0.07618067 0.06228574 0.03401694
v -0.07578330 0.06455897 0.03468828
v -0.07616127 0.06608281 0.03635284
v -0.07649575 0.06789375 0.03679615
v -0.07729558 0.06882184 0.03823674
v -0.07628971 0.06997105 0.03477433
v -0.07888541 0.07239389 0.03767872
v -0.07952591 0.07308583 0.03777605
v -0.08117922 0.07306509 0.04013773
v -0.08022027 0.07372659 0.03785194
v -0.08162962 0.07409947 0.03905653
v -0.08175179 0.07483793 0.03793759
v -0.08242360 0.07458582 0.03907662
v -0.08325327 0.07500886 0.03907455
v -0.08499742 0.07565422 0.03900415
v -0.08503268 0.07677908 0.03669694
v -0.08411312 0.07536579 0.03905034
v -0.08635683 0.07595440 0.03889436
v -0.08597331 0.07696749 0.03661574
v -0.08727627 0.07606424 0.03879487
v -0.08692379 0.07708105 0.03651290
v -0.08835793 0.07556296 0.03980507
v -0.08755191 0.07805882 0.03407047
v -0.08343375 0.07682838 0.03562689
v -0.08253272 0.07645436 0.03565226
v -0.07668753 0.07084375 0.03495470
v -0.07573918 0.06301515 0.03296836
v -0.07719075 0.05945855 0.03049061
v -0.07817473 0.05892450 0.03543342
v -0.07777255 0.05871297 0.03020697
v -0.08702756 0.05432083 0.03033589
v -0.08570451 0.05471731 0.02801030
v -0.08493451 0.05464262 0.02940907
v -0.08332098 0.05515189 0.02846296
v -0.08240627 0.05545764 0.02867431
v -0.08129906 0.05605764 0.02767933
v -0.07948960 0.05708192 0.02952403
v -0.07667501 0.06025012 0.03077742
v -0.07632951 0.06124366 0.03240576
v -0.07514853 0.06517803 0.03232622
v -0.07514202 0.06660682 0.03271398
v -0.07523731 0.06755869 0.03295831
v -0.07552814 0.06896967 0.03329947
v -0.07686865 0.07207527 0.03395192
v -0.07741066 0.07288790 0.03409576
v -0.07895061 0.07396043 0.03548048
v -0.08043109 0.07522278 0.03561419
v -0.08100295 0.07620290 0.03448842
v -0.08322009 0.07727942 0.03446827
v -0.08657354 0.07801990 0.03419743
v -0.08511479 0.07781636 0.03434735
v -0.08186433 0.07668535 0.03449798
v -0.07808842 0.07442442 0.03310347
v -0.07590812 0.07115559 0.03252486
v -0.07525247 0.06423409 0.03205603
v -0.07841653 0.05801834 0.02992838
v -0.08003325 0.05676256 0.02804810
v -0.08523367 0.07876119 0.03195845
v -0.08425172 0.07856451 0.03204321
v -0.08328658 0.07829100 0.03210481
v -0.07931960 0.07616974 0.03208802
v -0.07855663 0.07551919 0.03201912
v -0.07689876 0.07365573 0.03174759
v -0.07512069 0.07013828 0.03104513
v -0.07486393 0.06919186 0.03082497
v -0.07483743 0.06645279 0.03140204
v -0.07463887 0.06532580 0.02980985
v -0.07527351 0.06313735 0.03044308
v -0.07549600 0.06207600 0.02880948
v -0.07667490 0.05998565 0.02807781
v -0.07901496 0.05756640 0.02709390
v -0.08244587 0.05574801 0.02611935
v -0.08534128 0.05515940 0.02555303
v -0.08650684 0.05488868 0.02663088
v -0.08670983 0.05464433 0.02807516
v -0.08622590 0.07887974 0.03185109
v -0.08505477 0.07916043 0.03077520
v -0.08214778 0.07833662 0.03096072
v -0.08034740 0.07741862 0.03096521
v -0.07950678 0.07685743 0.03093141
v -0.07728927 0.07481108 0.03068903
v -0.07586116 0.07275970 0.03033433
v -0.07521521 0.07141523 0.03006109
v -0.07434423 0.06758966 0.02914772
v -0.07464471 0.06420705 0.02818963
v -0.07507446 0.06281970 0.02775360
v -0.07591443 0.06107870 0.02716416
v -0.07736071 0.05914167 0.02643642
v -0.07805054 0.05845807 0.02615438
v -0.08022343 0.05675465 0.02670427
v -0.08132798 0.05635455 0.02512420
v -0.08387183 0.05536652 0.02581564
v -0.08633423 0.05511982 0.02540276
v -0.08498715 0.05568453 0.02311083
v -0.07673243 0.05987988 0.02672460
v -0.07545733 0.06193119 0.02745921
v -0.07423349 0.06547593 0.02727332
v -0.07452108 0.06904948 0.02951811
v -0.07451712 0.07034819 0.02855265
v -0.07616659 0.07396668 0.02930054
v -0.07812963 0.07626296 0.02964636
v -0.08688786 0.07969963 0.02934589
v -0.08601453 0.05560541 0.02312808
v -0.08588126 0.07965959 0.02947653
v -0.08388588 0.07934098 0.02967071
v -0.07707807 0.07517092 0.02949848
v -0.07392305 0.06677032 0.02634897
v -0.07549791 0.06168623 0.02475108
v -0.07748885 0.05908081 0.02508428
v -0.07821097 0.05842331 0.02480476
v -0.07939523 0.05755371 0.02440287
v -0.08049949 0.05713220 0.02281509
v -0.08350191 0.05589387 0.02337626
v -0.08755162 0.05394243 0.03406454
v -0.15174405 0.05404890 0.02377321
v -0.15207691 0.05386692 0.02614157
v -0.15038194 0.05560685 0.01408168
v -0.15052959 0.05537324 0.01513227
v -0.15084448 0.05492845 0.01737269
v -0.15104738 0.05467988 0.01881627
v -0.15122096 0.05449058 0.02005139
v -0.15154512 0.05419423 0.02235774
v -0.15136477 0.05568601 0.01378191
v -0.15235528 0.05497848 0.01740024
v -0.15348449 0.05492234 0.01853938
v -0.15583861 0.05563955 0.01840270
v -0.16025573 0.05871482 0.01861452
v -0.16089314 0.05946044 0.01872681
v -0.16146792 0.06025203 0.01886035
v -0.16278055 0.06284870 0.01937892
v -0.16307113 0.06376902 0.01958726
v -0.16316392 0.06943435 0.02110814
v -0.16290329 0.07034370 0.02139098
v -0.15258217 0.07888123 0.02252517
v -0.15869547 0.05631629 0.02341010
v -0.15909773 0.05644175 0.02468549
v -0.15792134 0.05579949 0.02337898
v -0.16010828 0.05752095 0.02353770
v -0.16264758 0.06132801 0.02421158
v -0.16295739 0.06218576 0.02440028
v -0.16271622 0.06127848 0.02665294
v -0.16319530 0.06306274 0.02460429
v -0.16349833 0.06608476 0.02407821
v -0.16340925 0.06541556 0.02650921
v -0.16341408 0.06440149 0.02493601
v -0.16340385 0.06664517 0.02554494
v -0.16329892 0.06789570 0.02459656
v -0.16313203 0.06755228 0.02712670
v -0.16295150 0.06921292 0.02500203
v -0.16273555 0.06884029 0.02753116
v -0.15539943 0.07524217 0.03029558
v -0.15472880 0.07638847 0.02810054
v -0.15394372 0.07601994 0.02941281
v -0.15259925 0.07599338 0.02986171
v -0.15272532 0.07556441 0.03075867
v -0.15287542 0.07661180 0.02842150
v -0.15528080 0.05476767 0.02216903
v -0.15634961 0.05483132 0.02463570
v -0.15494573 0.05449563 0.02344418
v -0.15640365 0.05563498 0.01963282
v -0.15710884 0.05534442 0.02336997
v -0.16102168 0.05876457 0.02244433
v -0.16073757 0.05820078 0.02363332
v -0.16155522 0.05909661 0.02505891
v -0.16181219 0.06015683 0.02140508
v -0.16226794 0.06049520 0.02403945
v -0.16247931 0.06141314 0.02165147
v -0.16283597 0.06228769 0.02183813
v -0.16340290 0.06456093 0.02237394
v -0.16349584 0.06548910 0.02261219
v -0.16242461 0.07006186 0.02660765
v -0.16200101 0.07168750 0.02450052
v -0.16176842 0.07122535 0.02701490
v -0.16122228 0.07282878 0.02491898
v -0.16096227 0.07183355 0.02859083
v -0.16003652 0.07326026 0.02780928
v -0.15930949 0.07431369 0.02689497
v -0.15801647 0.07601277 0.02492351
v -0.15865333 0.07384845 0.02946089
v -0.15783466 0.07480711 0.02853756
v -0.15684733 0.07618488 0.02644256
v -0.15659766 0.07536741 0.02886313
v -0.15596995 0.07651869 0.02665625
v -0.15266690 0.05408561 0.02365345
v -0.15234898 0.05436023 0.02116568
v -0.15759633 0.05653580 0.01839832
v -0.15850528 0.05686656 0.01967089
v -0.15927087 0.05746919 0.01972645
v -0.15998575 0.05812890 0.01980459
v -0.16331647 0.06440123 0.02103473
v -0.16319719 0.06907418 0.02231671
v -0.16025054 0.07429898 0.02414550
v -0.15918991 0.07522455 0.02454517
v -0.15504211 0.05510072 0.01967953
v -0.16224883 0.06124559 0.02033038
v -0.16350257 0.06675237 0.02164515
v -0.16340870 0.06803402 0.02069459
v -0.16237053 0.07165629 0.02182125
v -0.16146213 0.07287544 0.02358978
v -0.16088706 0.07361238 0.02387014
v -0.15630700 0.07683001 0.02538505
v -0.15494110 0.07725578 0.02569230
v -0.15344442 0.05432421 0.02230706
v -0.15362985 0.05473023 0.01977771
v -0.15413837 0.07696903 0.02703561
v -0.15322921 0.07841222 0.02362220
v -0.15125526 0.07970107 0.02029949
v -0.15175477 0.07850051 0.02385334
v -0.15208282 0.07760020 0.02618729
v -0.08492075 0.05422926 0.03800084
v -0.08408079 0.05453143 0.03820071
v -0.08221520 0.05542888 0.03754654
v -0.07968100 0.05807917 0.03977967
v -0.07922208 0.05882433 0.04004592
v -0.07864446 0.05938675 0.03912001
v -0.07801320 0.06344649 0.04146730
v -0.07815792 0.06521022 0.04192450
v -0.07976641 0.07012393 0.04186947
v -0.08069187 0.07039841 0.04297308
v -0.08132815 0.07104985 0.04306003
v -0.08564120 0.07354759 0.04313011
v -0.08587596 0.07419305 0.04211250
v -0.08697225 0.07386250 0.04302830
v -0.08645859 0.05394318 0.04116099
v -0.08730337 0.05377020 0.03869715
v -0.08850038 0.05372593 0.04081519
v -0.08255240 0.05581652 0.04221721
v -0.08317380 0.05505483 0.03962537
v -0.08377587 0.05497273 0.04181679
v -0.08191027 0.05639612 0.04246439
v -0.08176577 0.05604157 0.04009043
v -0.07931467 0.06216478 0.04439109
v -0.07879083 0.06063421 0.04175204
v -0.07989898 0.05947114 0.04357965
v -0.08094943 0.06797969 0.04573574
v -0.07997289 0.06853689 0.04372559
v -0.08009033 0.06642954 0.04543678
v -0.08584159 0.07175442 0.04607018
v -0.08381133 0.07214951 0.04416423
v -0.08331403 0.07041665 0.04606322
v -0.07901219 0.06656991 0.04332805
v -0.07972043 0.06544163 0.04522129
v -0.08832780 0.07400676 0.04287683
v -0.08919457 0.07234006 0.04575748
v -0.08892002 0.07347190 0.04380425
v -0.08834212 0.05372111 0.03968919
v -0.08878108 0.07401641 0.04281574
v -0.08850001 0.07506205 0.04081594
v -0.08802567 0.05376058 0.03743755
v -0.08694232 0.05384430 0.03645311
v -0.08786754 0.05380485 0.03631239
v -0.08836160 0.07230462 0.04586496
v -0.08669992 0.07201945 0.04602130
v -0.08501972 0.07272053 0.04414900
v -0.08368777 0.07337460 0.04219845
v -0.08286759 0.07292221 0.04219124
v -0.08304957 0.07168686 0.04414603
v -0.08171606 0.07212003 0.04213589
v -0.08265689 0.06989474 0.04601427
v -0.08148428 0.06869338 0.04585380
v -0.07984889 0.06933001 0.04280229
v -0.07857905 0.06814419 0.04150032
v -0.07934429 0.06737901 0.04350043
v -0.07834768 0.06608035 0.04213342
v -0.07937942 0.06390078 0.04485202
v -0.07804615 0.06433003 0.04170189
v -0.07930546 0.06303278 0.04462740
v -0.07766216 0.06282178 0.04018812
v -0.07771605 0.06237456 0.04005946
v -0.07852300 0.06188821 0.04212921
v -0.07813063 0.06062842 0.03952842
v -0.07906257 0.05982513 0.04149478
v -0.08041030 0.05837927 0.04321216
v -0.08081251 0.05772331 0.04297803
v -0.08049262 0.05704600 0.03938586
v -0.08112350 0.05623101 0.03791715
v -0.08519107 0.05431141 0.04143883
v -0.08622832 0.05391440 0.03773182
v -0.15239309 0.05376203 0.02839115
v -0.15255129 0.05373411 0.02951683
v -0.15286779 0.05372737 0.03176879
v -0.15667710 0.07340714 0.03310804
v -0.15746577 0.07357638 0.03188364
v -0.15827297 0.07315863 0.03165708
v -0.16149317 0.06969927 0.03142722
v -0.16179699 0.06974956 0.03023876
v -0.16242160 0.06856023 0.02982896
v -0.16315436 0.06389017 0.02962090
v -0.16301623 0.06256821 0.02928239
v -0.16077870 0.05772464 0.02828545
v -0.16017120 0.05704780 0.02818758
v -0.15986663 0.05684401 0.02701584
v -0.15553297 0.05423085 0.02807678
v -0.15464945 0.05400215 0.02813903
v -0.15375164 0.05384870 0.02822367
v -0.15473115 0.07227108 0.03652769
v -0.15416794 0.07343581 0.03462393
v -0.15356196 0.07234150 0.03671108
v -0.15950994 0.07025091 0.03530906
v -0.15902475 0.07168857 0.03346824
v -0.15828647 0.07109470 0.03570948
v -0.16271186 0.06433429 0.03325708
v -0.16268048 0.06657179 0.03156904
v -0.16216338 0.06659629 0.03394662
v -0.16135480 0.05846116 0.03185764
v -0.16212702 0.05982700 0.02982064
v -0.16234191 0.06062580 0.03230499
v -0.15622076 0.05431301 0.03145609
v -0.15765998 0.05505650 0.02915685
v -0.15874831 0.05565078 0.03146306
v -0.16270280 0.06126887 0.02897464
v -0.16255164 0.06141850 0.03249013
v -0.15316312 0.05384579 0.02714623
v -0.15342526 0.07291452 0.03573850
v -0.15314849 0.07401785 0.03376934
v -0.15393369 0.07450850 0.03263244
v -0.15300846 0.07454794 0.03277316
v -0.15448539 0.05386128 0.03157770
v -0.15645160 0.05448548 0.02917208
v -0.15718825 0.05497820 0.02688710
v -0.15800843 0.05543059 0.02689431
v -0.15915589 0.05613166 0.02808223
v -0.15940547 0.05617270 0.03151201
v -0.15997903 0.05670971 0.03157679
v -0.16132526 0.05844841 0.02840460
v -0.16085382 0.05772511 0.03172876
v -0.16187437 0.05938862 0.02742261
v -0.16322733 0.06372499 0.02840655
v -0.16268292 0.06216665 0.03267425
v -0.16314776 0.06477287 0.02986082
v -0.16276269 0.06346913 0.03301569
v -0.16306221 0.06564886 0.03011003
v -0.16287853 0.06729591 0.02942242
v -0.16206478 0.06816120 0.03208591
v -0.16183902 0.06733215 0.03419144
v -0.16124985 0.06834412 0.03454825
v -0.16068155 0.07073243 0.03182103
v -0.16045079 0.06935949 0.03493547
v -0.16041359 0.07151057 0.03091000
v -0.16002686 0.07088052 0.03310861
v -0.15903714 0.07267254 0.03141806
v -0.15829749 0.07215118 0.03369571
v -0.15687127 0.07175601 0.03608744
v -0.15538695 0.07377783 0.03338973
v -0.15560375 0.07212425 0.03636529
v -0.08852030 0.05383708 0.04095697
v -0.08526060 0.05441378 0.04157126
v -0.08145604 0.05709513 0.04283198
v -0.07963915 0.06088323 0.04411298
v -0.08007072 0.06594817 0.04542369
v -0.08189680 0.06891382 0.04596999
v -0.08717694 0.07195810 0.04605213
v -0.08920408 0.07217219 0.04582518
v -0.07948941 0.06343238 0.04482423
v -0.15288772 0.05383852 0.03191056
v -0.15357149 0.07217364 0.03677878
v -0.15800914 0.07106588 0.03585514
v -0.16162066 0.06753331 0.03438445
v -0.16245262 0.06512748 0.03362276
v -0.16048242 0.05743054 0.03181569
v -0.15779679 0.05515921 0.03157818
v -0.08083607 0.06300446 0.04451909
v -0.08108155 0.06466852 0.04493514
v -0.16125609 0.06356474 0.03336781
v -0.16101024 0.06134219 0.03280060
v -0.08195775 0.06675628 0.04537726
v -0.08298764 0.06813107 0.04560474
v -0.15982376 0.05877383 0.03227197
v -0.15869848 0.05747063 0.03207728
v -0.16040912 0.05975417 0.03245512
v -0.15870623 0.06892258 0.03517685
v -0.16013944 0.06723864 0.03451948
v -0.08087622 0.06189035 0.04421180
v -0.08144009 0.05975239 0.04355368
v -0.15629821 0.05588511 0.03198535
v -0.15465039 0.05535653 0.03207383
v -0.15732324 0.05642043 0.03198622
v -0.08688110 0.07051597 0.04570324
v -0.08915415 0.07083313 0.04546964
v -0.08476855 0.06959029 0.04574953
v -0.15293765 0.05517758 0.03226610
v -0.16085170 0.06574203 0.03401416
v -0.15781446 0.06959192 0.03548342
v -0.15630798 0.07034105 0.03589798
v -0.15352155 0.07083458 0.03642324
v -0.15522096 0.07065571 0.03613596
v -0.08260527 0.05787792 0.04288240
v -0.08526245 0.05588351 0.04196894
v -0.08381860 0.05673749 0.04240309
v -0.08687083 0.05535500 0.04159978
v -0.08857024 0.05517614 0.04131250
v -0.08846202 0.05538461 0.04054254
v -0.15282942 0.05538606 0.03149613
v -0.15341333 0.07104305 0.03565327
v -0.15566273 0.07072599 0.03525127
v -0.15722413 0.07008554 0.03485842
v -0.16003123 0.06744711 0.03374951
v -0.16090465 0.06542027 0.03307798
v -0.16110621 0.06265626 0.03230128
v -0.16090201 0.06155066 0.03203063
v -0.16002582 0.05946292 0.03158851
v -0.15899593 0.05808812 0.03136103
v -0.15721503 0.05662890 0.03121625
v -0.15618998 0.05609358 0.03121538
v -0.08904593 0.07104161 0.04469967
v -0.08621263 0.05570167 0.04094453
v -0.08465122 0.05634211 0.04133739
v -0.08287221 0.05767740 0.04194896
v -0.08184413 0.05898055 0.04244629
v -0.08076800 0.06209882 0.04344183
v -0.08250369 0.06790441 0.04476977
v -0.08417782 0.06948004 0.04496108
v -0.12290618 0.07979942 0.02177308
v -0.11454489 0.07979923 0.02294821
v -0.15182622 0.05690258 0.01155977
v -0.15206896 0.05678263 0.01207438
v -0.15254013 0.05611173 0.01460609
v -0.15321976 0.05599159 0.01538078
v -0.15389891 0.05603580 0.01571280
v -0.15559882 0.05656785 0.01578103
v -0.15700346 0.07731946 0.02120220
v -0.15541603 0.07798472 0.02160236
v -0.15925956 0.07580011 0.02047373
v -0.16022630 0.07485122 0.02008094
v -0.16143611 0.07322820 0.01947146
v -0.16254376 0.07077278 0.01865097
v -0.16301887 0.06811132 0.01786359
v -0.16300948 0.06674962 0.01749622
v -0.16268624 0.06472199 0.01699266
v -0.16200200 0.06276906 0.01656007
v -0.16097830 0.06095241 0.01621208
v -0.15914255 0.05884037 0.01589825
v -0.15746893 0.05755373 0.01578511
v -0.15472700 0.07822509 0.02160449
v -0.15360643 0.07867641 0.02095859
v -0.15318207 0.07899689 0.01999792
v -0.15280890 0.07960732 0.01778799
v -0.15225932 0.07980816 0.01735072
v -0.11568239 0.07870157 0.02924617
v -0.11547349 0.07890989 0.02849093
v -0.11627441 0.07840910 0.03026455
v -0.11683207 0.07823871 0.03082796
v -0.11785803 0.07803682 0.03144421
v -0.11862884 0.07794581 0.03167876
v -0.12024122 0.07788360 0.03168654
v -0.12101897 0.07791489 0.03145945
v -0.12206332 0.07803692 0.03085318
v -0.12308788 0.07832099 0.02963938
v -0.12349202 0.07860059 0.02852960
v -0.12354140 0.07891007 0.02735703
v -0.11456636 0.08037480 0.02310103
v -0.12292765 0.08037499 0.02192591
v -0.16155453 0.07344097 0.01810100
v -0.15439776 0.05619917 0.01443985
v -0.15523475 0.07861399 0.02037969
v -0.16298573 0.06695578 0.01614396
v -0.15883641 0.05880729 0.01452090
v -0.15641183 0.05701949 0.01440458
v -0.15389121 0.05593090 0.01436746
v -0.15404755 0.05616957 0.01432038
v -0.15379034 0.05614682 0.01407113
v -0.15366839 0.05619041 0.01375461
v -0.15461107 0.05608306 0.01459683
v -0.16268763 0.06451311 0.01558952
v -0.16034558 0.06013530 0.01473338
v -0.16290474 0.07033458 0.01713519
v -0.16316588 0.06742385 0.01631040
v -0.16208512 0.07262269 0.01783184
v -0.15761302 0.07760291 0.01980881
v -0.15955259 0.07613526 0.01913883
v -0.15516803 0.07879456 0.02062306
v -0.16156568 0.06171498 0.01514423
v -0.15899409 0.05861161 0.01466541
v -0.16095325 0.07470634 0.01874777
v -0.16300143 0.06542542 0.01594706
v -0.15810955 0.07737589 0.01987025
v -0.16243824 0.06351809 0.01550979
v -0.15682633 0.07811317 0.02025023
v -0.16033252 0.07546008 0.01903910
v -0.16175669 0.07348477 0.01830411
v -0.16239627 0.07217067 0.01785842
v -0.16314763 0.06934568 0.01698793
v -0.16324802 0.06787766 0.01657635
v -0.16040722 0.06006466 0.01486022
v -0.15778980 0.05767505 0.01458110
v -0.15602618 0.05665763 0.01455350
v -0.15471178 0.07889868 0.02020633
v -0.15450644 0.07913663 0.02022499
v -0.15452194 0.07907757 0.01983145
v -0.15492965 0.07876755 0.02034176
v -0.15600902 0.07817499 0.02157361
v -0.15473203 0.07863916 0.02171163
v -0.15422997 0.07884217 0.02155059
v -0.15346523 0.07924008 0.02086416
v -0.16323496 0.06904548 0.01808615
v -0.16332760 0.06709035 0.01754377
v -0.16317959 0.06562109 0.01716676
v -0.16281374 0.07094762 0.01866036
v -0.15735266 0.07755100 0.02121581
v -0.16165356 0.06143543 0.01624795
v -0.16284741 0.06417425 0.01682171
v -0.16207533 0.07274522 0.01925085
v -0.15945780 0.05868529 0.01581195
v -0.16049536 0.05979102 0.01596551
v -0.16233614 0.06277189 0.01651387
v -0.16103977 0.07438958 0.01984162
v -0.15565361 0.05619500 0.01567237
v -0.15787926 0.05741309 0.01568937
v -0.16008468 0.07549527 0.02027522
v -0.15860103 0.07676739 0.02082818
v -0.15233865 0.05573055 0.01396077
v -0.15282738 0.05556957 0.01492505
v -0.15400951 0.05564918 0.01563933
v -0.15312912 0.05669193 0.01100229
v -0.15329725 0.05684831 0.01111392
v -0.15401985 0.08003491 0.01713162
v -0.15415478 0.07984193 0.01721917
v -0.15293731 0.08006659 0.01825658
v -0.15200272 0.05627022 0.01174099
v -0.15281104 0.08018036 0.01790503
v -0.15293074 0.06337959 0.00850722
v -0.15288886 0.06035808 0.00827913
v -0.15305048 0.05833563 0.00935841
v -0.15354815 0.07818997 0.01297936
v -0.15339255 0.07624404 0.01187200
v -0.15315795 0.07555544 0.01156286
v -0.15327783 0.07743177 0.01227157
v -0.15338740 0.07815434 0.01279527
v -0.15352669 0.07903120 0.01378645
v -0.15368383 0.07964769 0.01498052
v -0.15382275 0.07990737 0.01592311
v -0.15369600 0.07924069 0.01424902
v -0.11038832 0.05774149 0.01512819
v -0.12499110 0.05772731 0.01308856
v -0.15200646 0.05764585 0.00961783
v -0.15286350 0.05849376 0.00902095
v -0.15301771 0.05771585 0.00971750
v -0.15178090 0.05883377 0.00872993
v -0.15275025 0.06016826 0.00821543
v -0.15274119 0.06263720 0.00815143
v -0.15278746 0.06097078 0.00807978
v -0.15270579 0.06343137 0.00834376
v -0.15254810 0.07940947 0.01419314
v -0.15184471 0.07891329 0.01348898
v -0.15139645 0.07656813 0.01208840
v -0.15165690 0.07998966 0.01528382
v -0.15236785 0.08018134 0.01611347
v -0.15014878 0.07708732 0.01242789
v -0.15018590 0.07770175 0.01269351
v -0.15171643 0.07838718 0.01298622
v -0.15149750 0.07956386 0.01438380
v -0.15021837 0.07809804 0.01292492
v -0.15027949 0.07865863 0.01335918
v -0.15035449 0.07916135 0.01389105
v -0.15047115 0.07971173 0.01471833
v -0.15056613 0.08001898 0.01539283
v -0.15078996 0.08038475 0.01698744
v -0.15066308 0.08023183 0.01608266
v -0.15041089 0.07945547 0.01429091
v -0.15030305 0.07883356 0.01352635
v -0.08635903 0.08032332 0.02558574
v -0.08623005 0.08009883 0.02466889
v -0.08613425 0.07982321 0.02398628
v -0.08607285 0.07958711 0.02354814
v -0.08601478 0.07931146 0.02313343
v -0.08589094 0.07847580 0.02224924
v -0.08583484 0.07790023 0.02184971
v -0.08580544 0.07749751 0.02164105
v -0.08574679 0.07625308 0.02122634
v -0.08578185 0.07708587 0.02147422
v -0.08593626 0.07883211 0.02257266
v -0.08237042 0.05741319 0.01994146
v -0.08082502 0.05825432 0.01994348
v -0.07885391 0.05901772 0.02086716
v -0.07748509 0.05995701 0.02153540
v -0.07425536 0.07053065 0.02441558
v -0.07664270 0.07573398 0.02592653
v -0.07621988 0.07496987 0.02511755
v -0.07768197 0.07685477 0.02608309
v -0.08427224 0.08014528 0.02583029
v -0.07991476 0.06399126 0.01875326
v -0.07813051 0.06916010 0.02038000
v -0.08522638 0.06227946 0.01752061
v -0.07474130 0.06737269 0.02221700
v -0.07483932 0.06554258 0.02211595
v -0.07412017 0.06690518 0.02345295
v -0.07433446 0.06572232 0.02310189
v -0.07511906 0.06435765 0.02196679
v -0.07467361 0.06457712 0.02274323
v -0.07546385 0.06307828 0.02200472
v -0.07636996 0.06149769 0.02166788
v -0.08382503 0.05899173 0.01810850
v -0.08524595 0.05939837 0.01765897
v -0.08528969 0.05871147 0.01797232
v -0.08284955 0.05873417 0.01854103
v -0.08151778 0.06005783 0.01839103
v -0.08092541 0.05937362 0.01898208
v -0.08000769 0.05983315 0.01923463
v -0.07973738 0.06072279 0.01897852
v -0.07846855 0.06141272 0.01951244
v -0.07603443 0.06463976 0.02073119
v -0.07632788 0.06492202 0.02043857
v -0.07678549 0.06405540 0.02013886
v -0.07536700 0.06535278 0.02138530
v -0.08384811 0.05814204 0.01863885
v -0.07818252 0.06065412 0.02010971
v -0.07784408 0.06230400 0.01967302
v -0.07677899 0.06238445 0.02057511
v -0.07616915 0.06327261 0.02090235
v -0.08387189 0.05776098 0.01895196
v -0.08537111 0.05784735 0.01855362
v -0.08183903 0.05822024 0.01935899
v -0.07987604 0.05906964 0.01986259
v -0.07761703 0.06051955 0.02078811
v -0.07895061 0.05964153 0.02014700
v -0.07510602 0.06700582 0.02168321
v -0.08445896 0.05704731 0.01955123
v -0.08546236 0.05716918 0.01920249
v -0.07981773 0.05843091 0.02057323
v -0.08551479 0.05685971 0.01957450
v -0.07727531 0.07568584 0.02410672
v -0.07803101 0.07650077 0.02422034
v -0.07845694 0.07601602 0.02314105
v -0.07945923 0.07725770 0.02366324
v -0.08409696 0.07927725 0.02356214
v -0.08313692 0.07876266 0.02322876
v -0.08262832 0.07915939 0.02410097
v -0.08129655 0.07805505 0.02329424
v -0.08069775 0.07833426 0.02414690
v -0.07924587 0.07765556 0.02456340
v -0.08112986 0.07877900 0.02460372
v -0.08414914 0.07974790 0.02444575
v -0.08516369 0.07988204 0.02434070
v -0.07546290 0.06925424 0.02173522
v -0.07481128 0.06908209 0.02247512
v -0.07587671 0.07172394 0.02234501
v -0.07526406 0.07125164 0.02281062
v -0.07457663 0.06954950 0.02303187
v -0.07474945 0.07121562 0.02366551
v -0.07963974 0.07812170 0.02505374
v -0.07739489 0.07632415 0.02509919
v -0.08263417 0.07954176 0.02502013
v -0.07432921 0.06771368 0.02298904
v -0.07421055 0.06882632 0.02352281
v -0.07509208 0.07232279 0.02391623
v -0.07908545 0.07798020 0.02596876
v -0.08109745 0.07915316 0.02600436
v -0.08320959 0.07991502 0.02591599
v -0.07595301 0.07445272 0.02479731
v -0.07587218 0.07331426 0.02346940
v -0.07545640 0.07340327 0.02436852
v -0.07523841 0.07341401 0.02505596
v -0.07665126 0.07358761 0.02273935
v -0.07717384 0.07445468 0.02289989
v -0.07455788 0.07171385 0.02469274
v -0.07394808 0.06922771 0.02454766
v -0.08520817 0.06154746 0.01738905
v -0.08191511 0.06188345 0.01800558
v -0.08373743 0.07703131 0.02177093
v -0.08306605 0.06125598 0.01773204
v -0.07737590 0.06625313 0.01988482
v -0.07695283 0.06781940 0.02036866
v -0.07764684 0.06764792 0.02008644
v -0.07685065 0.06944465 0.02082319
v -0.07761265 0.07058349 0.02088610
v -0.07762179 0.07310653 0.02177635
v -0.08082585 0.07564929 0.02180577
v -0.07870815 0.07337674 0.02148823
v -0.08120452 0.07683776 0.02228235
v -0.08284364 0.07738341 0.02212964
v -0.07810623 0.06480289 0.01938915
v -0.07995308 0.06335845 0.01863492
v -0.07939681 0.07329438 0.02132138
v -0.08520476 0.06083375 0.01736370
v -0.08339676 0.06022778 0.01776878
v -0.08140582 0.06161089 0.01813152
v -0.07929934 0.06213327 0.01885855
v -0.07801319 0.06341607 0.01938707
v -0.07624146 0.06848685 0.02090116
v -0.07667260 0.07113632 0.02146068
v -0.08522961 0.05975422 0.01754175
v -0.08520902 0.06047105 0.01739411
v -0.08250944 0.06044516 0.01795172
v -0.08003266 0.06159488 0.01860981
v -0.07701534 0.06493352 0.01993906
v -0.07653730 0.06673165 0.02038386
v -0.07655175 0.07208206 0.02194065
v -0.07759532 0.07417583 0.02235968
v -0.07889454 0.07550320 0.02242586
v -0.07977232 0.07581840 0.02220757
v -0.08014358 0.07701102 0.02289080
v -0.08225645 0.07813391 0.02289883
v -0.08408017 0.07830221 0.02245634
v -0.07559569 0.06727061 0.02117897
v -0.14971863 0.05803783 0.00935946
v -0.14957488 0.06154891 0.00834275
v -0.14964715 0.05885079 0.00885335
v -0.14961305 0.05939981 0.00861261
v -0.14959644 0.05975567 0.00849543
v -0.14957550 0.06047250 0.00834784
v -0.14959361 0.06228090 0.00847423
v -0.14150757 0.05847720 0.01020553
v -0.14986514 0.05696076 0.01040235
v -0.14979158 0.05743546 0.00987798
v -0.15149544 0.06069946 0.00812834
v -0.15140633 0.06139840 0.00811171
v -0.15112649 0.05966115 0.00837727
v -0.15151173 0.05722661 0.01001856
v -0.15138124 0.05791777 0.00934575
v -0.12479743 0.05809910 0.01346763
v -0.11086443 0.05638222 0.01851574
v -0.12522332 0.05638254 0.01649770
v -0.10914164 0.05686847 0.01624305
v -0.10939433 0.05713635 0.01587725
v -0.12616701 0.05694745 0.01374902
v -0.12478124 0.05747569 0.01335234
v -0.12657209 0.05629320 0.01464840
v -0.10906850 0.05627627 0.01715414
v -0.12579562 0.05728517 0.01345015
v -0.12638694 0.05691597 0.01389420
v -0.12504356 0.05755505 0.01330763
v -0.12578698 0.05599875 0.01619708
v -0.12520494 0.05594731 0.01636680
v -0.12565714 0.05594068 0.01613754
v -0.10918496 0.05623870 0.01767462
v -0.10995185 0.05605261 0.01830191
v -0.11083317 0.05592263 0.01829321
v -0.10895703 0.05676481 0.01656065
v -0.11041887 0.05757114 0.01534558
f 1 3 2
f 2 3 4
f 5 7 6
f 6 7 8
f 8 7 9
f 10 9 11
f 10 11 12
f 12 11 13
f 13 11 14
f 14 11 15
f 16 15 17
f 16 17 18
f 18 17 19
f 19 17 20
f 20 17 21
f 20 21 22
f 21 24 23
f 23 24 25
f 25 24 26
f 26 24 27
f 26 27 28
f 28 27 29
f 29 27 30
f 30 27 31
f 30 31 32
f 32 31 33
f 33 31 34
f 34 31 35
f 36 35 37
f 36 37 38
f 38 37 39
f 39 37 40
f 40 37 41
f 41 37 42
f 41 42 43
f 43 42 44
f 44 42 45
f 45 42 46
f 46 42 47
f 46 47 48
f 48 47 49
f 49 47 50
f 50 47 51
f 51 47 52
f 51 52 53
f 53 52 54
f 54 52 55
f 55 52 56
f 56 52 3
f 56 3 57
f 57 3 58
f 58 3 1
f 59 60 5
f 5 60 7
f 2 4 61
f 61 4 62
f 62 4 63
f 64 63 65
f 64 65 66
f 66 65 67
f 67 65 68
f 68 65 69
f 68 69 70
f 70 69 71
f 71 69 72
f 72 69 73
f 73 69 74
f 73 74 75
f 75 74 76
f 76 74 77
f 77 74 78
f 78 74 79
f 80 79 81
f 80 81 82
f 82 81 83
f 83 81 84
f 84 81 85
f 85 81 86
f 86 88 87
f 87 88 89
f 89 88 90
f 90 88 91
f 91 88 92
f 93 92 94
f 93 94 95
f 95 94 96
f 96 94 97
f 97 94 98
f 99 98 100
f 99 100 101
f 101 100 102
f 102 100 103
f 103 100 104
f 104 100 105
f 104 105 106
f 106 105 107
f 107 105 108
f 108 105 60
f 108 60 109
f 109 60 110
f 110 60 59
f 4 3 111
f 111 3 112
f 112 3 113
f 113 3 52
f 113 52 114
f 114 52 47
f 114 47 115
f 115 47 116
f 116 47 42
f 116 42 117
f 117 42 37
f 117 37 118
f 118 37 35
f 118 35 119
f 119 35 31
f 119 31 120
f 120 31 121
f 121 31 27
f 121 27 24
f 121 24 122
f 122 24 123
f 123 24 21
f 123 21 17
f 123 17 124
f 124 17 15
f 124 15 11
f 124 11 125
f 125 11 9
f 125 9 126
f 126 9 7
f 126 7 127
f 7 60 127
f 127 60 128
f 128 60 129
f 129 60 105
f 129 105 130
f 130 105 100
f 130 100 131
f 131 100 98
f 131 98 132
f 132 98 94
f 132 94 133
f 133 94 92
f 133 92 134
f 134 92 88
f 134 88 135
f 135 88 86
f 135 86 81
f 135 81 136
f 136 81 79
f 136 79 137
f 137 79 74
f 137 74 138
f 138 74 69
f 138 69 139
f 139 69 140
f 140 69 65
f 140 65 141
f 141 65 63
f 141 63 4
f 141 4 111
f 142 144 143
f 145 146 142
f 142 146 144
f 147 149 148
f 149 150 148
f 149 147 151
f 151 147 152
f 150 153 148
f 148 153 154
f 145 155 146
f 156 155 145
f 156 157 155
f 154 155 157
f 154 153 155
f 158 160 159
f 159 160 161
f 159 161 162
f 163 165 164
f 163 166 165
f 167 169 168
f 168 169 170
f 167 171 169
f 162 161 172
f 173 151 174
f 174 151 152
f 165 175 164
f 164 175 176
f 164 176 177
f 178 180 179
f 178 179 181
f 168 170 182
f 168 182 178
f 178 182 180
f 183 185 184
f 186 188 187
f 158 159 189
f 158 189 190
f 177 176 191
f 177 191 174
f 174 191 173
f 163 193 192
f 163 192 166
f 184 194 171
f 184 171 167
f 185 195 184
f 184 195 194
f 196 197 183
f 183 197 185
f 186 198 188
f 162 172 199
f 162 199 200
f 188 201 187
f 187 201 196
f 196 201 197
f 202 203 186
f 186 203 198
f 181 179 193
f 181 193 163
f 200 199 204
f 200 204 202
f 202 204 203
f 205 207 206
f 205 206 208
f 206 209 208
f 210 209 206
f 210 211 209
f 209 211 212
f 212 211 213
f 212 213 214
f 213 215 214
f 216 217 215
f 216 218 217
f 218 216 219
f 218 219 220
f 221 223 222
f 224 226 225
f 227 228 225
f 225 228 229
f 222 231 230
f 232 234 233
f 235 237 236
f 235 236 238
f 239 241 240
f 242 244 243
f 243 245 242
f 232 233 243
f 243 233 245
f 234 232 246
f 246 232 247
f 225 229 224
f 248 249 228
f 248 228 227
f 250 252 251
f 230 231 253
f 247 254 246
f 255 205 237
f 255 237 235
f 226 256 239
f 239 256 241
f 226 224 256
f 248 257 249
f 258 257 248
f 251 258 250
f 230 253 252
f 230 252 250
f 231 222 223
f 221 222 259
f 242 259 244
f 244 259 222
f 238 261 260
f 260 261 262
f 238 236 261
f 254 247 262
f 262 247 260
f 258 251 257
f 263 264 219
f 219 264 265
f 265 220 219
f 266 268 267
f 267 268 269
f 267 269 270
f 270 269 271
f 270 271 272
f 273 268 266
f 273 266 274
f 275 277 276
f 275 276 278
f 279 277 275
f 280 281 279
f 279 281 277
f 282 284 283
f 283 284 285
f 283 285 286
f 286 285 287
f 286 287 288
f 288 287 289
f 288 289 290
f 290 289 291
f 290 291 292
f 292 291 293
f 292 293 294
f 294 293 295
f 294 295 296
f 296 295 297
f 296 297 298
f 298 297 299
f 298 299 300
f 298 300 301
f 301 300 302
f 302 300 303
f 302 303 304
f 302 304 305
f 305 304 306
f 305 306 307
f 307 306 308
f 308 309 307
f 307 309 310
f 311 284 312
f 312 284 282
f 313 315 314
f 313 317 316
f 313 316 315
f 314 315 318
f 319 320 318
f 318 320 321
f 318 321 322
f 318 322 314
f 322 324 323
f 322 321 324
f 323 324 325
f 325 326 323
f 327 319 328
f 328 319 318
f 328 318 315
f 320 319 329
f 329 319 327
f 324 330 325
f 321 330 324
f 320 329 330
f 320 330 321
f 323 332 331
f 331 158 323
f 332 323 326
f 314 334 333
f 314 333 335
f 336 314 335
f 280 279 336
f 336 279 313
f 337 338 322
f 339 340 314
f 314 340 334
f 323 158 341
f 342 337 322
f 336 313 314
f 341 158 190
f 338 343 322
f 322 343 344
f 322 344 314
f 314 344 339
f 342 322 341
f 341 322 323
f 345 346 317
f 317 313 279
f 347 317 279
f 281 280 311
f 311 280 336
f 311 336 284
f 284 336 285
f 341 306 304
f 341 304 342
f 342 304 303
f 342 303 337
f 337 303 300
f 337 300 338
f 338 300 299
f 338 299 343
f 343 299 297
f 343 297 344
f 344 297 295
f 344 295 339
f 339 295 340
f 340 295 293
f 340 293 291
f 340 291 334
f 334 291 333
f 333 291 289
f 333 289 287
f 333 287 335
f 335 287 336
f 336 287 285
f 308 306 309
f 309 306 341
f 190 189 309
f 309 341 190
f 348 150 149
f 348 349 153
f 348 153 150
f 155 153 349
f 350 352 351
f 350 351 353
f 350 353 354
f 354 353 355
f 356 358 357
f 356 357 359
f 355 360 354
f 354 360 361
f 357 362 359
f 359 362 350
f 350 362 352
f 363 364 356
f 356 364 358
f 365 367 366
f 365 366 368
f 369 371 370
f 372 373 369
f 369 373 371
f 270 272 372
f 372 272 373
f 360 374 361
f 361 374 375
f 375 374 376
f 369 370 367
f 369 367 365
f 363 378 377
f 363 377 364
f 368 380 379
f 368 379 363
f 363 379 378
f 368 366 380
f 381 382 375
f 381 375 383
f 383 375 376
f 384 386 385
f 385 386 387
f 385 387 382
f 385 382 381
f 278 276 384
f 384 276 386
f 273 274 388
f 388 274 142
f 388 142 143
f 389 328 390
f 390 328 391
f 317 346 316
f 346 391 316
f 316 391 315
f 315 391 328
f 327 328 392
f 328 389 392
f 329 327 392
f 329 392 393
f 393 392 394
f 394 392 389
f 393 394 395
f 395 330 393
f 330 329 393
f 325 330 395
f 395 397 396
f 396 397 398
f 325 396 326
f 395 396 325
f 326 396 332
f 396 398 332
f 332 398 399
f 332 399 331
f 400 346 345
f 347 345 317
f 391 346 400
f 400 345 347
f 401 403 402
f 404 406 405
f 407 406 408
f 407 408 409
f 410 412 411
f 411 414 413
f 415 417 416
f 417 418 416
f 419 421 420
f 419 420 422
f 422 420 423
f 422 423 424
f 424 423 425
f 424 425 426
f 426 425 427
f 426 427 428
f 429 428 430
f 429 430 431
f 431 432 418
f 418 432 416
f 411 433 410
f 410 433 409
f 409 434 407
f 407 435 406
f 406 435 405
f 405 436 404
f 404 436 437
f 437 436 438
f 437 438 403
f 401 402 439
f 440 442 441
f 441 442 443
f 443 442 444
f 443 444 445
f 445 444 446
f 447 449 448
f 447 448 450
f 450 448 451
f 450 451 452
f 452 451 453
f 452 453 397
f 452 397 454
f 455 397 453
f 448 449 456
f 456 449 457
f 457 449 446
f 457 446 444
f 458 402 403
f 458 403 438
f 434 409 459
f 459 409 433
f 433 411 413
f 414 461 460
f 460 461 415
f 460 415 462
f 462 415 416
f 432 431 430
f 420 421 463
f 463 464 420
f 420 464 465
f 420 465 423
f 423 465 466
f 423 466 425
f 425 466 467
f 425 467 427
f 427 467 468
f 427 468 428
f 428 468 430
f 430 469 432
f 432 462 416
f 460 470 414
f 414 470 471
f 414 471 413
f 413 471 433
f 433 471 459
f 459 472 434
f 434 472 407
f 407 473 435
f 435 473 474
f 435 474 405
f 405 474 436
f 436 474 475
f 436 475 438
f 458 476 402
f 402 476 477
f 402 477 439
f 439 477 478
f 439 478 440
f 440 478 442
f 442 478 479
f 442 479 444
f 444 479 480
f 444 480 457
f 456 481 448
f 453 451 482
f 453 482 455
f 482 451 483
f 483 451 448
f 483 448 481
f 481 456 457
f 481 457 484
f 484 457 480
f 485 478 477
f 476 458 486
f 486 458 438
f 473 407 472
f 472 459 487
f 462 432 488
f 488 432 469
f 469 430 489
f 489 430 468
f 399 455 482
f 490 482 483
f 490 483 491
f 491 483 481
f 491 481 492
f 480 479 493
f 493 479 494
f 494 479 478
f 494 478 485
f 495 485 477
f 486 438 496
f 496 438 475
f 496 475 497
f 497 475 474
f 474 473 498
f 498 473 472
f 498 472 499
f 499 472 487
f 487 459 500
f 500 459 471
f 500 471 501
f 501 471 470
f 502 470 460
f 488 469 503
f 503 469 489
f 468 467 504
f 504 467 466
f 466 465 505
f 505 465 464
f 505 464 506
f 463 507 464
f 464 507 506
f 399 482 508
f 508 482 490
f 508 490 509
f 492 481 510
f 510 481 484
f 510 484 511
f 511 484 480
f 511 480 512
f 512 480 493
f 494 485 513
f 513 485 495
f 495 477 476
f 495 476 514
f 514 476 486
f 515 486 496
f 497 474 516
f 516 474 498
f 499 487 517
f 517 487 500
f 517 500 518
f 518 500 501
f 501 470 519
f 519 470 502
f 502 460 462
f 502 462 520
f 520 462 488
f 520 488 521
f 521 488 503
f 503 489 522
f 522 489 468
f 522 468 523
f 523 468 504
f 504 466 524
f 524 466 505
f 505 506 525
f 525 526 505
f 520 527 502
f 502 527 519
f 519 528 501
f 501 528 518
f 517 529 499
f 498 499 516
f 516 530 497
f 496 497 531
f 496 531 515
f 486 515 514
f 514 532 495
f 495 532 513
f 494 513 533
f 494 533 493
f 493 533 512
f 492 510 491
f 491 509 490
f 508 534 399
f 526 525 535
f 534 508 536
f 536 508 509
f 509 491 537
f 537 491 510
f 204 510 511
f 533 513 538
f 538 513 532
f 514 515 185
f 185 515 531
f 531 497 530
f 516 499 539
f 539 499 529
f 528 519 540
f 540 519 527
f 527 520 541
f 541 520 521
f 541 521 542
f 542 521 503
f 542 503 543
f 543 503 522
f 543 522 544
f 544 522 523
f 504 524 545
f 545 524 505
f 545 505 526
f 161 536 509
f 161 509 537
f 199 537 510
f 199 510 204
f 204 511 203
f 203 511 512
f 203 512 198
f 198 512 533
f 198 533 188
f 188 533 538
f 538 532 201
f 201 532 197
f 197 532 514
f 197 514 185
f 195 531 530
f 195 530 194
f 194 530 516
f 194 516 171
f 171 516 539
f 539 529 169
f 169 529 517
f 169 517 170
f 170 517 518
f 170 518 182
f 182 518 528
f 182 528 540
f 540 527 179
f 179 527 541
f 193 541 542
f 543 544 166
f 544 523 175
f 175 523 504
f 175 504 545
f 175 545 176
f 176 545 191
f 191 545 526
f 526 535 173
f 534 536 160
f 160 536 161
f 172 161 537
f 172 537 199
f 188 538 201
f 185 531 195
f 171 539 169
f 182 540 180
f 180 540 179
f 179 541 193
f 193 542 192
f 192 542 543
f 192 543 166
f 166 544 165
f 165 544 175
f 191 526 173
f 546 548 547
f 144 155 549
f 549 155 349
f 349 348 535
f 535 348 173
f 348 149 173
f 144 146 155
f 173 149 151
f 549 349 535
f 549 535 550
f 550 535 525
f 550 525 551
f 551 525 506
f 551 506 552
f 552 506 507
f 552 507 553
f 553 507 463
f 553 463 554
f 554 463 421
f 554 421 547
f 547 421 419
f 547 419 546
f 143 144 555
f 555 388 143
f 273 555 268
f 556 268 555
f 557 271 269
f 272 558 373
f 367 559 366
f 366 559 560
f 366 560 561
f 366 561 380
f 379 562 378
f 378 562 563
f 378 563 377
f 357 564 362
f 362 564 565
f 362 565 352
f 384 385 566
f 567 569 568
f 567 568 570
f 571 573 572
f 572 573 574
f 575 577 576
f 575 576 578
f 578 580 579
f 579 580 581
f 581 580 582
f 583 585 584
f 586 588 587
f 589 591 590
f 589 590 592
f 592 590 593
f 594 570 595
f 594 595 596
f 594 596 597
f 597 596 598
f 599 598 571
f 599 571 600
f 600 571 572
f 601 574 577
f 601 577 602
f 602 577 575
f 575 578 579
f 581 582 603
f 604 603 605
f 605 607 606
f 606 607 608
f 609 611 610
f 610 611 612
f 613 612 614
f 613 614 615
f 615 614 583
f 615 583 584
f 547 616 554
f 554 616 617
f 592 593 569
f 592 569 618
f 618 569 619
f 619 569 567
f 619 567 620
f 620 567 570
f 620 570 621
f 621 570 594
f 597 598 599
f 600 572 574
f 600 574 622
f 622 574 601
f 623 579 581
f 604 605 606
f 606 608 624
f 624 608 625
f 625 608 609
f 610 612 613
f 626 589 592
f 626 592 558
f 621 594 560
f 560 594 561
f 561 594 597
f 597 599 627
f 627 599 562
f 562 599 600
f 562 600 563
f 563 600 622
f 622 601 602
f 628 602 575
f 628 575 579
f 628 579 629
f 629 579 623
f 623 581 565
f 565 581 603
f 565 603 630
f 630 603 604
f 630 604 631
f 631 604 606
f 631 606 632
f 632 606 624
f 625 609 610
f 610 613 633
f 633 613 615
f 633 615 634
f 617 552 553
f 617 553 554
f 620 621 559
f 559 621 560
f 561 597 380
f 380 597 627
f 629 623 564
f 564 623 565
f 271 626 272
f 272 626 558
f 558 592 373
f 373 592 618
f 373 618 371
f 371 618 619
f 371 619 370
f 370 619 620
f 370 620 367
f 367 620 559
f 380 627 379
f 379 627 562
f 563 622 377
f 377 622 602
f 377 602 364
f 364 602 628
f 364 628 358
f 358 628 629
f 358 629 357
f 357 629 564
f 565 630 352
f 352 630 351
f 351 630 631
f 351 631 353
f 353 631 632
f 353 632 355
f 355 632 624
f 355 624 360
f 360 624 625
f 360 625 610
f 360 610 374
f 374 610 633
f 374 633 376
f 376 633 383
f 383 633 634
f 556 551 552
f 616 635 617
f 617 635 636
f 556 636 557
f 556 269 268
f 556 557 269
f 635 591 589
f 635 589 636
f 636 589 626
f 636 626 557
f 557 626 271
f 615 584 634
f 383 634 381
f 584 637 634
f 634 637 638
f 634 638 381
f 381 638 385
f 584 585 588
f 584 588 637
f 638 566 385
f 556 550 551
f 566 640 639
f 555 549 550
f 555 550 556
f 556 552 617
f 616 547 548
f 617 636 556
f 555 273 388
f 637 588 641
f 637 641 638
f 278 384 275
f 585 587 588
f 638 641 640
f 638 640 566
f 566 639 384
f 384 639 275
f 275 639 279
f 555 144 549
f 397 395 454
f 389 586 394
f 454 395 394
f 389 390 586
f 586 390 588
f 397 455 398
f 455 399 398
f 331 399 534
f 331 534 158
f 158 534 160
f 394 586 454
f 454 586 587
f 639 347 279
f 640 400 347
f 640 347 639
f 641 400 640
f 641 391 400
f 390 391 588
f 588 391 641
f 424 426 642
f 426 428 643
f 428 429 644
f 415 461 645
f 461 414 646
f 414 411 647
f 408 406 648
f 406 404 649
f 401 439 650
f 439 440 651
f 440 441 652
f 449 447 653
f 447 450 654
f 450 452 655
f 656 658 657
f 659 661 660
f 662 659 663
f 664 666 665
f 667 669 668
f 670 672 671
f 669 674 673
f 675 677 676
f 657 658 678
f 675 680 679
f 675 679 677
f 657 678 681
f 657 681 682
f 682 681 683
f 682 683 546
f 452 454 680
f 675 452 680
f 684 675 676
f 655 452 675
f 655 675 684
f 654 450 655
f 685 655 684
f 653 654 655
f 653 655 685
f 653 447 654
f 670 653 685
f 686 653 670
f 446 449 687
f 687 449 653
f 687 653 686
f 445 446 687
f 671 687 686
f 671 686 670
f 443 445 688
f 688 445 687
f 688 687 671
f 689 688 671
f 689 671 672
f 688 689 690
f 688 690 443
f 443 690 441
f 690 689 672
f 652 441 690
f 652 690 691
f 691 690 672
f 651 440 652
f 651 652 691
f 692 651 691
f 650 439 651
f 693 650 651
f 693 651 667
f 667 651 692
f 693 401 650
f 668 693 667
f 403 401 694
f 694 401 693
f 694 693 668
f 695 694 668
f 695 668 669
f 437 403 694
f 695 669 673
f 695 673 694
f 694 673 404
f 694 404 437
f 696 404 673
f 696 673 674
f 649 404 696
f 649 696 697
f 697 696 674
f 698 406 649
f 698 649 697
f 648 406 698
f 648 698 699
f 699 698 697
f 700 408 648
f 700 648 664
f 664 648 699
f 409 408 700
f 701 409 700
f 701 700 702
f 702 700 664
f 410 409 701
f 412 410 701
f 412 701 665
f 665 701 702
f 665 702 664
f 412 665 703
f 412 703 411
f 704 703 665
f 704 665 666
f 647 411 703
f 647 703 704
f 646 647 704
f 646 704 666
f 646 414 647
f 705 646 666
f 645 646 705
f 645 461 646
f 706 645 705
f 417 415 645
f 417 645 707
f 707 645 706
f 662 707 706
f 418 417 708
f 708 417 663
f 663 417 707
f 663 707 662
f 431 418 708
f 663 659 660
f 663 660 644
f 663 644 708
f 708 644 431
f 431 644 429
f 643 428 644
f 643 644 660
f 643 660 661
f 709 643 661
f 642 426 643
f 642 643 709
f 656 642 709
f 710 424 642
f 710 642 656
f 422 424 710
f 657 710 656
f 419 422 682
f 682 422 710
f 682 710 657
f 419 682 546
f 548 546 683
f 548 683 711
f 711 683 681
f 711 681 712
f 712 681 678
f 712 678 713
f 713 678 658
f 583 614 714
f 614 612 715
f 612 611 716
f 607 605 717
f 605 603 718
f 603 582 719
f 576 577 720
f 577 574 721
f 596 595 722
f 595 570 723
f 570 568 724
f 590 591 725
f 591 635 726
f 635 616 727
f 728 730 729
f 731 733 732
f 734 736 735
f 737 739 738
f 740 742 741
f 739 744 743
f 745 712 713
f 729 730 746
f 745 548 711
f 745 711 712
f 729 746 747
f 729 747 748
f 748 747 749
f 748 749 587
f 745 616 548
f 727 745 750
f 750 745 713
f 727 616 745
f 726 727 750
f 726 635 727
f 725 726 750
f 725 591 726
f 740 725 750
f 751 725 740
f 752 590 725
f 752 725 751
f 593 590 752
f 741 752 751
f 741 751 740
f 569 593 753
f 753 593 752
f 753 752 741
f 741 742 754
f 741 754 753
f 753 754 568
f 753 568 569
f 724 568 754
f 755 754 742
f 723 724 754
f 723 754 755
f 723 570 724
f 756 723 755
f 722 723 756
f 722 595 723
f 757 722 758
f 758 722 756
f 757 596 722
f 737 757 758
f 598 596 759
f 759 596 757
f 759 757 738
f 738 757 737
f 571 598 573
f 573 598 759
f 573 759 738
f 738 739 743
f 738 743 573
f 573 743 574
f 721 574 743
f 721 743 744
f 760 577 721
f 761 721 744
f 720 760 721
f 720 721 761
f 720 577 760
f 762 720 763
f 763 720 761
f 762 576 720
f 578 576 762
f 764 762 734
f 734 762 763
f 764 578 762
f 580 578 764
f 735 764 734
f 765 580 764
f 765 764 735
f 580 765 582
f 719 582 765
f 719 765 766
f 766 765 735
f 766 735 736
f 766 736 767
f 718 603 719
f 718 719 766
f 717 718 766
f 717 766 767
f 717 605 718
f 768 717 767
f 769 607 717
f 769 717 768
f 770 769 768
f 608 607 771
f 771 607 769
f 771 769 772
f 772 769 770
f 772 770 731
f 609 608 773
f 773 608 771
f 773 771 772
f 732 773 772
f 732 772 731
f 609 773 611
f 716 611 773
f 716 773 732
f 774 716 732
f 774 732 733
f 715 612 716
f 715 716 774
f 715 774 733
f 714 614 715
f 714 715 775
f 775 715 733
f 776 583 714
f 776 714 777
f 777 714 775
f 585 583 776
f 728 776 777
f 748 585 776
f 748 776 729
f 729 776 728
f 587 585 748
f 454 587 680
f 680 587 749
f 680 749 679
f 679 749 747
f 679 747 677
f 677 747 746
f 677 746 676
f 676 746 730
f 778 658 779
f 779 658 709
f 779 659 780
f 780 705 781
f 781 705 666
f 782 667 783
f 783 691 672
f 783 672 784
f 784 672 670
f 676 785 684
f 684 785 784
f 684 784 685
f 685 784 670
f 692 691 667
f 669 782 674
f 674 782 697
f 697 782 786
f 697 786 699
f 699 786 664
f 706 705 780
f 706 780 662
f 662 780 659
f 656 709 658
f 691 783 667
f 669 667 782
f 664 786 781
f 664 781 666
f 659 779 661
f 661 779 709
f 713 658 787
f 787 658 778
f 788 733 789
f 789 731 770
f 789 770 790
f 791 744 792
f 792 744 739
f 793 792 755
f 793 740 750
f 793 750 787
f 713 787 750
f 756 755 792
f 756 792 758
f 758 792 737
f 761 744 791
f 761 791 763
f 763 791 734
f 734 791 736
f 736 791 790
f 736 790 767
f 767 790 768
f 768 790 770
f 733 731 789
f 775 733 777
f 728 777 788
f 728 788 730
f 742 740 793
f 742 793 755
f 737 792 739
f 777 733 788
f 676 730 785
f 785 730 788
f 794 786 795
f 796 791 797
f 797 791 792
f 798 783 799
f 800 792 801
f 802 792 800
f 797 792 802
f 803 789 804
f 804 789 790
f 805 781 794
f 794 781 786
f 806 781 805
f 807 793 808
f 801 793 809
f 801 792 793
f 810 784 785
f 810 785 811
f 810 812 784
f 799 783 812
f 798 782 783
f 795 782 798
f 795 786 782
f 808 793 787
f 808 787 813
f 809 793 807
f 814 791 796
f 815 789 803
f 816 789 815
f 817 788 818
f 811 785 817
f 817 785 788
f 812 783 784
f 819 780 781
f 819 781 806
f 804 790 814
f 814 790 791
f 816 788 789
f 818 788 816
f 820 779 821
f 821 779 780
f 821 780 819
f 822 779 820
f 823 778 822
f 822 778 779
f 813 787 823
f 823 787 778
f 824 825 823
f 823 825 813
f 826 817 827
f 827 817 818
f 827 818 816
f 827 816 828
f 828 816 815
f 828 815 139
f 139 815 803
f 139 803 138
f 138 803 804
f 138 804 829
f 829 804 830
f 830 804 814
f 830 814 136
f 136 814 796
f 136 796 831
f 831 796 797
f 831 797 832
f 832 797 833
f 833 797 802
f 833 802 800
f 833 800 834
f 834 800 801
f 834 801 835
f 835 801 809
f 835 809 807
f 835 807 836
f 836 807 129
f 129 807 808
f 129 808 813
f 129 813 825
f 826 837 817
f 817 837 811
f 824 823 822
f 824 822 838
f 838 822 820
f 838 820 839
f 839 820 821
f 839 821 840
f 840 821 819
f 840 819 841
f 841 819 806
f 841 806 122
f 122 806 805
f 122 805 842
f 842 805 794
f 842 794 120
f 120 794 795
f 120 795 119
f 119 795 118
f 118 795 798
f 118 798 843
f 843 798 799
f 843 799 844
f 844 799 812
f 844 812 115
f 115 812 810
f 115 810 113
f 113 810 837
f 837 810 811
f 140 828 139
f 137 138 829
f 137 829 830
f 137 830 136
f 135 136 831
f 135 831 134
f 134 831 832
f 134 832 833
f 134 833 133
f 133 833 132
f 132 833 834
f 132 834 131
f 131 834 835
f 131 835 130
f 130 835 836
f 130 836 129
f 128 129 825
f 128 825 127
f 127 825 824
f 127 824 126
f 126 824 838
f 126 838 125
f 125 838 839
f 125 839 124
f 124 839 840
f 124 840 123
f 123 840 841
f 123 841 122
f 121 122 842
f 121 842 120
f 117 118 843
f 117 843 116
f 116 843 844
f 116 844 115
f 114 115 113
f 112 113 837
f 112 837 111
f 111 837 826
f 111 826 827
f 111 827 141
f 141 827 140
f 140 827 828
f 189 159 226
f 239 277 281
f 311 312 281
f 281 312 845
f 281 845 846
f 310 309 846
f 846 309 189
f 846 189 281
f 281 189 226
f 281 226 239
f 263 219 142
f 142 219 145
f 255 235 152
f 152 235 174
f 226 159 162
f 226 162 225
f 225 162 227
f 227 162 200
f 227 200 248
f 248 200 202
f 248 202 186
f 248 186 258
f 258 186 187
f 258 187 250
f 250 187 196
f 250 196 230
f 230 196 183
f 230 183 184
f 230 184 222
f 222 184 167
f 222 167 244
f 244 167 168
f 244 168 243
f 243 168 178
f 243 178 232
f 232 178 181
f 232 181 247
f 247 181 163
f 247 163 260
f 260 163 164
f 260 164 238
f 238 164 177
f 238 177 174
f 238 174 235
f 274 847 142
f 847 274 848
f 848 274 266
f 848 266 849
f 849 266 267
f 849 267 850
f 270 850 267
f 851 270 852
f 270 851 850
f 375 854 853
f 375 853 361
f 361 853 855
f 361 855 354
f 354 855 856
f 354 856 857
f 354 857 350
f 350 857 858
f 350 858 359
f 359 858 859
f 359 859 356
f 356 859 860
f 356 860 363
f 363 860 861
f 363 861 862
f 363 862 368
f 368 862 863
f 368 863 864
f 368 864 365
f 365 864 369
f 369 864 865
f 369 865 852
f 369 852 372
f 372 852 270
f 854 375 866
f 866 375 382
f 387 867 382
f 382 867 866
f 867 387 868
f 868 387 386
f 868 386 869
f 869 386 276
f 870 869 276
f 870 276 277
f 870 277 239
f 142 847 263
f 305 872 871
f 305 871 302
f 302 871 873
f 302 873 874
f 302 874 301
f 301 874 875
f 301 875 298
f 298 875 876
f 298 876 296
f 296 876 877
f 296 877 294
f 294 877 878
f 294 878 292
f 292 878 879
f 292 879 290
f 290 879 880
f 290 880 288
f 288 880 881
f 288 881 286
f 286 881 882
f 286 882 283
f 846 883 310
f 310 883 872
f 310 872 307
f 307 872 305
f 282 283 312
f 312 283 882
f 312 882 884
f 312 884 845
f 885 887 886
f 888 885 886
f 886 890 889
f 889 888 886
f 891 886 892
f 892 893 891
f 894 891 893
f 891 895 886
f 889 897 896
f 889 896 888
f 888 899 898
f 888 898 900
f 888 900 885
f 885 902 901
f 885 901 887
f 901 903 887
f 899 888 896
f 904 896 897
f 897 889 905
f 905 889 890
f 906 902 885
f 906 885 900
f 907 899 896
f 908 901 902
f 909 896 904
f 895 890 886
f 903 901 910
f 910 901 908
f 911 908 902
f 911 902 906
f 912 906 900
f 912 900 913
f 913 900 898
f 913 898 914
f 914 898 899
f 914 899 915
f 915 899 907
f 907 896 909
f 916 904 897
f 916 897 905
f 917 905 890
f 917 890 918
f 918 890 895
f 903 920 919
f 921 919 920
f 919 922 903
f 922 887 903
f 854 924 923
f 924 854 866
f 924 866 925
f 868 926 867
f 867 926 925
f 867 925 866
f 927 928 859
f 859 928 860
f 860 928 929
f 860 929 861
f 858 930 859
f 859 930 927
f 855 853 931
f 862 932 863
f 861 929 933
f 857 934 858
f 864 936 935
f 863 932 936
f 863 936 864
f 861 933 862
f 862 933 937
f 862 937 932
f 856 938 857
f 857 938 934
f 939 851 852
f 865 940 939
f 865 939 852
f 864 935 865
f 865 935 940
f 858 934 930
f 855 941 856
f 856 941 938
f 931 942 855
f 855 942 941
f 931 853 923
f 923 853 854
f 943 848 849
f 943 849 944
f 944 849 850
f 944 850 945
f 945 850 851
f 945 851 939
f 891 894 943
f 894 947 946
f 894 946 943
f 886 887 892
f 892 887 922
f 919 892 922
f 919 893 892
f 919 894 893
f 919 921 894
f 921 920 948
f 949 921 948
f 926 868 950
f 950 868 869
f 951 848 943
f 945 895 891
f 895 945 939
f 923 903 910
f 923 910 931
f 931 910 908
f 931 908 942
f 942 908 911
f 942 911 941
f 941 911 938
f 938 911 906
f 938 906 912
f 938 912 934
f 934 912 913
f 934 913 930
f 930 913 914
f 930 914 927
f 927 914 915
f 927 915 928
f 928 915 929
f 929 915 907
f 929 907 933
f 933 907 909
f 933 909 937
f 937 909 904
f 937 904 932
f 932 904 916
f 932 916 936
f 936 916 905
f 936 905 935
f 935 905 917
f 935 917 940
f 940 917 918
f 940 918 939
f 939 918 895
f 924 903 923
f 924 920 903
f 952 948 920
f 950 925 926
f 920 924 925
f 891 944 945
f 951 943 946
f 944 891 943
f 920 925 950
f 920 950 952
f 921 949 953
f 953 894 921
f 894 953 947
f 947 953 954
f 954 955 947
f 953 949 956
f 957 959 958
f 960 959 956
f 960 956 961
f 962 964 963
f 963 964 948
f 957 953 956
f 964 956 949
f 949 948 964
f 956 959 957
f 961 956 964
f 961 964 962
f 952 240 948
f 240 870 239
f 870 240 952
f 870 952 869
f 950 869 952
f 207 205 255
f 209 212 965
f 966 965 214
f 214 965 212
f 966 215 217
f 215 966 214
f 967 969 968
f 970 968 971
f 969 947 955
f 946 947 969
f 968 969 955
f 954 971 968
f 955 954 968
f 953 972 954
f 954 972 973
f 973 971 954
f 848 951 847
f 264 847 951
f 264 263 847
f 264 951 946
f 958 974 972
f 958 972 957
f 957 972 953
f 975 961 962
f 976 960 961
f 977 958 959
f 978 975 962
f 978 962 979
f 980 977 959
f 980 959 981
f 981 959 982
f 983 976 975
f 978 983 975
f 981 982 984
f 984 982 985
f 985 982 976
f 986 976 983
f 987 983 978
f 988 978 979
f 979 240 989
f 241 989 240
f 240 979 948
f 959 960 982
f 979 989 990
f 979 990 988
f 978 988 987
f 987 991 983
f 983 991 986
f 986 992 976
f 976 992 985
f 963 948 979
f 963 979 962
f 961 975 976
f 976 982 960
f 989 241 256
f 989 993 990
f 990 994 988
f 988 995 987
f 987 996 991
f 991 996 997
f 991 997 986
f 985 998 984
f 984 998 999
f 984 999 981
f 981 1000 980
f 980 1002 1001
f 980 1001 977
f 977 1001 958
f 989 256 993
f 990 993 994
f 988 994 995
f 987 995 996
f 986 997 1003
f 986 1003 992
f 992 1003 985
f 985 1003 998
f 981 999 1000
f 1000 1002 980
f 1004 261 236
f 261 1005 262
f 262 1006 254
f 254 1007 246
f 246 1007 234
f 223 1008 231
f 1009 251 1010
f 1010 251 252
f 1011 257 251
f 1012 224 229
f 1013 1015 1014
f 1016 1018 1017
f 1017 1018 1019
f 1020 1017 1019
f 1019 242 1021
f 1019 1021 1020
f 242 245 1021
f 1020 1021 1022
f 245 233 1021
f 1022 233 1023
f 1023 233 234
f 1024 1026 1025
f 1027 1024 1028
f 1027 1028 1029
f 1029 1028 1030
f 1030 1028 1031
f 1030 1031 1032
f 1033 1035 1034
f 1033 1034 1036
f 1037 1024 1027
f 1038 1030 1032
f 1038 1032 1039
f 1038 1039 1040
f 1040 1039 1041
f 1041 1039 1035
f 1041 1035 1033
f 1042 1043 1037
f 1042 1037 1044
f 1044 1029 1005
f 1005 1029 1045
f 1046 1047 1038
f 1022 1041 1020
f 1043 1026 1024
f 1043 1024 1037
f 1020 1041 1033
f 1020 1033 1036
f 1017 1036 1048
f 1017 1048 1016
f 1049 1050 1042
f 1004 1042 1044
f 1004 1044 1005
f 1005 1045 1051
f 1051 1045 1047
f 1051 1047 1006
f 1006 1047 1046
f 1052 1050 1049
f 1004 1049 1042
f 1007 1006 1046
f 1007 1046 1023
f 1022 1021 233
f 1007 254 1006
f 1006 262 1051
f 1051 262 1005
f 1005 261 1004
f 1004 236 1049
f 1049 236 237
f 1049 237 1052
f 1007 1023 234
f 1050 1043 1042
f 1023 1046 1040
f 1023 1040 1041
f 1023 1041 1022
f 1053 1055 1054
f 1054 1055 1056
f 997 996 1057
f 1058 1057 1059
f 1058 1059 1060
f 1060 1061 1056
f 1054 1056 1062
f 1062 1056 1061
f 1063 1061 1060
f 1063 1060 1059
f 1059 1057 1064
f 1064 1057 1065
f 1065 1057 996
f 1065 996 995
f 1066 1068 1067
f 1067 1068 1069
f 1070 1067 1069
f 1070 1069 1071
f 1072 1062 1061
f 1072 1061 1063
f 994 1065 995
f 1073 1053 1054
f 1073 1054 1062
f 1074 1063 1059
f 1074 1059 1064
f 1074 1064 1065
f 1037 1027 1044
f 1044 1027 1029
f 1045 1029 1030
f 1045 1030 1047
f 1047 1030 1038
f 1020 1036 1017
f 1075 1016 1076
f 1076 1016 1067
f 1076 1067 1070
f 1077 1071 1069
f 1046 1038 1040
f 1078 1073 1062
f 993 256 224
f 1078 1062 1072
f 1078 1072 1079
f 1079 1072 1063
f 1079 1063 1080
f 1080 1063 1074
f 1080 1074 1012
f 1012 1074 1065
f 1012 1065 993
f 993 1065 994
f 1011 1073 1078
f 1081 1053 1010
f 1082 1081 1083
f 1081 1010 1084
f 1085 1086 1082
f 1082 1086 1053
f 1082 1053 1081
f 1086 1055 1053
f 1053 1073 1010
f 1010 1073 1009
f 1083 1087 1077
f 1018 1075 1076
f 1084 1087 1083
f 1082 1077 1069
f 1082 1069 1068
f 1082 1068 1085
f 1082 1083 1077
f 1084 253 1087
f 1077 1087 1071
f 1067 1016 1066
f 1066 1016 1048
f 1088 1076 1070
f 1088 1070 1008
f 1083 1081 1084
f 993 224 1012
f 1012 229 1080
f 1080 229 228
f 1080 228 1079
f 1079 228 249
f 1079 249 257
f 1079 257 1078
f 1078 257 1011
f 1009 1011 251
f 1073 1011 1009
f 1010 252 1084
f 1084 252 253
f 221 1088 223
f 223 1088 1008
f 259 1018 221
f 221 1018 1076
f 221 1076 1088
f 231 1008 1087
f 231 1087 253
f 1071 1087 1008
f 1071 1008 1070
f 1016 1075 1018
f 1019 1018 259
f 1019 259 242
f 1089 1015 1090
f 1091 1002 1000
f 1092 1089 1090
f 1093 1095 1094
f 1094 1095 1096
f 1096 1095 1097
f 1098 1100 1099
f 1101 1099 1091
f 1101 1091 1102
f 999 1102 1000
f 1000 1102 1091
f 1095 1093 1103
f 1095 1103 1013
f 1013 1103 1104
f 1013 1104 1090
f 1090 1015 1013
f 1095 1013 1014
f 1095 1014 1097
f 1097 1014 1105
f 1097 1105 1100
f 1100 1105 1099
f 1099 1105 1001
f 1099 1001 1091
f 1091 1001 1002
f 1106 1089 1107
f 1107 1089 1092
f 1108 1090 1109
f 1109 1090 1104
f 1109 1104 1110
f 1110 1104 1103
f 1111 1094 1096
f 1112 1096 1097
f 1112 1097 1098
f 1113 1114 1107
f 1107 1092 1115
f 1115 1092 1108
f 1116 1108 1109
f 1117 1110 1103
f 1117 1103 1093
f 1117 1093 1118
f 1118 1093 1094
f 1118 1094 1111
f 1111 1096 1112
f 1119 1098 1120
f 1120 1122 1121
f 1121 1122 1123
f 1124 1101 1102
f 1124 1102 1125
f 1125 999 998
f 1114 1106 1107
f 1112 1098 1119
f 1120 1098 1122
f 1123 1122 1101
f 1125 1102 999
f 1028 1107 1115
f 1117 1118 1126
f 1126 1118 1111
f 1123 1101 1060
f 1060 1101 1124
f 1024 1025 1107
f 1024 1107 1028
f 1031 1028 1116
f 1031 1116 1032
f 1060 1124 1058
f 1057 1058 1125
f 1057 1125 1003
f 1057 1003 997
f 1025 1113 1107
f 1028 1115 1116
f 1032 1116 1109
f 1032 1109 1039
f 1039 1109 1110
f 1039 1110 1035
f 1035 1110 1034
f 1034 1110 1117
f 1034 1117 1126
f 1066 1126 1111
f 1066 1111 1068
f 1068 1111 1112
f 1068 1112 1119
f 1068 1119 1085
f 1085 1119 1120
f 1085 1120 1086
f 1086 1120 1055
f 1055 1120 1121
f 1055 1121 1123
f 1115 1108 1116
f 1058 1124 1125
f 1003 1125 998
f 1092 1090 1108
f 1098 1097 1100
f 1122 1098 1099
f 1122 1099 1101
f 1036 1034 1126
f 1036 1126 1048
f 1048 1126 1066
f 1056 1055 1123
f 1056 1123 1060
f 1043 1127 1026
f 1052 208 1050
f 1050 208 209
f 1052 205 208
f 1089 1128 1015
f 965 1043 1050
f 1043 965 1127
f 1026 1129 1025
f 1025 1130 1113
f 1113 1131 1114
f 1114 1132 1106
f 237 205 1052
f 1050 209 965
f 974 1015 1133
f 1127 965 966
f 1127 1129 1134
f 265 218 220
f 1135 217 218
f 1136 966 217
f 1135 1136 217
f 1127 966 1136
f 218 265 1135
f 1127 1134 1026
f 1026 1134 1129
f 1015 1128 1133
f 1128 1106 1132
f 1025 1129 1130
f 1113 1130 1131
f 1114 1131 1132
f 1089 1106 1128
f 1133 972 974
f 1137 971 973
f 1138 973 972
f 1137 973 1138
f 1139 971 1137
f 265 264 1135
f 264 946 1140
f 967 1140 946
f 967 946 969
f 1133 1128 972
f 1131 1137 1132
f 1132 1138 1128
f 1128 1138 972
f 1135 264 1140
f 1135 1140 1136
f 1136 1140 1141
f 1136 1141 1127
f 1127 1141 1129
f 1129 1141 970
f 1129 970 1130
f 1130 970 1139
f 1130 1139 1131
f 1131 1139 1137
f 1140 967 1141
f 1141 967 968
f 1141 968 970
f 1139 970 971
f 1132 1137 1138
f 974 1105 1014
f 974 1014 1015
f 974 958 1001
f 974 1001 1105
f 883 884 872
f 872 884 882
f 881 880 877
f 880 879 878
f 874 873 882
f 873 871 882
f 882 871 872
f 877 876 882
f 882 876 875
f 877 882 881
f 877 880 878
f 882 875 874
f 883 846 884
f 884 846 845
f 152 147 255
f 211 210 213
f 213 210 1142
f 213 1142 215
f 145 219 156
f 1143 147 148
f 1143 148 1144
f 1144 148 154
f 1144 154 157
f 1145 1147 1146
f 1146 1147 1148
f 1149 1147 1150
f 1150 1147 1145
f 1147 1152 1151
f 1147 1149 1152
f 1151 1148 1147
f 1148 1151 1153
f 1154 1155 1144
f 1155 1154 1156
f 1156 1154 156
f 1156 156 1149
f 1150 255 1157
f 1157 1158 1150
f 1150 1158 1159
f 1159 1158 1143
f 1145 1146 1160
f 255 1150 1160
f 1160 1150 1145
f 1156 1149 1150
f 1150 1159 1156
f 1156 1159 1155
f 1143 1144 1155
f 1143 1155 1159
f 1148 1153 1161
f 1153 1142 1161
f 1161 1142 210
f 147 1158 1157
f 147 1157 255
f 255 1160 207
f 207 1160 206
f 1160 1146 206
f 206 1146 210
f 1146 1161 210
f 1158 147 1143
f 1142 1153 215
f 1151 215 1153
f 215 1151 216
f 216 1151 1152
f 216 1152 219
f 1152 1149 219
f 1149 156 219
f 157 156 1154
f 157 1154 1144
f 1146 1148 1161

