v 0.05103092 0.00388909 -0.01429999
v 0.05215367 0.00450068 -0.01399872
v 0.04993284 0.00211757 -0.01405411
v 0.05281525 0.00508134 -0.01429999
v 0.05492001 0.00550000 -0.01429998
v 0.05594411 0.00514853 -0.01399876
v 0.05702476 0.00508134 -0.01429998
v 0.05878047 0.00389268 -0.01407179
v 0.06000135 0.00210476 -0.01429998
v 0.06006882 0.00102417 -0.01399905
v 0.06042000 0.00000000 -0.01429998
v -0.00265165 0.00265165 -0.01509999
v -0.00163697 0.00332976 -0.01484215
v -0.00346067 0.00140305 -0.01485662
v 0.00104395 0.00370933 -0.01528540
v 0.00193443 0.00289507 -0.01479890
v -0.00011180 0.00359949 -0.01484860
v 0.00262415 0.00281584 -0.01529751
v 0.00327848 0.00140960 -0.01484825
v 0.00381141 0.00033003 -0.01529882
v 0.00346373 -0.00068898 -0.01479854
v 0.05327571 -0.00523442 -0.02022750
v 0.04867538 -0.00233296 -0.02030079
v 0.05146304 -0.00427778 -0.01999999
v 0.05530734 -0.00548634 -0.01999999
v 0.05628019 -0.00510699 -0.02030097
v 0.05729032 -0.00496303 -0.01999999
v 0.05895150 -0.00371628 -0.02022883
v 0.06003764 -0.00201490 -0.01999999
v 0.06013305 -0.00080543 -0.02030119
v 0.06042001 0.00000000 -0.01999999
v 0.04916566 -0.00132732 -0.02122095
v 0.04828850 -0.00226223 -0.02130165
v 0.04844682 -0.00252370 -0.02099849
v 0.04917666 0.00064215 -0.02099040
v 0.04975005 0.00251676 -0.02099999
v 0.04899291 0.00164734 -0.02129992
v 0.05071957 0.00444023 -0.02126049
v 0.00252807 0.00050286 -0.02129994
v 0.00225001 -0.00000000 -0.02100000
v 0.00205497 -0.00102269 -0.02125281
v 0.00159100 -0.00159099 -0.02100000
v 0.00072677 -0.00217286 -0.02123444
v 0.00000001 -0.00225000 -0.02100000
v -0.00095100 -0.00206336 -0.02122934
v -0.00159098 -0.00159099 -0.02099999
v -0.00213051 -0.00079189 -0.02122959
v -0.00227133 -0.00008364 -0.01487090
v -0.00207872 -0.00086104 -0.01509999
v -0.00154675 -0.00166670 -0.01486115
v -0.00086103 -0.00207873 -0.01509999
v 0.00016000 -0.00228556 -0.01486573
v 0.00086104 -0.00207873 -0.01509999
v 0.00172445 -0.00150561 -0.01487842
v 0.00207873 -0.00086104 -0.01509999
v 0.00228860 0.00015540 -0.01485639
v 0.05115416 0.00074907 -0.01400061
v 0.05142000 -0.00000000 -0.01429998
v 0.05169914 -0.00214105 -0.01400085
v 0.05168643 -0.00133939 -0.01429998
v 0.05244513 -0.00247487 -0.01429998
v 0.05358061 -0.00323358 -0.01429998
v 0.05415643 -0.00379162 -0.01400068
v 0.05492001 -0.00350000 -0.01429998
v 0.05625939 -0.00323358 -0.01429998
v 0.05706123 -0.00322111 -0.01400056
v 0.05739488 -0.00247487 -0.01429998
v 0.05815358 -0.00133939 -0.01429998
v 0.05871163 -0.00076358 -0.01400068
v 0.05842000 -0.00000000 -0.01429998
v 0.05844065 -0.00003326 -0.02025602
v 0.05815358 -0.00133939 -0.01999999
v 0.05814102 -0.00214115 -0.02029929
v 0.05739488 -0.00247487 -0.01999999
v 0.05625940 -0.00323358 -0.01999999
v 0.05568359 -0.00379162 -0.02029929
v 0.05492001 -0.00350000 -0.01999999
v 0.05358061 -0.00323358 -0.01999999
v 0.05277887 -0.00322099 -0.02029927
v 0.05244513 -0.00247487 -0.01999999
v 0.05168643 -0.00133939 -0.01999999
v 0.05112811 -0.00076363 -0.02029957
v 0.05142000 -0.00000000 -0.01999999
v 0.04776618 -0.00260622 -0.02000339
v 0.04917632 -0.00136388 -0.02029994
v 0.04946563 0.00193101 -0.02029999
v 0.05089439 0.00451248 -0.02030007
v -0.00224999 -0.00000000 -0.02099999
v -0.00044583 0.00373981 -0.01560400
v -0.00194236 0.00320776 -0.02099999
v -0.00075367 0.00367348 -0.02100000
v -0.00290592 0.00237025 -0.02099999
v -0.00352499 0.00122372 -0.02123552
v -0.00375000 -0.00000000 -0.01509999
v -0.00374999 -0.00000000 -0.02099999
v 0.06004995 0.00198334 -0.01999999
v 0.05898959 0.00369979 -0.01999999
v 0.05738161 0.00491838 -0.01999999
v 0.05544239 0.00547514 -0.01559998
v 0.05544239 0.00547514 -0.01999999
v 0.05367304 0.00536508 -0.01530953
v 0.05195103 0.00462982 -0.01529999
v 0.05059895 0.00340271 -0.01529999
v 0.04947370 0.00092079 -0.01530027
v 0.04949561 0.00005685 -0.01405535
v 0.04965874 -0.00171139 -0.01529931
v 0.04983866 -0.00210476 -0.01429998
v 0.05040562 -0.00316567 -0.01530697
v 0.05146304 -0.00427778 -0.01559998
v 0.05103092 -0.00388909 -0.01429998
v 0.05283452 -0.00506487 -0.01408826
v 0.05492000 -0.00550000 -0.01429998
v 0.05702476 -0.00508134 -0.01429998
v 0.05880909 -0.00388909 -0.01429998
v 0.06000134 -0.00210476 -0.01429998
v 0.05815358 0.00133939 -0.01429998
v 0.05815358 0.00133939 -0.01999999
v 0.05739488 0.00247487 -0.01999999
v 0.05739488 0.00247487 -0.01429998
v 0.05629449 0.00323991 -0.02024300
v 0.05625940 0.00323358 -0.01429998
v 0.05492001 0.00350000 -0.01999999
v 0.05492001 0.00350000 -0.01429998
v 0.05358061 0.00323358 -0.01999999
v 0.05244514 0.00247488 -0.01999999
v 0.05358061 0.00323358 -0.01429998
v 0.05244513 0.00247488 -0.01429998
v 0.05168643 0.00133940 -0.01999999
v 0.05168642 0.00133940 -0.01429998
v 0.00465519 -0.00250068 -0.02100044
v 0.00465509 -0.00250258 -0.01560158
v 0.04643472 -0.00250000 -0.01559999
v 0.04671296 -0.00250050 -0.02099953
v -0.00353063 -0.00120605 -0.02123502
v -0.00346454 -0.00143506 -0.01509999
v -0.00291884 -0.00235433 -0.02099999
v -0.00265165 -0.00265165 -0.01509999
v -0.00196388 -0.00317389 -0.02123500
v -0.00143506 -0.00346455 -0.01509999
v -0.00079380 -0.00366502 -0.02100000
v -0.00003141 -0.00373544 -0.01486381
v 0.00062937 -0.00370427 -0.02100364
v 0.00159648 -0.00337997 -0.01515093
v 0.01413160 0.00672658 -0.02100000
v 0.01413205 0.00672440 -0.01559879
v 0.03945917 0.00699822 -0.02099884
v 0.01681633 0.00699937 -0.01560044
v 0.01681631 0.00699768 -0.02100103
v 0.03945990 0.00699781 -0.01559918
v 0.04994333 0.00599602 -0.02011479
v 0.04970869 0.00601657 -0.02100284
v 0.00207873 0.00086104 -0.01509999
v 0.00207873 0.00086104 -0.02100000
v 0.00159100 0.00159099 -0.02100000
v 0.00158521 0.00161751 -0.01491190
v 0.00086104 0.00207873 -0.02100000
v 0.00072525 0.00217490 -0.01485722
v 0.00000001 0.00225000 -0.02100000
v 0.00000000 0.00225000 -0.01509999
v -0.00073805 0.00216787 -0.02122040
v -0.00159098 0.00159099 -0.02099999
v -0.00086103 0.00207873 -0.01509999
v -0.00159099 0.00159099 -0.01509999
v -0.00205487 0.00101628 -0.02123499
v -0.00207872 0.00086104 -0.01509999
v 0.04662720 -0.00220004 -0.02129999
v 0.05036374 0.00558652 -0.02129665
v 0.03944515 0.00669845 -0.02129998
v 0.01549350 0.00667920 -0.02129999
v 0.00463214 -0.00220144 -0.02129999
v 0.00123763 -0.00320390 -0.02130103
v 0.00144978 0.00216974 -0.02129989
v -0.00132226 0.00324492 -0.02130022
v 0.04713764 -0.00220167 -0.01529998
v 0.03944534 0.00669744 -0.01529999
v 0.01549747 0.00668553 -0.01529999
v 0.00483659 -0.00220076 -0.01530000
v 0.00286631 -0.00253953 -0.01527546
v 0.00356574 -0.00141024 -0.01528587
v 0.04972678 -0.00316753 -0.02001062
v 0.04993688 -0.00330730 -0.01559998
v 0.04823172 -0.00270443 -0.01559998
v 0.00283098 -0.00288207 -0.02100000
v 0.00283098 -0.00288207 -0.01559999
v 0.00183271 -0.00298682 -0.01479868
v -0.00293624 -0.00196193 -0.01479835
v -0.00179234 0.00197076 -0.01480316
v 0.05055505 -0.00291657 -0.01399905
v 0.05614635 -0.00513856 -0.01399871
v 0.05942069 -0.00276634 -0.01399871
v 0.05276356 0.00321080 -0.01400068
v 0.05567864 0.00381392 -0.01400072
v 0.05814087 0.00214105 -0.01400085
v 0.05938195 0.00275642 -0.02030080
v 0.05811254 0.00213318 -0.02029936
v 0.05639704 0.00507939 -0.02029604
v 0.05415639 0.00379184 -0.02029950
v 0.05169884 0.00214124 -0.02029946
v 0.04991747 -0.00208973 0.01406767
v 0.04977118 0.00102416 0.01399907
v 0.04941999 -0.00000001 0.01430001
v 0.05103090 -0.00388909 0.01430001
v 0.05199106 -0.00440830 0.01399896
v 0.05281524 -0.00508134 0.01430001
v 0.05492000 -0.00550000 0.01430001
v 0.05594410 -0.00514853 0.01399879
v 0.05702475 -0.00508134 0.01430001
v 0.05934617 -0.00295747 0.01399861
v 0.05880908 -0.00388909 0.01430001
v 0.06000134 -0.00210476 0.01430001
v 0.06042000 -0.00000000 0.01430001
v 0.06006852 0.00102410 0.01399879
v 0.05738160 0.00491838 0.02000001
v 0.05637643 0.00505689 0.02030045
v 0.05544237 0.00547513 0.02000001
v 0.05899757 0.00366585 0.02022903
v 0.06004994 0.00198334 0.02000001
v 0.05977013 0.00187516 0.02030001
v 0.06041999 -0.00000000 0.02000001
v 0.06007257 -0.00097804 0.02030101
v -0.00346455 -0.00143506 0.01510000
v -0.00283633 -0.00205821 0.01479884
v -0.00346391 0.00068901 0.01479872
v -0.00375000 0.00000000 0.01510000
v -0.00265165 -0.00265165 0.01510000
v -0.00138382 -0.00346589 0.01484641
v 0.00183286 -0.00298708 0.01479898
v 0.00000000 -0.00375000 0.01510000
v 0.00158896 -0.00338070 0.01517003
v 0.00314516 -0.00234794 0.01527379
v 0.00318738 -0.00132026 0.01480000
v 0.00354621 0.00032982 0.01481685
v 0.04918052 -0.00122280 0.02099573
v 0.04862918 -0.00210309 0.02130645
v 0.04896794 0.00164677 0.02129991
v 0.04995869 0.00598226 0.02099809
v 0.05060053 0.00461014 0.02130324
v 0.04961120 0.00572916 0.02130005
v 0.05086459 0.00440354 0.02103068
v 0.05142000 -0.00000000 0.01430001
v 0.05168642 0.00133939 0.01430001
v 0.05112496 0.00074550 0.01400088
v 0.05244512 0.00247487 0.01430001
v 0.05276355 0.00321079 0.01400070
v 0.05358060 0.00323358 0.01430001
v 0.05492000 0.00352540 0.01405549
v 0.05625939 0.00323358 0.01430001
v 0.05705318 0.00319253 0.01400063
v 0.05739487 0.00247487 0.01430001
v 0.05815357 0.00133939 0.01430001
v 0.05871174 0.00076360 0.01400059
v 0.05842000 -0.00000000 0.01430001
v 0.05842000 -0.00000000 0.02000001
v 0.05815358 0.00133939 0.02000001
v 0.05868593 0.00074909 0.02029949
v 0.05740372 0.00248495 0.02024102
v 0.05625939 0.00323358 0.02000001
v 0.05580255 0.00375956 0.02029909
v 0.05492000 0.00350000 0.02000001
v 0.05360239 0.00326618 0.02027208
v 0.05244512 0.00247487 0.02000001
v 0.05170906 0.00215654 0.02029949
v 0.05168642 0.00133939 0.02000001
v 0.05142000 -0.00000000 0.02000001
v 0.05112452 -0.00074559 0.02029959
v -0.00225000 0.00000000 0.02130000
v -0.00207873 0.00086104 0.02130000
v -0.00225000 0.00000000 0.01480000
v -0.00159099 0.00159099 0.02130000
v -0.00207873 0.00086104 0.01480000
v -0.00086104 0.00207873 0.02130000
v -0.00159099 0.00159099 0.01480000
v -0.00086104 0.00207873 0.01480000
v 0.00000000 0.00225000 0.02130000
v 0.00086104 0.00207873 0.02130000
v 0.00000000 0.00225000 0.01480000
v 0.00159099 0.00159099 0.02130000
v 0.00086104 0.00207873 0.01480000
v 0.00207873 0.00086104 0.02130000
v 0.00159099 0.00159099 0.01480000
v 0.00207873 0.00086104 0.01480000
v 0.00225000 -0.00000000 0.02130000
v 0.00225000 -0.00000000 0.01480000
v 0.00370051 0.00107935 0.01529805
v -0.00079380 -0.00366502 0.02100000
v 0.00069718 -0.00369775 0.02099501
v -0.00196564 -0.00317148 0.02124654
v -0.00291884 -0.00235433 0.02100000
v -0.00353023 -0.00120361 0.02124653
v -0.00375000 0.00000000 0.02100000
v 0.06003764 -0.00201490 0.02000001
v 0.05895150 -0.00371628 0.02022886
v 0.05729030 -0.00496303 0.02000001
v 0.05530733 -0.00548635 0.02000001
v 0.05327633 -0.00523454 0.02022704
v 0.05146303 -0.00427778 0.01560001
v 0.05146303 -0.00427778 0.02000001
v 0.05040529 -0.00316525 0.01530695
v 0.04965873 -0.00171140 0.01529933
v 0.04947368 0.00092078 0.01530030
v 0.04983866 0.00210475 0.01430001
v 0.05059894 0.00340271 0.01530001
v 0.05111052 0.00385130 0.01405388
v 0.05195102 0.00462981 0.01530001
v 0.05284152 0.00500184 0.01405418
v 0.05367303 0.00536508 0.01530955
v 0.05544237 0.00547513 0.01560001
v 0.05492000 0.00549999 0.01430001
v 0.05702475 0.00508133 0.01430001
v 0.05880909 0.00388908 0.01430001
v 0.06000134 0.00210476 0.01430001
v 0.05815357 -0.00133940 0.01430001
v 0.05818285 -0.00131908 0.02024284
v 0.05739487 -0.00247488 0.02000001
v 0.05739487 -0.00247488 0.01430001
v 0.05625939 -0.00323358 0.02000001
v 0.05625939 -0.00323358 0.01430001
v 0.05495001 -0.00351930 0.02024325
v 0.05492000 -0.00350000 0.01430001
v 0.05358060 -0.00323358 0.02000001
v 0.05244512 -0.00247488 0.02000001
v 0.05358060 -0.00323358 0.01430001
v 0.05244512 -0.00247488 0.01430001
v 0.05168642 -0.00133940 0.02000001
v 0.05165450 -0.00131649 0.01404311
v 0.03945917 0.00699821 0.02100022
v 0.03945990 0.00699781 0.01559920
v 0.04994332 0.00599601 0.02011482
v 0.01681619 0.00699889 0.02100001
v 0.01681639 0.00699870 0.01560101
v -0.00075368 0.00367348 0.02100000
v -0.00075368 0.00367348 0.01560000
v 0.01413169 0.00672565 0.02099873
v 0.01413186 0.00672603 0.01559948
v -0.00352515 0.00121952 0.02124705
v -0.00346455 0.00143506 0.01510000
v -0.00290592 0.00237025 0.02100000
v -0.00265165 0.00265165 0.01510000
v -0.00194236 0.00320776 0.02100000
v -0.00157000 0.00335995 0.01483947
v -0.00011925 0.00359414 0.01483882
v 0.00044108 0.00364825 0.01531657
v 0.00181659 0.00309079 0.01481278
v 0.00261568 0.00280860 0.01529802
v 0.04643472 -0.00250001 0.01560001
v 0.00465479 -0.00250126 0.01559938
v 0.00465533 -0.00250136 0.02099982
v 0.04671295 -0.00250050 0.02099955
v 0.00207873 -0.00086104 0.01480000
v 0.00207873 -0.00086104 0.02130000
v 0.00159099 -0.00159099 0.02130000
v 0.00159099 -0.00159099 0.01480000
v 0.00086104 -0.00207873 0.02130000
v 0.00086104 -0.00207873 0.01480000
v -0.00000000 -0.00225000 0.02130000
v 0.00000000 -0.00225000 0.01480000
v -0.00086104 -0.00207873 0.02130000
v -0.00159099 -0.00159099 0.02130000
v -0.00086104 -0.00207873 0.01480000
v -0.00159099 -0.00159099 0.01480000
v -0.00207873 -0.00086104 0.02130000
v -0.00207873 -0.00086104 0.01480000
v 0.03944513 0.00669714 0.02130001
v 0.04691555 -0.00220073 0.02130001
v 0.01549369 0.00668821 0.02130000
v 0.00463213 -0.00220144 0.02130000
v -0.00132567 0.00324014 0.02130017
v 0.00123766 -0.00320409 0.02130085
v 0.03944534 0.00669744 0.01530001
v 0.04713807 -0.00220314 0.01530000
v 0.01549751 0.00668553 0.01530000
v 0.00483666 -0.00220040 0.01530000
v 0.00283097 -0.00288207 0.01560000
v 0.00283097 -0.00288207 0.02100000
v 0.04843795 -0.00251940 0.02101696
v 0.04779509 -0.00260912 0.02000899
v 0.04972680 -0.00316755 0.02001067
v 0.04823171 -0.00270444 0.01560001
v 0.04993687 -0.00330730 0.01560001
v 0.05614631 0.00513836 0.01399854
v 0.05859695 0.00367695 0.01400001
v 0.05278690 -0.00319240 0.01400079
v 0.05567864 -0.00381392 0.01400075
v 0.05814087 -0.00214105 0.01400088
v 0.05090434 0.00447404 0.02030013
v 0.04950068 0.00201859 0.02101068
v 0.04946375 0.00192573 0.02030001
v 0.04920397 -0.00144259 0.02029999
v 0.05705317 -0.00319253 0.02029939
v 0.05628018 -0.00510700 0.02030100
v 0.05276356 -0.00321078 0.02029929
v 0.04869006 -0.00232143 0.02030058
v 0.05841884 -0.00008980 0.01460001
v 0.05788699 -0.00067245 0.01424023
v 0.05811814 -0.00142192 0.01460001
v 0.05817041 0.00126856 0.01445447
v 0.05500979 0.00349885 0.01460001
v 0.05372401 0.00327192 0.01441686
v 0.05737295 0.00247219 0.01437675
v 0.05634191 0.00319815 0.01460001
v 0.05172184 0.00142191 0.01460001
v 0.05189987 0.00053447 0.01423414
v 0.05251563 0.00253190 0.01443648
v 0.05113196 0.00398759 0.02200000
v 0.05063115 0.00302771 0.02230075
v 0.04989433 0.00223444 0.02200000
v 0.05400732 0.00521371 0.02230068
v 0.05294630 0.00513366 0.02200000
v 0.05506111 0.00549819 0.02200000
v 0.05720368 0.00493389 0.02225824
v 0.05890758 0.00378802 0.02200000
v 0.05935850 0.00280372 0.02230075
v 0.06005365 0.00197369 0.02200001
v 0.06011315 -0.00117225 0.02230090
v 0.06041818 -0.00014111 0.02200000
v 0.05994565 -0.00223444 0.02200001
v 0.06041818 -0.00014112 0.02060000
v 0.06004128 -0.00115595 0.02029911
v 0.05994565 -0.00223444 0.02060000
v 0.06005365 0.00197369 0.02060000
v 0.05798917 0.00434937 0.02029870
v 0.05890758 0.00378802 0.02060000
v 0.05715443 0.00502566 0.02060000
v 0.05506110 0.00549819 0.02060000
v 0.05400740 0.00521324 0.02029886
v 0.05294630 0.00513366 0.02060000
v 0.05116503 0.00395536 0.02034713
v 0.04989433 0.00223444 0.02060000
v 0.04975435 0.00115190 0.02029886
v 0.05720438 -0.00101566 0.01460001
v 0.05656061 -0.00261550 0.01422441
v 0.05664182 -0.00181255 0.01460001
v 0.05581713 -0.00233349 0.01460000
v 0.05485585 -0.00249918 0.01460001
v 0.05413875 -0.00301323 0.01425414
v 0.05390434 -0.00228439 0.01460001
v 0.05335817 -0.00237720 0.01430201
v 0.05310746 -0.00172183 0.01460001
v 0.05258147 -0.00089907 0.01447499
v 0.05242082 0.00006414 0.01460000
v 0.05263560 0.00101565 0.01460000
v 0.05263560 0.00101565 0.02200000
v 0.05242081 0.00006414 0.02200000
v 0.05214124 0.00063405 0.02229974
v 0.05258651 -0.00089714 0.02200000
v 0.05261642 -0.00180860 0.02229914
v 0.05310745 -0.00172183 0.02200000
v 0.05390434 -0.00228439 0.02200000
v 0.05485585 -0.00249918 0.02200000
v 0.05539759 -0.00280987 0.02229975
v 0.05581713 -0.00233348 0.02200000
v 0.05664182 -0.00181254 0.02200000
v 0.05747242 -0.00143543 0.02229881
v 0.05720438 -0.00101565 0.02200000
v 0.05841884 -0.00008980 0.02030000
v 0.05811814 -0.00142192 0.02030000
v 0.05818687 0.00125598 0.02030000
v 0.05745754 0.00241056 0.02030000
v 0.05634191 0.00319815 0.02030000
v 0.05500979 0.00349885 0.02030000
v 0.05366401 0.00326688 0.02030000
v 0.05250943 0.00253755 0.02030000
v 0.05172184 0.00142191 0.02030000
v 0.04942180 0.00014111 0.02200000
v 0.04942180 0.00014111 0.02060000
v 0.04978633 -0.00197370 0.02200000
v 0.04987326 -0.00202489 0.02034407
v 0.05092202 -0.00368439 0.02225824
v 0.05093240 -0.00378803 0.02060000
v 0.05268556 -0.00502566 0.02200000
v 0.05268555 -0.00502566 0.02060000
v 0.05477887 -0.00549819 0.02200000
v 0.05478087 -0.00542046 0.02034970
v 0.05689369 -0.00513367 0.02060000
v 0.05689369 -0.00513367 0.02200000
v 0.05870802 -0.00398759 0.02200000
v 0.05870802 -0.00398759 0.02060000
v 0.05189236 -0.00428872 0.02029911
v 0.05238243 -0.00241056 0.02030000
v 0.05165311 -0.00125599 0.02030000
v 0.05142114 0.00008980 0.02030000
v 0.05349807 -0.00319815 0.02030000
v 0.05483019 -0.00349885 0.02030000
v 0.05775814 -0.00446718 0.02029886
v 0.05617598 -0.00326688 0.02030000
v 0.05733056 -0.00253756 0.02030000
v 0.05142115 0.00008980 0.01460000
v 0.05165311 -0.00125599 0.01460001
v 0.05236916 -0.00236503 0.01439640
v 0.05349808 -0.00319815 0.01460001
v 0.05483019 -0.00349885 0.01460001
v 0.05617598 -0.00326688 0.01460001
v 0.05733056 -0.00253756 0.01460001
v 0.05339094 0.00242061 0.01430243
v 0.05554279 0.00275903 0.01430171
v 0.05678442 0.00168388 0.01445217
v 0.05741917 -0.00006414 0.01460001
v 0.05725348 0.00089713 0.01460001
v 0.05741917 -0.00006414 0.02200000
v 0.05725347 0.00089713 0.02200000
v 0.05673253 0.00172183 0.02200000
v 0.05593564 0.00228439 0.01460001
v 0.05593564 0.00228439 0.02200000
v 0.05498413 0.00249917 0.01460001
v 0.05402286 0.00233348 0.01460001
v 0.05498413 0.00249918 0.02200000
v 0.05402286 0.00233348 0.02200000
v 0.05319817 0.00181254 0.01460001
v 0.05319816 0.00181254 0.02200000
v 0.05773502 -0.00448226 0.02230076
v 0.05376400 -0.00512111 0.02230067
v 0.05734247 0.00153023 0.02229974
v 0.04970166 -0.00088547 0.02230075
v 0.05554311 0.00276048 0.02229977
v 0.05340350 0.00241314 0.02229966
v 0.05468480 -0.00349209 -0.01459999
v 0.05463785 -0.00301731 -0.01426376
v 0.05605854 -0.00329872 -0.01440735
v 0.05328248 -0.00307364 -0.01437673
v 0.05160372 -0.00111906 -0.01459998
v 0.05144082 0.00017639 -0.01441683
v 0.05228440 -0.00230297 -0.01459998
v 0.05261704 0.00263559 -0.01459998
v 0.05351747 0.00272758 -0.01423412
v 0.05179097 0.00154941 -0.01443646
v 0.04999159 0.00244147 -0.02199999
v 0.05076075 0.00320342 -0.02230073
v 0.05130105 0.00414165 -0.02199999
v 0.04966929 -0.00066773 -0.02230066
v 0.04943243 0.00036960 -0.02199999
v 0.04970871 -0.00175853 -0.02199998
v 0.05088057 -0.00363889 -0.02225822
v 0.05247853 -0.00492841 -0.02199999
v 0.05355210 -0.00506854 -0.02230073
v 0.05455039 -0.00548756 -0.02199999
v 0.05757359 -0.00461535 -0.02230088
v 0.05667853 -0.00521129 -0.02199999
v 0.05853895 -0.00414164 -0.02199999
v 0.05667853 -0.00521129 -0.02059998
v 0.05753667 -0.00455112 -0.02029909
v 0.05853894 -0.00414164 -0.02059999
v 0.05355424 -0.00511353 -0.02029909
v 0.05455039 -0.00548756 -0.02059998
v 0.05247853 -0.00492841 -0.02059998
v 0.05077257 -0.00351968 -0.02035344
v 0.04970871 -0.00175853 -0.02059998
v 0.04966976 -0.00066767 -0.02029884
v 0.04943243 0.00036960 -0.02059999
v 0.05003215 0.00241940 -0.02034711
v 0.05130105 0.00414165 -0.02059999
v 0.05229397 0.00459508 -0.02029884
v 0.05656497 -0.00188257 -0.01459999
v 0.05716018 -0.00110976 -0.01459999
v 0.05752062 -0.00157592 -0.01424233
v 0.05741435 -0.00016800 -0.01459999
v 0.05793659 0.00039426 -0.01424021
v 0.05728877 0.00079933 -0.01459999
v 0.05680256 0.00164497 -0.01459999
v 0.05688159 0.00235134 -0.01423160
v 0.05602976 0.00224018 -0.01459999
v 0.05508800 0.00249435 -0.01459999
v 0.05523570 0.00297732 -0.01422566
v 0.05412067 0.00236877 -0.01459998
v 0.05327503 0.00188257 -0.01459998
v 0.05327502 0.00188257 -0.02199999
v 0.05412067 0.00236877 -0.02199999
v 0.05372690 0.00267470 -0.02229912
v 0.05508800 0.00249435 -0.02199999
v 0.05602976 0.00224019 -0.02199999
v 0.05665388 0.00226211 -0.02229973
v 0.05680257 0.00164498 -0.02199999
v 0.05728877 0.00079933 -0.02199999
v 0.05774559 0.00037351 -0.02229973
v 0.05741435 -0.00016800 -0.02199999
v 0.05716019 -0.00110976 -0.02199999
v 0.05704518 -0.00201468 -0.02229879
v 0.05656498 -0.00188257 -0.02199999
v 0.05603906 -0.00331628 -0.02029998
v 0.05722296 -0.00263559 -0.01459999
v 0.05722296 -0.00263559 -0.02029998
v 0.05468480 -0.00349209 -0.02029998
v 0.05336633 -0.00313626 -0.02029998
v 0.05228440 -0.00230297 -0.02029998
v 0.05160372 -0.00111906 -0.02029998
v 0.05142791 0.00023521 -0.02029998
v 0.05178374 0.00155366 -0.02029998
v 0.05261703 0.00263559 -0.02029998
v 0.05316146 0.00521129 -0.02199999
v 0.05316146 0.00521129 -0.02059999
v 0.05528960 0.00548757 -0.02199999
v 0.05536374 0.00541969 -0.02034406
v 0.05736147 0.00492841 -0.02199999
v 0.05736147 0.00492841 -0.02059998
v 0.05906165 0.00361894 -0.02199999
v 0.05906164 0.00361894 -0.02059999
v 0.06013129 0.00175853 -0.02199999
v 0.06013129 0.00175853 -0.02059999
v 0.06040756 -0.00036960 -0.02059999
v 0.06040756 -0.00036960 -0.02199999
v 0.05984841 -0.00244147 -0.02199999
v 0.05984841 -0.00244147 -0.02059999
v 0.05647366 0.00313626 -0.02029998
v 0.05515520 0.00349209 -0.02029998
v 0.05380093 0.00331628 -0.02029998
v 0.05951473 0.00262565 -0.02029899
v 0.05755559 0.00230297 -0.02029998
v 0.05823627 0.00111907 -0.02029998
v 0.06002609 -0.00139233 -0.02029883
v 0.05841208 -0.00023520 -0.02029998
v 0.05805626 -0.00155366 -0.02029998
v 0.05380093 0.00331628 -0.01459999
v 0.05515520 0.00349209 -0.01459999
v 0.05647366 0.00313626 -0.01459999
v 0.05755559 0.00230297 -0.01459999
v 0.05823627 0.00111907 -0.01459999
v 0.05841208 -0.00023520 -0.01459999
v 0.05805626 -0.00155366 -0.01459999
v 0.05215579 0.00074601 -0.01430240
v 0.05246795 -0.00140981 -0.01430169
v 0.05571933 -0.00236877 -0.01459999
v 0.05475200 -0.00249435 -0.01459999
v 0.05571933 -0.00236877 -0.02199999
v 0.05381024 -0.00224018 -0.01459998
v 0.05475200 -0.00249435 -0.02199999
v 0.05381024 -0.00224019 -0.02199999
v 0.05303743 -0.00164497 -0.01459998
v 0.05303743 -0.00164498 -0.02199999
v 0.05255123 -0.00079933 -0.01459998
v 0.05242565 0.00016801 -0.01459998
v 0.05255123 -0.00079933 -0.02199999
v 0.05242565 0.00016800 -0.02199999
v 0.05267981 0.00110976 -0.01459998
v 0.05267981 0.00110976 -0.02199999
v 0.06003367 -0.00136579 -0.02230074
v 0.05947132 0.00261679 -0.02230065
v 0.05722830 0.00465959 -0.02229998
v 0.05417341 -0.00276634 -0.02229972
v 0.05422491 0.00524708 -0.02230074
v 0.05246666 -0.00141055 -0.02229975
v 0.05216664 0.00073621 -0.02229964
f 1 3 2
f 4 1 2
f 5 2 6
f 5 4 2
f 7 5 6
f 8 7 6
f 9 8 10
f 11 9 10
f 12 14 13
f 15 17 16
f 18 15 16
f 19 18 16
f 20 19 21
f 22 24 23
f 25 22 26
f 27 25 26
f 28 27 26
f 29 28 30
f 31 29 30
f 32 34 33
f 35 37 36
f 37 38 36
f 39 41 40
f 41 43 42
f 43 45 44
f 45 47 46
f 48 50 49
f 50 52 51
f 52 54 53
f 54 56 55
f 57 59 58
f 58 59 60
f 60 59 61
f 61 63 62
f 59 63 61
f 62 63 64
f 64 66 65
f 63 66 64
f 65 66 67
f 67 69 68
f 66 69 67
f 68 69 70
f 71 73 72
f 72 73 74
f 74 76 75
f 73 76 74
f 75 76 77
f 77 79 78
f 76 79 77
f 78 79 80
f 80 82 81
f 79 82 80
f 81 82 83
f 23 84 34
f 85 34 32
f 85 23 34
f 85 35 86
f 35 36 86
f 86 36 87
f 88 48 47
f 47 49 46
f 48 49 47
f 46 50 45
f 49 50 46
f 50 51 45
f 45 52 44
f 51 52 45
f 44 53 43
f 52 53 44
f 43 54 42
f 53 54 43
f 41 55 40
f 42 55 41
f 54 55 42
f 55 56 40
f 18 19 20
f 17 15 89
f 89 91 90
f 13 89 90
f 13 17 89
f 12 90 92
f 12 13 90
f 14 92 93
f 14 12 92
f 94 93 95
f 94 14 93
f 83 58 81
f 81 60 80
f 58 60 81
f 60 61 80
f 78 62 77
f 80 62 78
f 61 62 80
f 62 64 77
f 77 65 75
f 64 65 77
f 74 67 72
f 75 67 74
f 65 67 75
f 67 68 72
f 72 70 71
f 68 70 72
f 11 31 96
f 9 96 97
f 9 11 96
f 8 97 98
f 8 9 97
f 7 8 98
f 99 98 100
f 99 7 98
f 5 99 101
f 5 7 99
f 4 5 101
f 102 4 101
f 1 102 103
f 1 4 102
f 3 103 104
f 3 1 103
f 105 3 104
f 106 105 104
f 107 105 106
f 108 107 106
f 109 24 22
f 110 108 109
f 110 107 108
f 111 109 22
f 111 110 109
f 112 22 25
f 112 111 22
f 113 25 27
f 113 112 25
f 114 27 28
f 114 113 27
f 115 28 29
f 115 114 28
f 11 29 31
f 11 115 29
f 70 116 71
f 117 116 118
f 71 116 117
f 116 119 118
f 118 121 120
f 119 121 118
f 120 123 122
f 121 123 120
f 124 126 125
f 122 126 124
f 123 126 122
f 126 127 125
f 128 129 83
f 125 129 128
f 127 129 125
f 129 58 83
f 130 132 131
f 130 133 132
f 94 95 134
f 135 134 136
f 135 94 134
f 137 136 138
f 137 135 136
f 139 138 140
f 139 137 138
f 141 140 142
f 141 139 140
f 143 141 142
f 144 91 89
f 144 89 145
f 146 148 147
f 146 147 149
f 150 146 149
f 151 146 150
f 99 150 149
f 100 150 99
f 56 152 40
f 40 152 153
f 153 155 154
f 152 155 153
f 154 157 156
f 155 157 154
f 156 159 158
f 157 159 156
f 160 162 161
f 158 162 160
f 159 162 158
f 162 163 161
f 164 165 88
f 161 165 164
f 163 165 161
f 165 48 88
f 37 32 33
f 166 37 33
f 167 38 37
f 168 37 166
f 168 167 37
f 169 168 166
f 170 169 166
f 41 170 171
f 43 41 171
f 39 170 41
f 138 43 171
f 45 43 138
f 39 169 170
f 172 169 39
f 134 45 138
f 47 45 134
f 173 172 160
f 173 169 172
f 93 164 47
f 93 47 134
f 173 160 164
f 93 173 164
f 106 174 108
f 106 104 174
f 103 175 104
f 102 175 103
f 101 175 102
f 104 175 174
f 175 176 174
f 176 177 174
f 177 179 178
f 177 20 179
f 176 20 177
f 176 18 20
f 176 15 18
f 34 84 133
f 24 109 180
f 109 181 180
f 180 182 84
f 181 182 180
f 182 132 84
f 84 132 133
f 130 184 183
f 131 184 130
f 183 143 142
f 184 143 183
f 147 148 144
f 145 147 144
f 21 54 185
f 54 52 185
f 185 52 141
f 21 56 54
f 19 56 21
f 52 50 141
f 50 186 141
f 19 16 56
f 16 155 56
f 16 157 155
f 48 186 50
f 16 17 157
f 48 14 186
f 187 14 48
f 157 13 187
f 17 13 157
f 187 13 14
f 63 188 111
f 63 111 189
f 63 59 188
f 57 105 188
f 57 188 59
f 66 63 189
f 57 3 105
f 190 66 189
f 191 3 57
f 2 3 191
f 190 69 66
f 192 2 191
f 10 69 190
f 6 2 192
f 10 193 69
f 8 192 193
f 8 193 10
f 8 6 192
f 32 35 85
f 73 28 26
f 73 30 28
f 76 73 26
f 71 30 73
f 22 76 26
f 194 30 71
f 195 194 71
f 79 76 22
f 23 79 22
f 82 79 23
f 196 195 120
f 196 194 195
f 85 82 23
f 196 120 197
f 86 82 85
f 86 198 82
f 87 198 86
f 87 197 198
f 87 196 197
f 150 196 87
f 167 150 87
f 167 151 150
f 38 167 87
f 36 38 87
f 82 198 83
f 83 198 128
f 128 198 125
f 125 197 124
f 198 197 125
f 124 197 122
f 197 120 122
f 120 195 118
f 118 195 117
f 195 71 117
f 69 193 70
f 70 193 116
f 116 193 119
f 119 192 121
f 193 192 119
f 121 192 123
f 192 126 123
f 192 191 126
f 126 191 127
f 191 129 127
f 191 57 129
f 129 57 58
f 56 155 152
f 159 187 162
f 157 187 159
f 162 187 163
f 163 187 165
f 187 48 165
f 47 164 88
f 164 160 161
f 158 172 156
f 160 172 158
f 156 172 154
f 172 153 154
f 172 39 153
f 153 39 40
f 101 149 175
f 99 149 101
f 149 147 176
f 149 176 175
f 147 145 176
f 145 15 176
f 145 89 15
f 167 168 151
f 151 168 146
f 32 37 35
f 168 148 146
f 168 169 148
f 144 148 169
f 133 33 34
f 166 33 133
f 144 173 91
f 169 173 144
f 133 130 170
f 133 170 166
f 90 91 173
f 92 173 93
f 92 90 173
f 134 95 93
f 138 136 134
f 171 140 138
f 142 140 171
f 171 183 142
f 171 130 183
f 171 170 130
f 196 150 100
f 96 31 30
f 96 30 194
f 97 96 194
f 196 97 194
f 98 97 196
f 100 98 196
f 23 180 84
f 23 24 180
f 179 20 21
f 178 21 185
f 178 179 21
f 143 178 185
f 141 143 185
f 186 139 141
f 137 139 186
f 135 137 186
f 94 186 14
f 94 135 186
f 177 178 131
f 178 184 131
f 178 143 184
f 174 131 132
f 174 177 131
f 108 181 109
f 108 182 181
f 108 174 182
f 174 132 182
f 190 11 10
f 115 11 190
f 114 115 190
f 189 114 190
f 113 114 189
f 112 113 189
f 111 112 189
f 110 111 188
f 107 110 188
f 105 107 188
f 199 201 200
f 202 199 203
f 204 202 203
f 205 203 206
f 205 204 203
f 207 205 206
f 208 207 206
f 209 207 208
f 210 209 208
f 211 208 212
f 211 210 208
f 213 215 214
f 216 213 214
f 217 216 218
f 219 218 220
f 219 217 218
f 221 223 222
f 221 224 223
f 225 221 222
f 226 225 222
f 227 228 226
f 229 228 227
f 230 229 227
f 231 230 227
f 232 230 231
f 233 235 234
f 236 238 237
f 239 236 237
f 240 242 241
f 241 244 243
f 242 244 241
f 243 244 245
f 244 246 245
f 246 248 247
f 247 248 249
f 249 251 250
f 248 251 249
f 250 251 252
f 253 255 254
f 255 256 254
f 256 258 257
f 257 258 259
f 258 260 259
f 260 262 261
f 261 262 263
f 263 265 264
f 262 265 263
f 266 268 267
f 267 270 269
f 268 270 267
f 269 272 271
f 270 272 269
f 272 273 271
f 274 276 275
f 271 276 274
f 273 276 271
f 275 278 277
f 276 278 275
f 277 280 279
f 278 280 277
f 280 281 279
f 279 283 282
f 281 283 279
f 230 232 284
f 228 286 285
f 228 229 286
f 226 285 287
f 226 228 285
f 225 287 288
f 225 226 287
f 221 288 289
f 221 225 288
f 224 289 290
f 224 221 289
f 264 240 263
f 263 241 261
f 240 241 263
f 261 243 260
f 241 243 261
f 260 245 259
f 243 245 260
f 245 246 259
f 257 247 256
f 259 247 257
f 246 247 259
f 247 249 256
f 254 250 253
f 256 250 254
f 249 250 256
f 250 252 253
f 211 219 291
f 210 291 292
f 210 211 291
f 209 292 293
f 209 210 292
f 207 293 294
f 207 209 293
f 205 294 295
f 205 207 294
f 204 205 295
f 296 295 297
f 296 204 295
f 202 296 298
f 202 204 296
f 199 298 299
f 199 202 298
f 201 299 300
f 201 199 299
f 301 201 300
f 302 301 300
f 303 301 302
f 304 303 302
f 305 303 304
f 306 305 304
f 307 215 213
f 308 306 307
f 308 305 306
f 309 307 213
f 309 308 307
f 310 213 216
f 310 309 213
f 311 216 217
f 311 310 216
f 211 217 219
f 211 311 217
f 252 312 253
f 253 312 313
f 313 315 314
f 312 315 313
f 314 317 316
f 315 317 314
f 316 319 318
f 317 319 316
f 320 322 321
f 318 322 320
f 319 322 318
f 322 323 321
f 321 325 324
f 323 325 321
f 324 240 264
f 325 240 324
f 326 328 327
f 326 236 328
f 328 307 327
f 328 215 307
f 329 326 330
f 330 326 327
f 331 333 332
f 332 333 334
f 224 290 335
f 336 335 337
f 336 224 335
f 338 337 339
f 338 336 337
f 340 338 339
f 332 339 331
f 332 340 339
f 341 332 342
f 341 340 332
f 343 341 342
f 344 343 342
f 345 347 346
f 348 347 345
f 283 349 282
f 282 349 350
f 350 352 351
f 349 352 350
f 351 354 353
f 352 354 351
f 353 356 355
f 354 356 353
f 357 359 358
f 355 359 357
f 356 359 355
f 359 360 358
f 358 362 361
f 360 362 358
f 361 268 266
f 362 268 361
f 235 237 238
f 363 235 238
f 364 234 235
f 364 235 363
f 365 364 363
f 366 364 365
f 279 366 365
f 279 365 277
f 275 277 365
f 367 275 365
f 282 366 279
f 274 275 367
f 271 274 367
f 350 366 282
f 368 366 350
f 269 271 367
f 351 368 350
f 335 269 367
f 267 269 335
f 368 351 353
f 335 266 267
f 368 353 355
f 289 361 266
f 289 266 335
f 287 355 357
f 287 368 355
f 289 358 361
f 287 357 358
f 287 358 289
f 300 369 302
f 302 369 304
f 304 369 306
f 299 370 300
f 298 370 299
f 300 370 369
f 370 371 369
f 371 284 344
f 344 342 371
f 370 372 371
f 371 372 284
f 372 230 284
f 229 373 286
f 286 373 374
f 374 346 347
f 373 346 374
f 348 376 375
f 348 345 376
f 376 378 377
f 345 378 376
f 378 379 377
f 377 296 297
f 379 296 377
f 334 333 329
f 330 334 329
f 273 272 340
f 270 223 340
f 270 340 272
f 276 340 341
f 276 273 340
f 268 223 270
f 362 222 223
f 362 223 268
f 278 341 343
f 278 276 341
f 360 222 362
f 280 278 343
f 281 280 343
f 226 360 359
f 226 222 360
f 232 281 343
f 283 281 232
f 356 226 359
f 231 349 283
f 231 352 349
f 231 283 232
f 227 356 354
f 227 226 356
f 227 354 352
f 227 352 231
f 244 200 303
f 244 303 305
f 242 200 244
f 246 305 380
f 246 244 305
f 248 246 380
f 325 199 200
f 325 200 242
f 381 248 380
f 203 325 382
f 203 199 325
f 251 248 381
f 212 251 381
f 383 203 382
f 206 203 383
f 208 384 251
f 208 251 212
f 208 383 384
f 208 206 383
f 239 386 385
f 385 386 387
f 387 233 388
f 386 233 387
f 256 216 214
f 258 256 214
f 255 218 216
f 255 216 256
f 255 220 218
f 313 220 255
f 260 258 214
f 385 214 328
f 385 260 214
f 292 220 313
f 389 292 313
f 385 262 260
f 390 292 389
f 387 262 385
f 387 265 262
f 390 389 318
f 388 265 387
f 295 318 391
f 295 390 318
f 392 295 391
f 392 391 265
f 392 265 388
f 375 376 392
f 375 392 388
f 233 375 388
f 236 385 328
f 236 239 385
f 264 265 324
f 324 391 321
f 265 391 324
f 321 391 320
f 391 318 320
f 318 389 316
f 316 389 314
f 389 313 314
f 313 255 253
f 251 384 252
f 252 384 312
f 312 384 315
f 315 383 317
f 384 383 315
f 317 383 319
f 383 322 319
f 383 382 322
f 382 323 322
f 382 325 323
f 325 242 240
f 371 342 334
f 342 332 334
f 334 330 371
f 369 371 327
f 327 371 330
f 306 327 307
f 306 369 327
f 365 331 367
f 333 331 365
f 329 333 365
f 285 368 287
f 285 286 368
f 289 288 287
f 335 290 289
f 367 337 335
f 339 337 367
f 331 339 367
f 326 329 365
f 326 365 363
f 347 368 374
f 366 368 347
f 374 368 286
f 364 366 348
f 348 366 347
f 238 326 363
f 236 326 238
f 234 364 375
f 375 364 348
f 375 233 234
f 237 235 239
f 239 235 386
f 235 233 386
f 343 284 232
f 344 284 343
f 223 338 340
f 336 338 223
f 224 336 223
f 230 373 229
f 230 346 373
f 230 372 346
f 345 346 372
f 345 372 370
f 370 378 345
f 370 298 378
f 298 379 378
f 298 296 379
f 215 328 214
f 291 219 220
f 292 291 220
f 293 292 390
f 294 293 390
f 295 294 390
f 297 295 392
f 297 392 377
f 392 376 377
f 311 211 212
f 381 311 212
f 310 311 381
f 380 310 381
f 309 310 380
f 308 309 380
f 305 308 380
f 301 303 200
f 201 301 200
f 393 395 394
f 396 393 394
f 397 399 398
f 397 400 399
f 401 403 402
f 404 406 405
f 407 404 405
f 408 404 407
f 409 408 407
f 410 409 407
f 411 410 412
f 413 411 412
f 414 413 412
f 415 413 414
f 416 415 414
f 417 419 418
f 218 417 418
f 420 417 218
f 421 420 218
f 422 420 421
f 423 422 421
f 424 421 425
f 424 423 421
f 426 424 425
f 427 426 425
f 428 427 429
f 394 431 430
f 430 431 432
f 432 431 433
f 433 435 434
f 431 435 433
f 434 437 436
f 435 437 434
f 436 437 438
f 437 439 438
f 439 402 440
f 440 402 441
f 442 444 443
f 443 446 445
f 444 446 443
f 445 446 447
f 447 446 448
f 448 450 449
f 446 450 448
f 449 450 451
f 451 453 452
f 450 453 451
f 453 454 452
f 442 443 441
f 440 443 439
f 441 443 440
f 443 445 439
f 439 447 438
f 445 447 439
f 438 448 436
f 447 448 438
f 434 449 433
f 436 449 434
f 448 449 436
f 449 451 433
f 433 452 432
f 451 452 433
f 432 454 430
f 452 454 432
f 455 395 393
f 455 456 395
f 457 393 396
f 457 455 393
f 458 396 399
f 458 457 396
f 459 399 400
f 459 458 399
f 460 400 397
f 460 397 398
f 460 459 400
f 461 398 403
f 461 460 398
f 462 461 403
f 463 403 401
f 463 462 403
f 415 419 417
f 415 416 419
f 413 417 420
f 413 415 417
f 411 420 422
f 411 413 420
f 410 422 423
f 410 411 422
f 409 423 424
f 409 410 423
f 408 424 426
f 408 426 427
f 408 409 424
f 404 408 427
f 406 427 428
f 406 404 427
f 464 406 428
f 464 428 465
f 466 465 467
f 466 464 465
f 468 467 469
f 468 466 467
f 470 469 471
f 470 468 469
f 472 471 473
f 472 473 474
f 472 470 471
f 475 472 474
f 476 474 477
f 476 475 474
f 416 477 419
f 416 476 477
f 467 479 478
f 480 479 467
f 429 481 467
f 467 481 480
f 429 463 481
f 479 482 478
f 429 427 463
f 427 462 463
f 478 483 473
f 482 483 478
f 425 461 427
f 427 461 462
f 473 485 484
f 483 485 473
f 461 425 460
f 486 484 485
f 460 421 459
f 425 421 460
f 456 418 486
f 455 418 456
f 486 418 484
f 459 421 458
f 457 218 455
f 458 218 457
f 455 218 418
f 421 218 458
f 481 463 401
f 481 401 487
f 480 487 488
f 480 481 487
f 479 488 489
f 479 489 490
f 479 480 488
f 482 479 490
f 483 490 491
f 483 482 490
f 485 491 492
f 485 483 491
f 486 492 493
f 486 485 492
f 456 493 395
f 456 486 493
f 489 402 439
f 439 437 489
f 489 437 435
f 403 494 402
f 398 494 403
f 494 398 495
f 398 399 495
f 495 399 496
f 496 396 394
f 399 396 496
f 430 454 497
f 497 499 498
f 454 499 497
f 498 500 496
f 499 500 498
f 500 501 496
f 496 503 502
f 501 503 496
f 504 506 505
f 502 506 504
f 503 506 502
f 506 507 505
f 508 509 441
f 505 509 508
f 507 509 505
f 509 442 441
f 510 450 511
f 414 453 510
f 510 453 450
f 450 446 511
f 511 446 468
f 414 512 453
f 414 412 512
f 468 446 513
f 444 513 446
f 512 410 514
f 412 410 512
f 444 405 513
f 515 405 444
f 410 407 514
f 514 407 515
f 515 407 405
f 454 453 499
f 499 512 500
f 453 512 499
f 512 501 500
f 512 503 501
f 512 514 503
f 503 514 506
f 506 515 507
f 514 515 506
f 507 515 509
f 509 444 442
f 515 444 509
f 402 494 441
f 441 494 508
f 508 494 505
f 494 504 505
f 494 495 504
f 504 495 502
f 495 496 502
f 498 394 497
f 496 394 498
f 497 394 430
f 465 428 429
f 467 465 429
f 469 467 478
f 471 469 478
f 473 471 478
f 474 473 484
f 477 474 484
f 419 484 418
f 419 477 484
f 476 416 414
f 476 414 510
f 475 476 510
f 472 510 511
f 472 475 510
f 470 472 511
f 468 470 511
f 466 468 513
f 464 466 513
f 406 513 405
f 406 464 513
f 487 401 402
f 488 402 489
f 488 487 402
f 490 489 435
f 491 490 435
f 431 491 435
f 492 491 431
f 493 492 431
f 395 431 394
f 395 493 431
f 516 518 517
f 519 516 517
f 520 519 521
f 520 522 519
f 523 525 524
f 526 528 527
f 529 526 527
f 530 526 529
f 531 530 529
f 532 531 529
f 533 532 534
f 535 533 534
f 536 535 534
f 537 535 536
f 538 537 536
f 539 541 540
f 542 539 540
f 543 539 542
f 544 543 542
f 545 544 542
f 546 545 547
f 548 546 547
f 549 548 547
f 550 549 551
f 552 554 553
f 553 556 555
f 554 556 553
f 555 556 557
f 557 559 558
f 556 559 557
f 558 559 560
f 560 562 561
f 559 562 560
f 562 563 561
f 562 524 563
f 563 524 564
f 565 567 566
f 566 567 568
f 568 570 569
f 567 570 568
f 569 570 571
f 571 573 572
f 570 573 571
f 572 573 574
f 574 576 575
f 573 576 574
f 576 577 575
f 565 566 564
f 563 566 561
f 564 566 563
f 566 568 561
f 561 569 560
f 568 569 561
f 560 571 558
f 569 571 560
f 557 572 555
f 558 572 557
f 571 572 558
f 572 574 555
f 555 575 553
f 574 575 555
f 553 577 552
f 575 577 553
f 578 579 518
f 578 580 579
f 581 518 516
f 581 578 518
f 582 516 519
f 582 581 516
f 583 519 522
f 583 582 519
f 584 522 520
f 584 520 521
f 584 583 522
f 585 521 525
f 585 584 521
f 586 585 525
f 587 525 523
f 587 586 525
f 537 541 539
f 537 538 541
f 535 539 543
f 535 537 539
f 533 543 544
f 533 535 543
f 532 544 545
f 532 533 544
f 531 545 546
f 531 532 545
f 530 546 548
f 530 548 549
f 530 531 546
f 526 530 549
f 528 549 550
f 528 526 549
f 588 528 550
f 588 550 589
f 590 589 591
f 590 588 589
f 592 591 593
f 592 590 591
f 594 593 595
f 594 592 593
f 596 595 597
f 596 597 598
f 596 594 595
f 599 596 598
f 600 598 601
f 600 599 598
f 538 601 541
f 538 600 601
f 591 602 196
f 603 602 591
f 551 604 591
f 591 604 603
f 551 587 604
f 196 606 605
f 602 606 196
f 551 549 587
f 549 586 587
f 606 607 605
f 547 585 549
f 549 585 586
f 605 609 608
f 607 609 605
f 585 547 584
f 610 608 609
f 584 545 583
f 547 545 584
f 580 540 610
f 578 540 580
f 610 540 608
f 583 542 582
f 545 542 583
f 581 542 578
f 582 542 581
f 578 542 540
f 604 587 523
f 604 523 611
f 603 611 612
f 603 604 611
f 602 612 613
f 602 613 614
f 602 603 612
f 606 602 614
f 607 614 615
f 607 606 614
f 609 615 616
f 609 607 615
f 610 616 617
f 610 609 616
f 580 617 579
f 580 610 617
f 525 618 524
f 521 618 525
f 618 521 619
f 521 519 619
f 554 517 518
f 619 519 517
f 552 577 620
f 620 622 621
f 577 622 620
f 621 624 623
f 622 624 621
f 624 625 623
f 623 627 626
f 625 627 623
f 628 630 629
f 626 630 628
f 627 630 626
f 630 631 629
f 632 633 564
f 629 633 632
f 631 633 629
f 633 565 564
f 634 573 635
f 536 576 634
f 634 576 573
f 573 570 635
f 635 570 636
f 536 637 576
f 536 534 637
f 636 567 638
f 570 567 636
f 637 532 639
f 534 532 637
f 567 527 638
f 640 527 567
f 532 529 639
f 639 529 640
f 640 529 527
f 577 576 622
f 622 637 624
f 576 637 622
f 637 625 624
f 637 627 625
f 637 639 627
f 627 639 630
f 630 640 631
f 639 640 630
f 631 640 633
f 633 567 565
f 640 567 633
f 524 618 564
f 564 618 632
f 632 618 629
f 618 628 629
f 618 619 628
f 628 619 626
f 626 517 623
f 619 517 626
f 623 517 621
f 621 517 620
f 620 554 552
f 517 554 620
f 589 550 551
f 591 589 551
f 593 591 196
f 595 196 605
f 595 593 196
f 597 595 605
f 598 605 608
f 598 597 605
f 601 598 608
f 541 608 540
f 541 601 608
f 600 538 536
f 600 536 634
f 599 600 634
f 596 634 635
f 596 599 634
f 594 596 635
f 636 594 635
f 592 594 636
f 590 636 638
f 590 592 636
f 588 590 638
f 528 638 527
f 528 588 638
f 611 523 524
f 612 524 562
f 612 611 524
f 613 562 559
f 613 612 562
f 614 613 559
f 615 559 556
f 615 614 559
f 616 615 556
f 554 616 556
f 617 616 554
f 579 554 518
f 579 617 554

