v 0.00150899 -0.00021678 0.02130000
v 0.00136149 -0.00068589 0.02029938
v 0.00091373 -0.00122030 0.02130000
v 0.00130991 0.00077840 0.02013053
v 0.00122030 0.00091373 0.02130000
v 0.00068589 0.00136149 0.02029938
v 0.00021678 0.00150899 0.02130000
v -0.00023219 0.00144599 0.02013323
v -0.00115073 0.00106588 0.02130000
v -0.00124684 0.00089197 0.02012091
v -0.00277306 -0.00102322 0.02132116
v -0.00156472 -0.00184902 0.02222402
v -0.00133701 -0.00257064 0.02130064
v 0.00050989 0.00291150 0.02132116
v 0.00228954 0.00177590 0.02130064
v 0.00153880 0.00187065 0.02222402
v -0.00163890 -0.00053417 0.02295953
v -0.00237539 0.00074529 0.02215111
v -0.00272048 0.00084942 0.02130000
v -0.00151524 0.00076011 0.02294935
v -0.00189120 0.00217634 0.02129873
v -0.00115878 0.00220345 0.02215111
v 0.00007776 0.00173333 0.02296808
v 0.00143072 -0.00009297 0.01990998
v 0.00066701 -0.00135474 0.02013293
v 0.00047687 0.00138390 0.01976633
v -0.00088288 0.00105514 0.01984403
v -0.00090557 0.00116858 0.01954703
v 0.00161864 -0.00019558 0.01970822
v 0.00048674 0.00149376 0.01938462
v 0.00125464 0.00073257 0.01946034
v 0.00107713 -0.00097537 0.01944944
v 0.00100700 0.00107958 0.01890589
v 0.00141881 -0.00009388 0.01913172
v -0.00007287 0.00141294 0.01908294
v 0.00080196 -0.00116623 0.01912509
v -0.00140517 0.00036916 0.01913574
v -0.00012195 0.00156632 0.01873542
v -0.00149560 0.00019224 0.01880009
v 0.00136987 -0.00048652 0.01880083
v 0.00146784 0.00023120 0.01846232
v 0.00088361 -0.00112915 0.01849802
v 0.00022267 0.00149397 0.01845308
v -0.00124845 0.00070505 0.01849802
v 0.00119457 0.00075906 0.01817025
v -0.00057226 0.00134048 0.01818299
v 0.00006167 0.00141245 0.01799431
v 0.00133267 -0.00046621 0.01807235
v -0.00147047 0.00003279 0.01816689
v 0.00019558 0.00161864 0.01776062
v -0.00115817 0.00081507 0.01784631
v 0.00146784 0.00023120 0.01781311
v 0.00025101 -0.00149419 0.01782786
v -0.00004431 0.00141785 0.01732003
v 0.00106874 0.00093736 0.01750850
v -0.00088361 0.00112915 0.01752422
v 0.00134563 -0.00044335 0.01744344
v -0.00014306 0.00149995 0.01694622
v -0.00145979 0.00000347 0.01732803
v -0.00154952 0.00009805 0.01697393
v 0.00119457 0.00075906 0.01719645
v 0.00142156 -0.00047110 0.01694021
v 0.00119457 0.00075906 0.01687185
v -0.00115817 0.00081507 0.01687251
v 0.00146784 0.00023120 0.01651471
v 0.00088361 -0.00112915 0.01655042
v 0.00022267 0.00149397 0.01650548
v -0.00124845 0.00070505 0.01655042
v 0.00091880 -0.00119466 0.01620253
v 0.00084986 0.00123923 0.01622953
v 0.00146482 0.00028755 0.01593652
v -0.00088361 0.00112915 0.01622582
v 0.00101339 -0.00097294 0.01569276
v 0.00088289 -0.00105514 0.01594883
v 0.00022267 0.00149397 0.01585628
v -0.00135671 0.00057535 0.01596805
v 0.00119624 0.00075810 0.01557411
v 0.00024846 0.00129963 0.01529958
v 0.00147779 -0.00057961 0.01535454
v -0.00023949 0.00145246 0.01555715
v -0.00126519 0.00077687 0.01539834
v -0.00135768 -0.00055743 0.01572644
v -0.00020673 -0.00143418 0.01564326
v -0.00133303 -0.00071510 0.01539312
v -0.00011884 -0.00135409 0.01529834
v -0.00089176 -0.00114678 0.01604611
v -0.00120082 -0.00085073 0.01635073
v -0.00054321 -0.00135251 0.01655999
v -0.00019250 -0.00149397 0.01685108
v -0.00019250 -0.00149397 0.01717568
v -0.00019250 -0.00149397 0.01750028
v -0.00126421 -0.00062799 0.01774742
v -0.00022418 -0.00162292 0.01809289
v -0.00126763 -0.00077532 0.01846232
v -0.00007513 -0.00142863 0.01828358
v -0.00019250 -0.00149398 0.01879868
v -0.00140042 -0.00071207 0.01906002
v -0.00030981 -0.00138193 0.01914471
v -0.00147494 0.00009173 0.01955736
v -0.00075211 -0.00130604 0.01944852
v -0.00106927 -0.00091361 0.01981596
v 0.00003249 -0.00148084 0.01975582
v -0.00072716 -0.00133096 0.02011983
v -0.00155349 -0.00021285 0.02029432
v -0.00019734 -0.00113771 0.02191000
v -0.00108396 -0.00039796 0.02191000
v 0.00000000 -0.00000000 0.02133265
v 0.00088662 -0.00073975 0.02191000
v 0.00108396 0.00039796 0.02191000
v 0.00019734 0.00113771 0.02191000
v -0.00088662 0.00073975 0.02191000
v -0.00019734 -0.00113771 0.02295000
v -0.00108396 -0.00039796 0.02295000
v 0.00088662 -0.00073975 0.02295000
v 0.00108396 0.00039796 0.02295000
v 0.00019734 0.00113771 0.02295000
v -0.00088662 0.00073975 0.02295000
v -0.00010562 -0.00187061 0.02290093
v 0.00153309 -0.00068987 0.02295170
v 0.00183399 0.00058566 0.02283276
v 0.00111674 -0.00217379 0.02216444
v 0.00218833 -0.00182584 0.02130000
v 0.00079885 -0.00278419 0.02130084
v 0.00211554 -0.00098739 0.02239263
v 0.00288221 -0.00028715 0.02130093
v -0.00021678 -0.00150899 0.02130000
v -0.00142511 -0.00065524 0.02130000
v -0.00146395 -0.00056314 -0.02129999
v -0.00123482 -0.00090935 -0.02015295
v -0.00035828 -0.00148178 -0.02129999
v -0.00145370 0.00045918 -0.02029938
v -0.00123187 0.00089806 -0.02129999
v -0.00068048 0.00132584 -0.02019385
v -0.00023604 0.00150609 -0.02129999
v 0.00045918 0.00145370 -0.02029938
v 0.00089807 0.00123188 -0.02129999
v 0.00295182 0.00015360 -0.02132115
v 0.00216721 -0.00108188 -0.02222401
v 0.00224261 -0.00183481 -0.02130063
v -0.00149515 0.00250225 -0.02130151
v -0.00280440 0.00072877 -0.02130063
v -0.00215191 0.00111198 -0.02222401
v 0.00171672 0.00015563 -0.02295952
v 0.00188880 0.00162185 -0.02215111
v 0.00216483 0.00185366 -0.02129999
v 0.00109254 0.00129618 -0.02294935
v 0.00087937 0.00274587 -0.02129872
v 0.00019566 0.00248187 -0.02215111
v -0.00075517 0.00156210 -0.02296807
v -0.00150270 0.00215226 -0.02186356
v 0.00041864 0.00157575 -0.02003282
v 0.00148496 0.00043648 -0.02022583
v -0.00129353 0.00073677 -0.01988546
v -0.00137785 -0.00032744 -0.01979391
v -0.00060979 -0.00135675 -0.01984158
v 0.00037306 0.00146022 -0.01977312
v -0.00081820 0.00141024 -0.01938362
v -0.00013930 0.00136872 -0.01951942
v 0.00141025 0.00081821 -0.01938362
v -0.00142915 -0.00035286 -0.01945234
v 0.00005391 -0.00146920 -0.01946469
v -0.00132384 0.00062450 -0.01911713
v 0.00026864 0.00147751 -0.01916782
v 0.00000457 0.00149913 -0.01886052
v -0.00106457 -0.00098906 -0.01912483
v -0.00111457 0.00089000 -0.01881633
v -0.00122802 -0.00086574 -0.01882622
v -0.00095612 -0.00130814 -0.01840151
v -0.00044424 -0.00136318 -0.01861157
v -0.00139711 0.00022630 -0.01849485
v -0.00049451 0.00137769 -0.01846793
v 0.00086911 0.00114035 -0.01849801
v -0.00149791 -0.00020720 -0.01813490
v -0.00036655 -0.00138614 -0.01817342
v -0.00078566 0.00117727 -0.01815129
v 0.00071648 0.00126391 -0.01816194
v -0.00028587 0.00141153 -0.01783963
v 0.00121187 0.00086898 -0.01798548
v 0.00102142 0.00098437 -0.01764462
v -0.00129411 0.00070748 -0.01757055
v -0.00131995 0.00012310 -0.01789722
v -0.00148741 -0.00050579 -0.01776161
v -0.00036655 -0.00138613 -0.01784881
v -0.00027533 0.00138831 -0.01750209
v 0.00087996 0.00115736 -0.01735768
v -0.00106688 -0.00098743 -0.01750243
v -0.00039369 0.00143564 -0.01696406
v 0.00118872 0.00087527 -0.01718173
v -0.00126243 0.00071772 -0.01718761
v -0.00093003 -0.00117535 -0.01701172
v -0.00089652 -0.00105420 -0.01725521
v -0.00117987 0.00077090 -0.01686657
v -0.00148741 -0.00050579 -0.01678781
v 0.00021625 -0.00161601 -0.01678682
v 0.00092313 0.00108152 -0.01685952
v -0.00100292 -0.00107586 -0.01654389
v -0.00125843 0.00076244 -0.01653042
v -0.00017340 0.00145387 -0.01651505
v -0.00141377 0.00011028 -0.01609830
v -0.00092312 -0.00108152 -0.01621032
v -0.00038708 0.00140034 -0.01621434
v 0.00138395 0.00084267 -0.01645391
v -0.00136549 0.00056175 -0.01571866
v -0.00019179 0.00142090 -0.01590122
v -0.00115467 -0.00105361 -0.01580810
v -0.00017825 -0.00144188 -0.01588974
v 0.00083900 0.00127737 -0.01598071
v -0.00075526 0.00121765 -0.01532255
v 0.00048112 0.00137854 -0.01548698
v -0.00152773 -0.00027538 -0.01536980
v -0.00041035 -0.00135103 -0.01554522
v 0.00138290 0.00016290 -0.01570650
v 0.00120417 -0.00074373 -0.01589805
v 0.00098739 -0.00106539 -0.01555385
v 0.00143615 0.00046908 -0.01538437
v 0.00064334 -0.00119741 -0.01529834
v 0.00142090 0.00019180 -0.01622582
v 0.00081821 -0.00141024 -0.01613762
v 0.00108064 -0.00092363 -0.01653470
v 0.00022625 -0.00140069 -0.01635872
v 0.00146749 0.00002332 -0.01670023
v 0.00138579 -0.00059168 -0.01698582
v 0.00079505 -0.00116374 -0.01719117
v 0.00157576 -0.00041863 -0.01743602
v 0.00027534 -0.00138831 -0.01750209
v 0.00103268 -0.00102857 -0.01785838
v 0.00144023 -0.00032123 -0.01765575
v 0.00108804 -0.00099391 -0.01816367
v 0.00156776 -0.00010192 -0.01841081
v 0.00103268 -0.00102857 -0.01850758
v 0.00136355 0.00050399 -0.01880083
v 0.00098739 -0.00106539 -0.01879984
v 0.00157576 -0.00041863 -0.01905902
v 0.00055034 -0.00134279 -0.01915763
v 0.00151483 -0.00031274 -0.01930242
v 0.00147009 -0.00001118 -0.01960879
v 0.00079505 -0.00116374 -0.01978797
v 0.00139841 0.00011786 -0.01993475
v 0.00111572 -0.00102536 -0.02013317
v 0.00013494 -0.00148660 -0.02020837
v 0.00063012 -0.00096762 -0.02190999
v 0.00115305 0.00006189 -0.02190999
v 0.00000001 -0.00000000 -0.02133264
v -0.00052292 -0.00102951 -0.02190999
v -0.00115304 -0.00006189 -0.02190999
v -0.00063011 0.00096762 -0.02190999
v 0.00052293 0.00102951 -0.02190999
v 0.00063012 -0.00096762 -0.02294999
v 0.00115305 0.00006189 -0.02294999
v -0.00052292 -0.00102951 -0.02294999
v -0.00115304 -0.00006189 -0.02294999
v -0.00063011 0.00096762 -0.02294999
v 0.00052293 0.00102951 -0.02294999
v 0.00098068 -0.00165674 -0.02283276
v -0.00032984 -0.00164848 -0.02295169
v -0.00184690 -0.00031505 -0.02290092
v -0.00048969 -0.00228269 -0.02239263
v -0.00129066 -0.00254100 -0.02129999
v 0.00036419 -0.00287354 -0.02130084
v -0.00186927 -0.00157426 -0.02216444
v -0.00253523 -0.00140078 -0.02130092
v 0.00108051 -0.00113701 -0.02129999
v 0.00150610 0.00023604 -0.02129999
f 1 3 2
f 1 2 4
f 5 1 4
f 5 4 6
f 7 5 6
f 7 6 8
f 9 8 10
f 9 7 8
f 11 13 12
f 14 16 15
f 11 12 17
f 18 19 11
f 18 11 17
f 18 17 20
f 18 21 19
f 22 20 23
f 22 21 18
f 22 18 20
f 14 23 16
f 22 14 21
f 22 23 14
f 24 4 25
f 4 2 25
f 6 4 8
f 26 28 27
f 29 26 24
f 4 24 26
f 8 26 27
f 8 4 26
f 10 8 27
f 30 28 31
f 29 32 31
f 26 29 31
f 26 31 28
f 33 35 34
f 32 36 34
f 31 32 34
f 30 34 35
f 30 31 34
f 28 30 35
f 28 35 37
f 38 39 35
f 38 35 33
f 34 36 40
f 33 34 40
f 37 35 39
f 40 42 41
f 33 40 41
f 38 41 43
f 38 33 41
f 38 43 44
f 39 38 44
f 45 47 46
f 41 42 48
f 41 48 45
f 43 41 45
f 43 45 46
f 44 46 49
f 44 43 46
f 50 51 47
f 50 47 52
f 53 52 48
f 45 48 52
f 47 45 52
f 46 47 51
f 54 56 55
f 52 53 57
f 52 57 55
f 50 52 55
f 50 55 56
f 51 50 56
f 58 59 54
f 58 60 59
f 61 58 54
f 62 61 57
f 55 57 61
f 54 55 61
f 56 54 59
f 61 62 63
f 58 61 63
f 60 58 64
f 62 66 65
f 63 62 65
f 58 65 67
f 58 63 65
f 58 67 68
f 64 58 68
f 69 71 70
f 65 66 69
f 65 69 70
f 67 65 70
f 67 70 72
f 68 67 72
f 73 71 74
f 71 69 74
f 70 71 75
f 72 75 76
f 72 70 75
f 77 79 78
f 80 77 78
f 80 78 81
f 79 77 73
f 71 73 77
f 75 71 77
f 75 77 80
f 76 75 80
f 76 80 82
f 83 79 73
f 82 84 83
f 81 84 82
f 81 82 80
f 78 84 81
f 78 79 85
f 78 85 84
f 83 84 85
f 79 83 85
f 69 86 74
f 83 73 74
f 83 74 86
f 82 83 86
f 82 86 76
f 87 68 72
f 88 87 69
f 66 88 69
f 86 69 87
f 76 86 87
f 76 87 72
f 60 64 68
f 60 68 88
f 89 60 88
f 89 88 66
f 62 89 66
f 87 88 68
f 90 60 89
f 62 90 89
f 91 59 90
f 57 91 90
f 90 62 57
f 60 90 59
f 92 51 56
f 53 92 91
f 53 91 57
f 59 91 92
f 59 92 56
f 49 46 51
f 49 51 92
f 93 92 53
f 93 49 92
f 48 93 53
f 94 44 49
f 94 49 95
f 42 95 48
f 93 48 95
f 49 93 95
f 39 44 94
f 96 39 94
f 96 94 42
f 40 96 42
f 95 42 94
f 97 37 39
f 97 39 96
f 98 97 96
f 36 98 96
f 36 96 40
f 99 28 37
f 100 99 37
f 100 37 98
f 32 98 36
f 32 100 98
f 97 98 37
f 101 99 100
f 102 101 100
f 102 100 32
f 29 102 32
f 10 27 101
f 103 10 101
f 103 101 102
f 25 103 102
f 25 102 24
f 102 29 24
f 99 101 27
f 28 99 27
f 104 10 103
f 105 107 106
f 108 107 105
f 108 109 107
f 107 109 110
f 107 110 111
f 107 111 106
f 105 113 112
f 105 106 113
f 108 112 114
f 108 105 112
f 109 114 115
f 109 108 114
f 110 115 116
f 110 109 115
f 111 116 117
f 111 110 116
f 106 117 113
f 106 111 117
f 118 112 17
f 119 114 118
f 118 114 112
f 112 113 17
f 120 115 119
f 119 115 114
f 113 20 17
f 113 117 20
f 115 23 116
f 120 23 115
f 116 23 117
f 117 23 20
f 17 12 118
f 16 23 120
f 121 123 122
f 118 13 123
f 118 12 13
f 118 123 121
f 124 119 118
f 124 118 121
f 124 121 122
f 124 122 125
f 120 125 15
f 120 124 125
f 120 119 124
f 120 15 16
f 126 123 13
f 3 123 126
f 3 122 123
f 127 126 13
f 1 125 122
f 1 122 3
f 127 13 11
f 5 125 1
f 19 9 127
f 19 127 11
f 15 125 5
f 21 9 19
f 15 5 7
f 14 15 7
f 21 7 9
f 14 7 21
f 9 10 104
f 127 9 104
f 127 104 103
f 126 127 103
f 126 103 25
f 3 126 25
f 3 25 2
f 128 130 129
f 128 129 131
f 132 128 131
f 132 131 133
f 134 132 133
f 134 133 135
f 136 134 135
f 137 139 138
f 140 142 141
f 137 138 143
f 144 145 137
f 144 137 143
f 144 143 146
f 144 147 145
f 148 146 149
f 148 147 144
f 148 144 146
f 150 149 142
f 150 142 140
f 148 140 147
f 148 150 140
f 148 149 150
f 151 152 133
f 153 151 133
f 153 133 129
f 131 129 133
f 135 133 152
f 129 155 154
f 153 129 154
f 151 153 156
f 157 159 158
f 157 158 160
f 155 161 160
f 154 155 160
f 153 154 160
f 153 160 158
f 156 153 158
f 162 164 163
f 160 161 165
f 160 165 162
f 157 160 162
f 157 162 163
f 159 157 163
f 162 167 166
f 162 165 167
f 164 162 166
f 168 170 169
f 167 169 170
f 166 167 170
f 166 170 171
f 164 166 171
f 164 171 172
f 168 174 173
f 170 168 173
f 171 173 175
f 171 170 173
f 171 175 176
f 172 171 176
f 177 179 178
f 180 177 181
f 182 180 181
f 182 181 183
f 173 174 183
f 173 183 181
f 175 181 177
f 175 173 181
f 176 177 178
f 176 175 177
f 184 185 179
f 182 183 186
f 182 186 180
f 177 180 184
f 179 177 184
f 187 188 185
f 187 185 189
f 190 189 191
f 180 191 189
f 180 186 191
f 184 180 189
f 184 189 185
f 190 193 192
f 194 193 190
f 189 190 192
f 187 189 192
f 188 187 195
f 193 194 196
f 193 196 197
f 192 193 197
f 187 192 197
f 187 197 198
f 195 187 198
f 197 200 199
f 197 196 200
f 197 199 201
f 198 197 201
f 202 198 201
f 203 204 199
f 205 203 199
f 205 199 206
f 199 200 206
f 201 199 204
f 207 201 204
f 208 209 203
f 210 208 203
f 210 203 211
f 205 211 203
f 204 203 209
f 207 204 209
f 212 207 209
f 213 212 214
f 206 213 214
f 206 214 211
f 205 206 211
f 215 214 212
f 215 212 209
f 208 215 209
f 208 210 216
f 208 216 215
f 214 215 216
f 211 214 216
f 211 216 210
f 217 207 213
f 218 217 213
f 218 213 206
f 200 218 206
f 212 213 207
f 202 201 217
f 219 202 217
f 219 217 220
f 196 220 200
f 218 200 220
f 218 220 217
f 207 217 201
f 195 198 221
f 194 221 219
f 194 219 196
f 220 196 219
f 202 219 221
f 202 221 198
f 222 188 195
f 190 223 222
f 194 190 222
f 221 194 222
f 221 222 195
f 224 185 188
f 224 188 223
f 225 224 223
f 225 223 191
f 186 225 191
f 223 190 191
f 188 222 223
f 226 227 225
f 183 226 225
f 183 225 186
f 224 225 227
f 224 227 179
f 185 224 179
f 228 178 226
f 228 226 183
f 174 228 183
f 227 226 178
f 179 227 178
f 229 172 176
f 229 176 228
f 230 229 228
f 230 228 174
f 168 230 174
f 178 228 176
f 231 164 172
f 231 172 230
f 232 231 230
f 232 230 169
f 230 168 169
f 229 230 172
f 163 164 231
f 233 163 231
f 233 231 232
f 234 233 232
f 234 232 167
f 165 234 167
f 232 169 167
f 159 163 235
f 161 235 234
f 161 234 165
f 233 234 235
f 163 233 235
f 156 158 236
f 237 236 161
f 155 237 161
f 235 161 236
f 159 235 236
f 159 236 158
f 238 151 156
f 239 238 237
f 155 239 237
f 238 236 237
f 156 236 238
f 155 129 240
f 239 155 240
f 238 239 152
f 151 238 152
f 241 243 242
f 244 243 241
f 244 245 243
f 243 245 246
f 243 246 247
f 243 247 242
f 241 249 248
f 241 242 249
f 244 248 250
f 244 241 248
f 245 250 251
f 245 244 250
f 246 251 252
f 246 245 251
f 247 252 253
f 247 246 252
f 242 253 249
f 242 247 253
f 254 248 143
f 255 248 254
f 255 250 248
f 255 256 250
f 248 249 143
f 256 251 250
f 249 146 143
f 249 253 146
f 251 149 252
f 256 149 251
f 252 149 253
f 253 149 146
f 143 138 254
f 142 149 256
f 257 259 258
f 254 139 259
f 254 257 255
f 254 138 139
f 254 259 257
f 257 256 255
f 260 258 261
f 260 256 257
f 260 257 258
f 256 261 141
f 256 260 261
f 256 141 142
f 262 259 139
f 130 259 262
f 130 258 259
f 128 261 258
f 128 258 130
f 263 139 137
f 263 262 139
f 145 136 263
f 145 263 137
f 141 128 132
f 141 261 128
f 147 134 136
f 147 136 145
f 140 132 134
f 140 141 132
f 140 134 147
f 136 135 152
f 263 136 152
f 262 152 239
f 262 263 152
f 262 239 240
f 130 262 240
f 130 240 129

