v -0.13150001 -0.01786471 0.02021594
v -0.13950001 -0.01680151 0.02005202
v -0.13950001 -0.01792355 0.02017563
v -0.13150001 -0.01636760 0.01984306
v -0.13950001 -0.01577276 0.01932611
v -0.13150001 -0.01549258 0.01893123
v -0.13950001 -0.01520110 0.01819904
v -0.13150001 -0.01514718 0.01772046
v -0.13950001 -0.01534362 0.01666278
v -0.13150001 -0.01551228 0.01636760
v -0.13950001 -0.01636760 0.01551228
v -0.13150001 -0.01666278 0.01534362
v -0.13950001 -0.01772046 0.01514718
v -0.13150001 -0.01819904 0.01520110
v -0.13950001 -0.01893123 0.01549258
v -0.13150001 -0.01932611 0.01577276
v -0.13950001 -0.01984306 0.01636760
v -0.13150001 -0.02005202 0.01680151
v -0.13950001 -0.02021594 0.01786471
v -0.13150001 -0.02017563 0.01792355
v -0.13150001 -0.01984306 0.01898774
v -0.13950001 -0.01978395 0.01904288
v -0.13950001 -0.01898774 0.01984306
v -0.13150001 -0.01904288 0.01978395
v -0.13150001 0.01792355 0.02017563
v -0.13150001 0.01898774 0.01984306
v -0.13950001 0.01786471 0.02021594
v -0.13950001 0.01904288 0.01978395
v -0.13950001 0.01984306 0.01898774
v -0.13150001 0.01978395 0.01904288
v -0.13150001 0.02021594 0.01786471
v -0.13950001 0.02017563 0.01792355
v -0.13950001 0.02005202 0.01680151
v -0.13150001 0.01984306 0.01636760
v -0.13950001 0.01932611 0.01577276
v -0.13150001 0.01893123 0.01549258
v -0.13950001 0.01819904 0.01520110
v -0.13150001 0.01772046 0.01514718
v -0.13950001 0.01666278 0.01534362
v -0.13150001 0.01636760 0.01551228
v -0.13950001 0.01551228 0.01636760
v -0.13150001 0.01534362 0.01666278
v -0.13950001 0.01514718 0.01772046
v -0.13150001 0.01520110 0.01819904
v -0.13950001 0.01549258 0.01893123
v -0.13150001 0.01577276 0.01932611
v -0.13950001 0.01636760 0.01984306
v -0.13150001 0.01680151 0.02005202
v -0.13150001 0.01819904 -0.01520110
v -0.13950001 0.01893123 -0.01549258
v -0.13950001 0.01772046 -0.01514718
v -0.13150001 0.01932611 -0.01577276
v -0.13950001 0.01984306 -0.01636760
v -0.13150001 0.02005202 -0.01680151
v -0.13950001 0.02021594 -0.01786471
v -0.13150001 0.02017563 -0.01792355
v -0.13150001 0.01984306 -0.01898774
v -0.13950001 0.01978395 -0.01904288
v -0.13950001 0.01898774 -0.01984306
v -0.13150001 0.01904288 -0.01978395
v -0.13150001 0.01786471 -0.02021594
v -0.13950001 0.01792355 -0.02017563
v -0.13950001 0.01680151 -0.02005202
v -0.13150001 0.01636760 -0.01984306
v -0.13950001 0.01577276 -0.01932611
v -0.13150001 0.01549258 -0.01893123
v -0.13950001 0.01520110 -0.01819904
v -0.13150001 0.01514718 -0.01772046
v -0.13950001 0.01534362 -0.01666278
v -0.13150001 0.01551228 -0.01636760
v -0.13950001 0.01636760 -0.01551228
v -0.13150001 0.01666278 -0.01534362
v -0.13150001 -0.01772046 -0.01514718
v -0.13950001 -0.01666278 -0.01534362
v -0.13950001 -0.01819904 -0.01520110
v -0.13150001 -0.01636760 -0.01551228
v -0.13950001 -0.01551228 -0.01636760
v -0.13150001 -0.01534362 -0.01666278
v -0.13950001 -0.01514718 -0.01772046
v -0.13150001 -0.01520110 -0.01819904
v -0.13950001 -0.01549258 -0.01893123
v -0.13150001 -0.01577276 -0.01932611
v -0.13950001 -0.01636760 -0.01984306
v -0.13150001 -0.01680151 -0.02005202
v -0.13950001 -0.01786471 -0.02021594
v -0.13150001 -0.01792355 -0.02017563
v -0.13150001 -0.01898774 -0.01984306
v -0.13950001 -0.01904288 -0.01978395
v -0.13950001 -0.01984306 -0.01898774
v -0.13150001 -0.01978395 -0.01904288
v -0.13150001 -0.02021594 -0.01786471
v -0.13950001 -0.02019478 -0.01777879
v -0.13950001 -0.01998937 -0.01667663
v -0.13150001 -0.01984306 -0.01636760
v -0.13950001 -0.01932611 -0.01577276
v -0.13150001 -0.01893123 -0.01549258
v -0.13900192 0.00935196 0.01951422
v -0.13150001 0.00987799 0.01943519
v -0.13899952 0.01095607 0.01898611
v -0.13150001 0.01144383 0.01865291
v -0.13899817 0.01196195 0.01814730
v -0.13150001 0.01248244 0.01741325
v -0.13900000 0.01254288 0.01724580
v -0.13900113 0.01288460 0.01609266
v -0.13150001 0.01290381 0.01593981
v -0.13899724 0.01279530 0.01454268
v -0.13150001 0.01283181 0.01480334
v -0.13150001 0.01228098 0.01342270
v -0.13899991 0.01202703 0.01309701
v -0.13150001 0.01122794 0.01237357
v -0.13900170 0.01086253 0.01213009
v -0.13150001 0.01021122 0.01186071
v -0.13899817 0.00950381 0.01170684
v -0.13150001 0.00882415 0.01167282
v -0.13899991 0.00824046 0.01174225
v -0.13150001 0.00745951 0.01198429
v -0.13900000 0.00710792 0.01216519
v -0.13150001 0.00602863 0.01299245
v -0.13899978 0.00599960 0.01304678
v -0.13899991 0.00525312 0.01443471
v -0.13150001 0.00522166 0.01454570
v -0.13899952 0.00509761 0.01617744
v -0.13150001 0.00510425 0.01611617
v -0.13150001 0.00563523 0.01759881
v -0.13899952 0.00595209 0.01809560
v -0.13150001 0.00655617 0.01865291
v -0.13899978 0.00750989 0.01922743
v -0.13150001 0.00795412 0.01937811
v -0.13150001 0.01541261 0.01291564
v -0.13150001 0.01679968 0.01272775
v -0.13899991 0.01634800 0.01284621
v -0.13900000 0.01748054 0.01242327
v -0.13150001 0.01781640 0.01221489
v -0.13900201 0.01837461 0.01175419
v -0.13150001 0.01875947 0.01130388
v -0.13899952 0.01916804 0.01059900
v -0.13150001 0.01936679 0.01004276
v -0.13899817 0.01948877 0.00932916
v -0.13150001 0.01948421 0.00847229
v -0.13900170 0.01937527 0.00795626
v -0.13150001 0.01899065 0.00707015
v -0.13899945 0.01888500 0.00690247
v -0.13150001 0.01829714 0.00616694
v -0.13899991 0.01812198 0.00600810
v -0.13150001 0.01720655 0.00543896
v -0.13900113 0.01694442 0.00532499
v -0.13150001 0.01594086 0.00508450
v -0.13899924 0.01529830 0.00506409
v -0.13150001 0.01437724 0.00527225
v -0.13900113 0.01363005 0.00560370
v -0.13150001 0.01314463 0.00593554
v -0.13899817 0.01262651 0.00644116
v -0.13150001 0.01237295 0.00677295
v -0.13900000 0.01204558 0.00734265
v -0.13150001 0.01181012 0.00795724
v -0.13900113 0.01170386 0.00849580
v -0.13150001 0.01169271 0.00952772
v -0.13899952 0.01175264 0.00981040
v -0.13150001 0.01230748 0.01116576
v -0.13899724 0.01240262 0.01131267
v -0.13150001 0.01371873 0.01247453
v -0.13900170 0.01372593 0.01245837
v -0.13899817 0.01508464 0.01288162
v -0.13150001 0.01594086 -0.00508450
v -0.13150001 0.01720655 -0.00543896
v -0.13900089 0.01611743 -0.00509895
v -0.13899978 0.01780454 -0.00575170
v -0.13150001 0.01829714 -0.00616694
v -0.13899991 0.01889337 -0.00689103
v -0.13150001 0.01899065 -0.00707015
v -0.13899978 0.01946777 -0.00835700
v -0.13150001 0.01948421 -0.00847229
v -0.13900170 0.01937527 -0.01004374
v -0.13150001 0.01936679 -0.01004276
v -0.13150001 0.01875947 -0.01130388
v -0.13899787 0.01865747 -0.01144540
v -0.13150001 0.01781640 -0.01221489
v -0.13900170 0.01745098 -0.01245837
v -0.13150001 0.01679968 -0.01272775
v -0.13899817 0.01609227 -0.01288162
v -0.13150001 0.01541261 -0.01291564
v -0.13899991 0.01482891 -0.01284621
v -0.13150001 0.01371873 -0.01247453
v -0.13900000 0.01369637 -0.01242327
v -0.13899991 0.01271323 -0.01166520
v -0.13150001 0.01230748 -0.01116576
v -0.13899991 0.01196008 -0.01048497
v -0.13150001 0.01169271 -0.00952772
v -0.13900170 0.01166044 -0.00900131
v -0.13150001 0.01181012 -0.00795724
v -0.13900001 0.01184855 -0.00787688
v -0.13899787 0.01231259 -0.00683955
v -0.13150001 0.01237295 -0.00677295
v -0.13150001 0.01314463 -0.00593554
v -0.13900042 0.01330367 -0.00581817
v -0.13150001 0.01437724 -0.00527225
v -0.13899739 0.01448754 -0.00523726
v -0.13150001 0.00882415 -0.01167282
v -0.13150001 0.01021122 -0.01186071
v -0.13899991 0.00975954 -0.01174225
v -0.13900000 0.01089208 -0.01216519
v -0.13150001 0.01122794 -0.01237357
v -0.13899991 0.01187523 -0.01292326
v -0.13150001 0.01228098 -0.01342270
v -0.13899991 0.01262837 -0.01410349
v -0.13150001 0.01283181 -0.01480334
v -0.13900170 0.01292802 -0.01558714
v -0.13150001 0.01289575 -0.01611617
v -0.13899817 0.01265688 -0.01698418
v -0.13150001 0.01219211 -0.01790766
v -0.13900000 0.01213831 -0.01792293
v -0.13900113 0.01128479 -0.01877029
v -0.13150001 0.01085736 -0.01904003
v -0.13899787 0.01004552 -0.01937074
v -0.13150001 0.00952614 -0.01947257
v -0.13900076 0.00880282 -0.01949237
v -0.13150001 0.00795412 -0.01937811
v -0.13899787 0.00762267 -0.01926293
v -0.13150001 0.00655617 -0.01865291
v -0.13899991 0.00637525 -0.01850066
v -0.13150001 0.00563523 -0.01759881
v -0.13899978 0.00543155 -0.01724033
v -0.13150001 0.00510425 -0.01611617
v -0.13899978 0.00506822 -0.01552845
v -0.13150001 0.00522166 -0.01454570
v -0.13899991 0.00541924 -0.01399209
v -0.13150001 0.00602863 -0.01299245
v -0.13900000 0.00608359 -0.01298206
v -0.13900170 0.00713748 -0.01213009
v -0.13150001 0.00745951 -0.01198429
v -0.13899817 0.00849619 -0.01170684
v -0.13150001 -0.00882415 -0.01167282
v -0.13150001 -0.00745951 -0.01198429
v -0.13899991 -0.00824046 -0.01174225
v -0.13900000 -0.00710792 -0.01216519
v -0.13150001 -0.00602863 -0.01299245
v -0.13899978 -0.00599960 -0.01304678
v -0.13899991 -0.00525312 -0.01443471
v -0.13150001 -0.00522166 -0.01454570
v -0.13899952 -0.00509761 -0.01617744
v -0.13150001 -0.00510425 -0.01611617
v -0.13150001 -0.00563523 -0.01759881
v -0.13899952 -0.00595209 -0.01809560
v -0.13150001 -0.00655617 -0.01865291
v -0.13899978 -0.00750989 -0.01922743
v -0.13150001 -0.00795412 -0.01937811
v -0.13900192 -0.00935196 -0.01951422
v -0.13150001 -0.00987799 -0.01943519
v -0.13899952 -0.01095607 -0.01898611
v -0.13150001 -0.01144383 -0.01865291
v -0.13899817 -0.01196195 -0.01814730
v -0.13150001 -0.01248244 -0.01741325
v -0.13900000 -0.01254288 -0.01724580
v -0.13900113 -0.01288460 -0.01609266
v -0.13150001 -0.01290381 -0.01593981
v -0.13899724 -0.01279530 -0.01454268
v -0.13150001 -0.01283181 -0.01480334
v -0.13150001 -0.01228098 -0.01342270
v -0.13899991 -0.01202703 -0.01309701
v -0.13150001 -0.01122794 -0.01237357
v -0.13900170 -0.01086253 -0.01213009
v -0.13150001 -0.01021122 -0.01186071
v -0.13899817 -0.00950381 -0.01170684
v -0.13150001 -0.01594086 -0.00508450
v -0.13150001 -0.01437724 -0.00527225
v -0.13899909 -0.01482852 -0.00515387
v -0.13899820 -0.01375535 -0.00554759
v -0.13150001 -0.01314463 -0.00593554
v -0.13900068 -0.01275185 -0.00628845
v -0.13150001 -0.01237295 -0.00677295
v -0.13900000 -0.01204558 -0.00734265
v -0.13150001 -0.01181012 -0.00795724
v -0.13900113 -0.01170386 -0.00849580
v -0.13150001 -0.01169271 -0.00952772
v -0.13899952 -0.01175264 -0.00981040
v -0.13150001 -0.01230748 -0.01116576
v -0.13899724 -0.01240262 -0.01131267
v -0.13150001 -0.01371873 -0.01247453
v -0.13900170 -0.01372593 -0.01245837
v -0.13899817 -0.01508464 -0.01288162
v -0.13150001 -0.01541261 -0.01291564
v -0.13899991 -0.01634800 -0.01284621
v -0.13150001 -0.01679968 -0.01272775
v -0.13900000 -0.01748054 -0.01242327
v -0.13150001 -0.01781640 -0.01221489
v -0.13900201 -0.01837461 -0.01175419
v -0.13150001 -0.01875947 -0.01130388
v -0.13899952 -0.01916804 -0.01059900
v -0.13150001 -0.01936679 -0.01004276
v -0.13899817 -0.01948877 -0.00932916
v -0.13150001 -0.01948421 -0.00847229
v -0.13900170 -0.01937527 -0.00795626
v -0.13150001 -0.01899065 -0.00707015
v -0.13899945 -0.01888500 -0.00690247
v -0.13150001 -0.01829714 -0.00616694
v -0.13899991 -0.01812198 -0.00600810
v -0.13150001 -0.01720655 -0.00543896
v -0.13899702 -0.01657934 -0.00517983
v -0.13150001 -0.01541261 0.01291564
v -0.13150001 -0.01371873 0.01247453
v -0.13899991 -0.01482891 0.01284621
v -0.13900000 -0.01369637 0.01242327
v -0.13899991 -0.01271323 0.01166520
v -0.13150001 -0.01230748 0.01116576
v -0.13899991 -0.01196008 0.01048497
v -0.13150001 -0.01169271 0.00952772
v -0.13900170 -0.01166044 0.00900131
v -0.13150001 -0.01181012 0.00795724
v -0.13900001 -0.01184855 0.00787688
v -0.13899787 -0.01231259 0.00683955
v -0.13150001 -0.01237295 0.00677295
v -0.13150001 -0.01314463 0.00593554
v -0.13900001 -0.01314978 0.00594143
v -0.13899793 -0.01437570 0.00526388
v -0.13150001 -0.01437724 0.00527225
v -0.13150001 -0.01594086 0.00508450
v -0.13900089 -0.01611743 0.00509895
v -0.13150001 -0.01720655 0.00543896
v -0.13899978 -0.01780454 0.00575170
v -0.13150001 -0.01829714 0.00616694
v -0.13899991 -0.01889337 0.00689103
v -0.13150001 -0.01899065 0.00707015
v -0.13899978 -0.01946777 0.00835700
v -0.13150001 -0.01948421 0.00847229
v -0.13900170 -0.01937527 0.01004374
v -0.13150001 -0.01936679 0.01004276
v -0.13150001 -0.01875947 0.01130388
v -0.13899787 -0.01865747 0.01144540
v -0.13150001 -0.01781640 0.01221489
v -0.13900170 -0.01745098 0.01245837
v -0.13150001 -0.01679968 0.01272775
v -0.13899817 -0.01609227 0.01288162
v -0.13150001 -0.00795412 0.01937811
v -0.13900076 -0.00880282 0.01949237
v -0.13150001 -0.00952614 0.01947257
v -0.13899787 -0.00762267 0.01926293
v -0.13150001 -0.00655617 0.01865291
v -0.13899991 -0.00637525 0.01850066
v -0.13150001 -0.00563523 0.01759881
v -0.13899978 -0.00543155 0.01724033
v -0.13150001 -0.00510425 0.01611617
v -0.13899978 -0.00506822 0.01552845
v -0.13150001 -0.00522166 0.01454570
v -0.13899991 -0.00541924 0.01399209
v -0.13150001 -0.00602863 0.01299245
v -0.13900000 -0.00608359 0.01298206
v -0.13900170 -0.00713748 0.01213009
v -0.13150001 -0.00745951 0.01198429
v -0.13899817 -0.00849619 0.01170684
v -0.13150001 -0.00882415 0.01167282
v -0.13899991 -0.00975954 0.01174225
v -0.13150001 -0.01021122 0.01186071
v -0.13900000 -0.01089208 0.01216519
v -0.13150001 -0.01122794 0.01237357
v -0.13899991 -0.01187523 0.01292326
v -0.13150001 -0.01228098 0.01342270
v -0.13899991 -0.01262837 0.01410349
v -0.13150001 -0.01283181 0.01480334
v -0.13900170 -0.01292802 0.01558714
v -0.13150001 -0.01289575 0.01611617
v -0.13899817 -0.01265688 0.01698418
v -0.13150001 -0.01219211 0.01790766
v -0.13900000 -0.01213831 0.01792293
v -0.13900113 -0.01128479 0.01877029
v -0.13150001 -0.01085736 0.01904003
v -0.13899787 -0.01004552 0.01937074
v -0.13950002 -0.01437451 0.02699064
v -0.13949999 -0.01221815 0.01880587
v -0.13950001 -0.01531658 0.01341705
v -0.13950001 -0.02775241 0.01281835
v -0.13950002 -0.02493549 0.01763959
v -0.13950005 -0.02065797 0.02254695
v -0.13950001 0.01428884 0.02008306
v -0.13950001 0.01478215 0.02673045
v -0.13950004 0.01982831 0.02325521
v -0.13950001 0.01341705 0.01531658
v -0.13949999 0.01880587 0.01221815
v -0.13950001 0.02767997 -0.01299670
v -0.13950001 0.01531658 -0.01341705
v -0.13950001 0.01428884 -0.02008306
v -0.13950001 0.02178666 -0.02138792
v -0.13950001 0.02477494 -0.01782164
v -0.13950002 0.01783625 -0.02479520
v -0.13950001 -0.01659662 -0.02566000
v -0.13950001 -0.01341705 -0.01531658
v -0.13949999 -0.01880587 -0.01221815
v -0.13950001 -0.01934351 -0.02359397
v -0.13950004 -0.02294436 -0.02018754
v -0.13950001 -0.02585043 -0.01622234
v -0.13950075 0.00152942 -0.02831687
v -0.13949941 0.00084258 -0.03049286
v -0.13950002 0.00539823 -0.03008111
v -0.13949937 0.00360672 -0.02533767
v -0.13950001 -0.00405000 -0.02008306
v -0.13949955 -0.00352333 -0.02577776
v -0.13949984 -0.00315932 -0.02337343
v -0.13950166 0.00129491 -0.02168003
v -0.13949987 0.00290286 -0.02295065
v -0.13950001 0.00405000 -0.02008306
v -0.13950141 -0.00139209 -0.02168193
v -0.13950001 -0.00563049 -0.03000690
v -0.13950075 -0.00162378 -0.02822960
v -0.13949868 -0.00168486 -0.03046465
v -0.13950001 0.01050533 -0.02866626
v -0.13950001 0.01412943 -0.02704083
v -0.13950001 0.03049186 -0.00166458
v -0.13950001 0.02965016 -0.00727906
v -0.13950001 0.02822943 0.01162823
v -0.13950001 0.02579679 0.01633046
v -0.13950001 0.02941759 0.00809026
v -0.13950002 0.03038752 0.00325131
v -0.13950001 0.02329278 0.01971941
v -0.13949826 0.00366786 0.03034642
v -0.13950002 -0.00183707 0.03048755
v -0.13950001 0.00948403 0.02903587
v -0.13950001 -0.00786677 0.02951352
v -0.13950001 -0.02976137 0.00681009
v -0.13950001 -0.03050011 0.00166035
v -0.13950001 -0.02819574 -0.01174456
v -0.13950002 -0.03007732 -0.00552044
v -0.13950001 -0.01062244 -0.02863735
v -0.13950001 -0.00000000 -0.00550000
v -0.13949990 0.00462509 -0.01636936
v -0.13949984 0.00481113 -0.01398124
v -0.13949943 0.01336575 -0.01675204
v -0.13949934 0.00592914 -0.01890232
v -0.13949998 0.01317509 -0.01412787
v -0.13949949 0.00870484 -0.02005290
v -0.13949977 0.01140028 -0.01936391
v -0.13949983 0.01108635 -0.00954763
v -0.13950506 0.01258313 -0.00554686
v -0.13949953 0.01209301 -0.01235883
v -0.13949861 0.01290033 -0.01264712
v -0.13949993 0.00686619 -0.01164644
v -0.13949974 0.00973231 -0.01118623
v -0.13950001 0.00000000 0.00550000
v -0.13950111 0.01284566 0.00550357
v -0.13949977 0.01109845 0.00819752
v -0.13949987 0.00874980 0.01115856
v -0.13949952 0.01113361 0.01164681
v -0.13949890 0.01208581 0.01183263
v -0.13949998 0.01412787 0.01317509
v -0.13949981 0.01302296 0.01367465
v -0.13949974 0.00578451 0.01235313
v -0.13950725 0.01552666 0.00453905
v -0.13949989 0.01604299 0.00179758
v -0.13949987 0.01815332 0.00532375
v -0.13949898 0.02007288 0.00825822
v -0.13949943 0.01675204 0.01336575
v -0.13949993 0.01807748 -0.00529707
v -0.13949999 0.01598519 -0.00352649
v -0.13945121 0.01544852 -0.00459625
v -0.13949938 0.01998398 -0.00993128
v -0.13949992 0.01961292 -0.00709235
v -0.13949925 0.01805884 -0.01279877
v -0.13950111 -0.01284566 -0.00550357
v -0.13949986 -0.01117435 -0.00797166
v -0.13949938 -0.01109681 -0.01162750
v -0.13950001 -0.01146902 -0.01054605
v -0.13949993 -0.01186476 -0.01139983
v -0.13949977 -0.00799722 -0.01116224
v -0.13949971 -0.00507521 -0.01333514
v -0.13949981 -0.01302296 -0.01367465
v -0.13949962 -0.01349419 -0.01295187
v -0.13950001 -0.01135764 -0.01021884
v -0.13950607 -0.01552575 -0.00453255
v -0.13950136 -0.01599794 -0.00358747
v -0.13949987 -0.01815332 -0.00532375
v -0.13950001 -0.01600000 -0.00000000
v -0.13949898 -0.02007288 -0.00825822
v -0.13949943 -0.01675204 -0.01336575
v -0.13950078 -0.01599877 0.00351840
v -0.13945121 -0.01544852 0.00459625
v -0.13949993 -0.01807748 0.00529707
v -0.13949938 -0.01998398 0.00993128
v -0.13949925 -0.01805884 0.01279877
v -0.13949992 -0.01961292 0.00709235
v -0.13950506 -0.01258321 0.00554686
v -0.13949995 -0.01110664 0.00891416
v -0.13949950 -0.01209299 0.01235885
v -0.13949998 -0.01317509 0.01412787
v -0.13949981 -0.01367465 0.01302296
v -0.13949999 -0.00742294 0.01143076
v -0.13949963 -0.00507043 0.01332908
v -0.13949983 -0.01177930 0.01129402
v -0.13949972 -0.00973230 0.01118624
v -0.13949965 0.00452919 0.01551951
v -0.13949959 0.00531474 0.01816786
v -0.13949925 0.01279877 0.01805884
v -0.13949946 0.00816312 0.01999345
v -0.13949992 0.01053487 0.01975101
v -0.13949990 -0.00462509 0.01636936
v -0.13949943 -0.01336575 0.01675204
v -0.13949934 -0.00592914 0.01890232
v -0.13949949 -0.00870484 0.02005290
v -0.13949975 -0.00472061 -0.01689941
v -0.13949995 -0.00581108 -0.01867432
v -0.13949946 -0.00816312 -0.01999345
v -0.13949925 -0.01279877 -0.01805884
v -0.13949992 -0.01053487 -0.01975101
v -0.13349999 -0.02340157 0.02111523
v -0.13349999 -0.02528105 0.01879803
v -0.13850261 -0.02543369 0.01860151
v -0.13349999 -0.02695914 0.01633067
v -0.13850001 -0.02746104 0.01547183
v -0.13349999 -0.02869071 0.01302811
v -0.13850001 -0.02919115 0.01188962
v -0.13349999 -0.02988340 0.01002341
v -0.13850261 -0.03024649 0.00883394
v -0.13349999 -0.03099146 0.00581501
v -0.13850001 -0.03108754 0.00520108
v -0.13850261 -0.03144734 0.00198837
v -0.13349999 -0.03147480 0.00149185
v -0.13850001 -0.03149509 -0.00074591
v -0.13349999 -0.03147481 -0.00149171
v -0.13850261 -0.03136887 -0.00298032
v -0.13349999 -0.03119263 -0.00446191
v -0.13850001 -0.03098617 -0.00568811
v -0.13349999 -0.03058062 -0.00763622
v -0.13850001 -0.03032443 -0.00859740
v -0.13349999 -0.02905964 -0.01223850
v -0.13850001 -0.02899998 -0.01234858
v -0.13850261 -0.02757406 -0.01524991
v -0.13349999 -0.02677421 -0.01665489
v -0.13850001 -0.02614265 -0.01758007
v -0.13850261 -0.02483367 -0.01939530
v -0.13349999 -0.02382288 -0.02065706
v -0.13850261 -0.02288794 -0.02165712
v -0.13349999 -0.02110908 -0.02339434
v -0.13850001 -0.02017575 -0.02421622
v -0.13349999 -0.01880182 -0.02528597
v -0.13850261 -0.01758349 -0.02614784
v -0.13349999 -0.01611737 -0.02708721
v -0.13850261 -0.01503161 -0.02769367
v -0.13349999 -0.01223856 -0.02906033
v -0.13850001 -0.01165884 -0.02928409
v -0.13850001 -0.00787736 -0.03051939
v -0.13349999 -0.00703419 -0.03073701
v -0.13850001 -0.00495290 -0.03111215
v -0.13349999 -0.00322781 -0.03134438
v -0.13849677 -0.00198926 -0.03145476
v -0.13349999 0.00000021 -0.03151995
v -0.13850001 0.00000000 -0.03150000
v -0.13850170 0.00167786 -0.03146232
v -0.13349999 0.00397041 -0.03126855
v -0.13850001 0.00495512 -0.03112769
v -0.13349999 0.00787736 -0.03051940
v -0.13850261 0.00811547 -0.03044713
v -0.13850261 0.01095877 -0.02954308
v -0.13349999 0.01165884 -0.02928409
v -0.13850001 0.01347665 -0.02847590
v -0.13349999 0.01503163 -0.02769366
v -0.13850001 0.01611737 -0.02708721
v -0.13349999 0.01758351 -0.02614783
v -0.13850261 0.01880184 -0.02528595
v -0.13349999 0.02017575 -0.02421623
v -0.13850261 0.02110910 -0.02339432
v -0.13349999 0.02288796 -0.02165710
v -0.13850001 0.02305367 -0.02147151
v -0.13850261 0.02452452 -0.01978476
v -0.13349999 0.02483368 -0.01939528
v -0.13850001 0.02614261 -0.01758014
v -0.13349999 0.02669798 -0.01675422
v -0.13850261 0.02732998 -0.01568313
v -0.13349999 0.02896181 -0.01246826
v -0.13850001 0.02858136 -0.01325153
v -0.13850261 0.02945573 -0.01119144
v -0.13349999 0.03032443 -0.00859740
v -0.13850001 0.03058062 -0.00763622
v -0.13349999 0.03098617 -0.00568811
v -0.13850261 0.03119263 -0.00446188
v -0.13349999 0.03147637 -0.00186603
v -0.13850261 0.03147481 -0.00149169
v -0.13850261 0.03147480 0.00149188
v -0.13349999 0.03144734 0.00198840
v -0.13850261 0.03119260 0.00446207
v -0.13349999 0.03108754 0.00520108
v -0.13850001 0.03068213 0.00714871
v -0.13349999 0.03024648 0.00883396
v -0.13850001 0.02988340 0.01002340
v -0.13349999 0.02919115 0.01188962
v -0.13850261 0.02869070 0.01302814
v -0.13349999 0.02746104 0.01547183
v -0.13850261 0.02732989 0.01568330
v -0.13850001 0.02586187 0.01799057
v -0.13349999 0.02543367 0.01860153
v -0.13850261 0.02452439 0.01978491
v -0.13349999 0.02356033 0.02092366
v -0.13850001 0.02202244 0.02254991
v -0.13349999 0.02147576 0.02305819
v -0.13850261 0.01959056 0.02467992
v -0.13349999 0.01919865 0.02498601
v -0.13850001 0.01737324 0.02628056
v -0.13349999 0.01654296 0.02682940
v -0.13850261 0.01546691 0.02745293
v -0.13349999 0.01303178 0.02869946
v -0.13850001 0.01302552 0.02868507
v -0.13850001 0.01025937 0.02980322
v -0.13349999 0.00895903 0.03023278
v -0.13850001 0.00739075 0.03062473
v -0.13850261 0.00519921 0.03107823
v -0.13349999 0.00470812 0.03115642
v -0.13849735 0.00174061 0.03146475
v -0.13349999 0.00149210 0.03147826
v -0.13850001 -0.00000000 0.03150000
v -0.13349999 -0.00000000 0.03150000
v -0.13850066 -0.00149215 0.03147836
v -0.13349999 -0.00174063 0.03146497
v -0.13850261 -0.00470815 0.03115641
v -0.13349999 -0.00630360 0.03089512
v -0.13850261 -0.00763381 0.03057145
v -0.13349999 -0.01025937 0.02980322
v -0.13850001 -0.01025402 0.02978846
v -0.13850001 -0.01303178 0.02869946
v -0.13349999 -0.01302552 0.02868507
v -0.13349999 -0.01644303 0.02690484
v -0.13850001 -0.01654296 0.02682940
v -0.13850261 -0.01919867 0.02498599
v -0.13349999 -0.02046837 0.02398519
v -0.13850261 -0.02147578 0.02305817
v -0.13850261 -0.02356035 0.02092364
v -0.13349999 0.00075677 -0.02207719
v -0.13899939 0.00096126 -0.02211004
v -0.13349999 -0.00061007 -0.02203135
v -0.13349999 0.00178177 -0.02257254
v -0.13899972 0.00233387 -0.02306516
v -0.13349999 0.00247804 -0.02327523
v -0.13899989 0.00293641 -0.02429404
v -0.13349999 0.00302911 -0.02469197
v -0.13900161 0.00296581 -0.02560787
v -0.13349999 0.00272097 -0.02633470
v -0.13899902 0.00250605 -0.02667518
v -0.13349999 0.00201821 -0.02723475
v -0.13900161 0.00160276 -0.02756840
v -0.13349999 0.00090728 -0.02789170
v -0.13899757 0.00043779 -0.02798010
v -0.13349999 -0.00022925 -0.02800245
v -0.13900000 0.00000000 -0.02800000
v -0.13900028 -0.00045641 -0.02797678
v -0.13349999 -0.00161055 -0.02758389
v -0.13900161 -0.00160007 -0.02757008
v -0.13899818 -0.00248445 -0.02670619
v -0.13349999 -0.00272097 -0.02633470
v -0.13899989 -0.00293641 -0.02570597
v -0.13349999 -0.00302911 -0.02469197
v -0.13899989 -0.00297684 -0.02449077
v -0.13899972 -0.00245807 -0.02322561
v -0.13349999 -0.00247804 -0.02327523
v -0.13349999 -0.00165754 -0.02248607
v -0.13900073 -0.00157539 -0.02243670
v -0.13903615 -0.00057375 -0.02202522
v -0.13899709 -0.01548404 0.00359631
v -0.13900068 -0.01549103 -0.00358548
v -0.13450000 -0.01549340 0.00352004
v -0.13450000 -0.01548774 -0.00353190
v -0.13899913 -0.01384646 -0.00499854
v -0.13899969 0.01384618 -0.00499924
v -0.13450000 -0.01385874 -0.00499920
v -0.13450000 0.01385910 -0.00499846
v -0.13899709 0.01548404 -0.00359631
v -0.13900071 0.01549103 0.00358545
v -0.13450000 0.01549340 -0.00352004
v -0.13450000 0.01548774 0.00353190
v -0.13899904 0.01384647 0.00499854
v -0.13899979 -0.01384618 0.00499924
v -0.13450000 0.01385874 0.00499920
v -0.13450000 -0.01385910 0.00499846
v -0.13899919 -0.01465103 0.00465445
v -0.13450000 -0.01474774 0.00458516
v -0.13450000 -0.01474774 -0.00458516
v -0.13900165 -0.01464921 -0.00465572
v -0.13450000 0.01474774 0.00458516
v -0.13914649 0.01433365 0.00490893
v -0.13899919 0.01465103 -0.00465445
v -0.13450000 0.01474774 -0.00458516
v -0.13950001 0.00000000 -0.03050000
v -0.13950001 -0.00000000 0.03050000
v -0.13950001 0.00000000 -0.02850000
v -0.13916607 -0.01439487 -0.00506154
f 1 3 2
f 1 2 4
f 4 2 5
f 4 5 6
f 6 5 7
f 6 7 8
f 8 7 9
f 8 9 10
f 10 9 11
f 10 11 12
f 12 11 13
f 12 13 14
f 14 13 15
f 14 15 16
f 16 15 17
f 16 17 18
f 18 17 19
f 18 19 20
f 20 19 21
f 21 19 22
f 21 22 23
f 21 23 24
f 24 23 1
f 1 23 3
f 25 27 26
f 26 27 28
f 26 28 29
f 26 29 30
f 30 29 31
f 31 29 32
f 31 32 33
f 31 33 34
f 34 33 35
f 34 35 36
f 36 35 37
f 36 37 38
f 38 37 39
f 38 39 40
f 40 39 41
f 40 41 42
f 42 41 43
f 42 43 44
f 44 43 45
f 44 45 46
f 46 45 47
f 46 47 48
f 48 47 27
f 48 27 25
f 49 51 50
f 49 50 52
f 52 50 53
f 52 53 54
f 54 53 55
f 54 55 56
f 56 55 57
f 57 55 58
f 57 58 59
f 57 59 60
f 60 59 61
f 61 59 62
f 61 62 63
f 61 63 64
f 64 63 65
f 64 65 66
f 66 65 67
f 66 67 68
f 68 67 69
f 68 69 70
f 70 69 71
f 70 71 72
f 72 71 51
f 72 51 49
f 73 75 74
f 73 74 76
f 76 74 77
f 76 77 78
f 78 77 79
f 78 79 80
f 80 79 81
f 80 81 82
f 82 81 83
f 82 83 84
f 84 83 85
f 84 85 86
f 86 85 87
f 87 85 88
f 87 88 89
f 87 89 90
f 90 89 91
f 91 89 92
f 91 92 93
f 91 93 94
f 94 93 95
f 94 95 96
f 96 95 75
f 96 75 73
f 97 99 98
f 98 99 100
f 99 101 100
f 100 101 102
f 102 101 103
f 102 103 104
f 102 104 105
f 104 106 105
f 105 106 107
f 107 106 108
f 108 106 109
f 108 109 110
f 110 109 111
f 110 111 112
f 111 113 112
f 112 113 114
f 114 113 115
f 114 115 116
f 116 115 117
f 116 117 118
f 118 117 119
f 118 119 120
f 118 120 121
f 121 120 122
f 121 122 123
f 123 122 124
f 124 122 125
f 124 125 126
f 126 125 127
f 126 127 128
f 128 127 97
f 128 97 98
f 129 131 130
f 130 131 132
f 130 132 133
f 133 132 134
f 133 134 135
f 134 136 135
f 135 136 137
f 136 138 137
f 137 138 139
f 139 138 140
f 139 140 141
f 140 142 141
f 141 142 143
f 143 142 144
f 143 144 145
f 145 144 146
f 145 146 147
f 146 148 147
f 147 148 149
f 148 150 149
f 149 150 151
f 150 152 151
f 151 152 153
f 153 152 154
f 153 154 155
f 155 154 156
f 155 156 157
f 156 158 157
f 157 158 159
f 158 160 159
f 159 160 161
f 161 160 162
f 162 163 161
f 161 163 129
f 129 163 131
f 164 166 165
f 165 166 167
f 165 167 168
f 168 167 169
f 168 169 170
f 170 169 171
f 170 171 172
f 172 171 173
f 172 173 174
f 174 173 175
f 173 176 175
f 175 176 177
f 177 176 178
f 177 178 179
f 178 180 179
f 179 180 181
f 181 180 182
f 181 182 183
f 183 182 184
f 183 184 185
f 183 185 186
f 186 185 187
f 186 187 188
f 188 187 189
f 188 189 190
f 189 191 190
f 191 192 190
f 190 192 193
f 193 192 194
f 194 192 195
f 194 195 196
f 195 197 196
f 196 197 164
f 197 166 164
f 198 200 199
f 199 200 201
f 199 201 202
f 202 201 203
f 202 203 204
f 204 203 205
f 204 205 206
f 206 205 207
f 206 207 208
f 207 209 208
f 208 209 210
f 210 209 211
f 210 211 212
f 210 212 213
f 212 214 213
f 213 214 215
f 215 214 216
f 215 216 217
f 216 218 217
f 217 218 219
f 219 218 220
f 219 220 221
f 221 220 222
f 221 222 223
f 223 222 224
f 223 224 225
f 225 224 226
f 225 226 227
f 227 226 228
f 227 228 229
f 227 229 230
f 229 231 230
f 230 231 198
f 198 231 200
f 232 234 233
f 233 234 235
f 233 235 236
f 236 235 237
f 236 237 238
f 236 238 239
f 239 238 240
f 239 240 241
f 241 240 242
f 242 240 243
f 242 243 244
f 244 243 245
f 244 245 246
f 246 245 247
f 246 247 248
f 247 249 248
f 248 249 250
f 249 251 250
f 250 251 252
f 252 251 253
f 252 253 254
f 252 254 255
f 254 256 255
f 255 256 257
f 257 256 258
f 258 256 259
f 258 259 260
f 260 259 261
f 260 261 262
f 261 263 262
f 262 263 232
f 232 263 234
f 264 266 265
f 265 266 267
f 265 267 268
f 267 269 268
f 268 269 270
f 270 269 271
f 270 271 272
f 272 271 273
f 272 273 274
f 273 275 274
f 274 275 276
f 275 277 276
f 276 277 278
f 278 277 279
f 279 280 278
f 278 280 281
f 281 280 282
f 281 282 283
f 283 282 284
f 283 284 285
f 285 284 286
f 285 286 287
f 286 288 287
f 287 288 289
f 288 290 289
f 289 290 291
f 291 290 292
f 291 292 293
f 292 294 293
f 293 294 295
f 295 294 296
f 295 296 297
f 297 296 298
f 297 298 264
f 264 298 266
f 299 301 300
f 300 301 302
f 300 302 303
f 300 303 304
f 304 303 305
f 304 305 306
f 306 305 307
f 306 307 308
f 307 309 308
f 309 310 308
f 308 310 311
f 311 310 312
f 312 310 313
f 312 313 314
f 312 314 315
f 315 314 316
f 314 317 316
f 316 317 318
f 318 317 319
f 318 319 320
f 320 319 321
f 320 321 322
f 322 321 323
f 322 323 324
f 324 323 325
f 324 325 326
f 326 325 327
f 325 328 327
f 327 328 329
f 329 328 330
f 329 330 331
f 330 332 331
f 331 332 299
f 299 332 301
f 333 335 334
f 334 336 333
f 333 336 337
f 337 336 338
f 337 338 339
f 339 338 340
f 339 340 341
f 341 340 342
f 341 342 343
f 343 342 344
f 343 344 345
f 345 344 346
f 345 346 347
f 345 347 348
f 347 349 348
f 348 349 350
f 350 349 351
f 350 351 352
f 352 351 353
f 352 353 354
f 354 353 355
f 354 355 356
f 356 355 357
f 356 357 358
f 358 357 359
f 358 359 360
f 359 361 360
f 360 361 362
f 362 361 363
f 362 363 364
f 362 364 365
f 364 366 365
f 365 366 335
f 335 366 334
f 367 368 2
f 369 9 7
f 369 7 368
f 11 9 369
f 17 15 370
f 370 15 13
f 369 13 11
f 368 7 5
f 368 5 2
f 371 19 370
f 370 19 17
f 19 371 372
f 19 372 22
f 3 23 372
f 372 23 22
f 373 374 27
f 27 374 375
f 375 32 29
f 375 29 28
f 375 28 27
f 27 47 373
f 373 47 45
f 373 45 43
f 43 41 376
f 377 35 33
f 373 43 376
f 37 35 377
f 376 41 39
f 376 39 37
f 376 37 377
f 378 55 53
f 379 69 67
f 379 67 380
f 379 71 69
f 67 65 380
f 378 53 50
f 378 50 51
f 51 71 379
f 380 65 63
f 378 51 379
f 55 382 381
f 55 378 382
f 381 58 55
f 62 59 381
f 381 59 58
f 381 383 62
f 62 383 63
f 63 383 380
f 81 384 83
f 85 83 384
f 384 81 79
f 79 77 385
f 386 95 93
f 384 79 385
f 385 77 74
f 75 386 385
f 75 95 386
f 385 74 75
f 387 85 384
f 388 88 85
f 388 89 88
f 89 388 92
f 92 388 389
f 92 389 93
f 93 389 386
f 390 392 391
f 392 390 393
f 394 396 395
f 397 399 398
f 394 400 396
f 395 402 401
f 393 398 399
f 402 403 401
f 403 402 391
f 391 402 390
f 404 392 399
f 383 405 380
f 380 405 399
f 399 405 404
f 392 393 399
f 406 407 378
f 377 409 408
f 377 408 406
f 406 408 410
f 406 410 411
f 375 412 32
f 32 412 409
f 32 409 33
f 33 409 377
f 413 415 414
f 415 374 414
f 414 374 373
f 368 367 414
f 414 367 416
f 3 372 2
f 2 372 367
f 417 370 418
f 419 420 418
f 389 419 386
f 386 419 418
f 85 387 388
f 401 394 395
f 394 401 421
f 394 421 384
f 422 424 423
f 423 399 422
f 380 425 379
f 423 426 399
f 379 425 427
f 399 426 428
f 428 429 380
f 380 429 425
f 399 428 380
f 422 431 430
f 430 433 432
f 434 424 422
f 422 430 434
f 427 432 433
f 430 432 435
f 435 434 430
f 436 438 437
f 439 440 438
f 440 441 438
f 441 443 442
f 438 436 444
f 438 444 439
f 441 440 443
f 445 447 446
f 406 447 448
f 446 447 406
f 448 377 406
f 376 449 442
f 377 449 376
f 450 452 451
f 378 453 406
f 406 453 454
f 446 406 451
f 451 406 450
f 433 379 427
f 455 453 378
f 454 450 406
f 378 379 455
f 422 457 456
f 458 460 459
f 459 461 458
f 422 462 461
f 463 464 458
f 458 464 460
f 457 422 461
f 457 461 465
f 465 461 459
f 466 468 467
f 469 467 418
f 467 468 418
f 418 468 470
f 418 470 386
f 386 471 385
f 385 471 464
f 472 474 473
f 369 370 13
f 370 476 475
f 370 369 476
f 477 474 418
f 370 475 418
f 475 477 418
f 469 418 472
f 472 418 474
f 478 479 436
f 480 482 481
f 483 484 436
f 482 480 485
f 436 479 483
f 480 486 485
f 479 486 483
f 479 485 486
f 436 487 444
f 443 376 442
f 488 487 414
f 373 376 489
f 414 487 436
f 414 490 488
f 373 489 491
f 373 491 490
f 373 490 414
f 436 484 492
f 493 481 369
f 436 492 414
f 369 481 482
f 368 493 369
f 414 492 494
f 414 494 495
f 414 495 368
f 464 463 385
f 394 497 496
f 462 422 496
f 498 497 394
f 384 385 499
f 498 384 500
f 384 498 394
f 384 499 500
f 394 496 422
f 394 422 399
f 394 399 400
f 400 399 397
f 501 503 502
f 502 503 504
f 504 503 505
f 504 505 506
f 506 505 507
f 506 507 508
f 508 507 509
f 508 509 510
f 510 509 511
f 510 511 512
f 510 512 513
f 513 512 514
f 513 514 515
f 515 514 516
f 515 516 517
f 517 516 518
f 517 518 519
f 519 518 520
f 519 520 521
f 521 520 522
f 521 522 523
f 521 523 524
f 524 523 525
f 524 525 526
f 524 526 527
f 527 526 528
f 527 528 529
f 529 528 530
f 529 530 531
f 531 530 532
f 531 532 533
f 533 532 534
f 533 534 535
f 535 534 536
f 535 536 537
f 535 537 538
f 538 537 539
f 538 539 540
f 540 539 541
f 540 541 542
f 542 541 543
f 543 544 542
f 542 544 545
f 545 544 546
f 545 546 547
f 547 546 548
f 547 548 549
f 547 549 550
f 550 549 551
f 550 551 552
f 552 551 553
f 552 553 554
f 554 553 555
f 554 555 556
f 556 555 557
f 556 557 558
f 558 557 559
f 558 559 560
f 558 560 561
f 561 560 562
f 561 562 563
f 563 562 564
f 563 564 565
f 565 564 566
f 565 566 567
f 565 567 568
f 568 567 569
f 568 569 570
f 570 569 571
f 570 571 572
f 572 571 573
f 572 573 574
f 572 574 575
f 575 574 576
f 575 576 577
f 577 576 578
f 577 578 579
f 579 578 580
f 579 580 581
f 581 580 582
f 581 582 583
f 583 582 584
f 583 584 585
f 583 585 586
f 586 585 587
f 586 587 588
f 588 587 589
f 588 589 590
f 590 589 591
f 590 591 592
f 592 591 593
f 592 593 594
f 594 593 595
f 594 595 596
f 596 595 597
f 596 597 598
f 596 598 599
f 599 598 600
f 599 600 601
f 599 601 602
f 602 601 603
f 602 603 604
f 604 603 605
f 604 605 606
f 606 605 607
f 606 607 608
f 608 607 609
f 608 609 610
f 610 609 611
f 610 611 612
f 612 611 613
f 612 613 614
f 612 614 615
f 615 614 616
f 616 614 617
f 616 617 618
f 616 618 619
f 619 618 620
f 619 620 501
f 501 620 621
f 501 621 503
f 622 624 623
f 622 623 625
f 625 623 626
f 625 626 627
f 627 626 628
f 627 628 629
f 629 628 630
f 629 630 631
f 630 632 631
f 631 632 633
f 633 632 634
f 633 634 635
f 634 636 635
f 635 636 637
f 636 638 637
f 637 638 639
f 637 639 640
f 640 639 641
f 641 642 640
f 640 642 643
f 643 642 644
f 643 644 645
f 645 644 646
f 645 646 647
f 645 647 648
f 648 647 649
f 649 647 650
f 649 650 624
f 650 651 624
f 624 651 623
f 652 654 653
f 653 654 655
f 656 658 657
f 657 658 659
f 660 662 661
f 661 662 663
f 664 666 665
f 665 666 667
f 665 667 668
f 668 667 669
f 668 669 652
f 652 669 654
f 653 655 670
f 653 670 671
f 671 670 658
f 671 658 656
f 661 663 672
f 661 672 673
f 673 672 666
f 673 666 664
f 657 659 674
f 674 659 675
f 674 675 660
f 660 675 662
f 621 371 503
f 503 371 505
f 505 371 370
f 505 370 507
f 507 370 509
f 509 370 417
f 509 417 511
f 511 417 418
f 511 418 512
f 512 418 514
f 514 418 420
f 514 420 516
f 516 420 518
f 518 420 520
f 520 420 419
f 520 419 522
f 522 419 523
f 523 419 389
f 523 389 525
f 525 389 388
f 525 388 526
f 526 388 528
f 528 388 530
f 530 388 387
f 530 387 384
f 530 384 532
f 532 384 534
f 534 384 421
f 534 421 536
f 536 421 537
f 537 421 401
f 537 401 539
f 539 401 541
f 541 401 403
f 541 403 676
f 541 676 544
f 544 676 391
f 371 621 372
f 372 621 620
f 372 620 618
f 372 618 617
f 372 617 367
f 367 617 614
f 367 614 613
f 367 613 416
f 416 613 611
f 416 611 609
f 416 609 414
f 414 609 607
f 414 607 677
f 677 607 603
f 677 603 413
f 413 603 601
f 413 601 600
f 413 600 415
f 415 600 598
f 415 598 597
f 415 597 374
f 374 597 595
f 374 595 593
f 374 593 375
f 375 593 591
f 375 591 589
f 375 589 412
f 412 589 587
f 412 587 585
f 412 585 409
f 409 585 584
f 409 584 582
f 409 582 408
f 408 582 580
f 408 580 410
f 410 580 578
f 410 578 411
f 411 578 576
f 411 576 574
f 411 574 573
f 411 573 406
f 406 573 571
f 406 571 407
f 407 571 569
f 407 569 567
f 407 567 378
f 378 567 566
f 378 566 564
f 378 564 562
f 378 562 382
f 382 562 560
f 382 560 381
f 381 560 559
f 381 559 557
f 381 557 383
f 383 557 555
f 383 555 553
f 383 553 405
f 405 553 551
f 405 551 404
f 404 551 549
f 404 549 548
f 404 548 392
f 392 548 546
f 392 546 544
f 392 544 391
f 623 397 626
f 626 397 398
f 626 398 628
f 628 398 393
f 628 393 630
f 630 393 632
f 632 393 390
f 632 390 634
f 634 390 636
f 636 390 678
f 636 678 639
f 639 678 402
f 639 402 641
f 641 402 642
f 642 402 395
f 642 395 644
f 644 395 646
f 646 395 396
f 646 396 647
f 647 396 400
f 647 400 650
f 650 400 651
f 623 651 397
f 148 673 150
f 148 445 673
f 150 673 437
f 150 437 152
f 152 437 438
f 152 438 154
f 154 438 156
f 156 438 158
f 158 438 441
f 158 441 160
f 160 441 162
f 162 441 442
f 162 442 163
f 163 442 449
f 163 449 131
f 131 449 132
f 132 449 134
f 134 449 377
f 134 377 136
f 136 377 448
f 136 448 138
f 138 448 140
f 140 448 142
f 142 448 447
f 142 447 144
f 144 447 146
f 146 447 445
f 146 445 148
f 437 673 664
f 436 437 664
f 436 664 665
f 436 665 478
f 473 317 314
f 314 478 473
f 313 478 314
f 317 473 474
f 317 474 319
f 319 474 321
f 321 474 477
f 321 477 323
f 323 477 475
f 323 475 325
f 325 475 328
f 328 475 476
f 328 476 330
f 330 476 332
f 332 476 369
f 332 369 301
f 301 369 482
f 301 482 302
f 302 482 303
f 303 482 485
f 303 485 305
f 305 485 479
f 305 479 307
f 307 479 309
f 309 479 478
f 309 478 310
f 310 478 313
f 445 661 673
f 446 661 445
f 668 473 665
f 665 473 478
f 652 473 668
f 473 652 472
f 451 660 446
f 446 660 661
f 472 652 469
f 469 652 653
f 469 653 467
f 452 166 197
f 197 431 452
f 195 431 197
f 166 452 450
f 166 450 167
f 167 450 169
f 169 450 454
f 169 454 171
f 171 454 453
f 171 453 173
f 173 453 176
f 176 453 455
f 176 455 178
f 178 455 180
f 180 455 379
f 180 379 182
f 182 379 433
f 182 433 184
f 184 433 185
f 185 433 187
f 187 433 430
f 187 430 189
f 189 430 191
f 191 430 431
f 191 431 192
f 192 431 195
f 674 452 657
f 657 452 431
f 660 452 674
f 452 660 451
f 467 653 466
f 466 653 679
f 679 653 671
f 679 671 656
f 679 267 266
f 456 269 267
f 456 267 679
f 298 466 266
f 266 466 679
f 269 456 457
f 269 457 271
f 271 457 273
f 273 457 275
f 275 457 465
f 275 465 459
f 275 459 277
f 277 459 460
f 277 460 464
f 277 464 279
f 279 464 280
f 280 464 471
f 280 471 282
f 282 471 284
f 284 471 286
f 286 471 386
f 286 386 288
f 288 386 470
f 288 470 290
f 290 470 292
f 292 470 294
f 294 470 468
f 294 468 296
f 296 468 298
f 298 468 466
f 431 422 657
f 657 422 656
f 656 422 456
f 656 456 679
f 261 458 263
f 263 458 461
f 263 461 234
f 458 261 259
f 458 259 463
f 463 259 256
f 463 256 385
f 385 256 254
f 385 254 499
f 499 254 253
f 499 253 251
f 499 251 249
f 499 249 500
f 500 249 247
f 500 247 498
f 498 247 245
f 498 245 497
f 497 245 243
f 497 243 496
f 496 243 240
f 496 240 462
f 462 240 238
f 462 238 237
f 462 237 461
f 461 237 235
f 461 235 234
f 364 368 366
f 366 368 495
f 366 495 334
f 368 364 363
f 368 363 493
f 493 363 361
f 493 361 359
f 493 359 481
f 481 359 357
f 481 357 480
f 480 357 355
f 480 355 353
f 480 353 486
f 486 353 351
f 486 351 349
f 486 349 483
f 483 349 347
f 483 347 484
f 484 347 346
f 484 346 344
f 484 344 342
f 484 342 492
f 492 342 340
f 492 340 494
f 494 340 338
f 494 338 336
f 494 336 495
f 495 336 334
f 127 490 97
f 490 127 488
f 488 127 125
f 488 125 122
f 488 122 487
f 487 122 120
f 487 120 444
f 444 120 119
f 444 119 117
f 444 117 115
f 444 115 439
f 439 115 113
f 439 113 440
f 440 113 111
f 440 111 109
f 440 109 443
f 443 109 106
f 443 106 376
f 376 106 104
f 376 104 489
f 489 104 103
f 489 103 101
f 489 101 99
f 489 99 491
f 491 99 97
f 491 97 490
f 229 434 231
f 231 434 435
f 231 435 200
f 434 229 228
f 434 228 424
f 424 228 226
f 424 226 224
f 424 224 423
f 423 224 222
f 423 222 426
f 426 222 220
f 426 220 218
f 426 218 428
f 428 218 216
f 428 216 214
f 428 214 429
f 429 214 212
f 429 212 211
f 429 211 425
f 425 211 209
f 425 209 207
f 425 207 427
f 427 207 205
f 427 205 432
f 432 205 203
f 432 203 201
f 432 201 435
f 435 201 200

