v 0.01050000 0.00000000 -0.02230000
v 0.01050000 0.00000000 -0.02725000
v 0.01069030 -0.00095671 -0.02230000
v 0.01069030 -0.00095671 -0.02725000
v 0.01123223 -0.00176776 -0.02725000
v 0.01123224 -0.00176776 -0.02230000
v 0.01204329 -0.00230970 -0.02725000
v 0.01204329 -0.00230970 -0.02230000
v 0.01300000 -0.00250000 -0.02725000
v 0.01300000 -0.00250000 -0.02230000
v 0.01395671 -0.00230970 -0.02725000
v 0.01395671 -0.00230970 -0.02230000
v 0.01476777 -0.00176776 -0.02725000
v 0.01476777 -0.00176776 -0.02230000
v 0.01530970 -0.00095671 -0.02725000
v 0.01530970 -0.00095671 -0.02230000
v 0.01550000 0.00000000 -0.02725000
v 0.01550000 0.00000000 -0.02230000
v -0.00250000 0.00000000 -0.02229999
v -0.00250000 0.00000000 -0.02725000
v -0.00230970 -0.00095671 -0.02229999
v -0.00230970 -0.00095671 -0.02725000
v -0.00176777 -0.00176776 -0.02725000
v -0.00176776 -0.00176776 -0.02229999
v -0.00095671 -0.00230970 -0.02725000
v -0.00095671 -0.00230970 -0.02229999
v 0.00000000 -0.00250000 -0.02725000
v 0.00000000 -0.00250000 -0.02229999
v 0.00095671 -0.00230970 -0.02725000
v 0.00095671 -0.00230970 -0.02230000
v 0.00176777 -0.00176776 -0.02725000
v 0.00176777 -0.00176776 -0.02230000
v 0.00230970 -0.00095671 -0.02725000
v 0.00230970 -0.00095671 -0.02230000
v 0.00250000 0.00000000 -0.02725000
v 0.00250000 0.00000000 -0.02230000
v 0.01647588 -0.00055985 -0.02763231
v 0.01631969 0.00110884 -0.02755585
v 0.01649615 0.00078534 -0.02724999
v 0.01580367 0.00209494 -0.02735969
v 0.01500000 0.00287228 -0.02725000
v -0.00249998 -0.00000000 0.02725001
v -0.00249998 -0.00000000 0.02230000
v -0.00230968 -0.00095671 0.02725001
v -0.00230968 -0.00095671 0.02230000
v -0.00176775 -0.00176777 0.02230000
v -0.00176775 -0.00176777 0.02725001
v -0.00095669 -0.00230970 0.02230000
v -0.00095669 -0.00230970 0.02725001
v 0.00000002 -0.00250000 0.02230000
v 0.00000002 -0.00250000 0.02725001
v 0.00095673 -0.00230970 0.02230000
v 0.00095673 -0.00230970 0.02725001
v 0.00176779 -0.00176777 0.02230000
v 0.00176779 -0.00176777 0.02725001
v 0.00230972 -0.00095671 0.02230000
v 0.00230972 -0.00095671 0.02725001
v 0.00250002 -0.00000000 0.02230000
v 0.00250002 -0.00000000 0.02725001
v 0.01050002 -0.00000000 0.02725000
v 0.01050002 -0.00000000 0.02230000
v 0.01069032 -0.00095671 0.02725000
v 0.01069032 -0.00095671 0.02230000
v 0.01123225 -0.00176777 0.02230000
v 0.01123225 -0.00176777 0.02725000
v 0.01204331 -0.00230970 0.02230000
v 0.01204331 -0.00230970 0.02725000
v 0.01300002 -0.00250000 0.02230000
v 0.01300002 -0.00250000 0.02725000
v 0.01395673 -0.00230970 0.02230000
v 0.01395673 -0.00230970 0.02725000
v 0.01476779 -0.00176777 0.02230000
v 0.01476779 -0.00176777 0.02725000
v 0.01530972 -0.00095671 0.02230000
v 0.01530972 -0.00095671 0.02725000
v 0.01550002 -0.00000000 0.02230000
v 0.01550002 -0.00000000 0.02725000
v 0.01774214 0.03000000 -0.02230000
v 0.01645744 0.02991926 -0.02707102
v 0.01799088 0.03000082 -0.02838043
v 0.01515395 0.02965926 -0.02230000
v 0.01332949 0.02897377 -0.02675000
v 0.01485568 0.02957436 -0.02675000
v 0.01274214 0.02866026 -0.02230000
v 0.01192200 0.02813180 -0.02675000
v 0.01067107 0.02707107 -0.02230000
v 0.01067107 0.02707107 -0.02675000
v -0.00225785 0.01000000 0.02230000
v 0.02000002 0.01000000 0.02230000
v 0.02000002 0.01000000 0.02675000
v -0.00225784 0.01000000 0.02675001
v 0.01530972 0.00095671 0.02725000
v 0.01530972 0.00095671 0.02230000
v 0.01476779 0.00176777 0.02230000
v 0.01476779 0.00176777 0.02725000
v 0.01395673 0.00230970 0.02230000
v 0.01395673 0.00230970 0.02725000
v 0.01300002 0.00250000 0.02230000
v 0.01300002 0.00250000 0.02725000
v 0.01204331 0.00230970 0.02230000
v 0.01204331 0.00230970 0.02725000
v 0.01123225 0.00176777 0.02230000
v 0.01123225 0.00176777 0.02725000
v 0.01069032 0.00095671 0.02230000
v 0.01069032 0.00095671 0.02725000
v 0.00230972 0.00095671 0.02725001
v 0.00230972 0.00095671 0.02230000
v 0.00176779 0.00176777 0.02230000
v 0.00176779 0.00176777 0.02725001
v 0.00095673 0.00230970 0.02230000
v 0.00095673 0.00230970 0.02725001
v 0.00000002 0.00250000 0.02230000
v 0.00000002 0.00250000 0.02725001
v -0.00095669 0.00230970 0.02230000
v -0.00095669 0.00230970 0.02725001
v -0.00176775 0.00176777 0.02230000
v -0.00176775 0.00176777 0.02725001
v -0.00230968 0.00095671 0.02230000
v -0.00230968 0.00095671 0.02725001
v 0.02277166 0.00814805 0.02675000
v 0.02300002 0.00700000 0.02230000
v 0.02300002 0.00700000 0.02675000
v 0.02277166 0.00814805 0.02230000
v 0.02212134 0.00912132 0.02675000
v 0.02212134 0.00912132 0.02230000
v 0.02114807 0.00977164 0.02675000
v 0.02114807 0.00977164 0.02230000
v -0.00848677 0.00583797 0.02230000
v -0.00899998 0.00325786 0.02675001
v -0.00899998 0.00325786 0.02230000
v -0.00848677 0.00583797 0.02675001
v -0.00702526 0.00802527 0.02230000
v -0.00702526 0.00802527 0.02675001
v -0.00483795 0.00948679 0.02230000
v -0.00483795 0.00948679 0.02675001
v 0.02300002 -0.00600000 0.02230000
v -0.00899998 -0.00600000 0.02230001
v 0.03299999 0.02700001 -0.05975001
v 0.03299999 -0.00700000 -0.05975001
v 0.03299999 0.02700000 -0.05625001
v 0.03299999 -0.00700000 -0.05625001
v 0.02250002 -0.00950000 0.02725000
v 0.02248986 0.00748287 0.02725003
v 0.02176779 0.00876777 0.02725000
v 0.02048198 0.00949212 0.02725003
v -0.00728877 -0.00949890 0.02725002
v -0.00846422 -0.00869606 0.02725000
v -0.00849998 0.00325786 0.02725001
v -0.00225784 0.00950000 0.02725001
v -0.00802483 0.00564663 0.02725001
v -0.00464661 0.00902484 0.02725001
v -0.00667170 0.00767172 0.02725001
v 0.03114804 -0.00977164 -0.05625001
v 0.02999999 -0.01000000 -0.05975001
v 0.02999999 -0.01000000 -0.05625001
v 0.03114804 -0.00977164 -0.05975001
v 0.03212131 -0.00912132 -0.05625001
v 0.03212131 -0.00912132 -0.05975001
v 0.03277163 -0.00814805 -0.05625001
v 0.03277163 -0.00814805 -0.05975001
v -0.00776537 -0.00984776 -0.02674999
v -0.00699998 -0.01000000 0.02675001
v -0.00700000 -0.01000000 -0.02674999
v -0.00841419 -0.00941421 0.02675001
v -0.00776535 -0.00984776 0.02675001
v -0.00841421 -0.00941421 -0.02674999
v -0.00884774 -0.00876537 0.02675001
v -0.00884776 -0.00876536 -0.02674999
v -0.00899998 -0.00800000 0.02675001
v -0.00900000 -0.00800000 -0.02674999
v 0.01547790 -0.00250710 -0.02727664
v 0.01613379 -0.00163061 -0.02725004
v 0.01500000 -0.00950000 -0.02725000
v 0.01530970 0.00095671 -0.02725000
v 0.01476777 0.00176777 -0.02725000
v 0.01395671 0.00230970 -0.02725000
v 0.01300000 0.00250000 -0.02725000
v -0.00728779 -0.00949833 -0.02725000
v 0.00230970 0.00095671 -0.02725000
v 0.01069030 0.00095671 -0.02725000
v 0.00176777 0.00176777 -0.02725000
v 0.01123223 0.00176777 -0.02725000
v 0.01204329 0.00230970 -0.02725000
v -0.00846580 -0.00870202 -0.02725006
v 0.00095671 0.00230970 -0.02725000
v -0.00850000 0.00325787 -0.02724999
v -0.00230970 0.00095671 -0.02725000
v -0.00176777 0.00176777 -0.02725000
v -0.00817629 0.00571665 -0.02724999
v -0.00722724 0.00800787 -0.02724999
v -0.00095671 0.00230970 -0.02725000
v 0.01157694 0.02726444 -0.02725000
v 0.01500000 0.02909565 -0.02725000
v 0.01355012 0.02852509 -0.02725000
v -0.00571751 0.00997538 -0.02724999
v 0.00000000 0.00250000 -0.02725000
v -0.00607107 0.01032894 -0.02674999
v -0.00607107 0.01032893 -0.02229999
v -0.00865926 0.00584606 -0.02674999
v -0.00900000 0.00325787 -0.02229999
v -0.00900000 0.00325787 -0.02674999
v -0.00865926 0.00584606 -0.02229999
v -0.00766026 0.00825787 -0.02674999
v -0.00766025 0.00825787 -0.02229999
v -0.00900000 -0.00600000 -0.02229999
v 0.02212132 -0.00600000 -0.02317868
v 0.02114805 -0.00600000 -0.02252837
v 0.02277164 -0.00600000 -0.02415195
v 0.02000000 -0.00600000 -0.02230000
v 0.02300000 -0.00600000 -0.02530000
v 0.02277164 0.03000000 -0.02415195
v 0.02300001 0.03000000 -0.02530000
v 0.02212133 0.03000000 -0.02317868
v 0.02114806 0.03000000 -0.02252836
v 0.02000001 0.03000000 -0.02230000
v 0.00230970 0.00095671 -0.02230000
v 0.00176777 0.00176777 -0.02230000
v 0.00095671 0.00230970 -0.02230000
v 0.00000000 0.00250000 -0.02229999
v -0.00095671 0.00230970 -0.02229999
v -0.00176776 0.00176777 -0.02229999
v -0.00230970 0.00095671 -0.02229999
v 0.01530970 0.00095671 -0.02230000
v 0.01476777 0.00176777 -0.02230000
v 0.01395671 0.00230970 -0.02230000
v 0.01300000 0.00250000 -0.02230000
v 0.01204329 0.00230970 -0.02230000
v 0.01123224 0.00176777 -0.02230000
v 0.01069030 0.00095671 -0.02230000
v 0.02299999 -0.00950000 -0.05625001
v 0.02299999 0.03000001 -0.05625000
v 0.02300002 -0.00950000 0.02675000
v 0.02249999 -0.01000000 -0.05625001
v 0.03114804 0.02977164 -0.05625001
v 0.03212131 0.02912133 -0.05625001
v 0.02999999 0.03000000 -0.05625001
v 0.03277163 0.02814806 -0.05625001
v 0.03212131 0.02912133 -0.05975001
v 0.03277163 0.02814806 -0.05975001
v 0.03114804 0.02977165 -0.05975001
v 0.02999999 0.03000000 -0.05975001
v 0.01614805 -0.00950000 -0.02747836
v 0.01712132 -0.00950000 -0.02812868
v 0.01587558 0.02934289 -0.02738062
v 0.01668689 0.02946841 -0.02776919
v 0.01777164 -0.00950000 -0.02910195
v 0.01735041 0.02950000 -0.02838570
v 0.01770518 0.02950000 -0.02895309
v 0.01800000 -0.00950000 -0.03025000
v 0.01792537 0.02950001 -0.02958500
v 0.01800000 0.02950001 -0.03025000
v 0.01799999 -0.00950000 -0.05725000
v 0.01799999 0.02950001 -0.05725000
v 0.01849790 0.03000000 -0.02986140
v 0.01850173 0.03000009 -0.05773091
v 0.02051493 0.03000014 -0.05973366
v 0.01923222 0.03000001 -0.05901777
v 0.03249717 -0.00747972 -0.06025002
v 0.03048907 -0.00949208 -0.06025034
v 0.03176776 -0.00876776 -0.06025001
v 0.02099999 -0.00950000 -0.06025001
v 0.02999999 0.02950001 -0.06025001
v 0.03249742 0.02748228 -0.06025003
v 0.03139927 0.02909417 -0.06025359
v 0.02099999 0.02950001 -0.06025000
v 0.01500000 -0.01000000 -0.02675000
v 0.02250002 -0.01000000 0.02675000
v 0.01698619 -0.00999995 -0.02729198
v 0.01848931 -0.00999998 -0.02957486
v 0.01959893 -0.01000040 -0.05934684
v 0.01850174 -0.01000009 -0.05773091
v 0.02099999 -0.01000000 -0.05975001
v 0.01985194 -0.00950000 -0.06002165
v 0.01985194 0.02950001 -0.06002164
v 0.01887867 -0.00950000 -0.05937133
v 0.01887867 0.02950001 -0.05937132
v 0.01822835 0.02950001 -0.05839805
v 0.01822835 -0.00950000 -0.05839805
f 1 3 2
f 2 3 4
f 4 6 5
f 3 6 4
f 5 8 7
f 6 8 5
f 7 10 9
f 8 10 7
f 9 12 11
f 10 12 9
f 11 14 13
f 12 14 11
f 13 16 15
f 14 16 13
f 15 18 17
f 16 18 15
f 19 21 20
f 20 21 22
f 22 24 23
f 21 24 22
f 23 26 25
f 24 26 23
f 25 28 27
f 26 28 25
f 27 30 29
f 28 30 27
f 29 32 31
f 30 32 29
f 31 34 33
f 32 34 31
f 33 36 35
f 34 36 33
f 37 39 38
f 39 40 38
f 39 41 40
f 42 44 43
f 43 44 45
f 45 47 46
f 44 47 45
f 46 49 48
f 48 49 50
f 47 49 46
f 49 51 50
f 50 53 52
f 51 53 50
f 52 55 54
f 53 55 52
f 54 57 56
f 55 57 54
f 56 59 58
f 57 59 56
f 60 62 61
f 61 62 63
f 63 65 64
f 62 65 63
f 64 67 66
f 66 67 68
f 65 67 64
f 67 69 68
f 68 71 70
f 69 71 68
f 70 73 72
f 71 73 70
f 72 75 74
f 73 75 72
f 74 77 76
f 75 77 74
f 78 80 79
f 81 83 82
f 81 79 83
f 81 78 79
f 84 82 85
f 84 81 82
f 86 85 87
f 86 84 85
f 88 90 89
f 88 91 90
f 77 92 76
f 76 92 93
f 93 95 94
f 92 95 93
f 94 97 96
f 96 97 98
f 95 97 94
f 97 99 98
f 98 101 100
f 99 101 98
f 100 103 102
f 101 103 100
f 102 105 104
f 103 105 102
f 104 60 61
f 105 60 104
f 59 106 58
f 58 106 107
f 107 109 108
f 106 109 107
f 108 111 110
f 110 111 112
f 109 111 108
f 111 113 112
f 112 115 114
f 113 115 112
f 114 117 116
f 115 117 114
f 116 119 118
f 117 119 116
f 118 42 43
f 119 42 118
f 120 122 121
f 120 121 123
f 124 123 125
f 124 120 123
f 126 125 127
f 126 127 89
f 126 124 125
f 90 126 89
f 128 130 129
f 128 129 131
f 132 131 133
f 132 128 131
f 134 135 91
f 134 133 135
f 134 132 133
f 88 134 91
f 70 72 136
f 74 136 72
f 68 70 136
f 76 121 136
f 76 136 74
f 93 121 76
f 94 121 93
f 127 123 121
f 127 125 123
f 89 94 96
f 89 96 98
f 89 121 94
f 89 127 121
f 100 89 98
f 56 61 63
f 56 63 64
f 56 64 54
f 52 64 66
f 52 54 64
f 58 104 61
f 58 61 56
f 107 104 58
f 108 102 104
f 108 104 107
f 137 66 68
f 137 43 45
f 137 45 46
f 137 46 48
f 137 48 50
f 137 50 52
f 137 68 136
f 137 52 66
f 130 43 137
f 130 116 118
f 130 118 43
f 88 100 102
f 88 108 110
f 88 110 112
f 88 112 114
f 88 102 108
f 88 89 100
f 128 116 130
f 134 88 114
f 134 114 116
f 132 116 128
f 132 134 116
f 138 140 139
f 139 140 141
f 73 71 142
f 142 75 73
f 71 69 142
f 142 77 75
f 142 143 77
f 69 67 142
f 143 92 77
f 143 95 92
f 144 145 143
f 95 145 97
f 143 145 95
f 145 99 97
f 145 101 99
f 65 53 67
f 55 53 65
f 62 57 65
f 65 57 55
f 60 59 62
f 62 59 57
f 51 146 53
f 67 146 142
f 53 146 67
f 51 49 146
f 105 106 60
f 60 106 59
f 49 47 146
f 103 109 105
f 105 109 106
f 47 147 146
f 47 44 147
f 42 148 44
f 44 148 147
f 117 148 119
f 119 148 42
f 103 149 109
f 109 149 111
f 111 149 113
f 113 149 115
f 101 149 103
f 145 149 101
f 117 150 148
f 149 151 115
f 115 151 117
f 117 152 150
f 151 152 117
f 153 155 154
f 153 154 156
f 157 156 158
f 157 153 156
f 159 158 160
f 159 157 158
f 141 160 139
f 141 159 160
f 161 163 162
f 161 165 164
f 161 162 165
f 166 164 167
f 166 161 164
f 168 167 169
f 168 166 167
f 170 168 169
f 171 172 37
f 172 39 37
f 13 172 171
f 15 172 13
f 11 13 171
f 17 39 172
f 17 172 15
f 9 171 173
f 9 11 171
f 174 39 17
f 7 9 173
f 5 7 173
f 175 39 174
f 41 39 175
f 176 41 175
f 177 41 176
f 31 5 173
f 33 4 5
f 33 5 31
f 29 31 173
f 35 4 33
f 35 2 4
f 178 29 173
f 178 27 29
f 25 27 178
f 179 2 35
f 179 180 2
f 23 25 178
f 181 180 179
f 181 183 182
f 181 182 180
f 184 23 178
f 185 183 181
f 22 23 184
f 186 22 184
f 186 188 187
f 186 187 20
f 186 20 22
f 189 188 186
f 190 191 188
f 190 188 189
f 192 194 193
f 192 193 41
f 192 177 183
f 192 41 177
f 195 185 196
f 195 196 191
f 195 183 185
f 195 191 190
f 195 192 183
f 87 197 86
f 86 197 198
f 199 201 200
f 199 200 202
f 203 202 204
f 203 199 202
f 197 204 198
f 197 203 204
f 129 137 169
f 130 137 129
f 201 205 200
f 201 170 205
f 170 169 205
f 205 169 137
f 206 207 136
f 136 208 206
f 136 209 137
f 207 209 136
f 209 205 137
f 136 210 208
f 210 212 211
f 208 211 213
f 208 210 211
f 206 213 214
f 206 208 213
f 207 214 215
f 207 206 214
f 209 207 215
f 36 216 35
f 35 216 179
f 179 217 181
f 216 217 179
f 181 218 185
f 217 218 181
f 185 219 196
f 218 219 185
f 196 220 191
f 219 220 196
f 191 221 188
f 220 221 191
f 188 222 187
f 221 222 188
f 187 19 20
f 222 19 187
f 18 223 17
f 17 223 174
f 174 224 175
f 223 224 174
f 175 225 176
f 224 225 175
f 176 226 177
f 225 226 176
f 177 227 183
f 226 227 177
f 183 228 182
f 227 228 183
f 182 229 180
f 228 229 182
f 180 1 2
f 229 1 180
f 14 12 209
f 209 16 14
f 12 10 209
f 209 18 16
f 10 8 209
f 209 223 18
f 6 30 8
f 32 30 6
f 8 30 209
f 3 34 6
f 6 34 32
f 30 28 209
f 1 36 3
f 229 36 1
f 3 36 34
f 229 216 36
f 228 217 229
f 229 217 216
f 227 218 228
f 228 218 217
f 19 205 21
f 21 205 24
f 24 205 26
f 26 205 28
f 28 205 209
f 223 215 224
f 224 215 225
f 209 215 223
f 221 200 222
f 222 200 19
f 19 200 205
f 221 202 200
f 221 204 202
f 220 204 221
f 215 86 225
f 84 86 81
f 81 86 78
f 78 86 215
f 225 86 226
f 226 86 227
f 220 198 204
f 86 198 227
f 218 198 219
f 219 198 220
f 227 198 218
f 230 231 210
f 231 212 210
f 136 232 210
f 210 232 230
f 121 122 136
f 136 122 232
f 157 159 153
f 159 155 153
f 159 141 155
f 155 230 233
f 141 230 155
f 141 140 230
f 234 236 235
f 235 236 237
f 237 236 140
f 140 231 230
f 236 231 140
f 237 140 138
f 237 239 238
f 237 138 239
f 235 237 238
f 234 238 240
f 234 235 238
f 236 240 241
f 236 234 240
f 173 171 242
f 171 37 242
f 37 243 242
f 41 193 40
f 40 244 38
f 193 244 40
f 38 245 37
f 244 245 38
f 243 247 246
f 37 247 243
f 245 247 37
f 247 248 246
f 246 250 249
f 248 250 246
f 250 251 249
f 251 253 252
f 251 252 249
f 211 214 213
f 212 215 214
f 212 214 211
f 80 78 215
f 80 215 212
f 254 80 212
f 231 236 241
f 255 254 231
f 256 231 241
f 257 255 231
f 257 231 256
f 212 231 254
f 258 260 259
f 261 258 259
f 262 264 263
f 265 263 258
f 265 258 261
f 265 262 263
f 163 266 162
f 162 266 267
f 266 268 267
f 268 269 267
f 270 233 271
f 271 233 269
f 270 272 233
f 233 154 155
f 272 154 233
f 233 267 269
f 265 261 273
f 274 273 275
f 274 265 273
f 276 274 275
f 277 275 278
f 277 276 275
f 253 278 252
f 253 277 278
f 169 148 129
f 147 148 169
f 131 129 148
f 131 148 150
f 133 150 152
f 133 131 150
f 135 152 151
f 135 133 152
f 91 151 149
f 91 135 151
f 165 162 146
f 164 146 147
f 164 165 146
f 167 164 147
f 169 167 147
f 90 91 149
f 90 149 145
f 142 162 267
f 142 146 162
f 267 233 232
f 232 233 230
f 126 90 145
f 144 126 145
f 124 126 144
f 120 144 143
f 120 124 144
f 122 120 143
f 232 142 267
f 122 142 232
f 143 142 122
f 197 87 192
f 197 192 195
f 203 197 195
f 203 195 190
f 199 190 189
f 199 203 190
f 186 199 189
f 201 199 186
f 194 83 193
f 82 83 194
f 85 194 192
f 85 82 194
f 87 85 192
f 170 201 186
f 170 186 184
f 79 244 83
f 83 244 193
f 79 245 244
f 80 247 79
f 79 247 245
f 168 170 184
f 166 168 184
f 161 184 178
f 161 166 184
f 163 161 178
f 80 248 247
f 80 250 248
f 80 254 250
f 254 251 250
f 266 163 178
f 266 178 173
f 251 255 253
f 254 255 251
f 249 269 246
f 246 268 243
f 269 268 246
f 243 268 242
f 242 266 173
f 268 266 242
f 277 253 255
f 276 255 257
f 276 277 255
f 274 257 256
f 274 276 257
f 265 274 256
f 271 269 249
f 271 249 252
f 265 241 262
f 256 241 265
f 273 261 272
f 273 272 270
f 275 273 270
f 271 275 270
f 278 275 271
f 252 278 271
f 239 138 263
f 238 263 264
f 238 239 263
f 240 238 264
f 262 240 264
f 241 240 262
f 154 272 261
f 154 261 259
f 258 263 138
f 258 138 139
f 156 154 259
f 158 259 260
f 158 156 259
f 160 260 258
f 160 158 260
f 139 160 258

