v 0.01150975 0.00017077 -0.02725000
v 0.01156419 0.00051238 -0.02624938
v 0.01162242 -0.00065297 -0.02624938
v 0.01167052 -0.00074600 -0.02725000
v 0.01180202 0.00094280 -0.02725000
v 0.01234703 0.00137758 -0.02624939
v 0.01281956 0.00151376 -0.02725000
v 0.01354072 0.00138585 -0.02614089
v 0.01394280 0.00119798 -0.02725000
v 0.01437758 0.00065297 -0.02624939
v 0.01444216 0.00041252 -0.02725000
v 0.01517218 -0.00194381 -0.02725152
v 0.01368236 -0.00232414 -0.02817402
v 0.01318203 -0.00289183 -0.02725064
v 0.01381569 0.00279846 -0.02725152
v 0.01162526 0.00255067 -0.02725064
v 0.01235010 0.00233342 -0.02817402
v 0.01482714 -0.00188466 -0.02781357
v 0.01376261 -0.00149541 -0.02890041
v 0.01452254 -0.00077002 -0.02890202
v 0.01547377 -0.00028000 -0.02810112
v 0.01583147 -0.00032447 -0.02725000
v 0.01561028 0.00122456 -0.02724873
v 0.01448033 0.00082605 -0.02889936
v 0.01495151 0.00154581 -0.02810112
v 0.01355412 0.00256580 -0.02781357
v 0.01347932 0.00165577 -0.02890953
v 0.01421799 0.00099234 -0.02598382
v 0.01443083 -0.00021801 -0.02613621
v 0.01286137 0.00152060 -0.02598408
v 0.01191366 0.00095105 -0.02605554
v 0.01157853 -0.00022465 -0.02604759
v 0.01374553 0.00138290 -0.02565922
v 0.01384403 0.00097346 -0.02579495
v 0.01436768 -0.00037761 -0.02587932
v 0.01455930 -0.00044044 -0.02564991
v 0.01239254 0.00123442 -0.02579403
v 0.01243347 0.00129532 -0.02556731
v 0.01143706 0.00015956 -0.02565922
v 0.01176558 -0.00060746 -0.02579403
v 0.01374553 0.00138290 -0.02533462
v 0.01366159 0.00114880 -0.02547023
v 0.01430241 -0.00044333 -0.02546943
v 0.01452060 0.00013863 -0.02533489
v 0.01200767 0.00121799 -0.02533462
v 0.01168547 0.00017160 -0.02547023
v 0.01149497 -0.00045069 -0.02533462
v 0.01223426 0.00143940 -0.02500902
v 0.01219183 0.00105086 -0.02514563
v 0.01383960 0.00117013 -0.02508803
v 0.01160695 -0.00050334 -0.02505662
v 0.01438897 0.00027650 -0.02509472
v 0.01281489 0.00162784 -0.02469209
v 0.01294926 0.00136388 -0.02481137
v 0.01420539 0.00074180 -0.02475050
v 0.01161746 -0.00006065 -0.02482822
v 0.01139085 -0.00018981 -0.02467611
v 0.01315957 0.00156294 -0.02436082
v 0.01294926 0.00136388 -0.02448677
v 0.01420539 0.00074180 -0.02442590
v 0.01161710 0.00074553 -0.02436082
v 0.01161746 -0.00006065 -0.02450362
v 0.01164820 -0.00070998 -0.02436108
v 0.01161746 -0.00006065 -0.02417902
v 0.01276179 0.00138911 -0.02411498
v 0.01161710 0.00074553 -0.02403622
v 0.01164820 -0.00070998 -0.02403648
v 0.01411907 0.00094354 -0.02409334
v 0.01431454 -0.00017160 -0.02417183
v 0.01221492 0.00117763 -0.02379565
v 0.01390799 0.00103362 -0.02384643
v 0.01403680 0.00125829 -0.02371063
v 0.01154083 0.00043223 -0.02370844
v 0.01173496 -0.00067484 -0.02379882
v 0.01351534 0.00131653 -0.02329511
v 0.01366159 0.00114880 -0.02352263
v 0.01439306 0.00050334 -0.02343362
v 0.01174171 0.00103680 -0.02338603
v 0.01219183 0.00105086 -0.02352263
v 0.01169765 -0.00066910 -0.02343886
v 0.01443941 0.00076574 -0.02306143
v 0.01428014 0.00034451 -0.02319803
v 0.01252622 0.00150357 -0.02306760
v 0.01219183 0.00105086 -0.02319803
v 0.01154550 0.00009872 -0.02311535
v 0.01276179 0.00138911 -0.02281658
v 0.01423442 0.00060746 -0.02287263
v 0.01443941 0.00076574 -0.02273683
v 0.01168331 0.00019511 -0.02287879
v 0.01161710 0.00074553 -0.02273782
v 0.01164821 -0.00070998 -0.02273808
v 0.01435180 0.00070998 -0.02241348
v 0.01366159 0.00114880 -0.02254883
v 0.01430051 -0.00047305 -0.02255602
v 0.01315957 0.00156294 -0.02241322
v 0.01219183 0.00105086 -0.02254883
v 0.01161710 0.00074553 -0.02241322
v 0.01169765 -0.00066910 -0.02246506
v 0.01374553 0.00138290 -0.02208862
v 0.01344333 0.00130241 -0.02222343
v 0.01430241 -0.00044333 -0.02222343
v 0.01456294 -0.00015956 -0.02208862
v 0.01174171 0.00103680 -0.02208762
v 0.01185120 0.00066159 -0.02222423
v 0.01179461 -0.00074180 -0.02215369
v 0.01168331 0.00019511 -0.02190499
v 0.01276179 0.00138911 -0.02184278
v 0.01161710 0.00074553 -0.02176402
v 0.01177652 -0.00075976 -0.02184203
v 0.01411907 0.00094354 -0.02182114
v 0.01431454 -0.00017160 -0.02189963
v 0.01225821 0.00120539 -0.02150450
v 0.01329887 0.00128897 -0.02124958
v 0.01165392 0.00055754 -0.02129131
v 0.01374553 0.00138290 -0.02143942
v 0.01447137 0.00019826 -0.02134834
v 0.01366159 0.00114880 -0.02157503
v 0.01431454 -0.00017160 -0.02157503
v 0.01163811 -0.00008226 -0.02156977
v 0.01195820 -0.00124916 -0.02143042
v 0.01438990 -0.00071523 -0.02175811
v 0.01308883 -0.00137292 -0.02157423
v 0.01286233 -0.00157042 -0.02176920
v 0.01392949 -0.00119348 -0.02134312
v 0.01256056 -0.00128630 -0.02124834
v 0.01315662 -0.00162287 -0.02208762
v 0.01334451 -0.00128014 -0.02189963
v 0.01438990 -0.00071523 -0.02240731
v 0.01286233 -0.00157042 -0.02241840
v 0.01282840 -0.00131453 -0.02222423
v 0.01394468 -0.00111585 -0.02279375
v 0.01252494 -0.00127947 -0.02253917
v 0.01255411 -0.00135483 -0.02281874
v 0.01414536 -0.00083212 -0.02312797
v 0.01254807 -0.00157476 -0.02306909
v 0.01394468 -0.00111585 -0.02344295
v 0.01252494 -0.00127947 -0.02318837
v 0.01255410 -0.00135483 -0.02346794
v 0.01438990 -0.00071523 -0.02370571
v 0.01286233 -0.00157042 -0.02371680
v 0.01427048 -0.00071880 -0.02395986
v 0.01286233 -0.00157042 -0.02404140
v 0.01334451 -0.00128014 -0.02384723
v 0.01438990 -0.00071523 -0.02435491
v 0.01308883 -0.00137292 -0.02417103
v 0.01286233 -0.00157042 -0.02436600
v 0.01438990 -0.00071523 -0.02467951
v 0.01414180 -0.00068414 -0.02450179
v 0.01286233 -0.00157042 -0.02469060
v 0.01279674 -0.00130115 -0.02449009
v 0.01414180 -0.00068414 -0.02482639
v 0.01394354 -0.00111907 -0.02506714
v 0.01279674 -0.00130115 -0.02481469
v 0.01258267 -0.00137170 -0.02509722
v 0.01399234 -0.00121799 -0.02533462
v 0.01272392 -0.00138906 -0.02541932
v 0.01327466 -0.00138842 -0.02574326
v 0.01205633 -0.00110158 -0.02559356
v 0.01375152 -0.00122730 -0.02604759
v 0.01225447 -0.00138290 -0.02598382
v 0.01413044 -0.00102284 -0.02624938
v 0.01307609 -0.00152260 -0.02624938
v 0.01225103 -0.00123849 -0.02613621
v 0.01271992 -0.00112022 -0.02786000
v 0.01383010 -0.00080266 -0.02786000
v 0.01300000 0.00000000 -0.02728265
v 0.01188982 -0.00031756 -0.02786000
v 0.01216990 0.00080266 -0.02786000
v 0.01328008 0.00112022 -0.02786000
v 0.01411018 0.00031756 -0.02786000
v 0.01271992 -0.00112022 -0.02890000
v 0.01383010 -0.00080266 -0.02890000
v 0.01188982 -0.00031756 -0.02890000
v 0.01216990 0.00080266 -0.02890000
v 0.01328008 0.00112022 -0.02890000
v 0.01411018 0.00031756 -0.02890000
v 0.01216737 -0.00150413 -0.02891205
v 0.01131887 -0.00001027 -0.02890170
v 0.01171655 0.00110637 -0.02889639
v 0.01109893 -0.00153571 -0.02811445
v 0.01025989 -0.00078378 -0.02725000
v 0.01114254 -0.00222255 -0.02725084
v 0.01232797 -0.00215359 -0.02835990
v 0.01083666 -0.00061881 -0.02836681
v 0.01057438 0.00029810 -0.02811444
v 0.01024823 0.00090409 -0.02725093
v 0.01129077 0.00147245 -0.02835990
v 0.01258742 -0.00146759 -0.02725000
v 0.01374600 -0.00132948 -0.02725000
v 0.01446759 -0.00041258 -0.02725000
v 0.00194132 -0.00157520 -0.02660000
v 0.00239444 -0.00071354 -0.02676890
v 0.00119080 -0.00219699 -0.02676886
v 0.00157202 0.00194235 -0.02676881
v 0.00248578 0.00026010 -0.02677006
v 0.00219821 0.00119075 -0.02660000
v -0.00026032 0.00248549 -0.02675715
v 0.00071238 0.00239636 -0.02660000
v -0.00119075 0.00219821 -0.02660000
v -0.00194047 0.00157491 -0.02677011
v 0.00157577 0.00193982 0.02674076
v -0.00025565 0.00248568 0.02676882
v 0.00071240 0.00239635 0.02660000
v 0.00219823 0.00119075 0.02660000
v 0.00248491 0.00026038 0.02676891
v 0.00194134 -0.00157520 0.02660000
v 0.00118972 -0.00219759 0.02676886
v 0.00239580 -0.00071217 0.02675755
v 0.00059537 -0.00109910 -0.01830000
v 0.00012945 -0.00124328 -0.01830000
v 0.00037324 -0.00120618 -0.02680000
v -0.00034931 -0.00120032 -0.01828071
v -0.00055134 -0.00114452 -0.02680000
v -0.00078760 -0.00097066 -0.01830000
v -0.00120224 -0.00038505 -0.01828318
v -0.00109911 -0.00059537 -0.02680000
v -0.00119632 0.00036142 -0.01828042
v -0.00126839 0.00007139 -0.02680000
v -0.00077085 0.00100952 -0.01829987
v -0.00097066 0.00078761 -0.02680000
v -0.00037324 0.00120619 -0.02680000
v 0.00000000 0.00000000 -0.01754892
v -0.00033112 0.00122649 0.02680000
v -0.00042445 0.00119715 0.01829988
v -0.00110138 0.00063311 0.02680000
v -0.00097064 0.00078760 0.01830000
v -0.00125468 0.00013734 0.01827311
v -0.00109899 -0.00059532 0.01828534
v -0.00122646 -0.00033114 0.02680001
v -0.00057037 -0.00112596 0.01827311
v -0.00078758 -0.00097066 0.02680001
v 0.00012946 -0.00124328 0.01830000
v -0.00035617 -0.00119818 0.02680000
v 0.00037326 -0.00120619 0.02680000
v 0.00059539 -0.00109910 0.01830000
v 0.00000002 0.00000000 0.01754893
v -0.00119045 0.00219735 0.02677495
v -0.00194130 0.00157520 0.02660000
v -0.00239515 0.00071346 0.02674077
v -0.00239635 0.00071239 -0.02660000
v -0.00248654 -0.00025889 0.02660000
v -0.00248635 -0.00025555 -0.02677704
v -0.00219888 -0.00118713 0.02677274
v -0.00219556 -0.00119330 -0.02677273
v -0.00157501 -0.00194012 0.02676887
v -0.00157520 -0.00194132 -0.02660000
v -0.00071237 -0.00239635 0.02660000
v -0.00071204 -0.00239518 -0.02675721
v 0.00025889 -0.00248656 -0.02660000
v 0.00025887 -0.00248540 0.02675086
v 0.00097066 -0.00078760 -0.02680000
v 0.00126839 -0.00007138 -0.02680000
v 0.00094736 0.00084642 -0.02680000
v 0.00035619 0.00119818 -0.02680000
v 0.00110142 -0.00063311 0.02680000
v 0.00122650 0.00033114 0.02680000
v 0.00063313 0.00110141 0.02680000
v 0.00097068 -0.00078760 0.01830000
v 0.00119623 -0.00036313 0.01828071
v 0.00119663 0.00042554 0.01828892
v 0.00034791 0.00119967 0.01828017
v 0.00078762 0.00097066 0.01830000
v -0.00012944 0.00124328 -0.01830000
v 0.00034931 0.00120032 -0.01828071
v 0.00101012 0.00076982 -0.01828892
v 0.00112263 -0.00057717 -0.01828534
v 0.00124328 0.00012945 -0.01830000
v 0.01355882 0.00243550 -0.02676882
v 0.01511875 0.00132576 -0.02677006
v 0.01445155 0.00203544 -0.02660001
v 0.01167417 0.00211838 -0.02675715
v 0.01258712 0.00246566 -0.02660001
v 0.01096456 0.00145153 -0.02660001
v 0.01056491 0.00056222 -0.02677011
v 0.01356329 0.00243488 0.02674076
v 0.01167827 0.00212060 0.02676882
v 0.01258714 0.00246567 0.02660000
v 0.01445156 0.00203544 0.02660000
v 0.01511785 0.00132563 0.02676890
v 0.01543600 -0.00056212 0.02660000
v 0.01503425 -0.00145144 0.02676886
v 0.01546508 0.00041282 0.02675755
v 0.01401773 -0.00072578 -0.01830000
v 0.01366252 -0.00105999 -0.01830000
v 0.01386523 -0.00091957 -0.02680000
v 0.01321357 -0.00123174 -0.01828071
v 0.01300757 -0.00127038 -0.02680000
v 0.01271895 -0.00121800 -0.01830000
v 0.01208919 -0.00087411 -0.01828318
v 0.01227424 -0.00101773 -0.02680000
v 0.01176654 -0.00020094 -0.01828043
v 0.01194002 -0.00066252 -0.02680000
v 0.01173244 0.00008483 -0.02680000
v 0.01186401 0.00056819 -0.01829988
v 0.01213478 0.00091955 -0.02680000
v 0.01300001 -0.00000001 -0.01754893
v 0.01216370 0.00095629 0.02680000
v 0.01209275 0.00088893 0.01829987
v 0.01173246 0.00008483 0.02680000
v 0.01178202 0.00028106 0.01830000
v 0.01181256 -0.00042788 0.01827310
v 0.01227431 -0.00101763 0.01828533
v 0.01204373 -0.00083632 0.02680000
v 0.01298232 -0.00126207 0.01827310
v 0.01271896 -0.00121799 0.02680000
v 0.01366253 -0.00105999 0.01830000
v 0.01344748 -0.00118067 0.02680000
v 0.01401774 -0.00072577 0.01830000
v 0.01413863 -0.00056345 0.02680000
v 0.01300002 -0.00000000 0.01754892
v 0.01543511 -0.00056128 -0.02676887
v 0.01503545 -0.00145155 -0.02660001
v 0.01546455 0.00041261 -0.02675086
v 0.01096520 0.00145089 0.02677495
v 0.01056403 0.00056212 0.02660000
v 0.01053493 -0.00041140 0.02674076
v 0.01053434 -0.00041289 -0.02660001
v 0.01088004 -0.00132503 0.02660000
v 0.01087875 -0.00132195 -0.02677705
v 0.01154627 -0.00203250 0.02677273
v 0.01155197 -0.00203658 -0.02677274
v 0.01243753 -0.00243483 0.02676886
v 0.01243789 -0.00243599 -0.02660001
v 0.01341290 -0.00246567 0.02660000
v 0.01341880 -0.00246349 -0.02677889
v 0.01432503 -0.00211998 -0.02660001
v 0.01432450 -0.00211895 0.02675085
v 0.01421800 -0.00028107 -0.02680000
v 0.01423284 0.00020643 -0.02680000
v 0.01389295 0.00090363 -0.02680000
v 0.01299244 0.00127037 -0.02680000
v 0.01423285 0.00020644 0.02680000
v 0.01395631 0.00083632 0.02680000
v 0.01308485 0.00126756 0.02680000
v 0.01421801 -0.00028106 0.01830000
v 0.01423413 0.00019935 0.01828071
v 0.01388799 0.00090800 0.01828892
v 0.01278547 0.00123052 0.01828017
v 0.01328108 0.00121799 0.01830000
v 0.01233750 0.00105998 -0.01830000
v 0.01278644 0.00123173 -0.01828071
v 0.01356920 0.00113533 -0.01828892
v 0.01426206 -0.00002527 -0.01828534
v 0.01406000 0.00066251 -0.01830000
v 0.00060236 -0.00144827 0.02725000
v 0.00133534 -0.00073554 0.02624939
v 0.00040987 -0.00143535 0.02615838
v 0.00150001 -0.00027218 0.02725000
v 0.00146434 0.00042411 0.02624939
v 0.00110754 0.00111072 0.02725000
v 0.00107041 0.00100270 0.02613822
v 0.00016857 0.00151515 0.02624939
v -0.00060232 0.00144827 0.02725000
v -0.00254541 0.00142040 0.02725153
v -0.00241962 -0.00011204 0.02817403
v -0.00279334 -0.00077001 0.02725065
v 0.00238007 0.00168289 0.02725153
v 0.00285940 -0.00046877 0.02725065
v 0.00241786 0.00014576 0.02817404
v -0.00237707 0.00111346 0.02781358
v -0.00166225 0.00023383 0.02890041
v -0.00122401 0.00118862 0.02890203
v -0.00107062 0.00224759 0.02810112
v -0.00122920 0.00257129 0.02725000
v 0.00030738 0.00286682 0.02724873
v 0.00029873 0.00166868 0.02889936
v 0.00082573 0.00234865 0.02810112
v 0.00224531 0.00135979 0.02781358
v 0.00140930 0.00099260 0.02890953
v 0.00079090 0.00130612 0.02598409
v -0.00031825 0.00124859 0.02611900
v -0.00066002 0.00142569 0.02598382
v 0.00134545 0.00043431 0.02589191
v 0.00115541 -0.00106457 0.02598382
v 0.00110796 -0.00065783 0.02611900
v -0.00054137 -0.00147483 0.02598382
v 0.00156977 0.00006421 0.02565922
v 0.00017218 0.00136498 0.02579403
v 0.00025505 0.00161035 0.02565823
v 0.00084146 -0.00116091 0.02574643
v 0.00131904 0.00095835 0.02533363
v 0.00017218 0.00136498 0.02546943
v -0.00066002 0.00142569 0.02533462
v 0.00136500 -0.00017216 0.02546943
v 0.00095837 -0.00131902 0.02533363
v 0.00009136 -0.00132254 0.02547023
v -0.00054137 -0.00147483 0.02565922
v 0.00123053 0.00090404 0.02501029
v 0.00017218 0.00136498 0.02514483
v -0.00038062 0.00158536 0.02500903
v 0.00136500 -0.00017217 0.02514483
v 0.00147485 -0.00054139 0.02501003
v 0.00019111 -0.00140328 0.02509472
v 0.00157591 0.00004191 0.02469061
v 0.00131112 0.00012375 0.02481470
v 0.00042175 0.00125682 0.02482103
v 0.00025505 0.00161035 0.02468443
v 0.00055001 -0.00137579 0.02473283
v -0.00074705 -0.00125925 0.02473726
v 0.00157591 0.00004190 0.02436600
v 0.00131112 0.00012375 0.02449010
v 0.00017218 0.00136498 0.02449563
v 0.00054141 0.00147483 0.02436082
v 0.00055001 -0.00137579 0.02440822
v -0.00074704 -0.00125925 0.02441266
v 0.00157591 0.00004190 0.02404140
v 0.00131112 0.00012375 0.02416550
v 0.00042175 0.00125682 0.02417183
v 0.00054141 0.00147483 0.02403622
v 0.00055001 -0.00137579 0.02408362
v -0.00074705 -0.00125925 0.02408806
v 0.00157591 0.00004190 0.02371681
v 0.00131112 0.00012375 0.02384090
v 0.00067621 0.00125085 0.02378333
v 0.00061345 -0.00118129 0.02385259
v 0.00062939 -0.00143083 0.02370571
v 0.00157591 0.00004190 0.02339221
v 0.00131112 0.00012375 0.02351630
v 0.00067621 0.00125085 0.02345873
v 0.00055001 -0.00137580 0.02343442
v -0.00074705 -0.00125925 0.02343886
v -0.00092438 0.00133074 0.02370232
v 0.00157591 0.00004191 0.02306760
v 0.00131112 0.00012375 0.02319169
v 0.00067621 0.00125085 0.02313413
v 0.00055001 -0.00137579 0.02310982
v -0.00074705 -0.00125925 0.02311426
v -0.00092438 0.00133074 0.02337772
v 0.00157591 0.00004191 0.02274300
v 0.00130602 0.00039636 0.02286377
v 0.00074709 0.00125925 0.02278966
v 0.00055001 -0.00137579 0.02278522
v -0.00074705 -0.00125925 0.02278966
v -0.00092438 0.00133074 0.02305311
v 0.00079090 0.00130611 0.02241349
v 0.00017218 0.00136498 0.02254803
v -0.00043429 0.00134543 0.02232131
v 0.00147513 0.00010042 0.02235212
v 0.00131112 0.00012375 0.02254250
v 0.00055002 -0.00137579 0.02246062
v -0.00074705 -0.00125925 0.02246506
v -0.00092438 0.00133074 0.02272851
v 0.00131904 0.00095835 0.02208763
v 0.00087061 0.00099976 0.02222423
v -0.00066002 0.00142569 0.02208862
v 0.00130613 -0.00079088 0.02208889
v 0.00033315 -0.00139454 0.02217582
v 0.00085716 0.00112739 0.02184872
v -0.00087091 0.00107545 0.02190682
v -0.00092438 0.00133074 0.02175472
v 0.00157591 0.00004191 0.02176921
v 0.00119521 -0.00068141 0.02189883
v 0.00062939 -0.00143083 0.02175811
v -0.00074705 -0.00125925 0.02181586
v 0.00104254 -0.00104384 0.02148989
v 0.00093131 -0.00097369 0.02124637
v -0.00017161 -0.00140150 0.02149522
v 0.00131904 0.00095835 0.02143843
v 0.00112130 0.00070249 0.02124958
v -0.00029189 0.00145569 0.02134834
v 0.00108694 0.00084345 0.02157423
v -0.00087091 0.00107545 0.02158222
v -0.00136199 -0.00040716 0.02183551
v -0.00119804 -0.00074232 0.02151818
v -0.00143117 0.00048996 0.02134312
v -0.00107294 -0.00083453 0.02124835
v -0.00156973 -0.00006421 0.02208863
v -0.00083275 -0.00117501 0.02216664
v -0.00115984 0.00081178 0.02247877
v -0.00125680 0.00042173 0.02222423
v -0.00136199 -0.00040716 0.02248471
v -0.00136199 -0.00040716 0.02280931
v -0.00101877 0.00085662 0.02287879
v -0.00136199 -0.00040716 0.02313391
v -0.00101877 0.00085662 0.02320339
v -0.00136199 -0.00040716 0.02345851
v -0.00101877 0.00085662 0.02352799
v -0.00140214 -0.00019265 0.02379566
v -0.00081371 -0.00115804 0.02377670
v -0.00112900 0.00108106 0.02403031
v -0.00078324 0.00102299 0.02384735
v -0.00136199 -0.00040716 0.02410771
v -0.00112900 0.00108106 0.02435491
v -0.00101877 0.00085662 0.02417719
v -0.00136199 -0.00040716 0.02443231
v -0.00119857 0.00070872 0.02457791
v -0.00136199 -0.00040716 0.02475691
v -0.00101877 0.00085662 0.02482639
v -0.00156973 -0.00006421 0.02501003
v -0.00079086 -0.00130611 0.02501029
v -0.00125680 0.00042173 0.02514564
v -0.00156973 -0.00006422 0.02533463
v -0.00076248 -0.00123790 0.02525530
v -0.00115984 0.00081178 0.02572477
v -0.00125680 0.00042173 0.02547024
v -0.00137505 -0.00047733 0.02556254
v -0.00156973 -0.00006421 0.02598383
v -0.00105488 -0.00086598 0.02578518
v -0.00095217 0.00119056 0.02624939
v -0.00148291 0.00017063 0.02615838
v -0.00073552 -0.00133531 0.02624939
v -0.00129014 -0.00066760 0.02613327
v -0.00096784 -0.00062975 0.02786001
v -0.00102929 0.00052332 0.02786000
v 0.00000002 0.00000000 0.02728265
v 0.00006147 -0.00115306 0.02786000
v 0.00102933 -0.00052332 0.02786000
v 0.00096788 0.00062975 0.02786000
v -0.00006143 0.00115306 0.02786000
v -0.00096784 -0.00062975 0.02890001
v -0.00102929 0.00052332 0.02890000
v 0.00006147 -0.00115306 0.02890000
v 0.00102933 -0.00052332 0.02890000
v 0.00096788 0.00062975 0.02890000
v -0.00006143 0.00115306 0.02890000
v -0.00115079 -0.00127723 0.02891206
v 0.00053800 -0.00159275 0.02890170
v 0.00146416 -0.00085298 0.02889639
v -0.00083256 -0.00229767 0.02811445
v 0.00015169 -0.00284596 0.02725000
v -0.00149614 -0.00248020 0.02725085
v -0.00181714 -0.00133698 0.02835990
v 0.00011976 -0.00224692 0.02836681
v 0.00107209 -0.00219617 0.02811445
v 0.00175127 -0.00230710 0.02725094
v 0.00194898 -0.00113628 0.02835990
v -0.00156851 -0.00000226 0.02725001
v -0.00082546 -0.00128165 0.02725000
v 0.01332258 -0.00148996 0.02725000
v 0.01393693 -0.00115892 0.02614386
v 0.01283147 -0.00151515 0.02624939
v 0.01428167 -0.00082548 0.02725000
v 0.01451517 -0.00016855 0.02624939
v 0.01448998 0.00032256 0.02725000
v 0.01419058 0.00095219 0.02624939
v 0.01382550 0.00128165 0.02725000
v 0.01316857 0.00151515 0.02624938
v 0.01267746 0.00148996 0.02725000
v 0.01045459 0.00142040 0.02725152
v 0.01058038 -0.00011204 0.02817402
v 0.01020666 -0.00077001 0.02725064
v 0.01538007 0.00168289 0.02725153
v 0.01585940 -0.00046877 0.02725064
v 0.01541786 0.00014576 0.02817403
v 0.01062293 0.00111346 0.02781357
v 0.01133775 0.00023383 0.02890041
v 0.01177599 0.00118862 0.02890202
v 0.01192938 0.00224759 0.02810112
v 0.01177080 0.00257129 0.02725000
v 0.01330738 0.00286682 0.02724873
v 0.01329873 0.00166868 0.02889936
v 0.01382573 0.00234865 0.02810112
v 0.01524531 0.00135979 0.02781357
v 0.01440930 0.00099260 0.02890953
v 0.01450937 -0.00023085 0.02598408
v 0.01424166 0.00072818 0.02606732
v 0.01366006 -0.00142569 0.02598382
v 0.01318312 0.00143217 0.02605554
v 0.01436961 -0.00036047 0.02574392
v 0.01368144 0.00119519 0.02579403
v 0.01385189 0.00139017 0.02565823
v 0.01390405 -0.00123051 0.02565948
v 0.01277413 -0.00141588 0.02574642
v 0.01366006 -0.00142569 0.02533462
v 0.01282785 -0.00136498 0.02546943
v 0.01436961 -0.00036047 0.02541932
v 0.01419497 0.00075849 0.02539970
v 0.01314606 0.00141440 0.02540633
v 0.01447485 -0.00054139 0.02501002
v 0.01425684 -0.00042173 0.02514563
v 0.01368144 0.00119519 0.02514483
v 0.01385189 0.00139017 0.02500903
v 0.01306423 -0.00156975 0.02501002
v 0.01282785 -0.00136498 0.02514483
v 0.01406460 0.00115538 0.02468542
v 0.01368143 0.00119519 0.02482023
v 0.01263570 0.00148280 0.02468569
v 0.01436917 -0.00035859 0.02476946
v 0.01334480 -0.00158320 0.02467611
v 0.01282786 -0.00136498 0.02482023
v 0.01406459 0.00115539 0.02436082
v 0.01368143 0.00119519 0.02449563
v 0.01263785 0.00141868 0.02441266
v 0.01436917 -0.00035859 0.02444485
v 0.01334480 -0.00158320 0.02435151
v 0.01282785 -0.00136498 0.02449563
v 0.01457591 0.00004191 0.02404140
v 0.01425684 -0.00042173 0.02417183
v 0.01375055 0.00122165 0.02412342
v 0.01362939 -0.00143083 0.02403031
v 0.01282785 -0.00136498 0.02417103
v 0.01457591 0.00004191 0.02371680
v 0.01431112 0.00012375 0.02384089
v 0.01317219 0.00136498 0.02384643
v 0.01325505 0.00161034 0.02371063
v 0.01361345 -0.00118129 0.02385259
v 0.01362939 -0.00143083 0.02370571
v 0.01263785 0.00141868 0.02408806
v 0.01423053 0.00090403 0.02338728
v 0.01441417 -0.00014505 0.02345851
v 0.01322591 0.00141588 0.02347422
v 0.01355001 -0.00137579 0.02343442
v 0.01225295 -0.00125925 0.02343886
v 0.01442570 0.00066004 0.02306242
v 0.01431112 0.00012375 0.02319169
v 0.01322591 0.00141588 0.02314962
v 0.01415540 -0.00106457 0.02306242
v 0.01339309 -0.00132687 0.02320522
v 0.01276917 -0.00150935 0.02306268
v 0.01439095 0.00022734 0.02281658
v 0.01317218 0.00136498 0.02287263
v 0.01325505 0.00161034 0.02273682
v 0.01339309 -0.00132687 0.02288062
v 0.01415540 -0.00106457 0.02273782
v 0.01276917 -0.00150935 0.02273808
v 0.01439095 0.00022734 0.02249198
v 0.01317218 0.00136498 0.02254803
v 0.01325505 0.00161034 0.02241222
v 0.01361345 -0.00118129 0.02255419
v 0.01415540 -0.00106457 0.02241322
v 0.01276917 -0.00150935 0.02241348
v 0.01406459 0.00115539 0.02208862
v 0.01368143 0.00119519 0.02222343
v 0.01263569 0.00148280 0.02208888
v 0.01436960 -0.00036047 0.02217332
v 0.01390405 -0.00123051 0.02208888
v 0.01279171 -0.00144928 0.02214046
v 0.01434615 0.00051478 0.02165872
v 0.01425684 -0.00042173 0.02189963
v 0.01375055 0.00122165 0.02185122
v 0.01415540 -0.00106458 0.02176402
v 0.01277412 -0.00141588 0.02185122
v 0.01415851 -0.00105555 0.02144670
v 0.01393131 -0.00097369 0.02124636
v 0.01282839 -0.00140150 0.02149522
v 0.01442570 0.00066004 0.02143942
v 0.01412130 0.00070249 0.02124958
v 0.01288387 0.00152420 0.02136758
v 0.01316953 0.00127721 0.02157515
v 0.01425684 -0.00042173 0.02157502
v 0.01263785 0.00141868 0.02181586
v 0.01198123 0.00085662 0.02158038
v 0.01152519 0.00054139 0.02176402
v 0.01180196 -0.00074232 0.02151817
v 0.01176951 -0.00090403 0.02176428
v 0.01156883 0.00048996 0.02134312
v 0.01192706 -0.00083453 0.02124834
v 0.01152519 0.00054139 0.02208862
v 0.01167748 -0.00009134 0.02189963
v 0.01189662 -0.00089686 0.02216032
v 0.01180483 0.00068142 0.02222343
v 0.01163729 0.00052961 0.02246915
v 0.01186437 -0.00086296 0.02249414
v 0.01163729 0.00052961 0.02279375
v 0.01180196 -0.00074232 0.02281658
v 0.01196540 0.00106059 0.02310982
v 0.01156012 -0.00064178 0.02306760
v 0.01187100 0.00108106 0.02338111
v 0.01163801 -0.00040716 0.02345851
v 0.01183607 -0.00061607 0.02319169
v 0.01184016 0.00081178 0.02377717
v 0.01187546 0.00063405 0.02352552
v 0.01165840 -0.00094031 0.02371829
v 0.01170924 0.00080616 0.02403304
v 0.01159786 -0.00019265 0.02412025
v 0.01194512 -0.00086598 0.02383757
v 0.01220914 -0.00130611 0.02403648
v 0.01152519 0.00054139 0.02436082
v 0.01176951 -0.00090403 0.02436108
v 0.01152519 0.00054140 0.02468542
v 0.01167748 -0.00009134 0.02449643
v 0.01176951 -0.00090403 0.02468569
v 0.01208389 0.00107682 0.02491811
v 0.01178099 -0.00076688 0.02508804
v 0.01158150 0.00000790 0.02489303
v 0.01196836 0.00106284 0.02538122
v 0.01200026 0.00087059 0.02514563
v 0.01160576 -0.00024347 0.02539970
v 0.01220914 -0.00130611 0.02533489
v 0.01196207 0.00102371 0.02571215
v 0.01156012 -0.00064178 0.02566440
v 0.01195043 0.00107375 0.02602991
v 0.01167748 -0.00009134 0.02579482
v 0.01168100 -0.00095835 0.02598283
v 0.01204783 0.00119056 0.02624938
v 0.01148487 0.00016855 0.02624938
v 0.01184110 -0.00093692 0.02614386
v 0.01203216 -0.00062975 0.02786000
v 0.01197071 0.00052332 0.02786000
v 0.01300002 0.00000000 0.02728265
v 0.01306147 -0.00115306 0.02786000
v 0.01402933 -0.00052332 0.02786000
v 0.01396788 0.00062975 0.02786000
v 0.01293857 0.00115306 0.02786000
v 0.01203216 -0.00062975 0.02890000
v 0.01197071 0.00052332 0.02890000
v 0.01306147 -0.00115306 0.02890000
v 0.01402933 -0.00052332 0.02890000
v 0.01396788 0.00062975 0.02890000
v 0.01293857 0.00115306 0.02890000
v 0.01184921 -0.00127723 0.02891205
v 0.01353800 -0.00159276 0.02890170
v 0.01446416 -0.00085298 0.02889639
v 0.01216744 -0.00229767 0.02811445
v 0.01315168 -0.00284596 0.02725000
v 0.01150386 -0.00248020 0.02725084
v 0.01118286 -0.00133698 0.02835990
v 0.01311976 -0.00224692 0.02836680
v 0.01407209 -0.00219617 0.02811445
v 0.01475127 -0.00230710 0.02725093
v 0.01494898 -0.00113628 0.02835990
v 0.01151006 -0.00032256 0.02725000
v 0.01217454 -0.00128165 0.02725000
v 0.01171837 0.00082548 0.02725000
v -0.00149025 0.00017078 -0.02725000
v -0.00152260 -0.00007609 -0.02624938
v -0.00132948 -0.00074600 -0.02725000
v -0.00119798 0.00094280 -0.02725000
v -0.00107344 0.00102990 -0.02614088
v -0.00041252 0.00144216 -0.02725000
v -0.00007609 0.00152260 -0.02624938
v 0.00041258 0.00146759 -0.02725000
v 0.00100567 0.00109979 -0.02614385
v 0.00132948 0.00074600 -0.02725000
v 0.00152260 0.00007609 -0.02624938
v 0.00217217 -0.00194381 -0.02725152
v 0.00068236 -0.00232414 -0.02817401
v 0.00018204 -0.00289183 -0.02725063
v 0.00081569 0.00279846 -0.02725152
v -0.00137474 0.00255067 -0.02725063
v -0.00064990 0.00233342 -0.02817402
v 0.00182714 -0.00188466 -0.02781357
v 0.00076262 -0.00149541 -0.02890040
v 0.00152254 -0.00077002 -0.02890202
v 0.00247377 -0.00028000 -0.02810111
v 0.00283147 -0.00032447 -0.02725000
v 0.00261028 0.00122456 -0.02724872
v 0.00148033 0.00082605 -0.02889935
v 0.00195151 0.00154582 -0.02810111
v 0.00055412 0.00256580 -0.02781357
v 0.00047932 0.00165577 -0.02890952
v -0.00013863 0.00152060 -0.02598408
v 0.00143940 0.00076574 -0.02598282
v -0.00138290 0.00074553 -0.02598381
v -0.00128416 -0.00010586 -0.02611900
v -0.00135180 -0.00070999 -0.02598408
v 0.00047635 0.00155928 -0.02565822
v 0.00044333 0.00130241 -0.02579402
v 0.00131454 -0.00017160 -0.02579482
v 0.00155930 -0.00044043 -0.02564991
v -0.00155927 0.00047635 -0.02565822
v -0.00130241 0.00044333 -0.02579402
v -0.00138290 0.00074553 -0.02533461
v -0.00114880 0.00066159 -0.02547022
v -0.00005975 0.00142066 -0.02540632
v -0.00120539 -0.00074180 -0.02539969
v 0.00109440 0.00099812 -0.02538121
v -0.00099233 0.00121799 -0.02501001
v -0.00103362 0.00090799 -0.02514482
v 0.00067281 0.00129996 -0.02506713
v -0.00143940 -0.00076574 -0.02500902
v -0.00105086 -0.00080818 -0.02514562
v 0.00138897 0.00027650 -0.02509471
v -0.00138254 -0.00006065 -0.02482822
v -0.00010652 0.00142234 -0.02476633
v -0.00138290 0.00074553 -0.02468541
v -0.00135180 -0.00070998 -0.02468568
v 0.00109440 0.00099813 -0.02473201
v 0.00097720 0.00117325 -0.02436108
v -0.00010652 0.00142234 -0.02444173
v 0.00142110 0.00023372 -0.02443883
v -0.00138254 -0.00006065 -0.02450361
v -0.00138290 0.00074553 -0.02436082
v -0.00135179 -0.00070998 -0.02436108
v -0.00138254 -0.00006065 -0.02417902
v -0.00010651 0.00142234 -0.02411713
v -0.00138290 0.00074553 -0.02403621
v -0.00135179 -0.00070999 -0.02403648
v 0.00094717 0.00111655 -0.02408805
v -0.00138254 -0.00006065 -0.02385442
v -0.00010651 0.00142234 -0.02379253
v -0.00138290 0.00074553 -0.02371161
v -0.00135179 -0.00070998 -0.02371188
v 0.00094717 0.00111655 -0.02376345
v 0.00152060 0.00013863 -0.02403648
v -0.00138254 -0.00006065 -0.02352981
v -0.00010651 0.00142234 -0.02346793
v -0.00138290 0.00074553 -0.02338701
v -0.00135179 -0.00070998 -0.02338728
v 0.00094717 0.00111656 -0.02343885
v 0.00152060 0.00013863 -0.02371188
v -0.00138254 -0.00006064 -0.02320522
v -0.00010651 0.00142234 -0.02314333
v -0.00138290 0.00074553 -0.02306241
v -0.00135179 -0.00070998 -0.02306268
v 0.00094717 0.00111655 -0.02311425
v 0.00152060 0.00013863 -0.02338728
v -0.00047378 0.00150357 -0.02274300
v 0.00090800 0.00103362 -0.02287262
v 0.00121799 0.00099234 -0.02273781
v -0.00080817 0.00105086 -0.02287342
v -0.00155780 0.00012889 -0.02273190
v -0.00123442 -0.00060747 -0.02287262
v 0.00152060 0.00013863 -0.02306268
v 0.00097720 0.00117325 -0.02241348
v -0.00005074 0.00136388 -0.02253916
v 0.00142110 0.00023372 -0.02249123
v 0.00007838 0.00141638 -0.02229622
v -0.00138290 0.00074553 -0.02241321
v -0.00138254 -0.00006065 -0.02255601
v -0.00135180 -0.00070998 -0.02241348
v 0.00097720 0.00117325 -0.02208888
v 0.00137293 0.00008883 -0.02222342
v 0.00155928 -0.00047635 -0.02208762
v -0.00076574 0.00143940 -0.02208762
v -0.00130241 0.00044333 -0.02222342
v -0.00152059 -0.00013863 -0.02208888
v -0.00138254 -0.00006065 -0.02190681
v -0.00010651 0.00142234 -0.02184493
v -0.00138290 0.00074553 -0.02176401
v -0.00135179 -0.00070998 -0.02176428
v 0.00094717 0.00111655 -0.02181585
v -0.00137538 0.00075140 -0.02144670
v -0.00122397 0.00056327 -0.02124636
v -0.00136495 -0.00067544 -0.02140468
v 0.00006855 0.00144262 -0.02127169
v 0.00094717 0.00111656 -0.02149125
v 0.00147137 0.00019826 -0.02134834
v -0.00008883 0.00137292 -0.02157422
v -0.00136189 -0.00008226 -0.02156976
v 0.00152060 0.00013863 -0.02176428
v 0.00114180 -0.00068414 -0.02158038
v 0.00099234 -0.00121799 -0.02176401
v -0.00031151 -0.00137453 -0.02151817
v -0.00031151 -0.00137453 -0.02184277
v 0.00092949 -0.00119348 -0.02134311
v -0.00043944 -0.00128630 -0.02124834
v 0.00114180 -0.00068414 -0.02190498
v 0.00027651 -0.00138897 -0.02217331
v -0.00082976 -0.00114661 -0.02215369
v 0.00099234 -0.00121799 -0.02241321
v -0.00031151 -0.00137453 -0.02249197
v 0.00130601 -0.00064782 -0.02279074
v 0.00114180 -0.00068414 -0.02255418
v 0.00027466 -0.00138842 -0.02282185
v -0.00097720 -0.00117325 -0.02273808
v 0.00099234 -0.00121799 -0.02306241
v -0.00031151 -0.00137453 -0.02314117
v 0.00114180 -0.00068414 -0.02320338
v 0.00099234 -0.00121799 -0.02338701
v -0.00031151 -0.00137453 -0.02346577
v 0.00114180 -0.00068414 -0.02352798
v 0.00099234 -0.00121799 -0.02371161
v -0.00031151 -0.00137454 -0.02379037
v 0.00114180 -0.00068414 -0.02385258
v 0.00099234 -0.00121799 -0.02403621
v -0.00031151 -0.00137453 -0.02411497
v 0.00114180 -0.00068414 -0.02417718
v 0.00099234 -0.00121799 -0.02436082
v -0.00031151 -0.00137453 -0.02443957
v 0.00138990 -0.00071523 -0.02467950
v 0.00114180 -0.00068414 -0.02450178
v -0.00013767 -0.00157042 -0.02469060
v 0.00114180 -0.00068414 -0.02482638
v 0.00076574 -0.00143940 -0.02500902
v -0.00020326 -0.00130115 -0.02481469
v 0.00138291 -0.00074553 -0.02533462
v 0.00060747 -0.00123442 -0.02514482
v -0.00015956 -0.00156294 -0.02533461
v 0.00114880 -0.00066159 -0.02547022
v 0.00027466 -0.00138842 -0.02574325
v -0.00017160 -0.00131453 -0.02547022
v -0.00082976 -0.00114661 -0.02572429
v 0.00118196 -0.00087538 -0.02608341
v -0.00015956 -0.00156294 -0.02598381
v -0.00051238 -0.00143581 -0.02624938
v -0.00106567 -0.00101612 -0.02615217
v 0.00065297 -0.00137758 -0.02624938
v -0.00028008 -0.00112022 -0.02786000
v 0.00083010 -0.00080266 -0.02786000
v 0.00000000 0.00000000 -0.02728265
v -0.00111018 -0.00031756 -0.02786000
v -0.00083010 0.00080266 -0.02786000
v 0.00028008 0.00112022 -0.02786000
v 0.00111018 0.00031756 -0.02786000
v -0.00028008 -0.00112022 -0.02890000
v 0.00083010 -0.00080266 -0.02890000
v -0.00111018 -0.00031756 -0.02890000
v -0.00083010 0.00080266 -0.02890000
v 0.00028008 0.00112022 -0.02890000
v 0.00111018 0.00031756 -0.02890000
v -0.00083263 -0.00150413 -0.02891205
v -0.00168113 -0.00001027 -0.02890169
v -0.00128344 0.00110637 -0.02889638
v -0.00190107 -0.00153571 -0.02811444
v -0.00274010 -0.00078378 -0.02724999
v -0.00185746 -0.00222255 -0.02725084
v -0.00067203 -0.00215359 -0.02835989
v -0.00216334 -0.00061880 -0.02836680
v -0.00242562 0.00029810 -0.02811444
v -0.00275177 0.00090408 -0.02725093
v -0.00170923 0.00147245 -0.02835989
v -0.00041258 -0.00146759 -0.02725000
v 0.00074600 -0.00132948 -0.02725000
v 0.00146759 -0.00041258 -0.02725000
f 1 3 2
f 1 4 3
f 5 1 2
f 5 2 6
f 7 5 6
f 7 6 8
f 9 7 8
f 9 8 10
f 11 9 10
f 12 14 13
f 15 17 16
f 18 12 13
f 18 13 19
f 20 18 19
f 21 22 12
f 21 18 20
f 21 12 18
f 21 23 22
f 21 20 24
f 25 23 21
f 25 21 24
f 26 27 17
f 26 17 15
f 25 15 23
f 25 24 27
f 25 26 15
f 25 27 26
f 28 29 8
f 30 28 8
f 30 8 31
f 2 3 32
f 2 32 31
f 6 2 31
f 8 6 31
f 10 8 29
f 33 35 34
f 33 36 35
f 33 34 37
f 38 33 37
f 39 38 37
f 39 37 40
f 31 40 37
f 31 32 40
f 30 31 37
f 28 37 34
f 28 30 37
f 28 34 35
f 41 43 42
f 41 44 43
f 45 42 38
f 45 41 42
f 45 38 46
f 47 45 46
f 38 39 46
f 33 38 42
f 36 42 43
f 36 33 42
f 48 50 49
f 51 48 49
f 45 51 49
f 45 47 51
f 41 49 50
f 41 45 49
f 41 50 52
f 44 41 52
f 53 55 54
f 56 53 54
f 57 53 56
f 48 51 56
f 48 56 54
f 50 48 54
f 50 54 55
f 52 50 55
f 58 60 59
f 61 58 59
f 62 61 59
f 63 61 62
f 53 62 59
f 53 57 62
f 55 59 60
f 55 53 59
f 64 66 65
f 67 66 64
f 61 63 64
f 61 64 65
f 58 61 65
f 58 65 68
f 60 58 68
f 60 68 69
f 70 72 71
f 73 70 74
f 66 67 74
f 66 74 70
f 65 66 70
f 65 70 71
f 68 65 71
f 75 77 76
f 78 76 79
f 78 75 76
f 78 79 80
f 73 74 80
f 73 80 79
f 70 73 79
f 72 79 76
f 72 70 79
f 72 76 77
f 81 82 75
f 83 81 75
f 83 75 84
f 85 83 84
f 78 80 85
f 78 85 84
f 75 78 84
f 77 75 82
f 86 88 87
f 89 90 86
f 91 90 89
f 83 89 86
f 83 85 89
f 81 86 87
f 81 83 86
f 92 94 93
f 95 92 93
f 95 93 96
f 97 95 96
f 97 96 98
f 90 91 98
f 90 98 96
f 86 90 96
f 86 96 93
f 88 86 93
f 88 93 94
f 99 101 100
f 99 102 101
f 103 99 100
f 103 100 104
f 105 103 104
f 97 105 104
f 97 98 105
f 95 104 100
f 95 97 104
f 92 95 100
f 92 100 101
f 106 108 107
f 109 108 106
f 103 105 106
f 103 106 107
f 99 103 107
f 99 107 110
f 102 110 111
f 102 99 110
f 112 114 113
f 115 112 113
f 115 113 116
f 115 118 117
f 115 116 118
f 112 115 117
f 114 112 119
f 120 114 119
f 108 109 119
f 108 119 112
f 107 108 112
f 107 112 117
f 110 107 117
f 110 117 118
f 121 110 118
f 121 118 122
f 123 121 122
f 109 122 119
f 109 123 122
f 120 119 122
f 124 120 122
f 124 122 118
f 116 124 118
f 113 124 116
f 113 114 125
f 113 125 124
f 120 124 125
f 120 125 114
f 126 111 127
f 126 102 111
f 126 127 109
f 105 126 109
f 105 109 106
f 123 109 127
f 121 123 127
f 121 127 111
f 110 121 111
f 128 92 101
f 129 101 130
f 129 128 101
f 98 130 105
f 98 129 130
f 126 105 130
f 126 130 101
f 102 126 101
f 131 88 94
f 131 94 132
f 133 131 132
f 91 133 132
f 91 132 98
f 129 98 132
f 94 129 132
f 128 129 94
f 92 128 94
f 134 87 131
f 134 81 87
f 135 131 133
f 135 134 131
f 85 133 89
f 85 135 133
f 91 89 133
f 88 131 87
f 136 82 134
f 136 77 82
f 136 134 137
f 138 136 137
f 80 138 137
f 80 137 85
f 135 85 137
f 134 135 137
f 81 134 82
f 139 72 77
f 139 77 136
f 140 136 138
f 140 139 136
f 74 140 138
f 74 138 80
f 141 68 71
f 142 141 143
f 142 143 74
f 67 142 74
f 140 74 143
f 139 140 143
f 139 143 141
f 72 141 71
f 72 139 141
f 144 60 69
f 144 69 145
f 146 144 145
f 63 145 64
f 63 146 145
f 142 64 145
f 142 67 64
f 141 142 145
f 141 145 69
f 68 141 69
f 147 55 60
f 147 60 148
f 149 148 150
f 149 147 148
f 57 150 62
f 57 149 150
f 146 62 150
f 146 63 62
f 148 146 150
f 144 146 148
f 60 144 148
f 52 55 151
f 152 52 151
f 152 151 153
f 154 152 153
f 51 153 56
f 51 154 153
f 149 56 153
f 149 57 56
f 151 149 153
f 147 149 151
f 55 147 151
f 155 52 152
f 155 44 52
f 155 152 154
f 156 155 154
f 47 156 154
f 47 154 51
f 157 43 156
f 157 36 43
f 158 157 156
f 39 158 46
f 47 46 158
f 156 47 158
f 155 156 43
f 44 155 43
f 159 35 157
f 160 159 157
f 160 157 40
f 32 160 40
f 158 39 40
f 157 158 40
f 36 157 35
f 161 29 159
f 162 161 159
f 162 159 163
f 3 163 32
f 160 32 163
f 159 160 163
f 35 159 29
f 28 35 29
f 164 166 165
f 167 166 164
f 167 168 166
f 166 168 169
f 166 169 170
f 166 170 165
f 164 172 171
f 164 165 172
f 167 171 173
f 167 164 171
f 168 173 174
f 168 167 173
f 169 174 175
f 169 168 174
f 170 175 176
f 170 169 175
f 165 176 172
f 165 170 176
f 177 171 19
f 178 173 177
f 177 173 171
f 171 172 19
f 172 20 19
f 179 174 178
f 178 174 173
f 172 176 20
f 174 27 175
f 179 27 174
f 176 24 20
f 175 24 176
f 175 27 24
f 19 13 177
f 17 27 179
f 180 182 181
f 183 14 182
f 183 180 177
f 183 13 14
f 183 182 180
f 183 177 13
f 184 178 177
f 184 177 180
f 184 180 181
f 185 181 186
f 185 178 184
f 185 184 181
f 187 186 16
f 187 179 178
f 187 185 186
f 187 178 185
f 187 17 179
f 187 16 17
f 188 182 14
f 4 182 188
f 4 181 182
f 189 188 14
f 1 186 181
f 1 181 4
f 189 14 12
f 5 186 1
f 190 189 12
f 22 11 190
f 22 190 12
f 16 5 7
f 16 186 5
f 23 9 11
f 23 11 22
f 15 7 9
f 15 16 7
f 15 9 23
f 190 11 10
f 190 10 29
f 190 29 161
f 189 190 161
f 189 161 162
f 188 189 162
f 188 162 163
f 4 163 3
f 4 188 163
f 191 193 192
f 194 196 195
f 197 198 194
f 199 197 200
f 201 203 202
f 204 201 205
f 206 208 207
f 209 211 210
f 210 213 212
f 211 213 210
f 212 213 214
f 214 216 215
f 213 216 214
f 215 218 217
f 216 218 215
f 217 220 219
f 218 220 217
f 220 221 219
f 210 212 209
f 209 212 222
f 214 215 212
f 212 215 222
f 222 217 219
f 215 217 222
f 223 225 224
f 224 225 226
f 226 225 227
f 227 229 228
f 225 229 227
f 228 231 230
f 229 231 228
f 230 233 232
f 231 233 230
f 233 234 232
f 232 234 235
f 226 227 224
f 224 227 236
f 227 228 236
f 235 230 232
f 236 230 235
f 228 230 236
f 206 193 191
f 206 207 193
f 208 191 192
f 208 192 195
f 208 206 191
f 205 208 195
f 204 195 196
f 204 205 195
f 201 196 194
f 201 204 196
f 203 194 198
f 203 201 194
f 202 198 197
f 202 203 198
f 237 197 199
f 237 202 197
f 238 237 199
f 238 199 200
f 239 200 240
f 239 238 200
f 241 240 242
f 241 239 240
f 243 242 244
f 243 241 242
f 245 244 246
f 245 243 244
f 247 246 248
f 247 248 249
f 247 245 246
f 250 247 249
f 207 249 193
f 207 250 249
f 213 248 244
f 211 193 248
f 211 248 213
f 216 213 244
f 251 192 193
f 251 193 211
f 218 244 242
f 218 216 244
f 252 192 251
f 220 218 242
f 195 192 252
f 200 220 242
f 221 220 200
f 195 252 253
f 197 254 221
f 197 221 200
f 194 253 254
f 194 195 253
f 194 254 197
f 250 233 245
f 233 231 245
f 207 234 250
f 250 234 233
f 245 229 243
f 231 229 245
f 207 255 234
f 229 225 243
f 225 239 243
f 207 208 255
f 208 256 255
f 208 205 256
f 225 237 239
f 225 223 237
f 256 205 257
f 223 202 237
f 205 201 257
f 257 202 223
f 201 202 257
f 258 259 235
f 235 259 236
f 259 260 236
f 236 261 224
f 262 261 260
f 260 261 236
f 234 255 235
f 235 255 258
f 258 255 259
f 259 256 260
f 255 256 259
f 260 257 262
f 256 257 260
f 262 257 261
f 261 223 224
f 257 223 261
f 263 264 219
f 219 264 222
f 264 265 222
f 222 266 209
f 267 266 265
f 265 266 222
f 219 221 263
f 263 254 264
f 221 254 263
f 264 253 265
f 254 253 264
f 265 252 267
f 253 252 265
f 267 252 266
f 266 251 209
f 252 251 266
f 251 211 209
f 247 250 245
f 239 241 243
f 238 239 237
f 240 200 242
f 248 246 244
f 249 248 193
f 268 270 269
f 271 272 268
f 273 271 274
f 275 277 276
f 278 275 279
f 280 282 281
f 283 285 284
f 284 287 286
f 285 287 284
f 286 287 288
f 288 290 289
f 287 290 288
f 289 292 291
f 290 292 289
f 292 293 291
f 291 293 294
f 293 295 294
f 284 286 283
f 283 286 296
f 288 289 286
f 286 289 296
f 296 291 294
f 289 291 296
f 297 299 298
f 298 299 300
f 300 299 301
f 301 303 302
f 299 303 301
f 302 305 304
f 303 305 302
f 304 307 306
f 305 307 304
f 306 309 308
f 307 309 306
f 300 301 298
f 298 301 310
f 301 302 310
f 308 304 306
f 310 304 308
f 302 304 310
f 280 312 311
f 280 281 312
f 282 311 313
f 282 313 269
f 282 280 311
f 279 282 269
f 278 269 270
f 278 279 269
f 275 270 268
f 275 278 270
f 277 268 272
f 277 275 268
f 276 272 271
f 276 277 272
f 314 271 273
f 314 276 271
f 315 314 273
f 315 273 274
f 316 274 317
f 316 315 274
f 318 317 319
f 318 316 317
f 320 319 321
f 320 318 319
f 322 321 323
f 322 320 321
f 324 323 325
f 324 325 326
f 324 322 323
f 327 324 326
f 281 326 312
f 281 327 326
f 287 325 321
f 285 325 287
f 290 287 321
f 285 311 325
f 328 311 285
f 292 321 319
f 292 290 321
f 329 313 311
f 329 311 328
f 293 292 319
f 330 313 329
f 269 313 330
f 274 293 319
f 295 293 274
f 271 331 295
f 271 295 274
f 268 330 331
f 268 269 330
f 268 331 271
f 327 307 322
f 307 305 322
f 281 307 327
f 281 309 307
f 322 303 320
f 305 303 322
f 303 299 320
f 299 316 320
f 309 282 332
f 281 282 309
f 282 333 332
f 282 279 333
f 299 314 316
f 299 297 314
f 333 279 334
f 297 276 314
f 279 275 334
f 334 276 297
f 275 276 334
f 335 336 308
f 308 336 310
f 336 337 310
f 310 338 298
f 339 338 337
f 337 338 310
f 308 309 335
f 335 332 336
f 309 332 335
f 336 333 337
f 332 333 336
f 337 334 339
f 333 334 337
f 339 334 338
f 338 297 298
f 334 297 338
f 340 341 294
f 294 341 296
f 341 342 296
f 296 343 283
f 344 343 342
f 342 343 296
f 294 295 340
f 340 331 341
f 295 331 340
f 341 331 342
f 331 330 342
f 342 330 344
f 344 329 343
f 330 329 344
f 343 328 283
f 329 328 343
f 328 285 283
f 324 327 322
f 316 318 320
f 315 316 314
f 317 274 319
f 325 323 321
f 312 325 311
f 312 326 325
f 345 347 346
f 348 345 346
f 348 346 349
f 350 348 349
f 350 349 351
f 350 351 352
f 353 350 352
f 354 356 355
f 357 359 358
f 360 354 355
f 360 355 361
f 362 360 361
f 363 364 354
f 363 360 362
f 363 354 360
f 363 365 364
f 363 362 366
f 367 365 363
f 367 363 366
f 368 369 359
f 368 359 357
f 367 357 365
f 367 366 369
f 367 368 357
f 367 369 368
f 370 371 351
f 370 372 371
f 373 370 351
f 374 351 375
f 374 373 351
f 374 375 347
f 376 374 347
f 346 347 375
f 349 375 351
f 349 346 375
f 352 351 371
f 377 378 373
f 377 379 378
f 377 373 380
f 374 376 380
f 373 374 380
f 370 373 378
f 372 370 378
f 381 383 382
f 381 382 384
f 385 381 384
f 385 384 386
f 380 387 386
f 380 386 384
f 377 380 384
f 379 384 382
f 379 377 384
f 388 390 389
f 388 389 391
f 392 388 391
f 393 392 391
f 385 393 391
f 381 385 391
f 381 391 389
f 383 381 389
f 394 396 395
f 394 397 396
f 398 394 395
f 393 399 398
f 392 393 398
f 392 398 395
f 388 392 395
f 388 395 396
f 390 388 396
f 400 402 401
f 400 403 402
f 404 400 401
f 398 405 404
f 394 404 401
f 394 398 404
f 397 401 402
f 397 394 401
f 406 408 407
f 406 409 408
f 410 406 407
f 404 411 410
f 400 410 407
f 400 404 410
f 403 407 408
f 403 400 407
f 412 414 413
f 415 412 413
f 416 412 415
f 406 415 413
f 406 410 415
f 409 413 414
f 409 406 413
f 417 419 418
f 420 417 418
f 416 421 420
f 412 420 418
f 412 416 420
f 414 418 419
f 414 412 418
f 422 414 419
f 423 425 424
f 426 423 424
f 420 427 426
f 417 426 424
f 417 420 426
f 419 424 425
f 419 417 424
f 428 419 425
f 429 431 430
f 432 429 430
f 426 433 432
f 423 432 430
f 423 426 432
f 425 423 430
f 425 430 431
f 434 425 431
f 435 437 436
f 438 436 439
f 438 435 436
f 440 438 439
f 432 441 440
f 429 440 439
f 429 432 440
f 431 439 436
f 431 429 439
f 442 431 436
f 443 437 444
f 443 445 437
f 443 444 438
f 446 443 438
f 446 438 447
f 438 440 447
f 435 438 444
f 437 435 444
f 448 450 449
f 451 448 452
f 453 451 452
f 453 452 454
f 447 454 452
f 446 447 452
f 443 446 452
f 443 452 448
f 445 448 449
f 445 443 448
f 455 457 456
f 458 456 459
f 458 455 456
f 458 459 460
f 458 462 461
f 458 460 462
f 455 458 461
f 453 457 455
f 451 453 455
f 451 455 461
f 448 451 461
f 450 461 462
f 450 448 461
f 463 462 464
f 463 450 462
f 454 463 464
f 454 464 457
f 453 454 457
f 462 465 464
f 460 465 462
f 459 465 460
f 459 456 466
f 459 466 465
f 464 465 466
f 457 464 466
f 457 466 456
f 467 445 449
f 467 449 463
f 468 467 463
f 468 463 454
f 447 468 454
f 450 463 449
f 469 437 470
f 471 469 470
f 471 470 468
f 441 471 468
f 441 468 447
f 440 441 447
f 467 468 470
f 445 467 470
f 445 470 437
f 442 436 469
f 472 469 471
f 472 442 469
f 433 472 471
f 433 471 441
f 432 433 441
f 437 469 436
f 434 431 473
f 474 473 472
f 474 434 473
f 427 474 472
f 427 472 433
f 426 427 433
f 442 472 473
f 442 473 431
f 428 425 475
f 476 475 474
f 476 428 475
f 421 476 474
f 421 474 427
f 420 421 427
f 434 474 475
f 434 475 425
f 422 419 477
f 478 477 476
f 478 422 477
f 479 478 476
f 479 476 421
f 416 479 421
f 428 476 477
f 428 477 419
f 480 409 414
f 480 414 481
f 480 481 478
f 482 480 478
f 411 478 479
f 411 482 478
f 410 479 415
f 410 411 479
f 479 416 415
f 422 478 481
f 422 481 414
f 483 403 408
f 483 408 484
f 485 484 482
f 485 483 484
f 405 485 482
f 405 482 411
f 404 405 411
f 480 482 484
f 409 484 408
f 409 480 484
f 486 397 402
f 487 486 485
f 399 487 485
f 399 485 405
f 398 399 405
f 483 485 486
f 483 486 402
f 403 483 402
f 390 396 488
f 489 390 488
f 489 488 487
f 490 489 487
f 490 487 399
f 393 490 399
f 486 487 488
f 397 486 488
f 397 488 396
f 383 389 491
f 492 383 491
f 492 491 493
f 385 493 393
f 490 393 493
f 489 490 493
f 489 493 491
f 390 489 491
f 390 491 389
f 494 382 495
f 494 379 382
f 496 494 495
f 387 496 386
f 493 385 386
f 493 386 496
f 492 493 496
f 492 496 495
f 383 492 495
f 383 495 382
f 372 378 494
f 497 372 494
f 497 494 498
f 376 497 498
f 376 498 380
f 387 380 498
f 496 387 498
f 494 496 498
f 379 494 378
f 499 352 371
f 499 371 500
f 501 502 347
f 376 347 502
f 497 376 502
f 497 502 500
f 372 497 500
f 372 500 371
f 503 505 504
f 506 505 503
f 506 507 505
f 505 507 508
f 505 508 509
f 505 509 504
f 503 511 510
f 503 504 511
f 506 510 512
f 506 503 510
f 507 512 513
f 507 506 512
f 508 513 514
f 508 507 513
f 509 514 515
f 509 508 514
f 504 515 511
f 504 509 515
f 516 510 361
f 517 512 516
f 516 512 510
f 510 511 361
f 511 362 361
f 518 513 517
f 517 513 512
f 511 515 362
f 513 369 514
f 518 369 513
f 515 366 362
f 514 366 515
f 514 369 366
f 361 355 516
f 359 369 518
f 519 521 520
f 522 356 521
f 522 519 516
f 522 355 356
f 522 521 519
f 522 516 355
f 523 517 516
f 523 516 519
f 523 519 520
f 524 520 525
f 524 517 523
f 524 523 520
f 526 525 358
f 526 518 517
f 526 524 525
f 526 517 524
f 526 359 518
f 526 358 359
f 527 521 356
f 527 528 521
f 345 520 521
f 345 521 528
f 345 525 520
f 527 356 354
f 353 527 354
f 348 525 345
f 364 353 354
f 358 525 348
f 365 350 353
f 365 353 364
f 358 348 350
f 357 358 350
f 357 350 365
f 353 352 499
f 527 499 500
f 527 353 499
f 527 500 502
f 528 502 501
f 528 527 502
f 345 501 347
f 345 528 501
f 529 531 530
f 532 529 530
f 532 530 533
f 534 532 533
f 534 533 535
f 536 534 535
f 536 535 537
f 538 536 537
f 539 541 540
f 542 544 543
f 545 539 540
f 545 540 546
f 547 545 546
f 548 549 539
f 548 545 547
f 548 539 545
f 548 550 549
f 548 547 551
f 552 550 548
f 552 548 551
f 553 554 544
f 553 544 542
f 552 542 550
f 552 551 554
f 552 553 542
f 552 554 553
f 555 556 530
f 557 555 530
f 533 530 556
f 535 533 556
f 537 556 558
f 537 535 556
f 559 561 560
f 562 559 563
f 557 563 559
f 555 557 559
f 556 559 560
f 556 555 559
f 558 556 560
f 564 566 565
f 562 563 565
f 562 565 566
f 559 562 566
f 561 566 567
f 561 559 566
f 561 567 568
f 569 571 570
f 569 572 571
f 573 570 574
f 573 569 570
f 564 574 570
f 566 564 570
f 567 570 571
f 567 566 570
f 568 567 571
f 575 577 576
f 578 575 576
f 579 578 580
f 569 580 578
f 569 573 580
f 572 578 576
f 572 569 578
f 581 583 582
f 584 581 582
f 585 584 586
f 579 586 584
f 578 579 584
f 575 584 582
f 575 578 584
f 577 575 582
f 587 589 588
f 590 587 588
f 590 588 591
f 585 591 588
f 584 585 588
f 581 588 589
f 581 584 588
f 583 581 589
f 592 594 593
f 592 595 594
f 596 592 593
f 597 592 596
f 587 596 593
f 587 590 596
f 589 593 594
f 589 587 593
f 598 589 594
f 599 601 600
f 597 603 602
f 592 602 600
f 592 597 602
f 595 600 601
f 595 592 600
f 604 606 605
f 607 604 605
f 608 607 605
f 609 607 608
f 600 608 605
f 600 602 608
f 599 600 605
f 599 605 606
f 601 599 606
f 610 612 611
f 613 614 610
f 615 614 613
f 607 609 613
f 607 613 610
f 604 607 610
f 604 610 611
f 606 604 611
f 616 618 617
f 619 620 616
f 621 620 619
f 614 615 619
f 614 619 616
f 610 614 616
f 612 616 617
f 612 610 616
f 622 624 623
f 625 622 623
f 626 625 627
f 620 621 627
f 620 627 625
f 616 620 625
f 616 625 623
f 618 616 623
f 628 630 629
f 631 628 629
f 631 629 632
f 626 627 632
f 626 632 629
f 625 626 629
f 622 629 630
f 622 625 629
f 624 622 630
f 633 635 634
f 636 634 637
f 636 633 634
f 638 636 637
f 636 639 628
f 636 638 639
f 636 628 640
f 633 636 640
f 633 640 635
f 631 632 635
f 631 635 640
f 628 631 640
f 630 628 639
f 641 630 639
f 641 639 642
f 643 641 642
f 643 642 644
f 645 643 644
f 632 644 635
f 632 645 644
f 642 646 644
f 638 646 642
f 638 642 639
f 637 646 638
f 637 634 647
f 637 647 646
f 644 646 647
f 635 644 647
f 635 647 634
f 624 630 641
f 648 624 641
f 648 641 649
f 650 648 649
f 650 649 632
f 627 650 632
f 645 632 649
f 643 645 649
f 643 649 641
f 618 623 651
f 652 618 651
f 653 651 650
f 653 652 651
f 621 653 650
f 621 650 627
f 648 650 651
f 624 648 651
f 624 651 623
f 654 617 652
f 654 612 617
f 654 652 653
f 655 654 653
f 615 655 653
f 615 653 619
f 621 619 653
f 618 652 617
f 656 606 611
f 656 611 654
f 657 654 655
f 657 656 654
f 609 655 613
f 609 657 655
f 655 615 613
f 612 654 611
f 658 601 606
f 658 606 656
f 659 656 660
f 659 658 656
f 603 659 660
f 603 660 608
f 602 603 608
f 657 608 660
f 657 609 608
f 656 657 660
f 661 601 662
f 661 595 601
f 663 662 659
f 663 661 662
f 663 659 603
f 597 663 603
f 658 659 662
f 658 662 601
f 664 594 661
f 664 598 594
f 665 661 666
f 665 664 661
f 667 665 666
f 590 666 596
f 590 667 666
f 663 597 596
f 663 596 666
f 661 663 666
f 595 661 594
f 583 589 598
f 668 583 598
f 668 598 665
f 669 668 665
f 669 665 591
f 585 669 591
f 667 590 591
f 665 667 591
f 664 665 598
f 577 582 583
f 670 577 583
f 670 583 671
f 672 670 671
f 672 671 586
f 579 672 586
f 669 585 586
f 669 586 671
f 668 669 671
f 668 671 583
f 673 572 576
f 674 675 580
f 573 674 580
f 672 579 580
f 672 580 675
f 670 672 675
f 670 675 673
f 577 670 673
f 577 673 576
f 676 568 571
f 676 571 677
f 678 677 674
f 678 676 677
f 679 674 574
f 679 678 674
f 564 679 574
f 674 573 574
f 675 674 677
f 673 675 677
f 572 677 571
f 572 673 677
f 680 561 568
f 680 568 676
f 681 676 678
f 681 680 676
f 681 678 565
f 563 681 565
f 679 564 565
f 678 679 565
f 682 558 560
f 682 560 680
f 682 680 683
f 684 682 683
f 684 683 563
f 557 684 563
f 681 563 683
f 680 681 683
f 561 680 560
f 685 537 558
f 685 558 682
f 686 685 682
f 686 682 687
f 531 687 530
f 684 557 530
f 684 530 687
f 682 684 687
f 688 690 689
f 691 690 688
f 691 692 690
f 690 692 693
f 690 693 694
f 690 694 689
f 688 696 695
f 688 689 696
f 691 695 697
f 691 688 695
f 692 697 698
f 692 691 697
f 693 698 699
f 693 692 698
f 694 699 700
f 694 693 699
f 689 700 696
f 689 694 700
f 701 695 546
f 702 697 701
f 701 697 695
f 695 696 546
f 696 547 546
f 703 698 702
f 702 698 697
f 696 700 547
f 698 554 699
f 703 554 698
f 700 551 547
f 699 551 700
f 699 554 551
f 546 540 701
f 544 554 703
f 704 706 705
f 707 541 706
f 707 704 701
f 707 540 541
f 707 706 704
f 707 701 540
f 708 702 701
f 708 701 704
f 708 704 705
f 709 705 710
f 709 702 708
f 709 708 705
f 711 710 543
f 711 703 702
f 711 709 710
f 711 702 709
f 711 544 703
f 711 543 544
f 712 706 541
f 712 713 706
f 529 705 706
f 529 706 713
f 529 710 705
f 714 541 539
f 714 712 541
f 532 710 529
f 549 538 714
f 549 714 539
f 543 532 534
f 543 710 532
f 550 536 538
f 550 538 549
f 542 534 536
f 542 543 534
f 542 536 550
f 538 537 685
f 714 538 685
f 714 685 686
f 712 714 686
f 712 686 687
f 713 712 687
f 713 687 531
f 529 713 531
f 715 717 716
f 718 716 719
f 718 715 716
f 720 719 721
f 720 718 719
f 722 720 721
f 722 721 723
f 724 722 723
f 724 723 725
f 726 728 727
f 729 731 730
f 732 726 727
f 732 727 733
f 734 732 733
f 735 736 726
f 735 732 734
f 735 726 732
f 735 737 736
f 735 734 738
f 739 737 735
f 739 735 738
f 740 741 731
f 740 731 729
f 739 729 737
f 739 738 741
f 739 740 729
f 739 741 740
f 742 743 723
f 742 723 719
f 744 742 719
f 744 719 745
f 746 744 745
f 719 716 745
f 721 719 723
f 747 749 748
f 747 750 749
f 751 748 752
f 751 747 748
f 744 746 752
f 742 752 748
f 742 744 752
f 743 742 748
f 743 748 749
f 753 755 754
f 756 753 754
f 751 756 754
f 747 754 755
f 747 751 754
f 747 755 757
f 750 747 757
f 758 760 759
f 761 758 759
f 761 759 762
f 753 762 759
f 753 756 762
f 755 753 759
f 755 759 760
f 757 755 760
f 757 760 763
f 764 766 765
f 767 766 764
f 758 761 764
f 758 764 765
f 760 758 765
f 760 765 768
f 763 760 768
f 769 771 770
f 772 773 770
f 774 773 772
f 766 767 772
f 766 772 770
f 765 766 770
f 768 765 770
f 768 770 771
f 775 777 776
f 778 777 775
f 773 774 775
f 773 775 776
f 770 773 776
f 769 770 776
f 769 776 779
f 771 769 779
f 780 782 781
f 783 782 780
f 777 778 780
f 777 780 781
f 776 777 781
f 779 776 781
f 779 781 784
f 785 779 784
f 786 788 787
f 789 788 786
f 782 783 786
f 782 786 787
f 781 782 787
f 784 781 787
f 784 787 790
f 791 784 790
f 792 794 793
f 795 794 792
f 788 789 792
f 788 792 793
f 787 788 793
f 790 787 793
f 790 793 796
f 797 790 796
f 798 800 799
f 798 799 801
f 802 798 801
f 802 801 803
f 794 795 803
f 794 803 801
f 793 794 801
f 793 801 799
f 796 793 799
f 804 796 799
f 805 807 806
f 808 805 806
f 809 808 806
f 810 809 806
f 811 809 810
f 798 810 806
f 798 802 810
f 800 798 806
f 800 806 807
f 812 814 813
f 812 813 808
f 815 812 808
f 815 808 816
f 817 815 816
f 809 811 816
f 808 809 816
f 805 808 813
f 807 805 813
f 818 820 819
f 821 820 818
f 815 817 818
f 815 818 819
f 812 815 819
f 812 819 822
f 814 812 822
f 823 825 824
f 826 823 824
f 827 826 828
f 826 827 829
f 823 826 829
f 823 829 830
f 825 823 830
f 820 821 830
f 820 830 829
f 819 820 829
f 822 819 829
f 822 829 827
f 831 822 827
f 831 827 832
f 833 831 832
f 833 832 834
f 835 833 834
f 821 834 830
f 821 835 834
f 834 825 830
f 832 836 834
f 828 836 832
f 828 832 827
f 826 836 828
f 826 824 837
f 826 837 836
f 834 836 837
f 825 834 837
f 825 837 824
f 814 822 838
f 839 838 835
f 839 814 838
f 840 839 835
f 840 835 818
f 817 840 818
f 835 821 818
f 838 833 835
f 831 833 838
f 831 838 822
f 841 807 813
f 841 813 839
f 842 841 839
f 842 839 840
f 811 842 840
f 811 840 816
f 840 817 816
f 814 839 813
f 843 800 807
f 843 807 844
f 845 844 842
f 845 843 844
f 846 845 842
f 846 842 810
f 802 846 810
f 842 811 810
f 844 841 842
f 807 841 844
f 804 799 843
f 847 804 843
f 847 843 845
f 848 847 845
f 848 845 803
f 795 848 803
f 846 802 803
f 845 846 803
f 800 843 799
f 797 796 849
f 850 797 849
f 850 849 848
f 851 850 848
f 789 848 792
f 789 851 848
f 848 795 792
f 849 847 848
f 804 847 849
f 804 849 796
f 791 790 852
f 853 791 852
f 853 852 851
f 854 853 851
f 783 851 786
f 783 854 851
f 851 789 786
f 852 850 851
f 797 850 852
f 797 852 790
f 785 784 855
f 856 785 855
f 856 855 854
f 857 856 854
f 778 854 780
f 778 857 854
f 854 783 780
f 855 853 854
f 791 853 855
f 791 855 784
f 771 779 858
f 859 771 858
f 859 858 857
f 860 859 857
f 774 857 775
f 774 860 857
f 857 778 775
f 858 856 857
f 785 856 858
f 785 858 779
f 861 768 771
f 861 771 862
f 863 862 860
f 863 861 862
f 767 860 772
f 767 863 860
f 860 774 772
f 862 859 860
f 771 859 862
f 763 768 864
f 865 763 864
f 865 864 866
f 761 865 866
f 761 866 764
f 863 764 866
f 863 767 764
f 864 863 866
f 861 863 864
f 768 861 864
f 867 757 763
f 867 763 868
f 869 867 868
f 869 868 762
f 756 869 762
f 865 762 868
f 865 761 762
f 763 865 868
f 750 757 870
f 871 870 872
f 871 750 870
f 873 871 872
f 873 872 756
f 751 873 756
f 869 756 872
f 867 872 870
f 867 869 872
f 757 867 870
f 874 743 749
f 874 749 871
f 875 874 871
f 875 871 873
f 746 875 873
f 746 873 752
f 873 751 752
f 750 871 749
f 725 723 874
f 876 874 877
f 876 878 874
f 716 877 745
f 746 745 877
f 875 746 877
f 875 877 874
f 743 874 723
f 879 881 880
f 882 881 879
f 882 883 881
f 881 883 884
f 881 884 885
f 881 885 880
f 879 887 886
f 879 880 887
f 882 886 888
f 882 879 886
f 883 888 889
f 883 882 888
f 884 889 890
f 884 883 889
f 885 890 891
f 885 884 890
f 880 891 887
f 880 885 891
f 892 886 733
f 893 888 892
f 892 888 886
f 886 887 733
f 887 734 733
f 894 889 893
f 893 889 888
f 887 891 734
f 889 741 890
f 894 741 889
f 891 738 734
f 890 738 891
f 890 741 738
f 733 727 892
f 731 741 894
f 895 897 896
f 898 728 897
f 898 895 892
f 898 727 728
f 898 897 895
f 898 892 727
f 899 893 892
f 899 892 895
f 899 895 896
f 900 896 901
f 900 893 899
f 900 899 896
f 902 901 730
f 902 894 893
f 902 900 901
f 902 893 900
f 902 731 894
f 902 730 731
f 903 897 728
f 717 897 903
f 717 896 897
f 904 903 728
f 715 901 896
f 715 896 717
f 904 728 726
f 718 901 715
f 905 904 726
f 736 724 905
f 736 905 726
f 730 718 720
f 730 901 718
f 737 724 736
f 730 720 722
f 729 730 722
f 737 722 724
f 729 722 737
f 905 724 725
f 905 725 874
f 904 874 878
f 904 905 874
f 903 878 876
f 903 904 878
f 717 876 877
f 717 903 876
f 717 877 716

