v -0.08913314 -0.07065620 0.04532013
v -0.08912329 -0.07077868 0.04525013
v -0.15350054 -0.07065764 0.03627373
v -0.15349069 -0.07078012 0.03620373
v -0.08856436 -0.05540487 0.04127071
v -0.08854731 -0.05533418 0.04114942
v -0.08800734 -0.05542429 0.04135426
v -0.08745461 -0.05548247 0.04144770
v -0.08690899 -0.05557910 0.04155055
v -0.08637325 -0.05571371 0.04166229
v -0.08528442 -0.05603195 0.04179694
v -0.08585012 -0.05588561 0.04178236
v -0.08534227 -0.05609392 0.04191013
v -0.08485229 -0.05633757 0.04204497
v -0.08438269 -0.05661532 0.04218618
v -0.08393583 -0.05692577 0.04233304
v -0.08303337 -0.05759585 0.04253676
v -0.08351402 -0.05726733 0.04248480
v -0.08311938 -0.05763825 0.04264070
v -0.08275394 -0.05803666 0.04279993
v -0.08201924 -0.05888132 0.04302734
v -0.08241956 -0.05846050 0.04296169
v -0.08151394 -0.05984833 0.04336018
v -0.08185062 -0.05937579 0.04328947
v -0.08161896 -0.05986256 0.04345382
v -0.08142414 -0.06036547 0.04361737
v -0.08103783 -0.06141477 0.04385122
v -0.08126715 -0.06088196 0.04377928
v -0.08114880 -0.06140941 0.04393872
v -0.08106969 -0.06194511 0.04409488
v -0.08091812 -0.06305625 0.04431248
v -0.08103022 -0.06248635 0.04424698
v -0.08103058 -0.06303035 0.04439421
v -0.08107080 -0.06357437 0.04453586
v -0.08115064 -0.06411560 0.04467118
v -0.08126970 -0.06465131 0.04479949
v -0.08151793 -0.06575491 0.04495885
v -0.08142740 -0.06517876 0.04492013
v -0.08162291 -0.06569526 0.04503250
v -0.08185524 -0.06619819 0.04513602
v -0.08212320 -0.06668497 0.04523015
v -0.08266985 -0.06768406 0.04531928
v -0.08242544 -0.06715313 0.04531443
v -0.08276041 -0.06760028 0.04538842
v -0.08312640 -0.06802414 0.04545174
v -0.08352157 -0.06842256 0.04550407
v -0.08432126 -0.06923831 0.04550799
v -0.08394387 -0.06879351 0.04554515
v -0.08439116 -0.06913508 0.04557477
v -0.08486117 -0.06944554 0.04559277
v -0.08535150 -0.06972332 0.04559907
v -0.08633836 -0.07029172 0.04550971
v -0.08585966 -0.06996700 0.04559362
v -0.08638304 -0.07017533 0.04557646
v -0.08691899 -0.07034725 0.04554769
v -0.08746476 -0.07048188 0.04550743
v -0.08801761 -0.07057855 0.04545590
v -0.08857467 -0.07063675 0.04539336
v -0.15293176 -0.05540632 0.03222431
v -0.15291472 -0.05533563 0.03210302
v -0.15405756 -0.07063822 0.03619019
v -0.15461029 -0.07058005 0.03609675
v -0.15515591 -0.07048341 0.03599390
v -0.15569165 -0.07034880 0.03588216
v -0.15675360 -0.07008235 0.03555621
v -0.15621477 -0.07017690 0.03576209
v -0.15672262 -0.06996860 0.03563431
v -0.15721260 -0.06972494 0.03549948
v -0.15817785 -0.06923996 0.03512795
v -0.15768221 -0.06944718 0.03535827
v -0.15812907 -0.06913674 0.03521141
v -0.15855089 -0.06879518 0.03505964
v -0.15894553 -0.06842425 0.03490375
v -0.15971334 -0.06768579 0.03449134
v -0.15931097 -0.06802586 0.03474452
v -0.15964535 -0.06760201 0.03458276
v -0.15994696 -0.06715487 0.03441931
v -0.16021429 -0.06668673 0.03425498
v -0.16044594 -0.06619995 0.03409062
v -0.16064078 -0.06569704 0.03392708
v -0.16100018 -0.06469953 0.03350193
v -0.16079774 -0.06518055 0.03376517
v -0.16091609 -0.06465311 0.03360573
v -0.16099520 -0.06411740 0.03344956
v -0.16103467 -0.06357616 0.03329748
v -0.16107918 -0.06250716 0.03289723
v -0.16087775 -0.06141657 0.03263026
v -0.16091426 -0.06194691 0.03287327
v -0.16079520 -0.06141120 0.03274496
v -0.16063750 -0.06088375 0.03262432
v -0.16044199 -0.06036725 0.03251195
v -0.16020967 -0.05986432 0.03240843
v -0.15994170 -0.05937754 0.03231430
v -0.15936816 -0.05843025 0.03203387
v -0.15963946 -0.05890938 0.03223002
v -0.15930448 -0.05846223 0.03215603
v -0.15893850 -0.05803837 0.03209271
v -0.15854333 -0.05763995 0.03204037
v -0.15812103 -0.05726900 0.03199929
v -0.15724079 -0.05656160 0.03182693
v -0.15767375 -0.05692743 0.03196968
v -0.15720373 -0.05661696 0.03195168
v -0.15671340 -0.05633918 0.03194538
v -0.15620525 -0.05609551 0.03195083
v -0.15515693 -0.05564848 0.03187259
v -0.15568186 -0.05588718 0.03196798
v -0.15514591 -0.05571526 0.03199676
v -0.15460014 -0.05558062 0.03203702
v -0.15404731 -0.05548396 0.03208855
v -0.15349023 -0.05542576 0.03215108
v -0.15340936 -0.07093680 0.03562506
v -0.08904196 -0.07093536 0.04467146
v -0.08733318 -0.07086266 0.04489195
v -0.08625703 -0.07044840 0.04493104
v -0.08568537 -0.07033408 0.04498043
v -0.08378696 -0.06904908 0.04489933
v -0.08258852 -0.06784074 0.04474061
v -0.08184953 -0.06696475 0.04460729
v -0.08113522 -0.06541847 0.04428903
v -0.08076913 -0.06377140 0.04389453
v -0.08087638 -0.06211394 0.04343069
v -0.08097071 -0.06100739 0.04311783
v -0.08193791 -0.05903799 0.04244867
v -0.08335167 -0.05737690 0.04180022
v -0.08520308 -0.05618863 0.04121827
v -0.08734218 -0.05556943 0.04074997
v -0.08846598 -0.05549086 0.04057075
v -0.15283339 -0.05549230 0.03152435
v -0.15454218 -0.05556500 0.03130386
v -0.15561832 -0.05597926 0.03126477
v -0.15763542 -0.05703268 0.03126648
v -0.15891621 -0.05815769 0.03139108
v -0.15993211 -0.05951383 0.03161547
v -0.16043875 -0.06051607 0.03181563
v -0.16099785 -0.06266383 0.03231856
v -0.16110735 -0.06432885 0.03275398
v -0.16044275 -0.06642266 0.03341430
v -0.15937831 -0.06834126 0.03408338
v -0.15816498 -0.06948169 0.03456268
v -0.15716845 -0.06999229 0.03484099
v -0.15562823 -0.07062405 0.03522852
v -0.15105900 -0.05686042 0.01151015
v -0.15001735 -0.05625338 0.01148759
v -0.15103810 -0.05629322 0.01135954
v -0.12681702 -0.05682829 0.01490404
v -0.12687488 -0.05625286 0.01474011
v -0.10945562 -0.05651468 0.01821342
v -0.10993797 -0.05590679 0.01848380
v -0.11087795 -0.05635843 0.01861195
v -0.11086363 -0.05597421 0.01850993
v -0.10879239 -0.05625245 0.01728148
v -0.10889318 -0.05682788 0.01742312
v -0.12522252 -0.05597453 0.01649189
v -0.12536247 -0.05635983 0.01657181
v -0.12648520 -0.05598433 0.01584455
v -0.12659825 -0.05656513 0.01564790
v -0.12614691 -0.05642456 0.01619607
v -0.08853994 -0.08039893 0.02666572
v -0.08604520 -0.08038870 0.02701358
v -0.08639947 -0.07982333 0.02681071
v -0.08503579 -0.08030840 0.02713371
v -0.08361858 -0.07950159 0.02711445
v -0.07847673 -0.05918596 0.02233659
v -0.08077556 -0.05724285 0.02148738
v -0.08211773 -0.05732858 0.02132195
v -0.07988171 -0.05767017 0.02172871
v -0.07419091 -0.06730410 0.02513698
v -0.07384784 -0.06612083 0.02486482
v -0.07466602 -0.06464264 0.02434960
v -0.07403672 -0.06516062 0.02457829
v -0.07371539 -0.06807879 0.02541356
v -0.08403345 -0.08014835 0.02723125
v -0.08564993 -0.05625194 0.02053399
v -0.08554187 -0.05682736 0.02070498
v -0.08218084 -0.05674091 0.02115397
v -0.08315161 -0.05650223 0.02095290
v -0.08346341 -0.05700863 0.02104619
v -0.07577367 -0.06218723 0.02352910
v -0.07531700 -0.06200627 0.02354429
v -0.07614180 -0.06079748 0.02310108
v -0.07698347 -0.06056421 0.02291963
v -0.07447004 -0.06376174 0.02413864
v -0.07494069 -0.07200755 0.02630508
v -0.07443265 -0.07196215 0.02636419
v -0.07426707 -0.06934606 0.02567914
v -0.07806723 -0.07657506 0.02710232
v -0.07704024 -0.07623155 0.02715365
v -0.07708700 -0.07556988 0.02696793
v -0.11440583 -0.07982396 0.02287461
v -0.11442731 -0.08039953 0.02302743
v -0.08414199 -0.05634223 0.02077038
v -0.07711561 -0.05970132 0.02266743
v -0.07862033 -0.05844308 0.02211526
v -0.07377271 -0.06906350 0.02567212
v -0.07401224 -0.07052931 0.02603533
v -0.07551268 -0.07326999 0.02656649
v -0.07526329 -0.07378436 0.02674081
v -0.07853294 -0.07760903 0.02731681
v -0.08255780 -0.07976124 0.02733384
v -0.08226795 -0.07910369 0.02719655
v -0.07607678 -0.07505833 0.02697141
v -0.08034520 -0.07822548 0.02722901
v -0.07935741 -0.07820729 0.02736292
v -0.08067644 -0.07898027 0.02738681
v -0.10873412 -0.05637721 0.01700980
v -0.10889711 -0.05733416 0.01660195
v -0.10908978 -0.05762756 0.01618642
v -0.10880486 -0.05686218 0.01629862
v -0.10939337 -0.05746729 0.01552292
v -0.10982797 -0.05809094 0.01557907
v -0.11042733 -0.05818458 0.01540593
v -0.11041228 -0.05778098 0.01529877
v -0.12478622 -0.05818490 0.01338789
v -0.12476469 -0.05772061 0.01323462
v -0.12528473 -0.05812496 0.01337432
v -0.12609676 -0.05776728 0.01363242
v -0.12636122 -0.05709497 0.01354144
v -0.12672356 -0.05668641 0.01402105
v -0.12677670 -0.05690598 0.01461709
v -0.12685601 -0.05637762 0.01446289
v -0.07372198 -0.06789593 0.02504948
v -0.07378237 -0.06915740 0.02538254
v -0.07413457 -0.06806204 0.02503647
v -0.08520057 -0.08036180 0.02681136
v -0.08635914 -0.07990102 0.02652377
v -0.08426715 -0.07971966 0.02676869
v -0.08222762 -0.07918138 0.02690960
v -0.08209080 -0.07964187 0.02705351
v -0.08359586 -0.08009192 0.02696383
v -0.07419880 -0.07129196 0.02590195
v -0.07490036 -0.07208525 0.02601813
v -0.07650630 -0.06115809 0.02283384
v -0.07588950 -0.06123830 0.02294225
v -0.07521184 -0.06229286 0.02332302
v -0.08550154 -0.05690505 0.02041804
v -0.08496225 -0.05639341 0.02035531
v -0.08373721 -0.05651716 0.02056099
v -0.08342308 -0.05708632 0.02075924
v -0.15098560 -0.07990247 0.01744096
v -0.15087579 -0.08043084 0.01759944
v -0.15201852 -0.08038042 0.01744692
v -0.07399791 -0.06544716 0.02434768
v -0.07430656 -0.06603444 0.02446331
v -0.07462569 -0.06472033 0.02406265
v -0.07433634 -0.06424164 0.02397371
v -0.07729680 -0.05963193 0.02230952
v -0.07790989 -0.05969301 0.02223989
v -0.08092897 -0.07863218 0.02694343
v -0.08058748 -0.07898059 0.02708576
v -0.07581398 -0.07395394 0.02639568
v -0.07548995 -0.07422777 0.02651536
v -0.07679488 -0.07601134 0.02681487
v -0.07462039 -0.07250008 0.02616980
v -0.07826248 -0.05881248 0.02195193
v -0.10885285 -0.05690558 0.01713617
v -0.08650836 -0.08042939 0.02664585
v -0.07918752 -0.07814078 0.02705514
v -0.07855953 -0.07711271 0.02686505
v -0.07379132 -0.06669406 0.02471432
v -0.08186657 -0.05695141 0.02094148
v -0.08016600 -0.05817365 0.02151142
v -0.07930759 -0.05810478 0.02161342
v -0.15012799 -0.05690650 0.01133523
v -0.15092084 -0.05641323 0.01109024
v -0.14997879 -0.05637814 0.01121314
v -0.15203592 -0.05622998 0.01399477
v -0.15232360 -0.05554433 0.01472891
v -0.15242513 -0.05598836 0.01498470
v -0.15307736 -0.05547167 0.01552967
v -0.15381148 -0.05593308 0.01598302
v -0.15379685 -0.05554064 0.01587882
v -0.15458341 -0.05572576 0.01600402
v -0.15174949 -0.05618233 0.01195675
v -0.15177035 -0.05674158 0.01210524
v -0.15209109 -0.08033590 0.01775774
v -0.15191440 -0.07979091 0.01759849
v -0.15246035 -0.07966089 0.01781787
v -0.15264180 -0.08010877 0.01830953
v -0.14892839 -0.08040030 0.01817853
v -0.12304103 -0.08039973 0.02181683
v -0.12301956 -0.07982416 0.02166401
v -0.12297175 -0.07869192 0.02240966
v -0.12310414 -0.07869193 0.02239106
v -0.12348738 -0.07746124 0.02697235
v -0.12368543 -0.07736308 0.02731423
v -0.12349474 -0.07725292 0.02775593
v -0.12353147 -0.07705440 0.02849846
v -0.12303384 -0.07687216 0.02925470
v -0.12323530 -0.07686743 0.02924423
v -0.12258382 -0.07671481 0.02991056
v -0.12223144 -0.07656971 0.03050656
v -0.12168228 -0.07653785 0.03070367
v -0.12156147 -0.07647013 0.03097567
v -0.12096494 -0.07646607 0.03107477
v -0.12041567 -0.07639334 0.03142585
v -0.11937983 -0.07644522 0.03137594
v -0.11918762 -0.07640881 0.03154007
v -0.11780400 -0.07658800 0.03105953
v -0.11798075 -0.07651525 0.03130871
v -0.11657889 -0.07678215 0.03050036
v -0.11709793 -0.07671469 0.03068157
v -0.11598814 -0.07705377 0.02956035
v -0.11602681 -0.07695825 0.02991467
v -0.11544433 -0.07725750 0.02886941
v -0.11541945 -0.07746106 0.02810624
v -0.11524105 -0.07746947 0.02809962
v -0.11465738 -0.07869174 0.02357819
v -0.11452499 -0.07869173 0.02359680
v -0.11455380 -0.07946444 0.02380196
v -0.11468619 -0.07946444 0.02378336
v -0.12313296 -0.07946464 0.02259622
v -0.12300057 -0.07946463 0.02261483
v -0.14863555 -0.07763843 0.02862172
v -0.14825118 -0.07731429 0.02931160
v -0.14703083 -0.07739615 0.02975960
v -0.14893134 -0.07781205 0.02781678
v -0.14864127 -0.07751542 0.02883741
v -0.14704137 -0.07734813 0.02983456
v -0.14704558 -0.07721242 0.02986461
v -0.09357112 -0.07721122 0.03738008
v -0.09356697 -0.07734627 0.03735058
v -0.09355636 -0.07739495 0.03727508
v -0.09207669 -0.07738596 0.03708621
v -0.09129559 -0.07782797 0.03596173
v -0.09152621 -0.07704133 0.03662205
v -0.09116742 -0.07742565 0.03604696
v -0.14703043 -0.07679350 0.02975679
v -0.14785071 -0.07666699 0.02950349
v -0.09355525 -0.07670970 0.03726705
v -0.09296137 -0.07682798 0.03728321
v -0.09046469 -0.07813698 0.03406753
v -0.08910109 -0.07946537 0.02981596
v -0.12258253 -0.07808156 0.03061214
v -0.12328933 -0.07831626 0.02962891
v -0.12358550 -0.07850322 0.02888315
v -0.12371107 -0.07891849 0.02730149
v -0.11663292 -0.07823098 0.03088505
v -0.11765499 -0.07801843 0.03154202
v -0.12046970 -0.07784216 0.03181053
v -0.12196211 -0.07796416 0.03114143
v -0.11529507 -0.07891830 0.02848430
v -0.11585177 -0.07850305 0.02997007
v -0.11842831 -0.07791889 0.03180829
v -0.11965381 -0.07784215 0.03192520
v -0.14918312 -0.07820728 0.02541269
v -0.14912675 -0.07732240 0.02764773
v -0.14919648 -0.07988135 0.01998625
v -0.11087379 -0.05585114 0.01858221
v -0.12523268 -0.05585146 0.01656416
v -0.16210626 -0.07195751 0.01934688
v -0.16223019 -0.07239234 0.01944719
v -0.16152219 -0.07364772 0.01988660
v -0.16096322 -0.07443058 0.02017712
v -0.15979822 -0.07526246 0.02056610
v -0.16033895 -0.07516407 0.02046346
v -0.16305920 -0.06803362 0.01815053
v -0.16335209 -0.06774033 0.01802996
v -0.16322377 -0.06918478 0.01843908
v -0.16276383 -0.07004336 0.01873619
v -0.15928929 -0.07616116 0.02088096
v -0.15822054 -0.07654903 0.02113619
v -0.16277239 -0.07105648 0.01900930
v -0.16253777 -0.06398191 0.01712680
v -0.16333619 -0.06676996 0.01776946
v -0.15968777 -0.05925164 0.01624662
v -0.15936975 -0.05851439 0.01609171
v -0.16072659 -0.05998020 0.01629788
v -0.16101862 -0.06087472 0.01649903
v -0.15809172 -0.05787332 0.01609776
v -0.15779448 -0.05727440 0.01597738
v -0.15860693 -0.05786395 0.01602281
v -0.15563914 -0.05649016 0.01606797
v -0.15649465 -0.05651269 0.01595383
v -0.15770328 -0.07727538 0.02140555
v -0.15541108 -0.07792249 0.02189755
v -0.15594311 -0.07811686 0.02188078
v -0.16264747 -0.06342856 0.01696156
v -0.16316049 -0.06531946 0.01740143
v -0.16157894 -0.06120454 0.01650958
v -0.16227522 -0.06251577 0.01676674
v -0.15422006 -0.07874842 0.02187143
v -0.15442666 -0.07826135 0.02184083
v -0.15527038 -0.07835609 0.02201863
v -0.15290561 -0.07954998 0.02018653
v -0.15299487 -0.07891088 0.02049035
v -0.15348141 -0.07908476 0.02137430
v -0.15367541 -0.07854352 0.02144938
v -0.15153876 -0.05627305 0.01155463
v -0.14706627 -0.07628038 0.03001167
v -0.14897799 -0.07663904 0.02893057
v -0.14906843 -0.07686390 0.02847423
v -0.14703190 -0.07659547 0.02976721
v -0.09356247 -0.07649741 0.03731838
v -0.09359181 -0.07627918 0.03752714
v -0.09265570 -0.07640546 0.03742007
v -0.09138912 -0.07666506 0.03696157
v -0.09085224 -0.07717570 0.03593612
v -0.09048439 -0.07735334 0.03545442
v -0.08955204 -0.07874823 0.03191192
v -0.14950696 -0.07849115 0.02419514
v -0.07872173 -0.07041023 0.03976431
v -0.07767521 -0.06965466 0.03840886
v -0.07778270 -0.07087524 0.03742253
v -0.07723919 -0.06715797 0.03909211
v -0.07652907 -0.06574836 0.03751231
v -0.07629082 -0.06699359 0.03658124
v -0.07575960 -0.06548713 0.03494292
v -0.07686770 -0.06409128 0.03831400
v -0.07659769 -0.06306081 0.03677500
v -0.07677019 -0.06218383 0.03651331
v -0.07799748 -0.06105688 0.03966314
v -0.07701603 -0.06132609 0.03624652
v -0.07737405 -0.05991759 0.03451313
v -0.07698007 -0.06073419 0.03478960
v -0.07869279 -0.05819894 0.03516416
v -0.07931467 -0.05767329 0.03623239
v -0.07895239 -0.05770708 0.03369279
v -0.07990663 -0.05688960 0.03463905
v -0.08737665 -0.05404745 0.03281961
v -0.08720195 -0.05417360 0.03157661
v -0.08607639 -0.05435874 0.03047984
v -0.08554530 -0.05419393 0.03311667
v -0.08466877 -0.05455715 0.03073140
v -0.08487750 -0.05426467 0.03452764
v -0.08397719 -0.05462813 0.03215292
v -0.08334549 -0.05478244 0.03358519
v -0.08242543 -0.05525641 0.03123602
v -0.08210848 -0.05534274 0.03391076
v -0.08162361 -0.05565839 0.03536232
v -0.08077667 -0.05613026 0.03170436
v -0.08059434 -0.05631454 0.03438669
v -0.07965430 -0.05695442 0.03208525
v -0.07618067 -0.06228574 0.03401694
v -0.07578330 -0.06455897 0.03468828
v -0.07616127 -0.06608281 0.03635284
v -0.07649575 -0.06789375 0.03679615
v -0.07729558 -0.06882184 0.03823674
v -0.07628971 -0.06997105 0.03477433
v -0.07888541 -0.07239389 0.03767872
v -0.07952591 -0.07308583 0.03777605
v -0.08022027 -0.07372659 0.03785194
v -0.08117922 -0.07306509 0.04013773
v -0.08162962 -0.07409947 0.03905653
v -0.08175179 -0.07483793 0.03793759
v -0.08242360 -0.07458582 0.03907662
v -0.08325327 -0.07500886 0.03907455
v -0.08499742 -0.07565422 0.03900415
v -0.08411312 -0.07536579 0.03905034
v -0.08503268 -0.07677908 0.03669694
v -0.08635683 -0.07595440 0.03889436
v -0.08597331 -0.07696749 0.03661574
v -0.08727627 -0.07606424 0.03879487
v -0.08692379 -0.07708105 0.03651290
v -0.08835793 -0.07556296 0.03980507
v -0.08755191 -0.07805882 0.03407047
v -0.08343375 -0.07682838 0.03562689
v -0.08253272 -0.07645436 0.03565226
v -0.07668753 -0.07084375 0.03495470
v -0.07573918 -0.06301515 0.03296836
v -0.07817473 -0.05892450 0.03543342
v -0.07719075 -0.05945855 0.03049061
v -0.07777255 -0.05871297 0.03020697
v -0.08702756 -0.05432083 0.03033589
v -0.08570451 -0.05471731 0.02801030
v -0.08493451 -0.05464262 0.02940907
v -0.08332098 -0.05515189 0.02846296
v -0.08240627 -0.05545764 0.02867431
v -0.08129906 -0.05605764 0.02767933
v -0.07948960 -0.05708192 0.02952403
v -0.07667501 -0.06025012 0.03077742
v -0.07632951 -0.06124366 0.03240576
v -0.07514853 -0.06517803 0.03232622
v -0.07514202 -0.06660682 0.03271398
v -0.07523731 -0.06755869 0.03295831
v -0.07552814 -0.06896967 0.03329947
v -0.07686865 -0.07207527 0.03395192
v -0.07741066 -0.07288790 0.03409576
v -0.07895061 -0.07396043 0.03548048
v -0.08043109 -0.07522278 0.03561419
v -0.08100295 -0.07620290 0.03448842
v -0.08322009 -0.07727942 0.03446827
v -0.08657354 -0.07801990 0.03419743
v -0.08511479 -0.07781636 0.03434735
v -0.08186433 -0.07668535 0.03449798
v -0.07808842 -0.07442442 0.03310347
v -0.07590812 -0.07115559 0.03252486
v -0.07525247 -0.06423409 0.03205603
v -0.07841653 -0.05801834 0.02992838
v -0.08003325 -0.05676256 0.02804810
v -0.08523367 -0.07876119 0.03195845
v -0.08425172 -0.07856451 0.03204321
v -0.08328658 -0.07829100 0.03210481
v -0.07931960 -0.07616974 0.03208802
v -0.07855663 -0.07551919 0.03201912
v -0.07689876 -0.07365573 0.03174759
v -0.07512069 -0.07013828 0.03104513
v -0.07486393 -0.06919186 0.03082497
v -0.07483743 -0.06645279 0.03140204
v -0.07463887 -0.06532580 0.02980985
v -0.07527351 -0.06313735 0.03044308
v -0.07549600 -0.06207600 0.02880948
v -0.07667490 -0.05998565 0.02807781
v -0.07901496 -0.05756640 0.02709390
v -0.08244587 -0.05574801 0.02611935
v -0.08534128 -0.05515940 0.02555303
v -0.08650684 -0.05488868 0.02663088
v -0.08670983 -0.05464433 0.02807516
v -0.08622590 -0.07887974 0.03185109
v -0.08505477 -0.07916043 0.03077520
v -0.08214778 -0.07833662 0.03096072
v -0.08034740 -0.07741862 0.03096521
v -0.07950678 -0.07685743 0.03093141
v -0.07728927 -0.07481108 0.03068903
v -0.07586116 -0.07275970 0.03033433
v -0.07521521 -0.07141523 0.03006109
v -0.07434423 -0.06758966 0.02914772
v -0.07464471 -0.06420705 0.02818963
v -0.07507446 -0.06281970 0.02775360
v -0.07591443 -0.06107870 0.02716416
v -0.07736071 -0.05914167 0.02643642
v -0.07805054 -0.05845807 0.02615438
v -0.08022343 -0.05675465 0.02670427
v -0.08132798 -0.05635455 0.02512420
v -0.08387183 -0.05536652 0.02581564
v -0.08633423 -0.05511982 0.02540276
v -0.08498715 -0.05568453 0.02311083
v -0.07673243 -0.05987988 0.02672460
v -0.07545733 -0.06193119 0.02745921
v -0.07423349 -0.06547593 0.02727332
v -0.07452108 -0.06904948 0.02951811
v -0.07451712 -0.07034819 0.02855265
v -0.07616659 -0.07396668 0.02930054
v -0.07812963 -0.07626296 0.02964636
v -0.08688786 -0.07969963 0.02934589
v -0.08601453 -0.05560541 0.02312808
v -0.08588126 -0.07965959 0.02947653
v -0.08388588 -0.07934098 0.02967071
v -0.07707807 -0.07517092 0.02949848
v -0.07392305 -0.06677032 0.02634897
v -0.07549791 -0.06168623 0.02475108
v -0.07748885 -0.05908081 0.02508428
v -0.07821097 -0.05842331 0.02480476
v -0.07939523 -0.05755371 0.02440287
v -0.08049949 -0.05713220 0.02281509
v -0.08350191 -0.05589387 0.02337626
v -0.08755162 -0.05394243 0.03406454
v -0.15207691 -0.05386692 0.02614157
v -0.15174405 -0.05404890 0.02377321
v -0.15038194 -0.05560685 0.01408168
v -0.15052959 -0.05537324 0.01513227
v -0.15084448 -0.05492845 0.01737269
v -0.15104738 -0.05467988 0.01881627
v -0.15122096 -0.05449058 0.02005139
v -0.15154512 -0.05419423 0.02235774
v -0.15136477 -0.05568601 0.01378191
v -0.15235528 -0.05497848 0.01740024
v -0.15348449 -0.05492234 0.01853938
v -0.15583861 -0.05563955 0.01840270
v -0.16025573 -0.05871482 0.01861452
v -0.16089314 -0.05946044 0.01872681
v -0.16146792 -0.06025203 0.01886035
v -0.16278055 -0.06284870 0.01937892
v -0.16307113 -0.06376902 0.01958726
v -0.16316392 -0.06943435 0.02110814
v -0.16290329 -0.07034370 0.02139098
v -0.15258217 -0.07888123 0.02252517
v -0.15869547 -0.05631629 0.02341010
v -0.15792134 -0.05579949 0.02337898
v -0.15909773 -0.05644175 0.02468549
v -0.16010828 -0.05752095 0.02353770
v -0.16264758 -0.06132801 0.02421158
v -0.16271622 -0.06127848 0.02665294
v -0.16295739 -0.06218576 0.02440028
v -0.16319530 -0.06306274 0.02460429
v -0.16349833 -0.06608476 0.02407821
v -0.16341408 -0.06440149 0.02493601
v -0.16340925 -0.06541556 0.02650921
v -0.16340385 -0.06664517 0.02554494
v -0.16313203 -0.06755228 0.02712670
v -0.16329892 -0.06789570 0.02459656
v -0.16295150 -0.06921292 0.02500203
v -0.16273555 -0.06884029 0.02753116
v -0.15539943 -0.07524217 0.03029558
v -0.15394372 -0.07601994 0.02941281
v -0.15472880 -0.07638847 0.02810054
v -0.15259925 -0.07599338 0.02986171
v -0.15287542 -0.07661180 0.02842150
v -0.15272532 -0.07556441 0.03075867
v -0.15528080 -0.05476767 0.02216903
v -0.15494573 -0.05449563 0.02344418
v -0.15634961 -0.05483132 0.02463570
v -0.15640365 -0.05563498 0.01963282
v -0.15710884 -0.05534442 0.02336997
v -0.16102168 -0.05876457 0.02244433
v -0.16073757 -0.05820078 0.02363332
v -0.16155522 -0.05909661 0.02505891
v -0.16181219 -0.06015683 0.02140508
v -0.16226794 -0.06049520 0.02403945
v -0.16247931 -0.06141314 0.02165147
v -0.16283597 -0.06228769 0.02183813
v -0.16340290 -0.06456093 0.02237394
v -0.16349584 -0.06548910 0.02261219
v -0.16242461 -0.07006186 0.02660765
v -0.16200101 -0.07168750 0.02450052
v -0.16176842 -0.07122535 0.02701490
v -0.16096227 -0.07183355 0.02859083
v -0.16122228 -0.07282878 0.02491898
v -0.16003652 -0.07326026 0.02780928
v -0.15930949 -0.07431369 0.02689497
v -0.15865333 -0.07384845 0.02946089
v -0.15801647 -0.07601277 0.02492351
v -0.15783466 -0.07480711 0.02853756
v -0.15684733 -0.07618488 0.02644256
v -0.15659766 -0.07536741 0.02886313
v -0.15596995 -0.07651869 0.02665625
v -0.15266690 -0.05408561 0.02365345
v -0.15234898 -0.05436023 0.02116568
v -0.15759633 -0.05653580 0.01839832
v -0.15850528 -0.05686656 0.01967089
v -0.15927087 -0.05746919 0.01972645
v -0.15998575 -0.05812890 0.01980459
v -0.16331647 -0.06440123 0.02103473
v -0.16319719 -0.06907418 0.02231671
v -0.16025054 -0.07429898 0.02414550
v -0.15918991 -0.07522455 0.02454517
v -0.15504211 -0.05510072 0.01967953
v -0.16224883 -0.06124559 0.02033038
v -0.16350257 -0.06675237 0.02164515
v -0.16340870 -0.06803402 0.02069459
v -0.16237053 -0.07165629 0.02182125
v -0.16146213 -0.07287544 0.02358978
v -0.16088706 -0.07361238 0.02387014
v -0.15630700 -0.07683001 0.02538505
v -0.15494110 -0.07725578 0.02569230
v -0.15344442 -0.05432421 0.02230706
v -0.15362985 -0.05473023 0.01977771
v -0.15413837 -0.07696903 0.02703561
v -0.15322921 -0.07841222 0.02362220
v -0.15175477 -0.07850051 0.02385334
v -0.15125526 -0.07970107 0.02029949
v -0.15208282 -0.07760020 0.02618729
v -0.08492075 -0.05422926 0.03800084
v -0.08408079 -0.05453143 0.03820071
v -0.08221520 -0.05542888 0.03754654
v -0.07968100 -0.05807917 0.03977967
v -0.07922208 -0.05882433 0.04004592
v -0.07864446 -0.05938675 0.03912001
v -0.07801320 -0.06344649 0.04146730
v -0.07815792 -0.06521022 0.04192450
v -0.07976641 -0.07012393 0.04186947
v -0.08069187 -0.07039841 0.04297308
v -0.08132815 -0.07104985 0.04306003
v -0.08564120 -0.07354759 0.04313011
v -0.08587596 -0.07419305 0.04211250
v -0.08697225 -0.07386250 0.04302830
v -0.08645859 -0.05394318 0.04116099
v -0.08850038 -0.05372593 0.04081519
v -0.08730337 -0.05377020 0.03869715
v -0.08255240 -0.05581652 0.04221721
v -0.08377587 -0.05497273 0.04181679
v -0.08317380 -0.05505483 0.03962537
v -0.08191027 -0.05639612 0.04246439
v -0.08176577 -0.05604157 0.04009043
v -0.07931467 -0.06216478 0.04439109
v -0.07989898 -0.05947114 0.04357965
v -0.07879083 -0.06063421 0.04175204
v -0.08094943 -0.06797969 0.04573574
v -0.08009033 -0.06642954 0.04543678
v -0.07997289 -0.06853689 0.04372559
v -0.08584159 -0.07175442 0.04607018
v -0.08331403 -0.07041665 0.04606322
v -0.08381133 -0.07214951 0.04416423
v -0.07972043 -0.06544163 0.04522129
v -0.07901219 -0.06656991 0.04332805
v -0.08832780 -0.07400676 0.04287683
v -0.08892002 -0.07347190 0.04380425
v -0.08919457 -0.07234006 0.04575748
v -0.08834212 -0.05372111 0.03968919
v -0.08850001 -0.07506205 0.04081594
v -0.08878108 -0.07401641 0.04281574
v -0.08802567 -0.05376058 0.03743755
v -0.08694232 -0.05384430 0.03645311
v -0.08786754 -0.05380485 0.03631239
v -0.08836160 -0.07230462 0.04586496
v -0.08669992 -0.07201945 0.04602130
v -0.08501972 -0.07272053 0.04414900
v -0.08368777 -0.07337460 0.04219845
v -0.08286759 -0.07292221 0.04219124
v -0.08304957 -0.07168686 0.04414603
v -0.08171606 -0.07212003 0.04213589
v -0.08265689 -0.06989474 0.04601427
v -0.08148428 -0.06869338 0.04585380
v -0.07984889 -0.06933001 0.04280229
v -0.07857905 -0.06814419 0.04150032
v -0.07934429 -0.06737901 0.04350043
v -0.07834768 -0.06608035 0.04213342
v -0.07937942 -0.06390078 0.04485202
v -0.07804615 -0.06433003 0.04170189
v -0.07930546 -0.06303278 0.04462740
v -0.07766216 -0.06282178 0.04018812
v -0.07771605 -0.06237456 0.04005946
v -0.07852300 -0.06188821 0.04212921
v -0.07813063 -0.06062842 0.03952842
v -0.07906257 -0.05982513 0.04149478
v -0.08041030 -0.05837927 0.04321216
v -0.08081251 -0.05772331 0.04297803
v -0.08049262 -0.05704600 0.03938586
v -0.08112350 -0.05623101 0.03791715
v -0.08519107 -0.05431141 0.04143883
v -0.08622832 -0.05391440 0.03773182
v -0.15239309 -0.05376203 0.02839115
v -0.15255129 -0.05373411 0.02951683
v -0.15286779 -0.05372737 0.03176879
v -0.15667710 -0.07340714 0.03310804
v -0.15746577 -0.07357638 0.03188364
v -0.15827297 -0.07315863 0.03165708
v -0.16149317 -0.06969927 0.03142722
v -0.16179699 -0.06974956 0.03023876
v -0.16242160 -0.06856023 0.02982896
v -0.16315436 -0.06389017 0.02962090
v -0.16301623 -0.06256821 0.02928239
v -0.16077870 -0.05772464 0.02828545
v -0.16017120 -0.05704780 0.02818758
v -0.15986663 -0.05684401 0.02701584
v -0.15553297 -0.05423085 0.02807678
v -0.15464945 -0.05400215 0.02813903
v -0.15375164 -0.05384870 0.02822367
v -0.15473115 -0.07227108 0.03652769
v -0.15356196 -0.07234150 0.03671108
v -0.15416794 -0.07343581 0.03462393
v -0.15950994 -0.07025091 0.03530906
v -0.15828647 -0.07109470 0.03570948
v -0.15902475 -0.07168857 0.03346824
v -0.16271186 -0.06433429 0.03325708
v -0.16216338 -0.06659629 0.03394662
v -0.16268048 -0.06657179 0.03156904
v -0.16135480 -0.05846116 0.03185764
v -0.16234191 -0.06062580 0.03230499
v -0.16212702 -0.05982700 0.02982064
v -0.15622076 -0.05431301 0.03145609
v -0.15874831 -0.05565078 0.03146306
v -0.15765998 -0.05505650 0.02915685
v -0.16255164 -0.06141850 0.03249013
v -0.16270280 -0.06126887 0.02897464
v -0.15316312 -0.05384579 0.02714623
v -0.15342526 -0.07291452 0.03573850
v -0.15314849 -0.07401785 0.03376934
v -0.15393369 -0.07450850 0.03263244
v -0.15300846 -0.07454794 0.03277316
v -0.15448539 -0.05386128 0.03157770
v -0.15645160 -0.05448548 0.02917208
v -0.15718825 -0.05497820 0.02688710
v -0.15800843 -0.05543059 0.02689431
v -0.15915589 -0.05613166 0.02808223
v -0.15940547 -0.05617270 0.03151201
v -0.15997903 -0.05670971 0.03157679
v -0.16132526 -0.05844841 0.02840460
v -0.16085382 -0.05772511 0.03172876
v -0.16187437 -0.05938862 0.02742261
v -0.16322733 -0.06372499 0.02840655
v -0.16268292 -0.06216665 0.03267425
v -0.16314776 -0.06477287 0.02986082
v -0.16276269 -0.06346913 0.03301569
v -0.16306221 -0.06564886 0.03011003
v -0.16287853 -0.06729591 0.02942242
v -0.16206478 -0.06816120 0.03208591
v -0.16183902 -0.06733215 0.03419144
v -0.16124985 -0.06834412 0.03454825
v -0.16068155 -0.07073243 0.03182103
v -0.16045079 -0.06935949 0.03493547
v -0.16041359 -0.07151057 0.03091000
v -0.16002686 -0.07088052 0.03310861
v -0.15903714 -0.07267254 0.03141806
v -0.15829749 -0.07215118 0.03369571
v -0.15687127 -0.07175601 0.03608744
v -0.15538695 -0.07377783 0.03338973
v -0.15560375 -0.07212425 0.03636529
v -0.08852030 -0.05383708 0.04095697
v -0.08526060 -0.05441378 0.04157126
v -0.08145604 -0.05709513 0.04283198
v -0.07963915 -0.06088323 0.04411298
v -0.08007072 -0.06594817 0.04542369
v -0.08189680 -0.06891382 0.04596999
v -0.08717694 -0.07195810 0.04605213
v -0.08920408 -0.07217219 0.04582518
v -0.07948941 -0.06343238 0.04482423
v -0.15288772 -0.05383852 0.03191056
v -0.15357149 -0.07217364 0.03677878
v -0.15800914 -0.07106588 0.03585514
v -0.16162066 -0.06753331 0.03438445
v -0.16245262 -0.06512748 0.03362276
v -0.16048242 -0.05743054 0.03181569
v -0.15779679 -0.05515921 0.03157818
v -0.08083607 -0.06300446 0.04451909
v -0.08108155 -0.06466852 0.04493514
v -0.16125609 -0.06356474 0.03336781
v -0.16101024 -0.06134219 0.03280060
v -0.08195775 -0.06675628 0.04537726
v -0.08298764 -0.06813107 0.04560474
v -0.15982376 -0.05877383 0.03227197
v -0.15869848 -0.05747063 0.03207728
v -0.16040912 -0.05975417 0.03245512
v -0.15870623 -0.06892258 0.03517685
v -0.16013944 -0.06723864 0.03451948
v -0.08087622 -0.06189035 0.04421180
v -0.08144009 -0.05975239 0.04355368
v -0.15629821 -0.05588511 0.03198535
v -0.15465039 -0.05535653 0.03207383
v -0.15732324 -0.05642043 0.03198622
v -0.08688110 -0.07051597 0.04570324
v -0.08915415 -0.07083313 0.04546964
v -0.08476855 -0.06959029 0.04574953
v -0.15293765 -0.05517758 0.03226610
v -0.16085170 -0.06574203 0.03401416
v -0.15781446 -0.06959192 0.03548342
v -0.15630798 -0.07034105 0.03589798
v -0.15352155 -0.07083458 0.03642324
v -0.15522096 -0.07065571 0.03613596
v -0.08260527 -0.05787792 0.04288240
v -0.08526245 -0.05588351 0.04196894
v -0.08381860 -0.05673749 0.04240309
v -0.08687083 -0.05535500 0.04159978
v -0.08857024 -0.05517614 0.04131250
v -0.08846202 -0.05538461 0.04054254
v -0.15282942 -0.05538606 0.03149613
v -0.15341333 -0.07104305 0.03565327
v -0.15566273 -0.07072599 0.03525127
v -0.15722413 -0.07008554 0.03485842
v -0.16003123 -0.06744711 0.03374951
v -0.16090465 -0.06542027 0.03307798
v -0.16110621 -0.06265626 0.03230128
v -0.16090201 -0.06155066 0.03203063
v -0.16002582 -0.05946292 0.03158851
v -0.15899593 -0.05808812 0.03136103
v -0.15721503 -0.05662890 0.03121625
v -0.15618998 -0.05609358 0.03121538
v -0.08904593 -0.07104161 0.04469967
v -0.08621263 -0.05570167 0.04094453
v -0.08465122 -0.05634211 0.04133739
v -0.08287221 -0.05767740 0.04194896
v -0.08184413 -0.05898055 0.04244629
v -0.08076800 -0.06209882 0.04344183
v -0.08250369 -0.06790441 0.04476977
v -0.08417782 -0.06948004 0.04496108
v -0.12290618 -0.07979942 0.02177308
v -0.11454489 -0.07979923 0.02294821
v -0.15182622 -0.05690258 0.01155977
v -0.15206896 -0.05678263 0.01207438
v -0.15254013 -0.05611173 0.01460609
v -0.15321976 -0.05599159 0.01538078
v -0.15389891 -0.05603580 0.01571280
v -0.15559882 -0.05656785 0.01578103
v -0.15541603 -0.07798472 0.02160236
v -0.15700346 -0.07731946 0.02120220
v -0.15925956 -0.07580011 0.02047373
v -0.16022630 -0.07485122 0.02008094
v -0.16143611 -0.07322820 0.01947146
v -0.16254376 -0.07077278 0.01865097
v -0.16301887 -0.06811132 0.01786359
v -0.16300948 -0.06674962 0.01749622
v -0.16268624 -0.06472199 0.01699266
v -0.16200200 -0.06276906 0.01656007
v -0.16097830 -0.06095241 0.01621208
v -0.15914255 -0.05884037 0.01589825
v -0.15746893 -0.05755373 0.01578511
v -0.15472700 -0.07822509 0.02160449
v -0.15360643 -0.07867641 0.02095859
v -0.15318207 -0.07899689 0.01999792
v -0.15280890 -0.07960732 0.01778799
v -0.15225932 -0.07980816 0.01735072
v -0.11547349 -0.07890989 0.02849093
v -0.11568239 -0.07870157 0.02924617
v -0.11627441 -0.07840910 0.03026455
v -0.11683207 -0.07823871 0.03082796
v -0.11785803 -0.07803682 0.03144421
v -0.11862884 -0.07794581 0.03167876
v -0.12024122 -0.07788360 0.03168654
v -0.12101897 -0.07791489 0.03145945
v -0.12206332 -0.07803692 0.03085318
v -0.12308788 -0.07832099 0.02963938
v -0.12349202 -0.07860059 0.02852960
v -0.12354140 -0.07891007 0.02735703
v -0.11456636 -0.08037480 0.02310103
v -0.12292765 -0.08037499 0.02192591
v -0.16155453 -0.07344097 0.01810100
v -0.15523475 -0.07861399 0.02037969
v -0.15439776 -0.05619917 0.01443985
v -0.16298573 -0.06695578 0.01614396
v -0.15641183 -0.05701949 0.01440458
v -0.15883641 -0.05880729 0.01452090
v -0.15389121 -0.05593090 0.01436746
v -0.15404755 -0.05616957 0.01432038
v -0.15379034 -0.05614682 0.01407113
v -0.15366839 -0.05619041 0.01375461
v -0.15461107 -0.05608306 0.01459683
v -0.16034558 -0.06013530 0.01473338
v -0.16268763 -0.06451311 0.01558952
v -0.16316588 -0.06742385 0.01631040
v -0.16290474 -0.07033458 0.01713519
v -0.16208512 -0.07262269 0.01783184
v -0.15955259 -0.07613526 0.01913883
v -0.15761302 -0.07760291 0.01980881
v -0.15516803 -0.07879456 0.02062306
v -0.16156568 -0.06171498 0.01514423
v -0.15899409 -0.05861161 0.01466541
v -0.16095325 -0.07470634 0.01874777
v -0.16300143 -0.06542542 0.01594706
v -0.15810955 -0.07737589 0.01987025
v -0.16243824 -0.06351809 0.01550979
v -0.15682633 -0.07811317 0.02025023
v -0.16033252 -0.07546008 0.01903910
v -0.16175669 -0.07348477 0.01830411
v -0.16239627 -0.07217067 0.01785842
v -0.16314763 -0.06934568 0.01698793
v -0.16324802 -0.06787766 0.01657635
v -0.16040722 -0.06006466 0.01486022
v -0.15778980 -0.05767505 0.01458110
v -0.15602618 -0.05665763 0.01455350
v -0.15450644 -0.07913663 0.02022499
v -0.15471178 -0.07889868 0.02020633
v -0.15452194 -0.07907757 0.01983145
v -0.15492965 -0.07876755 0.02034176
v -0.15473203 -0.07863916 0.02171163
v -0.15600902 -0.07817499 0.02157361
v -0.15422997 -0.07884217 0.02155059
v -0.15346523 -0.07924008 0.02086416
v -0.16323496 -0.06904548 0.01808615
v -0.16332760 -0.06709035 0.01754377
v -0.16317959 -0.06562109 0.01716676
v -0.16281374 -0.07094762 0.01866036
v -0.15735266 -0.07755100 0.02121581
v -0.16165356 -0.06143543 0.01624795
v -0.16284741 -0.06417425 0.01682171
v -0.16207533 -0.07274522 0.01925085
v -0.16049536 -0.05979102 0.01596551
v -0.15945780 -0.05868529 0.01581195
v -0.16233614 -0.06277189 0.01651387
v -0.16103977 -0.07438958 0.01984162
v -0.15565361 -0.05619500 0.01567237
v -0.15787926 -0.05741309 0.01568937
v -0.16008468 -0.07549527 0.02027522
v -0.15860103 -0.07676739 0.02082818
v -0.15233865 -0.05573055 0.01396077
v -0.15282738 -0.05556957 0.01492505
v -0.15400951 -0.05564918 0.01563933
v -0.15329725 -0.05684831 0.01111392
v -0.15312912 -0.05669193 0.01100229
v -0.15401985 -0.08003491 0.01713162
v -0.15415478 -0.07984193 0.01721917
v -0.15293731 -0.08006659 0.01825658
v -0.15200272 -0.05627022 0.01174099
v -0.15281104 -0.08018036 0.01790503
v -0.15293074 -0.06337959 0.00850722
v -0.15288886 -0.06035808 0.00827913
v -0.15305048 -0.05833563 0.00935841
v -0.15354815 -0.07818997 0.01297936
v -0.15339255 -0.07624404 0.01187200
v -0.15327783 -0.07743177 0.01227157
v -0.15315795 -0.07555544 0.01156286
v -0.15338740 -0.07815434 0.01279527
v -0.15352669 -0.07903120 0.01378645
v -0.15368383 -0.07964769 0.01498052
v -0.15369600 -0.07924069 0.01424902
v -0.15382275 -0.07990737 0.01592311
v -0.11038832 -0.05774149 0.01512819
v -0.12499110 -0.05772731 0.01308856
v -0.15200646 -0.05764585 0.00961783
v -0.15301771 -0.05771585 0.00971750
v -0.15286350 -0.05849376 0.00902095
v -0.15178090 -0.05883377 0.00872993
v -0.15275025 -0.06016826 0.00821543
v -0.15274119 -0.06263720 0.00815143
v -0.15278746 -0.06097078 0.00807978
v -0.15270579 -0.06343137 0.00834376
v -0.15254810 -0.07940947 0.01419314
v -0.15184471 -0.07891329 0.01348898
v -0.15139645 -0.07656813 0.01208840
v -0.15165690 -0.07998966 0.01528382
v -0.15236785 -0.08018134 0.01611347
v -0.15014878 -0.07708732 0.01242789
v -0.15018590 -0.07770175 0.01269351
v -0.15171643 -0.07838718 0.01298622
v -0.15149750 -0.07956386 0.01438380
v -0.15021837 -0.07809804 0.01292492
v -0.15027949 -0.07865863 0.01335918
v -0.15035449 -0.07916135 0.01389105
v -0.15047115 -0.07971173 0.01471833
v -0.15056613 -0.08001898 0.01539283
v -0.15078996 -0.08038475 0.01698744
v -0.15066308 -0.08023183 0.01608266
v -0.15041089 -0.07945547 0.01429091
v -0.15030305 -0.07883356 0.01352635
v -0.08635903 -0.08032332 0.02558574
v -0.08623005 -0.08009883 0.02466889
v -0.08613425 -0.07982321 0.02398628
v -0.08607285 -0.07958711 0.02354814
v -0.08601478 -0.07931146 0.02313343
v -0.08589094 -0.07847580 0.02224924
v -0.08583484 -0.07790023 0.02184971
v -0.08580544 -0.07749751 0.02164105
v -0.08578185 -0.07708587 0.02147422
v -0.08574679 -0.07625308 0.02122634
v -0.08593626 -0.07883211 0.02257266
v -0.08237042 -0.05741319 0.01994146
v -0.08082502 -0.05825432 0.01994348
v -0.07885391 -0.05901772 0.02086716
v -0.07748509 -0.05995701 0.02153540
v -0.07425536 -0.07053065 0.02441558
v -0.07664270 -0.07573398 0.02592653
v -0.07621988 -0.07496987 0.02511755
v -0.07768197 -0.07685477 0.02608309
v -0.08427224 -0.08014528 0.02583029
v -0.07991476 -0.06399126 0.01875326
v -0.08522638 -0.06227946 0.01752061
v -0.07813051 -0.06916010 0.02038000
v -0.07474130 -0.06737269 0.02221700
v -0.07412017 -0.06690518 0.02345295
v -0.07483932 -0.06554258 0.02211595
v -0.07433446 -0.06572232 0.02310189
v -0.07511906 -0.06435765 0.02196679
v -0.07467361 -0.06457712 0.02274323
v -0.07546385 -0.06307828 0.02200472
v -0.07636996 -0.06149769 0.02166788
v -0.08382503 -0.05899173 0.01810850
v -0.08528969 -0.05871147 0.01797232
v -0.08524595 -0.05939837 0.01765897
v -0.08284955 -0.05873417 0.01854103
v -0.08151778 -0.06005783 0.01839103
v -0.08092541 -0.05937362 0.01898208
v -0.08000769 -0.05983315 0.01923463
v -0.07973738 -0.06072279 0.01897852
v -0.07846855 -0.06141272 0.01951244
v -0.07603443 -0.06463976 0.02073119
v -0.07678549 -0.06405540 0.02013886
v -0.07632788 -0.06492202 0.02043857
v -0.07536700 -0.06535278 0.02138530
v -0.08384811 -0.05814204 0.01863885
v -0.07818252 -0.06065412 0.02010971
v -0.07784408 -0.06230400 0.01967302
v -0.07677899 -0.06238445 0.02057511
v -0.07616915 -0.06327261 0.02090235
v -0.08387189 -0.05776098 0.01895196
v -0.08537111 -0.05784735 0.01855362
v -0.08183903 -0.05822024 0.01935899
v -0.07987604 -0.05906964 0.01986259
v -0.07761703 -0.06051955 0.02078811
v -0.07895061 -0.05964153 0.02014700
v -0.07510602 -0.06700582 0.02168321
v -0.08445896 -0.05704731 0.01955123
v -0.08546236 -0.05716918 0.01920249
v -0.07981773 -0.05843091 0.02057323
v -0.08551479 -0.05685971 0.01957450
v -0.07727531 -0.07568584 0.02410672
v -0.07845694 -0.07601602 0.02314105
v -0.07803101 -0.07650077 0.02422034
v -0.07945923 -0.07725770 0.02366324
v -0.08409696 -0.07927725 0.02356214
v -0.08313692 -0.07876266 0.02322876
v -0.08262832 -0.07915939 0.02410097
v -0.08129655 -0.07805505 0.02329424
v -0.08069775 -0.07833426 0.02414690
v -0.07924587 -0.07765556 0.02456340
v -0.08112986 -0.07877900 0.02460372
v -0.08414914 -0.07974790 0.02444575
v -0.08516369 -0.07988204 0.02434070
v -0.07546290 -0.06925424 0.02173522
v -0.07587671 -0.07172394 0.02234501
v -0.07481128 -0.06908209 0.02247512
v -0.07526406 -0.07125164 0.02281062
v -0.07457663 -0.06954950 0.02303187
v -0.07474945 -0.07121562 0.02366551
v -0.07963974 -0.07812170 0.02505374
v -0.07739489 -0.07632415 0.02509919
v -0.08263417 -0.07954176 0.02502013
v -0.07432921 -0.06771368 0.02298904
v -0.07421055 -0.06882632 0.02352281
v -0.07509208 -0.07232279 0.02391623
v -0.07908545 -0.07798020 0.02596876
v -0.08109745 -0.07915316 0.02600436
v -0.08320959 -0.07991502 0.02591599
v -0.07595301 -0.07445272 0.02479731
v -0.07587218 -0.07331426 0.02346940
v -0.07545640 -0.07340327 0.02436852
v -0.07523841 -0.07341401 0.02505596
v -0.07665126 -0.07358761 0.02273935
v -0.07717384 -0.07445468 0.02289989
v -0.07455788 -0.07171385 0.02469274
v -0.07394808 -0.06922771 0.02454766
v -0.08520817 -0.06154746 0.01738905
v -0.08191511 -0.06188345 0.01800558
v -0.08373743 -0.07703131 0.02177093
v -0.08306605 -0.06125598 0.01773204
v -0.07737590 -0.06625313 0.01988482
v -0.07764684 -0.06764792 0.02008644
v -0.07695283 -0.06781940 0.02036866
v -0.07685065 -0.06944465 0.02082319
v -0.07761265 -0.07058349 0.02088610
v -0.07762179 -0.07310653 0.02177635
v -0.07870815 -0.07337674 0.02148823
v -0.08082585 -0.07564929 0.02180577
v -0.08120452 -0.07683776 0.02228235
v -0.08284364 -0.07738341 0.02212964
v -0.07810623 -0.06480289 0.01938915
v -0.07995308 -0.06335845 0.01863492
v -0.07939681 -0.07329438 0.02132138
v -0.08520476 -0.06083375 0.01736370
v -0.08339676 -0.06022778 0.01776878
v -0.08140582 -0.06161089 0.01813152
v -0.07929934 -0.06213327 0.01885855
v -0.07801319 -0.06341607 0.01938707
v -0.07624146 -0.06848685 0.02090116
v -0.07667260 -0.07113632 0.02146068
v -0.08522961 -0.05975422 0.01754175
v -0.08520902 -0.06047105 0.01739411
v -0.08250944 -0.06044516 0.01795172
v -0.08003266 -0.06159488 0.01860981
v -0.07701534 -0.06493352 0.01993906
v -0.07653730 -0.06673165 0.02038386
v -0.07655175 -0.07208206 0.02194065
v -0.07759532 -0.07417583 0.02235968
v -0.07977232 -0.07581840 0.02220757
v -0.07889454 -0.07550320 0.02242586
v -0.08014358 -0.07701102 0.02289080
v -0.08225645 -0.07813391 0.02289883
v -0.08408017 -0.07830221 0.02245634
v -0.07559569 -0.06727061 0.02117897
v -0.14971863 -0.05803783 0.00935946
v -0.14957488 -0.06154891 0.00834275
v -0.14964715 -0.05885079 0.00885335
v -0.14961305 -0.05939981 0.00861261
v -0.14959644 -0.05975567 0.00849543
v -0.14957550 -0.06047250 0.00834784
v -0.14959361 -0.06228090 0.00847423
v -0.14150757 -0.05847720 0.01020553
v -0.14986514 -0.05696076 0.01040235
v -0.14979158 -0.05743546 0.00987798
v -0.15149544 -0.06069946 0.00812834
v -0.15140633 -0.06139840 0.00811171
v -0.15112649 -0.05966115 0.00837727
v -0.15151173 -0.05722661 0.01001856
v -0.15138124 -0.05791777 0.00934575
v -0.12479743 -0.05809910 0.01346763
v -0.11086443 -0.05638222 0.01851574
v -0.12522332 -0.05638254 0.01649770
v -0.10914164 -0.05686847 0.01624305
v -0.12616701 -0.05694745 0.01374902
v -0.10939433 -0.05713635 0.01587725
v -0.12478124 -0.05747569 0.01335234
v -0.12657209 -0.05629320 0.01464840
v -0.10906850 -0.05627627 0.01715414
v -0.12638694 -0.05691597 0.01389420
v -0.12579562 -0.05728517 0.01345015
v -0.12504356 -0.05755505 0.01330763
v -0.12578698 -0.05599875 0.01619708
v -0.12520494 -0.05594731 0.01636680
v -0.12565714 -0.05594068 0.01613754
v -0.10918496 -0.05623870 0.01767462
v -0.10995185 -0.05605261 0.01830191
v -0.11083317 -0.05592263 0.01829321
v -0.10895703 -0.05676481 0.01656065
v -0.11041887 -0.05757114 0.01534558
f 1 3 2
f 3 4 2
f 5 7 6
f 7 8 6
f 8 9 6
f 10 11 9
f 10 12 11
f 12 13 11
f 13 14 11
f 14 15 11
f 16 17 15
f 16 18 17
f 18 19 17
f 19 20 17
f 20 21 17
f 20 22 21
f 21 24 23
f 24 25 23
f 25 26 23
f 26 27 23
f 26 28 27
f 28 29 27
f 29 30 27
f 30 31 27
f 30 32 31
f 32 33 31
f 33 34 31
f 34 35 31
f 36 37 35
f 36 38 37
f 38 39 37
f 39 40 37
f 40 41 37
f 41 42 37
f 41 43 42
f 43 44 42
f 44 45 42
f 45 46 42
f 46 47 42
f 46 48 47
f 48 49 47
f 49 50 47
f 50 51 47
f 51 52 47
f 51 53 52
f 53 54 52
f 54 55 52
f 55 56 52
f 56 2 52
f 56 57 2
f 57 58 2
f 58 1 2
f 59 5 60
f 5 6 60
f 3 61 4
f 61 62 4
f 62 63 4
f 64 65 63
f 64 66 65
f 66 67 65
f 67 68 65
f 68 69 65
f 68 70 69
f 70 71 69
f 71 72 69
f 72 73 69
f 73 74 69
f 73 75 74
f 75 76 74
f 76 77 74
f 77 78 74
f 78 79 74
f 80 81 79
f 80 82 81
f 82 83 81
f 83 84 81
f 84 85 81
f 85 86 81
f 86 88 87
f 88 89 87
f 89 90 87
f 90 91 87
f 91 92 87
f 93 94 92
f 93 95 94
f 95 96 94
f 96 97 94
f 97 98 94
f 99 100 98
f 99 101 100
f 101 102 100
f 102 103 100
f 103 104 100
f 104 105 100
f 104 106 105
f 106 107 105
f 107 108 105
f 108 60 105
f 108 109 60
f 109 110 60
f 110 59 60
f 4 111 2
f 111 112 2
f 112 113 2
f 113 52 2
f 113 114 52
f 114 47 52
f 114 115 47
f 115 116 47
f 116 42 47
f 116 117 42
f 117 37 42
f 117 118 37
f 118 35 37
f 118 119 35
f 119 31 35
f 119 120 31
f 120 121 31
f 121 27 31
f 121 23 27
f 121 122 23
f 122 123 23
f 123 21 23
f 123 17 21
f 123 124 17
f 124 15 17
f 124 11 15
f 124 125 11
f 125 9 11
f 125 126 9
f 126 6 9
f 126 127 6
f 6 127 60
f 127 128 60
f 128 129 60
f 129 105 60
f 129 130 105
f 130 100 105
f 130 131 100
f 131 98 100
f 131 132 98
f 132 94 98
f 132 133 94
f 133 92 94
f 133 134 92
f 134 87 92
f 134 135 87
f 135 86 87
f 135 81 86
f 135 136 81
f 136 79 81
f 136 137 79
f 137 74 79
f 137 138 74
f 138 69 74
f 138 139 69
f 139 140 69
f 140 65 69
f 140 141 65
f 141 63 65
f 141 4 63
f 141 111 4
f 142 144 143
f 145 142 146
f 142 143 146
f 147 149 148
f 148 149 150
f 148 151 147
f 151 152 147
f 150 149 153
f 149 154 153
f 145 146 155
f 156 145 155
f 156 155 157
f 154 157 155
f 154 155 153
f 158 160 159
f 160 161 159
f 160 162 161
f 163 165 164
f 163 164 166
f 167 169 168
f 169 170 168
f 167 168 171
f 162 172 161
f 173 174 151
f 174 152 151
f 164 165 175
f 165 176 175
f 165 177 176
f 178 180 179
f 178 181 180
f 169 182 170
f 169 178 182
f 178 179 182
f 183 185 184
f 186 188 187
f 158 189 160
f 158 190 189
f 177 191 176
f 177 174 191
f 174 173 191
f 163 193 192
f 163 166 193
f 185 171 194
f 185 167 171
f 184 185 195
f 185 194 195
f 196 183 197
f 183 184 197
f 186 187 198
f 162 199 172
f 162 200 199
f 187 188 201
f 188 196 201
f 196 197 201
f 202 186 203
f 186 198 203
f 181 192 180
f 181 163 192
f 200 204 199
f 200 202 204
f 202 203 204
f 205 207 206
f 205 208 207
f 207 208 209
f 210 207 209
f 210 209 211
f 209 212 211
f 212 213 211
f 212 214 213
f 213 214 215
f 216 215 217
f 216 217 218
f 218 219 216
f 218 220 219
f 221 223 222
f 224 226 225
f 227 226 228
f 226 229 228
f 223 231 230
f 232 234 233
f 235 237 236
f 235 238 237
f 239 241 240
f 242 244 243
f 244 242 245
f 232 244 234
f 244 245 234
f 233 246 232
f 246 247 232
f 226 224 229
f 248 228 249
f 248 227 228
f 250 252 251
f 231 253 230
f 247 246 254
f 255 236 205
f 255 235 236
f 225 239 256
f 239 240 256
f 225 256 224
f 248 249 257
f 258 248 257
f 252 250 258
f 231 251 253
f 231 250 251
f 230 222 223
f 221 259 223
f 242 243 259
f 243 223 259
f 238 261 260
f 261 262 260
f 238 260 237
f 254 262 247
f 262 261 247
f 258 257 252
f 263 219 264
f 219 265 264
f 265 219 220
f 266 268 267
f 268 269 267
f 268 270 269
f 270 271 269
f 270 272 271
f 273 266 267
f 273 274 266
f 275 277 276
f 275 278 277
f 279 275 276
f 280 279 281
f 279 276 281
f 282 284 283
f 284 285 283
f 284 286 285
f 286 287 285
f 286 288 287
f 288 289 287
f 288 290 289
f 290 291 289
f 290 292 291
f 292 293 291
f 292 294 293
f 294 295 293
f 294 296 295
f 296 297 295
f 296 298 297
f 298 299 297
f 298 300 299
f 298 301 300
f 301 302 300
f 302 303 300
f 302 304 303
f 302 305 304
f 305 306 304
f 305 307 306
f 307 308 306
f 308 307 309
f 307 310 309
f 311 312 283
f 312 282 283
f 313 315 314
f 313 317 316
f 313 314 317
f 315 318 314
f 319 318 320
f 318 321 320
f 318 322 321
f 318 315 322
f 322 324 323
f 322 323 321
f 324 325 323
f 325 324 326
f 327 328 319
f 328 318 319
f 328 314 318
f 320 329 319
f 329 327 319
f 323 325 330
f 321 323 330
f 320 330 329
f 320 321 330
f 324 332 331
f 332 324 158
f 331 326 324
f 315 334 333
f 315 335 334
f 336 335 315
f 280 336 279
f 336 313 279
f 337 322 338
f 339 315 340
f 315 333 340
f 324 341 158
f 342 322 337
f 336 315 313
f 341 190 158
f 338 322 343
f 322 344 343
f 322 315 344
f 315 339 344
f 342 341 322
f 341 324 322
f 345 316 346
f 316 279 313
f 347 279 316
f 281 311 280
f 311 336 280
f 311 283 336
f 283 285 336
f 341 304 306
f 341 342 304
f 342 303 304
f 342 337 303
f 337 300 303
f 337 338 300
f 338 299 300
f 338 343 299
f 343 297 299
f 343 344 297
f 344 295 297
f 344 339 295
f 339 340 295
f 340 293 295
f 340 291 293
f 340 333 291
f 333 334 291
f 334 289 291
f 334 287 289
f 334 335 287
f 335 336 287
f 336 285 287
f 308 309 306
f 309 341 306
f 190 309 189
f 309 190 341
f 348 148 150
f 348 153 349
f 348 150 153
f 155 349 153
f 350 352 351
f 350 353 352
f 350 354 353
f 354 355 353
f 356 358 357
f 356 359 358
f 355 354 360
f 354 361 360
f 358 359 362
f 359 350 362
f 350 351 362
f 363 356 364
f 356 357 364
f 365 367 366
f 365 368 367
f 369 371 370
f 372 369 373
f 369 370 373
f 270 372 272
f 372 373 272
f 360 361 374
f 361 375 374
f 375 376 374
f 369 366 371
f 369 365 366
f 363 378 377
f 363 364 378
f 368 380 379
f 368 363 380
f 363 377 380
f 368 379 367
f 381 375 382
f 381 383 375
f 383 376 375
f 384 386 385
f 386 387 385
f 386 382 387
f 386 381 382
f 278 384 277
f 384 385 277
f 273 388 274
f 388 142 274
f 388 144 142
f 389 390 328
f 390 391 328
f 316 317 346
f 346 317 391
f 317 314 391
f 314 328 391
f 327 392 328
f 328 392 389
f 329 392 327
f 329 393 392
f 393 394 392
f 394 389 392
f 393 395 394
f 395 393 330
f 330 393 329
f 325 395 330
f 395 397 396
f 397 398 396
f 325 326 397
f 395 325 397
f 326 331 397
f 397 331 398
f 331 399 398
f 331 332 399
f 400 345 346
f 347 316 345
f 391 400 346
f 400 347 345
f 401 403 402
f 404 406 405
f 407 408 405
f 407 409 408
f 410 412 411
f 412 414 413
f 415 417 416
f 416 417 418
f 419 421 420
f 419 422 421
f 422 423 421
f 422 424 423
f 424 425 423
f 424 426 425
f 426 427 425
f 426 428 427
f 429 430 428
f 429 431 430
f 431 418 432
f 418 417 432
f 412 410 433
f 410 409 433
f 409 407 434
f 407 405 435
f 405 406 435
f 406 404 436
f 404 437 436
f 437 438 436
f 437 402 438
f 401 439 403
f 440 442 441
f 442 443 441
f 443 444 441
f 443 445 444
f 445 446 444
f 447 449 448
f 447 450 449
f 450 451 449
f 450 452 451
f 452 453 451
f 452 396 453
f 452 454 396
f 455 453 396
f 449 456 448
f 456 457 448
f 457 446 448
f 457 444 446
f 458 402 403
f 458 438 402
f 434 459 409
f 459 433 409
f 433 414 412
f 413 461 460
f 461 415 460
f 461 462 415
f 462 417 415
f 432 430 431
f 421 463 420
f 463 421 464
f 421 465 464
f 421 423 465
f 423 466 465
f 423 425 466
f 425 467 466
f 425 427 467
f 427 468 467
f 427 428 468
f 428 430 468
f 430 432 469
f 432 417 462
f 461 413 470
f 413 471 470
f 413 414 471
f 414 433 471
f 433 459 471
f 459 434 472
f 434 407 472
f 407 435 473
f 435 474 473
f 435 406 474
f 406 436 474
f 436 475 474
f 436 438 475
f 458 403 476
f 403 477 476
f 403 439 477
f 439 478 477
f 439 440 478
f 440 441 478
f 441 479 478
f 441 444 479
f 444 480 479
f 444 457 480
f 456 449 481
f 453 482 451
f 453 455 482
f 482 483 451
f 483 449 451
f 483 481 449
f 481 457 456
f 481 484 457
f 484 480 457
f 485 477 478
f 476 486 458
f 486 438 458
f 473 472 407
f 472 487 459
f 462 488 432
f 488 469 432
f 469 489 430
f 489 468 430
f 399 482 455
f 490 483 482
f 490 491 483
f 491 481 483
f 491 492 481
f 480 493 479
f 493 494 479
f 494 478 479
f 494 485 478
f 495 477 485
f 486 496 438
f 496 475 438
f 496 497 475
f 497 474 475
f 474 498 473
f 498 472 473
f 498 499 472
f 499 487 472
f 487 500 459
f 500 471 459
f 500 501 471
f 501 470 471
f 502 461 470
f 488 503 469
f 503 489 469
f 468 504 467
f 504 466 467
f 466 505 465
f 505 464 465
f 505 506 464
f 463 464 507
f 464 506 507
f 399 508 482
f 508 490 482
f 508 509 490
f 492 510 481
f 510 484 481
f 510 511 484
f 511 480 484
f 511 512 480
f 512 493 480
f 494 513 485
f 513 495 485
f 495 476 477
f 495 514 476
f 514 486 476
f 515 496 486
f 497 516 474
f 516 498 474
f 499 517 487
f 517 500 487
f 517 518 500
f 518 501 500
f 501 519 470
f 519 502 470
f 502 462 461
f 502 520 462
f 520 488 462
f 520 521 488
f 521 503 488
f 503 522 489
f 522 468 489
f 522 523 468
f 523 504 468
f 504 524 466
f 524 505 466
f 505 525 506
f 525 505 526
f 520 502 527
f 502 519 527
f 519 501 528
f 501 518 528
f 517 499 529
f 498 516 499
f 516 497 530
f 496 531 497
f 496 515 531
f 486 514 515
f 514 495 532
f 495 513 532
f 494 533 513
f 494 493 533
f 493 512 533
f 492 491 510
f 491 490 509
f 508 399 534
f 526 535 525
f 534 536 508
f 536 509 508
f 509 537 491
f 537 510 491
f 204 511 510
f 533 538 513
f 538 532 513
f 514 184 515
f 184 531 515
f 531 530 497
f 516 539 499
f 539 529 499
f 528 540 519
f 540 527 519
f 527 541 520
f 541 521 520
f 541 542 521
f 542 503 521
f 542 543 503
f 543 522 503
f 543 544 522
f 544 523 522
f 504 545 524
f 545 505 524
f 545 526 505
f 161 509 536
f 161 537 509
f 199 510 537
f 199 204 510
f 204 203 511
f 203 512 511
f 203 198 512
f 198 533 512
f 198 187 533
f 187 538 533
f 538 201 532
f 201 197 532
f 197 514 532
f 197 184 514
f 195 530 531
f 195 194 530
f 194 516 530
f 194 171 516
f 171 539 516
f 539 168 529
f 168 517 529
f 168 170 517
f 170 518 517
f 170 182 518
f 182 528 518
f 182 540 528
f 540 180 527
f 180 541 527
f 192 542 541
f 543 166 544
f 544 175 523
f 175 504 523
f 175 545 504
f 175 176 545
f 176 191 545
f 191 526 545
f 526 173 535
f 534 159 536
f 159 161 536
f 172 537 161
f 172 199 537
f 187 201 538
f 184 195 531
f 171 168 539
f 182 179 540
f 179 180 540
f 180 192 541
f 192 193 542
f 193 543 542
f 193 166 543
f 166 164 544
f 164 175 544
f 191 173 526
f 546 548 547
f 143 549 155
f 549 349 155
f 349 535 348
f 535 173 348
f 348 173 148
f 143 155 146
f 173 151 148
f 549 535 349
f 549 550 535
f 550 525 535
f 550 551 525
f 551 506 525
f 551 552 506
f 552 507 506
f 552 553 507
f 553 463 507
f 553 554 463
f 554 420 463
f 554 548 420
f 548 419 420
f 548 546 419
f 144 555 143
f 555 144 388
f 273 267 555
f 556 555 267
f 557 269 271
f 272 373 558
f 366 367 559
f 367 560 559
f 367 561 560
f 367 379 561
f 380 377 562
f 377 563 562
f 377 378 563
f 358 362 564
f 362 565 564
f 362 351 565
f 384 566 386
f 567 569 568
f 567 570 569
f 571 573 572
f 573 574 572
f 575 577 576
f 575 578 577
f 578 580 579
f 580 581 579
f 581 582 579
f 583 585 584
f 586 588 587
f 589 591 590
f 589 592 591
f 592 593 591
f 594 595 570
f 594 596 595
f 594 597 596
f 597 598 596
f 599 571 598
f 599 600 571
f 600 573 571
f 601 576 574
f 601 602 576
f 602 575 576
f 575 580 578
f 581 603 582
f 604 605 603
f 605 607 606
f 607 608 606
f 609 611 610
f 611 612 610
f 613 614 612
f 613 615 614
f 615 583 614
f 615 585 583
f 548 554 616
f 554 617 616
f 592 568 593
f 592 618 568
f 618 619 568
f 619 567 568
f 619 620 567
f 620 570 567
f 620 621 570
f 621 594 570
f 597 599 598
f 600 574 573
f 600 622 574
f 622 601 574
f 623 581 580
f 604 607 605
f 607 624 608
f 624 625 608
f 625 609 608
f 611 613 612
f 626 592 589
f 626 558 592
f 621 560 594
f 560 561 594
f 561 597 594
f 597 627 599
f 627 562 599
f 562 600 599
f 562 563 600
f 563 622 600
f 622 602 601
f 628 575 602
f 628 580 575
f 628 629 580
f 629 623 580
f 623 565 581
f 565 603 581
f 565 630 603
f 630 604 603
f 630 631 604
f 631 607 604
f 631 632 607
f 632 624 607
f 625 611 609
f 611 633 613
f 633 615 613
f 633 634 615
f 617 553 552
f 617 554 553
f 620 559 621
f 559 560 621
f 561 379 597
f 379 627 597
f 629 564 623
f 564 565 623
f 271 272 626
f 272 558 626
f 558 373 592
f 373 618 592
f 373 370 618
f 370 619 618
f 370 371 619
f 371 620 619
f 371 366 620
f 366 559 620
f 379 380 627
f 380 562 627
f 563 378 622
f 378 602 622
f 378 364 602
f 364 628 602
f 364 357 628
f 357 629 628
f 357 358 629
f 358 564 629
f 565 351 630
f 351 352 630
f 352 631 630
f 352 353 631
f 353 632 631
f 353 355 632
f 355 624 632
f 355 360 624
f 360 625 624
f 360 611 625
f 360 374 611
f 374 633 611
f 374 376 633
f 376 383 633
f 383 634 633
f 556 552 551
f 616 617 635
f 617 636 635
f 556 557 636
f 556 267 269
f 556 269 557
f 635 589 590
f 635 636 589
f 636 626 589
f 636 557 626
f 557 271 626
f 615 634 585
f 383 381 634
f 585 634 637
f 634 638 637
f 634 381 638
f 381 386 638
f 585 587 584
f 585 637 587
f 638 386 566
f 556 551 550
f 566 640 639
f 555 550 549
f 555 556 550
f 556 617 552
f 616 547 548
f 617 556 636
f 555 388 273
f 637 641 587
f 637 638 641
f 278 275 384
f 584 587 588
f 638 639 641
f 638 566 639
f 566 384 640
f 384 275 640
f 275 279 640
f 555 549 143
f 396 454 395
f 389 394 586
f 454 394 395
f 389 586 390
f 586 587 390
f 396 398 455
f 455 398 399
f 332 534 399
f 332 158 534
f 158 159 534
f 394 454 586
f 454 588 586
f 640 279 347
f 639 347 400
f 639 640 347
f 641 639 400
f 641 400 391
f 390 587 391
f 587 641 391
f 424 642 426
f 426 643 428
f 428 644 429
f 415 645 460
f 460 646 413
f 413 647 412
f 408 648 405
f 405 649 404
f 401 650 439
f 439 651 440
f 440 652 442
f 448 653 447
f 447 654 450
f 450 655 452
f 656 658 657
f 659 661 660
f 662 663 659
f 664 666 665
f 667 669 668
f 670 672 671
f 668 674 673
f 675 677 676
f 658 678 657
f 675 680 679
f 675 676 680
f 658 681 678
f 658 682 681
f 682 683 681
f 682 546 683
f 452 679 454
f 675 679 452
f 684 677 675
f 655 675 452
f 655 684 675
f 654 655 450
f 685 684 655
f 653 655 654
f 653 685 655
f 653 654 447
f 670 685 653
f 686 670 653
f 446 687 448
f 687 653 448
f 687 686 653
f 445 687 446
f 672 686 687
f 672 670 686
f 443 688 445
f 688 687 445
f 688 672 687
f 689 672 688
f 689 671 672
f 688 690 689
f 688 443 690
f 443 442 690
f 690 671 689
f 652 690 442
f 652 691 690
f 691 671 690
f 651 652 440
f 651 691 652
f 692 691 651
f 650 651 439
f 693 651 650
f 693 667 651
f 667 692 651
f 693 650 401
f 669 667 693
f 402 694 401
f 694 693 401
f 694 669 693
f 695 669 694
f 695 668 669
f 437 694 402
f 695 674 668
f 695 694 674
f 694 404 674
f 694 437 404
f 696 674 404
f 696 673 674
f 649 696 404
f 649 697 696
f 697 673 696
f 698 649 405
f 698 697 649
f 648 698 405
f 648 699 698
f 699 697 698
f 700 648 408
f 700 664 648
f 664 699 648
f 409 700 408
f 701 700 409
f 701 702 700
f 702 664 700
f 410 701 409
f 411 701 410
f 411 666 701
f 666 702 701
f 666 664 702
f 411 703 666
f 411 412 703
f 704 666 703
f 704 665 666
f 647 703 412
f 647 704 703
f 646 704 647
f 646 665 704
f 646 647 413
f 705 665 646
f 645 705 646
f 645 646 460
f 706 705 645
f 416 645 415
f 416 707 645
f 707 706 645
f 662 706 707
f 418 708 416
f 708 663 416
f 663 707 416
f 663 662 707
f 431 708 418
f 663 661 659
f 663 644 661
f 663 708 644
f 708 431 644
f 431 429 644
f 643 644 428
f 643 661 644
f 643 660 661
f 709 660 643
f 642 643 426
f 642 709 643
f 656 709 642
f 710 642 424
f 710 656 642
f 422 710 424
f 658 656 710
f 419 682 422
f 682 710 422
f 682 658 710
f 419 546 682
f 547 683 546
f 547 711 683
f 711 681 683
f 711 712 681
f 712 678 681
f 712 713 678
f 713 657 678
f 583 714 614
f 614 715 612
f 612 716 610
f 606 717 605
f 605 718 603
f 603 719 582
f 577 720 576
f 576 721 574
f 596 722 595
f 595 723 570
f 570 724 569
f 591 725 590
f 590 726 635
f 635 727 616
f 728 730 729
f 731 733 732
f 734 736 735
f 737 739 738
f 740 742 741
f 738 744 743
f 745 713 712
f 730 746 729
f 745 711 547
f 745 712 711
f 730 747 746
f 730 748 747
f 748 749 747
f 748 588 749
f 745 547 616
f 727 750 745
f 750 713 745
f 727 745 616
f 726 750 727
f 726 727 635
f 725 750 726
f 725 726 590
f 740 750 725
f 751 740 725
f 752 725 591
f 752 751 725
f 593 752 591
f 742 751 752
f 742 740 751
f 568 753 593
f 753 752 593
f 753 742 752
f 742 754 741
f 742 753 754
f 753 569 754
f 753 568 569
f 724 754 569
f 755 741 754
f 723 754 724
f 723 755 754
f 723 724 570
f 756 755 723
f 722 756 723
f 722 723 595
f 757 758 722
f 758 756 722
f 757 722 596
f 737 758 757
f 598 759 596
f 759 757 596
f 759 739 757
f 739 737 757
f 571 572 598
f 572 759 598
f 572 739 759
f 739 744 738
f 739 572 744
f 572 574 744
f 721 744 574
f 721 743 744
f 760 721 576
f 761 743 721
f 720 721 760
f 720 761 721
f 720 760 576
f 762 763 720
f 763 761 720
f 762 720 577
f 578 762 577
f 764 734 762
f 734 763 762
f 764 762 578
f 579 764 578
f 736 734 764
f 765 764 579
f 765 736 764
f 579 582 765
f 719 765 582
f 719 766 765
f 766 736 765
f 766 735 736
f 766 767 735
f 718 719 603
f 718 766 719
f 717 766 718
f 717 767 766
f 717 718 605
f 768 767 717
f 769 717 606
f 769 768 717
f 770 768 769
f 608 771 606
f 771 769 606
f 771 772 769
f 772 770 769
f 772 731 770
f 609 773 608
f 773 771 608
f 773 772 771
f 733 772 773
f 733 731 772
f 609 610 773
f 716 773 610
f 716 733 773
f 774 733 716
f 774 732 733
f 715 716 612
f 715 774 716
f 715 732 774
f 714 715 614
f 714 775 715
f 775 732 715
f 776 714 583
f 776 777 714
f 777 775 714
f 584 776 583
f 728 777 776
f 748 776 584
f 748 730 776
f 730 728 776
f 588 748 584
f 454 679 588
f 679 749 588
f 679 680 749
f 680 747 749
f 680 676 747
f 676 746 747
f 676 677 746
f 677 729 746
f 778 779 657
f 779 709 657
f 779 780 659
f 780 781 705
f 781 665 705
f 782 783 667
f 783 671 691
f 783 784 671
f 784 670 671
f 677 684 785
f 684 784 785
f 684 685 784
f 685 670 784
f 692 667 691
f 668 673 782
f 673 697 782
f 697 786 782
f 697 699 786
f 699 664 786
f 706 780 705
f 706 662 780
f 662 659 780
f 656 657 709
f 691 667 783
f 668 782 667
f 664 781 786
f 664 665 781
f 659 660 779
f 660 709 779
f 713 787 657
f 787 778 657
f 788 789 732
f 789 770 731
f 789 790 770
f 791 792 743
f 792 738 743
f 793 755 792
f 793 750 740
f 793 787 750
f 713 750 787
f 756 792 755
f 756 758 792
f 758 737 792
f 761 791 743
f 761 763 791
f 763 734 791
f 734 735 791
f 735 790 791
f 735 767 790
f 767 768 790
f 768 770 790
f 732 789 731
f 775 777 732
f 728 788 777
f 728 729 788
f 741 793 740
f 741 755 793
f 737 738 792
f 777 788 732
f 677 785 729
f 785 788 729
f 794 795 786
f 796 797 791
f 797 792 791
f 798 799 783
f 800 801 792
f 802 800 792
f 797 802 792
f 803 804 789
f 804 790 789
f 805 794 781
f 794 786 781
f 806 805 781
f 807 808 793
f 801 809 793
f 801 793 792
f 810 785 784
f 810 811 785
f 810 784 812
f 799 812 783
f 798 783 782
f 795 798 782
f 795 782 786
f 808 787 793
f 808 813 787
f 809 807 793
f 814 796 791
f 815 803 789
f 816 815 789
f 817 818 788
f 811 817 785
f 817 788 785
f 812 784 783
f 819 781 780
f 819 806 781
f 804 814 790
f 814 791 790
f 816 789 788
f 818 816 788
f 820 821 779
f 821 780 779
f 821 819 780
f 822 820 779
f 823 822 778
f 822 779 778
f 813 823 787
f 823 778 787
f 824 823 825
f 823 813 825
f 826 827 817
f 827 818 817
f 827 816 818
f 827 828 816
f 828 815 816
f 828 139 815
f 139 803 815
f 139 138 803
f 138 804 803
f 138 829 804
f 829 830 804
f 830 814 804
f 830 136 814
f 136 796 814
f 136 831 796
f 831 797 796
f 831 832 797
f 832 833 797
f 833 802 797
f 833 800 802
f 833 834 800
f 834 801 800
f 834 835 801
f 835 809 801
f 835 807 809
f 835 836 807
f 836 129 807
f 129 808 807
f 129 813 808
f 129 825 813
f 826 817 837
f 817 811 837
f 824 822 823
f 824 838 822
f 838 820 822
f 838 839 820
f 839 821 820
f 839 840 821
f 840 819 821
f 840 841 819
f 841 806 819
f 841 122 806
f 122 805 806
f 122 842 805
f 842 794 805
f 842 120 794
f 120 795 794
f 120 119 795
f 119 118 795
f 118 798 795
f 118 843 798
f 843 799 798
f 843 844 799
f 844 812 799
f 844 115 812
f 115 810 812
f 115 113 810
f 113 837 810
f 837 811 810
f 140 139 828
f 137 829 138
f 137 830 829
f 137 136 830
f 135 831 136
f 135 134 831
f 134 832 831
f 134 833 832
f 134 133 833
f 133 132 833
f 132 834 833
f 132 131 834
f 131 835 834
f 131 130 835
f 130 836 835
f 130 129 836
f 128 825 129
f 128 127 825
f 127 824 825
f 127 126 824
f 126 838 824
f 126 125 838
f 125 839 838
f 125 124 839
f 124 840 839
f 124 123 840
f 123 841 840
f 123 122 841
f 121 842 122
f 121 120 842
f 117 843 118
f 117 116 843
f 116 844 843
f 116 115 844
f 114 113 115
f 112 837 113
f 112 111 837
f 111 826 837
f 111 827 826
f 111 141 827
f 141 140 827
f 140 828 827
f 189 225 160
f 239 281 276
f 311 281 312
f 281 845 312
f 281 846 845
f 310 846 309
f 846 189 309
f 846 281 189
f 281 225 189
f 281 239 225
f 263 142 219
f 142 145 219
f 255 152 235
f 152 174 235
f 225 162 160
f 225 226 162
f 226 227 162
f 227 200 162
f 227 248 200
f 248 202 200
f 248 186 202
f 248 258 186
f 258 188 186
f 258 250 188
f 250 196 188
f 250 231 196
f 231 183 196
f 231 185 183
f 231 223 185
f 223 167 185
f 223 243 167
f 243 169 167
f 243 244 169
f 244 178 169
f 244 232 178
f 232 181 178
f 232 247 181
f 247 163 181
f 247 261 163
f 261 165 163
f 261 238 165
f 238 177 165
f 238 174 177
f 238 235 174
f 274 142 847
f 847 848 274
f 848 266 274
f 848 849 266
f 849 268 266
f 849 850 268
f 270 268 850
f 851 852 270
f 270 850 851
f 375 854 853
f 375 361 854
f 361 855 854
f 361 354 855
f 354 856 855
f 354 857 856
f 354 350 857
f 350 858 857
f 350 359 858
f 359 859 858
f 359 356 859
f 356 860 859
f 356 363 860
f 363 861 860
f 363 862 861
f 363 368 862
f 368 863 862
f 368 864 863
f 368 365 864
f 365 369 864
f 369 865 864
f 369 852 865
f 369 372 852
f 372 270 852
f 853 866 375
f 866 382 375
f 387 382 867
f 382 866 867
f 867 868 387
f 868 385 387
f 868 869 385
f 869 277 385
f 870 277 869
f 870 276 277
f 870 239 276
f 142 263 847
f 305 872 871
f 305 302 872
f 302 873 872
f 302 874 873
f 302 301 874
f 301 875 874
f 301 298 875
f 298 876 875
f 298 296 876
f 296 877 876
f 296 294 877
f 294 878 877
f 294 292 878
f 292 879 878
f 292 290 879
f 290 880 879
f 290 288 880
f 288 881 880
f 288 286 881
f 286 882 881
f 286 284 882
f 846 310 883
f 310 871 883
f 310 307 871
f 307 305 871
f 282 312 284
f 312 882 284
f 312 884 882
f 312 845 884
f 885 887 886
f 888 887 885
f 887 890 889
f 890 887 888
f 891 892 887
f 892 891 893
f 894 893 891
f 891 887 895
f 890 897 896
f 890 888 897
f 888 899 898
f 888 900 899
f 888 885 900
f 885 902 901
f 885 886 902
f 902 886 903
f 898 897 888
f 904 896 897
f 896 905 890
f 905 889 890
f 906 885 901
f 906 900 885
f 907 897 898
f 908 901 902
f 909 904 897
f 895 887 889
f 903 910 902
f 910 908 902
f 911 901 908
f 911 906 901
f 912 900 906
f 912 913 900
f 913 899 900
f 913 914 899
f 914 898 899
f 914 915 898
f 915 907 898
f 907 909 897
f 916 896 904
f 916 905 896
f 917 889 905
f 917 918 889
f 918 895 889
f 903 920 919
f 921 919 920
f 920 903 922
f 922 903 886
f 853 924 923
f 923 866 853
f 923 925 866
f 868 867 926
f 867 925 926
f 867 866 925
f 927 859 928
f 859 860 928
f 860 929 928
f 860 861 929
f 858 859 930
f 859 927 930
f 855 931 854
f 862 863 932
f 861 933 929
f 857 858 934
f 864 936 935
f 863 935 932
f 863 864 935
f 861 862 933
f 862 937 933
f 862 932 937
f 856 857 938
f 857 934 938
f 939 852 851
f 865 939 940
f 865 852 939
f 864 865 936
f 865 940 936
f 858 930 934
f 855 856 941
f 856 938 941
f 931 855 942
f 855 941 942
f 931 924 854
f 924 853 854
f 943 849 848
f 943 944 849
f 944 850 849
f 944 945 850
f 945 851 850
f 945 939 851
f 891 943 894
f 894 947 946
f 894 943 947
f 887 892 886
f 892 922 886
f 920 922 892
f 920 892 893
f 920 893 894
f 920 894 921
f 921 948 919
f 949 948 921
f 926 950 868
f 950 869 868
f 951 943 848
f 945 891 895
f 895 939 945
f 924 910 903
f 924 931 910
f 931 908 910
f 931 942 908
f 942 911 908
f 942 941 911
f 941 938 911
f 938 906 911
f 938 912 906
f 938 934 912
f 934 913 912
f 934 930 913
f 930 914 913
f 930 927 914
f 927 915 914
f 927 928 915
f 928 929 915
f 929 907 915
f 929 933 907
f 933 909 907
f 933 937 909
f 937 904 909
f 937 932 904
f 932 916 904
f 932 935 916
f 935 905 916
f 935 936 905
f 936 917 905
f 936 940 917
f 940 918 917
f 940 939 918
f 939 895 918
f 923 924 903
f 923 903 919
f 952 919 948
f 950 926 925
f 919 925 923
f 891 945 944
f 951 947 943
f 944 943 891
f 919 950 925
f 919 952 950
f 921 953 949
f 953 921 894
f 894 946 953
f 946 954 953
f 954 946 955
f 953 956 949
f 957 959 958
f 960 956 958
f 960 961 956
f 962 964 963
f 964 948 963
f 957 956 953
f 963 949 956
f 949 963 948
f 956 957 958
f 961 963 956
f 961 962 963
f 952 948 241
f 241 239 870
f 870 952 241
f 870 869 952
f 950 952 869
f 206 255 205
f 209 965 212
f 966 214 965
f 214 212 965
f 966 217 215
f 215 214 966
f 967 969 968
f 970 971 969
f 968 955 946
f 947 968 946
f 969 955 968
f 954 969 971
f 955 969 954
f 953 954 972
f 954 973 972
f 973 954 971
f 848 847 951
f 264 951 847
f 264 847 263
f 264 947 951
f 959 972 974
f 959 957 972
f 957 953 972
f 975 962 961
f 976 961 960
f 977 958 959
f 978 962 975
f 978 979 962
f 980 958 977
f 980 981 958
f 981 982 958
f 983 975 976
f 978 975 983
f 981 984 982
f 984 985 982
f 985 976 982
f 986 983 976
f 987 978 983
f 988 979 978
f 979 989 241
f 240 241 989
f 241 948 979
f 958 982 960
f 979 990 989
f 979 988 990
f 978 987 988
f 987 983 991
f 983 986 991
f 986 976 992
f 976 985 992
f 964 979 948
f 964 962 979
f 961 976 975
f 976 960 982
f 989 256 240
f 989 990 993
f 990 988 994
f 988 987 995
f 987 991 996
f 991 997 996
f 991 986 997
f 985 984 998
f 984 999 998
f 984 981 999
f 981 980 1000
f 980 1002 1001
f 980 977 1002
f 977 959 1002
f 989 993 256
f 990 994 993
f 988 995 994
f 987 996 995
f 986 1003 997
f 986 992 1003
f 992 985 1003
f 985 998 1003
f 981 1000 999
f 1000 980 1001
f 1004 237 260
f 260 262 1005
f 262 254 1006
f 254 246 1007
f 246 233 1007
f 222 230 1008
f 1009 1010 252
f 1010 251 252
f 1011 252 257
f 1012 229 224
f 1013 1015 1014
f 1016 1018 1017
f 1018 1019 1017
f 1020 1019 1018
f 1019 1021 242
f 1019 1020 1021
f 242 1021 245
f 1020 1022 1021
f 245 1021 234
f 1022 1023 234
f 1023 233 234
f 1024 1026 1025
f 1027 1028 1024
f 1027 1029 1028
f 1029 1030 1028
f 1030 1031 1028
f 1030 1032 1031
f 1033 1035 1034
f 1033 1036 1035
f 1037 1027 1024
f 1038 1032 1030
f 1038 1039 1032
f 1038 1040 1039
f 1040 1041 1039
f 1041 1034 1039
f 1041 1033 1034
f 1042 1037 1043
f 1042 1044 1037
f 1044 1005 1029
f 1005 1045 1029
f 1046 1038 1047
f 1022 1020 1041
f 1043 1024 1025
f 1043 1037 1024
f 1020 1033 1041
f 1020 1036 1033
f 1018 1048 1036
f 1018 1016 1048
f 1049 1042 1050
f 1004 1044 1042
f 1004 1005 1044
f 1005 1051 1045
f 1051 1047 1045
f 1051 1006 1047
f 1006 1046 1047
f 1052 1049 1050
f 1004 1042 1049
f 1007 1046 1006
f 1007 1023 1046
f 1022 234 1021
f 1007 1006 254
f 1006 1051 262
f 1051 1005 262
f 1005 1004 260
f 1004 1049 237
f 1049 236 237
f 1049 1052 236
f 1007 233 1023
f 1050 1042 1043
f 1023 1040 1046
f 1023 1041 1040
f 1023 1022 1041
f 1053 1055 1054
f 1055 1056 1054
f 997 1057 996
f 1058 1059 1057
f 1058 1060 1059
f 1060 1056 1061
f 1055 1062 1056
f 1062 1061 1056
f 1063 1060 1061
f 1063 1059 1060
f 1059 1064 1057
f 1064 1065 1057
f 1065 996 1057
f 1065 995 996
f 1066 1068 1067
f 1068 1069 1067
f 1070 1069 1068
f 1070 1071 1069
f 1072 1061 1062
f 1072 1063 1061
f 994 995 1065
f 1073 1055 1053
f 1073 1062 1055
f 1074 1059 1063
f 1074 1064 1059
f 1074 1065 1064
f 1037 1044 1027
f 1044 1029 1027
f 1045 1030 1029
f 1045 1047 1030
f 1047 1038 1030
f 1020 1018 1036
f 1075 1076 1016
f 1076 1068 1016
f 1076 1070 1068
f 1077 1069 1071
f 1046 1040 1038
f 1078 1062 1073
f 993 224 256
f 1078 1072 1062
f 1078 1079 1072
f 1079 1063 1072
f 1079 1080 1063
f 1080 1074 1063
f 1080 1012 1074
f 1012 1065 1074
f 1012 993 1065
f 993 994 1065
f 1011 1078 1073
f 1081 1010 1053
f 1082 1083 1081
f 1081 1084 1010
f 1085 1082 1086
f 1082 1053 1086
f 1082 1081 1053
f 1086 1053 1054
f 1053 1010 1073
f 1010 1009 1073
f 1083 1077 1087
f 1017 1076 1075
f 1084 1083 1087
f 1082 1069 1077
f 1082 1067 1069
f 1082 1085 1067
f 1082 1077 1083
f 1084 1087 253
f 1077 1071 1087
f 1068 1066 1016
f 1066 1048 1016
f 1088 1070 1076
f 1088 1008 1070
f 1083 1084 1081
f 993 1012 224
f 1012 1080 229
f 1080 228 229
f 1080 1079 228
f 1079 249 228
f 1079 257 249
f 1079 1078 257
f 1078 1011 257
f 1009 252 1011
f 1073 1009 1011
f 1010 1084 251
f 1084 253 251
f 221 222 1088
f 222 1008 1088
f 259 221 1017
f 221 1076 1017
f 221 1088 1076
f 230 1087 1008
f 230 253 1087
f 1071 1008 1087
f 1071 1070 1008
f 1016 1017 1075
f 1019 259 1017
f 1019 242 259
f 1089 1090 1014
f 1091 1000 1001
f 1092 1090 1089
f 1093 1095 1094
f 1095 1096 1094
f 1096 1097 1094
f 1098 1100 1099
f 1101 1091 1100
f 1101 1102 1091
f 999 1000 1102
f 1000 1091 1102
f 1094 1103 1093
f 1094 1013 1103
f 1013 1104 1103
f 1013 1090 1104
f 1090 1013 1014
f 1094 1015 1013
f 1094 1097 1015
f 1097 1105 1015
f 1097 1099 1105
f 1099 1100 1105
f 1100 1002 1105
f 1100 1091 1002
f 1091 1001 1002
f 1106 1107 1089
f 1107 1092 1089
f 1108 1109 1090
f 1109 1104 1090
f 1109 1110 1104
f 1110 1103 1104
f 1111 1096 1095
f 1112 1097 1096
f 1112 1098 1097
f 1113 1107 1114
f 1107 1115 1092
f 1115 1108 1092
f 1116 1109 1108
f 1117 1103 1110
f 1117 1093 1103
f 1117 1118 1093
f 1118 1095 1093
f 1118 1111 1095
f 1111 1112 1096
f 1119 1120 1098
f 1120 1122 1121
f 1122 1123 1121
f 1124 1102 1101
f 1124 1125 1102
f 1125 998 999
f 1114 1107 1106
f 1112 1119 1098
f 1120 1121 1098
f 1123 1101 1121
f 1125 999 1102
f 1028 1115 1107
f 1117 1126 1118
f 1126 1111 1118
f 1123 1060 1101
f 1060 1124 1101
f 1024 1107 1026
f 1024 1028 1107
f 1031 1116 1028
f 1031 1032 1116
f 1060 1058 1124
f 1057 1125 1058
f 1057 1003 1125
f 1057 997 1003
f 1026 1107 1113
f 1028 1116 1115
f 1032 1109 1116
f 1032 1039 1109
f 1039 1110 1109
f 1039 1034 1110
f 1034 1035 1110
f 1035 1117 1110
f 1035 1126 1117
f 1066 1111 1126
f 1066 1067 1111
f 1067 1112 1111
f 1067 1119 1112
f 1067 1085 1119
f 1085 1120 1119
f 1085 1086 1120
f 1086 1054 1120
f 1054 1122 1120
f 1054 1123 1122
f 1115 1116 1108
f 1058 1125 1124
f 1003 998 1125
f 1092 1108 1090
f 1098 1099 1097
f 1121 1100 1098
f 1121 1101 1100
f 1036 1126 1035
f 1036 1048 1126
f 1048 1066 1126
f 1056 1123 1054
f 1056 1060 1123
f 1043 1025 1127
f 1052 1050 208
f 1050 209 208
f 1052 208 205
f 1089 1014 1128
f 965 1050 1043
f 1043 1127 965
f 1025 1026 1129
f 1026 1113 1130
f 1113 1114 1131
f 1114 1106 1132
f 236 1052 205
f 1050 965 209
f 974 1133 1014
f 1127 966 965
f 1127 1134 1129
f 265 220 218
f 1135 218 217
f 1136 217 966
f 1135 217 1136
f 1127 1136 966
f 218 1135 265
f 1127 1025 1134
f 1025 1129 1134
f 1014 1133 1128
f 1128 1132 1106
f 1026 1130 1129
f 1113 1131 1130
f 1114 1132 1131
f 1089 1128 1106
f 1133 974 972
f 1137 973 971
f 1138 972 973
f 1137 1138 973
f 1139 1137 971
f 265 1135 264
f 264 1140 947
f 967 947 1140
f 967 968 947
f 1133 972 1128
f 1131 1132 1137
f 1132 1128 1138
f 1128 972 1138
f 1135 1140 264
f 1135 1136 1140
f 1136 1141 1140
f 1136 1127 1141
f 1127 1129 1141
f 1129 970 1141
f 1129 1130 970
f 1130 1139 970
f 1130 1131 1139
f 1131 1137 1139
f 1140 1141 967
f 1141 969 967
f 1141 970 969
f 1139 971 970
f 1132 1138 1137
f 974 1015 1105
f 974 1014 1015
f 974 1002 959
f 974 1105 1002
f 883 871 884
f 871 882 884
f 881 877 880
f 880 878 879
f 874 882 873
f 873 882 872
f 882 871 872
f 877 882 876
f 882 875 876
f 877 881 882
f 877 878 880
f 882 874 875
f 883 884 846
f 884 845 846
f 152 255 147
f 211 213 210
f 213 1142 210
f 213 215 1142
f 145 156 219
f 1143 149 147
f 1143 1144 149
f 1144 154 149
f 1144 157 154
f 1145 1147 1146
f 1147 1148 1146
f 1149 1150 1146
f 1150 1145 1146
f 1146 1152 1151
f 1146 1151 1149
f 1152 1146 1148
f 1148 1153 1152
f 1154 1144 1155
f 1155 1156 1154
f 1156 156 1154
f 1156 1149 156
f 1150 1157 255
f 1157 1150 1158
f 1150 1159 1158
f 1159 1143 1158
f 1145 1160 1147
f 255 1160 1150
f 1160 1145 1150
f 1156 1150 1149
f 1150 1156 1159
f 1156 1155 1159
f 1143 1155 1144
f 1143 1159 1155
f 1148 1161 1153
f 1153 1161 1142
f 1161 210 1142
f 147 1157 1158
f 147 255 1157
f 255 206 1160
f 206 207 1160
f 1160 207 1147
f 207 210 1147
f 1147 210 1161
f 1158 1143 147
f 1142 215 1153
f 1152 1153 215
f 215 216 1152
f 216 1151 1152
f 216 219 1151
f 1151 219 1149
f 1149 219 156
f 157 1154 156
f 157 1144 1154
f 1147 1161 1148

