v 0.01150975 0.00017077 0.02725000
v 0.01162242 -0.00065297 0.02624938
v 0.01156419 0.00051238 0.02624938
v 0.01167052 -0.00074600 0.02725000
v 0.01180202 0.00094280 0.02725000
v 0.01234703 0.00137758 0.02624939
v 0.01281956 0.00151376 0.02725000
v 0.01354072 0.00138585 0.02614089
v 0.01394280 0.00119798 0.02725000
v 0.01437758 0.00065297 0.02624939
v 0.01444216 0.00041252 0.02725000
v 0.01517218 -0.00194381 0.02725152
v 0.01318203 -0.00289183 0.02725064
v 0.01368236 -0.00232414 0.02817402
v 0.01381569 0.00279846 0.02725152
v 0.01235010 0.00233342 0.02817402
v 0.01162526 0.00255067 0.02725064
v 0.01482714 -0.00188466 0.02781357
v 0.01376261 -0.00149541 0.02890041
v 0.01452254 -0.00077002 0.02890202
v 0.01547377 -0.00028000 0.02810112
v 0.01583147 -0.00032447 0.02725000
v 0.01561028 0.00122456 0.02724873
v 0.01448033 0.00082605 0.02889936
v 0.01495151 0.00154581 0.02810112
v 0.01355412 0.00256580 0.02781357
v 0.01347932 0.00165577 0.02890953
v 0.01421799 0.00099234 0.02598382
v 0.01443083 -0.00021801 0.02613621
v 0.01286137 0.00152060 0.02598408
v 0.01191366 0.00095105 0.02605554
v 0.01157853 -0.00022465 0.02604759
v 0.01374553 0.00138290 0.02565922
v 0.01436768 -0.00037761 0.02587932
v 0.01384403 0.00097346 0.02579495
v 0.01455930 -0.00044044 0.02564991
v 0.01239254 0.00123442 0.02579403
v 0.01243347 0.00129532 0.02556731
v 0.01143706 0.00015956 0.02565922
v 0.01176558 -0.00060746 0.02579403
v 0.01374553 0.00138290 0.02533462
v 0.01430241 -0.00044333 0.02546943
v 0.01366159 0.00114880 0.02547023
v 0.01452060 0.00013863 0.02533489
v 0.01200767 0.00121799 0.02533462
v 0.01168547 0.00017160 0.02547023
v 0.01149497 -0.00045069 0.02533462
v 0.01223426 0.00143940 0.02500902
v 0.01383960 0.00117013 0.02508803
v 0.01219183 0.00105086 0.02514563
v 0.01160695 -0.00050334 0.02505662
v 0.01438897 0.00027650 0.02509472
v 0.01281489 0.00162784 0.02469209
v 0.01420539 0.00074180 0.02475050
v 0.01294926 0.00136388 0.02481137
v 0.01161746 -0.00006065 0.02482822
v 0.01139085 -0.00018981 0.02467611
v 0.01315957 0.00156294 0.02436082
v 0.01420539 0.00074180 0.02442590
v 0.01294926 0.00136388 0.02448677
v 0.01161710 0.00074553 0.02436082
v 0.01161746 -0.00006065 0.02450362
v 0.01164820 -0.00070998 0.02436108
v 0.01161746 -0.00006065 0.02417902
v 0.01161710 0.00074553 0.02403622
v 0.01276179 0.00138911 0.02411498
v 0.01164820 -0.00070998 0.02403648
v 0.01411907 0.00094354 0.02409334
v 0.01431454 -0.00017160 0.02417183
v 0.01221492 0.00117763 0.02379565
v 0.01403680 0.00125829 0.02371063
v 0.01390799 0.00103362 0.02384643
v 0.01154083 0.00043223 0.02370844
v 0.01173496 -0.00067484 0.02379882
v 0.01351534 0.00131653 0.02329511
v 0.01439306 0.00050334 0.02343362
v 0.01366159 0.00114880 0.02352263
v 0.01174171 0.00103680 0.02338603
v 0.01219183 0.00105086 0.02352263
v 0.01169765 -0.00066910 0.02343886
v 0.01443941 0.00076574 0.02306143
v 0.01428014 0.00034451 0.02319803
v 0.01252622 0.00150357 0.02306760
v 0.01219183 0.00105086 0.02319803
v 0.01154550 0.00009872 0.02311535
v 0.01276179 0.00138911 0.02281658
v 0.01443941 0.00076574 0.02273683
v 0.01423442 0.00060746 0.02287263
v 0.01168331 0.00019511 0.02287879
v 0.01161710 0.00074553 0.02273782
v 0.01164821 -0.00070998 0.02273808
v 0.01435180 0.00070998 0.02241348
v 0.01430051 -0.00047305 0.02255602
v 0.01366159 0.00114880 0.02254883
v 0.01315957 0.00156294 0.02241322
v 0.01219183 0.00105086 0.02254883
v 0.01161710 0.00074553 0.02241322
v 0.01169765 -0.00066910 0.02246506
v 0.01374553 0.00138290 0.02208862
v 0.01430241 -0.00044333 0.02222343
v 0.01344333 0.00130241 0.02222343
v 0.01456294 -0.00015956 0.02208862
v 0.01174171 0.00103680 0.02208762
v 0.01185120 0.00066159 0.02222423
v 0.01179461 -0.00074180 0.02215369
v 0.01168331 0.00019511 0.02190499
v 0.01161710 0.00074553 0.02176402
v 0.01276179 0.00138911 0.02184278
v 0.01177652 -0.00075976 0.02184203
v 0.01411907 0.00094354 0.02182114
v 0.01431454 -0.00017160 0.02189963
v 0.01225821 0.00120539 0.02150450
v 0.01165392 0.00055754 0.02129131
v 0.01329887 0.00128897 0.02124958
v 0.01374553 0.00138290 0.02143942
v 0.01447137 0.00019826 0.02134834
v 0.01431454 -0.00017160 0.02157503
v 0.01366159 0.00114880 0.02157503
v 0.01163811 -0.00008226 0.02156977
v 0.01195820 -0.00124916 0.02143042
v 0.01438990 -0.00071523 0.02175811
v 0.01308883 -0.00137292 0.02157423
v 0.01286233 -0.00157042 0.02176920
v 0.01392949 -0.00119348 0.02134312
v 0.01256056 -0.00128630 0.02124834
v 0.01315662 -0.00162287 0.02208762
v 0.01334451 -0.00128014 0.02189963
v 0.01438990 -0.00071523 0.02240731
v 0.01286233 -0.00157042 0.02241840
v 0.01282840 -0.00131453 0.02222423
v 0.01394468 -0.00111585 0.02279375
v 0.01252494 -0.00127947 0.02253917
v 0.01255411 -0.00135483 0.02281874
v 0.01414536 -0.00083212 0.02312797
v 0.01254807 -0.00157476 0.02306909
v 0.01394468 -0.00111585 0.02344295
v 0.01252494 -0.00127947 0.02318837
v 0.01255410 -0.00135483 0.02346794
v 0.01438990 -0.00071523 0.02370571
v 0.01286233 -0.00157042 0.02371680
v 0.01427048 -0.00071880 0.02395986
v 0.01286233 -0.00157042 0.02404140
v 0.01334451 -0.00128014 0.02384723
v 0.01438990 -0.00071523 0.02435491
v 0.01308883 -0.00137292 0.02417103
v 0.01286233 -0.00157042 0.02436600
v 0.01438990 -0.00071523 0.02467951
v 0.01414180 -0.00068414 0.02450179
v 0.01286233 -0.00157042 0.02469060
v 0.01279674 -0.00130115 0.02449009
v 0.01414180 -0.00068414 0.02482639
v 0.01394354 -0.00111907 0.02506714
v 0.01279674 -0.00130115 0.02481469
v 0.01258267 -0.00137170 0.02509722
v 0.01399234 -0.00121799 0.02533462
v 0.01272392 -0.00138906 0.02541932
v 0.01327466 -0.00138842 0.02574326
v 0.01205633 -0.00110158 0.02559356
v 0.01375152 -0.00122730 0.02604759
v 0.01225447 -0.00138290 0.02598382
v 0.01413044 -0.00102284 0.02624938
v 0.01307609 -0.00152260 0.02624938
v 0.01225103 -0.00123849 0.02613621
v 0.01271992 -0.00112022 0.02786000
v 0.01300000 0.00000000 0.02728265
v 0.01383010 -0.00080266 0.02786000
v 0.01188982 -0.00031756 0.02786000
v 0.01216990 0.00080266 0.02786000
v 0.01328008 0.00112022 0.02786000
v 0.01411018 0.00031756 0.02786000
v 0.01383010 -0.00080266 0.02890000
v 0.01271992 -0.00112022 0.02890000
v 0.01188982 -0.00031756 0.02890000
v 0.01216990 0.00080266 0.02890000
v 0.01328008 0.00112022 0.02890000
v 0.01411018 0.00031756 0.02890000
v 0.01216737 -0.00150413 0.02891205
v 0.01131887 -0.00001027 0.02890170
v 0.01171655 0.00110637 0.02889639
v 0.01109893 -0.00153571 0.02811445
v 0.01114254 -0.00222255 0.02725084
v 0.01025989 -0.00078378 0.02725000
v 0.01232797 -0.00215359 0.02835990
v 0.01083666 -0.00061881 0.02836681
v 0.01057438 0.00029810 0.02811444
v 0.01024823 0.00090409 0.02725093
v 0.01129077 0.00147245 0.02835990
v 0.01258742 -0.00146759 0.02725000
v 0.01374600 -0.00132948 0.02725000
v 0.01446759 -0.00041258 0.02725000
v 0.00194132 -0.00157520 0.02660000
v 0.00119080 -0.00219699 0.02676886
v 0.00239444 -0.00071354 0.02676890
v 0.00157202 0.00194235 0.02676881
v 0.00219821 0.00119075 0.02660000
v 0.00248578 0.00026010 0.02677006
v -0.00026032 0.00248549 0.02675715
v 0.00071238 0.00239636 0.02660000
v -0.00119075 0.00219821 0.02660000
v -0.00194047 0.00157491 0.02677011
v 0.00157577 0.00193982 -0.02674076
v 0.00071240 0.00239635 -0.02660000
v -0.00025565 0.00248568 -0.02676882
v 0.00219823 0.00119075 -0.02660000
v 0.00248491 0.00026038 -0.02676891
v 0.00194134 -0.00157520 -0.02660000
v 0.00239580 -0.00071217 -0.02675755
v 0.00118972 -0.00219759 -0.02676886
v 0.00059537 -0.00109910 0.01830000
v 0.00037324 -0.00120618 0.02680000
v 0.00012945 -0.00124328 0.01830000
v -0.00055134 -0.00114452 0.02680000
v -0.00034931 -0.00120032 0.01828071
v -0.00078760 -0.00097066 0.01830000
v -0.00109911 -0.00059537 0.02680000
v -0.00120224 -0.00038505 0.01828318
v -0.00126839 0.00007139 0.02680000
v -0.00119632 0.00036142 0.01828042
v -0.00097066 0.00078761 0.02680000
v -0.00077085 0.00100952 0.01829987
v -0.00037324 0.00120619 0.02680000
v 0.00000000 0.00000000 0.01754892
v -0.00033112 0.00122649 -0.02680000
v -0.00110138 0.00063311 -0.02680000
v -0.00042445 0.00119715 -0.01829988
v -0.00097064 0.00078760 -0.01830000
v -0.00125468 0.00013734 -0.01827311
v -0.00122646 -0.00033114 -0.02680001
v -0.00109899 -0.00059532 -0.01828534
v -0.00078758 -0.00097066 -0.02680001
v -0.00057037 -0.00112596 -0.01827311
v -0.00035617 -0.00119818 -0.02680000
v 0.00012946 -0.00124328 -0.01830000
v 0.00037326 -0.00120619 -0.02680000
v 0.00059539 -0.00109910 -0.01830000
v 0.00000002 0.00000000 -0.01754893
v -0.00119045 0.00219735 -0.02677495
v -0.00194130 0.00157520 -0.02660000
v -0.00239515 0.00071346 -0.02674077
v -0.00239635 0.00071239 0.02660000
v -0.00248654 -0.00025889 -0.02660000
v -0.00248635 -0.00025555 0.02677704
v -0.00219888 -0.00118713 -0.02677274
v -0.00219556 -0.00119330 0.02677273
v -0.00157501 -0.00194012 -0.02676887
v -0.00157520 -0.00194132 0.02660000
v -0.00071237 -0.00239635 -0.02660000
v -0.00071204 -0.00239518 0.02675721
v 0.00025889 -0.00248656 0.02660000
v 0.00025887 -0.00248540 -0.02675086
v 0.00097066 -0.00078760 0.02680000
v 0.00126839 -0.00007138 0.02680000
v 0.00094736 0.00084642 0.02680000
v 0.00035619 0.00119818 0.02680000
v 0.00110142 -0.00063311 -0.02680000
v 0.00122650 0.00033114 -0.02680000
v 0.00063313 0.00110141 -0.02680000
v 0.00097068 -0.00078760 -0.01830000
v 0.00119623 -0.00036313 -0.01828071
v 0.00119663 0.00042554 -0.01828892
v 0.00034791 0.00119967 -0.01828017
v 0.00078762 0.00097066 -0.01830000
v -0.00012944 0.00124328 0.01830000
v 0.00034931 0.00120032 0.01828071
v 0.00101012 0.00076982 0.01828892
v 0.00112263 -0.00057717 0.01828534
v 0.00124328 0.00012945 0.01830000
v 0.01355882 0.00243550 0.02676882
v 0.01445155 0.00203544 0.02660001
v 0.01511875 0.00132576 0.02677006
v 0.01167417 0.00211838 0.02675715
v 0.01258712 0.00246566 0.02660001
v 0.01096456 0.00145153 0.02660001
v 0.01056491 0.00056222 0.02677011
v 0.01356329 0.00243488 -0.02674076
v 0.01258714 0.00246567 -0.02660000
v 0.01167827 0.00212060 -0.02676882
v 0.01445156 0.00203544 -0.02660000
v 0.01511785 0.00132563 -0.02676890
v 0.01543600 -0.00056212 -0.02660000
v 0.01546508 0.00041282 -0.02675755
v 0.01503425 -0.00145144 -0.02676886
v 0.01401773 -0.00072578 0.01830000
v 0.01386523 -0.00091957 0.02680000
v 0.01366252 -0.00105999 0.01830000
v 0.01300757 -0.00127038 0.02680000
v 0.01321357 -0.00123174 0.01828071
v 0.01271895 -0.00121800 0.01830000
v 0.01227424 -0.00101773 0.02680000
v 0.01208919 -0.00087411 0.01828318
v 0.01194002 -0.00066252 0.02680000
v 0.01176654 -0.00020094 0.01828043
v 0.01173244 0.00008483 0.02680000
v 0.01186401 0.00056819 0.01829988
v 0.01213478 0.00091955 0.02680000
v 0.01300001 -0.00000001 0.01754893
v 0.01216370 0.00095629 -0.02680000
v 0.01173246 0.00008483 -0.02680000
v 0.01209275 0.00088893 -0.01829987
v 0.01178202 0.00028106 -0.01830000
v 0.01181256 -0.00042788 -0.01827310
v 0.01204373 -0.00083632 -0.02680000
v 0.01227431 -0.00101763 -0.01828533
v 0.01271896 -0.00121799 -0.02680000
v 0.01298232 -0.00126207 -0.01827310
v 0.01344748 -0.00118067 -0.02680000
v 0.01366253 -0.00105999 -0.01830000
v 0.01413863 -0.00056345 -0.02680000
v 0.01401774 -0.00072577 -0.01830000
v 0.01300002 -0.00000000 -0.01754892
v 0.01503545 -0.00145155 0.02660001
v 0.01543511 -0.00056128 0.02676887
v 0.01546455 0.00041261 0.02675086
v 0.01096520 0.00145089 -0.02677495
v 0.01056403 0.00056212 -0.02660000
v 0.01053493 -0.00041140 -0.02674076
v 0.01053434 -0.00041289 0.02660001
v 0.01088004 -0.00132503 -0.02660000
v 0.01087875 -0.00132195 0.02677705
v 0.01154627 -0.00203250 -0.02677273
v 0.01155197 -0.00203658 0.02677274
v 0.01243753 -0.00243483 -0.02676886
v 0.01243789 -0.00243599 0.02660001
v 0.01341290 -0.00246567 -0.02660000
v 0.01341880 -0.00246349 0.02677889
v 0.01432503 -0.00211998 0.02660001
v 0.01432450 -0.00211895 -0.02675085
v 0.01421800 -0.00028107 0.02680000
v 0.01423284 0.00020643 0.02680000
v 0.01389295 0.00090363 0.02680000
v 0.01299244 0.00127037 0.02680000
v 0.01423285 0.00020644 -0.02680000
v 0.01395631 0.00083632 -0.02680000
v 0.01308485 0.00126756 -0.02680000
v 0.01421801 -0.00028106 -0.01830000
v 0.01423413 0.00019935 -0.01828071
v 0.01388799 0.00090800 -0.01828892
v 0.01278547 0.00123052 -0.01828017
v 0.01328108 0.00121799 -0.01830000
v 0.01233750 0.00105998 0.01830000
v 0.01278644 0.00123173 0.01828071
v 0.01356920 0.00113533 0.01828892
v 0.01426206 -0.00002527 0.01828534
v 0.01406000 0.00066251 0.01830000
v 0.00060236 -0.00144827 -0.02725000
v 0.00040987 -0.00143535 -0.02615838
v 0.00133534 -0.00073554 -0.02624939
v 0.00150001 -0.00027218 -0.02725000
v 0.00146434 0.00042411 -0.02624939
v 0.00110754 0.00111072 -0.02725000
v 0.00107041 0.00100270 -0.02613822
v 0.00016857 0.00151515 -0.02624939
v -0.00060232 0.00144827 -0.02725000
v -0.00254541 0.00142040 -0.02725153
v -0.00279334 -0.00077001 -0.02725065
v -0.00241962 -0.00011204 -0.02817403
v 0.00238007 0.00168289 -0.02725153
v 0.00241786 0.00014576 -0.02817404
v 0.00285940 -0.00046877 -0.02725065
v -0.00237707 0.00111346 -0.02781358
v -0.00166225 0.00023383 -0.02890041
v -0.00122401 0.00118862 -0.02890203
v -0.00107062 0.00224759 -0.02810112
v -0.00122920 0.00257129 -0.02725000
v 0.00030738 0.00286682 -0.02724873
v 0.00029873 0.00166868 -0.02889936
v 0.00082573 0.00234865 -0.02810112
v 0.00224531 0.00135979 -0.02781358
v 0.00140930 0.00099260 -0.02890953
v 0.00079090 0.00130612 -0.02598409
v -0.00031825 0.00124859 -0.02611900
v -0.00066002 0.00142569 -0.02598382
v 0.00134545 0.00043431 -0.02589191
v 0.00115541 -0.00106457 -0.02598382
v 0.00110796 -0.00065783 -0.02611900
v -0.00054137 -0.00147483 -0.02598382
v 0.00156977 0.00006421 -0.02565922
v 0.00017218 0.00136498 -0.02579403
v 0.00025505 0.00161035 -0.02565823
v 0.00084146 -0.00116091 -0.02574643
v 0.00131904 0.00095835 -0.02533363
v -0.00066002 0.00142569 -0.02533462
v 0.00017218 0.00136498 -0.02546943
v 0.00136500 -0.00017216 -0.02546943
v 0.00095837 -0.00131902 -0.02533363
v 0.00009136 -0.00132254 -0.02547023
v -0.00054137 -0.00147483 -0.02565922
v 0.00123053 0.00090404 -0.02501029
v -0.00038062 0.00158536 -0.02500903
v 0.00017218 0.00136498 -0.02514483
v 0.00136500 -0.00017217 -0.02514483
v 0.00147485 -0.00054139 -0.02501003
v 0.00019111 -0.00140328 -0.02509472
v 0.00157591 0.00004191 -0.02469061
v 0.00042175 0.00125682 -0.02482103
v 0.00131112 0.00012375 -0.02481470
v 0.00025505 0.00161035 -0.02468443
v 0.00055001 -0.00137579 -0.02473283
v -0.00074705 -0.00125925 -0.02473726
v 0.00157591 0.00004190 -0.02436600
v 0.00017218 0.00136498 -0.02449563
v 0.00131112 0.00012375 -0.02449010
v 0.00054141 0.00147483 -0.02436082
v 0.00055001 -0.00137579 -0.02440822
v -0.00074704 -0.00125925 -0.02441266
v 0.00157591 0.00004190 -0.02404140
v 0.00042175 0.00125682 -0.02417183
v 0.00131112 0.00012375 -0.02416550
v 0.00054141 0.00147483 -0.02403622
v 0.00055001 -0.00137579 -0.02408362
v -0.00074705 -0.00125925 -0.02408806
v 0.00157591 0.00004190 -0.02371681
v 0.00067621 0.00125085 -0.02378333
v 0.00131112 0.00012375 -0.02384090
v 0.00061345 -0.00118129 -0.02385259
v 0.00062939 -0.00143083 -0.02370571
v 0.00157591 0.00004190 -0.02339221
v 0.00067621 0.00125085 -0.02345873
v 0.00131112 0.00012375 -0.02351630
v 0.00055001 -0.00137580 -0.02343442
v -0.00074705 -0.00125925 -0.02343886
v -0.00092438 0.00133074 -0.02370232
v 0.00157591 0.00004191 -0.02306760
v 0.00067621 0.00125085 -0.02313413
v 0.00131112 0.00012375 -0.02319169
v 0.00055001 -0.00137579 -0.02310982
v -0.00074705 -0.00125925 -0.02311426
v -0.00092438 0.00133074 -0.02337772
v 0.00157591 0.00004191 -0.02274300
v 0.00074709 0.00125925 -0.02278966
v 0.00130602 0.00039636 -0.02286377
v 0.00055001 -0.00137579 -0.02278522
v -0.00074705 -0.00125925 -0.02278966
v -0.00092438 0.00133074 -0.02305311
v 0.00079090 0.00130611 -0.02241349
v -0.00043429 0.00134543 -0.02232131
v 0.00017218 0.00136498 -0.02254803
v 0.00147513 0.00010042 -0.02235212
v 0.00131112 0.00012375 -0.02254250
v 0.00055002 -0.00137579 -0.02246062
v -0.00074705 -0.00125925 -0.02246506
v -0.00092438 0.00133074 -0.02272851
v 0.00131904 0.00095835 -0.02208763
v 0.00087061 0.00099976 -0.02222423
v -0.00066002 0.00142569 -0.02208862
v 0.00130613 -0.00079088 -0.02208889
v 0.00033315 -0.00139454 -0.02217582
v 0.00085716 0.00112739 -0.02184872
v -0.00092438 0.00133074 -0.02175472
v -0.00087091 0.00107545 -0.02190682
v 0.00157591 0.00004191 -0.02176921
v 0.00119521 -0.00068141 -0.02189883
v 0.00062939 -0.00143083 -0.02175811
v -0.00074705 -0.00125925 -0.02181586
v 0.00104254 -0.00104384 -0.02148989
v -0.00017161 -0.00140150 -0.02149522
v 0.00093131 -0.00097369 -0.02124637
v 0.00131904 0.00095835 -0.02143843
v 0.00112130 0.00070249 -0.02124958
v -0.00029189 0.00145569 -0.02134834
v -0.00087091 0.00107545 -0.02158222
v 0.00108694 0.00084345 -0.02157423
v -0.00136199 -0.00040716 -0.02183551
v -0.00119804 -0.00074232 -0.02151818
v -0.00143117 0.00048996 -0.02134312
v -0.00107294 -0.00083453 -0.02124835
v -0.00156973 -0.00006421 -0.02208863
v -0.00083275 -0.00117501 -0.02216664
v -0.00115984 0.00081178 -0.02247877
v -0.00125680 0.00042173 -0.02222423
v -0.00136199 -0.00040716 -0.02248471
v -0.00136199 -0.00040716 -0.02280931
v -0.00101877 0.00085662 -0.02287879
v -0.00136199 -0.00040716 -0.02313391
v -0.00101877 0.00085662 -0.02320339
v -0.00136199 -0.00040716 -0.02345851
v -0.00101877 0.00085662 -0.02352799
v -0.00140214 -0.00019265 -0.02379566
v -0.00081371 -0.00115804 -0.02377670
v -0.00112900 0.00108106 -0.02403031
v -0.00078324 0.00102299 -0.02384735
v -0.00136199 -0.00040716 -0.02410771
v -0.00112900 0.00108106 -0.02435491
v -0.00101877 0.00085662 -0.02417719
v -0.00136199 -0.00040716 -0.02443231
v -0.00119857 0.00070872 -0.02457791
v -0.00136199 -0.00040716 -0.02475691
v -0.00101877 0.00085662 -0.02482639
v -0.00156973 -0.00006421 -0.02501003
v -0.00079086 -0.00130611 -0.02501029
v -0.00125680 0.00042173 -0.02514564
v -0.00156973 -0.00006422 -0.02533463
v -0.00076248 -0.00123790 -0.02525530
v -0.00115984 0.00081178 -0.02572477
v -0.00125680 0.00042173 -0.02547024
v -0.00137505 -0.00047733 -0.02556254
v -0.00156973 -0.00006421 -0.02598383
v -0.00105488 -0.00086598 -0.02578518
v -0.00095217 0.00119056 -0.02624939
v -0.00148291 0.00017063 -0.02615838
v -0.00073552 -0.00133531 -0.02624939
v -0.00129014 -0.00066760 -0.02613327
v -0.00096784 -0.00062975 -0.02786001
v 0.00000002 0.00000000 -0.02728265
v -0.00102929 0.00052332 -0.02786000
v 0.00006147 -0.00115306 -0.02786000
v 0.00102933 -0.00052332 -0.02786000
v 0.00096788 0.00062975 -0.02786000
v -0.00006143 0.00115306 -0.02786000
v -0.00102929 0.00052332 -0.02890000
v -0.00096784 -0.00062975 -0.02890001
v 0.00006147 -0.00115306 -0.02890000
v 0.00102933 -0.00052332 -0.02890000
v 0.00096788 0.00062975 -0.02890000
v -0.00006143 0.00115306 -0.02890000
v -0.00115079 -0.00127723 -0.02891206
v 0.00053800 -0.00159275 -0.02890170
v 0.00146416 -0.00085298 -0.02889639
v -0.00083256 -0.00229767 -0.02811445
v -0.00149614 -0.00248020 -0.02725085
v 0.00015169 -0.00284596 -0.02725000
v -0.00181714 -0.00133698 -0.02835990
v 0.00011976 -0.00224692 -0.02836681
v 0.00107209 -0.00219617 -0.02811445
v 0.00175127 -0.00230710 -0.02725094
v 0.00194898 -0.00113628 -0.02835990
v -0.00156851 -0.00000226 -0.02725001
v -0.00082546 -0.00128165 -0.02725000
v 0.01332258 -0.00148996 -0.02725000
v 0.01283147 -0.00151515 -0.02624939
v 0.01393693 -0.00115892 -0.02614386
v 0.01428167 -0.00082548 -0.02725000
v 0.01451517 -0.00016855 -0.02624939
v 0.01448998 0.00032256 -0.02725000
v 0.01419058 0.00095219 -0.02624939
v 0.01382550 0.00128165 -0.02725000
v 0.01316857 0.00151515 -0.02624938
v 0.01267746 0.00148996 -0.02725000
v 0.01045459 0.00142040 -0.02725152
v 0.01020666 -0.00077001 -0.02725064
v 0.01058038 -0.00011204 -0.02817402
v 0.01538007 0.00168289 -0.02725153
v 0.01541786 0.00014576 -0.02817403
v 0.01585940 -0.00046877 -0.02725064
v 0.01062293 0.00111346 -0.02781357
v 0.01133775 0.00023383 -0.02890041
v 0.01177599 0.00118862 -0.02890202
v 0.01192938 0.00224759 -0.02810112
v 0.01177080 0.00257129 -0.02725000
v 0.01330738 0.00286682 -0.02724873
v 0.01329873 0.00166868 -0.02889936
v 0.01382573 0.00234865 -0.02810112
v 0.01524531 0.00135979 -0.02781357
v 0.01440930 0.00099260 -0.02890953
v 0.01450937 -0.00023085 -0.02598408
v 0.01424166 0.00072818 -0.02606732
v 0.01366006 -0.00142569 -0.02598382
v 0.01318312 0.00143217 -0.02605554
v 0.01436961 -0.00036047 -0.02574392
v 0.01385189 0.00139017 -0.02565823
v 0.01368144 0.00119519 -0.02579403
v 0.01390405 -0.00123051 -0.02565948
v 0.01277413 -0.00141588 -0.02574642
v 0.01366006 -0.00142569 -0.02533462
v 0.01436961 -0.00036047 -0.02541932
v 0.01282785 -0.00136498 -0.02546943
v 0.01419497 0.00075849 -0.02539970
v 0.01314606 0.00141440 -0.02540633
v 0.01447485 -0.00054139 -0.02501002
v 0.01368144 0.00119519 -0.02514483
v 0.01425684 -0.00042173 -0.02514563
v 0.01385189 0.00139017 -0.02500903
v 0.01306423 -0.00156975 -0.02501002
v 0.01282785 -0.00136498 -0.02514483
v 0.01406460 0.00115538 -0.02468542
v 0.01263570 0.00148280 -0.02468569
v 0.01368143 0.00119519 -0.02482023
v 0.01436917 -0.00035859 -0.02476946
v 0.01334480 -0.00158320 -0.02467611
v 0.01282786 -0.00136498 -0.02482023
v 0.01406459 0.00115539 -0.02436082
v 0.01263785 0.00141868 -0.02441266
v 0.01368143 0.00119519 -0.02449563
v 0.01436917 -0.00035859 -0.02444485
v 0.01334480 -0.00158320 -0.02435151
v 0.01282785 -0.00136498 -0.02449563
v 0.01457591 0.00004191 -0.02404140
v 0.01375055 0.00122165 -0.02412342
v 0.01425684 -0.00042173 -0.02417183
v 0.01362939 -0.00143083 -0.02403031
v 0.01282785 -0.00136498 -0.02417103
v 0.01457591 0.00004191 -0.02371680
v 0.01317219 0.00136498 -0.02384643
v 0.01431112 0.00012375 -0.02384089
v 0.01325505 0.00161034 -0.02371063
v 0.01361345 -0.00118129 -0.02385259
v 0.01362939 -0.00143083 -0.02370571
v 0.01263785 0.00141868 -0.02408806
v 0.01423053 0.00090403 -0.02338728
v 0.01322591 0.00141588 -0.02347422
v 0.01441417 -0.00014505 -0.02345851
v 0.01225295 -0.00125925 -0.02343886
v 0.01355001 -0.00137579 -0.02343442
v 0.01442570 0.00066004 -0.02306242
v 0.01322591 0.00141588 -0.02314962
v 0.01431112 0.00012375 -0.02319169
v 0.01415540 -0.00106457 -0.02306242
v 0.01339309 -0.00132687 -0.02320522
v 0.01276917 -0.00150935 -0.02306268
v 0.01439095 0.00022734 -0.02281658
v 0.01325505 0.00161034 -0.02273682
v 0.01317218 0.00136498 -0.02287263
v 0.01339309 -0.00132687 -0.02288062
v 0.01415540 -0.00106457 -0.02273782
v 0.01276917 -0.00150935 -0.02273808
v 0.01439095 0.00022734 -0.02249198
v 0.01325505 0.00161034 -0.02241222
v 0.01317218 0.00136498 -0.02254803
v 0.01361345 -0.00118129 -0.02255419
v 0.01415540 -0.00106457 -0.02241322
v 0.01276917 -0.00150935 -0.02241348
v 0.01406459 0.00115539 -0.02208862
v 0.01263569 0.00148280 -0.02208888
v 0.01368143 0.00119519 -0.02222343
v 0.01436960 -0.00036047 -0.02217332
v 0.01390405 -0.00123051 -0.02208888
v 0.01279171 -0.00144928 -0.02214046
v 0.01434615 0.00051478 -0.02165872
v 0.01375055 0.00122165 -0.02185122
v 0.01425684 -0.00042173 -0.02189963
v 0.01415540 -0.00106458 -0.02176402
v 0.01277412 -0.00141588 -0.02185122
v 0.01415851 -0.00105555 -0.02144670
v 0.01282839 -0.00140150 -0.02149522
v 0.01393131 -0.00097369 -0.02124636
v 0.01442570 0.00066004 -0.02143942
v 0.01412130 0.00070249 -0.02124958
v 0.01288387 0.00152420 -0.02136758
v 0.01316953 0.00127721 -0.02157515
v 0.01425684 -0.00042173 -0.02157502
v 0.01263785 0.00141868 -0.02181586
v 0.01198123 0.00085662 -0.02158038
v 0.01152519 0.00054139 -0.02176402
v 0.01180196 -0.00074232 -0.02151817
v 0.01176951 -0.00090403 -0.02176428
v 0.01156883 0.00048996 -0.02134312
v 0.01192706 -0.00083453 -0.02124834
v 0.01152519 0.00054139 -0.02208862
v 0.01167748 -0.00009134 -0.02189963
v 0.01189662 -0.00089686 -0.02216032
v 0.01180483 0.00068142 -0.02222343
v 0.01163729 0.00052961 -0.02246915
v 0.01186437 -0.00086296 -0.02249414
v 0.01163729 0.00052961 -0.02279375
v 0.01180196 -0.00074232 -0.02281658
v 0.01196540 0.00106059 -0.02310982
v 0.01156012 -0.00064178 -0.02306760
v 0.01187100 0.00108106 -0.02338111
v 0.01163801 -0.00040716 -0.02345851
v 0.01183607 -0.00061607 -0.02319169
v 0.01184016 0.00081178 -0.02377717
v 0.01187546 0.00063405 -0.02352552
v 0.01165840 -0.00094031 -0.02371829
v 0.01170924 0.00080616 -0.02403304
v 0.01159786 -0.00019265 -0.02412025
v 0.01194512 -0.00086598 -0.02383757
v 0.01220914 -0.00130611 -0.02403648
v 0.01152519 0.00054139 -0.02436082
v 0.01176951 -0.00090403 -0.02436108
v 0.01152519 0.00054140 -0.02468542
v 0.01167748 -0.00009134 -0.02449643
v 0.01176951 -0.00090403 -0.02468569
v 0.01208389 0.00107682 -0.02491811
v 0.01178099 -0.00076688 -0.02508804
v 0.01158150 0.00000790 -0.02489303
v 0.01196836 0.00106284 -0.02538122
v 0.01200026 0.00087059 -0.02514563
v 0.01160576 -0.00024347 -0.02539970
v 0.01220914 -0.00130611 -0.02533489
v 0.01196207 0.00102371 -0.02571215
v 0.01156012 -0.00064178 -0.02566440
v 0.01195043 0.00107375 -0.02602991
v 0.01167748 -0.00009134 -0.02579482
v 0.01168100 -0.00095835 -0.02598283
v 0.01204783 0.00119056 -0.02624938
v 0.01148487 0.00016855 -0.02624938
v 0.01184110 -0.00093692 -0.02614386
v 0.01203216 -0.00062975 -0.02786000
v 0.01300002 0.00000000 -0.02728265
v 0.01197071 0.00052332 -0.02786000
v 0.01306147 -0.00115306 -0.02786000
v 0.01402933 -0.00052332 -0.02786000
v 0.01396788 0.00062975 -0.02786000
v 0.01293857 0.00115306 -0.02786000
v 0.01197071 0.00052332 -0.02890000
v 0.01203216 -0.00062975 -0.02890000
v 0.01306147 -0.00115306 -0.02890000
v 0.01402933 -0.00052332 -0.02890000
v 0.01396788 0.00062975 -0.02890000
v 0.01293857 0.00115306 -0.02890000
v 0.01184921 -0.00127723 -0.02891205
v 0.01353800 -0.00159276 -0.02890170
v 0.01446416 -0.00085298 -0.02889639
v 0.01216744 -0.00229767 -0.02811445
v 0.01150386 -0.00248020 -0.02725084
v 0.01315168 -0.00284596 -0.02725000
v 0.01118286 -0.00133698 -0.02835990
v 0.01311976 -0.00224692 -0.02836680
v 0.01407209 -0.00219617 -0.02811445
v 0.01475127 -0.00230710 -0.02725093
v 0.01494898 -0.00113628 -0.02835990
v 0.01151006 -0.00032256 -0.02725000
v 0.01217454 -0.00128165 -0.02725000
v 0.01171837 0.00082548 -0.02725000
v -0.00149025 0.00017078 0.02725000
v -0.00132948 -0.00074600 0.02725000
v -0.00152260 -0.00007609 0.02624938
v -0.00119798 0.00094280 0.02725000
v -0.00107344 0.00102990 0.02614088
v -0.00041252 0.00144216 0.02725000
v -0.00007609 0.00152260 0.02624938
v 0.00041258 0.00146759 0.02725000
v 0.00100567 0.00109979 0.02614385
v 0.00132948 0.00074600 0.02725000
v 0.00152260 0.00007609 0.02624938
v 0.00217217 -0.00194381 0.02725152
v 0.00018204 -0.00289183 0.02725063
v 0.00068236 -0.00232414 0.02817401
v 0.00081569 0.00279846 0.02725152
v -0.00064990 0.00233342 0.02817402
v -0.00137474 0.00255067 0.02725063
v 0.00182714 -0.00188466 0.02781357
v 0.00076262 -0.00149541 0.02890040
v 0.00152254 -0.00077002 0.02890202
v 0.00247377 -0.00028000 0.02810111
v 0.00283147 -0.00032447 0.02725000
v 0.00261028 0.00122456 0.02724872
v 0.00148033 0.00082605 0.02889935
v 0.00195151 0.00154582 0.02810111
v 0.00055412 0.00256580 0.02781357
v 0.00047932 0.00165577 0.02890952
v -0.00013863 0.00152060 0.02598408
v 0.00143940 0.00076574 0.02598282
v -0.00138290 0.00074553 0.02598381
v -0.00128416 -0.00010586 0.02611900
v -0.00135180 -0.00070999 0.02598408
v 0.00047635 0.00155928 0.02565822
v 0.00131454 -0.00017160 0.02579482
v 0.00044333 0.00130241 0.02579402
v 0.00155930 -0.00044043 0.02564991
v -0.00155927 0.00047635 0.02565822
v -0.00130241 0.00044333 0.02579402
v -0.00138290 0.00074553 0.02533461
v -0.00005975 0.00142066 0.02540632
v -0.00114880 0.00066159 0.02547022
v -0.00120539 -0.00074180 0.02539969
v 0.00109440 0.00099812 0.02538121
v -0.00099233 0.00121799 0.02501001
v 0.00067281 0.00129996 0.02506713
v -0.00103362 0.00090799 0.02514482
v -0.00143940 -0.00076574 0.02500902
v -0.00105086 -0.00080818 0.02514562
v 0.00138897 0.00027650 0.02509471
v -0.00138254 -0.00006065 0.02482822
v -0.00138290 0.00074553 0.02468541
v -0.00010652 0.00142234 0.02476633
v -0.00135180 -0.00070998 0.02468568
v 0.00109440 0.00099813 0.02473201
v 0.00097720 0.00117325 0.02436108
v 0.00142110 0.00023372 0.02443883
v -0.00010652 0.00142234 0.02444173
v -0.00138254 -0.00006065 0.02450361
v -0.00138290 0.00074553 0.02436082
v -0.00135179 -0.00070998 0.02436108
v -0.00138254 -0.00006065 0.02417902
v -0.00138290 0.00074553 0.02403621
v -0.00010651 0.00142234 0.02411713
v -0.00135179 -0.00070999 0.02403648
v 0.00094717 0.00111655 0.02408805
v -0.00138254 -0.00006065 0.02385442
v -0.00138290 0.00074553 0.02371161
v -0.00010651 0.00142234 0.02379253
v -0.00135179 -0.00070998 0.02371188
v 0.00094717 0.00111655 0.02376345
v 0.00152060 0.00013863 0.02403648
v -0.00138254 -0.00006065 0.02352981
v -0.00138290 0.00074553 0.02338701
v -0.00010651 0.00142234 0.02346793
v -0.00135179 -0.00070998 0.02338728
v 0.00094717 0.00111656 0.02343885
v 0.00152060 0.00013863 0.02371188
v -0.00138254 -0.00006064 0.02320522
v -0.00138290 0.00074553 0.02306241
v -0.00010651 0.00142234 0.02314333
v -0.00135179 -0.00070998 0.02306268
v 0.00094717 0.00111655 0.02311425
v 0.00152060 0.00013863 0.02338728
v -0.00047378 0.00150357 0.02274300
v 0.00121799 0.00099234 0.02273781
v 0.00090800 0.00103362 0.02287262
v -0.00080817 0.00105086 0.02287342
v -0.00155780 0.00012889 0.02273190
v -0.00123442 -0.00060747 0.02287262
v 0.00152060 0.00013863 0.02306268
v 0.00097720 0.00117325 0.02241348
v 0.00142110 0.00023372 0.02249123
v -0.00005074 0.00136388 0.02253916
v 0.00007838 0.00141638 0.02229622
v -0.00138290 0.00074553 0.02241321
v -0.00138254 -0.00006065 0.02255601
v -0.00135180 -0.00070998 0.02241348
v 0.00097720 0.00117325 0.02208888
v 0.00155928 -0.00047635 0.02208762
v 0.00137293 0.00008883 0.02222342
v -0.00076574 0.00143940 0.02208762
v -0.00130241 0.00044333 0.02222342
v -0.00152059 -0.00013863 0.02208888
v -0.00138254 -0.00006065 0.02190681
v -0.00138290 0.00074553 0.02176401
v -0.00010651 0.00142234 0.02184493
v -0.00135179 -0.00070998 0.02176428
v 0.00094717 0.00111655 0.02181585
v -0.00137538 0.00075140 0.02144670
v -0.00136495 -0.00067544 0.02140468
v -0.00122397 0.00056327 0.02124636
v 0.00006855 0.00144262 0.02127169
v 0.00094717 0.00111656 0.02149125
v 0.00147137 0.00019826 0.02134834
v -0.00008883 0.00137292 0.02157422
v -0.00136189 -0.00008226 0.02156976
v 0.00152060 0.00013863 0.02176428
v 0.00114180 -0.00068414 0.02158038
v 0.00099234 -0.00121799 0.02176401
v -0.00031151 -0.00137453 0.02151817
v -0.00031151 -0.00137453 0.02184277
v 0.00092949 -0.00119348 0.02134311
v -0.00043944 -0.00128630 0.02124834
v 0.00114180 -0.00068414 0.02190498
v 0.00027651 -0.00138897 0.02217331
v -0.00082976 -0.00114661 0.02215369
v 0.00099234 -0.00121799 0.02241321
v -0.00031151 -0.00137453 0.02249197
v 0.00130601 -0.00064782 0.02279074
v 0.00114180 -0.00068414 0.02255418
v 0.00027466 -0.00138842 0.02282185
v -0.00097720 -0.00117325 0.02273808
v 0.00099234 -0.00121799 0.02306241
v -0.00031151 -0.00137453 0.02314117
v 0.00114180 -0.00068414 0.02320338
v 0.00099234 -0.00121799 0.02338701
v -0.00031151 -0.00137453 0.02346577
v 0.00114180 -0.00068414 0.02352798
v 0.00099234 -0.00121799 0.02371161
v -0.00031151 -0.00137454 0.02379037
v 0.00114180 -0.00068414 0.02385258
v 0.00099234 -0.00121799 0.02403621
v -0.00031151 -0.00137453 0.02411497
v 0.00114180 -0.00068414 0.02417718
v 0.00099234 -0.00121799 0.02436082
v -0.00031151 -0.00137453 0.02443957
v 0.00138990 -0.00071523 0.02467950
v 0.00114180 -0.00068414 0.02450178
v -0.00013767 -0.00157042 0.02469060
v 0.00114180 -0.00068414 0.02482638
v 0.00076574 -0.00143940 0.02500902
v -0.00020326 -0.00130115 0.02481469
v 0.00138291 -0.00074553 0.02533462
v 0.00060747 -0.00123442 0.02514482
v -0.00015956 -0.00156294 0.02533461
v 0.00114880 -0.00066159 0.02547022
v 0.00027466 -0.00138842 0.02574325
v -0.00017160 -0.00131453 0.02547022
v -0.00082976 -0.00114661 0.02572429
v 0.00118196 -0.00087538 0.02608341
v -0.00015956 -0.00156294 0.02598381
v -0.00051238 -0.00143581 0.02624938
v -0.00106567 -0.00101612 0.02615217
v 0.00065297 -0.00137758 0.02624938
v -0.00028008 -0.00112022 0.02786000
v 0.00000000 0.00000000 0.02728265
v 0.00083010 -0.00080266 0.02786000
v -0.00111018 -0.00031756 0.02786000
v -0.00083010 0.00080266 0.02786000
v 0.00028008 0.00112022 0.02786000
v 0.00111018 0.00031756 0.02786000
v 0.00083010 -0.00080266 0.02890000
v -0.00028008 -0.00112022 0.02890000
v -0.00111018 -0.00031756 0.02890000
v -0.00083010 0.00080266 0.02890000
v 0.00028008 0.00112022 0.02890000
v 0.00111018 0.00031756 0.02890000
v -0.00083263 -0.00150413 0.02891205
v -0.00168113 -0.00001027 0.02890169
v -0.00128344 0.00110637 0.02889638
v -0.00190107 -0.00153571 0.02811444
v -0.00185746 -0.00222255 0.02725084
v -0.00274010 -0.00078378 0.02724999
v -0.00067203 -0.00215359 0.02835989
v -0.00216334 -0.00061880 0.02836680
v -0.00242562 0.00029810 0.02811444
v -0.00275177 0.00090408 0.02725093
v -0.00170923 0.00147245 0.02835989
v -0.00041258 -0.00146759 0.02725000
v 0.00074600 -0.00132948 0.02725000
v 0.00146759 -0.00041258 0.02725000
f 1 3 2
f 1 2 4
f 5 3 1
f 5 6 3
f 7 6 5
f 7 8 6
f 9 8 7
f 9 10 8
f 11 10 9
f 12 14 13
f 15 17 16
f 18 14 12
f 18 19 14
f 20 19 18
f 21 12 22
f 21 20 18
f 21 18 12
f 21 22 23
f 21 24 20
f 25 21 23
f 25 24 21
f 26 16 27
f 26 15 16
f 25 23 15
f 25 27 24
f 25 15 26
f 25 26 27
f 28 8 29
f 30 8 28
f 30 31 8
f 3 32 2
f 3 31 32
f 6 31 3
f 8 31 6
f 10 29 8
f 33 35 34
f 33 34 36
f 33 37 35
f 38 37 33
f 39 37 38
f 39 40 37
f 31 37 40
f 31 40 32
f 30 37 31
f 28 35 37
f 28 37 30
f 28 34 35
f 41 43 42
f 41 42 44
f 45 38 43
f 45 43 41
f 45 46 38
f 47 46 45
f 38 46 39
f 33 43 38
f 36 42 43
f 36 43 33
f 48 50 49
f 51 50 48
f 45 50 51
f 45 51 47
f 41 49 50
f 41 50 45
f 41 52 49
f 44 52 41
f 53 55 54
f 56 55 53
f 57 56 53
f 48 56 51
f 48 55 56
f 49 55 48
f 49 54 55
f 52 54 49
f 58 60 59
f 61 60 58
f 62 60 61
f 63 62 61
f 53 60 62
f 53 62 57
f 54 59 60
f 54 60 53
f 64 66 65
f 67 64 65
f 61 64 63
f 61 66 64
f 58 66 61
f 58 68 66
f 59 68 58
f 59 69 68
f 70 72 71
f 73 74 70
f 65 74 67
f 65 70 74
f 66 70 65
f 66 72 70
f 68 72 66
f 75 77 76
f 78 79 77
f 78 77 75
f 78 80 79
f 73 80 74
f 73 79 80
f 70 79 73
f 71 77 79
f 71 79 70
f 71 76 77
f 81 75 82
f 83 75 81
f 83 84 75
f 85 84 83
f 78 85 80
f 78 84 85
f 75 84 78
f 76 82 75
f 86 88 87
f 89 86 90
f 91 89 90
f 83 86 89
f 83 89 85
f 81 88 86
f 81 86 83
f 92 94 93
f 95 94 92
f 95 96 94
f 97 96 95
f 97 98 96
f 90 98 91
f 90 96 98
f 86 96 90
f 86 94 96
f 87 94 86
f 87 93 94
f 99 101 100
f 99 100 102
f 103 101 99
f 103 104 101
f 105 104 103
f 97 104 105
f 97 105 98
f 95 101 104
f 95 104 97
f 92 101 95
f 92 100 101
f 106 108 107
f 109 106 107
f 103 106 105
f 103 108 106
f 99 108 103
f 99 110 108
f 102 111 110
f 102 110 99
f 112 114 113
f 115 114 112
f 115 116 114
f 115 118 117
f 115 117 116
f 112 118 115
f 113 119 112
f 120 119 113
f 107 119 109
f 107 112 119
f 108 112 107
f 108 118 112
f 110 118 108
f 110 117 118
f 121 117 110
f 121 122 117
f 123 122 121
f 109 119 122
f 109 122 123
f 120 122 119
f 124 122 120
f 124 117 122
f 116 117 124
f 114 116 124
f 114 125 113
f 114 124 125
f 120 125 124
f 120 113 125
f 126 127 111
f 126 111 102
f 126 109 127
f 105 109 126
f 105 106 109
f 123 127 109
f 121 127 123
f 121 111 127
f 110 111 121
f 128 100 92
f 129 130 100
f 129 100 128
f 98 105 130
f 98 130 129
f 126 130 105
f 126 100 130
f 102 100 126
f 131 93 87
f 131 132 93
f 133 132 131
f 91 132 133
f 91 98 132
f 129 132 98
f 93 132 129
f 128 93 129
f 92 93 128
f 134 131 88
f 134 88 81
f 135 133 131
f 135 131 134
f 85 89 133
f 85 133 135
f 91 133 89
f 87 88 131
f 136 134 82
f 136 82 76
f 136 137 134
f 138 137 136
f 80 137 138
f 80 85 137
f 135 137 85
f 134 137 135
f 81 82 134
f 139 76 71
f 139 136 76
f 140 138 136
f 140 136 139
f 74 138 140
f 74 80 138
f 141 72 68
f 142 143 141
f 142 74 143
f 67 74 142
f 140 143 74
f 139 143 140
f 139 141 143
f 71 72 141
f 71 141 139
f 144 69 59
f 144 145 69
f 146 145 144
f 63 64 145
f 63 145 146
f 142 145 64
f 142 64 67
f 141 145 142
f 141 69 145
f 68 69 141
f 147 59 54
f 147 148 59
f 149 150 148
f 149 148 147
f 57 62 150
f 57 150 149
f 146 150 62
f 146 62 63
f 148 150 146
f 144 148 146
f 59 148 144
f 52 151 54
f 152 151 52
f 152 153 151
f 154 153 152
f 51 56 153
f 51 153 154
f 149 153 56
f 149 56 57
f 151 153 149
f 147 151 149
f 54 151 147
f 155 152 52
f 155 52 44
f 155 154 152
f 156 154 155
f 47 154 156
f 47 51 154
f 157 156 42
f 157 42 36
f 158 156 157
f 39 46 158
f 47 158 46
f 156 158 47
f 155 42 156
f 44 42 155
f 159 157 34
f 160 157 159
f 160 40 157
f 32 40 160
f 158 40 39
f 157 40 158
f 36 34 157
f 161 159 29
f 162 159 161
f 162 163 159
f 2 32 163
f 160 163 32
f 159 163 160
f 34 29 159
f 28 29 34
f 164 166 165
f 167 164 165
f 167 165 168
f 165 169 168
f 165 170 169
f 165 166 170
f 164 172 171
f 164 171 166
f 167 173 172
f 167 172 164
f 168 174 173
f 168 173 167
f 169 175 174
f 169 174 168
f 170 176 175
f 170 175 169
f 166 171 176
f 166 176 170
f 177 19 172
f 178 177 173
f 177 172 173
f 172 19 171
f 171 19 20
f 179 178 174
f 178 173 174
f 171 20 176
f 174 175 27
f 179 174 27
f 176 20 24
f 175 176 24
f 175 24 27
f 19 177 14
f 16 179 27
f 180 182 181
f 183 181 13
f 183 177 180
f 183 13 14
f 183 180 181
f 183 14 177
f 184 177 178
f 184 180 177
f 184 182 180
f 185 186 182
f 185 184 178
f 185 182 184
f 187 17 186
f 187 178 179
f 187 186 185
f 187 185 178
f 187 179 16
f 187 16 17
f 188 13 181
f 4 188 181
f 4 181 182
f 189 13 188
f 1 182 186
f 1 4 182
f 189 12 13
f 5 1 186
f 190 12 189
f 22 190 11
f 22 12 190
f 17 7 5
f 17 5 186
f 23 11 9
f 23 22 11
f 15 9 7
f 15 7 17
f 15 23 9
f 190 10 11
f 190 29 10
f 190 161 29
f 189 161 190
f 189 162 161
f 188 162 189
f 188 163 162
f 4 2 163
f 4 163 188
f 191 193 192
f 194 196 195
f 197 194 198
f 199 200 197
f 201 203 202
f 204 205 201
f 206 208 207
f 209 211 210
f 211 213 212
f 210 211 212
f 213 214 212
f 214 216 215
f 212 214 215
f 216 218 217
f 215 216 217
f 218 220 219
f 217 218 219
f 219 220 221
f 211 209 213
f 209 222 213
f 214 213 216
f 213 222 216
f 222 220 218
f 216 222 218
f 223 225 224
f 225 226 224
f 226 227 224
f 227 229 228
f 224 227 228
f 229 231 230
f 228 229 230
f 231 233 232
f 230 231 232
f 232 233 234
f 233 235 234
f 226 225 227
f 225 236 227
f 227 236 229
f 235 233 231
f 236 235 231
f 229 236 231
f 206 191 192
f 206 192 208
f 207 193 191
f 207 196 193
f 207 191 206
f 205 196 207
f 204 195 196
f 204 196 205
f 201 194 195
f 201 195 204
f 202 198 194
f 202 194 201
f 203 197 198
f 203 198 202
f 237 199 197
f 237 197 203
f 238 199 237
f 238 200 199
f 239 240 200
f 239 200 238
f 241 242 240
f 241 240 239
f 243 244 242
f 243 242 241
f 245 246 244
f 245 244 243
f 247 248 246
f 247 249 248
f 247 246 245
f 250 249 247
f 208 192 249
f 208 249 250
f 212 244 248
f 210 248 192
f 210 212 248
f 215 244 212
f 251 192 193
f 251 210 192
f 217 242 244
f 217 244 215
f 252 251 193
f 219 242 217
f 196 252 193
f 200 242 219
f 221 200 219
f 196 253 252
f 197 221 254
f 197 200 221
f 194 254 253
f 194 253 196
f 194 197 254
f 250 245 232
f 232 245 230
f 208 250 234
f 250 232 234
f 245 243 228
f 230 245 228
f 208 234 255
f 228 243 224
f 224 243 239
f 208 255 207
f 207 255 256
f 207 256 205
f 224 239 237
f 224 237 223
f 256 257 205
f 223 237 203
f 205 257 201
f 257 223 203
f 201 257 203
f 258 235 259
f 235 236 259
f 259 236 260
f 236 225 261
f 262 260 261
f 260 236 261
f 234 235 255
f 235 258 255
f 258 259 255
f 259 260 256
f 255 259 256
f 260 262 257
f 256 260 257
f 262 261 257
f 261 225 223
f 257 261 223
f 263 220 264
f 220 222 264
f 264 222 265
f 222 209 266
f 267 265 266
f 265 222 266
f 220 263 221
f 263 264 254
f 221 263 254
f 264 265 253
f 254 264 253
f 265 267 252
f 253 265 252
f 267 266 252
f 266 209 251
f 252 266 251
f 251 209 210
f 247 245 250
f 239 243 241
f 238 237 239
f 240 242 200
f 248 244 246
f 249 192 248
f 268 270 269
f 271 268 272
f 273 274 271
f 275 277 276
f 278 279 275
f 280 282 281
f 283 285 284
f 285 287 286
f 284 285 286
f 287 288 286
f 288 290 289
f 286 288 289
f 290 292 291
f 289 290 291
f 291 292 293
f 292 294 293
f 293 294 295
f 285 283 287
f 283 296 287
f 288 287 290
f 287 296 290
f 296 294 292
f 290 296 292
f 297 299 298
f 299 300 298
f 300 301 298
f 301 303 302
f 298 301 302
f 303 305 304
f 302 303 304
f 305 307 306
f 304 305 306
f 307 309 308
f 306 307 308
f 300 299 301
f 299 310 301
f 301 310 303
f 309 307 305
f 310 309 305
f 303 310 305
f 280 312 311
f 280 311 282
f 281 313 312
f 281 270 313
f 281 312 280
f 279 270 281
f 278 269 270
f 278 270 279
f 275 268 269
f 275 269 278
f 276 272 268
f 276 268 275
f 277 271 272
f 277 272 276
f 314 273 271
f 314 271 277
f 315 273 314
f 315 274 273
f 316 317 274
f 316 274 315
f 318 319 317
f 318 317 316
f 320 321 319
f 320 319 318
f 322 323 321
f 322 321 320
f 324 325 323
f 324 326 325
f 324 323 322
f 327 326 324
f 282 311 326
f 282 326 327
f 286 321 325
f 284 286 325
f 289 321 286
f 284 325 312
f 328 284 312
f 291 319 321
f 291 321 289
f 329 312 313
f 329 328 312
f 293 319 291
f 330 329 313
f 270 330 313
f 274 319 293
f 295 274 293
f 271 295 331
f 271 274 295
f 268 331 330
f 268 330 270
f 268 271 331
f 327 322 306
f 306 322 304
f 282 327 306
f 282 306 308
f 322 320 302
f 304 322 302
f 302 320 298
f 298 320 316
f 308 332 281
f 282 308 281
f 281 332 333
f 281 333 279
f 298 316 314
f 298 314 297
f 333 334 279
f 297 314 277
f 279 334 275
f 334 297 277
f 275 334 277
f 335 309 336
f 309 310 336
f 336 310 337
f 310 299 338
f 339 337 338
f 337 310 338
f 309 335 308
f 335 336 332
f 308 335 332
f 336 337 333
f 332 336 333
f 337 339 334
f 333 337 334
f 339 338 334
f 338 299 297
f 334 338 297
f 340 294 341
f 294 296 341
f 341 296 342
f 296 283 343
f 344 342 343
f 342 296 343
f 294 340 295
f 340 341 331
f 295 340 331
f 341 342 331
f 331 342 330
f 342 344 330
f 344 343 329
f 330 344 329
f 343 283 328
f 329 343 328
f 328 283 284
f 324 322 327
f 316 320 318
f 315 314 316
f 317 319 274
f 325 321 323
f 311 312 325
f 311 325 326
f 345 347 346
f 348 347 345
f 348 349 347
f 350 349 348
f 350 351 349
f 350 352 351
f 353 352 350
f 354 356 355
f 357 359 358
f 360 356 354
f 360 361 356
f 362 361 360
f 363 354 364
f 363 362 360
f 363 360 354
f 363 364 365
f 363 366 362
f 367 363 365
f 367 366 363
f 368 358 369
f 368 357 358
f 367 365 357
f 367 369 366
f 367 357 368
f 367 368 369
f 370 351 371
f 370 371 372
f 373 351 370
f 374 375 351
f 374 351 373
f 374 346 375
f 376 346 374
f 347 375 346
f 349 351 375
f 349 375 347
f 352 371 351
f 377 373 378
f 377 378 379
f 377 380 373
f 374 380 376
f 373 380 374
f 370 378 373
f 372 378 370
f 381 383 382
f 381 384 383
f 385 384 381
f 385 386 384
f 380 386 387
f 380 384 386
f 377 384 380
f 379 383 384
f 379 384 377
f 388 390 389
f 388 391 390
f 392 391 388
f 393 391 392
f 385 391 393
f 381 391 385
f 381 390 391
f 382 390 381
f 394 396 395
f 394 395 397
f 398 396 394
f 393 398 399
f 392 398 393
f 392 396 398
f 388 396 392
f 388 395 396
f 389 395 388
f 400 402 401
f 400 401 403
f 404 402 400
f 398 404 405
f 394 402 404
f 394 404 398
f 397 401 402
f 397 402 394
f 406 408 407
f 406 407 409
f 410 408 406
f 404 410 411
f 400 408 410
f 400 410 404
f 403 407 408
f 403 408 400
f 412 414 413
f 415 414 412
f 416 415 412
f 406 414 415
f 406 415 410
f 409 413 414
f 409 414 406
f 417 419 418
f 420 419 417
f 416 420 421
f 412 419 420
f 412 420 416
f 413 418 419
f 413 419 412
f 422 418 413
f 423 425 424
f 426 425 423
f 420 426 427
f 417 425 426
f 417 426 420
f 418 424 425
f 418 425 417
f 428 424 418
f 429 431 430
f 432 431 429
f 426 432 433
f 423 431 432
f 423 432 426
f 424 431 423
f 424 430 431
f 434 430 424
f 435 437 436
f 438 439 437
f 438 437 435
f 440 439 438
f 432 440 441
f 429 439 440
f 429 440 432
f 430 437 439
f 430 439 429
f 442 437 430
f 443 444 436
f 443 436 445
f 443 438 444
f 446 438 443
f 446 447 438
f 438 447 440
f 435 444 438
f 436 444 435
f 448 450 449
f 451 452 448
f 453 452 451
f 453 454 452
f 447 452 454
f 446 452 447
f 443 452 446
f 443 448 452
f 445 450 448
f 445 448 443
f 455 457 456
f 458 459 457
f 458 457 455
f 458 460 459
f 458 462 461
f 458 461 460
f 455 462 458
f 453 455 456
f 451 455 453
f 451 462 455
f 448 462 451
f 449 461 462
f 449 462 448
f 463 464 461
f 463 461 449
f 454 464 463
f 454 456 464
f 453 456 454
f 461 464 465
f 460 461 465
f 459 460 465
f 459 466 457
f 459 465 466
f 464 466 465
f 456 466 464
f 456 457 466
f 467 450 445
f 467 463 450
f 468 463 467
f 468 454 463
f 447 454 468
f 449 450 463
f 469 470 436
f 471 470 469
f 471 468 470
f 441 468 471
f 441 447 468
f 440 447 441
f 467 470 468
f 445 470 467
f 445 436 470
f 442 469 437
f 472 471 469
f 472 469 442
f 433 471 472
f 433 441 471
f 432 441 433
f 436 437 469
f 434 473 430
f 474 472 473
f 474 473 434
f 427 472 474
f 427 433 472
f 426 433 427
f 442 473 472
f 442 430 473
f 428 475 424
f 476 474 475
f 476 475 428
f 421 474 476
f 421 427 474
f 420 427 421
f 434 475 474
f 434 424 475
f 422 477 418
f 478 476 477
f 478 477 422
f 479 476 478
f 479 421 476
f 416 421 479
f 428 477 476
f 428 418 477
f 480 413 409
f 480 481 413
f 480 478 481
f 482 478 480
f 411 479 478
f 411 478 482
f 410 415 479
f 410 479 411
f 479 415 416
f 422 481 478
f 422 413 481
f 483 407 403
f 483 484 407
f 485 482 484
f 485 484 483
f 405 482 485
f 405 411 482
f 404 411 405
f 480 484 482
f 409 407 484
f 409 484 480
f 486 401 397
f 487 485 486
f 399 485 487
f 399 405 485
f 398 405 399
f 483 486 485
f 483 401 486
f 403 401 483
f 389 488 395
f 489 488 389
f 489 487 488
f 490 487 489
f 490 399 487
f 393 399 490
f 486 488 487
f 397 488 486
f 397 395 488
f 382 491 390
f 492 491 382
f 492 493 491
f 385 393 493
f 490 493 393
f 489 493 490
f 489 491 493
f 389 491 489
f 389 390 491
f 494 495 383
f 494 383 379
f 496 495 494
f 387 386 496
f 493 386 385
f 493 496 386
f 492 496 493
f 492 495 496
f 382 495 492
f 382 383 495
f 372 494 378
f 497 494 372
f 497 498 494
f 376 498 497
f 376 380 498
f 387 498 380
f 496 498 387
f 494 498 496
f 379 378 494
f 499 371 352
f 499 500 371
f 501 346 502
f 376 502 346
f 497 502 376
f 497 500 502
f 372 500 497
f 372 371 500
f 503 505 504
f 506 503 504
f 506 504 507
f 504 508 507
f 504 509 508
f 504 505 509
f 503 511 510
f 503 510 505
f 506 512 511
f 506 511 503
f 507 513 512
f 507 512 506
f 508 514 513
f 508 513 507
f 509 515 514
f 509 514 508
f 505 510 515
f 505 515 509
f 516 361 511
f 517 516 512
f 516 511 512
f 511 361 510
f 510 361 362
f 518 517 513
f 517 512 513
f 510 362 515
f 513 514 369
f 518 513 369
f 515 362 366
f 514 515 366
f 514 366 369
f 361 516 356
f 358 518 369
f 519 521 520
f 522 520 355
f 522 516 519
f 522 355 356
f 522 519 520
f 522 356 516
f 523 516 517
f 523 519 516
f 523 521 519
f 524 525 521
f 524 523 517
f 524 521 523
f 526 359 525
f 526 517 518
f 526 525 524
f 526 524 517
f 526 518 358
f 526 358 359
f 527 355 520
f 527 520 528
f 345 520 521
f 345 528 520
f 345 521 525
f 527 354 355
f 353 354 527
f 348 345 525
f 364 354 353
f 359 348 525
f 365 353 350
f 365 364 353
f 359 350 348
f 357 350 359
f 357 365 350
f 353 499 352
f 527 500 499
f 527 499 353
f 527 502 500
f 528 501 502
f 528 502 527
f 345 346 501
f 345 501 528
f 529 531 530
f 532 531 529
f 532 533 531
f 534 533 532
f 534 535 533
f 536 535 534
f 536 537 535
f 538 537 536
f 539 541 540
f 542 544 543
f 545 541 539
f 545 546 541
f 547 546 545
f 548 539 549
f 548 547 545
f 548 545 539
f 548 549 550
f 548 551 547
f 552 548 550
f 552 551 548
f 553 543 554
f 553 542 543
f 552 550 542
f 552 554 551
f 552 542 553
f 552 553 554
f 555 531 556
f 557 531 555
f 533 556 531
f 535 556 533
f 537 558 556
f 537 556 535
f 559 561 560
f 562 563 559
f 557 559 563
f 555 559 557
f 556 561 559
f 556 559 555
f 558 561 556
f 564 566 565
f 562 566 563
f 562 565 566
f 559 565 562
f 560 567 565
f 560 565 559
f 560 568 567
f 569 571 570
f 569 570 572
f 573 574 571
f 573 571 569
f 564 571 574
f 565 571 564
f 567 570 571
f 567 571 565
f 568 570 567
f 575 577 576
f 578 577 575
f 579 580 578
f 569 578 580
f 569 580 573
f 572 577 578
f 572 578 569
f 581 583 582
f 584 583 581
f 585 586 584
f 579 584 586
f 578 584 579
f 575 583 584
f 575 584 578
f 576 583 575
f 587 589 588
f 590 589 587
f 590 591 589
f 585 589 591
f 584 589 585
f 581 588 589
f 581 589 584
f 582 588 581
f 592 594 593
f 592 593 595
f 596 594 592
f 597 596 592
f 587 594 596
f 587 596 590
f 588 593 594
f 588 594 587
f 598 593 588
f 599 601 600
f 597 603 602
f 592 601 603
f 592 603 597
f 595 600 601
f 595 601 592
f 604 606 605
f 607 606 604
f 608 606 607
f 609 608 607
f 601 606 608
f 601 608 603
f 599 606 601
f 599 605 606
f 600 605 599
f 610 612 611
f 613 610 614
f 615 613 614
f 607 613 609
f 607 610 613
f 604 610 607
f 604 612 610
f 605 612 604
f 616 618 617
f 619 616 620
f 621 619 620
f 614 619 615
f 614 616 619
f 610 616 614
f 611 618 616
f 611 616 610
f 622 624 623
f 625 624 622
f 626 627 625
f 620 627 621
f 620 625 627
f 616 625 620
f 616 624 625
f 617 624 616
f 628 630 629
f 631 630 628
f 631 632 630
f 626 632 627
f 626 630 632
f 625 630 626
f 622 629 630
f 622 630 625
f 623 629 622
f 633 635 634
f 636 637 635
f 636 635 633
f 638 637 636
f 636 628 639
f 636 639 638
f 636 640 628
f 633 640 636
f 633 634 640
f 631 634 632
f 631 640 634
f 628 640 631
f 629 639 628
f 641 639 629
f 641 642 639
f 643 642 641
f 643 644 642
f 645 644 643
f 632 634 644
f 632 644 645
f 642 644 646
f 638 642 646
f 638 639 642
f 637 638 646
f 637 647 635
f 637 646 647
f 644 647 646
f 634 647 644
f 634 635 647
f 623 641 629
f 648 641 623
f 648 649 641
f 650 649 648
f 650 632 649
f 627 632 650
f 645 649 632
f 643 649 645
f 643 641 649
f 617 651 624
f 652 651 617
f 653 650 651
f 653 651 652
f 621 650 653
f 621 627 650
f 648 651 650
f 623 651 648
f 623 624 651
f 654 652 618
f 654 618 611
f 654 653 652
f 655 653 654
f 615 653 655
f 615 619 653
f 621 653 619
f 617 618 652
f 656 612 605
f 656 654 612
f 657 655 654
f 657 654 656
f 609 613 655
f 609 655 657
f 655 613 615
f 611 612 654
f 658 605 600
f 658 656 605
f 659 660 656
f 659 656 658
f 602 660 659
f 602 608 660
f 603 608 602
f 657 660 608
f 657 608 609
f 656 660 657
f 661 662 600
f 661 600 595
f 663 659 662
f 663 662 661
f 663 602 659
f 597 602 663
f 658 662 659
f 658 600 662
f 664 661 593
f 664 593 598
f 665 666 661
f 665 661 664
f 667 666 665
f 590 596 666
f 590 666 667
f 663 596 597
f 663 666 596
f 661 666 663
f 595 593 661
f 582 598 588
f 668 598 582
f 668 665 598
f 669 665 668
f 669 591 665
f 585 591 669
f 667 591 590
f 665 591 667
f 664 598 665
f 576 582 583
f 670 582 576
f 670 671 582
f 672 671 670
f 672 586 671
f 579 586 672
f 669 586 585
f 669 671 586
f 668 671 669
f 668 582 671
f 673 577 572
f 674 580 675
f 573 580 674
f 672 580 579
f 672 675 580
f 670 675 672
f 670 673 675
f 576 673 670
f 576 577 673
f 676 570 568
f 676 677 570
f 678 674 677
f 678 677 676
f 679 574 674
f 679 674 678
f 564 574 679
f 674 574 573
f 675 677 674
f 673 677 675
f 572 570 677
f 572 677 673
f 680 568 560
f 680 676 568
f 681 678 676
f 681 676 680
f 681 566 678
f 563 566 681
f 679 566 564
f 678 566 679
f 682 561 558
f 682 680 561
f 682 683 680
f 684 683 682
f 684 563 683
f 557 563 684
f 681 683 563
f 680 683 681
f 560 561 680
f 685 558 537
f 685 682 558
f 686 682 685
f 686 687 682
f 530 531 687
f 684 531 557
f 684 687 531
f 682 687 684
f 688 690 689
f 691 688 689
f 691 689 692
f 689 693 692
f 689 694 693
f 689 690 694
f 688 696 695
f 688 695 690
f 691 697 696
f 691 696 688
f 692 698 697
f 692 697 691
f 693 699 698
f 693 698 692
f 694 700 699
f 694 699 693
f 690 695 700
f 690 700 694
f 701 546 696
f 702 701 697
f 701 696 697
f 696 546 695
f 695 546 547
f 703 702 698
f 702 697 698
f 695 547 700
f 698 699 554
f 703 698 554
f 700 547 551
f 699 700 551
f 699 551 554
f 546 701 541
f 543 703 554
f 704 706 705
f 707 705 540
f 707 701 704
f 707 540 541
f 707 704 705
f 707 541 701
f 708 701 702
f 708 704 701
f 708 706 704
f 709 710 706
f 709 708 702
f 709 706 708
f 711 544 710
f 711 702 703
f 711 710 709
f 711 709 702
f 711 703 543
f 711 543 544
f 712 540 705
f 712 705 713
f 529 705 706
f 529 713 705
f 529 706 710
f 714 539 540
f 714 540 712
f 532 529 710
f 549 714 538
f 549 539 714
f 544 534 532
f 544 532 710
f 550 538 536
f 550 549 538
f 542 536 534
f 542 534 544
f 542 550 536
f 538 685 537
f 714 685 538
f 714 686 685
f 712 686 714
f 712 687 686
f 713 687 712
f 713 530 687
f 529 530 713
f 715 717 716
f 718 719 717
f 718 717 715
f 720 721 719
f 720 719 718
f 722 721 720
f 722 723 721
f 724 723 722
f 724 725 723
f 726 728 727
f 729 731 730
f 732 728 726
f 732 733 728
f 734 733 732
f 735 726 736
f 735 734 732
f 735 732 726
f 735 736 737
f 735 738 734
f 739 735 737
f 739 738 735
f 740 730 741
f 740 729 730
f 739 737 729
f 739 741 738
f 739 729 740
f 739 740 741
f 742 723 743
f 742 719 723
f 744 719 742
f 744 745 719
f 746 745 744
f 719 745 717
f 721 723 719
f 747 749 748
f 747 748 750
f 751 752 749
f 751 749 747
f 744 752 746
f 742 749 752
f 742 752 744
f 743 749 742
f 743 748 749
f 753 755 754
f 756 755 753
f 751 755 756
f 747 754 755
f 747 755 751
f 747 757 754
f 750 757 747
f 758 760 759
f 761 760 758
f 761 762 760
f 753 760 762
f 753 762 756
f 754 760 753
f 754 759 760
f 757 759 754
f 757 763 759
f 764 766 765
f 767 764 765
f 758 764 761
f 758 766 764
f 759 766 758
f 759 768 766
f 763 768 759
f 769 771 770
f 772 771 773
f 774 772 773
f 765 772 767
f 765 771 772
f 766 771 765
f 768 771 766
f 768 770 771
f 775 777 776
f 778 775 776
f 773 775 774
f 773 777 775
f 771 777 773
f 769 777 771
f 769 779 777
f 770 779 769
f 780 782 781
f 783 780 781
f 776 780 778
f 776 782 780
f 777 782 776
f 779 782 777
f 779 784 782
f 785 784 779
f 786 788 787
f 789 786 787
f 781 786 783
f 781 788 786
f 782 788 781
f 784 788 782
f 784 790 788
f 791 790 784
f 792 794 793
f 795 792 793
f 787 792 789
f 787 794 792
f 788 794 787
f 790 794 788
f 790 796 794
f 797 796 790
f 798 800 799
f 798 801 800
f 802 801 798
f 802 803 801
f 793 803 795
f 793 801 803
f 794 801 793
f 794 800 801
f 796 800 794
f 804 800 796
f 805 807 806
f 808 807 805
f 809 807 808
f 810 807 809
f 811 810 809
f 798 807 810
f 798 810 802
f 799 807 798
f 799 806 807
f 812 814 813
f 812 808 814
f 815 808 812
f 815 816 808
f 817 816 815
f 809 816 811
f 808 816 809
f 805 814 808
f 806 814 805
f 818 820 819
f 821 818 819
f 815 818 817
f 815 820 818
f 812 820 815
f 812 822 820
f 813 822 812
f 823 825 824
f 826 825 823
f 827 828 826
f 826 829 827
f 823 829 826
f 823 830 829
f 824 830 823
f 819 830 821
f 819 829 830
f 820 829 819
f 822 829 820
f 822 827 829
f 831 827 822
f 831 832 827
f 833 832 831
f 833 834 832
f 835 834 833
f 821 830 834
f 821 834 835
f 834 830 824
f 832 834 836
f 828 832 836
f 828 827 832
f 826 828 836
f 826 837 825
f 826 836 837
f 834 837 836
f 824 837 834
f 824 825 837
f 813 838 822
f 839 835 838
f 839 838 813
f 840 835 839
f 840 818 835
f 817 818 840
f 835 818 821
f 838 835 833
f 831 838 833
f 831 822 838
f 841 814 806
f 841 839 814
f 842 839 841
f 842 840 839
f 811 840 842
f 811 816 840
f 840 816 817
f 813 814 839
f 843 806 799
f 843 844 806
f 845 842 844
f 845 844 843
f 846 842 845
f 846 810 842
f 802 810 846
f 842 810 811
f 844 842 841
f 806 844 841
f 804 843 800
f 847 843 804
f 847 845 843
f 848 845 847
f 848 803 845
f 795 803 848
f 846 803 802
f 845 803 846
f 799 800 843
f 797 849 796
f 850 849 797
f 850 848 849
f 851 848 850
f 789 792 848
f 789 848 851
f 848 792 795
f 849 848 847
f 804 849 847
f 804 796 849
f 791 852 790
f 853 852 791
f 853 851 852
f 854 851 853
f 783 786 851
f 783 851 854
f 851 786 789
f 852 851 850
f 797 852 850
f 797 790 852
f 785 855 784
f 856 855 785
f 856 854 855
f 857 854 856
f 778 780 854
f 778 854 857
f 854 780 783
f 855 854 853
f 791 855 853
f 791 784 855
f 770 858 779
f 859 858 770
f 859 857 858
f 860 857 859
f 774 775 857
f 774 857 860
f 857 775 778
f 858 857 856
f 785 858 856
f 785 779 858
f 861 770 768
f 861 862 770
f 863 860 862
f 863 862 861
f 767 772 860
f 767 860 863
f 860 772 774
f 862 860 859
f 770 862 859
f 763 864 768
f 865 864 763
f 865 866 864
f 761 866 865
f 761 764 866
f 863 866 764
f 863 764 767
f 864 866 863
f 861 864 863
f 768 864 861
f 867 763 757
f 867 868 763
f 869 868 867
f 869 762 868
f 756 762 869
f 865 868 762
f 865 762 761
f 763 868 865
f 750 870 757
f 871 872 870
f 871 870 750
f 873 872 871
f 873 756 872
f 751 756 873
f 869 872 756
f 867 870 872
f 867 872 869
f 757 870 867
f 874 748 743
f 874 871 748
f 875 871 874
f 875 873 871
f 746 873 875
f 746 752 873
f 873 752 751
f 750 748 871
f 725 874 723
f 876 877 874
f 876 874 878
f 717 745 877
f 746 877 745
f 875 877 746
f 875 874 877
f 743 723 874
f 879 881 880
f 882 879 880
f 882 880 883
f 880 884 883
f 880 885 884
f 880 881 885
f 879 887 886
f 879 886 881
f 882 888 887
f 882 887 879
f 883 889 888
f 883 888 882
f 884 890 889
f 884 889 883
f 885 891 890
f 885 890 884
f 881 886 891
f 881 891 885
f 892 733 887
f 893 892 888
f 892 887 888
f 887 733 886
f 886 733 734
f 894 893 889
f 893 888 889
f 886 734 891
f 889 890 741
f 894 889 741
f 891 734 738
f 890 891 738
f 890 738 741
f 733 892 728
f 730 894 741
f 895 897 896
f 898 896 727
f 898 892 895
f 898 727 728
f 898 895 896
f 898 728 892
f 899 892 893
f 899 895 892
f 899 897 895
f 900 901 897
f 900 899 893
f 900 897 899
f 902 731 901
f 902 893 894
f 902 901 900
f 902 900 893
f 902 894 730
f 902 730 731
f 903 727 896
f 716 903 896
f 716 896 897
f 904 727 903
f 715 897 901
f 715 716 897
f 904 726 727
f 718 715 901
f 905 726 904
f 736 905 724
f 736 726 905
f 731 720 718
f 731 718 901
f 737 736 724
f 731 722 720
f 729 722 731
f 737 724 722
f 729 737 722
f 905 725 724
f 905 874 725
f 904 878 874
f 904 874 905
f 903 876 878
f 903 878 904
f 716 877 876
f 716 876 903
f 716 717 877

