v 0.01050000 0.00000000 0.02230000
v 0.01069030 -0.00095671 0.02230000
v 0.01050000 0.00000000 0.02725000
v 0.01069030 -0.00095671 0.02725000
v 0.01123224 -0.00176776 0.02230000
v 0.01123223 -0.00176776 0.02725000
v 0.01204329 -0.00230970 0.02230000
v 0.01204329 -0.00230970 0.02725000
v 0.01300000 -0.00250000 0.02230000
v 0.01300000 -0.00250000 0.02725000
v 0.01395671 -0.00230970 0.02230000
v 0.01395671 -0.00230970 0.02725000
v 0.01476777 -0.00176776 0.02230000
v 0.01476777 -0.00176776 0.02725000
v 0.01530970 -0.00095671 0.02230000
v 0.01530970 -0.00095671 0.02725000
v 0.01550000 0.00000000 0.02230000
v 0.01550000 0.00000000 0.02725000
v -0.00250000 0.00000000 0.02229999
v -0.00230970 -0.00095671 0.02229999
v -0.00250000 0.00000000 0.02725000
v -0.00230970 -0.00095671 0.02725000
v -0.00176776 -0.00176776 0.02229999
v -0.00176777 -0.00176776 0.02725000
v -0.00095671 -0.00230970 0.02229999
v -0.00095671 -0.00230970 0.02725000
v 0.00000000 -0.00250000 0.02229999
v 0.00000000 -0.00250000 0.02725000
v 0.00095671 -0.00230970 0.02230000
v 0.00095671 -0.00230970 0.02725000
v 0.00176777 -0.00176776 0.02230000
v 0.00176777 -0.00176776 0.02725000
v 0.00230970 -0.00095671 0.02230000
v 0.00230970 -0.00095671 0.02725000
v 0.00250000 0.00000000 0.02230000
v 0.00250000 0.00000000 0.02725000
v 0.01647588 -0.00055985 0.02763231
v 0.01649615 0.00078534 0.02724999
v 0.01631969 0.00110884 0.02755585
v 0.01580367 0.00209494 0.02735969
v 0.01500000 0.00287228 0.02725000
v -0.00249998 -0.00000000 -0.02725001
v -0.00230968 -0.00095671 -0.02725001
v -0.00249998 -0.00000000 -0.02230000
v -0.00230968 -0.00095671 -0.02230000
v -0.00176775 -0.00176777 -0.02725001
v -0.00176775 -0.00176777 -0.02230000
v -0.00095669 -0.00230970 -0.02725001
v -0.00095669 -0.00230970 -0.02230000
v 0.00000002 -0.00250000 -0.02230000
v 0.00000002 -0.00250000 -0.02725001
v 0.00095673 -0.00230970 -0.02725001
v 0.00095673 -0.00230970 -0.02230000
v 0.00176779 -0.00176777 -0.02725001
v 0.00176779 -0.00176777 -0.02230000
v 0.00230972 -0.00095671 -0.02725001
v 0.00230972 -0.00095671 -0.02230000
v 0.00250002 -0.00000000 -0.02725001
v 0.00250002 -0.00000000 -0.02230000
v 0.01050002 -0.00000000 -0.02725000
v 0.01069032 -0.00095671 -0.02725000
v 0.01050002 -0.00000000 -0.02230000
v 0.01069032 -0.00095671 -0.02230000
v 0.01123225 -0.00176777 -0.02725000
v 0.01123225 -0.00176777 -0.02230000
v 0.01204331 -0.00230970 -0.02725000
v 0.01204331 -0.00230970 -0.02230000
v 0.01300002 -0.00250000 -0.02230000
v 0.01300002 -0.00250000 -0.02725000
v 0.01395673 -0.00230970 -0.02725000
v 0.01395673 -0.00230970 -0.02230000
v 0.01476779 -0.00176777 -0.02725000
v 0.01476779 -0.00176777 -0.02230000
v 0.01530972 -0.00095671 -0.02725000
v 0.01530972 -0.00095671 -0.02230000
v 0.01550002 -0.00000000 -0.02725000
v 0.01550002 -0.00000000 -0.02230000
v 0.01774214 0.03000000 0.02230000
v 0.01799088 0.03000082 0.02838043
v 0.01645744 0.02991926 0.02707102
v 0.01515395 0.02965926 0.02230000
v 0.01485568 0.02957436 0.02675000
v 0.01332949 0.02897377 0.02675000
v 0.01274214 0.02866026 0.02230000
v 0.01192200 0.02813180 0.02675000
v 0.01067107 0.02707107 0.02230000
v 0.01067107 0.02707107 0.02675000
v -0.00225785 0.01000000 -0.02230000
v 0.02000002 0.01000000 -0.02675000
v 0.02000002 0.01000000 -0.02230000
v -0.00225784 0.01000000 -0.02675001
v 0.01530972 0.00095671 -0.02725000
v 0.01530972 0.00095671 -0.02230000
v 0.01476779 0.00176777 -0.02725000
v 0.01476779 0.00176777 -0.02230000
v 0.01395673 0.00230970 -0.02725000
v 0.01395673 0.00230970 -0.02230000
v 0.01300002 0.00250000 -0.02230000
v 0.01300002 0.00250000 -0.02725000
v 0.01204331 0.00230970 -0.02725000
v 0.01204331 0.00230970 -0.02230000
v 0.01123225 0.00176777 -0.02725000
v 0.01123225 0.00176777 -0.02230000
v 0.01069032 0.00095671 -0.02725000
v 0.01069032 0.00095671 -0.02230000
v 0.00230972 0.00095671 -0.02725001
v 0.00230972 0.00095671 -0.02230000
v 0.00176779 0.00176777 -0.02725001
v 0.00176779 0.00176777 -0.02230000
v 0.00095673 0.00230970 -0.02725001
v 0.00095673 0.00230970 -0.02230000
v 0.00000002 0.00250000 -0.02230000
v 0.00000002 0.00250000 -0.02725001
v -0.00095669 0.00230970 -0.02725001
v -0.00095669 0.00230970 -0.02230000
v -0.00176775 0.00176777 -0.02725001
v -0.00176775 0.00176777 -0.02230000
v -0.00230968 0.00095671 -0.02725001
v -0.00230968 0.00095671 -0.02230000
v 0.02277166 0.00814805 -0.02675000
v 0.02300002 0.00700000 -0.02675000
v 0.02300002 0.00700000 -0.02230000
v 0.02277166 0.00814805 -0.02230000
v 0.02212134 0.00912132 -0.02675000
v 0.02212134 0.00912132 -0.02230000
v 0.02114807 0.00977164 -0.02675000
v 0.02114807 0.00977164 -0.02230000
v -0.00848677 0.00583797 -0.02230000
v -0.00899998 0.00325786 -0.02230000
v -0.00899998 0.00325786 -0.02675001
v -0.00848677 0.00583797 -0.02675001
v -0.00702526 0.00802527 -0.02230000
v -0.00702526 0.00802527 -0.02675001
v -0.00483795 0.00948679 -0.02230000
v -0.00483795 0.00948679 -0.02675001
v 0.02300002 -0.00600000 -0.02230000
v -0.00899998 -0.00600000 -0.02230001
v 0.03299999 0.02700001 0.05975001
v 0.03299999 0.02700000 0.05625001
v 0.03299999 -0.00700000 0.05975001
v 0.03299999 -0.00700000 0.05625001
v 0.02250002 -0.00950000 -0.02725000
v 0.02248986 0.00748287 -0.02725003
v 0.02176779 0.00876777 -0.02725000
v 0.02048198 0.00949212 -0.02725003
v -0.00728877 -0.00949890 -0.02725002
v -0.00846422 -0.00869606 -0.02725000
v -0.00849998 0.00325786 -0.02725001
v -0.00225784 0.00950000 -0.02725001
v -0.00802483 0.00564663 -0.02725001
v -0.00464661 0.00902484 -0.02725001
v -0.00667170 0.00767172 -0.02725001
v 0.03114804 -0.00977164 0.05625001
v 0.02999999 -0.01000000 0.05625001
v 0.02999999 -0.01000000 0.05975001
v 0.03114804 -0.00977164 0.05975001
v 0.03212131 -0.00912132 0.05625001
v 0.03212131 -0.00912132 0.05975001
v 0.03277163 -0.00814805 0.05625001
v 0.03277163 -0.00814805 0.05975001
v -0.00776537 -0.00984776 0.02674999
v -0.00700000 -0.01000000 0.02674999
v -0.00699998 -0.01000000 -0.02675001
v -0.00776535 -0.00984776 -0.02675001
v -0.00841419 -0.00941421 -0.02675001
v -0.00841421 -0.00941421 0.02674999
v -0.00884774 -0.00876537 -0.02675001
v -0.00884776 -0.00876536 0.02674999
v -0.00899998 -0.00800000 -0.02675001
v -0.00900000 -0.00800000 0.02674999
v 0.01547790 -0.00250710 0.02727664
v 0.01613379 -0.00163061 0.02725004
v 0.01500000 -0.00950000 0.02725000
v 0.01530970 0.00095671 0.02725000
v 0.01476777 0.00176777 0.02725000
v 0.01395671 0.00230970 0.02725000
v 0.01300000 0.00250000 0.02725000
v -0.00728779 -0.00949833 0.02725000
v 0.00230970 0.00095671 0.02725000
v 0.01069030 0.00095671 0.02725000
v 0.00176777 0.00176777 0.02725000
v 0.01204329 0.00230970 0.02725000
v 0.01123223 0.00176777 0.02725000
v -0.00846580 -0.00870202 0.02725006
v 0.00095671 0.00230970 0.02725000
v -0.00850000 0.00325787 0.02724999
v -0.00176777 0.00176777 0.02725000
v -0.00230970 0.00095671 0.02725000
v -0.00817629 0.00571665 0.02724999
v -0.00722724 0.00800787 0.02724999
v -0.00095671 0.00230970 0.02725000
v 0.01157694 0.02726444 0.02725000
v 0.01355012 0.02852509 0.02725000
v 0.01500000 0.02909565 0.02725000
v -0.00571751 0.00997538 0.02724999
v 0.00000000 0.00250000 0.02725000
v -0.00607107 0.01032894 0.02674999
v -0.00607107 0.01032893 0.02229999
v -0.00865926 0.00584606 0.02674999
v -0.00900000 0.00325787 0.02674999
v -0.00900000 0.00325787 0.02229999
v -0.00865926 0.00584606 0.02229999
v -0.00766026 0.00825787 0.02674999
v -0.00766025 0.00825787 0.02229999
v -0.00900000 -0.00600000 0.02229999
v 0.02212132 -0.00600000 0.02317868
v 0.02114805 -0.00600000 0.02252837
v 0.02277164 -0.00600000 0.02415195
v 0.02000000 -0.00600000 0.02230000
v 0.02300000 -0.00600000 0.02530000
v 0.02300001 0.03000000 0.02530000
v 0.02277164 0.03000000 0.02415195
v 0.02212133 0.03000000 0.02317868
v 0.02114806 0.03000000 0.02252836
v 0.02000001 0.03000000 0.02230000
v 0.00230970 0.00095671 0.02230000
v 0.00176777 0.00176777 0.02230000
v 0.00095671 0.00230970 0.02230000
v 0.00000000 0.00250000 0.02229999
v -0.00095671 0.00230970 0.02229999
v -0.00176776 0.00176777 0.02229999
v -0.00230970 0.00095671 0.02229999
v 0.01530970 0.00095671 0.02230000
v 0.01476777 0.00176777 0.02230000
v 0.01395671 0.00230970 0.02230000
v 0.01300000 0.00250000 0.02230000
v 0.01204329 0.00230970 0.02230000
v 0.01123224 0.00176777 0.02230000
v 0.01069030 0.00095671 0.02230000
v 0.02299999 -0.00950000 0.05625001
v 0.02299999 0.03000001 0.05625000
v 0.02300002 -0.00950000 -0.02675000
v 0.02249999 -0.01000000 0.05625001
v 0.03114804 0.02977164 0.05625001
v 0.02999999 0.03000000 0.05625001
v 0.03212131 0.02912133 0.05625001
v 0.03277163 0.02814806 0.05625001
v 0.03277163 0.02814806 0.05975001
v 0.03212131 0.02912133 0.05975001
v 0.03114804 0.02977165 0.05975001
v 0.02999999 0.03000000 0.05975001
v 0.01614805 -0.00950000 0.02747836
v 0.01712132 -0.00950000 0.02812868
v 0.01587558 0.02934289 0.02738062
v 0.01668689 0.02946841 0.02776919
v 0.01735041 0.02950000 0.02838570
v 0.01777164 -0.00950000 0.02910195
v 0.01770518 0.02950000 0.02895309
v 0.01792537 0.02950001 0.02958500
v 0.01800000 -0.00950000 0.03025000
v 0.01800000 0.02950001 0.03025000
v 0.01799999 0.02950001 0.05725000
v 0.01799999 -0.00950000 0.05725000
v 0.01849790 0.03000000 0.02986140
v 0.01850173 0.03000009 0.05773091
v 0.02051493 0.03000014 0.05973366
v 0.01923222 0.03000001 0.05901777
v 0.03249717 -0.00747972 0.06025002
v 0.03176776 -0.00876776 0.06025001
v 0.03048907 -0.00949208 0.06025034
v 0.02099999 -0.00950000 0.06025001
v 0.02999999 0.02950001 0.06025001
v 0.03139927 0.02909417 0.06025359
v 0.03249742 0.02748228 0.06025003
v 0.02099999 0.02950001 0.06025000
v 0.01500000 -0.01000000 0.02675000
v 0.02250002 -0.01000000 -0.02675000
v 0.01698619 -0.00999995 0.02729198
v 0.01848931 -0.00999998 0.02957486
v 0.01959893 -0.01000040 0.05934684
v 0.01850174 -0.01000009 0.05773091
v 0.02099999 -0.01000000 0.05975001
v 0.01985194 -0.00950000 0.06002165
v 0.01985194 0.02950001 0.06002164
v 0.01887867 -0.00950000 0.05937133
v 0.01887867 0.02950001 0.05937132
v 0.01822835 0.02950001 0.05839805
v 0.01822835 -0.00950000 0.05839805
f 1 3 2
f 3 4 2
f 4 6 5
f 2 4 5
f 6 8 7
f 5 6 7
f 8 10 9
f 7 8 9
f 10 12 11
f 9 10 11
f 12 14 13
f 11 12 13
f 14 16 15
f 13 14 15
f 16 18 17
f 15 16 17
f 19 21 20
f 21 22 20
f 22 24 23
f 20 22 23
f 24 26 25
f 23 24 25
f 26 28 27
f 25 26 27
f 28 30 29
f 27 28 29
f 30 32 31
f 29 30 31
f 32 34 33
f 31 32 33
f 34 36 35
f 33 34 35
f 37 39 38
f 38 39 40
f 38 40 41
f 42 44 43
f 44 45 43
f 45 47 46
f 43 45 46
f 47 49 48
f 49 50 48
f 46 47 48
f 48 50 51
f 50 53 52
f 51 50 52
f 53 55 54
f 52 53 54
f 55 57 56
f 54 55 56
f 57 59 58
f 56 57 58
f 60 62 61
f 62 63 61
f 63 65 64
f 61 63 64
f 65 67 66
f 67 68 66
f 64 65 66
f 66 68 69
f 68 71 70
f 69 68 70
f 71 73 72
f 70 71 72
f 73 75 74
f 72 73 74
f 75 77 76
f 74 75 76
f 78 80 79
f 81 83 82
f 81 82 80
f 81 80 78
f 84 85 83
f 84 83 81
f 86 87 85
f 86 85 84
f 88 90 89
f 88 89 91
f 76 77 92
f 77 93 92
f 93 95 94
f 92 93 94
f 95 97 96
f 97 98 96
f 94 95 96
f 96 98 99
f 98 101 100
f 99 98 100
f 101 103 102
f 100 101 102
f 103 105 104
f 102 103 104
f 105 62 60
f 104 105 60
f 58 59 106
f 59 107 106
f 107 109 108
f 106 107 108
f 109 111 110
f 111 112 110
f 108 109 110
f 110 112 113
f 112 115 114
f 113 112 114
f 115 117 116
f 114 115 116
f 117 119 118
f 116 117 118
f 119 44 42
f 118 119 42
f 120 122 121
f 120 123 122
f 124 125 123
f 124 123 120
f 126 127 125
f 126 90 127
f 126 125 124
f 89 90 126
f 128 130 129
f 128 131 130
f 132 133 131
f 132 131 128
f 134 91 135
f 134 135 133
f 134 133 132
f 88 91 134
f 71 136 73
f 75 73 136
f 68 136 71
f 77 136 122
f 77 75 136
f 93 77 122
f 95 93 122
f 127 122 123
f 127 123 125
f 90 97 95
f 90 98 97
f 90 95 122
f 90 122 127
f 101 98 90
f 57 63 62
f 57 65 63
f 57 55 65
f 53 67 65
f 53 65 55
f 59 62 105
f 59 57 62
f 107 59 105
f 109 105 103
f 109 107 105
f 137 68 67
f 137 45 44
f 137 47 45
f 137 49 47
f 137 50 49
f 137 53 50
f 137 136 68
f 137 67 53
f 129 137 44
f 129 119 117
f 129 44 119
f 88 103 101
f 88 111 109
f 88 112 111
f 88 115 112
f 88 109 103
f 88 101 90
f 128 129 117
f 134 115 88
f 134 117 115
f 132 128 117
f 132 117 134
f 138 140 139
f 140 141 139
f 72 142 70
f 142 72 74
f 70 142 69
f 142 74 76
f 142 76 143
f 69 142 66
f 143 76 92
f 143 92 94
f 144 143 145
f 94 96 145
f 143 94 145
f 145 96 99
f 145 99 100
f 64 66 52
f 54 64 52
f 61 64 56
f 64 54 56
f 60 61 58
f 61 56 58
f 51 52 146
f 66 142 146
f 52 66 146
f 51 146 48
f 104 60 106
f 60 58 106
f 48 146 46
f 102 104 108
f 104 106 108
f 46 146 147
f 46 147 43
f 42 43 148
f 43 147 148
f 116 118 148
f 118 42 148
f 102 108 149
f 108 110 149
f 110 113 149
f 113 114 149
f 100 102 149
f 145 100 149
f 116 148 150
f 149 114 151
f 114 116 151
f 116 150 152
f 151 116 152
f 153 155 154
f 153 156 155
f 157 158 156
f 157 156 153
f 159 160 158
f 159 158 157
f 141 140 160
f 141 160 159
f 161 163 162
f 161 165 164
f 161 164 163
f 166 167 165
f 166 165 161
f 168 169 167
f 168 167 166
f 170 169 168
f 171 37 172
f 172 37 38
f 14 171 172
f 16 14 172
f 12 171 14
f 18 172 38
f 18 16 172
f 10 173 171
f 10 171 12
f 174 18 38
f 8 173 10
f 6 173 8
f 175 174 38
f 41 175 38
f 176 175 41
f 177 176 41
f 32 173 6
f 34 6 4
f 34 32 6
f 30 173 32
f 36 34 4
f 36 4 3
f 178 173 30
f 178 30 28
f 26 178 28
f 179 36 3
f 179 3 180
f 24 178 26
f 181 179 180
f 181 183 182
f 181 180 183
f 184 178 24
f 185 181 182
f 22 184 24
f 186 184 22
f 186 188 187
f 186 21 188
f 186 22 21
f 189 186 187
f 190 187 191
f 190 189 187
f 192 194 193
f 192 41 194
f 192 182 177
f 192 177 41
f 195 196 185
f 195 191 196
f 195 185 182
f 195 190 191
f 195 182 192
f 87 86 197
f 86 198 197
f 199 201 200
f 199 202 201
f 203 204 202
f 203 202 199
f 197 198 204
f 197 204 203
f 130 169 137
f 129 130 137
f 200 201 205
f 200 205 170
f 170 205 169
f 205 137 169
f 206 136 207
f 136 206 208
f 136 137 209
f 207 136 209
f 209 137 205
f 136 208 210
f 210 212 211
f 208 213 212
f 208 212 210
f 206 214 213
f 206 213 208
f 207 215 214
f 207 214 206
f 209 215 207
f 35 36 216
f 36 179 216
f 179 181 217
f 216 179 217
f 181 185 218
f 217 181 218
f 185 196 219
f 218 185 219
f 196 191 220
f 219 196 220
f 191 187 221
f 220 191 221
f 187 188 222
f 221 187 222
f 188 21 19
f 222 188 19
f 17 18 223
f 18 174 223
f 174 175 224
f 223 174 224
f 175 176 225
f 224 175 225
f 176 177 226
f 225 176 226
f 177 182 227
f 226 177 227
f 182 183 228
f 227 182 228
f 183 180 229
f 228 183 229
f 180 3 1
f 229 180 1
f 13 209 11
f 209 13 15
f 11 209 9
f 209 15 17
f 9 209 7
f 209 17 223
f 5 7 29
f 31 5 29
f 7 209 29
f 2 5 33
f 5 31 33
f 29 209 27
f 1 2 35
f 229 1 35
f 2 33 35
f 229 35 216
f 228 229 217
f 229 216 217
f 227 228 218
f 228 217 218
f 19 20 205
f 20 23 205
f 23 25 205
f 25 27 205
f 27 209 205
f 223 224 215
f 224 225 215
f 209 223 215
f 221 222 201
f 222 19 201
f 19 205 201
f 221 201 202
f 221 202 204
f 220 221 204
f 215 225 86
f 84 81 86
f 81 78 86
f 78 215 86
f 225 226 86
f 226 227 86
f 220 204 198
f 86 227 198
f 218 219 198
f 219 220 198
f 227 218 198
f 230 210 231
f 231 210 211
f 136 210 232
f 210 230 232
f 122 136 121
f 136 232 121
f 157 153 159
f 159 153 154
f 159 154 141
f 154 233 230
f 141 154 230
f 141 230 139
f 234 236 235
f 236 237 235
f 237 139 235
f 139 230 231
f 235 139 231
f 237 138 139
f 237 239 238
f 237 238 138
f 236 239 237
f 234 240 239
f 234 239 236
f 235 241 240
f 235 240 234
f 173 242 171
f 171 242 37
f 37 242 243
f 41 40 194
f 40 39 244
f 194 40 244
f 39 37 245
f 244 39 245
f 243 247 246
f 37 243 246
f 245 37 246
f 246 247 248
f 247 250 249
f 248 247 249
f 249 250 251
f 251 253 252
f 251 250 253
f 212 213 214
f 211 214 215
f 211 212 214
f 79 215 78
f 79 211 215
f 254 211 79
f 231 241 235
f 255 231 254
f 256 241 231
f 257 231 255
f 257 256 231
f 211 254 231
f 258 260 259
f 261 260 258
f 262 264 263
f 265 258 264
f 265 261 258
f 265 264 262
f 162 163 266
f 163 267 266
f 266 267 268
f 268 267 269
f 270 271 233
f 271 269 233
f 270 233 272
f 233 154 155
f 272 233 155
f 233 269 267
f 265 273 261
f 274 275 273
f 274 273 265
f 276 275 274
f 277 278 275
f 277 275 276
f 252 253 278
f 252 278 277
f 169 130 148
f 147 169 148
f 131 148 130
f 131 150 148
f 133 152 150
f 133 150 131
f 135 151 152
f 135 152 133
f 91 149 151
f 91 151 135
f 164 146 163
f 165 147 146
f 165 146 164
f 167 147 165
f 169 147 167
f 89 149 91
f 89 145 149
f 142 267 163
f 142 163 146
f 267 232 233
f 232 230 233
f 126 145 89
f 144 145 126
f 124 144 126
f 120 143 144
f 120 144 124
f 121 143 120
f 232 267 142
f 121 232 142
f 143 121 142
f 197 192 87
f 197 195 192
f 203 195 197
f 203 190 195
f 199 189 190
f 199 190 203
f 186 189 199
f 200 186 199
f 193 194 82
f 83 193 82
f 85 192 193
f 85 193 83
f 87 192 85
f 170 186 200
f 170 184 186
f 80 82 244
f 82 194 244
f 80 244 245
f 79 80 246
f 80 245 246
f 168 184 170
f 166 184 168
f 161 178 184
f 161 184 166
f 162 178 161
f 79 246 248
f 79 248 249
f 79 249 254
f 254 249 251
f 266 178 162
f 266 173 178
f 251 252 255
f 254 251 255
f 250 247 269
f 247 243 268
f 269 247 268
f 243 242 268
f 242 173 266
f 268 242 266
f 277 255 252
f 276 257 255
f 276 255 277
f 274 256 257
f 274 257 276
f 265 256 274
f 271 250 269
f 271 253 250
f 265 262 241
f 256 265 241
f 273 272 261
f 273 270 272
f 275 270 273
f 271 270 275
f 278 271 275
f 253 271 278
f 238 264 138
f 239 263 264
f 239 264 238
f 240 263 239
f 262 263 240
f 241 262 240
f 155 261 272
f 155 260 261
f 258 138 264
f 258 140 138
f 156 260 155
f 158 259 260
f 158 260 156
f 160 258 259
f 160 259 158
f 140 258 160

